<!-- Generator: Adobe Illustrator 19.2.0, SVG Export Plug-In  -->
<svg version="1.0"
	 xmlns="http://www.w3.org/2000/svg" xmlns:xlink="http://www.w3.org/1999/xlink" xmlns:a="http://ns.adobe.com/AdobeSVGViewerExtensions/3.0/"
	 x="0px" y="0px" width="99.7px" height="78.4px" viewBox="0 0 99.7 78.4" style="enable-background:new 0 0 99.7 78.4;"
	 xml:space="preserve">
<style type="text/css">
	.st0{fill:#7629F4;}
</style>
<defs>
</defs>
<g>
	<g>
		<path class="st0" d="M5.9,49.9c1.5-0.5,2.5-1.1,3.1-1.8c0.6-0.7,0.9-2,0.9-3.8V38c0-1-0.2-1.8-0.7-2.2c-0.4-0.5-1-0.6-1.8-0.4
			c-0.9,0.3-1.5,0.9-1.9,1.8C5.2,38.1,5,38.9,5,39.6v4l-5,1.7v-4c0-1.4,0.2-2.8,0.6-4.2c0.4-1.4,0.9-2.7,1.6-3.8
			c0.7-1.1,1.5-2.1,2.4-3c0.9-0.9,1.9-1.5,2.9-1.8c1.4-0.5,2.5-0.5,3.4,0c0.9,0.5,1.6,1,2,1.6c0.3,0.4,0.6,0.9,0.9,1.4
			c0.2,0.5,0.4,1.1,0.6,1.8c0.1,0.7,0.3,1.6,0.3,2.6c0.1,1,0.1,2.3,0.1,3.9c0,1.7,0,3.1-0.1,4.1s-0.2,2-0.4,2.8
			c-0.2,0.8-0.5,1.5-0.9,2.1c-0.4,0.6-1,1.4-1.7,2.2c0.8,0.4,1.4,0.9,1.8,1.3c0.4,0.5,0.7,1.1,0.9,1.8c0.2,0.7,0.3,1.7,0.3,2.8
			c0,1.1,0,2.5,0,4.3c0,1.6,0,2.9-0.1,4c0,1.1-0.1,2-0.2,2.7c-0.1,0.7-0.2,1.4-0.4,1.9c-0.2,0.6-0.4,1.2-0.6,1.8
			c-0.6,1.5-1.4,2.8-2.4,4c-1,1.2-2.2,2-3.8,2.5c-0.8,0.3-1.6,0.4-2.5,0.3s-1.7-0.4-2.4-1c-0.7-0.6-1.3-1.5-1.8-2.6
			C0.2,73.6,0,72,0,70.1v-4l5-1.7v3.6c0,1.1,0.2,1.9,0.7,2.5c0.4,0.6,1,0.7,1.8,0.5c0.7-0.2,1.3-0.8,1.8-1.7
			c0.4-0.9,0.7-1.9,0.7-3.1v-7c0-1-0.1-1.7-0.2-2.3c-0.1-0.6-0.3-1-0.6-1.2s-0.7-0.3-1.2-0.3c-0.5,0.1-1.2,0.2-2,0.5V49.9z"/>
		<path class="st0" d="M18.2,35.3c0-1.6,0.2-3.2,0.6-4.6c0.4-1.4,1-2.7,1.6-3.8c0.7-1.1,1.5-2.1,2.4-2.9c0.9-0.8,1.8-1.3,2.8-1.7
			c1-0.3,1.9-0.4,2.8-0.2c0.9,0.2,1.7,0.6,2.4,1.3c0.7,0.7,1.2,1.6,1.6,2.7c0.4,1.1,0.6,2.5,0.6,4.2V59c0,1.6-0.2,3.2-0.6,4.6
			c-0.4,1.4-1,2.7-1.6,3.8c-0.7,1.1-1.5,2.1-2.4,2.9c-0.9,0.8-1.8,1.3-2.8,1.7c-1,0.3-1.9,0.4-2.8,0.2c-0.9-0.2-1.7-0.6-2.4-1.3
			s-1.2-1.6-1.6-2.7c-0.4-1.1-0.6-2.5-0.6-4.2V35.3z M23.1,62.3c0,1,0.2,1.8,0.7,2.3c0.5,0.5,1,0.6,1.8,0.4c0.7-0.2,1.3-0.8,1.8-1.6
			c0.5-0.8,0.7-1.7,0.7-2.7V32c0-1-0.2-1.8-0.7-2.3c-0.5-0.5-1-0.6-1.8-0.4c-0.7,0.2-1.3,0.8-1.8,1.6c-0.5,0.8-0.7,1.7-0.7,2.7V62.3
			z"/>
		<path class="st0" d="M62.2,24.7l-5,1.7v-1.6c0-1.6-0.3-2.9-0.8-3.9s-1.4-1.3-2.7-0.8c-0.7,0.2-1.2,0.6-1.7,1.1
			c-0.4,0.5-0.8,1.1-1,1.7c-0.2,0.7-0.4,1.4-0.5,2.2c-0.1,0.8-0.1,1.6-0.1,2.4c0,1,0,1.8,0.1,2.4c0,0.6,0.2,1.2,0.4,1.6
			s0.5,0.7,0.9,1c0.4,0.2,0.9,0.4,1.5,0.6l3.8,0.9c1.1,0.2,2,0.6,2.7,1.2c0.7,0.6,1.2,1.3,1.6,2.3c0.4,1,0.6,2.1,0.8,3.5
			c0.1,1.4,0.2,2.9,0.2,4.7c0,2.1-0.1,4-0.4,5.9c-0.3,1.9-0.8,3.5-1.4,5c-0.7,1.5-1.6,2.8-2.7,3.9c-1.1,1.1-2.5,1.9-4.1,2.4
			c-1.2,0.4-2.3,0.5-3.4,0.2c-1-0.2-1.9-0.8-2.7-1.5c-0.7-0.8-1.3-1.8-1.8-3.1s-0.7-2.7-0.7-4.4v-2.6l5-1.7v2.2
			c0,1.3,0.3,2.3,0.8,3.2c0.5,0.8,1.4,1.1,2.7,0.6c0.8-0.3,1.5-0.7,2-1.2c0.5-0.5,0.8-1.1,1.1-1.8c0.2-0.7,0.4-1.5,0.5-2.5
			c0.1-0.9,0.1-2,0.1-3c0-1.3,0-2.3-0.1-3.1c-0.1-0.8-0.2-1.4-0.4-1.9c-0.2-0.4-0.5-0.7-0.9-0.9c-0.4-0.2-0.9-0.4-1.5-0.5l-3.6-0.9
			c-2.1-0.5-3.6-1.7-4.3-3.5c-0.7-1.8-1.1-4.2-1.1-7.3c0-1.8,0.2-3.6,0.5-5.4c0.4-1.8,0.9-3.4,1.6-4.8c0.7-1.4,1.6-2.7,2.7-3.7
			c1.1-1.1,2.3-1.8,3.8-2.3c1.2-0.4,2.4-0.5,3.4-0.2c1,0.3,1.9,0.9,2.6,1.7c0.7,0.8,1.3,1.8,1.7,3c0.4,1.2,0.6,2.4,0.6,3.8V24.7z"/>
		<path class="st0" d="M65.9,9.4l14.8-4.9V11l-9.9,3.3v14.3l8.6-2.9v6.6l-8.6,2.9v14.3l9.9-3.3v7l-14.8,4.9V9.4z"/>
		<path class="st0" d="M99.7,36c0,1.5-0.2,3-0.6,4.5c-0.4,1.5-1,2.9-1.7,4.2c-0.7,1.3-1.6,2.4-2.5,3.3c-1,0.9-2,1.6-3.1,2
			c-0.9,0.3-1.9,0.4-2.9,0.4c-1,0-1.9-0.4-2.6-1c-0.8-0.6-1.4-1.6-1.9-2.9c-0.5-1.3-0.8-3.1-0.8-5.3V14.3c0-1.6,0.2-3.2,0.6-4.7
			c0.4-1.5,0.9-2.9,1.7-4.1c0.7-1.2,1.6-2.3,2.6-3.2c1-0.9,2.1-1.6,3.3-2c1.1-0.4,2.2-0.4,3.2-0.2s1.8,0.8,2.5,1.6
			c0.7,0.8,1.3,1.8,1.7,3.1c0.4,1.3,0.6,2.8,0.6,4.5v2.7l-5,1.7v-2.3c0-1.4-0.3-2.5-0.8-3.3c-0.6-0.8-1.3-1.1-2.2-0.8
			c-1.2,0.4-2.1,1.2-2.5,2.4c-0.4,1.2-0.6,2.6-0.6,4.3v25c0,1.4,0.2,2.5,0.7,3.3c0.4,0.8,1.2,1,2.4,0.7c0.3-0.1,0.7-0.3,1-0.6
			c0.4-0.3,0.7-0.7,1-1.1c0.3-0.5,0.6-1.1,0.8-1.8c0.2-0.7,0.3-1.5,0.3-2.5v-2.4l5-1.7V36z"/>
	</g>
</g>
</svg>
