<!-- Generator: Adobe Illustrator 19.2.0, SVG Export Plug-In  -->
<svg version="1.0"
	 xmlns="http://www.w3.org/2000/svg" xmlns:xlink="http://www.w3.org/1999/xlink" xmlns:a="http://ns.adobe.com/AdobeSVGViewerExtensions/3.0/"
	 x="0px" y="0px" width="219px" height="167.6px" viewBox="0 0 219 167.6" style="enable-background:new 0 0 219 167.6;"
	 xml:space="preserve">
<style type="text/css">
	.st0{fill:#7629F4;stroke:#FFFFFF;stroke-width:1.2475;stroke-linecap:round;stroke-linejoin:round;stroke-miterlimit:10;}
	.st1{fill:#FFFFFF;}
	.st2{fill:none;stroke:#7629F4;stroke-width:1.2475;stroke-linecap:round;stroke-linejoin:round;stroke-miterlimit:10;}
	.st3{fill:none;stroke:#FFFFFF;stroke-width:1.2475;stroke-linecap:round;stroke-linejoin:round;stroke-miterlimit:10;}
	.st4{fill:none;stroke:#FFFFFF;stroke-linecap:round;stroke-linejoin:round;}
	.st5{fill:none;stroke:#FFFFFF;stroke-linecap:round;stroke-linejoin:round;stroke-dasharray:0.4909,2.9451;}
	.st6{fill:none;stroke:#FFFFFF;stroke-linecap:round;stroke-linejoin:round;stroke-dasharray:0.4909,2.9452;}
	.st7{fill:#7629F4;}
</style>
<defs>
</defs>
<g>
	<g>
		<g>
			<g>
				<g>
					<g>
						<polygon class="st0" points="13.6,98.7 96,139.9 96,160.5 13.6,119.3 						"/>
						<polyline class="st0" points="96,139.9 218.4,99 218.4,119.6 96,160.5 						"/>
						<g>
							<polygon class="st1" points="135.9,57.8 13.6,98.7 96,139.9 218.4,99 							"/>
						</g>
					</g>
					<line class="st2" x1="73.8" y1="80.1" x2="14.7" y2="99.8"/>
					<line class="st3" x1="96" y1="139.9" x2="96" y2="160.5"/>
					<polyline class="st2" points="164.2,115.6 94.8,139.1 94.8,144.5 					"/>
				</g>
				<polygon class="st0" points="96.1,139.9 109.1,146.4 109.1,167 96.1,160.5 				"/>
				<polygon class="st0" points="0.6,92 13.6,98.5 13.6,119.1 0.6,112.6 				"/>
				<g>
					<g>
						<line class="st4" x1="20.7" y1="116.4" x2="20.9" y2="116.5"/>
						<line class="st5" x1="23.5" y1="117.8" x2="86.7" y2="149.4"/>
						<line class="st4" x1="88" y1="150.1" x2="88.3" y2="150.2"/>
					</g>
				</g>
				<g>
					<g>
						<line class="st4" x1="20.7" y1="112.7" x2="20.9" y2="112.8"/>
						<line class="st6" x1="23.5" y1="114.1" x2="86.7" y2="145.7"/>
						<line class="st4" x1="88" y1="146.4" x2="88.3" y2="146.5"/>
					</g>
				</g>
				<line class="st2" x1="164.2" y1="115.6" x2="119.7" y2="93.3"/>
				<line class="st2" x1="141.9" y1="122.9" x2="109.5" y2="106.7"/>
			</g>
		</g>
		<g>
			<g>
				<path class="st7" d="M91.6,66.5c1.5-0.5,2.5-1.1,3.1-1.8c0.6-0.7,0.9-2,0.9-3.8v-6.3c0-1-0.2-1.8-0.7-2.2
					c-0.4-0.5-1-0.6-1.8-0.4c-0.9,0.3-1.5,0.9-1.9,1.8c-0.4,0.9-0.6,1.7-0.6,2.5v4l-5,1.7v-4c0-1.4,0.2-2.8,0.6-4.2
					c0.4-1.4,0.9-2.7,1.6-3.8c0.7-1.1,1.5-2.1,2.4-3c0.9-0.9,1.9-1.5,2.9-1.8c1.4-0.5,2.5-0.5,3.4,0c0.9,0.5,1.6,1,2,1.6
					c0.3,0.4,0.6,0.9,0.9,1.4c0.2,0.5,0.4,1.1,0.6,1.8c0.1,0.7,0.3,1.6,0.3,2.6c0.1,1,0.1,2.3,0.1,3.9c0,1.7,0,3.1-0.1,4.1
					s-0.2,2-0.4,2.8c-0.2,0.8-0.5,1.5-0.9,2.1c-0.4,0.6-1,1.4-1.7,2.2c0.8,0.4,1.4,0.9,1.8,1.3c0.4,0.5,0.7,1.1,0.9,1.8
					c0.2,0.7,0.3,1.7,0.3,2.8c0,1.1,0,2.5,0,4.3c0,1.6,0,2.9-0.1,4c0,1.1-0.1,2-0.2,2.7c-0.1,0.7-0.2,1.4-0.4,1.9
					c-0.2,0.6-0.4,1.2-0.6,1.8c-0.6,1.5-1.4,2.8-2.4,4c-1,1.2-2.2,2-3.8,2.5c-0.8,0.3-1.6,0.4-2.5,0.3s-1.7-0.4-2.4-1
					c-0.7-0.6-1.3-1.5-1.8-2.6c-0.5-1.2-0.7-2.7-0.7-4.6v-4l5-1.7v3.6c0,1.1,0.2,1.9,0.7,2.5c0.4,0.6,1,0.7,1.8,0.5
					c0.7-0.2,1.3-0.8,1.8-1.7c0.4-0.9,0.7-1.9,0.7-3.1v-7c0-1-0.1-1.7-0.2-2.3c-0.1-0.6-0.3-1-0.6-1.2s-0.7-0.3-1.2-0.3
					c-0.5,0.1-1.2,0.2-2,0.5V66.5z"/>
				<path class="st7" d="M103.9,51.9c0-1.6,0.2-3.2,0.6-4.6c0.4-1.4,1-2.7,1.6-3.8c0.7-1.1,1.5-2.1,2.4-2.9c0.9-0.8,1.8-1.3,2.8-1.7
					c1-0.3,1.9-0.4,2.8-0.2c0.9,0.2,1.7,0.6,2.4,1.3c0.7,0.7,1.2,1.6,1.6,2.7c0.4,1.1,0.6,2.5,0.6,4.2v28.7c0,1.6-0.2,3.2-0.6,4.6
					c-0.4,1.4-1,2.7-1.6,3.8c-0.7,1.1-1.5,2.1-2.4,2.9c-0.9,0.8-1.8,1.3-2.8,1.7c-1,0.3-1.9,0.4-2.8,0.2c-0.9-0.2-1.7-0.6-2.4-1.3
					s-1.2-1.6-1.6-2.7c-0.4-1.1-0.6-2.5-0.6-4.2V51.9z M108.9,79c0,1,0.2,1.8,0.7,2.3c0.5,0.5,1,0.6,1.8,0.4
					c0.7-0.2,1.3-0.8,1.8-1.6c0.5-0.8,0.7-1.7,0.7-2.7V48.7c0-1-0.2-1.8-0.7-2.3c-0.5-0.5-1-0.6-1.8-0.4c-0.7,0.2-1.3,0.8-1.8,1.6
					c-0.5,0.8-0.7,1.7-0.7,2.7V79z"/>
				<path class="st7" d="M147.9,41.3l-5,1.7v-1.6c0-1.6-0.3-2.9-0.8-3.9s-1.4-1.3-2.7-0.8c-0.7,0.2-1.2,0.6-1.7,1.1
					c-0.4,0.5-0.8,1.1-1,1.7c-0.2,0.7-0.4,1.4-0.5,2.2c-0.1,0.8-0.1,1.6-0.1,2.4c0,1,0,1.8,0.1,2.4c0,0.6,0.2,1.2,0.4,1.6
					s0.5,0.7,0.9,1c0.4,0.2,0.9,0.4,1.5,0.6l3.8,0.9c1.1,0.2,2,0.6,2.7,1.2c0.7,0.6,1.2,1.3,1.6,2.3c0.4,1,0.6,2.1,0.8,3.5
					c0.1,1.4,0.2,2.9,0.2,4.7c0,2.1-0.1,4-0.4,5.9c-0.3,1.9-0.8,3.5-1.4,5c-0.7,1.5-1.6,2.8-2.7,3.9c-1.1,1.1-2.5,1.9-4.1,2.4
					c-1.2,0.4-2.3,0.5-3.4,0.2c-1-0.2-1.9-0.8-2.7-1.5c-0.7-0.8-1.3-1.8-1.8-3.1s-0.7-2.7-0.7-4.4v-2.6l5-1.7v2.2
					c0,1.3,0.3,2.3,0.8,3.2c0.5,0.8,1.4,1.1,2.7,0.6c0.8-0.3,1.5-0.7,2-1.2c0.5-0.5,0.8-1.1,1.1-1.8c0.2-0.7,0.4-1.5,0.5-2.5
					c0.1-0.9,0.1-2,0.1-3c0-1.3,0-2.3-0.1-3.1c-0.1-0.8-0.2-1.4-0.4-1.9c-0.2-0.4-0.5-0.7-0.9-0.9c-0.4-0.2-0.9-0.4-1.5-0.5
					l-3.6-0.9c-2.1-0.5-3.6-1.7-4.3-3.5c-0.7-1.8-1.1-4.2-1.1-7.3c0-1.8,0.2-3.6,0.5-5.4c0.4-1.8,0.9-3.4,1.6-4.8
					c0.7-1.4,1.6-2.7,2.7-3.7c1.1-1.1,2.3-1.8,3.8-2.3c1.2-0.4,2.4-0.5,3.4-0.2c1,0.3,1.9,0.9,2.6,1.7c0.7,0.8,1.3,1.8,1.7,3
					c0.4,1.2,0.6,2.4,0.6,3.8V41.3z"/>
				<path class="st7" d="M151.6,26l14.8-4.9v6.6l-9.9,3.3v14.3l8.6-2.9V49l-8.6,2.9v14.3l9.9-3.3v7l-14.8,4.9V26z"/>
				<path class="st7" d="M185.5,52.6c0,1.5-0.2,3-0.6,4.5c-0.4,1.5-1,2.9-1.7,4.2c-0.7,1.3-1.6,2.4-2.5,3.3c-1,0.9-2,1.6-3.1,2
					c-0.9,0.3-1.9,0.4-2.9,0.4c-1,0-1.9-0.4-2.6-1c-0.8-0.6-1.4-1.6-1.9-2.9c-0.5-1.3-0.8-3.1-0.8-5.3V30.9c0-1.6,0.2-3.2,0.6-4.7
					c0.4-1.5,0.9-2.9,1.7-4.1c0.7-1.2,1.6-2.3,2.6-3.2c1-0.9,2.1-1.6,3.3-2c1.1-0.4,2.2-0.4,3.2-0.2s1.8,0.8,2.5,1.6
					c0.7,0.8,1.3,1.8,1.7,3.1c0.4,1.3,0.6,2.8,0.6,4.5v2.7l-5,1.7V28c0-1.4-0.3-2.5-0.8-3.3c-0.6-0.8-1.3-1.1-2.2-0.8
					c-1.2,0.4-2.1,1.2-2.5,2.4c-0.4,1.2-0.6,2.6-0.6,4.3v25c0,1.4,0.2,2.5,0.7,3.3c0.4,0.8,1.2,1,2.4,0.7c0.3-0.1,0.7-0.3,1-0.6
					c0.4-0.3,0.7-0.7,1-1.1c0.3-0.5,0.6-1.1,0.8-1.8c0.2-0.7,0.3-1.5,0.3-2.5v-2.4l5-1.7V52.6z"/>
			</g>
		</g>
	</g>
	<g>
		<g>
			<path class="st7" d="M89.7,27.5L88,28.1v-0.5c0-0.5-0.1-0.8-0.3-1.1c-0.2-0.3-0.5-0.3-0.9-0.2c-0.2,0.1-0.4,0.2-0.6,0.3
				c-0.2,0.2-0.3,0.3-0.4,0.5c-0.1,0.2-0.1,0.4-0.2,0.6c0,0.2-0.1,0.5-0.1,0.7c0,0.3,0,0.5,0,0.7c0,0.2,0.1,0.3,0.1,0.5
				c0.1,0.1,0.2,0.2,0.3,0.3c0.1,0.1,0.3,0.1,0.5,0.1l1.3,0.2c0.4,0,0.7,0.2,0.9,0.3c0.2,0.2,0.4,0.4,0.6,0.6c0.1,0.3,0.2,0.6,0.3,1
				c0,0.4,0.1,0.8,0.1,1.4c0,0.6-0.1,1.2-0.2,1.7c-0.1,0.5-0.3,1-0.5,1.5c-0.2,0.4-0.5,0.8-0.9,1.2c-0.4,0.3-0.9,0.6-1.4,0.8
				c-0.4,0.1-0.8,0.2-1.2,0.1c-0.4-0.1-0.7-0.2-0.9-0.4c-0.3-0.2-0.5-0.5-0.6-0.9c-0.2-0.4-0.2-0.8-0.2-1.3v-0.8l1.7-0.6v0.6
				c0,0.4,0.1,0.7,0.3,0.9c0.2,0.2,0.5,0.3,0.9,0.1c0.3-0.1,0.5-0.2,0.7-0.4c0.2-0.2,0.3-0.3,0.4-0.5c0.1-0.2,0.1-0.4,0.2-0.7
				c0-0.3,0-0.6,0-0.9c0-0.4,0-0.7,0-0.9c0-0.2-0.1-0.4-0.1-0.5c-0.1-0.1-0.2-0.2-0.3-0.3c-0.1-0.1-0.3-0.1-0.5-0.1l-1.2-0.2
				c-0.7-0.1-1.2-0.4-1.5-0.9c-0.3-0.5-0.4-1.2-0.4-2.1c0-0.5,0.1-1.1,0.2-1.6c0.1-0.5,0.3-1,0.6-1.4c0.2-0.4,0.6-0.8,0.9-1.1
				c0.4-0.3,0.8-0.6,1.3-0.7c0.4-0.1,0.8-0.2,1.2-0.1c0.4,0.1,0.7,0.2,0.9,0.4c0.3,0.2,0.4,0.5,0.6,0.8c0.1,0.3,0.2,0.7,0.2,1.1
				V27.5z"/>
			<path class="st7" d="M91.1,23l1.7-0.6v14.2l-1.7,0.6V23z"/>
			<path class="st7" d="M94.4,21.9l1.7-0.5l2.6,7.7l0,0v-8.6l1.7-0.6v14.2l-1.6,0.5L96.2,27l0,0v8.5l-1.7,0.6V21.9z"/>
			<path class="st7" d="M101.9,22.8c0-0.6,0.1-1.1,0.3-1.6c0.2-0.5,0.4-0.9,0.7-1.3c0.3-0.4,0.6-0.7,0.9-1c0.3-0.3,0.7-0.4,1-0.6
				c0.4-0.1,0.7-0.2,1-0.1c0.3,0,0.7,0.1,0.9,0.3c0.3,0.2,0.5,0.5,0.7,0.9c0.2,0.4,0.3,0.9,0.3,1.4v0.7l-1.7,0.6v-0.7
				c0-0.5-0.1-0.8-0.3-1c-0.2-0.2-0.5-0.2-0.8-0.1c-0.3,0.1-0.6,0.3-0.8,0.6c-0.2,0.3-0.3,0.7-0.3,1.2v7.5c0,0.5,0.1,0.8,0.3,1
				c0.2,0.2,0.5,0.2,0.8,0.1c0.3-0.1,0.6-0.3,0.8-0.6c0.2-0.3,0.3-0.7,0.3-1.2v-2.7l-1.4,0.4V25l3.1-1v4.5c0,0.6-0.1,1.1-0.3,1.6
				c-0.2,0.5-0.4,0.9-0.7,1.3c-0.3,0.4-0.6,0.7-0.9,1c-0.3,0.3-0.7,0.4-1,0.6c-0.4,0.1-0.7,0.2-1,0.1c-0.3,0-0.7-0.2-0.9-0.3
				c-0.3-0.2-0.5-0.5-0.7-0.9c-0.2-0.4-0.3-0.9-0.3-1.4V22.8z"/>
			<path class="st7" d="M109.2,17.1l1.7-0.6v12.2l3.4-1.1v2l-5.2,1.7V17.1z"/>
			<path class="st7" d="M115.5,15.1l5.2-1.7v1.9l-3.4,1.1v4.2l3-1v1.9l-3,1v4.2l3.4-1.1v2l-5.2,1.7V15.1z"/>
			<path class="st7" d="M130.5,14.3l-1.7,0.6v-0.5c0-0.5-0.1-0.8-0.3-1.1c-0.2-0.3-0.5-0.3-0.9-0.2c-0.2,0.1-0.4,0.2-0.6,0.3
				c-0.2,0.2-0.3,0.3-0.4,0.5c-0.1,0.2-0.1,0.4-0.2,0.6c0,0.2-0.1,0.5-0.1,0.7c0,0.3,0,0.5,0,0.7c0,0.2,0.1,0.3,0.1,0.5
				c0.1,0.1,0.2,0.2,0.3,0.3c0.1,0.1,0.3,0.1,0.5,0.1l1.3,0.2c0.4,0,0.7,0.1,0.9,0.3c0.2,0.2,0.4,0.4,0.6,0.6c0.1,0.3,0.2,0.6,0.3,1
				c0,0.4,0.1,0.8,0.1,1.4c0,0.6-0.1,1.2-0.2,1.7c-0.1,0.5-0.3,1-0.5,1.5c-0.2,0.4-0.5,0.8-0.9,1.2c-0.4,0.3-0.9,0.6-1.4,0.8
				c-0.4,0.1-0.8,0.2-1.2,0.1c-0.4-0.1-0.7-0.2-0.9-0.4c-0.3-0.2-0.5-0.5-0.6-0.9c-0.2-0.4-0.2-0.8-0.2-1.3v-0.8l1.7-0.6v0.6
				c0,0.4,0.1,0.7,0.3,0.9c0.2,0.2,0.5,0.3,0.9,0.1c0.3-0.1,0.5-0.2,0.7-0.4c0.2-0.2,0.3-0.3,0.4-0.5c0.1-0.2,0.1-0.4,0.2-0.7
				c0-0.3,0-0.6,0-0.9c0-0.4,0-0.7,0-0.9c0-0.2-0.1-0.4-0.1-0.5c-0.1-0.1-0.2-0.2-0.3-0.3c-0.1-0.1-0.3-0.1-0.5-0.1l-1.2-0.2
				c-0.7-0.1-1.2-0.4-1.5-0.9c-0.3-0.5-0.4-1.2-0.4-2.1c0-0.5,0.1-1.1,0.2-1.6c0.1-0.5,0.3-1,0.6-1.4c0.2-0.4,0.6-0.8,0.9-1.1
				c0.4-0.3,0.8-0.6,1.3-0.7c0.4-0.1,0.8-0.2,1.2-0.1c0.4,0.1,0.7,0.2,0.9,0.4c0.3,0.2,0.4,0.5,0.6,0.8c0.1,0.3,0.2,0.7,0.2,1.1
				V14.3z"/>
			<path class="st7" d="M131.8,9.8l5.2-1.7V10l-3.4,1.1v4.2l3-1v1.9l-3,1v4.2l3.4-1.1v2l-5.2,1.7V9.8z"/>
			<path class="st7" d="M138.1,7.7l2.8-0.9c2-0.7,3.1,0.4,3.1,3.2c0,0.8-0.1,1.6-0.3,2.2c-0.2,0.7-0.6,1.3-1.2,1.8l1.9,5.9l-1.8,0.6
				l-1.6-5.5l-1,0.3v6.1l-1.7,0.6V7.7z M139.8,13.5l1-0.3c0.3-0.1,0.5-0.2,0.7-0.4c0.2-0.2,0.3-0.3,0.4-0.6c0.1-0.2,0.2-0.5,0.2-0.8
				c0-0.3,0.1-0.6,0.1-1c0-0.4,0-0.7-0.1-0.9c0-0.3-0.1-0.5-0.2-0.6c-0.1-0.2-0.3-0.3-0.4-0.3c-0.2,0-0.4,0-0.8,0.1l-0.9,0.3V13.5z"
				/>
			<path class="st7" d="M148.7,18.5l-1.5,0.5l-2.5-13.4l1.8-0.6l1.4,9.5l0,0l1.4-10.4l1.8-0.6L148.7,18.5z"/>
			<path class="st7" d="M152.2,3.1l5.2-1.7v1.9L154,4.5v4.2l3-1v1.9l-3,1v4.2l3.4-1.1v2l-5.2,1.7V3.1z"/>
			<path class="st7" d="M158.5,1.1l2.8-0.9c2-0.7,3.1,0.4,3.1,3.2c0,0.8-0.1,1.6-0.3,2.2c-0.2,0.7-0.6,1.3-1.2,1.8l1.9,5.9l-1.8,0.6
				l-1.6-5.5l-1,0.3v6.1l-1.7,0.6V1.1z M160.2,6.9l1-0.3c0.3-0.1,0.5-0.2,0.7-0.4c0.2-0.2,0.3-0.3,0.4-0.6c0.1-0.2,0.2-0.5,0.2-0.8
				c0-0.3,0.1-0.6,0.1-1s0-0.7-0.1-0.9c0-0.3-0.1-0.5-0.2-0.6c-0.1-0.2-0.3-0.3-0.4-0.3c-0.2,0-0.4,0-0.8,0.1l-0.9,0.3V6.9z"/>
		</g>
	</g>
</g>
</svg>
