<!-- Generator: Adobe Illustrator 19.2.0, SVG Export Plug-In  -->
<svg version="1.0"
	 xmlns="http://www.w3.org/2000/svg" xmlns:xlink="http://www.w3.org/1999/xlink" xmlns:a="http://ns.adobe.com/AdobeSVGViewerExtensions/3.0/"
	 x="0px" y="0px" width="80.9px" height="38.9px" viewBox="0 0 80.9 38.9" style="enable-background:new 0 0 80.9 38.9;"
	 xml:space="preserve">
<style type="text/css">
	.st0{fill:#7629F4;}
</style>
<defs>
</defs>
<g>
	<g>
		<path class="st0" d="M5.9,27.5l-1.7,0.6v-0.5c0-0.5-0.1-0.8-0.3-1.1c-0.2-0.3-0.5-0.3-0.9-0.2c-0.2,0.1-0.4,0.2-0.6,0.3
			C2.2,26.8,2.1,27,2,27.2c-0.1,0.2-0.1,0.4-0.2,0.6c0,0.2-0.1,0.5-0.1,0.7c0,0.3,0,0.5,0,0.7c0,0.2,0.1,0.3,0.1,0.5
			C2,29.8,2.1,29.9,2.3,30c0.1,0.1,0.3,0.1,0.5,0.1l1.3,0.2c0.4,0,0.7,0.2,0.9,0.3c0.2,0.2,0.4,0.4,0.6,0.6c0.1,0.3,0.2,0.6,0.3,1
			c0,0.4,0.1,0.8,0.1,1.4c0,0.6-0.1,1.2-0.2,1.7c-0.1,0.5-0.3,1-0.5,1.5c-0.2,0.4-0.5,0.8-0.9,1.2C4,38.3,3.5,38.6,3,38.7
			c-0.4,0.1-0.8,0.2-1.2,0.1c-0.4-0.1-0.7-0.2-0.9-0.4c-0.3-0.2-0.5-0.5-0.6-0.9C0.1,37.2,0,36.8,0,36.3v-0.8L1.7,35v0.6
			c0,0.4,0.1,0.7,0.3,0.9c0.2,0.2,0.5,0.3,0.9,0.1c0.3-0.1,0.5-0.2,0.7-0.4C3.8,36.2,3.9,36,4,35.8c0.1-0.2,0.1-0.4,0.2-0.7
			c0-0.3,0-0.6,0-0.9c0-0.4,0-0.7,0-0.9c0-0.2-0.1-0.4-0.1-0.5c-0.1-0.1-0.2-0.2-0.3-0.3c-0.1-0.1-0.3-0.1-0.5-0.1L2,32.2
			c-0.7-0.1-1.2-0.4-1.5-0.9c-0.3-0.5-0.4-1.2-0.4-2.1c0-0.5,0.1-1.1,0.2-1.6c0.1-0.5,0.3-1,0.6-1.4c0.2-0.4,0.6-0.8,0.9-1.1
			c0.4-0.3,0.8-0.6,1.3-0.7c0.4-0.1,0.8-0.2,1.2-0.1c0.4,0.1,0.7,0.2,0.9,0.4c0.3,0.2,0.4,0.5,0.6,0.8c0.1,0.3,0.2,0.7,0.2,1.1V27.5
			z"/>
		<path class="st0" d="M7.3,23L9,22.4v14.2l-1.7,0.6V23z"/>
		<path class="st0" d="M10.6,21.9l1.7-0.5l2.6,7.7l0,0v-8.6l1.7-0.6v14.2L15,34.7L12.4,27l0,0v8.5l-1.7,0.6V21.9z"/>
		<path class="st0" d="M18.1,22.8c0-0.6,0.1-1.1,0.3-1.6c0.2-0.5,0.4-0.9,0.7-1.3c0.3-0.4,0.6-0.7,0.9-1c0.3-0.3,0.7-0.4,1-0.6
			c0.4-0.1,0.7-0.2,1-0.1c0.3,0,0.7,0.1,0.9,0.3c0.3,0.2,0.5,0.5,0.7,0.9c0.2,0.4,0.3,0.9,0.3,1.4v0.7l-1.7,0.6v-0.7
			c0-0.5-0.1-0.8-0.3-1c-0.2-0.2-0.5-0.2-0.8-0.1c-0.3,0.1-0.6,0.3-0.8,0.6c-0.2,0.3-0.3,0.7-0.3,1.2v7.5c0,0.5,0.1,0.8,0.3,1
			c0.2,0.2,0.5,0.2,0.8,0.1c0.3-0.1,0.6-0.3,0.8-0.6c0.2-0.3,0.3-0.7,0.3-1.2v-2.7l-1.4,0.4V25l3.1-1v4.5c0,0.6-0.1,1.1-0.3,1.6
			c-0.2,0.5-0.4,0.9-0.7,1.3c-0.3,0.4-0.6,0.7-0.9,1c-0.3,0.3-0.7,0.4-1,0.6C20.7,33,20.3,33,20,33c-0.3,0-0.7-0.2-0.9-0.3
			c-0.3-0.2-0.5-0.5-0.7-0.9c-0.2-0.4-0.3-0.9-0.3-1.4V22.8z"/>
		<path class="st0" d="M25.4,17.1l1.7-0.6v12.2l3.4-1.1v2l-5.2,1.7V17.1z"/>
		<path class="st0" d="M31.7,15.1l5.2-1.7v1.9l-3.4,1.1v4.2l3-1v1.9l-3,1v4.2l3.4-1.1v2l-5.2,1.7V15.1z"/>
		<path class="st0" d="M46.8,14.3L45,14.8v-0.5c0-0.5-0.1-0.8-0.3-1.1c-0.2-0.3-0.5-0.3-0.9-0.2c-0.2,0.1-0.4,0.2-0.6,0.3
			c-0.2,0.2-0.3,0.3-0.4,0.5c-0.1,0.2-0.1,0.4-0.2,0.6c0,0.2-0.1,0.5-0.1,0.7c0,0.3,0,0.5,0,0.7c0,0.2,0.1,0.3,0.1,0.5
			c0.1,0.1,0.2,0.2,0.3,0.3c0.1,0.1,0.3,0.1,0.5,0.1l1.3,0.2c0.4,0,0.7,0.1,0.9,0.3c0.2,0.2,0.4,0.4,0.6,0.6c0.1,0.3,0.2,0.6,0.3,1
			c0,0.4,0.1,0.8,0.1,1.4c0,0.6-0.1,1.2-0.2,1.7c-0.1,0.5-0.3,1-0.5,1.5c-0.2,0.4-0.5,0.8-0.9,1.2c-0.4,0.3-0.9,0.6-1.4,0.8
			c-0.4,0.1-0.8,0.2-1.2,0.1c-0.4-0.1-0.7-0.2-0.9-0.4c-0.3-0.2-0.5-0.5-0.6-0.9c-0.2-0.4-0.2-0.8-0.2-1.3v-0.8l1.7-0.6v0.6
			c0,0.4,0.1,0.7,0.3,0.9c0.2,0.2,0.5,0.3,0.9,0.1c0.3-0.1,0.5-0.2,0.7-0.4c0.2-0.2,0.3-0.3,0.4-0.5c0.1-0.2,0.1-0.4,0.2-0.7
			c0-0.3,0-0.6,0-0.9c0-0.4,0-0.7,0-0.9c0-0.2-0.1-0.4-0.1-0.5c-0.1-0.1-0.2-0.2-0.3-0.3c-0.1-0.1-0.3-0.1-0.5-0.1l-1.2-0.2
			c-0.7-0.1-1.2-0.4-1.5-0.9c-0.3-0.5-0.4-1.2-0.4-2.1c0-0.5,0.1-1.1,0.2-1.6c0.1-0.5,0.3-1,0.6-1.4c0.2-0.4,0.6-0.8,0.9-1.1
			c0.4-0.3,0.8-0.6,1.3-0.7c0.4-0.1,0.8-0.2,1.2-0.1c0.4,0.1,0.7,0.2,0.9,0.4c0.3,0.2,0.4,0.5,0.6,0.8c0.1,0.3,0.2,0.7,0.2,1.1V14.3
			z"/>
		<path class="st0" d="M48,9.8l5.2-1.7V10l-3.4,1.1v4.2l3-1v1.9l-3,1v4.2l3.4-1.1v2L48,24V9.8z"/>
		<path class="st0" d="M54.3,7.7l2.8-0.9c2-0.7,3.1,0.4,3.1,3.2c0,0.8-0.1,1.6-0.3,2.2c-0.2,0.7-0.6,1.3-1.2,1.8l1.9,5.9l-1.8,0.6
			L57.1,15l-1,0.3v6.1l-1.7,0.6V7.7z M56,13.5l1-0.3c0.3-0.1,0.5-0.2,0.7-0.4c0.2-0.2,0.3-0.3,0.4-0.6c0.1-0.2,0.2-0.5,0.2-0.8
			c0-0.3,0.1-0.6,0.1-1c0-0.4,0-0.7-0.1-0.9c0-0.3-0.1-0.5-0.2-0.6c-0.1-0.2-0.3-0.3-0.4-0.3c-0.2,0-0.4,0-0.8,0.1L56,9.1V13.5z"/>
		<path class="st0" d="M64.9,18.5L63.4,19L60.9,5.6L62.8,5l1.4,9.5l0,0l1.4-10.4l1.8-0.6L64.9,18.5z"/>
		<path class="st0" d="M68.4,3.1l5.2-1.7v1.9l-3.4,1.1v4.2l3-1v1.9l-3,1v4.2l3.4-1.1v2l-5.2,1.7V3.1z"/>
		<path class="st0" d="M74.7,1.1l2.8-0.9c2-0.7,3.1,0.4,3.1,3.2c0,0.8-0.1,1.6-0.3,2.2c-0.2,0.7-0.6,1.3-1.2,1.8l1.9,5.9l-1.8,0.6
			l-1.6-5.5l-1,0.3v6.1l-1.7,0.6V1.1z M76.5,6.9l1-0.3c0.3-0.1,0.5-0.2,0.7-0.4c0.2-0.2,0.3-0.3,0.4-0.6c0.1-0.2,0.2-0.5,0.2-0.8
			c0-0.3,0.1-0.6,0.1-1s0-0.7-0.1-0.9c0-0.3-0.1-0.5-0.2-0.6c-0.1-0.2-0.3-0.3-0.4-0.3c-0.2,0-0.4,0-0.8,0.1l-0.9,0.3V6.9z"/>
	</g>
</g>
</svg>
