<!-- Generator: Adobe Illustrator 19.2.1, SVG Export Plug-In  -->
<svg version="1.1"
	 xmlns="http://www.w3.org/2000/svg" xmlns:xlink="http://www.w3.org/1999/xlink" xmlns:a="http://ns.adobe.com/AdobeSVGViewerExtensions/3.0/"
	 x="0px" y="0px" width="275.3px" height="204.8px" viewBox="0 0 275.3 204.8" style="enable-background:new 0 0 275.3 204.8;"
	 xml:space="preserve">
<style type="text/css">
	.st0{fill:#FFFFFF;stroke:#7629F4;stroke-linecap:round;stroke-linejoin:round;stroke-miterlimit:10;}
	.st1{fill:none;stroke:#7629F4;stroke-miterlimit:10;}
	.st2{fill:#7629F4;}
	.st3{fill:#7629F4;stroke:#FFFFFF;stroke-linecap:round;stroke-linejoin:round;stroke-miterlimit:10;}
	.st4{fill:none;stroke:#FFFFFF;stroke-miterlimit:10;}
	.st5{fill:#F5F5F5;stroke:#7629F4;stroke-miterlimit:10;}
	.st6{fill:none;stroke:#762AF3;stroke-linecap:round;stroke-linejoin:round;stroke-miterlimit:10;}
	.st7{fill:#FFFFFF;stroke:#762AF3;stroke-linecap:round;stroke-linejoin:round;stroke-miterlimit:10;}
</style>
<defs>
</defs>
<g>
	<line class="st0" x1="86.3" y1="195.6" x2="103.7" y2="204.3"/>
	<polyline class="st1" points="52.1,64 52.1,75.3 17.3,86.9 	"/>
	<polygon class="st2" points="103.7,100.3 103.7,196.3 126.4,188.7 274.8,66.9 274.8,43.9 192,82.2 192,67.6 	"/>
	<line class="st1" x1="103.7" y1="204.3" x2="126.4" y2="196.7"/>
	<line class="st1" x1="126.4" y1="196.7" x2="274.8" y2="66.7"/>
	<polygon class="st0" points="103.7,89.8 225.7,34.1 274.8,27.7 222.1,1.3 158.5,0.5 0.5,38.2 	"/>
	<line class="st1" x1="103.7" y1="89.8" x2="103.7" y2="204.3"/>
	<polyline class="st2" points="195.7,52.6 195.7,75.8 270.9,41.5 270.9,32.6 226.5,38.5 195.7,52.5 	"/>
	<line class="st1" x1="225.7" y1="34.1" x2="158.3" y2="0.4"/>
	<line class="st3" x1="164.9" y1="103.2" x2="170.8" y2="101.2"/>
	<line class="st3" x1="164.9" y1="105.2" x2="170.8" y2="103.2"/>
	<line class="st3" x1="164.9" y1="107.1" x2="170.8" y2="105.2"/>
	<line class="st3" x1="164.9" y1="97.3" x2="170.8" y2="95.3"/>
	<line class="st3" x1="164.9" y1="99.3" x2="170.8" y2="97.3"/>
	<line class="st3" x1="164.9" y1="101.2" x2="170.8" y2="99.3"/>
	<polygon class="st4" points="181.3,100.5 184.5,99.5 184.5,76.9 181.3,77.9 	"/>
	<line class="st4" x1="184.5" y1="91.9" x2="181.3" y2="93"/>
	<path class="st1" d="M78.2,85.7c-0.1,2.3-1.5,3.5-3.2,2.7c-1.7-0.8-3-3.4-3-5.7c0.1-2.3,1.5-3.5,3.2-2.7
		C76.9,80.9,78.3,83.4,78.2,85.7z"/>
	<line class="st1" x1="75.1" y1="84.2" x2="52.1" y2="91.9"/>
	<path class="st1" d="M34.9,64.7c-0.1,2.3-1.5,3.5-3.2,2.7c-1.7-0.8-3-3.4-3-5.7c0.1-2.3,1.5-3.5,3.2-2.7
		C33.6,59.8,35,62.4,34.9,64.7z"/>
	<line class="st1" x1="31.8" y1="63.1" x2="8.8" y2="70.8"/>
	<path class="st5" d="M96.2,193c-0.1,2.3-1.5,3.5-3.2,2.7c-1.7-0.8-3-3.4-3-5.7c0.1-2.3,1.5-3.5,3.2-2.7
		C94.9,188.1,96.2,190.7,96.2,193z"/>
	<line class="st1" x1="93.1" y1="191.4" x2="70.1" y2="199.1"/>
	<polygon class="st6" points="84.7,33.1 104.3,42.9 129.7,34.5 110.1,24.6 	"/>
	<path class="st6" d="M117.6,35c-1.9,2.4-8.2,3.9-14,3.2c-5.8-0.7-8.9-3.2-7-5.6c1.9-2.4,8.2-3.9,14-3.2
		C116.5,30,119.6,32.5,117.6,35z"/>
	<path class="st7" d="M117.7,53.2c0,0.7,1.9,3.9,4,3.9c2-0.1,3.4-3.5,3.4-4.2c0-0.7-1.7-1.2-3.7-1.1
		C119.3,51.9,117.7,52.5,117.7,53.2z"/>
	<path class="st7" d="M117.7,53.2c0,0.7,1.7,1.2,3.7,1.1c2-0.1,3.6-0.7,3.6-1.4c0-0.7-1.7-1.2-3.7-1.1
		C119.3,51.9,117.7,52.5,117.7,53.2z"/>
	<line class="st1" x1="66.3" y1="59.2" x2="180" y2="21.3"/>
</g>
</svg>
