<!-- Generator: Adobe Illustrator 19.2.1, SVG Export Plug-In  -->
<svg version="1.1"
	 xmlns="http://www.w3.org/2000/svg" xmlns:xlink="http://www.w3.org/1999/xlink" xmlns:a="http://ns.adobe.com/AdobeSVGViewerExtensions/3.0/"
	 x="0px" y="0px" width="134.4px" height="65.8px" viewBox="0 0 134.4 65.8" style="enable-background:new 0 0 134.4 65.8;"
	 xml:space="preserve">
<style type="text/css">
	.st0{fill:#F5F5F5;stroke:#7629F4;stroke-miterlimit:10;}
	.st1{fill:#7629F4;stroke:#7629F4;stroke-miterlimit:10;}
	.st2{fill:#FFFFFF;stroke:#7629F4;stroke-miterlimit:10;}
	.st3{fill:#7629F4;stroke:#FFFFFF;stroke-miterlimit:10;}
	.st4{fill:#FFFFFF;}
</style>
<defs>
</defs>
<g>
	<g>
		<path class="st0" d="M37.1,53.6L131,15.4l-0.2,0c1.8-0.3,3-2.1,3.1-4.9c0.1-3.9-2.1-8.2-5-9.6c-1.1-0.5-2.1-0.6-3-0.2l0.4-0.1
			L33,25.1"/>
		<path class="st1" d="M21.7,52.2c-0.2,7.9-5.2,12.1-11,9.3C4.8,58.7,0.3,50,0.5,42.1c0.2-7.9,5.2-12.1,11-9.3
			C17.4,35.6,21.9,44.3,21.7,52.2z"/>
	</g>
	<path class="st0" d="M126.2,0.6L8.1,27.5l0,0c1.9-0.4,4-0.2,6.2,0.9c7.3,3.5,13,14.4,12.7,24.2c-0.2,6.1-2.6,10.5-6.2,12v0l7.8-3.5
		L131,15.4"/>
	<path class="st2" d="M27,52.6c-0.3,9.9-6.4,15.1-13.7,11.6c-7.3-3.5-13-14.4-12.7-24.2C0.8,30,6.9,24.9,14.3,28.4
		C21.6,31.9,27.3,42.7,27,52.6z"/>
	<path class="st3" d="M21.9,50.2c-0.2,6.1-4,9.3-8.5,7.1c-4.5-2.2-8-8.8-7.8-14.9c0.2-6.1,4-9.3,8.5-7.1
		C18.6,37.4,22.1,44.1,21.9,50.2z"/>
	<path class="st4" d="M19,46.7c-0.1,2-1.3,3-2.8,2.3c-1.5-0.7-2.6-2.9-2.5-4.9c0.1-2,1.3-3,2.8-2.3C18,42.5,19.1,44.7,19,46.7z"/>
</g>
</svg>
