<?xml version="1.0" encoding="utf-8"?>
<!-- Generator: Adobe Illustrator 19.2.1, SVG Export Plug-In . SVG Version: 6.00 Build 0)  -->
<svg version="1.1" id="Layer_1" xmlns="http://www.w3.org/2000/svg" xmlns:xlink="http://www.w3.org/1999/xlink" x="0px" y="0px"
	 viewBox="0 0 736.6 333.8" style="enable-background:new 0 0 736.6 333.8;" xml:space="preserve">
<style type="text/css">
	.st0{fill:#F2F2F2;}
</style>
<g>
	<rect x="628.3" y="28" class="st0" width="8.9" height="8.9"/>
	<rect x="526" y="12.7" class="st0" width="13.3" height="12.7"/>
	<rect x="447.8" y="30" class="st0" width="23.3" height="8"/>
	<rect x="275.2" y="32.7" class="st0" width="60" height="13.3"/>
	<rect x="641.8" y="240.7" class="st0" width="10.7" height="8.7"/>
	<rect x="685.2" y="196.7" class="st0" width="10" height="10"/>
	<path class="st0" d="M679.8,162.7v-7.8h9.7V149h6.7V85h-6.7v-2.9h-21.7V72h-6.5v-8.7h-22V56h-11.4v7.3h-3.8v-5.8h-67.2v5.8h-29.8
		v-6.6h-52v6.6h-32V55h-11v8.3h-17.7v-7.9h-11.3v7.9h-6.4v22.4h-30.5v6.5h-14.4v6.7h-19.6v13.7h-40v15.9H340V118h11.9v43.9h-86.1
		v-6.5h-30.7v6.5h-7v32.9h-25.7v-10.5h4.7v1.8h19.3v-18h-19.3v0.9h-13.3v14.4h-14v11.4h-0.7v40h31v13.8h-0.2v26.3h18.2H252h55.3
		v11.9h-3.8v-5H292v8.6h6.4v21h22.1V324h37.9v-14.6h21.5v-3.8h4.2v-7h27.3v-23.8h103.3v5.5h-12.8v10.5h12.8v0.4H526v-16.4h40.9
		v-17.5h11.8v-15h22.7v6.3h10v-6.3h10.7v-20.6h43.7V205h-2.9v-50.3h4.5v7.8h12.4L679.8,162.7L679.8,162.7z M376.2,282h-36.1v-7.1
		h36.1V282z"/>
	<rect x="415.8" y="278" class="st0" width="13.3" height="12"/>
	<rect x="403.8" y="306" class="st0" width="12" height="11.3"/>
	<rect x="572.5" y="0.7" class="st0" width="10" height="10"/>
	<rect x="153.2" y="251.3" class="st0" width="25.3" height="10.7"/>
	<rect x="194.5" y="295.3" class="st0" width="8" height="10.7"/>
	<rect x="432.2" y="1" class="st0" width="12" height="11"/>
	<rect x="374.2" class="st0" width="12" height="11"/>
	<rect x="711.3" y="84.6" class="st0" width="9.5" height="11.4"/>
	<rect x="670.8" y="57.4" class="st0" width="10" height="7.6"/>
	<rect x="501.6" y="28.9" class="st0" width="10.5" height="9.1"/>
	<rect x="726.5" y="43.1" class="st0" width="9.1" height="8.1"/>
	<rect x="657" y="44.1" class="st0" width="10" height="7.1"/>
	<rect x="697" y="142.2" class="st0" width="9.5" height="6.7"/>
	<rect x="714.1" y="128" class="st0" width="9.1" height="8.6"/>
	<rect x="696" y="170.4" class="st0" width="12.9" height="8.6"/>
	<rect x="669.4" y="183.2" class="st0" width="10" height="10"/>
	<rect x="670.8" y="239.9" class="st0" width="12.4" height="9.5"/>
	<rect x="644.6" y="267.6" class="st0" width="7.6" height="8.1"/>
	<rect x="586" y="281.4" class="st0" width="10" height="9.5"/>
	<rect x="530.2" y="279.9" class="st0" width="7.1" height="10.5"/>
	<rect x="556" y="294.2" class="st0" width="11.9" height="11"/>
	<rect x="459.2" y="294.7" class="st0" width="10.5" height="10.5"/>
	<rect x="432.1" y="279.5" class="st0" width="9.5" height="11"/>
	<rect x="276.8" y="295.7" class="st0" width="12.4" height="11"/>
	<rect x="291.5" y="322.3" class="st0" width="10.5" height="10"/>
	<rect x="274.9" y="276.1" class="st0" width="14.3" height="13.3"/>
	<rect x="233.9" y="295.2" class="st0" width="13.3" height="10"/>
	<rect x="251" y="323.3" class="st0" width="10" height="9.5"/>
	<rect x="180" y="279.9" class="st0" width="9.5" height="9.5"/>
	<rect x="151" y="223.7" class="st0" width="13.3" height="9.5"/>
	<rect x="150.5" y="198" class="st0" width="17.2" height="11.4"/>
	<rect x="111.4" y="253.7" class="st0" width="7.6" height="6.7"/>
	<rect x="140.5" y="266.6" class="st0" width="8.1" height="10"/>
	<rect x="138.6" y="293.3" class="st0" width="25.3" height="11.4"/>
	<rect x="178.1" y="309" class="st0" width="26.2" height="10"/>
	<rect x="110.5" y="280.9" class="st0" width="8.6" height="8.6"/>
	<rect x="69.5" y="269.5" class="st0" width="8.6" height="7.1"/>
	<rect x="38.5" y="252.3" class="st0" width="11.4" height="10"/>
	<rect x="137.6" y="323.3" class="st0" width="12.4" height="10.5"/>
	<rect x="278.2" y="310" class="st0" width="11.9" height="8.6"/>
	<polygon class="st0" points="263.4,289.9 273.9,289.9 273.9,279.5 262.5,279.5 262.5,281.4 249.1,281.4 249.1,291.9 263.4,291.9 	
		"/>
	<rect x="221" y="281.8" class="st0" width="12.4" height="10.5"/>
	<rect x="250.1" y="308.5" class="st0" width="25.7" height="10"/>
	<rect x="165.3" y="266.6" class="st0" width="9.5" height="8.6"/>
	<rect x="166.2" y="322.3" class="st0" width="11.9" height="11.4"/>
	<rect x="55.2" y="294.2" class="st0" width="8.6" height="9.1"/>
	<rect x="-1" y="295.2" class="st0" width="9.1" height="9.1"/>
	<polygon class="st0" points="206.7,239.7 181.7,239.7 181.7,253.3 180.5,253.3 180.5,265.2 190.1,265.2 190.1,262.6 206.7,262.6 
		206.7,251.4 207.7,251.4 207.7,239.9 206.7,239.9 	"/>
	<rect x="446.2" y="308.3" class="st0" width="26.3" height="9.6"/>
	<rect x="489.2" y="295.9" class="st0" width="9.1" height="8.5"/>
</g>
</svg>
