<?xml version="1.0" encoding="utf-8"?>
<!-- Generator: Adobe Illustrator 19.2.1, SVG Export Plug-In . SVG Version: 6.00 Build 0)  -->
<svg version="1.0" id="Layer_1" xmlns="http://www.w3.org/2000/svg" xmlns:xlink="http://www.w3.org/1999/xlink" x="0px" y="0px"
	 viewBox="0 0 316 151.5" style="enable-background:new 0 0 316 151.5;" xml:space="preserve">
<style type="text/css">
	.st0{fill:#222222;}
</style>
<g>
	<g>
		<path class="st0" d="M0,102.7l7.4-2.5c2.8-0.9,5-0.6,6.5,1.2c1.5,1.7,2.2,4.6,2.2,8.5v22.8c0,4.6-0.8,8.2-2.4,10.9
			c-1.6,2.7-3.8,4.5-6.8,5.5L0,151.5V102.7z M5,143.3l2.3-0.8c1.4-0.5,2.4-1.3,3-2.5s0.9-2.8,0.9-4.9v-23.5c0-1.9-0.3-3.3-0.8-4.2
			c-0.6-0.9-1.6-1.1-3-0.6L5,107.6V143.3z"/>
		<path class="st0" d="M20.5,107.4c0-2,0.2-3.8,0.7-5.5c0.5-1.7,1.1-3.1,1.9-4.4c0.8-1.2,1.7-2.3,2.7-3.1c1-0.8,2-1.4,3-1.8
			c1-0.3,2-0.4,3-0.2c1,0.2,1.9,0.6,2.7,1.3c0.8,0.7,1.4,1.7,1.9,3.1c0.5,1.3,0.7,3,0.7,5v25.8c0,2-0.2,3.8-0.7,5.5
			c-0.5,1.6-1.1,3.1-1.9,4.3c-0.8,1.2-1.7,2.3-2.7,3.1c-1,0.8-2,1.4-3,1.8c-1,0.3-2,0.4-3,0.2c-1-0.2-1.9-0.6-2.7-1.3
			c-0.8-0.7-1.4-1.7-1.9-3.1c-0.5-1.3-0.7-3-0.7-5V107.4z M25.5,131.5c0,1.7,0.3,2.8,1,3.4c0.7,0.6,1.5,0.7,2.4,0.4
			c0.9-0.3,1.7-1,2.4-2c0.7-1,1-2.4,1-4.1v-25.8c0-1.7-0.3-2.8-1-3.4c-0.7-0.6-1.5-0.7-2.4-0.4c-0.9,0.3-1.7,1-2.4,2
			c-0.7,1-1,2.4-1,4.1V131.5z"/>
		<path class="st0" d="M57.4,121.5c0,1.5-0.2,3-0.6,4.5c-0.4,1.5-1,2.9-1.7,4.2c-0.7,1.3-1.6,2.4-2.5,3.3c-1,0.9-2,1.6-3.1,2
			c-0.9,0.3-1.9,0.4-2.9,0.4s-1.9-0.4-2.6-1c-0.8-0.6-1.4-1.6-1.9-2.9c-0.5-1.3-0.8-3.1-0.8-5.3V99.8c0-1.6,0.2-3.2,0.6-4.7
			c0.4-1.5,0.9-2.9,1.7-4.1c0.7-1.2,1.6-2.3,2.6-3.2c1-0.9,2.1-1.6,3.3-2c1.1-0.4,2.2-0.4,3.2-0.2c1,0.2,1.8,0.8,2.5,1.6
			c0.7,0.8,1.3,1.8,1.7,3.1c0.4,1.3,0.6,2.8,0.6,4.5v2.7l-5,1.7v-2.3c0-1.4-0.3-2.5-0.8-3.3c-0.6-0.8-1.3-1.1-2.2-0.8
			c-1.2,0.4-2.1,1.2-2.5,2.4c-0.4,1.2-0.6,2.6-0.6,4.3v25c0,1.4,0.2,2.5,0.7,3.3c0.4,0.8,1.2,1,2.4,0.7c0.3-0.1,0.7-0.3,1-0.6
			c0.4-0.3,0.7-0.7,1-1.1c0.3-0.5,0.6-1.1,0.8-1.8c0.2-0.7,0.3-1.5,0.3-2.5v-2.4l5-1.7V121.5z"/>
		<path class="st0" d="M77.5,114.8c0,1.6-0.2,3.2-0.6,4.7c-0.4,1.5-1,2.9-1.7,4.2s-1.6,2.4-2.6,3.3s-2,1.6-3.1,1.9
			c-1.1,0.4-2.1,0.4-3.1,0.1c-1-0.3-1.8-0.8-2.6-1.6c-0.7-0.8-1.3-1.8-1.7-3s-0.6-2.6-0.6-4.2V82.3l5-1.7v37.2
			c0,1.7,0.3,2.9,0.9,3.5c0.6,0.6,1.3,0.8,2.2,0.5c0.9-0.3,1.6-0.9,2.2-2c0.6-1,0.9-2.4,0.9-4.1V78.6l5-1.7V114.8z"/>
		<path class="st0" d="M82.2,75.4l4.8-1.6l6.4,23.7l0.1,0l6.3-28l4.8-1.6v48.8l-5,1.7V88.7l-0.1,0l-4.9,22.6l-2.5,0.8l-4.9-19.4
			l-0.1,0v29.7l-5,1.7V75.4z"/>
		<path class="st0" d="M109.4,66.3l14.8-4.9V68l-9.9,3.3v14.3l8.6-2.9v6.6l-8.6,2.9v14.3l9.9-3.3v7l-14.8,4.9V66.3z"/>
		<path class="st0" d="M127.2,60.4l4.8-1.6l7.5,26.9l0.1,0V56.3l5-1.7v48.8l-4.7,1.6l-7.6-26.8l-0.1,0v29.3l-5,1.7V60.4z"/>
		<path class="st0" d="M152.4,58.6l-5.8,1.9v-6.6l16.5-5.5V55l-5.8,1.9v42.2l-5,1.7V58.6z"/>
		<path class="st0" d="M174.1,56.3c0-2,0.2-3.8,0.7-5.5c0.5-1.7,1.1-3.1,1.9-4.4c0.8-1.2,1.7-2.3,2.7-3.1c1-0.8,2-1.4,3-1.8
			c1-0.3,2-0.4,3-0.2c1,0.2,1.9,0.6,2.7,1.3c0.8,0.7,1.4,1.8,1.9,3.1c0.5,1.3,0.7,3,0.7,5v25.8c0,2-0.2,3.8-0.7,5.5
			c-0.5,1.6-1.1,3.1-1.9,4.3c-0.8,1.2-1.7,2.3-2.7,3.1c-1,0.8-2,1.4-3,1.8c-1,0.3-2,0.4-3,0.2c-1-0.2-1.9-0.6-2.7-1.3
			c-0.8-0.7-1.4-1.7-1.9-3.1c-0.5-1.3-0.7-3-0.7-5V56.3z M179,80.4c0,1.7,0.3,2.8,1,3.4c0.7,0.6,1.5,0.7,2.4,0.4
			c0.9-0.3,1.7-1,2.4-2c0.7-1,1-2.4,1-4.1V52.4c0-1.7-0.3-2.8-1-3.4c-0.7-0.6-1.5-0.7-2.4-0.4c-0.9,0.3-1.7,1-2.4,2
			c-0.7,1-1,2.4-1,4.1V80.4z"/>
		<path class="st0" d="M195.1,37.8l8-2.7c5.9-1.9,8.8,1.9,8.8,11.4c0,2.8-0.3,5.4-1,7.6c-0.6,2.2-1.7,4.3-3.3,6l5.4,20.5l-5.3,1.8
			l-4.6-19.3l-3,1V85l-5,1.7V37.8z M200.1,57.9L203,57c0.9-0.3,1.6-0.7,2.1-1.2c0.5-0.5,0.9-1.1,1.2-1.9c0.3-0.7,0.5-1.6,0.6-2.6
			c0.1-1,0.1-2.1,0.1-3.3s0-2.3-0.1-3.2c-0.1-0.9-0.3-1.6-0.6-2.2c-0.3-0.6-0.7-0.9-1.3-1c-0.6-0.1-1.3-0.1-2.2,0.3l-2.6,0.9V57.9z"
			/>
		<path class="st0" d="M216.1,30.8l5-1.7V78l-5,1.7V30.8z"/>
		<path class="st0" d="M225.9,27.6l14.8-4.9v6.6l-9.9,3.3v14.3l8.6-2.9v6.6l-8.6,2.9v14.3l9.9-3.3v7l-14.8,4.9V27.6z"/>
		<path class="st0" d="M243.8,21.6l4.8-1.6l7.5,26.9l0.1,0V17.5l5-1.7v48.8l-4.7,1.6l-7.6-26.8l-0.1,0v29.3l-5,1.7V21.6z"/>
		<path class="st0" d="M268.9,19.8l-5.8,1.9v-6.6l16.5-5.5v6.6l-5.8,1.9v42.2l-5,1.7V19.8z"/>
		<path class="st0" d="M281.8,9L296.6,4v6.6l-9.9,3.3v14.3l8.6-2.9v6.6l-8.6,2.9v14.3l9.9-3.3v7l-14.8,4.9V9z"/>
		<path class="st0" d="M299.9,3l7.4-2.5c2.8-0.9,5-0.6,6.5,1.2c1.5,1.7,2.2,4.6,2.2,8.5V33c0,4.6-0.8,8.2-2.4,10.9
			c-1.6,2.7-3.8,4.5-6.8,5.5l-6.9,2.3V3z M304.8,43.5l2.3-0.8c1.4-0.5,2.4-1.3,3-2.5c0.6-1.2,0.9-2.8,0.9-4.9V11.9
			c0-1.9-0.3-3.3-0.8-4.2c-0.6-0.9-1.6-1.1-3-0.6l-2.3,0.8V43.5z"/>
	</g>
</g>
</svg>
