<?xml version="1.0" encoding="utf-8"?>
<!-- Generator: Adobe Illustrator 19.2.1, SVG Export Plug-In . SVG Version: 6.00 Build 0)  -->
<svg version="1.0" id="Layer_1" xmlns="http://www.w3.org/2000/svg" xmlns:xlink="http://www.w3.org/1999/xlink" x="0px" y="0px"
	 viewBox="0 0 307.6 129.9" style="enable-background:new 0 0 307.6 129.9;" xml:space="preserve">
<style type="text/css">
	.st0{fill:#7629F4;}
</style>
<g>
	<g>
		<g>
			<g>
				<path class="st0" d="M12.8,127.5l-2.7,0.9l-2.2-17.8l-0.1,0l-2.2,19.3l-2.7,0.9l-3-27.5l3.1-1l1.5,17.6l0.1,0l2.3-18.9l2.2-0.7
					l2.4,17.8l0.1,0l1.4-19l3.1-1L12.8,127.5z"/>
				<path class="st0" d="M18.3,97.1l2.9-1v28.6l-2.9,1V97.1z"/>
				<path class="st0" d="M26.5,98.2l-3.4,1.1v-3.8l9.6-3.2v3.8l-3.4,1.1v24.7l-2.9,1V98.2z"/>
				<path class="st0" d="M34.6,91.6l2.9-1v12.2l3.6-1.2V89.5l2.9-1v28.6l-2.9,1v-12.7l-3.6,1.2v12.7l-2.9,1V91.6z"/>
				<path class="st0" d="M60,105c0,0.9-0.1,1.9-0.3,2.8c-0.2,0.9-0.6,1.8-1,2.6c-0.4,0.8-0.9,1.5-1.6,2s-1.3,1-2.1,1.3
					c-0.9,0.3-1.7,0.3-2.3-0.1c-0.6-0.4-1.1-0.8-1.5-1.2l2.3-3.3c0.2,0.2,0.5,0.4,0.7,0.5c0.3,0.1,0.6,0.1,0.9,0
					c0.2-0.1,0.4-0.2,0.6-0.3c0.2-0.2,0.4-0.4,0.6-0.7s0.4-0.7,0.5-1.2c0.1-0.5,0.2-1.1,0.2-1.8V84.2l2.9-1V105z"/>
				<path class="st0" d="M72.7,87.2l-2.9,1v-0.9c0-0.9-0.2-1.7-0.5-2.3s-0.8-0.7-1.6-0.5c-0.4,0.1-0.7,0.3-1,0.6
					c-0.3,0.3-0.5,0.6-0.6,1c-0.1,0.4-0.2,0.8-0.3,1.3c-0.1,0.5-0.1,0.9-0.1,1.4c0,0.6,0,1,0,1.4s0.1,0.7,0.2,0.9
					c0.1,0.2,0.3,0.4,0.5,0.6c0.2,0.1,0.5,0.3,0.9,0.3l2.2,0.5c0.6,0.1,1.2,0.4,1.6,0.7c0.4,0.3,0.7,0.8,0.9,1.3
					c0.2,0.6,0.4,1.2,0.4,2c0.1,0.8,0.1,1.7,0.1,2.7c0,1.2-0.1,2.3-0.3,3.4c-0.2,1.1-0.5,2.1-0.8,2.9s-0.9,1.6-1.6,2.3
					c-0.6,0.6-1.4,1.1-2.4,1.4c-0.7,0.2-1.4,0.3-2,0.1s-1.1-0.4-1.6-0.9c-0.4-0.5-0.8-1.1-1-1.8s-0.4-1.6-0.4-2.6v-1.5l2.9-1v1.3
					c0,0.7,0.2,1.4,0.5,1.9c0.3,0.5,0.8,0.6,1.6,0.4c0.5-0.2,0.9-0.4,1.2-0.7c0.3-0.3,0.5-0.6,0.6-1.1c0.1-0.4,0.2-0.9,0.3-1.4
					c0-0.5,0.1-1.1,0.1-1.8c0-0.7,0-1.4-0.1-1.8c0-0.5-0.1-0.8-0.2-1.1c-0.1-0.3-0.3-0.4-0.5-0.6c-0.2-0.1-0.5-0.2-0.9-0.3l-2.1-0.5
					c-1.3-0.3-2.1-1-2.5-2c-0.4-1-0.6-2.5-0.6-4.3c0-1.1,0.1-2.1,0.3-3.2s0.5-2,0.9-2.8c0.4-0.8,0.9-1.6,1.6-2.2
					c0.6-0.6,1.4-1.1,2.2-1.4c0.7-0.2,1.4-0.3,2-0.1c0.6,0.2,1.1,0.5,1.5,1c0.4,0.5,0.8,1.1,1,1.7c0.2,0.7,0.3,1.4,0.3,2.2V87.2z"/>
				<path class="st0" d="M78,77l2.3-0.8l-3.8,30.3l-2.3,0.8L78,77z"/>
				<path class="st0" d="M91.8,80.8l-2.9,1v-0.9c0-0.9-0.2-1.7-0.5-2.3s-0.8-0.7-1.6-0.5c-0.4,0.1-0.7,0.3-1,0.6
					c-0.3,0.3-0.5,0.6-0.6,1S85,80.6,85,81.1c-0.1,0.5-0.1,0.9-0.1,1.4c0,0.6,0,1,0,1.4c0,0.4,0.1,0.7,0.2,0.9
					c0.1,0.2,0.3,0.4,0.5,0.6c0.2,0.1,0.5,0.3,0.9,0.3l2.2,0.5c0.6,0.1,1.2,0.4,1.6,0.7c0.4,0.3,0.7,0.8,0.9,1.3
					c0.2,0.6,0.4,1.2,0.4,2s0.1,1.7,0.1,2.7c0,1.2-0.1,2.3-0.3,3.4c-0.2,1.1-0.5,2.1-0.8,2.9c-0.4,0.9-0.9,1.6-1.6,2.3
					c-0.6,0.6-1.4,1.1-2.4,1.4c-0.7,0.2-1.4,0.3-2,0.1c-0.6-0.1-1.1-0.4-1.6-0.9c-0.4-0.5-0.8-1.1-1-1.8s-0.4-1.6-0.4-2.6v-1.5
					l2.9-1v1.3c0,0.7,0.2,1.4,0.5,1.9c0.3,0.5,0.8,0.6,1.6,0.4c0.5-0.2,0.9-0.4,1.2-0.7c0.3-0.3,0.5-0.6,0.6-1.1
					c0.1-0.4,0.2-0.9,0.3-1.4c0-0.5,0.1-1.1,0.1-1.8c0-0.7,0-1.4-0.1-1.8c0-0.5-0.1-0.8-0.2-1.1c-0.1-0.3-0.3-0.4-0.5-0.6
					c-0.2-0.1-0.5-0.2-0.9-0.3l-2.1-0.5c-1.3-0.3-2.1-1-2.5-2c-0.4-1-0.6-2.5-0.6-4.3c0-1.1,0.1-2.1,0.3-3.2c0.2-1,0.5-2,0.9-2.8
					c0.4-0.8,0.9-1.6,1.6-2.2c0.6-0.6,1.4-1.1,2.2-1.4c0.7-0.2,1.4-0.3,2-0.1c0.6,0.2,1.1,0.5,1.5,1c0.4,0.5,0.8,1.1,1,1.7
					c0.2,0.7,0.3,1.4,0.3,2.2V80.8z"/>
				<path class="st0" d="M94.4,78.5c0-1.1,0.1-2.2,0.4-3.2c0.3-1,0.7-1.8,1.1-2.6c0.5-0.7,1-1.3,1.6-1.8c0.6-0.5,1.2-0.8,1.8-1
					c0.6-0.2,1.2-0.2,1.8-0.1c0.6,0.1,1.1,0.4,1.6,0.8c0.5,0.4,0.8,1,1.1,1.8c0.3,0.8,0.4,1.8,0.4,2.9v15.1c0,1.1-0.1,2.1-0.4,3.1
					l1.8,1.4l-1.5,3l-1.7-1.4c-0.4,0.7-0.9,1.2-1.4,1.6c-0.5,0.4-1.1,0.7-1.6,0.9c-0.6,0.2-1.2,0.2-1.8,0.1
					c-0.6-0.1-1.1-0.4-1.6-0.8c-0.5-0.4-0.8-1-1.1-1.8c-0.3-0.8-0.4-1.7-0.4-2.9V78.5z M97.3,92.6c0,1,0.2,1.7,0.6,2
					s0.9,0.4,1.4,0.2c0.2-0.1,0.5-0.2,0.6-0.4l-1.3-1l1.5-3l1.2,0.9v-0.1V76.2c0-1-0.2-1.7-0.6-2c-0.4-0.3-0.9-0.4-1.4-0.2
					c-0.5,0.2-1,0.6-1.4,1.2c-0.4,0.6-0.6,1.4-0.6,2.4V92.6z"/>
				<path class="st0" d="M107.3,67.5l2.9-1V91l5.8-1.9v4.1l-8.7,2.9V67.5z"/>
				<path class="st0" d="M124.3,61.8l4.4-1.5c0.8-0.3,1.5-0.4,2.1-0.3s1.2,0.4,1.7,1s0.8,1.3,1,2.3c0.2,0.9,0.3,2.3,0.3,4
					c0,1.3-0.1,2.4-0.2,3.3c-0.1,0.9-0.3,1.8-0.7,2.7c-0.4,1.1-0.9,2-1.6,2.7c-0.7,0.7-1.5,1.3-2.6,1.7l-1.5,0.5v11.1l-2.9,1V61.8z
					 M127.2,74.4l1.4-0.5c0.6-0.2,1-0.5,1.4-0.8c0.3-0.3,0.6-0.8,0.7-1.2c0.2-0.5,0.2-1,0.3-1.6s0-1.3,0-2c0-0.7,0-1.3,0-1.9
					s-0.1-1.1-0.3-1.5c-0.1-0.4-0.4-0.7-0.7-0.8c-0.3-0.2-0.7-0.1-1.3,0.1l-1.5,0.5V74.4z"/>
				<path class="st0" d="M136.5,57.8l4.7-1.6c3.4-1.1,5.1,1.1,5.1,6.7c0,1.7-0.2,3.1-0.6,4.5s-1,2.5-2,3.5l3.1,12l-3.1,1l-2.7-11.3
					l-1.7,0.6v12.2l-2.9,1V57.8z M139.4,69.6L141,69c0.5-0.2,0.9-0.4,1.2-0.7c0.3-0.3,0.5-0.7,0.7-1.1c0.2-0.4,0.3-0.9,0.3-1.5
					c0.1-0.6,0.1-1.2,0.1-1.9c0-0.7,0-1.3-0.1-1.9c-0.1-0.5-0.2-1-0.4-1.3c-0.2-0.3-0.4-0.5-0.8-0.6c-0.3-0.1-0.8,0-1.3,0.1
					l-1.5,0.5V69.6z"/>
				<path class="st0" d="M149,60.3c0-1.1,0.1-2.2,0.4-3.2c0.3-1,0.7-1.8,1.1-2.6c0.5-0.7,1-1.3,1.6-1.8c0.6-0.5,1.2-0.8,1.8-1
					c0.6-0.2,1.2-0.2,1.8-0.1c0.6,0.1,1.1,0.4,1.6,0.8c0.5,0.4,0.8,1,1.1,1.8c0.3,0.8,0.4,1.8,0.4,2.9v15.1c0,1.2-0.1,2.2-0.4,3.2
					c-0.3,1-0.7,1.8-1.1,2.5c-0.5,0.7-1,1.3-1.6,1.8s-1.2,0.8-1.8,1c-0.6,0.2-1.2,0.2-1.8,0.1c-0.6-0.1-1.1-0.4-1.6-0.8
					c-0.5-0.4-0.8-1-1.1-1.8c-0.3-0.8-0.4-1.8-0.4-2.9V60.3z M151.9,74.4c0,1,0.2,1.7,0.6,2c0.4,0.3,0.9,0.4,1.4,0.2
					c0.5-0.2,1-0.6,1.4-1.2c0.4-0.6,0.6-1.4,0.6-2.4V58.1c0-1-0.2-1.7-0.6-2c-0.4-0.3-0.9-0.4-1.4-0.2c-0.5,0.2-1,0.6-1.4,1.2
					c-0.4,0.6-0.6,1.4-0.6,2.4V74.4z"/>
				<path class="st0" d="M171.2,68.4c0,0.9-0.1,1.8-0.4,2.6c-0.2,0.9-0.6,1.7-1,2.4s-0.9,1.4-1.5,1.9c-0.6,0.5-1.2,0.9-1.8,1.1
					c-0.6,0.2-1.1,0.3-1.7,0.2s-1.1-0.2-1.5-0.6c-0.5-0.4-0.8-0.9-1.1-1.7c-0.3-0.8-0.4-1.8-0.4-3.1V55.7c0-0.9,0.1-1.8,0.3-2.7
					c0.2-0.9,0.6-1.7,1-2.4c0.4-0.7,0.9-1.4,1.5-1.9c0.6-0.5,1.2-0.9,1.9-1.1c0.7-0.2,1.3-0.3,1.9-0.1c0.6,0.1,1.1,0.4,1.5,0.9
					c0.4,0.5,0.7,1.1,1,1.8c0.2,0.8,0.4,1.6,0.4,2.6v1.6l-2.9,1V54c0-0.8-0.2-1.4-0.5-1.9c-0.3-0.5-0.8-0.6-1.3-0.4
					c-0.7,0.2-1.2,0.7-1.4,1.4c-0.2,0.7-0.4,1.5-0.4,2.5v14.6c0,0.8,0.1,1.5,0.4,2c0.3,0.5,0.7,0.6,1.4,0.4c0.2-0.1,0.4-0.2,0.6-0.3
					s0.4-0.4,0.6-0.7c0.2-0.3,0.3-0.6,0.4-1s0.2-0.9,0.2-1.5v-1.4l2.9-1V68.4z"/>
				<path class="st0" d="M174.1,45.2l8.7-2.9v3.9l-5.8,1.9v8.4l5-1.7v3.9l-5,1.7v8.4l5.8-1.9v4.1l-8.7,2.9V45.2z"/>
				<path class="st0" d="M194.7,46.6l-2.9,1v-0.9c0-0.9-0.2-1.7-0.5-2.3c-0.3-0.6-0.8-0.7-1.6-0.5c-0.4,0.1-0.7,0.3-1,0.6
					c-0.3,0.3-0.5,0.6-0.6,1c-0.1,0.4-0.2,0.8-0.3,1.3c-0.1,0.5-0.1,0.9-0.1,1.4c0,0.6,0,1,0,1.4c0,0.4,0.1,0.7,0.2,0.9
					c0.1,0.2,0.3,0.4,0.5,0.6c0.2,0.1,0.5,0.3,0.9,0.3l2.2,0.5c0.6,0.1,1.2,0.4,1.6,0.7c0.4,0.3,0.7,0.8,0.9,1.3
					c0.2,0.6,0.4,1.2,0.4,2c0.1,0.8,0.1,1.7,0.1,2.7c0,1.2-0.1,2.3-0.3,3.4c-0.2,1.1-0.5,2.1-0.8,2.9c-0.4,0.9-0.9,1.6-1.6,2.3
					c-0.6,0.6-1.4,1.1-2.4,1.4c-0.7,0.2-1.4,0.3-2,0.1c-0.6-0.1-1.1-0.4-1.6-0.9c-0.4-0.5-0.8-1.1-1-1.8c-0.3-0.7-0.4-1.6-0.4-2.6
					v-1.5l2.9-1v1.3c0,0.8,0.2,1.4,0.5,1.9c0.3,0.5,0.8,0.6,1.6,0.4c0.5-0.2,0.9-0.4,1.2-0.7c0.3-0.3,0.5-0.6,0.6-1.1
					s0.2-0.9,0.3-1.4c0-0.5,0.1-1.1,0.1-1.8c0-0.7,0-1.4-0.1-1.8c0-0.5-0.1-0.8-0.2-1.1c-0.1-0.3-0.3-0.4-0.5-0.6
					c-0.2-0.1-0.5-0.2-0.9-0.3l-2.1-0.5c-1.3-0.3-2.1-1-2.5-2c-0.4-1-0.6-2.5-0.6-4.3c0-1.1,0.1-2.1,0.3-3.2c0.2-1,0.5-2,0.9-2.8
					c0.4-0.8,0.9-1.6,1.6-2.2c0.6-0.6,1.4-1.1,2.2-1.4c0.7-0.2,1.4-0.3,2-0.1c0.6,0.2,1.1,0.5,1.5,1c0.4,0.5,0.8,1.1,1,1.7
					c0.2,0.7,0.3,1.4,0.3,2.2V46.6z"/>
				<path class="st0" d="M206.8,42.6l-2.9,1v-0.9c0-0.9-0.2-1.7-0.5-2.3c-0.3-0.6-0.8-0.7-1.6-0.5c-0.4,0.1-0.7,0.3-1,0.6
					c-0.3,0.3-0.5,0.6-0.6,1c-0.1,0.4-0.2,0.8-0.3,1.3c-0.1,0.5-0.1,0.9-0.1,1.4c0,0.6,0,1,0,1.4c0,0.4,0.1,0.7,0.2,0.9
					c0.1,0.2,0.3,0.4,0.5,0.6s0.5,0.3,0.9,0.3l2.2,0.5c0.6,0.1,1.2,0.4,1.6,0.7c0.4,0.3,0.7,0.8,0.9,1.3c0.2,0.6,0.4,1.2,0.4,2
					c0.1,0.8,0.1,1.7,0.1,2.8c0,1.2-0.1,2.3-0.3,3.4c-0.2,1.1-0.5,2.1-0.8,2.9c-0.4,0.9-0.9,1.6-1.6,2.3c-0.6,0.6-1.4,1.1-2.4,1.4
					c-0.7,0.2-1.4,0.3-2,0.1c-0.6-0.1-1.1-0.4-1.6-0.9c-0.4-0.5-0.8-1.1-1-1.8c-0.3-0.7-0.4-1.6-0.4-2.6v-1.5l2.9-1v1.3
					c0,0.7,0.2,1.4,0.5,1.9c0.3,0.5,0.8,0.6,1.6,0.4c0.5-0.2,0.9-0.4,1.2-0.7s0.5-0.6,0.6-1c0.1-0.4,0.2-0.9,0.3-1.4
					c0-0.5,0.1-1.1,0.1-1.8c0-0.7,0-1.4-0.1-1.8c0-0.5-0.1-0.8-0.2-1.1c-0.1-0.3-0.3-0.4-0.5-0.6c-0.2-0.1-0.5-0.2-0.9-0.3l-2.1-0.5
					c-1.3-0.3-2.1-1-2.5-2c-0.4-1-0.6-2.5-0.6-4.3c0-1.1,0.1-2.1,0.3-3.2c0.2-1,0.5-2,0.9-2.8c0.4-0.8,0.9-1.6,1.6-2.2
					s1.4-1.1,2.2-1.4c0.7-0.2,1.4-0.3,2-0.1c0.6,0.2,1.1,0.5,1.5,1c0.4,0.5,0.8,1.1,1,1.7c0.2,0.7,0.3,1.4,0.3,2.2V42.6z"/>
				<path class="st0" d="M209.6,33.4l2.9-1V61l-2.9,1V33.4z"/>
				<path class="st0" d="M215.8,31.4l2.8-0.9l4.4,15.7l0.1,0V29l2.9-1v28.6l-2.7,0.9l-4.5-15.7l-0.1,0V59l-2.9,1V31.4z"/>
				<path class="st0" d="M229,33.7c0-1.1,0.1-2.2,0.4-3.2c0.3-1,0.7-1.8,1.1-2.6c0.5-0.7,1-1.3,1.6-1.8c0.6-0.5,1.2-0.8,1.8-1
					c0.6-0.2,1.2-0.2,1.8-0.1c0.6,0.1,1.1,0.4,1.6,0.8c0.5,0.4,0.8,1,1.1,1.8c0.3,0.8,0.4,1.8,0.4,2.9v1.4l-2.9,1v-1.4
					c0-1-0.2-1.7-0.6-2c-0.4-0.3-0.9-0.4-1.4-0.2c-0.5,0.2-1,0.6-1.4,1.2c-0.4,0.6-0.6,1.4-0.6,2.4v15.1c0,1,0.2,1.7,0.6,2
					c0.4,0.3,0.9,0.4,1.4,0.2c0.5-0.2,1-0.6,1.4-1.2c0.4-0.6,0.6-1.4,0.6-2.4v-5.4l-2.3,0.8v-3.6l5.2-1.7v9c0,1.2-0.1,2.2-0.4,3.2
					c-0.3,1-0.7,1.8-1.1,2.5c-0.5,0.7-1,1.3-1.6,1.8c-0.6,0.5-1.2,0.8-1.8,1s-1.2,0.2-1.8,0.1s-1.1-0.4-1.6-0.8
					c-0.5-0.4-0.8-1-1.1-1.8c-0.3-0.8-0.4-1.7-0.4-2.9V33.7z"/>
				<path class="st0" d="M247.9,20.7l2.9-1v28.6l-2.9,1V20.7z"/>
				<path class="st0" d="M254.1,18.6l2.8-0.9l4.4,15.7l0.1,0V16.2l2.9-1v28.6l-2.7,0.9L257.1,29l-0.1,0v17.2l-2.9,1V18.6z"/>
				<path class="st0" d="M276.9,19.3l-2.9,1v-0.9c0-0.9-0.2-1.7-0.5-2.3c-0.3-0.6-0.8-0.7-1.6-0.5c-0.4,0.1-0.7,0.3-1,0.6
					c-0.3,0.3-0.5,0.6-0.6,1c-0.1,0.4-0.2,0.8-0.3,1.3c-0.1,0.5-0.1,0.9-0.1,1.4c0,0.6,0,1,0,1.4c0,0.4,0.1,0.7,0.2,0.9
					c0.1,0.2,0.3,0.4,0.5,0.6s0.5,0.3,0.9,0.3l2.2,0.5c0.6,0.1,1.2,0.4,1.6,0.7c0.4,0.3,0.7,0.8,0.9,1.3c0.2,0.6,0.4,1.2,0.4,2
					c0.1,0.8,0.1,1.7,0.1,2.7c0,1.2-0.1,2.3-0.3,3.4c-0.2,1.1-0.5,2.1-0.8,2.9c-0.4,0.9-0.9,1.6-1.6,2.3c-0.6,0.6-1.4,1.1-2.4,1.4
					c-0.7,0.2-1.4,0.3-2,0.1s-1.1-0.4-1.6-0.9c-0.4-0.5-0.8-1.1-1-1.8c-0.3-0.7-0.4-1.6-0.4-2.6v-1.5l2.9-1v1.3
					c0,0.7,0.2,1.4,0.5,1.9c0.3,0.5,0.8,0.6,1.6,0.4c0.5-0.2,0.9-0.4,1.2-0.7c0.3-0.3,0.5-0.6,0.6-1.1c0.1-0.4,0.2-0.9,0.3-1.4
					c0-0.5,0.1-1.1,0.1-1.8c0-0.7,0-1.4-0.1-1.8c0-0.5-0.1-0.8-0.2-1.1c-0.1-0.3-0.3-0.4-0.5-0.6c-0.2-0.1-0.5-0.2-0.9-0.3l-2.1-0.5
					c-1.3-0.3-2.1-1-2.5-2c-0.4-1-0.6-2.5-0.6-4.3c0-1.1,0.1-2.1,0.3-3.2c0.2-1,0.5-2,0.9-2.8c0.4-0.8,0.9-1.6,1.6-2.2
					s1.4-1.1,2.2-1.4c0.7-0.2,1.4-0.3,2-0.1c0.6,0.2,1.1,0.5,1.5,1c0.4,0.5,0.8,1.1,1,1.7c0.2,0.7,0.3,1.4,0.3,2.2V19.3z"/>
				<path class="st0" d="M279.7,10.1l2.9-1v28.6l-2.9,1V10.1z"/>
				<path class="st0" d="M286,8l4.3-1.4c1.7-0.6,2.9-0.3,3.8,0.7c0.9,1,1.3,2.7,1.3,5v13.4c0,2.7-0.5,4.8-1.4,6.4
					c-0.9,1.6-2.3,2.7-4,3.2l-4.1,1.3V8z M288.9,31.8l1.3-0.4c0.8-0.3,1.4-0.8,1.7-1.4c0.3-0.7,0.5-1.6,0.5-2.9V13.2
					c0-1.1-0.2-1.9-0.5-2.4c-0.3-0.5-0.9-0.6-1.8-0.3l-1.3,0.4V31.8z"/>
				<path class="st0" d="M298.7,3.8l8.7-2.9v3.9l-5.8,1.9v8.4l5-1.7v3.9l-5,1.7v8.4l5.8-1.9v4.1l-8.7,2.9V3.8z"/>
			</g>
		</g>
	</g>
</g>
</svg>
