<!-- Generator: Adobe Illustrator 19.2.1, SVG Export Plug-In  -->
<svg version="1.1"
	 xmlns="http://www.w3.org/2000/svg" xmlns:xlink="http://www.w3.org/1999/xlink" xmlns:a="http://ns.adobe.com/AdobeSVGViewerExtensions/3.0/"
	 x="0px" y="0px" width="210.8px" height="125.7px" viewBox="0 0 210.8 125.7" style="enable-background:new 0 0 210.8 125.7;"
	 xml:space="preserve">
<style type="text/css">
	.st0{fill:#F5F5F5;stroke:#7629F4;stroke-miterlimit:10;}
	.st1{fill:#7629F4;}
	.st2{fill:#FFFFFF;}
	.st3{fill:#F5F5F5;}
	.st4{fill:none;stroke:#F5F5F5;stroke-miterlimit:10;}
</style>
<defs>
</defs>
<g>
	<polyline class="st0" points="210.6,5.7 203.2,2 0.5,110.6 0.5,121.5 7.9,125.2 	"/>
	<g>
		<polygon class="st1" points="8.4,114.6 210.1,6.5 210.1,57.3 8.4,124.6 		"/>
		<path class="st2" d="M209.6,7.4V57L8.9,123.9v-9L209.6,7.4 M210.6,5.7L7.9,114.3v11l202.7-67.6V5.7L210.6,5.7z"/>
	</g>
	<g>
		<g>
			<path class="st3" d="M160.6,63.4l-2.9,1v-1.9l2.1-10.9l1.5-0.5l-2.2,10.9l1.4-0.5v-4.1l1.5-0.5V61l0.7-0.2v1.9l-0.7,0.2V65
				l-1.5,0.5V63.4z"/>
			<path class="st3" d="M163.6,50.3l2.1-0.7c0.8-0.3,1.5-0.2,1.9,0.3s0.7,1.3,0.7,2.5v6.7c0,1.3-0.2,2.4-0.7,3.2
				c-0.5,0.8-1.1,1.3-2,1.6l-2,0.7V50.3z M165,62.1l0.7-0.2c0.4-0.1,0.7-0.4,0.9-0.7c0.2-0.3,0.3-0.8,0.3-1.4v-6.9
				c0-0.6-0.1-1-0.2-1.2s-0.5-0.3-0.9-0.2l-0.7,0.2V62.1z"/>
			<path class="st3" d="M169.6,48.3l2.1-0.7c0.5-0.2,0.9-0.2,1.2-0.1c0.3,0.1,0.6,0.3,0.8,0.5c0.2,0.3,0.4,0.6,0.4,1
				c0.1,0.4,0.1,0.8,0.1,1.3v0.5c0,0.4,0,0.7-0.1,1c0,0.3-0.1,0.5-0.2,0.8c-0.1,0.2-0.2,0.4-0.3,0.6c-0.1,0.2-0.3,0.4-0.4,0.6
				c0.3,0.1,0.6,0.4,0.8,0.8c0.2,0.4,0.2,1,0.2,1.7v0.8c0,1.3-0.2,2.3-0.6,3.1c-0.4,0.8-1.1,1.4-2.1,1.7l-2,0.7V48.3z M171.1,53.6
				l0.7-0.2c0.5-0.2,0.8-0.4,1-0.8c0.2-0.4,0.2-0.9,0.2-1.6c0-0.6-0.1-1.1-0.3-1.3c-0.2-0.3-0.5-0.3-1-0.1l-0.6,0.2V53.6z M171.1,60
				l0.6-0.2c0.3-0.1,0.5-0.2,0.7-0.4c0.2-0.2,0.3-0.4,0.4-0.6c0.1-0.2,0.1-0.5,0.2-0.8c0-0.3,0-0.6,0-1c0-0.4,0-0.7,0-0.9
				s-0.1-0.5-0.2-0.6c-0.1-0.2-0.2-0.2-0.4-0.3c-0.2,0-0.4,0-0.6,0.1l-0.6,0.2V60z"/>
		</g>
	</g>
	<polyline class="st4" points="210.6,4.3 203.2,0.6 180.8,12.5 	"/>
</g>
</svg>
