<?xml version="1.0" encoding="utf-8"?>
<!-- Generator: Adobe Illustrator 19.2.1, SVG Export Plug-In . SVG Version: 6.00 Build 0)  -->
<svg version="1.1" xmlns="http://www.w3.org/2000/svg" xmlns:xlink="http://www.w3.org/1999/xlink" x="0px" y="0px"
	 viewBox="0 0 125.2 63.6" style="enable-background:new 0 0 125.2 63.6;" xml:space="preserve">
<style type="text/css">
	.st0{display:none;}
	
		.st1{display:inline;fill:none;stroke:#7629F4;stroke-width:1.2475;stroke-linecap:round;stroke-linejoin:round;stroke-miterlimit:10;}
	
		.st2{display:inline;fill:none;stroke:#7629F4;stroke-linecap:round;stroke-linejoin:round;stroke-miterlimit:10;stroke-dasharray:1,6;}
	.st3{display:inline;fill:#FFFFFF;stroke:#762AF3;stroke-linecap:round;stroke-linejoin:round;stroke-miterlimit:10;}
	.st4{fill:none;stroke:#7629F4;stroke-width:1.2475;stroke-linecap:round;stroke-linejoin:round;stroke-miterlimit:10;}
	.st5{fill:#FFFFFF;stroke:#7629F4;stroke-width:1.2475;stroke-linecap:round;stroke-linejoin:round;stroke-miterlimit:10;}
	.st6{display:inline;fill:#FFFFFF;stroke:#762AF3;stroke-miterlimit:10;}
	
		.st7{display:inline;fill:none;stroke:#762AF3;stroke-width:1.2475;stroke-linecap:round;stroke-linejoin:round;stroke-miterlimit:10;}
	
		.st8{display:inline;fill:#FFFFFF;stroke:#7629F4;stroke-width:1.2475;stroke-linecap:round;stroke-linejoin:round;stroke-miterlimit:10;}
	.st9{display:inline;fill:none;stroke:#7629F4;stroke-width:1.2475;stroke-miterlimit:10;stroke-dasharray:1,6;}
	.st10{display:inline;}
</style>
<g id="Layer_1" class="st0">
	<rect x="23" y="6.4" class="st1" width="80.3" height="49.6"/>
	<polyline class="st1" points="97.5,24.6 81.8,40.2 63.3,21.7 50.6,34.4 43.6,27.3 28.8,42.1 	"/>
	<line class="st1" x1="23" y1="47.4" x2="103.3" y2="47.4"/>
	<line class="st2" x1="29.9" y1="23.2" x2="55.9" y2="23.2"/>
	<line class="st2" x1="72.7" y1="23.2" x2="91.2" y2="23.2"/>
	<polyline class="st1" points="64.5,44.7 72,37.2 79,44.2 	"/>
	<polyline class="st1" points="85.8,44.7 89.7,40.8 93.4,44.4 	"/>
</g>
<g id="Layer_2" class="st0">
	<path class="st3" d="M103.7,51.4l13.2-2.2l-5.3,8.9L103.7,51.4z"/>
	<polygon class="st1" points="44.5,50.1 91.4,53.9 93.5,44.9 46.6,41.1 	"/>
	<path class="st1" d="M85.5,11.5c0,0,22.2,9.8,24.8,38.1"/>
	<path class="st1" d="M54.3,5.5c0,0,19.9,0.6,28.7,12.6"/>
	<path class="st1" d="M100.9,13.4c2.3,2.5,4.5,5.5,6.3,9.2"/>
	<polygon class="st1" points="34.7,36.8 81.8,37.6 83.3,28.5 36.2,27.7 	"/>
	<polygon class="st1" points="9.2,15.7 47.4,12.4 47.8,4.9 9.7,8.2 	"/>
</g>
<g id="Layer_3">
	<ellipse transform="matrix(0.4843 -0.8749 0.8749 0.4843 4.5414 71.1557)" class="st4" cx="62.6" cy="31.7" rx="31.1" ry="31.1"/>
	<line class="st5" x1="91.8" y1="20.9" x2="62.6" y2="31.7"/>
	<line class="st5" x1="62.6" y1="31.7" x2="77.7" y2="4.5"/>
	<line class="st4" x1="35.4" y1="16.7" x2="62.6" y2="31.7"/>
</g>
<g id="Layer_4" class="st0">
	<path class="st6" d="M81,16.2l9.4-9.4l0.8,10.3L81,16.2z"/>
	<path class="st7" d="M85.8,11.4C80.1,4.9,71.7,0.7,62.4,0.7c-17.2,0-31.1,13.9-31.1,31.1S45.2,63,62.4,63
		C79.5,63,93.5,49,93.5,31.9"/>
	<circle class="st1" cx="62.4" cy="31.9" r="6.3"/>
</g>
<g id="Layer_5" class="st0">
	<path class="st8" d="M98.1,52L77.6,31.6c1.4-2.5,2.2-5.4,2.2-8.5c0-9.6-7.8-17.3-17.3-17.3c-9.6,0-17.3,7.8-17.3,17.3
		c0,9.6,7.8,17.3,17.3,17.3c3.1,0,6-0.8,8.5-2.2l20.4,20.4L98.1,52z"/>
	<circle class="st8" cx="62.6" cy="23.1" r="10.2"/>
	<line class="st1" x1="40.6" y1="25.3" x2="0.6" y2="25.3"/>
	<line class="st9" x1="125.2" y1="25.6" x2="85.2" y2="25.6"/>
</g>
<g id="Layer_6" class="st0">
	<g class="st10">
		<path class="st4" d="M82.7,33.2c0.1-1.5,0-2.9-0.2-4.3l4.9-2.3c-0.2-0.8-0.4-1.7-0.7-2.5c-0.6-1.9-1.5-3.7-2.5-5.4
			c-0.4-0.7-0.9-1.4-1.4-2.1l-4.9,2.3c-0.9-1.1-2-2.1-3.2-2.9l1.9-5.1c-0.7-0.5-1.4-0.9-2.2-1.3c-0.9-0.4-1.8-0.9-2.7-1.2
			c-0.9-0.3-1.9-0.6-2.9-0.8c-0.8-0.2-1.7-0.4-2.5-0.5l-1.9,5.1c-1.5-0.1-2.9,0-4.3,0.2l-2.3-4.9c-0.8,0.2-1.7,0.4-2.5,0.7
			c-1.9,0.6-3.7,1.5-5.4,2.5c-0.7,0.4-1.4,0.9-2.1,1.4l2.3,4.9c-1.1,0.9-2.1,2-2.9,3.2l-5.1-1.9c-0.5,0.7-0.9,1.4-1.3,2.2
			c-0.4,0.9-0.9,1.8-1.2,2.7c-0.3,0.9-0.6,1.9-0.8,2.9c-0.2,0.8-0.4,1.7-0.5,2.5l5.1,1.9c-0.1,1.5,0,2.9,0.2,4.3l-4.9,2.3
			c0.2,0.8,0.4,1.7,0.7,2.5c0.6,1.9,1.5,3.7,2.5,5.4c0.4,0.7,0.9,1.4,1.4,2.1l4.9-2.3c0.9,1.1,2,2.1,3.2,2.9l-1.9,5.1
			c0.7,0.5,1.4,0.9,2.2,1.3c0.9,0.4,1.8,0.9,2.7,1.2c0.9,0.3,1.9,0.6,2.9,0.8c0.8,0.2,1.7,0.4,2.5,0.5l1.9-5.1
			c1.5,0.1,2.9,0,4.3-0.2l2.3,4.9c0.8-0.2,1.7-0.4,2.5-0.7c1.9-0.6,3.7-1.5,5.4-2.5c0.7-0.4,1.4-0.9,2.1-1.4l-2.3-4.9
			c1.1-0.9,2.1-2,2.9-3.2l5.1,1.9c0.5-0.7,0.9-1.4,1.3-2.2c0.4-0.9,0.9-1.8,1.2-2.7c0.3-0.9,0.6-1.9,0.8-2.9
			c0.2-0.8,0.4-1.7,0.5-2.5L82.7,33.2z M73.9,35.3c0,0.1-0.1,0.3-0.1,0.4c-0.1,0.1-0.1,0.3-0.2,0.4c-0.3,0.8-0.7,1.5-1.2,2.2
			c0,0.1-0.1,0.1-0.1,0.2c-0.5,0.7-1,1.3-1.7,1.8c-0.1,0.1-0.1,0.1-0.2,0.2c-0.7,0.5-1.4,1-2.1,1.4c-0.3,0.1-0.6,0.3-0.8,0.4
			c-0.8,0.3-1.6,0.6-2.4,0.7c-0.1,0-0.2,0-0.2,0c-0.8,0.1-1.6,0.2-2.5,0.1c-0.1,0-0.2,0-0.2,0c-0.8-0.1-1.7-0.2-2.5-0.5
			c-0.1,0-0.3-0.1-0.4-0.1c-0.1-0.1-0.3-0.1-0.4-0.2c-0.8-0.3-1.5-0.7-2.2-1.2c-0.1,0-0.1-0.1-0.2-0.1c-0.7-0.5-1.3-1-1.8-1.7
			c-0.1-0.1-0.1-0.1-0.2-0.2c-0.5-0.7-1-1.4-1.4-2.1c-0.1-0.3-0.3-0.6-0.4-0.8c-0.3-0.8-0.6-1.6-0.7-2.4c0-0.1,0-0.2,0-0.2
			c-0.1-0.8-0.1-1.6-0.1-2.5c0-0.1,0-0.2,0-0.2c0.1-0.8,0.2-1.7,0.5-2.5c0-0.1,0.1-0.3,0.1-0.4c0.1-0.1,0.1-0.3,0.2-0.4
			c0.3-0.8,0.7-1.5,1.2-2.2c0-0.1,0.1-0.1,0.1-0.2c0.5-0.7,1-1.3,1.7-1.8c0.1-0.1,0.1-0.1,0.2-0.2c0.7-0.5,1.4-1,2.1-1.4
			c0.3-0.1,0.6-0.3,0.8-0.4c0.8-0.3,1.6-0.6,2.4-0.7c0.1,0,0.2,0,0.2,0c0.8-0.1,1.6-0.2,2.5-0.1c0.1,0,0.2,0,0.2,0
			c0.8,0.1,1.7,0.2,2.5,0.5c0.1,0,0.3,0.1,0.4,0.1c0.1,0.1,0.3,0.1,0.4,0.2c0.8,0.3,1.5,0.7,2.2,1.2c0.1,0,0.1,0.1,0.2,0.1
			c0.7,0.5,1.3,1,1.8,1.7c0.1,0.1,0.1,0.1,0.2,0.2c0.5,0.7,1,1.4,1.4,2.1c0.1,0.3,0.3,0.6,0.4,0.8c0.3,0.8,0.6,1.6,0.7,2.4
			c0,0.1,0,0.2,0,0.2c0.1,0.8,0.2,1.6,0.1,2.5c0,0.1,0,0.2,0,0.2C74.3,33.7,74.2,34.5,73.9,35.3z"/>
	</g>
</g>
</svg>
