<!-- Generator: Adobe Illustrator 19.2.1, SVG Export Plug-In  -->
<svg version="1.1"
	 xmlns="http://www.w3.org/2000/svg" xmlns:xlink="http://www.w3.org/1999/xlink" xmlns:a="http://ns.adobe.com/AdobeSVGViewerExtensions/3.0/"
	 x="0px" y="0px" width="243px" height="137.9px" viewBox="0 0 243 137.9" style="enable-background:new 0 0 243 137.9;"
	 xml:space="preserve">
<style type="text/css">
	.st0{fill:#FFFFFF;stroke:#7629F4;stroke-width:1.248;stroke-linecap:round;stroke-linejoin:round;stroke-miterlimit:10;}
	.st1{fill:none;stroke:#7629F4;stroke-width:1.248;stroke-linecap:round;stroke-linejoin:round;stroke-miterlimit:10;}
	.st2{fill:#7629F4;stroke:#762AF3;stroke-miterlimit:10;}
	.st3{fill:#FFFFFF;}
	.st4{fill:#7629F4;}
	.st5{fill:none;stroke:#FFFFFF;stroke-width:1.248;stroke-linecap:round;stroke-linejoin:round;stroke-miterlimit:10;}
	.st6{fill:#FFFFFF;stroke:#7629F4;stroke-width:1.25;stroke-miterlimit:10;}
	.st7{fill:#FFFFFF;stroke:#7629F4;stroke-width:1.25;stroke-linecap:round;stroke-linejoin:round;stroke-miterlimit:10;}
	.st8{fill:#F4F4F4;stroke:#7629F4;stroke-width:1.25;stroke-miterlimit:10;}
	.st9{fill:none;stroke:#7629F4;stroke-width:1.25;stroke-linecap:round;stroke-linejoin:round;stroke-miterlimit:10;}
</style>
<defs>
</defs>
<path class="st0" d="M242.4,137.3c0-9.2-7.4-16.6-16.6-16.6c-3,0-5.8,0.8-8.3,2.2c-4.5-6.3-11.9-10.4-20.2-10.4
	c-13.7,0-24.8,11.1-24.8,24.8"/>
<path class="st0" d="M21.4,115.9c0-5.5,4.5-10,10-10c5.5,0,10,4.5,10,10H21.4z"/>
<line class="st1" x1="140.5" y1="8.9" x2="99" y2="22.7"/>
<line class="st1" x1="155.6" y1="114.1" x2="126.6" y2="123.7"/>
<g>
	<ellipse transform="matrix(0.5684 -0.8228 0.8228 0.5684 -11.408 126.4)" class="st2" cx="114.8" cy="74.1" rx="40.6" ry="40.6"/>
	<path class="st1" d="M68.8,54.4c-22.7-0.5-46.9,4.5-48.3,11.5c-2.1,10.8,44,23.4,88,31.8c45.1,8.6,91.4,5.6,93.5-5.6
		c1.4-7.1-12.3-16.3-34-24.1"/>
</g>
<ellipse transform="matrix(0.9929 -0.1191 0.1191 0.9929 -7.4979 10.9697)" class="st3" cx="88" cy="68.2" rx="4.4" ry="5"/>
<g>
	<circle class="st4" cx="77.7" cy="25.7" r="0.7"/>
</g>
<g>
	<circle class="st4" cx="164.6" cy="23.2" r="0.7"/>
</g>
<g>
	<circle class="st4" cx="30.2" cy="93.9" r="0.7"/>
</g>
<g>
	<circle class="st4" cx="203.7" cy="61.5" r="0.7"/>
</g>
<g>
	<circle class="st4" cx="0.7" cy="0.7" r="0.7"/>
</g>
<g>
	<circle class="st4" cx="178.9" cy="88.9" r="0.7"/>
</g>
<g>
	<circle class="st4" cx="216.7" cy="97" r="0.7"/>
</g>
<path class="st5" d="M73.9,58.5c-20-0.5-41.2,4-42.4,10.2c-1.8,9.5,38.6,20.6,77.3,28c39.6,7.5,80.2,4.9,82.1-5
	C192,85.4,180,77.3,161,70.4"/>
<g>
	<circle class="st4" cx="74.9" cy="15.8" r="0.7"/>
</g>
<g>
	<circle class="st4" cx="66.9" cy="109" r="0.7"/>
</g>
<g>
	<circle class="st4" cx="76.7" cy="125.7" r="0.7"/>
</g>
<g>
	<line class="st6" x1="144.9" y1="74" x2="158" y2="69.6"/>
	<polygon class="st7" points="129,66.3 157.3,56.9 157.3,47.9 129,55.8 	"/>
	<polygon class="st7" points="138.3,59.6 147.7,64.3 147.7,72.1 138.3,67.4 	"/>
	<path class="st8" d="M146.4,70.9c0-2.5-1.5-5.3-3.3-6.2c-1.8-0.9-3.3,0.4-3.3,2.9c0,2.5,1.5,5.3,3.3,6.2
		C144.9,74.7,146.4,73.4,146.4,70.9z"/>
	<path class="st4" d="M143.9,69.9c0-0.7-0.4-1.4-0.9-1.7c-0.5-0.2-0.9,0.1-0.9,0.8c0,0.7,0.4,1.4,0.9,1.7
		C143.5,70.9,143.9,70.6,143.9,69.9z"/>
	<g>
		<path class="st3" d="M147.7,64.3l9.1-3c1.5-0.5,4-1.1,5.5-1.3l7.1-1.1c1.5-0.2,1.7-1,0.3-1.7l-4.4-2.2c-1.4-0.7-3.8-1.1-5.3-0.8
			l-7.1,1.1c-1.5,0.2-4,0.8-5.5,1.3l-9.1,3"/>
		<path class="st9" d="M147.7,64.3l9.1-3c1.5-0.5,4-1.1,5.5-1.3l7.1-1.1c1.5-0.2,1.7-1,0.3-1.7l-4.4-2.2c-1.4-0.7-3.8-1.1-5.3-0.8
			l-7.1,1.1c-1.5,0.2-4,0.8-5.5,1.3l-9.1,3"/>
	</g>
	<path class="st7" d="M151.8,59"/>
	<polygon class="st7" points="172.3,63.9 147.7,72.1 147.7,64.3 159.6,60.4 172.3,58.5 	"/>
	<polygon class="st7" points="150.6,77.1 178.9,67.7 178.9,58.7 150.6,66.6 	"/>
	<line class="st7" x1="158.9" y1="60" x2="150.2" y2="55.7"/>
</g>
<line class="st5" x1="134.9" y1="70.9" x2="109.3" y2="79.4"/>
<line class="st5" x1="119.7" y1="80.6" x2="102" y2="86.5"/>
</svg>
