<!-- Generator: Adobe Illustrator 19.2.1, SVG Export Plug-In  -->
<svg version="1.1"
	 xmlns="http://www.w3.org/2000/svg" xmlns:xlink="http://www.w3.org/1999/xlink" xmlns:a="http://ns.adobe.com/AdobeSVGViewerExtensions/3.0/"
	 x="0px" y="0px" width="182.9px" height="82.2px" viewBox="0 0 182.9 82.2" style="enable-background:new 0 0 182.9 82.2;"
	 xml:space="preserve">
<style type="text/css">
	.st0{fill:#7629F4;stroke:#762AF3;stroke-miterlimit:10;}
	.st1{fill:none;stroke:#7629F4;stroke-width:1.248;stroke-linecap:round;stroke-linejoin:round;stroke-miterlimit:10;}
	.st2{fill:#FFFFFF;}
	.st3{fill:none;stroke:#FFFFFF;stroke-width:1.248;stroke-linecap:round;stroke-linejoin:round;stroke-miterlimit:10;}
</style>
<defs>
</defs>
<g>
	<ellipse transform="matrix(0.5684 -0.8228 0.8228 0.5684 7.165 95.8161)" class="st0" cx="94.9" cy="41.1" rx="40.6" ry="40.6"/>
	<path class="st1" d="M49,21.4C26.2,20.8,2,25.9,0.7,32.9c-2.1,10.8,44,23.4,88,31.8c45.1,8.6,91.4,5.6,93.5-5.6
		c1.4-7.1-12.3-16.3-34-24.1"/>
</g>
<ellipse transform="matrix(0.9929 -0.1191 0.1191 0.9929 -3.7096 8.3691)" class="st2" cx="68.2" cy="35.2" rx="4.4" ry="5"/>
<path class="st3" d="M54,25.5c-20-0.5-41.2,4-42.4,10.2c-1.8,9.5,38.6,20.6,77.3,28c39.6,7.5,80.2,4.9,82.1-5
	c1.2-6.3-10.8-14.3-29.9-21.2"/>
</svg>
