<!-- Generator: Adobe Illustrator 19.2.1, SVG Export Plug-In  -->
<svg version="1.1"
	 xmlns="http://www.w3.org/2000/svg" xmlns:xlink="http://www.w3.org/1999/xlink" xmlns:a="http://ns.adobe.com/AdobeSVGViewerExtensions/3.0/"
	 x="0px" y="0px" width="51.2px" height="30.4px" viewBox="0 0 51.2 30.4" style="enable-background:new 0 0 51.2 30.4;"
	 xml:space="preserve">
<style type="text/css">
	.st0{fill:#FFFFFF;stroke:#7629F4;stroke-width:1.25;stroke-miterlimit:10;}
	.st1{fill:#FFFFFF;stroke:#7629F4;stroke-width:1.25;stroke-linecap:round;stroke-linejoin:round;stroke-miterlimit:10;}
	.st2{fill:#F4F4F4;stroke:#7629F4;stroke-width:1.25;stroke-miterlimit:10;}
	.st3{fill:#7629F4;}
	.st4{fill:#FFFFFF;}
	.st5{fill:none;stroke:#7629F4;stroke-width:1.25;stroke-linecap:round;stroke-linejoin:round;stroke-miterlimit:10;}
</style>
<defs>
</defs>
<g>
	<line class="st0" x1="16.5" y1="26.7" x2="29.6" y2="22.3"/>
	<polygon class="st1" points="0.6,19 29,9.5 29,0.6 0.6,8.5 	"/>
	<polygon class="st1" points="9.9,12.3 19.4,17 19.4,24.8 9.9,20 	"/>
	<path class="st2" d="M18,23.6c0-2.5-1.5-5.3-3.3-6.2c-1.8-0.9-3.3,0.4-3.3,2.9c0,2.5,1.5,5.3,3.3,6.2C16.5,27.4,18,26.1,18,23.6z"
		/>
	<path class="st3" d="M15.6,22.6c0-0.7-0.4-1.4-0.9-1.7c-0.5-0.2-0.9,0.1-0.9,0.8c0,0.7,0.4,1.4,0.9,1.7
		C15.2,23.6,15.6,23.2,15.6,22.6z"/>
	<g>
		<path class="st4" d="M19.4,17l9.1-3c1.5-0.5,4-1.1,5.5-1.3l7.1-1.1c1.5-0.2,1.7-1,0.3-1.7L37,7.7c-1.4-0.7-3.8-1.1-5.3-0.8
			l-7.1,1.1c-1.5,0.2-4,0.8-5.5,1.3l-9.1,3"/>
		<path class="st5" d="M19.4,17l9.1-3c1.5-0.5,4-1.1,5.5-1.3l7.1-1.1c1.5-0.2,1.7-1,0.3-1.7L37,7.7c-1.4-0.7-3.8-1.1-5.3-0.8
			l-7.1,1.1c-1.5,0.2-4,0.8-5.5,1.3l-9.1,3"/>
	</g>
	<path class="st1" d="M23.5,11.7"/>
	<polygon class="st1" points="43.9,16.6 19.4,24.8 19.4,17 31.2,13.1 43.9,11.2 	"/>
	<polygon class="st1" points="22.2,29.8 50.6,20.3 50.6,11.4 22.2,19.3 	"/>
	<line class="st1" x1="30.5" y1="12.7" x2="21.8" y2="8.4"/>
</g>
</svg>
