<svg xmlns="http://www.w3.org/2000/svg" width="236.89" height="224" viewBox="0 0 236.89 224">
  <defs>
    <style>
      .a, .c, .g {
        fill: #fff;
      }

      .b, .d, .e, .h {
        fill: none;
      }

      .c, .d, .g, .h {
        stroke: #762af3;
      }

      .c, .d, .e {
        stroke-linecap: round;
        stroke-linejoin: round;
        stroke-width: 1.25px;
      }

      .e {
        stroke: #606060;
      }

      .f {
        fill: #762af3;
      }

      .g, .h {
        stroke-miterlimit: 10;
      }
    </style>
  </defs>
  <title>engine-small</title>
  <g>
    <circle class="a" cx="112" cy="112" r="112"/>
    <circle class="b" cx="112" cy="112" r="112"/>
  </g>
  <polyline class="c" points="48.39 143.3 48.39 158.73 128.16 198.61 236.25 162.62 236.25 147.19"/>
  <polygon class="c" points="48.39 143.3 128.16 183.18 236.25 147.19 205.45 132.04 236.27 121.77 186.97 97.14 48.39 143.3"/>
  <line class="d" x1="236.27" y1="121.77" x2="236.27" y2="147.19"/>
  <line class="e" x1="128.16" y1="183.18" x2="128.16" y2="198.61"/>
  <polyline class="f" points="236.27 121.77 205.45 132.04 236.25 147.19"/>
  <polygon class="f" points="75.11 142.4 133.12 171.4 146.42 166.98 88.4 137.97 75.11 142.4"/>
  <polygon class="f" points="102.09 133.44 160.1 162.44 173.4 158.02 115.39 129.02 102.09 133.44"/>
  <polygon class="g" points="128.88 124.53 186.9 153.53 200.19 146.11 142.18 117.11 128.88 124.53"/>
  <polygon class="g" points="108.44 94.94 167.18 122.46 174.21 111.86 115.47 84.34 108.44 94.94"/>
  <g>
    <polygon class="a" points="67.71 70.22 40.09 79.43 40.1 69.97 67.71 60.77 67.71 51.32 85.4 60.61 67.71 79.48 67.71 70.22"/>
    <path class="f" d="M68.21,52.15l16.37,8.59L68.21,78.21V69.53l-27.62,9.2v-8.4l27.62-9.2v-9m-1-1.65v9.92l-26.93,9-0.68.23V80.12l1.32-.44,26.3-8.76v9.82l1.73-1.85L85.32,61.43l0.9-1-1.16-.61L68.68,51.26l-1.46-.77h0Z"/>
  </g>
  <g>
    <polygon class="f" points="67.71 104.14 40.09 113.34 40.1 103.89 67.71 94.69 67.71 85.24 85.4 94.52 67.71 113.39 67.71 104.14"/>
    <path class="f" d="M68.21,86.06l16.37,8.59L68.21,112.13v-8.68l-27.62,9.2v-8.4L68.21,95v-9m-1-1.65v9.91l-26.93,9-0.68.23V114l1.32-.44,26.3-8.76v9.82l1.73-1.85L85.32,95.34l0.9-1-1.16-.61L68.68,85.18l-1.46-.77h0Z"/>
  </g>
  <path class="h" d="M168.33,66.58s24,23.37,13.64,61.11"/>
  <path class="h" d="M130.89,43.8s25.44,10.44,31,30.13"/>
  <path class="h" d="M187.33,76.4a51.57,51.57,0,0,1,3.64,15"/>
  <polygon class="g" points="102.24 73.09 162.63 96.75 168.96 85.71 108.56 62.05 102.24 73.09"/>
  <polygon class="g" points="67.8 29.2 118.72 43.28 122.92 33.8 72 19.72 67.8 29.2"/>
</svg>
