<svg xmlns="http://www.w3.org/2000/svg" width="1060.14" height="430.45" viewBox="0 0 1060.14 430.45">
  <defs>
    <style>
      .a, .d, .i {
        fill: #7629f4;
      }

      .a, .b, .d, .e, .g, .j, .k {
        stroke: #fff;
      }

      .a, .b, .e, .f {
        stroke-linecap: round;
      }

      .a, .b, .e, .f, .k {
        stroke-linejoin: round;
      }

      .b, .c, .f, .j, .l {
        fill: #fff;
      }

      .c, .f, .h, .i {
        stroke: #7629f4;
      }

      .c, .d, .g, .h, .i, .j {
        stroke-miterlimit: 10;
      }

      .e, .g, .h, .k {
        fill: none;
      }
    </style>
  </defs>
  <title>engine-animation</title>
  <g>
    <g>
      <line class="a" x1="193.61" y1="323.52" x2="202.88" y2="320.44"/>
      <line class="a" x1="193.61" y1="326.61" x2="202.88" y2="323.52"/>
      <line class="a" x1="193.61" y1="329.7" x2="202.88" y2="326.61"/>
      <line class="a" x1="193.61" y1="314.26" x2="202.88" y2="311.17"/>
      <line class="a" x1="193.61" y1="317.35" x2="202.88" y2="314.26"/>
      <line class="a" x1="193.61" y1="320.44" x2="202.88" y2="317.34"/>
    </g>
    <polyline class="b" points="207.35 286.9 279.49 270.88 318.69 275.73 322.52 292.4 220.44 315.08 198.86 301.07"/>
    <g>
      <path class="c" d="M157.29,504l52.39-21.3-0.1,0c0.81-.14,1.39-1,1.43-2.25a5,5,0,0,0-2.29-4.36,1.61,1.61,0,0,0-1.35-.09l0.16-.06-54.62,14.37" transform="translate(-74.07 -152.61)"/>
      <path class="d" d="M159.83,499.54c-0.1,3.61-2.35,5.5-5,4.22s-4.75-5.25-4.65-8.86,2.35-5.51,5-4.22S159.94,495.93,159.83,499.54Z" transform="translate(-74.07 -152.61)"/>
    </g>
    <line class="e" x1="167.97" y1="391.39" x2="225.38" y2="373.97"/>
    <polygon class="f" points="117.81 308.14 63.67 262.84 104.42 249.25 158.56 294.56 117.81 308.14"/>
    <polygon class="f" points="135.03 336.68 80.89 333.63 113.18 322.91 148.08 323.01 152.95 330.71 135.03 336.68"/>
    <line class="g" x1="0.16" y1="315.49" x2="60.07" y2="295.51"/>
    <line class="g" x1="281.18" y1="380.7" x2="330.53" y2="364.24"/>
    <line class="g" x1="649.66" y1="104.56" x2="762.58" y2="66.92"/>
    <line class="g" x1="843.39" y1="68.41" x2="942.17" y2="35.48"/>
    <line class="g" x1="209.19" y1="221.03" x2="312.18" y2="186.7"/>
    <line class="g" x1="922.22" y1="234.51" x2="1034.64" y2="197.04"/>
    <line class="h" x1="299.84" y1="279.93" x2="231.95" y2="295.01"/>
    <polyline class="f" points="108.37 300.25 175.55 277.83 190.88 278.44 222.03 294 220.44 300.28 153.28 322.69"/>
    <polygon class="a" points="167.97 391.39 123.08 368.93 117.87 354.83 103.16 306.73 108.37 300.25 153.26 322.71 158.56 334.44 173.28 382.54 167.97 391.39"/>
    <line class="g" x1="321.32" y1="274.84" x2="329.14" y2="272.23"/>
    <line class="h" x1="41.06" y1="257.89" x2="56.38" y2="252.78"/>
    <line class="g" x1="37.99" y1="387.8" x2="98.45" y2="367.64"/>
    <polygon class="i" points="305.42 319.27 320.31 333.28 325.64 331.5 316.59 315.55 305.42 319.27"/>
    <path class="j" d="M211.75,509.92c0.34,5.72-3,8.72-7.37,6.69s-8.25-8.31-8.59-14,3-8.72,7.37-6.69S211.41,504.19,211.75,509.92Z" transform="translate(-74.07 -152.61)"/>
    <path class="j" d="M234.26,521.15c0.34,5.73-3,8.72-7.37,6.7s-8.25-8.31-8.59-14,3-8.72,7.37-6.69S233.92,515.43,234.26,521.15Z" transform="translate(-74.07 -152.61)"/>
    <path class="j" d="M204.41,483.34c0.34,5.72-3,8.72-7.37,6.69s-8.25-8.31-8.59-14,3-8.72,7.37-6.69S204.08,477.62,204.41,483.34Z" transform="translate(-74.07 -152.61)"/>
    <path class="j" d="M226.92,494.57c0.34,5.73-3,8.72-7.37,6.7s-8.25-8.31-8.59-14,3-8.72,7.37-6.69S226.59,488.85,226.92,494.57Z" transform="translate(-74.07 -152.61)"/>
    <path class="d" d="M210.07,510.2c0.34,5.72-3,8.72-7.37,6.69s-8.25-8.31-8.59-14,3-8.72,7.37-6.69S209.74,504.47,210.07,510.2Z" transform="translate(-74.07 -152.61)"/>
    <path class="d" d="M232.58,521.43c0.34,5.73-3,8.72-7.37,6.7s-8.25-8.31-8.59-14,3-8.72,7.37-6.69S232.24,515.71,232.58,521.43Z" transform="translate(-74.07 -152.61)"/>
    <path class="d" d="M202.74,483.62c0.34,5.72-3,8.72-7.37,6.69s-8.25-8.31-8.59-14,3-8.72,7.37-6.7S202.4,477.9,202.74,483.62Z" transform="translate(-74.07 -152.61)"/>
    <path class="d" d="M225.24,494.86c0.34,5.72-3,8.72-7.37,6.69s-8.25-8.31-8.59-14,3-8.72,7.37-6.69S224.91,489.13,225.24,494.86Z" transform="translate(-74.07 -152.61)"/>
    <polyline class="e" points="177.59 354.62 322.52 306.31 322.52 318.66 225.38 373.97"/>
    <polygon class="f" points="180.38 339.43 234.55 348.28 275.3 334.69 221.13 325.84 180.38 339.43"/>
    <line class="h" x1="162.2" y1="301.07" x2="194.97" y2="290.15"/>
    <line class="h" x1="220.44" y1="300.28" x2="220.44" y2="315.08"/>
    <g>
      <path class="c" d="M140.07,409.77l52.39-21.3-0.1,0c0.81-.14,1.39-1,1.43-2.26a5,5,0,0,0-2.29-4.36,1.61,1.61,0,0,0-1.35-.09l0.16-.06-54.62,14.37" transform="translate(-74.07 -152.61)"/>
      <path class="d" d="M142.61,405.28c-0.1,3.61-2.35,5.5-5,4.23s-4.75-5.25-4.65-8.86,2.35-5.51,5-4.22S142.72,401.66,142.61,405.28Z" transform="translate(-74.07 -152.61)"/>
    </g>
    <path class="c" d="M310.95,495.25l52.39-21.3-0.1,0c0.81-.14,1.39-1,1.43-2.25a5,5,0,0,0-2.29-4.36,1.61,1.61,0,0,0-1.35-.09l0.16-.06-54.62,14.37" transform="translate(-74.07 -152.61)"/>
    <path class="i" d="M313.49,490.75c-0.1,3.61-2.35,5.5-5,4.23s-4.75-5.25-4.65-8.86,2.35-5.51,5-4.23S313.6,487.14,313.49,490.75Z" transform="translate(-74.07 -152.61)"/>
    <polyline class="e" points="222.59 295.33 229.75 300.28 234.59 311.83"/>
    <circle class="d" cx="329.14" cy="272.23" r="1.39"/>
    <line class="g" x1="60.07" y1="251.55" x2="63.67" y2="250.35"/>
    <polyline class="e" points="322.52 295.32 264.93 314.52 264.93 320.44"/>
    <line class="k" x1="314.29" y1="298.06" x2="314.29" y2="309.04"/>
    <line class="k" x1="304.44" y1="301.33" x2="304.44" y2="312.31"/>
    <line class="b" x1="314.29" y1="302.09" x2="322.52" y2="306.19"/>
    <polygon class="f" points="183.84 361.01 238.01 412.12 270.3 401.39 224.59 347.43 183.84 361.01"/>
    <path class="c" d="M314.41,582.56l52.39-21.3-0.1,0c0.81-.14,1.39-1,1.43-2.25a5,5,0,0,0-2.29-4.36,1.61,1.61,0,0,0-1.35-.09l0.16-.05L310,568.89" transform="translate(-74.07 -152.61)"/>
    <line class="g" x1="58.28" y1="352.11" x2="73.6" y2="347"/>
    <line class="g" x1="77.29" y1="345.77" x2="80.89" y2="344.57"/>
    <line class="h" x1="216.58" y1="341.66" x2="227.3" y2="338.09"/>
    <line class="g" x1="230.99" y1="337.03" x2="234.59" y2="335.83"/>
    <line class="h" x1="168.14" y1="280.87" x2="168.14" y2="286.02"/>
    <path class="c" d="M237.88,428.73a9.75,9.75,0,0,1-.18-2.13c0.1-3.54,2.31-5.4,4.92-4.14s4.66,5.14,4.56,8.69-2.31,5.4-4.92,4.14a7.91,7.91,0,0,1-3.36-3.6" transform="translate(-74.07 -152.61)"/>
    <line class="h" x1="161.15" y1="278.68" x2="168.37" y2="276.27"/>
    <circle class="i" cx="161.15" cy="278.68" r="0.72"/>
    <ellipse class="g" cx="374.96" cy="439.38" rx="1.58" ry="3.76" transform="translate(-158.33 637.16) rotate(-86.87)"/>
    <path class="g" d="M823.59,213.26c0.28-9.76,6.36-14.88,13.57-11.42S850,216,849.71,225.78s-6.36,14.88-13.57,11.42" transform="translate(-74.07 -152.61)"/>
    <line class="g" x1="1059.98" y1="24.03" x2="918.47" y2="71.2"/>
    <circle class="l" cx="625.69" cy="25.74" r="0.74"/>
    <circle class="l" cx="555.71" cy="93.48" r="0.74"/>
    <circle class="l" cx="948.43" cy="82.74" r="0.74"/>
    <circle class="l" cx="1018.43" cy="291.74" r="0.74"/>
    <circle class="l" cx="933.75" cy="92.74" r="0.74"/>
    <circle class="l" cx="978.43" cy="0.74" r="0.74"/>
    <circle class="l" cx="152.21" cy="190.74" r="0.74"/>
    <circle class="l" cx="17.43" cy="141.74" r="0.74"/>
    <circle class="l" cx="172.75" cy="197.74" r="0.74"/>
    <circle class="l" cx="30.11" cy="281.74" r="0.74"/>
    <circle class="l" cx="327.75" cy="338.06" r="0.74"/>
    <circle class="l" cx="236.43" cy="249" r="0.74"/>
    <circle class="l" cx="843.39" cy="31.74" r="0.74"/>
  </g>
  <path class="c" d="M317.12,577.94c-0.1,3.61-2.35,5.5-5,4.22s-4.75-5.25-4.65-8.86,2.35-5.51,5-4.22S317.23,574.32,317.12,577.94Z" transform="translate(-74.07 -152.61)"/>
  <line class="c" x1="235.29" y1="424.08" x2="238.89" y2="422.88"/>
</svg>
