<!-- Generator: Adobe Illustrator 19.2.1, SVG Export Plug-In  -->
<svg version="1.0"
	 xmlns="http://www.w3.org/2000/svg" xmlns:xlink="http://www.w3.org/1999/xlink" xmlns:a="http://ns.adobe.com/AdobeSVGViewerExtensions/3.0/"
	 x="0px" y="0px" width="203.8px" height="130.1px" viewBox="0 0 203.8 130.1" style="enable-background:new 0 0 203.8 130.1;"
	 xml:space="preserve">
<style type="text/css">
	.st0{fill:#F1F1F1;stroke:#7629F4;stroke-width:1.2475;stroke-linecap:round;stroke-linejoin:round;stroke-miterlimit:10;}
	.st1{fill:#FFFFFF;stroke:#7629F4;stroke-width:1.2475;stroke-linecap:round;stroke-linejoin:round;stroke-miterlimit:10;}
	.st2{fill:none;stroke:#6D51F3;stroke-width:1.2475;stroke-linecap:round;stroke-linejoin:round;stroke-miterlimit:10;}
	.st3{fill:none;stroke:#7629F4;stroke-width:1.2475;stroke-linecap:round;stroke-linejoin:round;stroke-miterlimit:10;}
	.st4{fill:#7629F4;}
</style>
<defs>
</defs>
<g>
	<g>
		<polyline class="st0" points="203.1,69.8 203.1,86.5 117.2,129.4 0.6,90.6 0.6,74 		"/>
		<polygon class="st1" points="203.1,69.8 117.2,112.8 0.6,74 33.8,57.7 0.6,46.6 53.8,20.1 		"/>
		<line class="st2" x1="0.6" y1="46.6" x2="0.6" y2="74"/>
		<line class="st3" x1="117.2" y1="112.8" x2="117.2" y2="129.4"/>
		<polyline class="st4" points="0.6,46.6 33.8,57.7 0.6,74 		"/>
	</g>
	<path class="st4" d="M157.7,32.9L114.9,0v19.7c-3.8,0.1-38.2,2.8-38.2,50.2c0,0,7.7-24.9,38.2-25v21L157.7,32.9z"/>
</g>
</svg>
