<!-- Generator: Adobe Illustrator 19.2.1, SVG Export Plug-In  -->
<svg version="1.1"
	 xmlns="http://www.w3.org/2000/svg" xmlns:xlink="http://www.w3.org/1999/xlink" xmlns:a="http://ns.adobe.com/AdobeSVGViewerExtensions/3.0/"
	 x="0px" y="0px" width="46.6px" height="27.7px" viewBox="0 0 46.6 27.7" style="enable-background:new 0 0 46.6 27.7;"
	 xml:space="preserve">
<style type="text/css">
	.st0{fill:#FFFFFF;stroke:#7629F4;stroke-width:1.25;stroke-miterlimit:10;}
	.st1{fill:#FFFFFF;stroke:#7629F4;stroke-width:1.25;stroke-linecap:round;stroke-linejoin:round;stroke-miterlimit:10;}
	.st2{fill:#F4F4F4;stroke:#7629F4;stroke-width:1.25;stroke-miterlimit:10;}
	.st3{fill:#7629F4;}
	.st4{fill:#FFFFFF;}
	.st5{fill:none;stroke:#7629F4;stroke-width:1.25;stroke-linecap:round;stroke-linejoin:round;stroke-miterlimit:10;}
</style>
<defs>
</defs>
<g>
	<line class="st0" x1="15" y1="24.2" x2="26.9" y2="20.3"/>
	<polygon class="st1" points="0.6,17.3 26.3,8.7 26.3,0.6 0.6,7.8 	"/>
	<polygon class="st1" points="9.1,11.2 17.6,15.5 17.6,22.5 9.1,18.2 	"/>
	<path class="st2" d="M16.4,21.5c0-2.3-1.4-4.8-3-5.6c-1.7-0.8-3,0.3-3,2.6c0,2.3,1.4,4.8,3,5.6C15,24.9,16.4,23.8,16.4,21.5z"/>
	<path class="st3" d="M14.2,20.5c0-0.6-0.4-1.3-0.8-1.5c-0.5-0.2-0.8,0.1-0.8,0.7c0,0.6,0.4,1.3,0.8,1.5
		C13.8,21.5,14.2,21.1,14.2,20.5z"/>
	<g>
		<path class="st4" d="M17.6,15.5l8.3-2.8c1.3-0.4,3.6-1,5-1.2l6.5-1c1.4-0.2,1.5-0.9,0.2-1.5l-4-2c-1.3-0.6-3.4-1-4.8-0.8l-6.5,1
			c-1.4,0.2-3.6,0.7-5,1.2l-8.3,2.8"/>
		<path class="st5" d="M17.6,15.5l8.3-2.8c1.3-0.4,3.6-1,5-1.2l6.5-1c1.4-0.2,1.5-0.9,0.2-1.5l-4-2c-1.3-0.6-3.4-1-4.8-0.8l-6.5,1
			c-1.4,0.2-3.6,0.7-5,1.2l-8.3,2.8L17.6,15.5z"/>
	</g>
	<path class="st1" d="M21.3,10.7"/>
	<polygon class="st1" points="39.9,15.1 17.6,22.5 17.6,15.5 28.4,11.9 38.3,10.4 	"/>
	<polygon class="st1" points="20.2,27.1 45.9,18.5 45.9,10.4 20.2,17.6 	"/>
	<line class="st1" x1="27.7" y1="11.6" x2="19.9" y2="7.7"/>
</g>
</svg>
