<?xml version="1.0" encoding="utf-8"?>
<!-- Generator: Adobe Illustrator 19.2.1, SVG Export Plug-In . SVG Version: 6.00 Build 0)  -->
<svg version="1.1" id="Layer_1" xmlns="http://www.w3.org/2000/svg" xmlns:xlink="http://www.w3.org/1999/xlink" x="0px" y="0px"
	 viewBox="0 0 611.1 210" style="enable-background:new 0 0 611.1 210;" xml:space="preserve" width="611" height="210">
<style type="text/css">
	.st0{fill:#7629F4;}
	.st1{font-family:'DINCondensed-Bold';}
	.st2{font-size:34px;}
	.st3{font-family:'Europa-Regular';}
	.st4{font-size:17px;}
	.st5{fill:#7629F4;stroke:#7629F4;stroke-width:1.2475;stroke-linecap:round;stroke-linejoin:round;stroke-miterlimit:10;}
	.st6{fill:#FFFFFF;stroke:#7629F4;stroke-width:1.2475;stroke-linecap:round;stroke-linejoin:round;stroke-miterlimit:10;}
	.st7{fill:none;stroke:#7629F4;stroke-width:1.2475;stroke-linecap:round;stroke-linejoin:round;stroke-miterlimit:10;}
	.st8{fill:none;stroke:#7629F4;stroke-width:1.2475;stroke-miterlimit:10;}
	.st9{fill:none;stroke:#7629F4;stroke-width:1.2475;stroke-miterlimit:10;stroke-dasharray:1.0157,6.094;}
	.st10{fill:none;stroke:#7629F4;stroke-width:1.2475;stroke-miterlimit:10;stroke-dasharray:1.0283,6.17;}
	.st11{fill:#762AF3;stroke:#FFFFFF;stroke-width:1.248;stroke-linecap:round;stroke-linejoin:round;stroke-miterlimit:10;}
	.st12{fill:none;stroke:#FFFFFF;stroke-width:1.248;stroke-linecap:round;stroke-linejoin:round;stroke-miterlimit:10;}
	.st13{fill:#FFFFFF;stroke:#762AF3;stroke-width:1.248;stroke-linecap:round;stroke-linejoin:round;stroke-miterlimit:10;}
	.st14{fill:none;stroke:#762AF3;stroke-width:1.248;stroke-linecap:round;stroke-linejoin:round;stroke-miterlimit:10;}
	.st15{fill:none;stroke:#762AF3;stroke-width:1.2475;stroke-linecap:round;stroke-linejoin:round;stroke-miterlimit:10;}
	.st16{fill:#FFFFFF;}
	.st17{fill:#FFFFFF;stroke:#762AF3;stroke-width:1.2475;stroke-linecap:round;stroke-linejoin:round;stroke-miterlimit:10;}
</style>
<g>
	<text transform="matrix(1 0 0 1 371.1567 115.3066)" class="st0 st1 st2">API</text>
</g>
<g>
	<text transform="matrix(1 0 0 1 494.1367 39.6396)" class="st0 st3 st4">golDB database</text>
</g>
<g>
	<path class="st5" d="M514.8,116.8v16.5c0,8,16.9,14.5,37.8,14.5c20.9,0,37.8-6.5,37.8-14.5v-16.5"/>
	<ellipse class="st6" cx="552.6" cy="116.8" rx="37.8" ry="14.5"/>
</g>
<g>
	<path class="st5" d="M514.8,94.7v16.5c0,8,16.9,14.5,37.8,14.5c20.9,0,37.8-6.5,37.8-14.5V94.7"/>
	<ellipse class="st6" cx="552.6" cy="94.7" rx="37.8" ry="14.5"/>
</g>
<g>
	<path class="st5" d="M514.8,72.6v16.5c0,8,16.9,14.5,37.8,14.5c20.9,0,37.8-6.5,37.8-14.5V72.6"/>
	<ellipse class="st6" cx="552.6" cy="72.6" rx="37.8" ry="14.5"/>
</g>
<path class="st6" d="M557,72.6c0,0.9-2,1.7-4.4,1.7c-2.4,0-4.4-0.8-4.4-1.7"/>
<g>
	<g>
		<g>
			<polyline class="st7" points="343.5,114.6 343.5,125 289.8,151.8 217.1,127.6 217.1,117.2 			"/>
			<polyline class="st7" points="329.7,110 343.5,114.6 289.8,141.5 217.1,117.2 237.8,107 217,100.1 250.2,83.6 264.9,88.4 			"/>
			<line class="st7" x1="217" y1="100.1" x2="217" y2="117.2"/>
			<line class="st7" x1="289.8" y1="141.5" x2="289.8" y2="151.8"/>
			<polyline class="st0" points="217,100.1 237.8,107 217.1,117.2 			"/>
		</g>
	</g>
</g>
<g>
	<g>
		<line class="st8" x1="388.5" y1="131.8" x2="388.5" y2="132.3"/>
		<line class="st9" x1="388.5" y1="138.4" x2="388.5" y2="206.5"/>
		<line class="st8" x1="388.5" y1="209.5" x2="388.5" y2="210"/>
	</g>
</g>
<g>
	<g>
		<line class="st8" x1="388.5" y1="0" x2="388.5" y2="0.5"/>
		<line class="st10" x1="388.5" y1="6.7" x2="388.5" y2="75.6"/>
		<line class="st8" x1="388.5" y1="78.7" x2="388.5" y2="79.2"/>
	</g>
</g>
<g>
	<text transform="matrix(1 0 0 1 274.2504 115.3066)" class="st0 st1 st2">XML</text>
</g>
<line class="st7" x1="448.4" y1="94.3" x2="491.9" y2="94.3"/>
<path class="st7" d="M448.4,87.6v13.3l-7.9-6.7L448.4,87.6z"/>
<line class="st7" x1="469" y1="112.1" x2="425.5" y2="112.1"/>
<path class="st7" d="M469,118.7v-13.3l7.9,6.7L469,118.7z"/>
<line class="st7" x1="154.2" y1="94.3" x2="197.6" y2="94.3"/>
<path class="st7" d="M154.2,87.6v13.3l-7.9-6.7L154.2,87.6z"/>
<line class="st7" x1="174.8" y1="112.1" x2="131.3" y2="112.1"/>
<path class="st7" d="M174.8,118.7v-13.3l7.9,6.7L174.8,118.7z"/>
<g>
	<polyline class="st11" points="84.1,32.8 84.1,109.4 84.1,109.4 68.7,114.5 54.9,107.6 54.9,31 	"/>
	<polygon class="st11" points="68.7,37.9 84.1,32.8 70.3,25.9 54.9,31 	"/>
	<line class="st12" x1="68.7" y1="37.9" x2="68.7" y2="114.5"/>
</g>
<g>
	<polyline class="st11" points="101.5,41.4 101.5,118 101.5,118 86.1,123.1 72.4,116.2 72.4,39.6 	"/>
	<polygon class="st11" points="86.1,46.5 101.5,41.4 87.7,34.5 72.4,39.6 	"/>
	<line class="st12" x1="86.1" y1="46.5" x2="86.1" y2="123.1"/>
</g>
<g>
	<polyline class="st11" points="118.9,71.1 118.9,126.7 118.9,126.7 103.6,131.8 89.8,124.9 89.8,69.3 	"/>
	<polygon class="st11" points="103.6,76.2 118.9,71.1 105.1,64.2 89.8,69.3 	"/>
	<line class="st12" x1="103.6" y1="76.2" x2="103.6" y2="131.8"/>
</g>
<g>
	<polyline class="st13" points="29.7,104.3 29.7,146.1 29.7,146.1 14.4,151.2 0.6,144.3 0.6,102.5 	"/>
	<polygon class="st11" points="14.4,109.4 29.7,104.3 16,97.4 0.6,102.5 	"/>
	<line class="st14" x1="14.4" y1="110.8" x2="14.4" y2="151.2"/>
</g>
<g>
	<polyline class="st13" points="47.2,87.8 47.2,154.8 47.2,154.8 31.8,159.9 18,153.1 18,86 	"/>
	<polygon class="st11" points="31.8,92.9 47.2,87.8 33.4,80.9 18,86 	"/>
	<line class="st14" x1="31.8" y1="94" x2="31.8" y2="159.9"/>
</g>
<g>
	<polyline class="st13" points="64.6,138.5 64.6,163.5 64.6,163.5 49.2,168.6 35.5,161.8 35.5,136.7 	"/>
	<polygon class="st11" points="49.2,143.6 64.6,138.5 50.8,131.6 35.5,136.7 	"/>
	<line class="st14" x1="49.2" y1="144.7" x2="49.2" y2="168.6"/>
</g>
<path class="st15" d="M54.9,119.2v3.5c0,4.9,8,9,19.3,10.7"/>
<ellipse class="st16" cx="106.4" cy="127.9" rx="29.7" ry="11.4"/>
<ellipse class="st17" cx="84.6" cy="116.6" rx="29.7" ry="11.4"/>
<ellipse class="st17" cx="84.6" cy="116.6" rx="29.7" ry="11.4"/>
<path class="st17" d="M76.7,127.9V140c0,6.3,13.3,11.4,29.7,11.4c16.4,0,29.7-5.1,29.7-11.4v-7"/>
<ellipse class="st15" cx="106.4" cy="127.9" rx="29.7" ry="11.4"/>
</svg>
