<?xml version="1.0" encoding="utf-8"?>
<!-- Generator: Adobe Illustrator 19.2.0, SVG Export Plug-In . SVG Version: 6.00 Build 0)  -->
<svg version="1.1" id="Layer_1" xmlns="http://www.w3.org/2000/svg" xmlns:xlink="http://www.w3.org/1999/xlink" x="0px" y="0px"
	 viewBox="0 0 222.1 242.4" style="enable-background:new 0 0 222.1 242.4;" xml:space="preserve">
<style type="text/css">
	.st0{fill:#7629F4;stroke:#FFFFFF;stroke-width:1.2475;stroke-linecap:round;stroke-linejoin:round;stroke-miterlimit:10;}
	.st1{fill:#FFFFFF;}
	.st2{fill:none;stroke:#7629F4;stroke-width:1.2475;stroke-linecap:round;stroke-linejoin:round;stroke-miterlimit:10;}
	.st3{fill:none;stroke:#FFFFFF;stroke-width:1.2475;stroke-linecap:round;stroke-linejoin:round;stroke-miterlimit:10;}
	.st4{fill:none;stroke:#FFFFFF;stroke-linecap:round;stroke-linejoin:round;}
	.st5{fill:none;stroke:#FFFFFF;stroke-linecap:round;stroke-linejoin:round;stroke-dasharray:0.4909,2.9451;}
	.st6{fill:none;stroke:#FFFFFF;stroke-linecap:round;stroke-linejoin:round;stroke-dasharray:0.4909,2.9452;}
	.st7{fill:#7629F4;}
</style>
<g>
	<g>
		<g>
			<g>
				<g>
					<g>
						<polygon class="st0" points="15.1,136 97.5,177.2 97.5,197.9 15.1,156.6 						"/>
						<polyline class="st0" points="97.5,177.2 219.9,136.3 219.9,156.9 97.5,197.9 						"/>
						<g>
							<polygon class="st1" points="137.4,95.1 15.1,136 97.5,177.2 219.9,136.3 							"/>
						</g>
					</g>
					<line class="st2" x1="75.2" y1="117.4" x2="16.2" y2="137.1"/>
					<line class="st3" x1="97.5" y1="177.2" x2="97.5" y2="197.9"/>
					<polyline class="st2" points="165.7,152.9 96.3,176.4 96.3,181.9 					"/>
				</g>
				<polygon class="st0" points="97.6,177.2 110.6,183.7 110.6,204.3 97.6,197.9 				"/>
				<polygon class="st0" points="2.1,129.3 15.1,135.8 15.1,156.4 2.1,149.9 				"/>
				<g>
					<g>
						<line class="st4" x1="22.1" y1="153.7" x2="22.4" y2="153.9"/>
						<line class="st5" x1="25" y1="155.2" x2="88.2" y2="186.8"/>
						<line class="st4" x1="89.5" y1="187.4" x2="89.8" y2="187.6"/>
					</g>
				</g>
				<g>
					<g>
						<line class="st4" x1="22.1" y1="150" x2="22.4" y2="150.1"/>
						<line class="st6" x1="25" y1="151.4" x2="88.2" y2="183.1"/>
						<line class="st4" x1="89.5" y1="183.7" x2="89.8" y2="183.8"/>
					</g>
				</g>
				<line class="st2" x1="165.7" y1="152.9" x2="121.2" y2="130.7"/>
				<line class="st2" x1="143.4" y1="160.2" x2="111" y2="144"/>
			</g>
		</g>
		<g>
			<g>
				<path class="st7" d="M93.1,103.8c1.5-0.5,2.5-1.1,3.1-1.8c0.6-0.7,0.9-2,0.9-3.8V92c0-1-0.2-1.8-0.7-2.2c-0.4-0.5-1-0.6-1.8-0.4
					c-0.9,0.3-1.5,0.9-1.9,1.8c-0.4,0.9-0.6,1.7-0.6,2.4v4l-5,1.7v-4c0-1.4,0.2-2.8,0.6-4.2c0.4-1.4,0.9-2.7,1.6-3.8
					c0.7-1.1,1.5-2.1,2.4-3c0.9-0.9,1.9-1.5,2.9-1.8c1.4-0.5,2.5-0.5,3.4,0c0.9,0.5,1.6,1,2,1.6c0.3,0.4,0.6,0.9,0.9,1.4
					c0.2,0.5,0.4,1.1,0.6,1.8c0.1,0.7,0.3,1.6,0.3,2.6c0.1,1,0.1,2.3,0.1,3.9c0,1.7,0,3.1-0.1,4.1c0,1.1-0.2,2-0.4,2.8
					c-0.2,0.8-0.5,1.5-0.9,2.1c-0.4,0.6-1,1.4-1.7,2.2c0.8,0.4,1.4,0.9,1.8,1.3c0.4,0.5,0.7,1.1,0.9,1.8c0.2,0.7,0.3,1.7,0.3,2.8
					c0,1.1,0,2.5,0,4.3c0,1.6,0,2.9-0.1,4c0,1.1-0.1,2-0.2,2.7c-0.1,0.7-0.2,1.4-0.4,1.9c-0.2,0.6-0.4,1.2-0.6,1.8
					c-0.6,1.5-1.4,2.8-2.4,4c-1,1.2-2.2,2-3.8,2.5c-0.8,0.3-1.6,0.4-2.5,0.3c-0.9-0.1-1.7-0.4-2.4-1c-0.7-0.6-1.3-1.5-1.8-2.6
					c-0.5-1.2-0.7-2.7-0.7-4.6v-4l5-1.7v3.6c0,1.1,0.2,1.9,0.7,2.5c0.4,0.6,1,0.7,1.8,0.5c0.7-0.2,1.3-0.8,1.8-1.7
					c0.4-0.9,0.7-1.9,0.7-3.1v-7c0-1-0.1-1.7-0.2-2.3c-0.1-0.6-0.3-1-0.6-1.2c-0.3-0.2-0.7-0.3-1.2-0.3c-0.5,0.1-1.2,0.2-2,0.5
					V103.8z"/>
				<path class="st7" d="M105.4,89.3c0-1.6,0.2-3.2,0.6-4.6c0.4-1.4,1-2.7,1.6-3.8c0.7-1.1,1.5-2.1,2.4-2.9c0.9-0.8,1.8-1.3,2.8-1.7
					c1-0.3,1.9-0.4,2.8-0.2c0.9,0.2,1.7,0.6,2.4,1.3c0.7,0.7,1.2,1.6,1.6,2.7c0.4,1.1,0.6,2.5,0.6,4.2V113c0,1.6-0.2,3.2-0.6,4.6
					c-0.4,1.4-1,2.7-1.6,3.8c-0.7,1.1-1.5,2.1-2.4,2.9s-1.8,1.3-2.8,1.7c-1,0.3-1.9,0.4-2.8,0.2c-0.9-0.2-1.7-0.6-2.4-1.3
					c-0.7-0.7-1.2-1.6-1.6-2.7c-0.4-1.1-0.6-2.5-0.6-4.2V89.3z M110.4,116.3c0,1,0.2,1.8,0.7,2.3c0.5,0.5,1,0.6,1.8,0.4
					c0.7-0.2,1.3-0.8,1.8-1.6c0.5-0.8,0.7-1.7,0.7-2.7V86c0-1-0.2-1.8-0.7-2.3c-0.5-0.5-1-0.6-1.8-0.4c-0.7,0.2-1.3,0.8-1.8,1.6
					c-0.5,0.8-0.7,1.7-0.7,2.7V116.3z"/>
				<path class="st7" d="M149.4,78.6l-5,1.7v-1.6c0-1.6-0.3-2.9-0.8-3.9c-0.5-1-1.4-1.3-2.7-0.8c-0.7,0.2-1.2,0.6-1.7,1.1
					c-0.4,0.5-0.8,1.1-1,1.7c-0.2,0.7-0.4,1.4-0.5,2.2c-0.1,0.8-0.1,1.6-0.1,2.4c0,1,0,1.8,0.1,2.4c0,0.6,0.2,1.2,0.4,1.6
					s0.5,0.7,0.9,1c0.4,0.2,0.9,0.4,1.5,0.6l3.8,0.9c1.1,0.2,2,0.6,2.7,1.2c0.7,0.6,1.2,1.3,1.6,2.3c0.4,1,0.6,2.1,0.8,3.5
					c0.1,1.4,0.2,2.9,0.2,4.7c0,2.1-0.1,4-0.4,5.9c-0.3,1.9-0.8,3.5-1.4,5c-0.7,1.5-1.6,2.8-2.7,3.9c-1.1,1.1-2.5,1.9-4.1,2.4
					c-1.2,0.4-2.3,0.5-3.4,0.2s-1.9-0.8-2.7-1.5c-0.7-0.8-1.3-1.8-1.8-3.1s-0.7-2.7-0.7-4.4v-2.6l5-1.7v2.2c0,1.3,0.3,2.3,0.8,3.2
					s1.4,1.1,2.7,0.6c0.8-0.3,1.5-0.7,2-1.2c0.5-0.5,0.8-1.1,1.1-1.8c0.2-0.7,0.4-1.5,0.5-2.5c0.1-0.9,0.1-2,0.1-3
					c0-1.3,0-2.3-0.1-3.1c-0.1-0.8-0.2-1.4-0.4-1.9c-0.2-0.4-0.5-0.7-0.9-0.9c-0.4-0.2-0.9-0.4-1.5-0.5l-3.6-0.9
					c-2.1-0.5-3.6-1.7-4.3-3.5c-0.7-1.8-1.1-4.2-1.1-7.3c0-1.8,0.2-3.6,0.5-5.4c0.4-1.8,0.9-3.4,1.6-4.8c0.7-1.4,1.6-2.7,2.7-3.7
					c1.1-1.1,2.3-1.8,3.8-2.3c1.2-0.4,2.4-0.5,3.4-0.2c1,0.3,1.9,0.9,2.6,1.7c0.7,0.8,1.3,1.8,1.7,3s0.6,2.4,0.6,3.8V78.6z"/>
				<path class="st7" d="M153.1,63.3l14.8-4.9V65l-9.9,3.3v14.3l8.6-2.9v6.6l-8.6,2.9v14.3l9.9-3.3v7l-14.8,4.9V63.3z"/>
				<path class="st7" d="M187,90c0,1.5-0.2,3-0.6,4.5c-0.4,1.5-1,2.9-1.7,4.2c-0.7,1.3-1.6,2.4-2.5,3.3s-2,1.6-3.1,2
					c-0.9,0.3-1.9,0.4-2.9,0.4s-1.9-0.4-2.6-1c-0.8-0.6-1.4-1.6-1.9-2.9c-0.5-1.3-0.8-3.1-0.8-5.3V68.2c0-1.6,0.2-3.2,0.6-4.7
					c0.4-1.5,0.9-2.9,1.7-4.1c0.7-1.2,1.6-2.3,2.6-3.2c1-0.9,2.1-1.6,3.3-2c1.1-0.4,2.2-0.4,3.2-0.2c1,0.2,1.8,0.8,2.5,1.6
					c0.7,0.8,1.3,1.8,1.7,3.1c0.4,1.3,0.6,2.8,0.6,4.5V66l-5,1.7v-2.3c0-1.4-0.3-2.5-0.8-3.3c-0.6-0.8-1.3-1.1-2.2-0.8
					c-1.2,0.4-2.1,1.2-2.5,2.4c-0.4,1.2-0.6,2.6-0.6,4.3v25c0,1.4,0.2,2.5,0.7,3.3s1.2,1,2.4,0.7c0.3-0.1,0.7-0.3,1-0.6
					c0.4-0.3,0.7-0.7,1-1.1c0.3-0.5,0.6-1.1,0.8-1.8c0.2-0.7,0.3-1.5,0.3-2.5v-2.4l5-1.7V90z"/>
			</g>
		</g>
	</g>
	<g>
		<g>
			<path class="st7" d="M91.2,64.9l-1.7,0.6V65c0-0.5-0.1-0.8-0.3-1.1c-0.2-0.3-0.5-0.3-0.9-0.2c-0.2,0.1-0.4,0.2-0.6,0.3
				c-0.2,0.2-0.3,0.3-0.4,0.5c-0.1,0.2-0.1,0.4-0.2,0.6c0,0.2-0.1,0.5-0.1,0.7c0,0.3,0,0.5,0,0.7c0,0.2,0.1,0.3,0.1,0.5
				c0.1,0.1,0.2,0.2,0.3,0.3c0.1,0.1,0.3,0.1,0.5,0.1l1.3,0.2c0.4,0,0.7,0.2,0.9,0.3c0.2,0.2,0.4,0.4,0.6,0.6c0.1,0.3,0.2,0.6,0.3,1
				c0,0.4,0.1,0.8,0.1,1.4c0,0.6-0.1,1.2-0.2,1.7c-0.1,0.5-0.3,1-0.5,1.5c-0.2,0.4-0.5,0.8-0.9,1.2c-0.4,0.3-0.9,0.6-1.4,0.8
				c-0.4,0.1-0.8,0.2-1.2,0.1c-0.4-0.1-0.7-0.2-0.9-0.4c-0.3-0.2-0.5-0.5-0.6-0.9c-0.2-0.4-0.2-0.8-0.2-1.3v-0.8l1.7-0.6V73
				c0,0.4,0.1,0.7,0.3,0.9c0.2,0.2,0.5,0.3,0.9,0.1c0.3-0.1,0.5-0.2,0.7-0.4c0.2-0.2,0.3-0.3,0.4-0.5c0.1-0.2,0.1-0.4,0.2-0.7
				c0-0.3,0-0.6,0-0.9c0-0.4,0-0.7,0-0.9c0-0.2-0.1-0.4-0.1-0.5c-0.1-0.1-0.2-0.2-0.3-0.3c-0.1-0.1-0.3-0.1-0.5-0.1l-1.2-0.2
				c-0.7-0.1-1.2-0.4-1.5-0.9c-0.3-0.5-0.4-1.2-0.4-2.1c0-0.5,0.1-1.1,0.2-1.6c0.1-0.5,0.3-1,0.6-1.4c0.2-0.4,0.6-0.8,0.9-1.1
				c0.4-0.3,0.8-0.6,1.3-0.7c0.4-0.1,0.8-0.2,1.2-0.1c0.4,0.1,0.7,0.2,0.9,0.4c0.3,0.2,0.4,0.5,0.6,0.8c0.1,0.3,0.2,0.7,0.2,1.1
				V64.9z"/>
			<path class="st7" d="M92.6,60.3l1.7-0.6V74l-1.7,0.6V60.3z"/>
			<path class="st7" d="M95.9,59.3l1.7-0.5l2.6,7.7l0,0v-8.6l1.7-0.6v14.2l-1.6,0.5l-2.6-7.7l0,0v8.5l-1.7,0.6V59.3z"/>
			<path class="st7" d="M103.4,60.2c0-0.6,0.1-1.1,0.3-1.6c0.2-0.5,0.4-0.9,0.7-1.3c0.3-0.4,0.6-0.7,0.9-1c0.3-0.3,0.7-0.4,1-0.6
				c0.4-0.1,0.7-0.2,1-0.1c0.3,0,0.7,0.1,0.9,0.3c0.3,0.2,0.5,0.5,0.7,0.9c0.2,0.4,0.3,0.9,0.3,1.4V59l-1.7,0.6v-0.7
				c0-0.5-0.1-0.8-0.3-1c-0.2-0.2-0.5-0.2-0.8-0.1c-0.3,0.1-0.6,0.3-0.8,0.6c-0.2,0.3-0.3,0.7-0.3,1.2v7.5c0,0.5,0.1,0.8,0.3,1
				c0.2,0.2,0.5,0.2,0.8,0.1c0.3-0.1,0.6-0.3,0.8-0.6c0.2-0.3,0.3-0.7,0.3-1.2v-2.7l-1.4,0.4v-1.8l3.1-1v4.5c0,0.6-0.1,1.1-0.3,1.6
				c-0.2,0.5-0.4,0.9-0.7,1.3c-0.3,0.4-0.6,0.7-0.9,1c-0.3,0.3-0.7,0.4-1,0.6c-0.4,0.1-0.7,0.2-1,0.1c-0.3,0-0.7-0.2-0.9-0.3
				c-0.3-0.2-0.5-0.5-0.7-0.9c-0.2-0.4-0.3-0.9-0.3-1.4V60.2z"/>
			<path class="st7" d="M110.7,54.4l1.7-0.6V66l3.4-1.1v2l-5.2,1.7V54.4z"/>
			<path class="st7" d="M117,52.4l5.2-1.7v1.9l-3.4,1.1v4.2l3-1v1.9l-3,1V64l3.4-1.1v2l-5.2,1.7V52.4z"/>
			<path class="st7" d="M132,51.6l-1.7,0.6v-0.5c0-0.5-0.1-0.8-0.3-1.1c-0.2-0.3-0.5-0.3-0.9-0.2c-0.2,0.1-0.4,0.2-0.6,0.3
				c-0.2,0.2-0.3,0.3-0.4,0.5c-0.1,0.2-0.1,0.4-0.2,0.6c0,0.2-0.1,0.5-0.1,0.7c0,0.3,0,0.5,0,0.7c0,0.2,0.1,0.3,0.1,0.5
				c0.1,0.1,0.2,0.2,0.3,0.3c0.1,0.1,0.3,0.1,0.5,0.1l1.3,0.2c0.4,0,0.7,0.1,0.9,0.3c0.2,0.2,0.4,0.4,0.6,0.6c0.1,0.3,0.2,0.6,0.3,1
				c0,0.4,0.1,0.8,0.1,1.4c0,0.6-0.1,1.2-0.2,1.7c-0.1,0.5-0.3,1-0.5,1.5c-0.2,0.4-0.5,0.8-0.9,1.2c-0.4,0.3-0.9,0.6-1.4,0.8
				c-0.4,0.1-0.8,0.2-1.2,0.1c-0.4-0.1-0.7-0.2-0.9-0.4c-0.3-0.2-0.5-0.5-0.6-0.9c-0.2-0.4-0.2-0.8-0.2-1.3v-0.8l1.7-0.6v0.6
				c0,0.4,0.1,0.7,0.3,0.9c0.2,0.2,0.5,0.3,0.9,0.1c0.3-0.1,0.5-0.2,0.7-0.4c0.2-0.2,0.3-0.3,0.4-0.5c0.1-0.2,0.1-0.4,0.2-0.7
				c0-0.3,0-0.6,0-0.9c0-0.4,0-0.7,0-0.9c0-0.2-0.1-0.4-0.1-0.5c-0.1-0.1-0.2-0.2-0.3-0.3c-0.1-0.1-0.3-0.1-0.5-0.1l-1.2-0.2
				c-0.7-0.1-1.2-0.4-1.5-0.9c-0.3-0.5-0.4-1.2-0.4-2.1c0-0.5,0.1-1.1,0.2-1.6c0.1-0.5,0.3-1,0.6-1.4c0.2-0.4,0.6-0.8,0.9-1.1
				c0.4-0.3,0.8-0.6,1.3-0.7c0.4-0.1,0.8-0.2,1.2-0.1c0.4,0.1,0.7,0.2,0.9,0.4c0.3,0.2,0.4,0.5,0.6,0.8c0.1,0.3,0.2,0.7,0.2,1.1
				V51.6z"/>
			<path class="st7" d="M133.3,47.1l5.2-1.7v1.9l-3.4,1.1v4.2l3-1v1.9l-3,1v4.2l3.4-1.1v2l-5.2,1.7V47.1z"/>
			<path class="st7" d="M139.6,45.1l2.8-0.9c2-0.7,3.1,0.4,3.1,3.2c0,0.8-0.1,1.6-0.3,2.2c-0.2,0.7-0.6,1.3-1.2,1.8l1.9,5.9
				l-1.8,0.6l-1.6-5.5l-1,0.3v6.1l-1.7,0.6V45.1z M141.3,50.8l1-0.3c0.3-0.1,0.5-0.2,0.7-0.4c0.2-0.2,0.3-0.3,0.4-0.6
				c0.1-0.2,0.2-0.5,0.2-0.8c0-0.3,0.1-0.6,0.1-1c0-0.4,0-0.7-0.1-0.9c0-0.3-0.1-0.5-0.2-0.6c-0.1-0.2-0.3-0.3-0.4-0.3
				c-0.2,0-0.4,0-0.8,0.1l-0.9,0.3V50.8z"/>
			<path class="st7" d="M150.2,55.8l-1.5,0.5l-2.5-13.4l1.8-0.6l1.4,9.5l0,0l1.4-10.4l1.8-0.6L150.2,55.8z"/>
			<path class="st7" d="M153.7,40.5l5.2-1.7v1.9l-3.4,1.1V46l3-1v1.9l-3,1v4.2l3.4-1.1v2l-5.2,1.7V40.5z"/>
			<path class="st7" d="M160,38.4l2.8-0.9c2-0.7,3.1,0.4,3.1,3.2c0,0.8-0.1,1.6-0.3,2.2c-0.2,0.7-0.6,1.3-1.2,1.8l1.9,5.9l-1.8,0.6
				l-1.6-5.5l-1,0.3v6.1l-1.7,0.6V38.4z M161.7,44.2l1-0.3c0.3-0.1,0.5-0.2,0.7-0.4c0.2-0.2,0.3-0.3,0.4-0.6
				c0.1-0.2,0.2-0.5,0.2-0.8c0-0.3,0.1-0.6,0.1-1c0-0.4,0-0.7-0.1-0.9c0-0.3-0.1-0.5-0.2-0.6c-0.1-0.2-0.3-0.3-0.4-0.3
				c-0.2,0-0.4,0-0.8,0.1l-0.9,0.3V44.2z"/>
		</g>
	</g>
</g>
</svg>
