<?xml version="1.0" encoding="utf-8"?>
<!-- Generator: Adobe Illustrator 19.2.0, SVG Export Plug-In . SVG Version: 6.00 Build 0)  -->
<svg version="1.1" id="Layer_1" xmlns="http://www.w3.org/2000/svg" xmlns:xlink="http://www.w3.org/1999/xlink" x="0px" y="0px"
	 viewBox="0 0 250 224" style="enable-background:new 0 0 250 224;" xml:space="preserve">
<style type="text/css">
	.st0{fill:#FFFFFF;}
	.st1{fill:#FFFFFF;stroke:#7629F4;stroke-width:1.2814;stroke-linecap:round;stroke-linejoin:round;stroke-miterlimit:10;}
	.st2{fill:none;stroke:#7629F4;stroke-width:1.2814;stroke-linecap:round;stroke-linejoin:round;stroke-miterlimit:10;}
	.st3{fill:none;stroke:#F4F4F4;stroke-width:1.2814;stroke-linecap:round;stroke-linejoin:round;stroke-miterlimit:10;}
	.st4{fill:#7629F4;stroke:#7629F4;stroke-width:1.2814;stroke-linecap:round;stroke-linejoin:round;stroke-miterlimit:10;}
	.st5{fill:#7629F4;}
	.st6{fill:none;stroke:#FFFFFF;stroke-width:0.7688;stroke-linecap:round;stroke-linejoin:round;stroke-miterlimit:10;}
	.st7{fill:none;}
</style>
<g>
	<circle class="st0" cx="123.4" cy="112" r="112"/>
	<g>
		<g>
			<path class="st1" d="M134.9,51.1c0,0-1.7,63.1-72.3,102.2l71.9-24L134.9,51.1z"/>
			<line class="st2" x1="61.9" y1="153.3" x2="123.9" y2="184.3"/>
			<line class="st2" x1="196.1" y1="70.9" x2="208.8" y2="77.3"/>
			<line class="st2" x1="93.2" y1="131.2" x2="155.2" y2="162.2"/>
			<line class="st2" x1="134.5" y1="129.1" x2="196.5" y2="160.1"/>
			<line class="st2" x1="128.7" y1="79.2" x2="190.6" y2="110.2"/>
			<line class="st2" x1="134.5" y1="57" x2="196.5" y2="88"/>
			<line class="st2" x1="134.9" y1="51.1" x2="196.8" y2="82.1"/>
			<path class="st3" d="M136.2,165.4"/>
			<path class="st4" d="M196.8,82.1c0,0-1.7,63.1-72.3,102.2l71.9-24L196.8,82.1z"/>
			<path class="st5" d="M124.5,184.2C195.1,145.1,196.8,82,196.8,82l-16-7.9c0,0-1.7,63.1-72.3,102.2"/>
			<line class="st1" x1="0.6" y1="173.9" x2="52.3" y2="156.7"/>
			<polyline class="st1" points="78.2,161.4 109.3,151 109.3,139.2 			"/>
			<line class="st1" x1="155.3" y1="122.3" x2="134.9" y2="129.2"/>
			<line class="st4" x1="111.4" y1="188.6" x2="72.2" y2="201.7"/>
			<line class="st4" x1="249.4" y1="143" x2="206.4" y2="157.3"/>
			<line class="st4" x1="208.8" y1="77.5" x2="237" y2="68.1"/>
			<path class="st6" d="M124.5,184.2C195.1,145.1,196.8,82,196.8,82"/>
			<path class="st5" d="M78.3,161.4c12.2-6.8,22.6-14.4,31-22.2c0,0-15.8-8.2-16-8c-8.5,7.8-18.7,15.4-31.1,22.3"/>
			<polygon class="st1" points="88.8,120 51.6,101.3 51.6,120.9 81.6,135.9 88.8,149.7 			"/>
			<polygon class="st1" points="186.1,40.5 148.9,21.9 148.9,41.5 178.9,56.5 186.1,70.3 			"/>
		</g>
	</g>
	<circle class="st7" cx="123.4" cy="112" r="112"/>
</g>
</svg>
