<svg xmlns="http://www.w3.org/2000/svg" xmlns:xlink="http://www.w3.org/1999/xlink" width="1179.71" height="493.02" viewBox="0 0 1179.71 493.02">
  <defs>
    <style>
      .a, .c, .f, .h {
        fill: none;
      }

      .b, .d {
        fill: #fff;
      }

      .b, .f, .h {
        stroke: #7629f4;
      }

      .b, .c, .d, .h {
        stroke-linecap: round;
        stroke-linejoin: round;
      }

      .b, .c, .d, .f, .h {
        stroke-width: 1.25px;
      }

      .c, .d {
        stroke: #fff;
      }

      .e {
        clip-path: url(#a);
      }

      .f {
        stroke-miterlimit: 10;
      }

      .g {
        fill: #7629f4;
      }

      .i {
        clip-path: url(#b);
      }

      .j {
        clip-path: url(#c);
      }
    </style>
    <clipPath id="a" transform="translate(-115.84 -86.5)">
      <polygon class="a" points="1078.86 157 1157.42 130.76 1275.8 311.49 1126.11 384.04 1078.86 310.72 1078.86 157"/>
    </clipPath>
    <clipPath id="b" transform="translate(-115.84 -86.5)">
      <polygon class="a" points="972.28 192.8 1050.84 166.56 1169.22 361.7 1019.53 434.25 972.28 360.93 972.28 192.8"/>
    </clipPath>
    <clipPath id="c" transform="translate(-115.84 -86.5)">
      <polygon class="a" points="1144.44 135.35 1223 109.11 1341.38 304.25 1191.69 376.8 1144.44 303.48 1144.44 135.35"/>
    </clipPath>
  </defs>
  <title>scalable-animation</title>
  <g>
    <path class="b" d="M142.25,542.42" transform="translate(-115.84 -86.5)"/>
    <polygon class="c" points="79.69 310.94 123.74 296.26 123.74 429.17 79.69 443.86 79.69 310.94"/>
    <line class="d" x1="97.95" y1="415.45" x2="123.38" y2="428.17"/>
    <line class="d" x1="97.95" y1="336.44" x2="128.28" y2="351.61"/>
    <line class="d" x1="103.67" y1="387.26" x2="132.8" y2="401.83"/>
    <line class="b" x1="92.02" y1="316.61" x2="108.41" y2="324.81"/>
    <line class="d" x1="113.44" y1="381.21" x2="132.8" y2="390.89"/>
    <line class="c" x1="92.02" y1="306.83" x2="92.02" y2="439.02"/>
    <line class="c" x1="71.5" y1="313.67" x2="0.62" y2="337.3"/>
    <line class="c" x1="208.54" y1="270.17" x2="137.66" y2="293.8"/>
    <line class="c" x1="285.85" y1="260.25" x2="171.22" y2="298.47"/>
    <g>
      <line class="d" x1="890.4" y1="190.47" x2="924" y2="207.27"/>
      <line class="d" x1="1026.27" y1="217.58" x2="1062.24" y2="235.57"/>
      <line class="d" x1="1060.93" y1="66.97" x2="1125.63" y2="99.32"/>
      <line class="d" x1="1071.13" y1="87.42" x2="1093.05" y2="98.38"/>
      <line class="c" x1="961.43" y1="69.32" x2="961.43" y2="223.39"/>
      <line class="c" x1="928.08" y1="80.74" x2="928.08" y2="234.82"/>
      <line class="c" x1="1009.54" y1="54.2" x2="1009.54" y2="208.27"/>
      <line class="c" x1="815.55" y1="117.97" x2="815.55" y2="190.47"/>
      <line class="c" x1="822.35" y1="115.72" x2="822.35" y2="170.9"/>
      <line class="c" x1="854.61" y1="105.08" x2="854.61" y2="259.16"/>
      <line class="c" x1="1027.1" y1="47.68" x2="1027.1" y2="201.76"/>
      <line class="c" x1="719.58" y1="149.95" x2="1153.5" y2="5.29"/>
      <line class="c" x1="854.61" y1="259.26" x2="1179.09" y2="151.08"/>
      <g class="e">
        <g>
          <polyline class="b" points="1003.94 242.07 1019.76 236.29 1019.76 129.94 986.78 68.73 920.3 35.5 904.15 40.94"/>
          <polyline class="b" points="903.8 40.94 970.96 74.51 970.96 119.23 1003.94 135.72 1003.94 242.07 903.8 192.01"/>
          <line class="f" x1="903.8" y1="192.01" x2="903.8" y2="40.94"/>
          <polygon class="g" points="970.96 74.51 1003.94 135.72 970.96 119.23 970.96 74.51"/>
          <g>
            <polyline class="h" points="982.63 158.34 982.63 166.93 952.14 151.69"/>
            <line class="b" x1="922.89" y1="119.89" x2="982.63" y2="149.76"/>
          </g>
          <polyline class="h" points="952.14 171.01 982.63 186.25 982.63 194.85 952.14 179.6"/>
          <line class="b" x1="937.18" y1="154.95" x2="982.63" y2="177.68"/>
        </g>
      </g>
      <g class="i">
        <g>
          <polyline class="b" points="867.95 262.83 884.03 256.96 884.03 148.83 850.5 86.6 782.91 52.81 766.5 58.34"/>
          <polyline class="b" points="766.14 58.34 834.41 92.47 834.41 137.94 867.95 154.71 867.95 262.83 766.14 211.93"/>
          <line class="f" x1="766.14" y1="211.93" x2="766.14" y2="58.34"/>
          <polygon class="g" points="834.41 92.47 867.95 154.71 834.41 137.94 834.41 92.47"/>
          <g>
            <polyline class="h" points="846.29 177.7 846.29 186.44 815.28 170.94"/>
            <line class="b" x1="785.55" y1="138.61" x2="846.29" y2="168.98"/>
          </g>
          <polyline class="h" points="815.28 190.59 846.29 206.08 846.29 214.82 815.28 199.32"/>
          <line class="b" x1="800.07" y1="174.26" x2="846.29" y2="197.37"/>
        </g>
      </g>
      <g class="j">
        <g>
          <polyline class="b" points="1049.5 210.65 1065.59 204.77 1065.59 96.65 1032.05 34.41 964.47 0.62 948.05 6.16"/>
          <polyline class="b" points="947.69 6.16 1015.97 40.29 1015.97 85.76 1049.5 102.53 1049.5 210.65 947.69 159.75"/>
          <line class="f" x1="947.69" y1="159.75" x2="947.69" y2="6.16"/>
          <polygon class="g" points="1015.97 40.29 1049.5 102.53 1015.97 85.76 1015.97 40.29"/>
          <g>
            <polyline class="h" points="1027.84 125.52 1027.84 134.26 996.84 118.76"/>
            <line class="b" x1="967.1" y1="86.43" x2="1027.84" y2="116.8"/>
          </g>
          <polyline class="h" points="996.84 138.4 1027.84 153.9 1027.84 162.64 996.84 147.14"/>
          <line class="b" x1="981.62" y1="122.08" x2="1027.84" y2="145.18"/>
        </g>
      </g>
    </g>
    <g>
      <polyline class="b" points="198.9 492.39 212.83 487.31 212.83 393.74 183.81 339.88 125.32 310.64 111.11 315.43"/>
      <polyline class="b" points="110.8 315.43 169.88 344.97 169.88 384.32 198.9 398.82 198.9 492.39 110.8 448.34"/>
      <line class="f" x1="110.8" y1="448.34" x2="110.8" y2="315.43"/>
      <polygon class="g" points="169.88 344.97 198.9 398.82 169.88 384.32 169.88 344.97"/>
      <g>
        <polyline class="h" points="180.16 418.72 180.16 426.28 153.33 412.87"/>
        <line class="b" x1="127.6" y1="384.9" x2="180.16" y2="411.18"/>
      </g>
      <polyline class="h" points="153.33 429.87 180.16 443.28 180.16 450.84 153.33 437.43"/>
      <line class="b" x1="140.17" y1="415.74" x2="180.16" y2="435.74"/>
    </g>
  </g>
</svg>
