<!-- Generator: Adobe Illustrator 19.2.0, SVG Export Plug-In  -->
<svg version="1.0"
	 xmlns="http://www.w3.org/2000/svg" xmlns:xlink="http://www.w3.org/1999/xlink" xmlns:a="http://ns.adobe.com/AdobeSVGViewerExtensions/3.0/"
	 x="0px" y="0px" width="46.6px" height="64.2px" viewBox="0 0 46.6 64.2" style="enable-background:new 0 0 46.6 64.2;"
	 xml:space="preserve">
<style type="text/css">
	.st0{fill:#FFFFFF;}
	.st1{fill:#762AF3;}
</style>
<defs>
</defs>
<g>
	<polygon class="st0" points="28.1,19.7 0.5,28.9 0.5,19.5 28.1,10.3 28.1,0.8 45.8,10.1 28.1,29 	"/>
	<g>
		<path class="st1" d="M28.6,1.7L45,10.2L28.6,27.7V19L1,28.2l0-8.4l27.6-9.2V1.7 M27.6,0v1.7v8.3l-26.9,9L0,19.1l0,0.7l0,8.4l0,1.4
			l1.3-0.4l26.3-8.8v7.3v2.5l1.7-1.8l16.4-17.5l0.9-1l-1.2-0.6L29.1,0.8L27.6,0L27.6,0z"/>
	</g>
</g>
<g>
	<polygon class="st1" points="28.1,53.6 0.5,62.8 0.5,53.4 28.1,44.2 28.1,34.7 45.8,44 28.1,62.9 	"/>
	<g>
		<path class="st1" d="M28.6,35.6L45,44.2L28.6,61.6V53L1,62.2l0-8.4l27.6-9.2V35.6 M27.6,33.9v1.7v8.3l-26.9,9L0,53l0,0.7l0,8.4
			l0,1.4l1.3-0.4l26.3-8.8v7.3v2.5l1.7-1.8l16.4-17.5l0.9-1l-1.2-0.6l-16.4-8.6L27.6,33.9L27.6,33.9z"/>
	</g>
</g>
</svg>
