<!-- Generator: Adobe Illustrator 19.2.0, SVG Export Plug-In  -->
<svg version="1.0"
	 xmlns="http://www.w3.org/2000/svg" xmlns:xlink="http://www.w3.org/1999/xlink" xmlns:a="http://ns.adobe.com/AdobeSVGViewerExtensions/3.0/"
	 x="0px" y="0px" width="189.1px" height="102.7px" viewBox="0 0 189.1 102.7" style="enable-background:new 0 0 189.1 102.7;"
	 xml:space="preserve">
<style type="text/css">
	.st0{fill:#FFFFFF;stroke:#762AF3;stroke-width:1.2475;stroke-linecap:round;stroke-linejoin:round;stroke-miterlimit:10;}
	.st1{fill:none;stroke:#762AF3;stroke-width:1.2475;stroke-linecap:round;stroke-linejoin:round;stroke-miterlimit:10;}
	.st2{fill:#762AF3;}
	.st3{fill:#FFFFFF;stroke:#762AF3;stroke-miterlimit:10;}
</style>
<defs>
</defs>
<polyline class="st0" points="0.6,46.8 0.6,62.2 80.4,102.1 188.5,66.1 188.5,50.7 "/>
<polygon class="st0" points="0.6,46.8 80.4,86.7 188.5,50.7 157.7,35.5 188.5,25.3 139.2,0.6 "/>
<line class="st1" x1="188.5" y1="25.3" x2="188.5" y2="50.7"/>
<line class="st1" x1="80.4" y1="86.7" x2="80.4" y2="102.1"/>
<polyline class="st2" points="188.5,25.3 157.7,35.5 188.5,50.7 "/>
<polygon class="st2" points="27.3,45.9 85.4,74.9 98.7,70.5 40.6,41.5 "/>
<polygon class="st2" points="54.3,36.9 112.3,65.9 125.6,61.5 67.6,32.5 "/>
<polygon class="st3" points="81.1,28 139.1,57 152.4,49.6 94.4,20.6 "/>
</svg>
