<!-- Generator: Adobe Illustrator 19.2.0, SVG Export Plug-In  -->
<svg version="1.0"
	 xmlns="http://www.w3.org/2000/svg" xmlns:xlink="http://www.w3.org/1999/xlink" xmlns:a="http://ns.adobe.com/AdobeSVGViewerExtensions/3.0/"
	 x="0px" y="0px" width="236.9px" height="224px" viewBox="0 0 236.9 224" style="enable-background:new 0 0 236.9 224;"
	 xml:space="preserve">
<style type="text/css">
	.st0{fill:#FFFFFF;}
	.st1{fill:none;}
	.st2{fill:#FFFFFF;stroke:#762AF3;stroke-width:1.2475;stroke-linecap:round;stroke-linejoin:round;stroke-miterlimit:10;}
	.st3{fill:none;stroke:#762AF3;stroke-width:1.2475;stroke-linecap:round;stroke-linejoin:round;stroke-miterlimit:10;}
	.st4{fill:none;stroke:#606060;stroke-width:1.2475;stroke-linecap:round;stroke-linejoin:round;stroke-miterlimit:10;}
	.st5{fill:#762AF3;}
	.st6{fill:#FFFFFF;stroke:#762AF3;stroke-miterlimit:10;}
	.st7{fill:none;stroke:#762AF3;stroke-miterlimit:10;}
</style>
<defs>
</defs>
<g>
	<circle class="st0" cx="112" cy="112" r="112"/>
	<circle class="st1" cx="112" cy="112" r="112"/>
</g>
<polyline class="st2" points="48.4,143.3 48.4,158.7 128.2,198.6 236.2,162.6 236.2,147.2 "/>
<polygon class="st2" points="48.4,143.3 128.2,183.2 236.2,147.2 205.5,132 236.3,121.8 187,97.1 "/>
<line class="st3" x1="236.3" y1="121.8" x2="236.3" y2="147.2"/>
<line class="st4" x1="128.2" y1="183.2" x2="128.2" y2="198.6"/>
<polyline class="st5" points="236.3,121.8 205.5,132 236.2,147.2 "/>
<polygon class="st5" points="75.1,142.4 133.1,171.4 146.4,167 88.4,138 "/>
<polygon class="st5" points="102.1,133.4 160.1,162.4 173.4,158 115.4,129 "/>
<polygon class="st6" points="128.9,124.5 186.9,153.5 200.2,146.1 142.2,117.1 "/>
<polygon class="st6" points="108.4,94.9 167.2,122.5 174.2,111.9 115.5,84.3 "/>
<g>
	<polygon class="st0" points="67.7,70.2 40.1,79.4 40.1,70 67.7,60.8 67.7,51.3 85.4,60.6 67.7,79.5 	"/>
	<g>
		<path class="st5" d="M68.2,52.1l16.4,8.6L68.2,78.2v-8.7l-27.6,9.2l0-8.4l27.6-9.2V52.1 M67.2,50.5v1.7v8.3l-26.9,9l-0.7,0.2v0.7
			l0,8.4l0,1.4l1.3-0.4l26.3-8.8v7.3v2.5l1.7-1.8l16.4-17.5l0.9-1l-1.2-0.6l-16.4-8.6L67.2,50.5L67.2,50.5z"/>
	</g>
</g>
<g>
	<polygon class="st5" points="67.7,104.1 40.1,113.3 40.1,103.9 67.7,94.7 67.7,85.2 85.4,94.5 67.7,113.4 	"/>
	<g>
		<path class="st5" d="M68.2,86.1l16.4,8.6l-16.4,17.5v-8.7l-27.6,9.2l0-8.4L68.2,95V86.1 M67.2,84.4v1.7v8.3l-26.9,9l-0.7,0.2v0.7
			l0,8.4l0,1.4l1.3-0.4l26.3-8.8v7.3v2.5l1.7-1.8l16.4-17.5l0.9-1l-1.2-0.6l-16.4-8.6L67.2,84.4L67.2,84.4z"/>
	</g>
</g>
<path class="st7" d="M168.3,66.6c0,0,24,23.4,13.6,61.1"/>
<path class="st7" d="M130.9,43.8c0,0,25.4,10.4,31,30.1"/>
<path class="st7" d="M187.3,76.4c1.8,4.3,3.1,9.3,3.6,15"/>
<polygon class="st6" points="102.2,73.1 162.6,96.7 169,85.7 108.6,62.1 "/>
<polygon class="st6" points="67.8,29.2 118.7,43.3 122.9,33.8 72,19.7 "/>
</svg>
