<!-- Generator: Adobe Illustrator 19.2.0, SVG Export Plug-In  -->
<svg version="1.0"
	 xmlns="http://www.w3.org/2000/svg" xmlns:xlink="http://www.w3.org/1999/xlink" xmlns:a="http://ns.adobe.com/AdobeSVGViewerExtensions/3.0/"
	 x="0px" y="0px" width="1571.4px" height="567.3px" viewBox="0 0 1571.4 567.3" style="enable-background:new 0 0 1571.4 567.3;"
	 xml:space="preserve">
<style type="text/css">
	.st0{fill:#F1F1F1;}
	.st1{fill:#7629F4;}
	.st2{fill:none;stroke:#FFFFFF;stroke-width:1.248;stroke-linecap:round;stroke-linejoin:round;stroke-miterlimit:10;}
	.st3{fill:#7629F4;stroke:#FFFFFF;stroke-width:1.248;stroke-linecap:round;stroke-linejoin:round;stroke-miterlimit:10;}
	.st4{fill:#FFFFFF;stroke:#FFFFFF;stroke-width:1.248;stroke-linecap:round;stroke-linejoin:round;stroke-miterlimit:10;}
	
		.st5{fill:none;stroke:#FFFFFF;stroke-width:1.248;stroke-linecap:round;stroke-linejoin:round;stroke-miterlimit:10;stroke-dasharray:3,3;}
	.st6{fill:none;stroke:#F1F1F1;stroke-width:1.248;stroke-linecap:round;stroke-linejoin:round;stroke-miterlimit:10;}
	.st7{fill:#FFFFFF;}
	.st8{fill:#7629F4;stroke:#7629F4;stroke-width:1.248;stroke-linecap:round;stroke-linejoin:round;stroke-miterlimit:10;}
	.st9{fill:#F1F1F1;stroke:#F1F1F1;stroke-linecap:round;stroke-linejoin:round;stroke-miterlimit:10;}
	.st10{fill:#FFFFFF;stroke:#FFFFFF;stroke-miterlimit:10;}
	.st11{fill:none;stroke:#7629F4;stroke-width:1.248;stroke-linecap:round;stroke-linejoin:round;}
	.st12{fill:none;stroke:#7629F4;stroke-width:1.248;stroke-linecap:round;stroke-linejoin:round;stroke-dasharray:2.9489,2.9489;}
	.st13{fill:none;stroke:#FFFFFF;stroke-width:1.248;stroke-linecap:round;stroke-linejoin:round;}
	.st14{fill:none;stroke:#FFFFFF;stroke-width:1.248;stroke-linecap:round;stroke-linejoin:round;stroke-dasharray:3.0735,3.0735;}
	.st15{fill:none;stroke:#7629F4;stroke-width:1.248;stroke-linecap:round;stroke-linejoin:round;stroke-miterlimit:10;}
	.st16{fill:none;stroke:#FFFFFF;stroke-miterlimit:10;}
	.st17{fill:none;stroke:#FFFFFF;stroke-width:1.248;stroke-linecap:round;stroke-linejoin:round;stroke-dasharray:3.0478,3.0478;}
</style>
<defs>
</defs>
<g>
	<rect x="433.3" y="482.1" class="st0" width="278.2" height="32.6"/>
	<g>
		<g>
			<g>
				<g>
					<rect x="183" class="st1" width="1260.5" height="567.3"/>
				</g>
			</g>
		</g>
	</g>
	<g>
		<line class="st2" x1="1206.8" y1="197.9" x2="1274.7" y2="231.7"/>
		<line class="st2" x1="1206.8" y1="141.7" x2="1206.8" y2="197.8"/>
		<g>
			<g>
				<polygon class="st3" points="1139.4,218.1 1159.6,228.3 1159.6,200.1 1139.4,190.1 				"/>
			</g>
			<polyline class="st3" points="1159.6,228.3 1264.6,192.9 1264.6,164.8 1159.6,200.2 			"/>
			<polyline class="st4" points="1264.6,164.8 1159.6,200.2 1139.4,190.1 1244.4,154.8 			"/>
			<line class="st2" x1="1159.6" y1="200.1" x2="1159.6" y2="228.3"/>
		</g>
		<g>
			<g>
				<polygon class="st3" points="1218.7,214.7 1238.9,224.8 1238.9,196.7 1218.7,186.7 				"/>
			</g>
			<polyline class="st3" points="1238.9,224.8 1364.9,182.8 1364.9,154.8 1238.9,196.8 			"/>
			<polyline class="st4" points="1364.9,154.8 1238.9,196.8 1218.7,186.7 1344.7,144.7 			"/>
			<line class="st2" x1="1238.9" y1="196.7" x2="1238.9" y2="224.8"/>
		</g>
		<g>
			<g>
				<polygon class="st3" points="1237.7,244.7 1258,254.9 1258,226.8 1237.7,216.7 				"/>
			</g>
			<polyline class="st3" points="1258,254.9 1384,212.9 1384,184.8 1258,226.8 			"/>
			<polyline class="st4" points="1384,184.8 1258,226.8 1237.7,216.7 1363.7,174.7 			"/>
			<line class="st2" x1="1258" y1="226.8" x2="1258" y2="254.9"/>
		</g>
		<g>
			<g>
				<polygon class="st3" points="326.9,439.8 347.2,450 347.2,421.9 326.9,411.8 				"/>
			</g>
			<polyline class="st3" points="347.2,450 473.2,408 473.2,379.9 347.2,421.9 			"/>
			<polygon class="st4" points="473.2,379.9 347.2,421.9 326.9,411.8 452.9,369.8 			"/>
			<line class="st2" x1="347.2" y1="421.9" x2="347.2" y2="450"/>
		</g>
		<g>
			<g>
				<polygon class="st3" points="319.7,485.5 340,495.7 340,467.5 319.7,457.5 				"/>
			</g>
			<polyline class="st3" points="340,495.7 466,453.7 466,425.6 340,467.6 			"/>
			<polygon class="st4" points="466,425.6 340,467.6 319.7,457.5 445.7,415.5 			"/>
			<line class="st2" x1="340" y1="467.5" x2="340" y2="495.7"/>
		</g>
		<g>
			<g>
				<polygon class="st3" points="422.8,495.2 443,505.4 443,477.3 422.8,467.2 				"/>
			</g>
			<polyline class="st3" points="443,505.4 569,463.4 569,435.3 443,477.3 			"/>
			<polygon class="st4" points="569,435.3 443,477.3 422.8,467.2 548.8,425.2 			"/>
			<line class="st2" x1="443" y1="477.3" x2="443" y2="505.4"/>
		</g>
		<line class="st5" x1="478.9" y1="406.1" x2="529.9" y2="389.1"/>
		<line class="st5" x1="578" y1="373.1" x2="545.4" y2="383.9"/>
		<line class="st2" x1="452.9" y1="284.3" x2="383.2" y2="307.5"/>
		<line class="st2" x1="577.2" y1="425" x2="552.7" y2="433.1"/>
		<line class="st2" x1="491.2" y1="429.1" x2="466.7" y2="437.2"/>
		<line class="st6" x1="505.1" y1="360.1" x2="460.2" y2="375.1"/>
		<line class="st2" x1="1223.2" y1="197.8" x2="1171.8" y2="214.9"/>
		<line class="st2" x1="1246.5" y1="227.2" x2="1195.1" y2="244.4"/>
		<line class="st2" x1="538.3" y1="387.2" x2="383.2" y2="307.5"/>
		<polyline class="st3" points="1570.8,113.7 1318.8,197.8 1318.8,211.7 1276.8,225.8 1276.8,239.8 1234.8,253.8 1234.8,281.8 
			1318.8,253.8 1318.8,267.8 1528.8,197.8 		"/>
		<polyline class="st1" points="1290.8,116.1 1207.5,142.9 1207.5,144.5 1318.3,199.9 1318.3,198.2 		"/>
		<line class="st4" x1="1206.9" y1="141.8" x2="1318.8" y2="197.8"/>
		<polyline class="st7" points="1206.8,141.7 1249,162.8 1318.8,197.6 1570.8,113.7 1458.8,57.8 		"/>
		<polygon class="st8" points="325.9,385.6 74,469.7 116.1,490.7 185.9,525.6 437.9,441.6 		"/>
		<polygon class="st9" points="325.9,387.1 74,471.2 116.1,492.2 185.9,527.1 437.9,443.1 		"/>
		<polyline class="st1" points="284.9,562.4 186,527.1 437.9,443.1 437.9,457.1 479.9,443.1 479.9,463.1 461,469.4 461,477.4 
			521.9,457.1 521.9,485.1 		"/>
		<line class="st10" x1="601.8" y1="479.4" x2="452" y2="529.4"/>
		<line class="st10" x1="1144.5" y1="345.4" x2="1224.8" y2="318.7"/>
		<g>
			<polygon class="st7" points="452.1,300.5 472.6,278.6 452.1,268.9 			"/>
		</g>
		<g>
			<polygon class="st7" points="1217.7,338.7 1240,314.9 1217.7,303.2 			"/>
		</g>
		<g>
			<g>
				<line class="st11" x1="1309.8" y1="200.8" x2="1308.4" y2="201.2"/>
				<line class="st12" x1="1305.6" y1="202.2" x2="1262.2" y2="216.6"/>
				<line class="st11" x1="1260.8" y1="217.1" x2="1259.4" y2="217.6"/>
			</g>
		</g>
		<line class="st6" x1="503.9" y1="421.1" x2="609.3" y2="385.9"/>
		<line class="st6" x1="466.8" y1="339" x2="572.2" y2="303.9"/>
		<g>
			<g>
				<line class="st13" x1="337.7" y1="383.2" x2="339.1" y2="382.7"/>
				<line class="st14" x1="342" y1="381.7" x2="428" y2="353"/>
				<line class="st13" x1="429.5" y1="352.6" x2="430.9" y2="352.1"/>
			</g>
		</g>
		<line class="st10" x1="67.7" y1="473.2" x2="0.2" y2="495.7"/>
		<line class="st10" x1="177.3" y1="529.9" x2="118.4" y2="549.6"/>
		<line class="st15" x1="1463.8" y1="100.4" x2="1303.6" y2="153.8"/>
		<line class="st15" x1="351.6" y1="422.7" x2="80.7" y2="513"/>
		<circle class="st2" cx="538.3" cy="387.2" r="3.1"/>
		<polyline class="st16" points="437.9,443.1 437.9,457.1 479.9,443.1 479.9,463.1 461,469.4 461,477.4 521.9,457.1 521.9,491.1 		
			"/>
		<g>
			<g>
				<line class="st13" x1="1203.8" y1="142.8" x2="1202.4" y2="143.2"/>
				<line class="st17" x1="1199.5" y1="144.2" x2="1039" y2="197.7"/>
				<line class="st13" x1="1037.6" y1="198.2" x2="1036.1" y2="198.6"/>
			</g>
		</g>
	</g>
	<line class="st6" x1="1195.7" y1="373.8" x2="1366" y2="317"/>
</g>
</svg>
