<!-- Generator: Adobe Illustrator 19.2.0, SVG Export Plug-In  -->
<svg version="1.0"
	 xmlns="http://www.w3.org/2000/svg" xmlns:xlink="http://www.w3.org/1999/xlink" xmlns:a="http://ns.adobe.com/AdobeSVGViewerExtensions/3.0/"
	 x="0px" y="0px" width="449.1px" height="177.5px" viewBox="0 0 449.1 177.5" style="enable-background:new 0 0 449.1 177.5;"
	 xml:space="preserve">
<style type="text/css">
	.st0{fill:#7629F4;stroke:#7629F4;stroke-width:1.248;stroke-linecap:round;stroke-linejoin:round;stroke-miterlimit:10;}
	.st1{fill:#F1F1F1;stroke:#F1F1F1;stroke-linecap:round;stroke-linejoin:round;stroke-miterlimit:10;}
	.st2{fill:#7629F4;}
	.st3{fill:none;stroke:#7629F4;stroke-width:1.248;stroke-linecap:round;stroke-linejoin:round;stroke-miterlimit:10;}
	.st4{fill:none;stroke:#FFFFFF;stroke-miterlimit:10;}
</style>
<defs>
</defs>
<polygon class="st0" points="252.5,0.6 0.6,84.7 42.7,105.8 112.5,140.6 364.5,56.6 "/>
<polygon class="st1" points="252.5,2.1 0.6,86.2 42.7,107.3 112.5,142.1 364.5,58.1 "/>
<polyline class="st2" points="211.6,177.5 112.6,142.1 364.6,58.1 364.6,72.1 406.6,58.1 406.6,78.1 387.6,84.4 387.6,92.4 
	448.6,72.1 448.6,100.1 "/>
<line class="st3" x1="278.3" y1="37.7" x2="7.4" y2="128.1"/>
<polyline class="st4" points="364.6,58.1 364.6,72.1 406.6,58.1 406.6,78.1 387.6,84.4 387.6,92.4 448.6,72.1 448.6,106.1 "/>
</svg>
