<!-- Generator: Adobe Illustrator 19.2.1, SVG Export Plug-In  -->
<svg version="1.1"
	 xmlns="http://www.w3.org/2000/svg" xmlns:xlink="http://www.w3.org/1999/xlink" xmlns:a="http://ns.adobe.com/AdobeSVGViewerExtensions/3.0/"
	 x="0px" y="0px" width="125px" height="125px" viewBox="0 0 125 125" style="enable-background:new 0 0 125 125;"
	 xml:space="preserve">
<style type="text/css">
	.st0{fill:#FFFFFF;}
	.st1{fill:none;stroke:#7629F4;stroke-width:1.248;stroke-linecap:round;stroke-linejoin:round;stroke-miterlimit:10;}
	.st2{fill:#7629F4;stroke:#7629F4;stroke-width:1.248;stroke-linecap:round;stroke-linejoin:round;stroke-miterlimit:10;}
	.st3{fill:#7629F4;}
	.st4{fill:none;stroke:#7629F4;stroke-width:2.5512;stroke-linecap:round;stroke-miterlimit:10;stroke-dasharray:0.2835,5.6693;}
	.st5{fill:#FFFFFF;stroke:#7629F4;stroke-width:1.248;stroke-linecap:round;stroke-linejoin:round;stroke-miterlimit:10;}
	.st6{fill:#F5F5F5;stroke:#7629F4;stroke-width:1.248;stroke-linecap:round;stroke-linejoin:round;stroke-miterlimit:10;}
</style>
<defs>
</defs>
<g>
	<circle class="st0" cx="62.5" cy="62.5" r="62.5"/>
	<g>
		<polyline class="st1" points="42,40.7 27.1,33.2 27.1,45.9 42,53.4 		"/>
		<polygon class="st2" points="90.6,37.2 90.6,24.5 42,40.7 42,53.4 		"/>
		<polygon class="st1" points="39.4,87.8 98.5,68.3 98.5,62.2 39.4,81.8 		"/>
		<polygon class="st3" points="55.3,72.5 62.8,59.6 47.7,64.6 		"/>
		<line class="st1" x1="55.3" y1="43.3" x2="55.3" y2="61.7"/>
		<line class="st4" x1="55.3" y1="87.8" x2="55.3" y2="114.7"/>
		<line class="st1" x1="70.2" y1="18.9" x2="27.1" y2="33.2"/>
		<g>
			<path class="st5" d="M84.7,63.6l15.7,26.2l-31.5,10.5L84.7,63.6z"/>
			<path class="st6" d="M84.7,83.9l-1.9-8.8l3.9-1.3L84.7,83.9z"/>
			<path class="st6" d="M86.3,88c0-1.3-0.7-2.1-1.6-1.8C83.8,86.5,83,87.8,83,89s0.7,2.1,1.6,1.8C85.5,90.5,86.3,89.2,86.3,88z"/>
		</g>
	</g>
</g>
</svg>
