<!-- Generator: Adobe Illustrator 19.2.1, SVG Export Plug-In  -->
<svg version="1.1"
	 xmlns="http://www.w3.org/2000/svg" xmlns:xlink="http://www.w3.org/1999/xlink" xmlns:a="http://ns.adobe.com/AdobeSVGViewerExtensions/3.0/"
	 x="0px" y="0px" width="125px" height="125px" viewBox="0 0 125 125" style="enable-background:new 0 0 125 125;"
	 xml:space="preserve">
<style type="text/css">
	.st0{fill:#FFFFFF;}
	.st1{fill:#7629F4;}
	.st2{fill:none;stroke:#7629F4;stroke-width:1.248;stroke-linecap:round;stroke-linejoin:round;stroke-miterlimit:10;}
	.st3{fill:none;stroke:#F5F5F5;stroke-linecap:round;stroke-linejoin:round;stroke-miterlimit:10;}
	.st4{fill:none;stroke:#762AF3;stroke-miterlimit:10;}
	.st5{fill:#FFFFFF;stroke:#7629F4;stroke-width:1.2475;stroke-linecap:round;stroke-linejoin:round;stroke-miterlimit:10;}
</style>
<defs>
</defs>
<g>
	<circle class="st0" cx="62.5" cy="62.5" r="62.5"/>
	<g>
		<polygon class="st1" points="78,78.1 78,52 44.5,63.1 44.5,89.2 		"/>
		<polygon class="st1" points="84.9,93.9 92.4,80.9 77.3,86 		"/>
		<line class="st2" x1="84.9" y1="65.7" x2="84.9" y2="84.1"/>
		<polyline class="st3" points="76.5,53.9 63.6,68.7 45.9,64.3 		"/>
		<polyline class="st4" points="44.5,47 44.5,58.5 78,47.4 78,32.7 		"/>
		<polyline class="st4" points="44.5,36 44.5,40.8 78,29.7 78,21.7 		"/>
		<path class="st5" d="M61.9,99.2L48.4,85.8c0.9-1.7,1.5-3.6,1.5-5.6c0-6.3-5.1-11.4-11.4-11.4c-6.3,0-11.4,5.1-11.4,11.4
			c0,6.3,5.1,11.4,11.4,11.4c2,0,3.9-0.5,5.6-1.5l13.5,13.5L61.9,99.2z"/>
		<circle class="st5" cx="38.5" cy="80.2" r="6.7"/>
	</g>
</g>
</svg>
