<!-- Generator: Adobe Illustrator 19.2.0, SVG Export Plug-In  -->
<svg version="1.0"
	 xmlns="http://www.w3.org/2000/svg" xmlns:xlink="http://www.w3.org/1999/xlink" xmlns:a="http://ns.adobe.com/AdobeSVGViewerExtensions/3.0/"
	 x="0px" y="0px" width="269.4px" height="178.6px" viewBox="0 0 269.4 178.6" style="enable-background:new 0 0 269.4 178.6;"
	 xml:space="preserve">
<style type="text/css">
	.st0{fill:#7629F4;}
	.st1{fill:none;stroke:#7629F4;stroke-width:1.248;stroke-linecap:round;stroke-linejoin:round;stroke-miterlimit:10;}
	.st2{fill:#7629F4;stroke:#FFFFFF;stroke-width:1.248;stroke-linecap:round;stroke-linejoin:round;stroke-miterlimit:10;}
	.st3{fill:#FFFFFF;stroke:#FFFFFF;stroke-width:1.248;stroke-linecap:round;stroke-linejoin:round;stroke-miterlimit:10;}
	.st4{fill:none;stroke:#FFFFFF;stroke-width:1.248;stroke-linecap:round;stroke-linejoin:round;stroke-miterlimit:10;}
</style>
<defs>
</defs>
<g>
	<g>
		<g>
			<path class="st0" d="M65.2,20l4.8-1.6l7.5,26.9l0.1,0V15.9l5-1.7v48.8l-4.7,1.6l-7.6-26.8l-0.1,0v29.3l-5,1.7V20z"/>
			<path class="st0" d="M86.7,26.9l5-1.7v3.7c1-1.6,2-3,3-4c1-1.1,2.2-1.8,3.6-2.3V30c-0.5-0.1-1-0.1-1.5,0.1
				c-0.5,0.2-1.1,0.5-1.7,0.9c-0.6,0.5-1.2,1.1-1.7,1.8c-0.5,0.8-0.9,1.7-1.2,2.7c-0.3,1.1-0.5,2.3-0.5,3.7V60l-5,1.7V26.9z"/>
			<path class="st0" d="M96.7,51.4l5-1.7v7l-5,1.7V51.4z"/>
			<path class="st0" d="M120.4,9.1l-5,6.8V8.5l5-6.8l5-1.7v48.8l-5,1.7V9.1z"/>
		</g>
	</g>
	<g>
		<line class="st1" x1="206.7" y1="80.7" x2="92" y2="118.8"/>
		<line class="st1" x1="261.4" y1="37.1" x2="176.1" y2="65.5"/>
		<line class="st1" x1="193.2" y1="93.3" x2="85.3" y2="129.2"/>
		<line class="st1" x1="241.8" y1="91.5" x2="134" y2="127.4"/>
		<g>
			<g>
				<polygon class="st2" points="0.6,165.7 24.9,178 24.9,144.2 0.6,132.1 				"/>
			</g>
			<polyline class="st2" points="24.9,178 176.1,127.6 176.1,93.8 24.9,144.2 			"/>
			<polygon class="st3" points="176.1,93.8 24.9,144.2 0.6,132.1 151.8,81.7 			"/>
			<line class="st4" x1="24.9" y1="144.2" x2="24.9" y2="178"/>
		</g>
		<line class="st3" x1="132.8" y1="125.2" x2="64.4" y2="148"/>
		<line class="st1" x1="132.8" y1="91.5" x2="24.9" y2="127.4"/>
		<line class="st1" x1="176.1" y1="43.3" x2="24.9" y2="93.7"/>
		<g>
			<polygon class="st0" points="255.9,49.9 269.4,35.5 255.9,28.4 			"/>
		</g>
		<g>
			<polygon class="st0" points="206.7,91.5 220.2,77.1 206.7,70 			"/>
		</g>
		<g>
			<polygon class="st0" points="241.8,102.2 255.3,87.8 241.8,80.7 			"/>
		</g>
		<line class="st1" x1="132.8" y1="91.5" x2="132.8" y2="101.5"/>
		<line class="st3" x1="132.8" y1="114.2" x2="132.8" y2="125.2"/>
		<line class="st1" x1="24.9" y1="93.7" x2="24.9" y2="127.4"/>
		<line class="st1" x1="176.1" y1="43.3" x2="176.1" y2="65.5"/>
	</g>
</g>
</svg>
