<!-- Generator: Adobe Illustrator 19.2.0, SVG Export Plug-In  -->
<svg version="1.0"
	 xmlns="http://www.w3.org/2000/svg" xmlns:xlink="http://www.w3.org/1999/xlink" xmlns:a="http://ns.adobe.com/AdobeSVGViewerExtensions/3.0/"
	 x="0px" y="0px" width="60.2px" height="68.8px" viewBox="0 0 60.2 68.8" style="enable-background:new 0 0 60.2 68.8;"
	 xml:space="preserve">
<style type="text/css">
	.st0{fill:#7629F4;}
</style>
<defs>
</defs>
<g>
	<g>
		<path class="st0" d="M0,20l4.8-1.6l7.5,26.9l0.1,0V15.9l5-1.7v48.8l-4.7,1.6L5.1,37.8l-0.1,0v29.3l-5,1.7V20z"/>
		<path class="st0" d="M21.6,26.9l5-1.7v3.7c1-1.6,2-3,3-4c1-1.1,2.2-1.8,3.6-2.3V30c-0.5-0.1-1-0.1-1.5,0.1
			c-0.5,0.2-1.1,0.5-1.7,0.9c-0.6,0.5-1.2,1.1-1.7,1.8c-0.5,0.8-0.9,1.7-1.2,2.7c-0.3,1.1-0.5,2.3-0.5,3.7V60l-5,1.7V26.9z"/>
		<path class="st0" d="M31.5,51.4l5-1.7v7l-5,1.7V51.4z"/>
		<path class="st0" d="M55.2,9.1l-5,6.8V8.5l5-6.8l5-1.7v48.8l-5,1.7V9.1z"/>
	</g>
</g>
</svg>
