<!-- Generator: Adobe Illustrator 19.2.1, SVG Export Plug-In  -->
<svg version="1.1"
	 xmlns="http://www.w3.org/2000/svg" xmlns:xlink="http://www.w3.org/1999/xlink" xmlns:a="http://ns.adobe.com/AdobeSVGViewerExtensions/3.0/"
	 x="0px" y="0px" width="394.3px" height="411.8px" viewBox="0 0 394.3 411.8" style="enable-background:new 0 0 394.3 411.8;"
	 xml:space="preserve">
<style type="text/css">
	.st0{fill:#7629F4;}
	.st1{fill:none;stroke:#FFFFFF;stroke-width:2;stroke-linecap:round;stroke-linejoin:round;stroke-miterlimit:10;}
	.st2{fill:#7629F4;stroke:#FFFFFF;stroke-width:2;stroke-miterlimit:10;}
	.st3{fill:none;stroke:#7629F4;stroke-miterlimit:10;}
	.st4{fill:#FFFFFF;}
	.st5{fill:none;stroke:#FFFFFF;stroke-width:0.5;stroke-miterlimit:10;}
	.st6{fill:#222222;}
	.st7{font-family:'Europa-Regular';}
	.st8{font-size:14px;}
	.st9{fill:none;stroke:#222222;stroke-width:0.5;stroke-miterlimit:10;}
</style>
<defs>
</defs>
<g>
</g>
<g>
	<rect x="7.9" y="164.4" class="st0" width="364" height="238"/>
</g>
<g>
	<polygon class="st0" points="371.9,249.4 343.9,249.4 315.9,67.4 287.9,53.4 259.9,347.4 231.9,347.4 203.9,375.4 175.9,305.4 
		147.9,95.4 119.9,109.4 91.9,375.4 63.9,319.4 35.9,361.4 7.9,361.4 7.9,402.9 371.9,402.9 	"/>
	<polyline class="st1" points="371.9,249.4 343.9,249.4 315.9,67.4 287.9,53.4 259.9,347.4 231.9,347.4 203.9,375.4 175.9,305.4 
		147.9,95.4 119.9,109.4 91.9,375.4 63.9,319.4 35.9,361.4 7.9,361.4 	"/>
	<circle class="st2" cx="175.9" cy="305.4" r="3.2"/>
	<circle class="st2" cx="203.9" cy="375.4" r="3.2"/>
	<circle class="st2" cx="231.9" cy="347.4" r="3.2"/>
	<circle class="st2" cx="259.9" cy="347.4" r="3.2"/>
	<circle class="st2" cx="343.9" cy="249.4" r="3.2"/>
	<circle class="st2" cx="91.9" cy="375.4" r="3.2"/>
	<circle class="st2" cx="63.9" cy="319.4" r="3.2"/>
	<circle class="st2" cx="35.9" cy="361.4" r="3.2"/>
	<polyline class="st3" points="8.4,39.9 8.4,402.9 386.4,402.9 	"/>
	<circle class="st2" cx="8.4" cy="402.9" r="5"/>
	<path class="st2" d="M1.9,45l7-10.6l7,10.6L1.9,45z"/>
	<path class="st2" d="M381.9,395.9l10.6,7l-10.6,7V395.9z"/>
	<g>
		<circle class="st4" cx="119.9" cy="109.4" r="4.7"/>
		<path class="st0" d="M119.9,106.2c1.8,0,3.2,1.4,3.2,3.2s-1.4,3.2-3.2,3.2s-3.2-1.4-3.2-3.2S118.1,106.2,119.9,106.2 M119.9,103.2
			c-3.4,0-6.2,2.8-6.2,6.2s2.8,6.2,6.2,6.2s6.2-2.8,6.2-6.2S123.3,103.2,119.9,103.2L119.9,103.2z"/>
	</g>
	<g>
		<circle class="st4" cx="147.9" cy="95.4" r="4.7"/>
		<path class="st0" d="M147.9,92.2c1.8,0,3.2,1.4,3.2,3.2s-1.4,3.2-3.2,3.2s-3.2-1.4-3.2-3.2S146.1,92.2,147.9,92.2 M147.9,89.2
			c-3.4,0-6.2,2.8-6.2,6.2s2.8,6.2,6.2,6.2s6.2-2.8,6.2-6.2S151.3,89.2,147.9,89.2L147.9,89.2z"/>
	</g>
	<g>
		<circle class="st4" cx="287.9" cy="53.4" r="4.7"/>
		<path class="st0" d="M287.9,50.2c1.8,0,3.2,1.4,3.2,3.2s-1.4,3.2-3.2,3.2s-3.2-1.4-3.2-3.2S286.1,50.2,287.9,50.2 M287.9,47.2
			c-3.4,0-6.2,2.8-6.2,6.2s2.8,6.2,6.2,6.2s6.2-2.8,6.2-6.2S291.3,47.2,287.9,47.2L287.9,47.2z"/>
	</g>
	<g>
		<circle class="st4" cx="315.9" cy="67.4" r="4.7"/>
		<path class="st0" d="M315.9,64.2c1.8,0,3.2,1.4,3.2,3.2s-1.4,3.2-3.2,3.2s-3.2-1.4-3.2-3.2S314.1,64.2,315.9,64.2 M315.9,61.2
			c-3.4,0-6.2,2.8-6.2,6.2s2.8,6.2,6.2,6.2s6.2-2.8,6.2-6.2S319.3,61.2,315.9,61.2L315.9,61.2z"/>
	</g>
	<line class="st5" x1="21.9" y1="375.4" x2="21.9" y2="402.9"/>
	<line class="st5" x1="35.9" y1="375.4" x2="35.9" y2="402.9"/>
	<line class="st5" x1="49.9" y1="361.4" x2="49.9" y2="402.9"/>
	<line class="st5" x1="63.9" y1="347.4" x2="63.9" y2="403.4"/>
	<line class="st5" x1="77.9" y1="375.4" x2="77.9" y2="402.9"/>
	<line class="st5" x1="91.9" y1="389.2" x2="91.9" y2="402.9"/>
	<line class="st5" x1="105.9" y1="361.4" x2="105.9" y2="402.9"/>
	<line class="st5" x1="119.9" y1="235.4" x2="119.9" y2="403.4"/>
	<line class="st5" x1="133.9" y1="109.4" x2="133.9" y2="402.9"/>
	<line class="st5" x1="147.9" y1="193.4" x2="147.9" y2="402.9"/>
	<line class="st5" x1="161.9" y1="277.4" x2="161.9" y2="402.9"/>
	<line class="st5" x1="175.9" y1="347.4" x2="175.9" y2="402.9"/>
	<line class="st5" x1="189.9" y1="361.4" x2="189.9" y2="402.9"/>
	<line class="st5" x1="203.9" y1="389.4" x2="203.9" y2="403.4"/>
	<line class="st5" x1="217.9" y1="375.4" x2="217.9" y2="402.9"/>
	<line class="st5" x1="231.9" y1="361.4" x2="231.9" y2="402.9"/>
	<line class="st5" x1="245.9" y1="361.4" x2="245.9" y2="402.9"/>
	<line class="st5" x1="259.9" y1="361.4" x2="259.9" y2="402.9"/>
	<line class="st5" x1="273.9" y1="305.4" x2="273.9" y2="402.9"/>
	<line class="st5" x1="287.9" y1="193.4" x2="287.9" y2="402.9"/>
	<line class="st5" x1="301.9" y1="67.4" x2="301.9" y2="402.9"/>
	<line class="st5" x1="315.9" y1="123.4" x2="315.9" y2="402.9"/>
	<line class="st5" x1="329.9" y1="207.4" x2="329.9" y2="402.9"/>
	<line class="st5" x1="343.9" y1="263.4" x2="343.9" y2="402.9"/>
	<line class="st5" x1="357.9" y1="263.4" x2="357.9" y2="402.9"/>
	<g>
		<g>
			<g>
				<g>
					<g>
						<text transform="matrix(1 0 0 1 76.1982 11.8994)" class="st6 st7 st8">Extra cost?</text>
					</g>
				</g>
			</g>
		</g>
		<g>
			<g>
				<g>
					<g>
						<text transform="matrix(1 0 0 1 207.8921 11.8994)" class="st6 st7 st8">Performance penalties?</text>
					</g>
				</g>
			</g>
		</g>
	</g>
	<line class="st9" x1="294.1" y1="28.6" x2="298.9" y2="46.7"/>
	<line class="st9" x1="114.4" y1="27.2" x2="126.1" y2="75.4"/>
</g>
</svg>
