<!-- Generator: Adobe Illustrator 19.2.1, SVG Export Plug-In  -->
<svg version="1.1"
	 xmlns="http://www.w3.org/2000/svg" xmlns:xlink="http://www.w3.org/1999/xlink" xmlns:a="http://ns.adobe.com/AdobeSVGViewerExtensions/3.0/"
	 x="0px" y="0px" width="394.3px" height="379.2px" viewBox="0 0 394.3 379.2" style="enable-background:new 0 0 394.3 379.2;"
	 xml:space="preserve">
<style type="text/css">
	.st0{fill:#7629F4;}
	.st1{fill:none;stroke:#FFFFFF;stroke-width:2;stroke-linecap:round;stroke-linejoin:round;stroke-miterlimit:10;}
	.st2{fill:#7629F4;stroke:#FFFFFF;stroke-width:2;stroke-miterlimit:10;}
	.st3{fill:none;stroke:#7629F4;stroke-miterlimit:10;}
	.st4{fill:#FFFFFF;}
	.st5{fill:none;stroke:#FFFFFF;stroke-width:0.5;stroke-miterlimit:10;}
</style>
<defs>
</defs>
<g>
	<rect x="7.9" y="131.8" class="st0" width="364" height="238"/>
</g>
<g>
	<polygon class="st0" points="371.9,216.8 343.9,216.8 315.9,34.8 287.9,20.8 259.9,314.8 231.9,314.8 203.9,342.8 175.9,272.8 
		147.9,62.8 119.9,76.8 91.9,342.8 63.9,286.8 35.9,328.8 7.9,328.8 7.9,370.3 371.9,370.3 	"/>
	<polyline class="st1" points="371.9,216.8 343.9,216.8 315.9,34.8 287.9,20.8 259.9,314.8 231.9,314.8 203.9,342.8 175.9,272.8 
		147.9,62.8 119.9,76.8 91.9,342.8 63.9,286.8 35.9,328.8 7.9,328.8 	"/>
	<circle class="st2" cx="175.9" cy="272.8" r="3.2"/>
	<circle class="st2" cx="203.9" cy="342.8" r="3.2"/>
	<circle class="st2" cx="231.9" cy="314.8" r="3.2"/>
	<circle class="st2" cx="259.9" cy="314.8" r="3.2"/>
	<circle class="st2" cx="343.9" cy="216.8" r="3.2"/>
	<circle class="st2" cx="91.9" cy="342.8" r="3.2"/>
	<circle class="st2" cx="63.9" cy="286.8" r="3.2"/>
	<circle class="st2" cx="35.9" cy="328.8" r="3.2"/>
	<polyline class="st3" points="8.4,7.3 8.4,370.3 386.4,370.3 	"/>
	<circle class="st2" cx="8.4" cy="370.3" r="5"/>
	<path class="st2" d="M1.9,12.4l7-10.6l7,10.6L1.9,12.4z"/>
	<path class="st2" d="M381.9,363.3l10.6,7l-10.6,7V363.3z"/>
	<g>
		<circle class="st4" cx="119.9" cy="76.8" r="4.7"/>
		<path class="st0" d="M119.9,73.6c1.8,0,3.2,1.4,3.2,3.2c0,1.8-1.4,3.2-3.2,3.2c-1.8,0-3.2-1.4-3.2-3.2
			C116.7,75,118.1,73.6,119.9,73.6 M119.9,70.6c-3.4,0-6.2,2.8-6.2,6.2c0,3.4,2.8,6.2,6.2,6.2c3.4,0,6.2-2.8,6.2-6.2
			C126.1,73.4,123.3,70.6,119.9,70.6L119.9,70.6z"/>
	</g>
	<g>
		<circle class="st4" cx="147.9" cy="62.8" r="4.7"/>
		<path class="st0" d="M147.9,59.6c1.8,0,3.2,1.4,3.2,3.2c0,1.8-1.4,3.2-3.2,3.2c-1.8,0-3.2-1.4-3.2-3.2
			C144.7,61,146.1,59.6,147.9,59.6 M147.9,56.6c-3.4,0-6.2,2.8-6.2,6.2c0,3.4,2.8,6.2,6.2,6.2c3.4,0,6.2-2.8,6.2-6.2
			C154.1,59.4,151.3,56.6,147.9,56.6L147.9,56.6z"/>
	</g>
	<g>
		<circle class="st4" cx="287.9" cy="20.8" r="4.7"/>
		<path class="st0" d="M287.9,17.6c1.8,0,3.2,1.4,3.2,3.2s-1.4,3.2-3.2,3.2s-3.2-1.4-3.2-3.2S286.1,17.6,287.9,17.6 M287.9,14.6
			c-3.4,0-6.2,2.8-6.2,6.2c0,3.4,2.8,6.2,6.2,6.2c3.4,0,6.2-2.8,6.2-6.2C294.1,17.4,291.3,14.6,287.9,14.6L287.9,14.6z"/>
	</g>
	<g>
		<circle class="st4" cx="315.9" cy="34.8" r="4.7"/>
		<path class="st0" d="M315.9,31.6c1.8,0,3.2,1.4,3.2,3.2c0,1.8-1.4,3.2-3.2,3.2s-3.2-1.4-3.2-3.2C312.7,33,314.1,31.6,315.9,31.6
			 M315.9,28.6c-3.4,0-6.2,2.8-6.2,6.2c0,3.4,2.8,6.2,6.2,6.2c3.4,0,6.2-2.8,6.2-6.2C322.1,31.4,319.3,28.6,315.9,28.6L315.9,28.6z"
			/>
	</g>
	<line class="st5" x1="21.9" y1="342.8" x2="21.9" y2="370.3"/>
	<line class="st5" x1="35.9" y1="342.8" x2="35.9" y2="370.3"/>
	<line class="st5" x1="49.9" y1="328.8" x2="49.9" y2="370.3"/>
	<line class="st5" x1="63.9" y1="314.8" x2="63.9" y2="370.8"/>
	<line class="st5" x1="77.9" y1="342.8" x2="77.9" y2="370.3"/>
	<line class="st5" x1="91.9" y1="356.6" x2="91.9" y2="370.3"/>
	<line class="st5" x1="105.9" y1="328.8" x2="105.9" y2="370.3"/>
	<line class="st5" x1="119.9" y1="202.8" x2="119.9" y2="370.8"/>
	<line class="st5" x1="133.9" y1="76.8" x2="133.9" y2="370.3"/>
	<line class="st5" x1="147.9" y1="160.8" x2="147.9" y2="370.3"/>
	<line class="st5" x1="161.9" y1="244.8" x2="161.9" y2="370.3"/>
	<line class="st5" x1="175.9" y1="314.8" x2="175.9" y2="370.3"/>
	<line class="st5" x1="189.9" y1="328.8" x2="189.9" y2="370.3"/>
	<line class="st5" x1="203.9" y1="356.8" x2="203.9" y2="370.8"/>
	<line class="st5" x1="217.9" y1="342.8" x2="217.9" y2="370.3"/>
	<line class="st5" x1="231.9" y1="328.8" x2="231.9" y2="370.3"/>
	<line class="st5" x1="245.9" y1="328.8" x2="245.9" y2="370.3"/>
	<line class="st5" x1="259.9" y1="328.8" x2="259.9" y2="370.3"/>
	<line class="st5" x1="273.9" y1="272.8" x2="273.9" y2="370.3"/>
	<line class="st5" x1="287.9" y1="160.8" x2="287.9" y2="370.3"/>
	<line class="st5" x1="301.9" y1="34.8" x2="301.9" y2="370.3"/>
	<line class="st5" x1="315.9" y1="90.8" x2="315.9" y2="370.3"/>
	<line class="st5" x1="329.9" y1="174.8" x2="329.9" y2="370.3"/>
	<line class="st5" x1="343.9" y1="230.8" x2="343.9" y2="370.3"/>
	<line class="st5" x1="357.9" y1="230.8" x2="357.9" y2="370.3"/>
</g>
</svg>
