<!-- Generator: Adobe Illustrator 19.2.1, SVG Export Plug-In  -->
<svg version="1.1"
	 xmlns="http://www.w3.org/2000/svg" xmlns:xlink="http://www.w3.org/1999/xlink" xmlns:a="http://ns.adobe.com/AdobeSVGViewerExtensions/3.0/"
	 x="0px" y="0px" width="336.5px" height="336px" viewBox="0 0 336.5 336" style="enable-background:new 0 0 336.5 336;"
	 xml:space="preserve">
<style type="text/css">
	.st0{fill:none;stroke:#FFFFFF;stroke-width:0.5;stroke-miterlimit:10;}
</style>
<defs>
</defs>
<line class="st0" x1="0.2" y1="308" x2="0.2" y2="335.5"/>
<line class="st0" x1="14.2" y1="308" x2="14.2" y2="335.5"/>
<line class="st0" x1="28.2" y1="294" x2="28.2" y2="335.5"/>
<line class="st0" x1="42.2" y1="280" x2="42.2" y2="336"/>
<line class="st0" x1="56.2" y1="308" x2="56.2" y2="335.5"/>
<line class="st0" x1="70.2" y1="321.8" x2="70.2" y2="335.5"/>
<line class="st0" x1="84.2" y1="294" x2="84.2" y2="335.5"/>
<line class="st0" x1="98.2" y1="168" x2="98.2" y2="336"/>
<line class="st0" x1="112.2" y1="42" x2="112.2" y2="335.5"/>
<line class="st0" x1="126.2" y1="126" x2="126.2" y2="335.5"/>
<line class="st0" x1="140.2" y1="210" x2="140.2" y2="335.5"/>
<line class="st0" x1="154.2" y1="280" x2="154.2" y2="335.5"/>
<line class="st0" x1="168.2" y1="294" x2="168.2" y2="335.5"/>
<line class="st0" x1="182.2" y1="322" x2="182.2" y2="336"/>
<line class="st0" x1="196.2" y1="308" x2="196.2" y2="335.5"/>
<line class="st0" x1="210.2" y1="294" x2="210.2" y2="335.5"/>
<line class="st0" x1="224.2" y1="294" x2="224.2" y2="335.5"/>
<line class="st0" x1="238.2" y1="294" x2="238.2" y2="335.5"/>
<line class="st0" x1="252.2" y1="238" x2="252.2" y2="335.5"/>
<line class="st0" x1="266.2" y1="126" x2="266.2" y2="335.5"/>
<line class="st0" x1="280.2" y1="0" x2="280.2" y2="335.5"/>
<line class="st0" x1="294.2" y1="56" x2="294.2" y2="335.5"/>
<line class="st0" x1="308.2" y1="140" x2="308.2" y2="335.5"/>
<line class="st0" x1="322.2" y1="196" x2="322.2" y2="335.5"/>
<line class="st0" x1="336.2" y1="196" x2="336.2" y2="335.5"/>
</svg>
