<!-- Generator: Adobe Illustrator 19.2.1, SVG Export Plug-In  -->
<svg version="1.1"
	 xmlns="http://www.w3.org/2000/svg" xmlns:xlink="http://www.w3.org/1999/xlink" xmlns:a="http://ns.adobe.com/AdobeSVGViewerExtensions/3.0/"
	 x="0px" y="0px" width="140px" height="14px" viewBox="0 0 140 14" style="enable-background:new 0 0 140 14;"
	 xml:space="preserve">
<style type="text/css">
	.st0{fill:#222222;}
</style>
<defs>
</defs>
<g>
	<g>
		<g>
			<g>
				<g>
					<path class="st0" d="M2.5,1c1,0,1.8,0.3,2.4,0.8C5.6,2.2,5.9,3,5.9,3.9c0,0.9-0.3,1.7-0.9,2.2C4.4,6.6,3.6,6.9,2.5,6.9H1.2v3.9
						H0V1H2.5z M4.1,5.3C4.5,5,4.7,4.5,4.7,3.9S4.5,2.8,4.1,2.5s-1-0.4-1.6-0.4H1.2v3.7h1.3C3.1,5.7,3.7,5.6,4.1,5.3z"/>
					<path class="st0" d="M11.2,4.4c0.4,0.2,0.7,0.4,1,0.7c0.3,0.3,0.5,0.7,0.7,1.1C13,6.6,13.1,7,13.1,7.6v0.2c0,0.1,0,0.1,0,0.2
						H7.8c0,0.2,0.1,0.5,0.2,0.7c0.1,0.2,0.3,0.4,0.5,0.6C8.7,9.4,9,9.6,9.2,9.7c0.3,0.1,0.5,0.2,0.9,0.2c0.4,0,0.8-0.1,1.2-0.3
						c0.3-0.2,0.6-0.4,0.8-0.7l0.7,0.8c-0.1,0.2-0.3,0.3-0.5,0.5s-0.4,0.3-0.6,0.4c-0.2,0.1-0.5,0.2-0.7,0.3
						c-0.3,0.1-0.6,0.1-0.9,0.1c-0.5,0-0.9-0.1-1.3-0.3c-0.4-0.2-0.8-0.4-1.1-0.7C7.3,9.6,7.1,9.3,6.9,8.9C6.8,8.4,6.7,8,6.7,7.5
						c0-0.5,0.1-0.9,0.2-1.3s0.4-0.8,0.7-1.1c0.3-0.3,0.6-0.6,1-0.7C9,4.2,9.4,4.1,9.9,4.1C10.4,4.1,10.8,4.2,11.2,4.4z M11.8,6.4
						c-0.1-0.2-0.2-0.4-0.4-0.6S11,5.5,10.8,5.4c-0.2-0.1-0.5-0.2-0.9-0.2C9.6,5.2,9.3,5.3,9,5.4C8.8,5.5,8.6,5.7,8.4,5.8
						S8.1,6.2,8,6.4C7.9,6.6,7.9,6.8,7.9,7h4.1C11.9,6.8,11.9,6.6,11.8,6.4z"/>
					<path class="st0" d="M17.8,4.2c0.2,0,0.3,0.1,0.5,0.1l-0.4,1.1c-0.1,0-0.2-0.1-0.4-0.1c-0.1,0-0.3,0-0.4,0
						c-0.2,0-0.4,0-0.5,0.1c-0.2,0.1-0.3,0.2-0.4,0.3c-0.1,0.1-0.2,0.2-0.3,0.3c-0.1,0.1-0.2,0.3-0.2,0.4v4.5h-1.2V4.3h1.1v1
						c0.1-0.1,0.2-0.3,0.3-0.4s0.2-0.3,0.4-0.4s0.3-0.2,0.5-0.3c0.2-0.1,0.4-0.1,0.6-0.1C17.5,4.1,17.6,4.1,17.8,4.2z"/>
					<path class="st0" d="M19.9,4.3V2.1c0-0.3,0.1-0.6,0.2-0.9c0.1-0.3,0.3-0.5,0.5-0.6c0.2-0.2,0.4-0.3,0.7-0.4S21.7,0,21.9,0
						c0.2,0,0.3,0,0.6,0.1c0.2,0,0.5,0.2,0.7,0.3l-0.4,1c-0.3-0.2-0.5-0.3-0.8-0.3c-0.3,0-0.5,0.1-0.7,0.3c-0.2,0.2-0.3,0.4-0.3,0.8
						v2.2h1.7v1.1h-1.7v5.4h-1.2V5.4h-1.3V4.3H19.9z"/>
					<path class="st0" d="M28.2,4.4c0.4,0.2,0.8,0.4,1.1,0.7c0.3,0.3,0.5,0.7,0.7,1.1c0.2,0.4,0.3,0.9,0.3,1.3s-0.1,0.9-0.3,1.3
						c-0.2,0.4-0.4,0.8-0.7,1.1c-0.3,0.3-0.7,0.5-1.1,0.7c-0.4,0.2-0.8,0.3-1.3,0.3s-0.9-0.1-1.3-0.3c-0.4-0.2-0.8-0.4-1.1-0.7
						c-0.3-0.3-0.5-0.7-0.7-1.1c-0.2-0.4-0.3-0.9-0.3-1.3s0.1-0.9,0.3-1.3c0.2-0.4,0.4-0.8,0.7-1.1c0.3-0.3,0.7-0.5,1.1-0.7
						c0.4-0.2,0.8-0.3,1.3-0.3S27.8,4.2,28.2,4.4z M27.8,9.7c0.3-0.1,0.5-0.3,0.7-0.5c0.2-0.2,0.3-0.5,0.4-0.7C29,8.1,29,7.8,29,7.5
						c0-0.3-0.1-0.6-0.2-0.9c-0.1-0.3-0.2-0.5-0.4-0.7c-0.2-0.2-0.4-0.4-0.7-0.5c-0.3-0.1-0.6-0.2-0.9-0.2S26.2,5.3,26,5.4
						c-0.3,0.1-0.5,0.3-0.7,0.5c-0.2,0.2-0.3,0.5-0.4,0.7c-0.1,0.3-0.2,0.6-0.2,0.9c0,0.3,0.1,0.6,0.2,0.9c0.1,0.3,0.2,0.5,0.4,0.7
						c0.2,0.2,0.4,0.4,0.7,0.5s0.6,0.2,0.9,0.2S27.5,9.8,27.8,9.7z"/>
					<path class="st0" d="M34.9,4.2c0.2,0,0.3,0.1,0.5,0.1l-0.4,1.1c-0.1,0-0.2-0.1-0.4-0.1c-0.1,0-0.3,0-0.4,0
						c-0.2,0-0.4,0-0.5,0.1c-0.2,0.1-0.3,0.2-0.4,0.3c-0.1,0.1-0.2,0.2-0.3,0.3c-0.1,0.1-0.2,0.3-0.2,0.4v4.5h-1.2V4.3h1.1v1
						c0.1-0.1,0.2-0.3,0.3-0.4s0.2-0.3,0.4-0.4s0.3-0.2,0.5-0.3c0.2-0.1,0.4-0.1,0.6-0.1C34.6,4.1,34.7,4.1,34.9,4.2z"/>
					<path class="st0" d="M44.8,4.8c0.4,0.4,0.6,1,0.6,1.8v4.2h-1.2v-4c0-0.5-0.1-0.9-0.4-1.2c-0.3-0.3-0.6-0.4-1-0.4
						c-0.4,0-0.7,0.1-0.9,0.3c-0.2,0.2-0.4,0.5-0.5,0.7v4.5h-1.2v-4c0-0.5-0.1-0.9-0.4-1.2c-0.3-0.3-0.6-0.4-1-0.4
						c-0.2,0-0.4,0-0.5,0.1c-0.2,0.1-0.3,0.1-0.4,0.2s-0.2,0.2-0.3,0.3c-0.1,0.1-0.2,0.2-0.2,0.4v4.5h-1.2V4.3h1.1v1
						c0.1-0.1,0.1-0.3,0.3-0.4s0.2-0.3,0.4-0.4s0.3-0.2,0.5-0.3c0.2-0.1,0.4-0.1,0.7-0.1c0.4,0,0.8,0.1,1.1,0.3s0.7,0.5,0.8,0.9
						c0.1-0.3,0.4-0.6,0.7-0.8c0.3-0.2,0.7-0.4,1.3-0.4C43.8,4.1,44.4,4.3,44.8,4.8z"/>
					<path class="st0" d="M51,4.3c0.4,0.1,0.6,0.3,0.9,0.5c0.2,0.2,0.4,0.5,0.5,0.8s0.2,0.6,0.2,0.9v4.3h-1.1V9.8
						c-0.2,0.3-0.6,0.6-0.9,0.8c-0.4,0.2-0.8,0.3-1.2,0.3c-0.3,0-0.6,0-0.9-0.1c-0.3-0.1-0.5-0.2-0.8-0.4c-0.2-0.2-0.4-0.4-0.6-0.7
						c-0.1-0.3-0.2-0.6-0.2-0.9c0-0.3,0.1-0.6,0.2-0.9c0.1-0.3,0.3-0.5,0.5-0.7s0.5-0.3,0.8-0.4c0.3-0.1,0.7-0.2,1-0.2
						c0.4,0,0.8,0.1,1.1,0.2s0.6,0.2,0.8,0.4V6.7c0-0.3-0.1-0.6-0.2-0.8c-0.1-0.2-0.3-0.4-0.4-0.5c-0.2-0.1-0.4-0.2-0.5-0.2
						s-0.4,0-0.5,0c-0.3,0-0.6,0.1-1,0.2c-0.3,0.1-0.7,0.2-1,0.4l-0.5-1c0.3-0.2,0.6-0.3,1-0.4c0.4-0.1,0.9-0.2,1.4-0.2
						C50.2,4.1,50.6,4.2,51,4.3z M50.6,9.6c0.3-0.2,0.6-0.4,0.7-0.7V8c-0.2-0.1-0.4-0.2-0.7-0.3c-0.3-0.1-0.6-0.1-1-0.1
						c-0.5,0-0.9,0.1-1.2,0.3S48,8.4,48,8.7c0,0.2,0,0.4,0.1,0.5c0.1,0.1,0.2,0.3,0.3,0.4c0.1,0.1,0.3,0.2,0.5,0.2
						c0.2,0,0.4,0.1,0.5,0.1C49.9,9.9,50.3,9.8,50.6,9.6z"/>
					<path class="st0" d="M58.3,4.3c0.3,0.1,0.6,0.3,0.8,0.5c0.2,0.2,0.4,0.5,0.5,0.8c0.1,0.3,0.2,0.7,0.2,1.1v4.2h-1.2v-4
						c0-0.3,0-0.5-0.1-0.7c-0.1-0.2-0.2-0.4-0.3-0.5c-0.1-0.1-0.3-0.2-0.5-0.3s-0.4-0.1-0.6-0.1c-0.2,0-0.4,0-0.6,0.1
						c-0.2,0.1-0.3,0.2-0.5,0.3c-0.1,0.1-0.3,0.2-0.4,0.4c-0.1,0.1-0.2,0.3-0.3,0.4v4.5h-1.2V4.3h1.1v0.9c0.2-0.3,0.4-0.5,0.7-0.7
						c0.3-0.2,0.7-0.3,1.3-0.3C57.7,4.1,58.1,4.2,58.3,4.3z"/>
					<path class="st0" d="M66.7,10.1c-0.2,0.1-0.4,0.3-0.6,0.4c-0.2,0.1-0.5,0.2-0.7,0.3c-0.3,0.1-0.6,0.1-0.9,0.1
						c-0.5,0-0.9-0.1-1.3-0.3c-0.4-0.2-0.8-0.4-1.1-0.7c-0.3-0.3-0.5-0.7-0.7-1.1c-0.2-0.4-0.3-0.9-0.3-1.3s0.1-0.9,0.3-1.3
						c0.2-0.4,0.4-0.8,0.7-1.1c0.3-0.3,0.7-0.6,1.1-0.7c0.4-0.2,0.8-0.3,1.3-0.3c0.3,0,0.6,0,0.9,0.1s0.5,0.2,0.7,0.3
						c0.2,0.1,0.4,0.2,0.6,0.4C66.8,5,67,5.1,67.1,5.3L66.3,6c-0.2-0.2-0.4-0.4-0.7-0.5c-0.3-0.2-0.7-0.3-1.1-0.3
						c-0.3,0-0.6,0.1-0.9,0.2c-0.3,0.1-0.5,0.3-0.7,0.5c-0.2,0.2-0.3,0.5-0.4,0.7c-0.1,0.3-0.2,0.6-0.2,0.9c0,0.3,0.1,0.6,0.2,0.9
						c0.1,0.3,0.2,0.5,0.4,0.7c0.2,0.2,0.4,0.4,0.7,0.5s0.6,0.2,0.9,0.2c0.4,0,0.8-0.1,1.2-0.3c0.3-0.2,0.6-0.4,0.7-0.6l0.8,0.8
						C67.1,9.8,66.9,10,66.7,10.1z"/>
					<path class="st0" d="M72.4,4.4c0.4,0.2,0.7,0.4,1,0.7s0.5,0.7,0.7,1.1c0.2,0.4,0.2,0.9,0.2,1.4v0.2c0,0.1,0,0.1,0,0.2H69
						c0,0.2,0.1,0.5,0.2,0.7c0.1,0.2,0.3,0.4,0.5,0.6s0.4,0.3,0.7,0.4c0.3,0.1,0.5,0.2,0.9,0.2c0.4,0,0.8-0.1,1.2-0.3
						s0.6-0.4,0.8-0.7l0.7,0.8c-0.1,0.2-0.3,0.3-0.5,0.5s-0.4,0.3-0.6,0.4c-0.2,0.1-0.5,0.2-0.7,0.3s-0.6,0.1-0.9,0.1
						c-0.5,0-0.9-0.1-1.3-0.3c-0.4-0.2-0.8-0.4-1.1-0.7s-0.5-0.7-0.7-1.1C68,8.4,67.9,8,67.9,7.5c0-0.5,0.1-0.9,0.2-1.3
						s0.4-0.8,0.7-1.1c0.3-0.3,0.6-0.6,1-0.7c0.4-0.2,0.8-0.3,1.3-0.3C71.5,4.1,72,4.2,72.4,4.4z M73,6.4c-0.1-0.2-0.2-0.4-0.4-0.6
						c-0.2-0.2-0.4-0.3-0.6-0.4c-0.2-0.1-0.5-0.2-0.9-0.2c-0.3,0-0.6,0.1-0.9,0.2c-0.2,0.1-0.5,0.3-0.6,0.4
						c-0.2,0.2-0.3,0.4-0.4,0.6C69.1,6.6,69.1,6.8,69,7h4.1C73.1,6.8,73.1,6.6,73,6.4z"/>
					<path class="st0" d="M80.6,5.2c0.2-0.3,0.5-0.5,0.8-0.8c0.4-0.2,0.8-0.3,1.4-0.3c0.4,0,0.8,0.1,1.2,0.3c0.4,0.2,0.7,0.4,1,0.7
						c0.3,0.3,0.5,0.7,0.7,1.1c0.2,0.4,0.2,0.9,0.2,1.3s-0.1,0.9-0.2,1.3c-0.2,0.4-0.4,0.8-0.7,1.1c-0.3,0.3-0.6,0.5-1,0.7
						c-0.4,0.2-0.8,0.3-1.2,0.3c-0.3,0-0.6,0-0.8-0.1c-0.2-0.1-0.4-0.2-0.6-0.3c-0.2-0.1-0.3-0.2-0.4-0.3S80.8,10,80.7,10v4h-1.2
						V4.3h1.1V5.2z M81,9.1c0.1,0.1,0.3,0.2,0.4,0.4c0.2,0.1,0.3,0.2,0.5,0.3c0.2,0.1,0.4,0.1,0.7,0.1c0.3,0,0.6-0.1,0.9-0.2
						s0.5-0.3,0.7-0.5c0.2-0.2,0.3-0.5,0.4-0.7c0.1-0.3,0.2-0.6,0.2-0.9c0-0.3-0.1-0.6-0.2-0.9c-0.1-0.3-0.2-0.5-0.4-0.7
						c-0.2-0.2-0.4-0.4-0.7-0.5c-0.3-0.1-0.6-0.2-0.9-0.2c-0.2,0-0.5,0-0.7,0.1c-0.2,0.1-0.4,0.2-0.5,0.3c-0.2,0.1-0.3,0.2-0.4,0.4
						s-0.2,0.3-0.3,0.4v2.4C80.8,8.9,80.9,9,81,9.1z"/>
					<path class="st0" d="M91.3,4.4c0.4,0.2,0.7,0.4,1,0.7s0.5,0.7,0.7,1.1c0.2,0.4,0.2,0.9,0.2,1.4v0.2c0,0.1,0,0.1,0,0.2H88
						c0,0.2,0.1,0.5,0.2,0.7c0.1,0.2,0.3,0.4,0.5,0.6s0.4,0.3,0.7,0.4c0.3,0.1,0.5,0.2,0.9,0.2c0.4,0,0.8-0.1,1.2-0.3
						s0.6-0.4,0.8-0.7l0.7,0.8c-0.1,0.2-0.3,0.3-0.5,0.5s-0.4,0.3-0.6,0.4c-0.2,0.1-0.5,0.2-0.7,0.3s-0.6,0.1-0.9,0.1
						c-0.5,0-0.9-0.1-1.3-0.3c-0.4-0.2-0.8-0.4-1.1-0.7s-0.5-0.7-0.7-1.1c-0.2-0.4-0.3-0.9-0.3-1.4c0-0.5,0.1-0.9,0.2-1.3
						s0.4-0.8,0.7-1.1c0.3-0.3,0.6-0.6,1-0.7c0.4-0.2,0.8-0.3,1.3-0.3C90.5,4.1,90.9,4.2,91.3,4.4z M91.9,6.4
						c-0.1-0.2-0.2-0.4-0.4-0.6c-0.2-0.2-0.4-0.3-0.6-0.4c-0.2-0.1-0.5-0.2-0.9-0.2c-0.3,0-0.6,0.1-0.9,0.2
						c-0.2,0.1-0.5,0.3-0.6,0.4c-0.2,0.2-0.3,0.4-0.4,0.6C88.1,6.6,88,6.8,88,7h4.1C92,6.8,92,6.6,91.9,6.4z"/>
					<path class="st0" d="M98.6,4.3c0.3,0.1,0.6,0.3,0.8,0.5c0.2,0.2,0.4,0.5,0.5,0.8c0.1,0.3,0.2,0.7,0.2,1.1v4.2h-1.2v-4
						c0-0.3,0-0.5-0.1-0.7c-0.1-0.2-0.2-0.4-0.3-0.5c-0.1-0.1-0.3-0.2-0.5-0.3s-0.4-0.1-0.6-0.1c-0.2,0-0.4,0-0.6,0.1
						c-0.2,0.1-0.3,0.2-0.5,0.3c-0.1,0.1-0.3,0.2-0.4,0.4c-0.1,0.1-0.2,0.3-0.3,0.4v4.5h-1.2V4.3h1.1v0.9c0.2-0.3,0.4-0.5,0.7-0.7
						c0.3-0.2,0.7-0.3,1.3-0.3C98,4.1,98.3,4.2,98.6,4.3z"/>
					<path class="st0" d="M105.7,4.3c0.4,0.1,0.6,0.3,0.9,0.5c0.2,0.2,0.4,0.5,0.5,0.8s0.2,0.6,0.2,0.9v4.3h-1.1V9.8
						c-0.2,0.3-0.6,0.6-0.9,0.8c-0.4,0.2-0.8,0.3-1.2,0.3c-0.3,0-0.6,0-0.9-0.1c-0.3-0.1-0.5-0.2-0.8-0.4c-0.2-0.2-0.4-0.4-0.6-0.7
						c-0.1-0.3-0.2-0.6-0.2-0.9c0-0.3,0.1-0.6,0.2-0.9c0.1-0.3,0.3-0.5,0.5-0.7s0.5-0.3,0.8-0.4c0.3-0.1,0.7-0.2,1-0.2
						c0.4,0,0.8,0.1,1.1,0.2s0.6,0.2,0.8,0.4V6.7c0-0.3-0.1-0.6-0.2-0.8c-0.1-0.2-0.3-0.4-0.4-0.5c-0.2-0.1-0.4-0.2-0.5-0.2
						s-0.4,0-0.5,0c-0.3,0-0.6,0.1-1,0.2c-0.3,0.1-0.7,0.2-1,0.4l-0.5-1c0.3-0.2,0.6-0.3,1-0.4c0.4-0.1,0.9-0.2,1.4-0.2
						C104.9,4.1,105.3,4.2,105.7,4.3z M105.3,9.6c0.3-0.2,0.6-0.4,0.7-0.7V8c-0.2-0.1-0.4-0.2-0.7-0.3c-0.3-0.1-0.6-0.1-1-0.1
						c-0.5,0-0.9,0.1-1.2,0.3s-0.4,0.5-0.4,0.9c0,0.2,0,0.4,0.1,0.5c0.1,0.1,0.2,0.3,0.3,0.4c0.1,0.1,0.3,0.2,0.5,0.2
						c0.2,0,0.4,0.1,0.5,0.1C104.6,9.9,105,9.8,105.3,9.6z"/>
					<path class="st0" d="M110.4,0.2v10.6h-1.2V0.2H110.4z"/>
					<path class="st0" d="M113.2,4.3v-2h1.2v2h2v1.1h-2v3.5c0,0.3,0.1,0.6,0.2,0.7c0.2,0.2,0.4,0.3,0.7,0.3c0.2,0,0.3,0,0.4-0.1
						c0.1-0.1,0.2-0.1,0.4-0.2l0.4,1c-0.3,0.2-0.5,0.3-0.7,0.3c-0.2,0.1-0.4,0.1-0.6,0.1c-0.2,0-0.5,0-0.7-0.1
						c-0.2-0.1-0.4-0.2-0.6-0.4c-0.2-0.2-0.3-0.4-0.5-0.6s-0.2-0.6-0.2-0.9V5.4h-1.3V4.3H113.2z"/>
					<path class="st0" d="M118,1.7c0.2-0.2,0.3-0.2,0.6-0.2c0.2,0,0.4,0.1,0.6,0.2c0.2,0.2,0.2,0.3,0.2,0.6s-0.1,0.4-0.2,0.6
						C119,2.9,118.8,3,118.6,3c-0.2,0-0.4-0.1-0.6-0.2c-0.2-0.2-0.2-0.3-0.2-0.6S117.8,1.8,118,1.7z M119.1,4.3v6.5H118V4.3H119.1z"
						/>
					<path class="st0" d="M125.2,4.4c0.4,0.2,0.7,0.4,1,0.7s0.5,0.7,0.7,1.1c0.2,0.4,0.2,0.9,0.2,1.4v0.2c0,0.1,0,0.1,0,0.2h-5.2
						c0,0.2,0.1,0.5,0.2,0.7c0.1,0.2,0.3,0.4,0.5,0.6s0.4,0.3,0.7,0.4c0.3,0.1,0.5,0.2,0.9,0.2c0.4,0,0.8-0.1,1.2-0.3
						s0.6-0.4,0.8-0.7l0.7,0.8c-0.1,0.2-0.3,0.3-0.5,0.5s-0.4,0.3-0.6,0.4c-0.2,0.1-0.5,0.2-0.7,0.3s-0.6,0.1-0.9,0.1
						c-0.5,0-0.9-0.1-1.3-0.3c-0.4-0.2-0.8-0.4-1.1-0.7s-0.5-0.7-0.7-1.1c-0.2-0.4-0.3-0.9-0.3-1.4c0-0.5,0.1-0.9,0.2-1.3
						s0.4-0.8,0.7-1.1c0.3-0.3,0.6-0.6,1-0.7c0.4-0.2,0.8-0.3,1.3-0.3C124.4,4.1,124.8,4.2,125.2,4.4z M125.8,6.4
						c-0.1-0.2-0.2-0.4-0.4-0.6c-0.2-0.2-0.4-0.3-0.6-0.4c-0.2-0.1-0.5-0.2-0.9-0.2c-0.3,0-0.6,0.1-0.9,0.2
						c-0.2,0.1-0.5,0.3-0.6,0.4c-0.2,0.2-0.3,0.4-0.4,0.6c-0.1,0.2-0.1,0.4-0.2,0.6h4.1C125.9,6.8,125.9,6.6,125.8,6.4z"/>
					<path class="st0" d="M129.1,9.2c0.1,0.1,0.3,0.2,0.4,0.3c0.2,0.1,0.4,0.2,0.6,0.3c0.2,0.1,0.4,0.1,0.7,0.1c0.1,0,0.3,0,0.5,0
						c0.2,0,0.3-0.1,0.4-0.1c0.1-0.1,0.2-0.2,0.3-0.3c0.1-0.1,0.1-0.2,0.1-0.4c0-0.1,0-0.3-0.1-0.4c-0.1-0.1-0.2-0.2-0.4-0.3
						c-0.1-0.1-0.3-0.1-0.5-0.2c-0.2,0-0.3-0.1-0.5-0.1c-0.2,0-0.5-0.1-0.7-0.2c-0.3-0.1-0.5-0.2-0.8-0.3s-0.4-0.3-0.6-0.6
						c-0.2-0.2-0.3-0.5-0.3-0.9c0-0.3,0.1-0.5,0.2-0.8s0.3-0.4,0.5-0.6c0.2-0.2,0.5-0.3,0.7-0.4c0.3-0.1,0.6-0.2,1-0.2
						c0.6,0,1,0.1,1.4,0.3c0.4,0.2,0.7,0.4,1,0.7l-0.8,0.8c-0.2-0.2-0.4-0.3-0.7-0.5c-0.3-0.2-0.6-0.2-1-0.2c-0.4,0-0.7,0.1-0.9,0.3
						c-0.2,0.2-0.3,0.4-0.3,0.6c0,0.1,0,0.3,0.1,0.4c0.1,0.1,0.2,0.2,0.4,0.3c0.1,0.1,0.3,0.1,0.5,0.2s0.4,0.1,0.6,0.1
						c0.2,0.1,0.5,0.1,0.8,0.2c0.3,0.1,0.5,0.2,0.7,0.3c0.2,0.2,0.4,0.3,0.6,0.6c0.1,0.2,0.2,0.5,0.2,0.8s-0.1,0.6-0.2,0.9
						c-0.1,0.2-0.3,0.5-0.6,0.6c-0.2,0.2-0.5,0.3-0.8,0.4s-0.6,0.1-0.9,0.1c-0.3,0-0.6,0-0.9-0.1c-0.3-0.1-0.5-0.2-0.8-0.3
						s-0.4-0.3-0.6-0.4s-0.3-0.3-0.5-0.5l0.8-0.8C128.9,8.9,129,9.1,129.1,9.2z"/>
					<path class="st0" d="M138.4,2.3c-0.3-0.3-0.7-0.5-1.2-0.5c-0.2,0-0.5,0-0.7,0.1s-0.4,0.2-0.5,0.3c-0.2,0.1-0.3,0.3-0.4,0.5
						c-0.1,0.2-0.2,0.4-0.3,0.5l-1-0.5c0.2-0.6,0.6-1.1,1.1-1.5c0.5-0.4,1.1-0.6,1.8-0.6c0.4,0,0.8,0.1,1.1,0.2
						c0.4,0.1,0.7,0.3,0.9,0.6s0.5,0.5,0.6,0.9c0.1,0.3,0.2,0.7,0.2,1.1c0,0.3,0,0.6-0.1,0.9c-0.1,0.3-0.2,0.5-0.4,0.7
						c-0.1,0.2-0.3,0.4-0.5,0.6s-0.3,0.3-0.5,0.4l-0.5,0.4c-0.1,0.1-0.2,0.2-0.2,0.3c0,0.1-0.1,0.2-0.1,0.3s0,0.2,0,0.4v0.8h-1.1
						V7.4c0-0.2,0-0.4,0-0.6c0-0.2,0.1-0.3,0.1-0.5c0.1-0.1,0.2-0.3,0.3-0.4c0.1-0.1,0.3-0.3,0.5-0.5l0.4-0.3
						c0.1-0.1,0.3-0.2,0.4-0.4s0.2-0.3,0.3-0.5s0.1-0.4,0.1-0.7C138.8,3.1,138.7,2.7,138.4,2.3z M136.6,9.6c0.2-0.2,0.3-0.2,0.6-0.2
						s0.4,0.1,0.6,0.2s0.2,0.3,0.2,0.6s-0.1,0.4-0.2,0.6s-0.3,0.2-0.6,0.2s-0.4-0.1-0.6-0.2s-0.2-0.3-0.2-0.6S136.5,9.7,136.6,9.6z"
						/>
				</g>
			</g>
		</g>
	</g>
</g>
</svg>
