<!-- Generator: Adobe Illustrator 19.2.1, SVG Export Plug-In  -->
<svg version="1.1"
	 xmlns="http://www.w3.org/2000/svg" xmlns:xlink="http://www.w3.org/1999/xlink" xmlns:a="http://ns.adobe.com/AdobeSVGViewerExtensions/3.0/"
	 x="0px" y="0px" width="66.4px" height="10.1px" viewBox="0 0 66.4 10.1" style="enable-background:new 0 0 66.4 10.1;"
	 xml:space="preserve">
<style type="text/css">
	.st0{fill:#222222;}
</style>
<defs>
</defs>
<g>
	<g>
		<g>
			<g>
				<g>
					<path class="st0" d="M5.3,4.4v1.1H1.2v3.3h4.6V10H0V0.2h5.7v1.1H1.2v3.1H5.3z"/>
					<path class="st0" d="M9.9,5.9l1.6-2.4h1.3l-2.2,3.1L13,10h-1.4L9.8,7.4L8.1,10H6.8l2.4-3.3L6.9,3.5h1.4L9.9,5.9z"/>
					<path class="st0" d="M14.9,3.5v-2h1.2v2h2v1.1h-2v3.5c0,0.3,0.1,0.6,0.2,0.7C16.5,9,16.7,9,17,9c0.2,0,0.3,0,0.4-0.1
						c0.1-0.1,0.2-0.1,0.4-0.2l0.4,1c-0.3,0.2-0.5,0.3-0.7,0.3c-0.2,0.1-0.4,0.1-0.6,0.1c-0.2,0-0.5,0-0.7-0.1
						c-0.2-0.1-0.4-0.2-0.6-0.4c-0.2-0.2-0.3-0.4-0.5-0.6s-0.2-0.6-0.2-0.9V4.6h-1.3V3.5H14.9z"/>
					<path class="st0" d="M22.8,3.4c0.2,0,0.3,0.1,0.5,0.1l-0.4,1.1c-0.1,0-0.2-0.1-0.4-0.1c-0.1,0-0.3,0-0.4,0
						c-0.2,0-0.4,0-0.5,0.1s-0.3,0.2-0.4,0.3C21.1,4.9,21,5,20.9,5.1c-0.1,0.1-0.2,0.3-0.2,0.4V10h-1.2V3.5h1.1v1
						c0.1-0.1,0.2-0.3,0.3-0.4s0.2-0.3,0.4-0.4s0.3-0.2,0.5-0.3c0.2-0.1,0.4-0.1,0.6-0.1C22.5,3.3,22.7,3.3,22.8,3.4z"/>
					<path class="st0" d="M28,3.5c0.4,0.1,0.6,0.3,0.9,0.5c0.2,0.2,0.4,0.5,0.5,0.8c0.1,0.3,0.2,0.6,0.2,0.9V10h-1.1V9
						c-0.2,0.3-0.6,0.6-0.9,0.8c-0.4,0.2-0.8,0.3-1.2,0.3c-0.3,0-0.6,0-0.9-0.1c-0.3-0.1-0.5-0.2-0.8-0.4s-0.4-0.4-0.6-0.7
						C24,8.6,23.9,8.3,23.9,8c0-0.3,0.1-0.6,0.2-0.9c0.1-0.3,0.3-0.5,0.5-0.7c0.2-0.2,0.5-0.3,0.8-0.4s0.7-0.2,1-0.2
						c0.4,0,0.8,0.1,1.1,0.2s0.6,0.2,0.8,0.4V6c0-0.3-0.1-0.6-0.2-0.8c-0.1-0.2-0.3-0.4-0.4-0.5s-0.4-0.2-0.5-0.2s-0.4,0-0.5,0
						c-0.3,0-0.6,0.1-1,0.2c-0.3,0.1-0.7,0.2-1,0.4l-0.5-1c0.3-0.2,0.6-0.3,1-0.4s0.9-0.2,1.4-0.2C27.3,3.3,27.7,3.4,28,3.5z
						 M27.7,8.8c0.3-0.2,0.6-0.4,0.7-0.7V7.2C28.2,7.1,28,7,27.7,6.9c-0.3-0.1-0.6-0.1-1-0.1c-0.5,0-0.9,0.1-1.2,0.3
						S25.1,7.6,25.1,8c0,0.2,0,0.4,0.1,0.5c0.1,0.1,0.2,0.3,0.3,0.4C25.7,8.9,25.9,9,26,9c0.2,0,0.4,0.1,0.5,0.1
						C27,9.1,27.4,9,27.7,8.8z"/>
					<path class="st0" d="M40.4,9.3c-0.2,0.1-0.4,0.3-0.6,0.4c-0.2,0.1-0.5,0.2-0.7,0.3c-0.3,0.1-0.6,0.1-0.9,0.1
						c-0.5,0-0.9-0.1-1.3-0.3c-0.4-0.2-0.8-0.4-1.1-0.7c-0.3-0.3-0.5-0.7-0.7-1.1c-0.2-0.4-0.3-0.9-0.3-1.3s0.1-0.9,0.3-1.3
						c0.2-0.4,0.4-0.8,0.7-1.1c0.3-0.3,0.7-0.6,1.1-0.7c0.4-0.2,0.8-0.3,1.3-0.3c0.3,0,0.6,0,0.9,0.1c0.3,0.1,0.5,0.2,0.7,0.3
						C40,3.8,40.2,4,40.4,4.1c0.2,0.1,0.3,0.3,0.4,0.4L40,5.2c-0.2-0.2-0.4-0.4-0.7-0.5c-0.3-0.2-0.7-0.3-1.1-0.3
						c-0.3,0-0.6,0.1-0.9,0.2c-0.3,0.1-0.5,0.3-0.7,0.5c-0.2,0.2-0.3,0.5-0.4,0.7C36.1,6.1,36,6.4,36,6.7c0,0.3,0.1,0.6,0.2,0.9
						c0.1,0.3,0.2,0.5,0.4,0.7c0.2,0.2,0.4,0.4,0.7,0.5S37.9,9,38.2,9C38.7,9,39,9,39.4,8.8c0.3-0.2,0.6-0.4,0.7-0.6l0.8,0.8
						C40.7,9,40.6,9.2,40.4,9.3z"/>
					<path class="st0" d="M46.2,3.6C46.6,3.8,47,4,47.3,4.3C47.6,4.6,47.8,5,48,5.4c0.2,0.4,0.3,0.9,0.3,1.3S48.1,7.7,48,8.1
						c-0.2,0.4-0.4,0.8-0.7,1.1c-0.3,0.3-0.7,0.5-1.1,0.7c-0.4,0.2-0.8,0.3-1.3,0.3c-0.5,0-0.9-0.1-1.3-0.3
						c-0.4-0.2-0.8-0.4-1.1-0.7c-0.3-0.3-0.5-0.7-0.7-1.1c-0.2-0.4-0.3-0.9-0.3-1.3s0.1-0.9,0.3-1.3C42,5,42.2,4.6,42.5,4.3
						c0.3-0.3,0.7-0.5,1.1-0.7c0.4-0.2,0.8-0.3,1.3-0.3C45.4,3.3,45.8,3.4,46.2,3.6z M45.8,8.9c0.3-0.1,0.5-0.3,0.7-0.5
						c0.2-0.2,0.3-0.5,0.4-0.7C47,7.4,47,7.1,47,6.7c0-0.3-0.1-0.6-0.2-0.9c-0.1-0.3-0.2-0.5-0.4-0.7c-0.2-0.2-0.4-0.4-0.7-0.5
						c-0.3-0.1-0.6-0.2-0.9-0.2c-0.3,0-0.6,0.1-0.9,0.2c-0.3,0.1-0.5,0.3-0.7,0.5c-0.2,0.2-0.3,0.5-0.4,0.7
						c-0.1,0.3-0.2,0.6-0.2,0.9c0,0.3,0.1,0.6,0.2,0.9c0.1,0.3,0.2,0.5,0.4,0.7c0.2,0.2,0.4,0.4,0.7,0.5S44.6,9,44.9,9
						C45.2,9,45.5,9,45.8,8.9z"/>
					<path class="st0" d="M50.3,8.4c0.1,0.1,0.3,0.2,0.4,0.3c0.2,0.1,0.4,0.2,0.6,0.3c0.2,0.1,0.4,0.1,0.7,0.1c0.1,0,0.3,0,0.5,0
						c0.2,0,0.3-0.1,0.4-0.1c0.1-0.1,0.2-0.2,0.3-0.3c0.1-0.1,0.1-0.2,0.1-0.4c0-0.1,0-0.3-0.1-0.4c-0.1-0.1-0.2-0.2-0.4-0.3
						c-0.1-0.1-0.3-0.1-0.5-0.2c-0.2,0-0.3-0.1-0.5-0.1c-0.2,0-0.5-0.1-0.7-0.2c-0.3-0.1-0.5-0.2-0.8-0.3s-0.4-0.3-0.6-0.6
						c-0.2-0.2-0.3-0.5-0.3-0.9c0-0.3,0.1-0.5,0.2-0.8s0.3-0.4,0.5-0.6c0.2-0.2,0.5-0.3,0.7-0.4c0.3-0.1,0.6-0.2,1-0.2
						c0.6,0,1,0.1,1.4,0.3c0.4,0.2,0.7,0.4,1,0.7l-0.8,0.8c-0.2-0.2-0.4-0.3-0.7-0.5c-0.3-0.2-0.6-0.2-1-0.2c-0.4,0-0.7,0.1-0.9,0.3
						c-0.2,0.2-0.3,0.4-0.3,0.6c0,0.1,0,0.3,0.1,0.4c0.1,0.1,0.2,0.2,0.4,0.3c0.1,0.1,0.3,0.1,0.5,0.2s0.4,0.1,0.6,0.1
						c0.2,0.1,0.5,0.1,0.8,0.2c0.3,0.1,0.5,0.2,0.7,0.3c0.2,0.2,0.4,0.3,0.6,0.6c0.1,0.2,0.2,0.5,0.2,0.8s-0.1,0.6-0.2,0.9
						c-0.1,0.2-0.3,0.5-0.6,0.6c-0.2,0.2-0.5,0.3-0.8,0.4s-0.6,0.1-0.9,0.1c-0.3,0-0.6,0-0.9-0.1c-0.3-0.1-0.5-0.2-0.8-0.3
						s-0.4-0.3-0.6-0.4S49.3,9,49.1,8.8L50,8C50,8.1,50.1,8.3,50.3,8.4z"/>
					<path class="st0" d="M56.6,3.5v-2h1.2v2h2v1.1h-2v3.5c0,0.3,0.1,0.6,0.2,0.7C58.2,9,58.4,9,58.7,9C58.9,9,59,9,59.1,9
						c0.1-0.1,0.2-0.1,0.4-0.2l0.4,1c-0.3,0.2-0.5,0.3-0.7,0.3c-0.2,0.1-0.4,0.1-0.6,0.1c-0.2,0-0.5,0-0.7-0.1
						c-0.2-0.1-0.4-0.2-0.6-0.4c-0.2-0.2-0.3-0.4-0.5-0.6s-0.2-0.6-0.2-0.9V4.6h-1.3V3.5H56.6z"/>
					<path class="st0" d="M64.8,1.6c-0.3-0.3-0.7-0.5-1.2-0.5c-0.2,0-0.5,0-0.7,0.1s-0.4,0.2-0.5,0.3C62.2,1.7,62,1.8,61.9,2
						c-0.1,0.2-0.2,0.4-0.3,0.5l-1-0.5c0.2-0.6,0.6-1.1,1.1-1.5C62.2,0.2,62.8,0,63.5,0c0.4,0,0.8,0.1,1.1,0.2
						c0.4,0.1,0.7,0.3,0.9,0.6s0.5,0.5,0.6,0.9c0.1,0.3,0.2,0.7,0.2,1.1c0,0.3,0,0.6-0.1,0.9c-0.1,0.3-0.2,0.5-0.4,0.7
						c-0.1,0.2-0.3,0.4-0.5,0.6s-0.3,0.3-0.5,0.4l-0.5,0.4c-0.1,0.1-0.2,0.2-0.2,0.3c0,0.1-0.1,0.2-0.1,0.3s0,0.2,0,0.4v0.8H63V6.6
						c0-0.2,0-0.4,0-0.6c0-0.2,0.1-0.3,0.1-0.5c0.1-0.1,0.2-0.3,0.3-0.4C63.6,5,63.8,4.8,64,4.7l0.4-0.3c0.1-0.1,0.3-0.2,0.4-0.4
						s0.2-0.3,0.3-0.5s0.1-0.4,0.1-0.7C65.2,2.3,65.1,1.9,64.8,1.6z M63,8.8c0.2-0.2,0.3-0.2,0.6-0.2s0.4,0.1,0.6,0.2
						s0.2,0.3,0.2,0.6s-0.1,0.4-0.2,0.6s-0.3,0.2-0.6,0.2s-0.4-0.1-0.6-0.2s-0.2-0.3-0.2-0.6S62.9,9,63,8.8z"/>
				</g>
			</g>
		</g>
	</g>
</g>
</svg>
