<!-- Generator: Adobe Illustrator 19.2.1, SVG Export Plug-In  -->
<svg version="1.1"
	 xmlns="http://www.w3.org/2000/svg" xmlns:xlink="http://www.w3.org/1999/xlink" xmlns:a="http://ns.adobe.com/AdobeSVGViewerExtensions/3.0/"
	 x="0px" y="0px" width="114.6px" height="10.9px" viewBox="0 0 114.6 10.9" style="enable-background:new 0 0 114.6 10.9;"
	 xml:space="preserve">
<style type="text/css">
	.st0{fill:#222222;}
</style>
<defs>
</defs>
<g>
	<g>
		<g>
			<g>
				<g>
					<path class="st0" d="M6.4,2.1C6,1.8,5.4,1.7,4.9,1.7c-0.5,0-1,0.1-1.5,0.3C3,2.3,2.6,2.6,2.3,2.9C1.9,3.3,1.7,3.7,1.5,4.2
						s-0.3,1-0.3,1.5s0.1,1,0.3,1.5s0.4,0.9,0.7,1.3S3,9.1,3.4,9.3s0.9,0.3,1.5,0.3c0.3,0,0.6,0,0.9-0.1c0.3-0.1,0.6-0.2,0.8-0.3
						C6.8,9.1,7,8.9,7.2,8.8s0.3-0.3,0.5-0.5l0.8,0.8C8.3,9.3,8.1,9.5,7.9,9.7S7.3,10.1,7,10.2s-0.6,0.3-1,0.4
						c-0.4,0.1-0.8,0.1-1.2,0.1c-0.7,0-1.3-0.1-1.9-0.4S1.8,9.7,1.4,9.3c-0.4-0.5-0.8-1-1-1.6S0,6.4,0,5.7s0.1-1.4,0.4-2
						c0.2-0.6,0.6-1.2,1-1.6S2.3,1.3,2.9,1c0.6-0.3,1.2-0.4,2-0.4c0.4,0,0.8,0,1.2,0.1C6.4,0.8,6.7,1,7,1.1c0.3,0.1,0.6,0.3,0.8,0.5
						C8,1.8,8.2,1.9,8.4,2.1L7.6,2.9C7.3,2.6,6.9,2.3,6.4,2.1z"/>
					<path class="st0" d="M13.9,4.2c0.4,0.2,0.8,0.4,1.1,0.7c0.3,0.3,0.5,0.7,0.7,1.1c0.2,0.4,0.3,0.9,0.3,1.3s-0.1,0.9-0.3,1.3
						c-0.2,0.4-0.4,0.8-0.7,1.1c-0.3,0.3-0.7,0.5-1.1,0.7c-0.4,0.2-0.8,0.3-1.3,0.3c-0.5,0-0.9-0.1-1.3-0.3
						c-0.4-0.2-0.8-0.4-1.1-0.7C9.9,9.5,9.6,9.1,9.5,8.7C9.3,8.3,9.2,7.8,9.2,7.4S9.3,6.4,9.5,6c0.2-0.4,0.4-0.8,0.7-1.1
						c0.3-0.3,0.7-0.5,1.1-0.7c0.4-0.2,0.8-0.3,1.3-0.3C13,3.9,13.4,4,13.9,4.2z M13.4,9.5c0.3-0.1,0.5-0.3,0.7-0.5s0.3-0.5,0.4-0.7
						c0.1-0.3,0.2-0.6,0.2-0.9s-0.1-0.6-0.2-0.9c-0.1-0.3-0.2-0.5-0.4-0.7s-0.4-0.4-0.7-0.5S12.9,5,12.5,5c-0.3,0-0.6,0.1-0.9,0.2
						S11.1,5.5,11,5.7s-0.3,0.5-0.4,0.7c-0.1,0.3-0.2,0.6-0.2,0.9s0.1,0.6,0.2,0.9C10.6,8.5,10.8,8.8,11,9s0.4,0.4,0.7,0.5
						s0.6,0.2,0.9,0.2C12.9,9.7,13.2,9.6,13.4,9.5z"/>
					<path class="st0" d="M21.2,4.1c0.3,0.1,0.6,0.3,0.8,0.5s0.4,0.5,0.5,0.8c0.1,0.3,0.2,0.7,0.2,1.1v4.2h-1.2v-4
						c0-0.3,0-0.5-0.1-0.7c-0.1-0.2-0.2-0.4-0.3-0.5c-0.1-0.1-0.3-0.2-0.5-0.3C20.4,5.1,20.2,5,20,5c-0.2,0-0.4,0-0.6,0.1
						c-0.2,0.1-0.3,0.2-0.5,0.3c-0.1,0.1-0.3,0.2-0.4,0.4c-0.1,0.1-0.2,0.3-0.3,0.4v4.5h-1.2V4.1h1.1V5c0.2-0.3,0.4-0.5,0.7-0.7
						c0.3-0.2,0.7-0.3,1.3-0.3C20.6,3.9,20.9,4,21.2,4.1z"/>
					<path class="st0" d="M27,8.5l2-4.4h1.2l-3.2,6.8l-3.2-6.8H25L27,8.5z"/>
					<path class="st0" d="M35.2,4.2c0.4,0.2,0.7,0.4,1,0.7s0.5,0.7,0.7,1.1c0.2,0.4,0.2,0.9,0.2,1.4v0.2c0,0.1,0,0.1,0,0.2h-5.2
						c0,0.2,0.1,0.5,0.2,0.7c0.1,0.2,0.3,0.4,0.5,0.6c0.2,0.2,0.4,0.3,0.7,0.4s0.5,0.2,0.9,0.2c0.4,0,0.8-0.1,1.2-0.3
						C35.6,9.2,35.8,9,36,8.7l0.7,0.8c-0.1,0.2-0.3,0.3-0.5,0.5c-0.2,0.2-0.4,0.3-0.6,0.4s-0.5,0.2-0.7,0.3
						c-0.3,0.1-0.6,0.1-0.9,0.1c-0.5,0-0.9-0.1-1.3-0.3c-0.4-0.2-0.8-0.4-1.1-0.7c-0.3-0.3-0.5-0.7-0.7-1.1
						c-0.2-0.4-0.3-0.9-0.3-1.4c0-0.5,0.1-0.9,0.2-1.3c0.2-0.4,0.4-0.8,0.7-1.1s0.6-0.6,1-0.7C33,4,33.4,3.9,33.9,3.9
						C34.4,3.9,34.8,4,35.2,4.2z M35.8,6.2c-0.1-0.2-0.2-0.4-0.4-0.6c-0.2-0.2-0.4-0.3-0.6-0.4C34.6,5.1,34.3,5,33.9,5
						c-0.3,0-0.6,0.1-0.9,0.2s-0.5,0.3-0.6,0.4C32.3,5.8,32.1,6,32,6.2c-0.1,0.2-0.1,0.4-0.2,0.6h4.1C35.9,6.6,35.9,6.4,35.8,6.2z"
						/>
					<path class="st0" d="M42.4,4.1c0.3,0.1,0.6,0.3,0.8,0.5s0.4,0.5,0.5,0.8c0.1,0.3,0.2,0.7,0.2,1.1v4.2h-1.2v-4
						c0-0.3,0-0.5-0.1-0.7c-0.1-0.2-0.2-0.4-0.3-0.5c-0.1-0.1-0.3-0.2-0.5-0.3C41.7,5.1,41.5,5,41.3,5c-0.2,0-0.4,0-0.6,0.1
						c-0.2,0.1-0.3,0.2-0.5,0.3c-0.1,0.1-0.3,0.2-0.4,0.4c-0.1,0.1-0.2,0.3-0.3,0.4v4.5h-1.2V4.1h1.1V5c0.2-0.3,0.4-0.5,0.7-0.7
						c0.3-0.2,0.7-0.3,1.3-0.3C41.8,3.9,42.1,4,42.4,4.1z"/>
					<path class="st0" d="M46.4,4.1v-2h1.2v2h2v1.1h-2v3.5c0,0.3,0.1,0.6,0.2,0.7c0.2,0.2,0.4,0.3,0.7,0.3c0.2,0,0.3,0,0.4-0.1
						s0.2-0.1,0.4-0.2l0.4,1c-0.3,0.2-0.5,0.3-0.7,0.3c-0.2,0.1-0.4,0.1-0.6,0.1c-0.2,0-0.5,0-0.7-0.1c-0.2-0.1-0.4-0.2-0.6-0.4
						s-0.3-0.4-0.5-0.6c-0.1-0.3-0.2-0.6-0.2-0.9V5.2h-1.3V4.1H46.4z"/>
					<path class="st0" d="M51.2,1.5c0.2-0.2,0.3-0.2,0.6-0.2c0.2,0,0.4,0.1,0.6,0.2c0.2,0.2,0.2,0.3,0.2,0.6s-0.1,0.4-0.2,0.6
						c-0.2,0.2-0.3,0.2-0.6,0.2c-0.2,0-0.4-0.1-0.6-0.2C51.1,2.4,51,2.3,51,2S51.1,1.6,51.2,1.5z M52.4,4.1v6.5h-1.2V4.1H52.4z"/>
					<path class="st0" d="M58.6,4.2c0.4,0.2,0.8,0.4,1.1,0.7C60,5.2,60.2,5.6,60.4,6c0.2,0.4,0.3,0.9,0.3,1.3s-0.1,0.9-0.3,1.3
						c-0.2,0.4-0.4,0.8-0.7,1.1c-0.3,0.3-0.7,0.5-1.1,0.7c-0.4,0.2-0.8,0.3-1.3,0.3s-0.9-0.1-1.3-0.3c-0.4-0.2-0.8-0.4-1.1-0.7
						c-0.3-0.3-0.5-0.7-0.7-1.1c-0.2-0.4-0.3-0.9-0.3-1.3S54,6.4,54.2,6c0.2-0.4,0.4-0.8,0.7-1.1c0.3-0.3,0.7-0.5,1.1-0.7
						c0.4-0.2,0.8-0.3,1.3-0.3S58.2,4,58.6,4.2z M58.2,9.5c0.3-0.1,0.5-0.3,0.7-0.5s0.3-0.5,0.4-0.7s0.2-0.6,0.2-0.9
						s-0.1-0.6-0.2-0.9S59,5.9,58.8,5.7s-0.4-0.4-0.7-0.5C57.9,5.1,57.6,5,57.3,5s-0.6,0.1-0.9,0.2s-0.5,0.3-0.7,0.5
						s-0.3,0.5-0.4,0.7c-0.1,0.3-0.2,0.6-0.2,0.9s0.1,0.6,0.2,0.9c0.1,0.3,0.2,0.5,0.4,0.7s0.4,0.4,0.7,0.5s0.6,0.2,0.9,0.2
						S57.9,9.6,58.2,9.5z"/>
					<path class="st0" d="M66,4.1c0.3,0.1,0.6,0.3,0.8,0.5s0.4,0.5,0.5,0.8c0.1,0.3,0.2,0.7,0.2,1.1v4.2h-1.2v-4
						c0-0.3,0-0.5-0.1-0.7c-0.1-0.2-0.2-0.4-0.3-0.5c-0.1-0.1-0.3-0.2-0.5-0.3C65.2,5.1,65,5,64.8,5c-0.2,0-0.4,0-0.6,0.1
						c-0.2,0.1-0.3,0.2-0.5,0.3c-0.1,0.1-0.3,0.2-0.4,0.4c-0.1,0.1-0.2,0.3-0.3,0.4v4.5h-1.2V4.1H63V5c0.2-0.3,0.4-0.5,0.7-0.7
						s0.7-0.3,1.3-0.3C65.4,3.9,65.7,4,66,4.1z"/>
					<path class="st0" d="M73.1,4.2c0.4,0.1,0.6,0.3,0.9,0.5s0.4,0.5,0.5,0.8c0.1,0.3,0.2,0.6,0.2,0.9v4.3h-1.1V9.7
						c-0.2,0.3-0.6,0.6-0.9,0.8c-0.4,0.2-0.8,0.3-1.2,0.3c-0.3,0-0.6,0-0.9-0.1c-0.3-0.1-0.5-0.2-0.8-0.4c-0.2-0.2-0.4-0.4-0.6-0.7
						c-0.1-0.3-0.2-0.6-0.2-0.9c0-0.3,0.1-0.6,0.2-0.9s0.3-0.5,0.5-0.7s0.5-0.3,0.8-0.4c0.3-0.1,0.7-0.2,1-0.2
						c0.4,0,0.8,0.1,1.1,0.2c0.3,0.1,0.6,0.2,0.8,0.4V6.6c0-0.3-0.1-0.6-0.2-0.8c-0.1-0.2-0.3-0.4-0.4-0.5c-0.2-0.1-0.4-0.2-0.5-0.2
						c-0.2,0-0.4,0-0.5,0c-0.3,0-0.6,0.1-1,0.2s-0.7,0.2-1,0.4l-0.5-1c0.3-0.2,0.6-0.3,1-0.4c0.4-0.1,0.9-0.2,1.4-0.2
						C72.3,3.9,72.7,4,73.1,4.2z M72.7,9.4C73,9.2,73.3,9,73.5,8.7V7.8c-0.2-0.1-0.4-0.2-0.7-0.3c-0.3-0.1-0.6-0.1-1-0.1
						c-0.5,0-0.9,0.1-1.2,0.3c-0.3,0.2-0.4,0.5-0.4,0.9c0,0.2,0,0.4,0.1,0.5c0.1,0.1,0.2,0.3,0.3,0.4c0.1,0.1,0.3,0.2,0.5,0.2
						c0.2,0,0.4,0.1,0.5,0.1C72,9.7,72.4,9.6,72.7,9.4z"/>
					<path class="st0" d="M77.9,0v10.6h-1.2V0H77.9z"/>
					<path class="st0" d="M88.9,9.9c-0.2,0.1-0.4,0.3-0.6,0.4s-0.5,0.2-0.7,0.3s-0.6,0.1-0.9,0.1c-0.5,0-0.9-0.1-1.3-0.3
						c-0.4-0.2-0.8-0.4-1.1-0.7c-0.3-0.3-0.5-0.7-0.7-1.1c-0.2-0.4-0.3-0.9-0.3-1.3s0.1-0.9,0.3-1.3c0.2-0.4,0.4-0.8,0.7-1.1
						s0.7-0.6,1.1-0.7c0.4-0.2,0.8-0.3,1.3-0.3c0.3,0,0.6,0,0.9,0.1s0.5,0.2,0.7,0.3c0.2,0.1,0.4,0.2,0.6,0.4
						C89,4.8,89.2,5,89.3,5.1l-0.8,0.7c-0.2-0.2-0.4-0.4-0.7-0.5C87.5,5.1,87.1,5,86.7,5c-0.3,0-0.6,0.1-0.9,0.2s-0.5,0.3-0.7,0.5
						s-0.3,0.5-0.4,0.7c-0.1,0.3-0.2,0.6-0.2,0.9s0.1,0.6,0.2,0.9c0.1,0.3,0.2,0.5,0.4,0.7s0.4,0.4,0.7,0.5s0.6,0.2,0.9,0.2
						c0.4,0,0.8-0.1,1.2-0.3c0.3-0.2,0.6-0.4,0.7-0.6l0.8,0.8C89.2,9.7,89.1,9.8,88.9,9.9z"/>
					<path class="st0" d="M94.7,4.2c0.4,0.2,0.8,0.4,1.1,0.7c0.3,0.3,0.5,0.7,0.7,1.1c0.2,0.4,0.3,0.9,0.3,1.3s-0.1,0.9-0.3,1.3
						c-0.2,0.4-0.4,0.8-0.7,1.1c-0.3,0.3-0.7,0.5-1.1,0.7c-0.4,0.2-0.8,0.3-1.3,0.3c-0.5,0-0.9-0.1-1.3-0.3
						c-0.4-0.2-0.8-0.4-1.1-0.7c-0.3-0.3-0.5-0.7-0.7-1.1C90.1,8.3,90,7.8,90,7.4s0.1-0.9,0.3-1.3c0.2-0.4,0.4-0.8,0.7-1.1
						c0.3-0.3,0.7-0.5,1.1-0.7c0.4-0.2,0.8-0.3,1.3-0.3C93.9,3.9,94.3,4,94.7,4.2z M94.3,9.5c0.3-0.1,0.5-0.3,0.7-0.5
						s0.3-0.5,0.4-0.7s0.2-0.6,0.2-0.9s-0.1-0.6-0.2-0.9s-0.2-0.5-0.4-0.7s-0.4-0.4-0.7-0.5C94,5.1,93.7,5,93.4,5
						c-0.3,0-0.6,0.1-0.9,0.2S92,5.5,91.8,5.7s-0.3,0.5-0.4,0.7c-0.1,0.3-0.2,0.6-0.2,0.9s0.1,0.6,0.2,0.9c0.1,0.3,0.2,0.5,0.4,0.7
						s0.4,0.4,0.7,0.5s0.6,0.2,0.9,0.2C93.7,9.7,94,9.6,94.3,9.5z"/>
					<path class="st0" d="M98.8,9c0.1,0.1,0.3,0.2,0.4,0.3c0.2,0.1,0.4,0.2,0.6,0.3s0.4,0.1,0.7,0.1c0.1,0,0.3,0,0.5,0
						c0.2,0,0.3-0.1,0.4-0.1c0.1-0.1,0.2-0.2,0.3-0.3c0.1-0.1,0.1-0.2,0.1-0.4c0-0.1,0-0.3-0.1-0.4c-0.1-0.1-0.2-0.2-0.4-0.3
						S101,8,100.8,8c-0.2,0-0.3-0.1-0.5-0.1c-0.2,0-0.5-0.1-0.7-0.2c-0.3-0.1-0.5-0.2-0.8-0.3S98.4,7,98.2,6.8
						C98.1,6.5,98,6.2,98,5.9c0-0.3,0.1-0.5,0.2-0.7s0.3-0.4,0.5-0.6c0.2-0.2,0.5-0.3,0.7-0.4c0.3-0.1,0.6-0.2,1-0.2
						c0.6,0,1,0.1,1.4,0.3c0.4,0.2,0.7,0.4,1,0.7L102,5.7c-0.2-0.2-0.4-0.3-0.7-0.5c-0.3-0.2-0.6-0.2-1-0.2c-0.4,0-0.7,0.1-0.9,0.3
						c-0.2,0.2-0.3,0.4-0.3,0.6c0,0.1,0,0.3,0.1,0.4c0.1,0.1,0.2,0.2,0.4,0.3s0.3,0.1,0.5,0.2c0.2,0.1,0.4,0.1,0.6,0.1
						c0.2,0.1,0.5,0.1,0.8,0.2c0.3,0.1,0.5,0.2,0.7,0.4s0.4,0.3,0.6,0.6s0.2,0.5,0.2,0.8c0,0.3-0.1,0.6-0.2,0.9s-0.3,0.5-0.6,0.6
						c-0.2,0.2-0.5,0.3-0.8,0.4c-0.3,0.1-0.6,0.1-0.9,0.1c-0.3,0-0.6,0-0.9-0.1c-0.3-0.1-0.5-0.2-0.8-0.3s-0.4-0.3-0.6-0.4
						c-0.2-0.2-0.3-0.3-0.5-0.5l0.8-0.8C98.5,8.8,98.6,8.9,98.8,9z"/>
					<path class="st0" d="M105.1,4.1v-2h1.2v2h2v1.1h-2v3.5c0,0.3,0.1,0.6,0.2,0.7c0.2,0.2,0.4,0.3,0.7,0.3c0.2,0,0.3,0,0.4-0.1
						c0.1-0.1,0.2-0.1,0.4-0.2l0.4,1c-0.3,0.2-0.5,0.3-0.7,0.3c-0.2,0.1-0.4,0.1-0.6,0.1c-0.2,0-0.5,0-0.7-0.1
						c-0.2-0.1-0.4-0.2-0.6-0.4s-0.3-0.4-0.5-0.6c-0.1-0.3-0.2-0.6-0.2-0.9V5.2h-1.3V4.1H105.1z"/>
					<path class="st0" d="M110.4,9c0.1,0.1,0.3,0.2,0.4,0.3c0.2,0.1,0.4,0.2,0.6,0.3s0.4,0.1,0.7,0.1c0.1,0,0.3,0,0.5,0
						c0.2,0,0.3-0.1,0.4-0.1c0.1-0.1,0.2-0.2,0.3-0.3c0.1-0.1,0.1-0.2,0.1-0.4c0-0.1,0-0.3-0.1-0.4c-0.1-0.1-0.2-0.2-0.4-0.3
						S112.7,8,112.5,8c-0.2,0-0.3-0.1-0.5-0.1c-0.2,0-0.5-0.1-0.7-0.2c-0.3-0.1-0.5-0.2-0.8-0.3S110,7,109.9,6.8
						c-0.2-0.2-0.3-0.5-0.3-0.9c0-0.3,0.1-0.5,0.2-0.7s0.3-0.4,0.5-0.6c0.2-0.2,0.5-0.3,0.7-0.4c0.3-0.1,0.6-0.2,1-0.2
						c0.6,0,1,0.1,1.4,0.3c0.4,0.2,0.7,0.4,1,0.7l-0.8,0.8c-0.2-0.2-0.4-0.3-0.7-0.5c-0.3-0.2-0.6-0.2-1-0.2c-0.4,0-0.7,0.1-0.9,0.3
						c-0.2,0.2-0.3,0.4-0.3,0.6c0,0.1,0,0.3,0.1,0.4c0.1,0.1,0.2,0.2,0.4,0.3s0.3,0.1,0.5,0.2c0.2,0.1,0.4,0.1,0.6,0.1
						c0.2,0.1,0.5,0.1,0.8,0.2c0.3,0.1,0.5,0.2,0.7,0.4s0.4,0.3,0.6,0.6s0.2,0.5,0.2,0.8c0,0.3-0.1,0.6-0.2,0.9s-0.3,0.5-0.6,0.6
						c-0.2,0.2-0.5,0.3-0.8,0.4c-0.3,0.1-0.6,0.1-0.9,0.1c-0.3,0-0.6,0-0.9-0.1c-0.3-0.1-0.5-0.2-0.8-0.3s-0.4-0.3-0.6-0.4
						c-0.2-0.2-0.3-0.3-0.5-0.5l0.8-0.8C110.2,8.8,110.3,8.9,110.4,9z"/>
				</g>
			</g>
		</g>
	</g>
</g>
</svg>
