<!-- Generator: Adobe Illustrator 19.2.1, SVG Export Plug-In  -->
<svg version="1.1"
	 xmlns="http://www.w3.org/2000/svg" xmlns:xlink="http://www.w3.org/1999/xlink" xmlns:a="http://ns.adobe.com/AdobeSVGViewerExtensions/3.0/"
	 x="0px" y="0px" width="125px" height="125px" viewBox="0 0 125 125" style="enable-background:new 0 0 125 125;"
	 xml:space="preserve">
<style type="text/css">
	.st0{fill:#FFFFFF;}
	.st1{fill:#FFFFFF;stroke:#762AF3;stroke-linecap:round;stroke-linejoin:round;stroke-miterlimit:10;}
	.st2{fill:#752AF3;}
	.st3{fill:none;stroke:#7629F4;stroke-width:1.248;stroke-linecap:round;stroke-linejoin:round;stroke-miterlimit:10;}
	.st4{fill:#7629F4;}
	.st5{fill:#FFFFFF;stroke:#7629F4;stroke-width:1.248;stroke-linecap:round;stroke-linejoin:round;stroke-miterlimit:10;}
	.st6{fill:#F5F5F5;stroke:#7629F4;stroke-width:1.248;stroke-linecap:round;stroke-linejoin:round;stroke-miterlimit:10;}
</style>
<defs>
</defs>
<g>
	<circle class="st0" cx="62.5" cy="62.5" r="62.5"/>
	<g>
		<line class="st1" x1="15.9" y1="91.9" x2="101" y2="63.5"/>
		<line class="st1" x1="109.8" y1="47.9" x2="22.8" y2="76.9"/>
		<polygon class="st2" points="30.5,87 88.7,67.6 88.7,54.9 30.5,74.3 		"/>
		<line class="st3" x1="44" y1="96" x2="74.1" y2="85.9"/>
		<g>
			<polygon class="st4" points="69.3,94.5 78.3,84.8 69.3,80.1 			"/>
		</g>
		<g>
			<path class="st5" d="M66.2,24.8L82,50.9L50.5,61.4L66.2,24.8z"/>
			<path class="st6" d="M66.2,45.1l-1.9-8.8l3.9-1.3L66.2,45.1z"/>
			<path class="st6" d="M67.8,49.2c0-1.3-0.7-2.1-1.6-1.8c-0.9,0.3-1.6,1.6-1.6,2.8c0,1.3,0.7,2.1,1.6,1.8
				C67.1,51.7,67.8,50.5,67.8,49.2z"/>
		</g>
		<line class="st1" x1="30.5" y1="67.6" x2="30.5" y2="56.4"/>
		<line class="st1" x1="33.3" y1="66.6" x2="33.3" y2="55.4"/>
		<line class="st1" x1="88.1" y1="48.7" x2="88.1" y2="37.5"/>
	</g>
</g>
</svg>
