<!-- Generator: Adobe Illustrator 19.2.1, SVG Export Plug-In  -->
<svg version="1.1"
	 xmlns="http://www.w3.org/2000/svg" xmlns:xlink="http://www.w3.org/1999/xlink" xmlns:a="http://ns.adobe.com/AdobeSVGViewerExtensions/3.0/"
	 x="0px" y="0px" width="136.6px" height="96.8px" viewBox="0 0 136.6 96.8" style="enable-background:new 0 0 136.6 96.8;"
	 xml:space="preserve">
<style type="text/css">
	.st0{fill:#752AF3;stroke:#FFFFFF;stroke-width:1.2475;stroke-linecap:round;stroke-linejoin:round;stroke-miterlimit:10;}
	.st1{fill:#752AF3;}
	.st2{fill:#FFFFFF;}
	.st3{fill:none;stroke:#FFFFFF;stroke-linecap:round;stroke-linejoin:round;}
	.st4{fill:none;stroke:#FFFFFF;stroke-linecap:round;stroke-linejoin:round;stroke-dasharray:0.5143,3.0857;}
	.st5{fill:none;stroke:#FFFFFF;stroke-width:1.2475;stroke-linecap:round;stroke-linejoin:round;stroke-miterlimit:10;}
	.st6{fill:#FFFFFF;stroke:#762AF3;stroke-miterlimit:10;}
	.st7{fill:none;stroke:#762AF3;stroke-miterlimit:10;}
</style>
<defs>
</defs>
<g>
	<g>
		<g>
			<polygon class="st0" points="8.6,53.8 59.7,79.4 59.7,92.1 8.6,66.6 			"/>
			<polyline class="st0" points="59.7,79.4 135.4,54 135.4,66.8 59.7,92.1 			"/>
			<g>
				<path class="st1" d="M59.7,80c-0.1,0-0.2,0-0.3-0.1l-51-25.5C8.1,54.3,8,54.1,8,53.8c0-0.3,0.2-0.5,0.4-0.5l75.7-25.3
					c0.1,0,0.1,0,0.2,0c0.1,0,0.2,0,0.3,0.1l51,25.5c0.2,0.1,0.4,0.3,0.3,0.6s-0.2,0.5-0.4,0.5L59.9,80C59.8,80,59.7,80,59.7,80z"/>
				<g>
					<path class="st2" d="M84.4,28.5l51,25.5L59.7,79.4l-51-25.5L84.4,28.5 M84.4,27.3c-0.1,0-0.3,0-0.4,0.1L8.2,52.7
						c-0.5,0.2-0.8,0.6-0.8,1.1c0,0.5,0.2,1,0.7,1.2l51,25.5c0.2,0.1,0.4,0.1,0.6,0.1c0.1,0,0.3,0,0.4-0.1l75.7-25.3
						c0.5-0.2,0.8-0.6,0.8-1.1c0-0.5-0.2-1-0.7-1.2l-51-25.5C84.7,27.3,84.5,27.3,84.4,27.3L84.4,27.3z"/>
				</g>
			</g>
		</g>
	</g>
	<polygon class="st0" points="59.7,79.4 67.7,83.4 67.7,96.1 59.7,92.1 	"/>
	<polygon class="st0" points="0.6,49.7 8.6,53.7 8.6,66.5 0.6,62.5 	"/>
	<g>
		<g>
			<line class="st3" x1="13" y1="64.8" x2="13.2" y2="64.9"/>
			<line class="st4" x1="16" y1="66.3" x2="53.3" y2="84.9"/>
			<line class="st3" x1="54.6" y1="85.6" x2="54.9" y2="85.7"/>
		</g>
	</g>
	<g>
		<g>
			<line class="st3" x1="13" y1="62.5" x2="13.2" y2="62.6"/>
			<line class="st4" x1="16" y1="64" x2="53.3" y2="82.6"/>
			<line class="st3" x1="54.6" y1="83.3" x2="54.9" y2="83.4"/>
		</g>
	</g>
	<line class="st5" x1="102.9" y1="64.8" x2="74.3" y2="50.5"/>
	<line class="st5" x1="89.2" y1="69.3" x2="68" y2="58.8"/>
</g>
<polygon class="st6" points="40.6,40.9 82.4,44.3 84.3,36.3 42.4,32.9 "/>
<path class="st7" d="M69.1,6.5c0,0,19.8,8.7,22.1,34"/>
<path class="st7" d="M41.2,1.2c0,0,17.8,0.6,25.6,11.2"/>
<path class="st7" d="M82.8,8.2c2,2.2,4,4.9,5.6,8.3"/>
<polygon class="st6" points="31.8,29.1 73.8,29.7 75.2,21.6 33.2,20.9 "/>
<polygon class="st6" points="1,10.2 35.1,7.2 35.5,0.5 1.4,3.5 "/>
</svg>
