<svg id="Layer_1" data-name="Layer 1" xmlns="http://www.w3.org/2000/svg" viewBox="0 0 176.45 86"><defs><style>.cls-1{fill:#7148ec;}.cls-2,.cls-4,.cls-5{fill:none;}.cls-2,.cls-3,.cls-4,.cls-5{stroke:#7148ec;}.cls-2,.cls-3,.cls-5{stroke-miterlimit:10;}.cls-2,.cls-4{stroke-width:3px;}.cls-3{fill:#fff;}.cls-3,.cls-5{stroke-width:2px;}.cls-4{stroke-linecap:round;stroke-linejoin:round;}</style></defs><title>Untitled-2</title><circle class="cls-1" cx="130.23" cy="85" r="1"/><circle class="cls-1" cx="116.23" cy="85" r="1"/><circle class="cls-1" cx="102.23" cy="85" r="1"/><circle class="cls-1" cx="88.23" cy="85" r="1"/><circle class="cls-1" cx="74.23" cy="85" r="1"/><circle class="cls-1" cx="60.23" cy="85" r="1"/><circle class="cls-1" cx="46.23" cy="85" r="1"/><circle class="cls-1" cx="130.23" cy="71" r="1"/><circle class="cls-1" cx="116.23" cy="71" r="1"/><circle class="cls-1" cx="102.23" cy="71" r="1"/><circle class="cls-1" cx="88.23" cy="71" r="1"/><circle class="cls-1" cx="74.23" cy="71" r="1"/><circle class="cls-1" cx="46.23" cy="71" r="1"/><circle class="cls-1" cx="60.23" cy="71" r="1"/><circle class="cls-1" cx="130.23" cy="57" r="1"/><circle class="cls-1" cx="116.23" cy="57" r="1"/><circle class="cls-1" cx="102.23" cy="57" r="1"/><circle class="cls-1" cx="88.23" cy="57" r="1"/><circle class="cls-1" cx="74.23" cy="57" r="1"/><circle class="cls-1" cx="60.23" cy="57" r="1"/><circle class="cls-1" cx="46.23" cy="57" r="1"/><circle class="cls-1" cx="130.23" cy="43" r="1"/><circle class="cls-1" cx="116.23" cy="43" r="1"/><circle class="cls-1" cx="102.23" cy="43" r="1"/><circle class="cls-1" cx="88.23" cy="43" r="1"/><circle class="cls-1" cx="74.23" cy="43" r="1"/><circle class="cls-1" cx="60.23" cy="43" r="1"/><circle class="cls-1" cx="46.23" cy="43" r="1"/><circle class="cls-1" cx="130.23" cy="29" r="1"/><circle class="cls-1" cx="116.23" cy="29" r="1"/><circle class="cls-1" cx="102.23" cy="29" r="1"/><circle class="cls-1" cx="88.23" cy="29" r="1"/><circle class="cls-1" cx="74.23" cy="29" r="1"/><circle class="cls-1" cx="60.23" cy="29" r="1"/><circle class="cls-1" cx="46.23" cy="29" r="1"/><circle class="cls-1" cx="130.23" cy="15" r="1"/><circle class="cls-1" cx="116.23" cy="15" r="1"/><circle class="cls-1" cx="102.23" cy="15" r="1"/><circle class="cls-1" cx="88.23" cy="15" r="1"/><circle class="cls-1" cx="74.23" cy="15" r="1"/><circle class="cls-1" cx="60.23" cy="15" r="1"/><circle class="cls-1" cx="46.23" cy="15" r="1"/><circle class="cls-1" cx="130.23" cy="1" r="1"/><circle class="cls-1" cx="116.23" cy="1" r="1"/><circle class="cls-1" cx="102.23" cy="1" r="1"/><circle class="cls-1" cx="88.23" cy="1" r="1"/><circle class="cls-1" cx="74.23" cy="1" r="1"/><circle class="cls-1" cx="60.23" cy="1" r="1"/><circle class="cls-1" cx="46.23" cy="1" r="1"/><line class="cls-2" x1="88.22" y1="70.99" x2="172.22" y2="70.99"/><line class="cls-2" x1="61.22" y1="70.99" x2="4.22" y2="70.99"/><path class="cls-3" d="M4.23,67.78A3.22,3.22,0,1,0,7.45,71,3.23,3.23,0,0,0,4.23,67.78Z"/><path class="cls-3" d="M172.23,67.78A3.22,3.22,0,1,0,175.45,71,3.23,3.23,0,0,0,172.23,67.78Z"/><path class="cls-4" d="M104.95,65.46A28,28,0,1,0,88.22,71"/><line class="cls-5" x1="88.22" y1="43" x2="74.22" y2="15"/><line class="cls-5" x1="88.22" y1="43" x2="116.22" y2="15"/><line class="cls-5" x1="88.22" y1="42.96" x2="116.22" y2="42.96"/><path class="cls-3" d="M116.23,11.78A3.22,3.22,0,1,0,119.45,15,3.23,3.23,0,0,0,116.23,11.78Z"/><path class="cls-3" d="M74.23,11.78A3.22,3.22,0,1,0,77.45,15,3.23,3.23,0,0,0,74.23,11.78Z"/><path class="cls-3" d="M116.23,39.73A3.22,3.22,0,1,0,119.45,43,3.23,3.23,0,0,0,116.23,39.73Z"/></svg>