<svg id="Layer_1" data-name="Layer 1" xmlns="http://www.w3.org/2000/svg" viewBox="0 0 135 86"><defs><style>.cls-1{fill:#7148ec;}.cls-2{fill:none;stroke-width:3px;}.cls-2,.cls-3{stroke:#7148ec;stroke-miterlimit:10;}.cls-3{fill:#fff;stroke-width:2px;}</style></defs><title>Untitled-2</title><circle class="cls-1" cx="46.22" cy="85" r="1"/><circle class="cls-1" cx="60.22" cy="85" r="1"/><circle class="cls-1" cx="74.22" cy="85" r="1"/><circle class="cls-1" cx="88.22" cy="85" r="1"/><circle class="cls-1" cx="102.22" cy="85" r="1"/><circle class="cls-1" cx="116.22" cy="85" r="1"/><circle class="cls-1" cx="130.22" cy="85" r="1"/><circle class="cls-1" cx="46.22" cy="71" r="1"/><circle class="cls-1" cx="60.22" cy="71" r="1"/><circle class="cls-1" cx="74.22" cy="71" r="1"/><circle class="cls-1" cx="88.22" cy="71" r="1"/><circle class="cls-1" cx="102.22" cy="71" r="1"/><circle class="cls-1" cx="130.22" cy="71" r="1"/><circle class="cls-1" cx="116.22" cy="71" r="1"/><circle class="cls-1" cx="46.22" cy="57" r="1"/><circle class="cls-1" cx="60.22" cy="57" r="1"/><circle class="cls-1" cx="74.22" cy="57" r="1"/><circle class="cls-1" cx="88.22" cy="57" r="1"/><circle class="cls-1" cx="102.22" cy="57" r="1"/><circle class="cls-1" cx="116.22" cy="57" r="1"/><circle class="cls-1" cx="130.22" cy="57" r="1"/><circle class="cls-1" cx="46.22" cy="43" r="1"/><circle class="cls-1" cx="60.22" cy="43" r="1"/><circle class="cls-1" cx="74.22" cy="43" r="1"/><circle class="cls-1" cx="88.22" cy="43" r="1"/><circle class="cls-1" cx="102.22" cy="43" r="1"/><circle class="cls-1" cx="116.22" cy="43" r="1"/><circle class="cls-1" cx="130.22" cy="43" r="1"/><circle class="cls-1" cx="46.22" cy="29" r="1"/><circle class="cls-1" cx="60.22" cy="29" r="1"/><circle class="cls-1" cx="74.22" cy="29" r="1"/><circle class="cls-1" cx="88.22" cy="29" r="1"/><circle class="cls-1" cx="102.22" cy="29" r="1"/><circle class="cls-1" cx="116.22" cy="29" r="1"/><circle class="cls-1" cx="130.22" cy="29" r="1"/><circle class="cls-1" cx="46.22" cy="15" r="1"/><circle class="cls-1" cx="60.22" cy="15" r="1"/><circle class="cls-1" cx="74.22" cy="15" r="1"/><circle class="cls-1" cx="88.22" cy="15" r="1"/><circle class="cls-1" cx="102.22" cy="15" r="1"/><circle class="cls-1" cx="116.22" cy="15" r="1"/><circle class="cls-1" cx="130.22" cy="15" r="1"/><circle class="cls-1" cx="46.22" cy="1" r="1"/><circle class="cls-1" cx="60.22" cy="1" r="1"/><circle class="cls-1" cx="74.22" cy="1" r="1"/><circle class="cls-1" cx="88.22" cy="1" r="1"/><circle class="cls-1" cx="102.22" cy="1" r="1"/><circle class="cls-1" cx="116.22" cy="1" r="1"/><circle class="cls-1" cx="130.22" cy="1" r="1"/><line class="cls-2" x1="130.22" y1="70.99" x2="4.22" y2="70.99"/><line class="cls-2" x1="130.22" y1="57" x2="102.22" y2="57"/><path class="cls-3" d="M4.22,67.78A3.22,3.22,0,1,1,1,71,3.23,3.23,0,0,1,4.22,67.78Z"/><line class="cls-2" x1="102.22" y1="57" x2="102.22" y2="43"/><path class="cls-3" d="M102.22,53.78A3.22,3.22,0,1,1,99,57,3.23,3.23,0,0,1,102.22,53.78Z"/><line class="cls-2" x1="102.22" y1="43" x2="88.22" y2="43"/><line class="cls-2" x1="74.22" y1="29" x2="60.23" y2="29"/><path class="cls-3" d="M102.22,39.78A3.22,3.22,0,1,1,99,43,3.23,3.23,0,0,1,102.22,39.78Z"/><line class="cls-2" x1="88.22" y1="43" x2="80.21" y2="51.01"/><line class="cls-2" x1="74.22" y1="57" x2="74.22" y2="35.98"/><path class="cls-3" d="M74.22,53.78A3.22,3.22,0,1,1,71,57,3.23,3.23,0,0,1,74.22,53.78Z"/><path class="cls-3" d="M74.22,25.78A3.22,3.22,0,1,1,71,29,3.23,3.23,0,0,1,74.22,25.78Z"/><path class="cls-3" d="M130.22,67.78A3.22,3.22,0,1,1,127,71,3.23,3.23,0,0,1,130.22,67.78Z"/><path class="cls-3" d="M130.22,53.78A3.22,3.22,0,1,1,127,57,3.23,3.23,0,0,1,130.22,53.78Z"/><path class="cls-3" d="M88.22,39.78A3.22,3.22,0,1,1,85,43,3.23,3.23,0,0,1,88.22,39.78Z"/><path class="cls-3" d="M60.22,25.78A3.22,3.22,0,1,1,57,29,3.23,3.23,0,0,1,60.22,25.78Z"/></svg>