<svg id="Layer_1" data-name="Layer 1" xmlns="http://www.w3.org/2000/svg" viewBox="0 0 134.45 89.22"><defs><style>.cls-1{fill:#7148ec;}.cls-2{fill:none;stroke-width:3px;}.cls-2,.cls-3{stroke:#7148ec;stroke-miterlimit:10;}.cls-3{fill:#fff;stroke-width:2px;}</style></defs><title>Untitled-2</title><circle class="cls-1" cx="130.23" cy="85" r="1"/><circle class="cls-1" cx="116.23" cy="85" r="1"/><circle class="cls-1" cx="102.23" cy="85" r="1"/><circle class="cls-1" cx="88.23" cy="85" r="1"/><circle class="cls-1" cx="74.23" cy="85" r="1"/><circle class="cls-1" cx="60.23" cy="85" r="1"/><circle class="cls-1" cx="46.23" cy="85" r="1"/><circle class="cls-1" cx="130.23" cy="71" r="1"/><circle class="cls-1" cx="116.23" cy="71" r="1"/><circle class="cls-1" cx="102.23" cy="71" r="1"/><circle class="cls-1" cx="88.23" cy="71" r="1"/><circle class="cls-1" cx="74.23" cy="71" r="1"/><circle class="cls-1" cx="46.23" cy="71" r="1"/><circle class="cls-1" cx="60.23" cy="71" r="1"/><circle class="cls-1" cx="130.23" cy="57" r="1"/><circle class="cls-1" cx="116.23" cy="57" r="1"/><circle class="cls-1" cx="102.23" cy="57" r="1"/><circle class="cls-1" cx="88.23" cy="57" r="1"/><circle class="cls-1" cx="74.23" cy="57" r="1"/><circle class="cls-1" cx="60.23" cy="57" r="1"/><circle class="cls-1" cx="46.23" cy="57" r="1"/><circle class="cls-1" cx="130.23" cy="43" r="1"/><circle class="cls-1" cx="116.23" cy="43" r="1"/><circle class="cls-1" cx="102.23" cy="43" r="1"/><circle class="cls-1" cx="88.23" cy="43" r="1"/><circle class="cls-1" cx="74.23" cy="43" r="1"/><circle class="cls-1" cx="60.23" cy="43" r="1"/><circle class="cls-1" cx="46.23" cy="43" r="1"/><circle class="cls-1" cx="130.23" cy="29" r="1"/><circle class="cls-1" cx="116.23" cy="29" r="1"/><circle class="cls-1" cx="102.23" cy="29" r="1"/><circle class="cls-1" cx="88.23" cy="29" r="1"/><circle class="cls-1" cx="74.23" cy="29" r="1"/><circle class="cls-1" cx="60.23" cy="29" r="1"/><circle class="cls-1" cx="46.23" cy="29" r="1"/><circle class="cls-1" cx="130.23" cy="15" r="1"/><circle class="cls-1" cx="116.23" cy="15" r="1"/><circle class="cls-1" cx="102.23" cy="15" r="1"/><circle class="cls-1" cx="88.23" cy="15" r="1"/><circle class="cls-1" cx="74.23" cy="15" r="1"/><circle class="cls-1" cx="60.23" cy="15" r="1"/><circle class="cls-1" cx="46.23" cy="15" r="1"/><circle class="cls-1" cx="130.23" cy="1" r="1"/><circle class="cls-1" cx="116.23" cy="1" r="1"/><circle class="cls-1" cx="102.23" cy="1" r="1"/><circle class="cls-1" cx="88.23" cy="1" r="1"/><circle class="cls-1" cx="74.23" cy="1" r="1"/><circle class="cls-1" cx="60.23" cy="1" r="1"/><circle class="cls-1" cx="46.23" cy="1" r="1"/><line class="cls-2" x1="88.22" y1="43" x2="116.22" y2="29"/><line class="cls-2" x1="116.22" y1="29" x2="130.22" y2="29"/><line class="cls-2" x1="74.22" y1="84.99" x2="88.22" y2="43"/><line class="cls-2" x1="74.22" y1="84.99" x2="60.22" y2="29"/><line class="cls-2" x1="46.22" y1="71" x2="60.22" y2="29"/><path class="cls-3" d="M88.23,39.78A3.22,3.22,0,1,0,91.45,43,3.23,3.23,0,0,0,88.23,39.78Z"/><path class="cls-3" d="M74.23,81.78A3.22,3.22,0,1,0,77.45,85,3.23,3.23,0,0,0,74.23,81.78Z"/><path class="cls-3" d="M116.23,25.78A3.22,3.22,0,1,0,119.45,29,3.23,3.23,0,0,0,116.23,25.78Z"/><path class="cls-3" d="M60.23,25.78A3.22,3.22,0,1,0,63.45,29,3.23,3.23,0,0,0,60.23,25.78Z"/><line class="cls-2" x1="59.23" y1="71" x2="130.22" y2="71"/><line class="cls-2" x1="4.22" y1="71" x2="46.22" y2="71"/><path class="cls-3" d="M46.23,67.78A3.22,3.22,0,1,0,49.45,71,3.23,3.23,0,0,0,46.23,67.78Z"/><path class="cls-3" d="M4.23,67.78A3.22,3.22,0,1,0,7.45,71,3.23,3.23,0,0,0,4.23,67.78Z"/><path class="cls-3" d="M130.23,67.76A3.22,3.22,0,1,0,133.45,71,3.23,3.23,0,0,0,130.23,67.76Z"/></svg>