<svg id="Layer_1" data-name="Layer 1" xmlns="http://www.w3.org/2000/svg" viewBox="0 0 134.45 86"><defs><style>.cls-1{fill:#7148ec;}.cls-2{fill:none;stroke-width:3px;}.cls-2,.cls-3{stroke:#7148ec;stroke-miterlimit:10;}.cls-3{fill:#fff;stroke-width:2px;}</style></defs><title>Untitled-2</title><circle class="cls-1" cx="88.22" cy="85" r="1"/><circle class="cls-1" cx="74.22" cy="85" r="1"/><circle class="cls-1" cx="60.22" cy="85" r="1"/><circle class="cls-1" cx="46.22" cy="85" r="1"/><circle class="cls-1" cx="32.22" cy="85" r="1"/><circle class="cls-1" cx="18.22" cy="85" r="1"/><circle class="cls-1" cx="4.22" cy="85" r="1"/><circle class="cls-1" cx="88.22" cy="71" r="1"/><circle class="cls-1" cx="74.22" cy="71" r="1"/><circle class="cls-1" cx="60.22" cy="71" r="1"/><circle class="cls-1" cx="46.22" cy="71" r="1"/><circle class="cls-1" cx="32.22" cy="71" r="1"/><circle class="cls-1" cx="4.22" cy="71" r="1"/><circle class="cls-1" cx="18.22" cy="71" r="1"/><circle class="cls-1" cx="88.22" cy="57" r="1"/><circle class="cls-1" cx="74.22" cy="57" r="1"/><circle class="cls-1" cx="60.22" cy="57" r="1"/><circle class="cls-1" cx="46.22" cy="57" r="1"/><circle class="cls-1" cx="32.22" cy="57" r="1"/><circle class="cls-1" cx="18.22" cy="57" r="1"/><circle class="cls-1" cx="4.22" cy="57" r="1"/><circle class="cls-1" cx="88.22" cy="43" r="1"/><circle class="cls-1" cx="74.22" cy="43" r="1"/><circle class="cls-1" cx="60.22" cy="43" r="1"/><circle class="cls-1" cx="46.22" cy="43" r="1"/><circle class="cls-1" cx="32.22" cy="43" r="1"/><circle class="cls-1" cx="18.22" cy="43" r="1"/><circle class="cls-1" cx="4.22" cy="43" r="1"/><circle class="cls-1" cx="88.22" cy="29" r="1"/><circle class="cls-1" cx="74.22" cy="29" r="1"/><circle class="cls-1" cx="60.22" cy="29" r="1"/><circle class="cls-1" cx="46.22" cy="29" r="1"/><circle class="cls-1" cx="32.22" cy="29" r="1"/><circle class="cls-1" cx="18.22" cy="29" r="1"/><circle class="cls-1" cx="4.22" cy="29" r="1"/><circle class="cls-1" cx="88.22" cy="15" r="1"/><circle class="cls-1" cx="74.22" cy="15" r="1"/><circle class="cls-1" cx="60.22" cy="15" r="1"/><circle class="cls-1" cx="46.22" cy="15" r="1"/><circle class="cls-1" cx="32.22" cy="15" r="1"/><circle class="cls-1" cx="18.22" cy="15" r="1"/><circle class="cls-1" cx="4.22" cy="15" r="1"/><circle class="cls-1" cx="88.22" cy="1" r="1"/><circle class="cls-1" cx="74.22" cy="1" r="1"/><circle class="cls-1" cx="60.22" cy="1" r="1"/><circle class="cls-1" cx="46.22" cy="1" r="1"/><circle class="cls-1" cx="32.22" cy="1" r="1"/><circle class="cls-1" cx="18.22" cy="1" r="1"/><circle class="cls-1" cx="4.22" cy="1" r="1"/><line class="cls-2" x1="4.22" y1="70.99" x2="130.22" y2="70.99"/><line class="cls-2" x1="4.22" y1="57" x2="32.22" y2="57"/><path class="cls-3" d="M172.23,67.78A3.22,3.22,0,1,0,175.45,71,3.23,3.23,0,0,0,172.23,67.78Z" transform="translate(-42)"/><line class="cls-2" x1="32.22" y1="57" x2="32.22" y2="43"/><path class="cls-3" d="M74.23,53.78A3.22,3.22,0,1,0,77.45,57,3.23,3.23,0,0,0,74.23,53.78Z" transform="translate(-42)"/><line class="cls-2" x1="32.22" y1="43" x2="46.22" y2="43"/><line class="cls-2" x1="60.22" y1="29" x2="74.22" y2="29"/><path class="cls-3" d="M74.23,39.78A3.22,3.22,0,1,0,77.45,43,3.23,3.23,0,0,0,74.23,39.78Z" transform="translate(-42)"/><line class="cls-2" x1="46.22" y1="43" x2="54.24" y2="51.01"/><line class="cls-2" x1="60.22" y1="57" x2="60.22" y2="35.98"/><path class="cls-3" d="M102.23,53.78A3.22,3.22,0,1,0,105.45,57,3.23,3.23,0,0,0,102.23,53.78Z" transform="translate(-42)"/><path class="cls-3" d="M102.23,25.78A3.22,3.22,0,1,0,105.45,29,3.23,3.23,0,0,0,102.23,25.78Z" transform="translate(-42)"/><path class="cls-3" d="M46.23,67.78A3.22,3.22,0,1,0,49.45,71,3.23,3.23,0,0,0,46.23,67.78Z" transform="translate(-42)"/><path class="cls-3" d="M46.23,53.78A3.22,3.22,0,1,0,49.45,57,3.23,3.23,0,0,0,46.23,53.78Z" transform="translate(-42)"/><path class="cls-3" d="M88.23,39.78A3.22,3.22,0,1,0,91.45,43,3.23,3.23,0,0,0,88.23,39.78Z" transform="translate(-42)"/><path class="cls-3" d="M116.23,25.78A3.22,3.22,0,1,0,119.45,29,3.23,3.23,0,0,0,116.23,25.78Z" transform="translate(-42)"/></svg>