<?xml version="1.0" encoding="utf-8"?>
<!-- Generator: Adobe Illustrator 19.2.1, SVG Export Plug-In . SVG Version: 6.00 Build 0)  -->
<svg version="1.1" id="Layer_1" xmlns="http://www.w3.org/2000/svg" xmlns:xlink="http://www.w3.org/1999/xlink" x="0px" y="0px" viewBox="0 0 852 390" style="enable-background:new 0 0 852 390;" xml:space="preserve" width="852" height="390">
<style type="text/css">
	.st0{fill:#F1F1F1;}
	.st1{fill:#222222;}
	.st2{fill:#7629F4;}
	.st3{fill:none;stroke:#7629F4;stroke-linecap:round;stroke-linejoin:round;stroke-miterlimit:10;}
	.st4{fill:#F5F5F5;stroke:#7629F4;stroke-miterlimit:10;}
	.st5{fill:#7629F4;stroke:#7629F4;stroke-miterlimit:10;}
	.st6{fill:#FFFFFF;stroke:#7629F4;stroke-miterlimit:10;}
	.st7{fill:#7629F4;stroke:#FFFFFF;stroke-miterlimit:10;}
	.st8{fill:#FFFFFF;}
	.st9{fill:#F5F5F5;stroke:#7629F4;stroke-linecap:round;stroke-linejoin:round;stroke-miterlimit:10;}
	.st10{fill:none;stroke:#7629F4;stroke-miterlimit:10;}
	.st11{fill:#FFFFFF;stroke:#7629F4;stroke-linecap:round;stroke-linejoin:round;stroke-miterlimit:10;}
	.st12{fill:none;stroke:#FFFFFF;stroke-miterlimit:10;}
	.st13{fill:none;stroke:#FFFFFF;stroke-linecap:round;stroke-linejoin:round;stroke-miterlimit:10;}
	.st14{fill:#F5F5F5;}
	.st15{fill:none;stroke:#762AF3;stroke-linecap:round;stroke-linejoin:round;stroke-miterlimit:10;}
	.st16{fill:#FFFFFF;stroke:#762AF3;stroke-linecap:round;stroke-linejoin:round;stroke-miterlimit:10;}
	.st17{fill:none;stroke:#F5F5F5;stroke-miterlimit:10;}
	.st18{fill:#F1F1F1;stroke:#7629F4;stroke-miterlimit:10;}
	.st19{fill:#FFFFFF;stroke:#7629F4;stroke-linejoin:round;stroke-miterlimit:10;}
	.st20{fill:#7629F4;stroke:#7629F4;stroke-linecap:round;stroke-linejoin:round;stroke-miterlimit:10;}
</style>
<polygon class="st0" points="0,111.7 345,0 345.6,76.3 270.7,100.3 271.6,152.5 365,122.2 366.4,179.3 33.7,286.7 33.8,231.8 
	96.6,211 96,158.2 0.2,191.5 "/>
<g>
	<g>
		<g>
			<path class="st1" d="M110.6,154.2l7.4-2.5c2.8-0.9,5-0.6,6.5,1.2c1.5,1.7,2.2,4.6,2.2,8.5v22.8c0,4.6-0.8,8.2-2.4,10.9
				c-1.6,2.7-3.8,4.5-6.8,5.5l-6.9,2.3V154.2z M115.5,194.8l2.3-0.8c1.4-0.5,2.4-1.3,3-2.5s0.9-2.8,0.9-4.9v-23.5
				c0-1.9-0.3-3.3-0.8-4.2c-0.6-0.9-1.6-1.1-3-0.6l-2.3,0.8L115.5,194.8L115.5,194.8z"/>
			<path class="st1" d="M136.3,145.7l4.1-1.4l7.8,46.2l-5,1.7l-1.5-10l-6.8,2.3l-1.5,11l-5,1.7L136.3,145.7z M138.4,159L138.4,159
				l-2.5,18.5l5-1.7L138.4,159z"/>
			<path class="st1" d="M151.2,147.3l-5.8,1.9v-6.6l16.5-5.5v6.6l-5.8,1.9v42.2l-5,1.7v-42.2H151.2z"/>
			<path class="st1" d="M167,135.5l4.1-1.4l7.8,46.2l-5,1.7l-1.5-10l-6.8,2.3l-1.5,11l-5,1.7L167,135.5z M169.1,148.8L169.1,148.8
				l-2.5,18.5l5-1.7L169.1,148.8z"/>
			<path class="st1" d="M181.3,130.7l7.3-2.4c1.6-0.5,3-0.6,4.1-0.3c1.1,0.3,2,0.9,2.8,1.8c0.7,0.9,1.2,2,1.5,3.4s0.5,2.9,0.5,4.5
				v1.8c0,1.3-0.1,2.5-0.2,3.4c-0.1,1-0.4,1.8-0.7,2.6s-0.7,1.5-1.1,2.2c-0.4,0.7-0.9,1.3-1.5,2c1.2,0.4,2,1.3,2.6,2.6
				s0.8,3.3,0.8,5.9v2.7c0,4.3-0.7,7.8-2.2,10.6s-3.8,4.7-7.1,5.8l-6.8,2.3L181.3,130.7L181.3,130.7z M186.3,149.1l2.2-0.7
				c1.7-0.6,2.8-1.5,3.3-2.9c0.6-1.4,0.9-3.2,0.9-5.4s-0.3-3.7-1-4.6c-0.6-0.9-1.8-1.1-3.4-0.5l-2,0.7V149.1z M186.3,170.9l2.1-0.7
				c1-0.3,1.8-0.8,2.4-1.4c0.6-0.6,1-1.3,1.3-2.1s0.5-1.8,0.5-2.8c0.1-1,0.1-2.1,0.1-3.3s0-2.3-0.1-3.2s-0.3-1.6-0.6-2.1
				s-0.7-0.8-1.3-1c-0.6-0.1-1.3-0.1-2.2,0.2l-2.2,0.7V170.9z"/>
			<path class="st1" d="M207,122.1l4.1-1.4l7.8,46.2l-5,1.7l-1.5-10l-6.8,2.3l-1.5,11l-5,1.7L207,122.1z M209.1,135.5L209.1,135.5
				l-2.5,18.5l5-1.7L209.1,135.5z"/>
			<path class="st1" d="M237.5,126.1l-5,1.7v-1.6c0-1.6-0.3-2.9-0.8-3.9s-1.4-1.3-2.7-0.8c-0.7,0.2-1.2,0.6-1.7,1.1
				c-0.4,0.5-0.8,1.1-1,1.7c-0.2,0.7-0.4,1.4-0.5,2.2s-0.1,1.6-0.1,2.4c0,1,0,1.8,0.1,2.4c0,0.6,0.2,1.2,0.4,1.6
				c0.2,0.4,0.5,0.7,0.9,1c0.4,0.2,0.9,0.4,1.5,0.6l3.8,0.9c1.1,0.2,2,0.6,2.7,1.2c0.7,0.6,1.2,1.3,1.6,2.3s0.6,2.1,0.8,3.5
				c0.1,1.4,0.2,2.9,0.2,4.7c0,2.1-0.1,4-0.4,5.9s-0.8,3.5-1.4,5c-0.7,1.5-1.6,2.8-2.7,3.9s-2.5,1.9-4.1,2.4
				c-1.2,0.4-2.3,0.5-3.4,0.2c-1-0.2-1.9-0.8-2.7-1.5c-0.7-0.8-1.3-1.8-1.8-3.1c-0.4-1.3-0.7-2.7-0.7-4.4v-2.6l5-1.7v2.2
				c0,1.3,0.3,2.3,0.8,3.2s1.4,1.1,2.7,0.6c0.8-0.3,1.5-0.7,2-1.2s0.8-1.1,1.1-1.8c0.2-0.7,0.4-1.5,0.5-2.5c0.1-0.9,0.1-2,0.1-3
				c0-1.3,0-2.3-0.1-3.1s-0.2-1.4-0.4-1.9c-0.2-0.4-0.5-0.7-0.9-0.9s-0.9-0.4-1.5-0.5l-3.6-0.9c-2.1-0.5-3.6-1.7-4.3-3.5
				c-0.7-1.8-1.1-4.2-1.1-7.3c0-1.8,0.2-3.6,0.5-5.4c0.4-1.8,0.9-3.4,1.6-4.8s1.6-2.7,2.7-3.7c1.1-1.1,2.3-1.8,3.8-2.3
				c1.2-0.4,2.4-0.5,3.4-0.2s1.9,0.9,2.6,1.7s1.3,1.8,1.7,3c0.4,1.2,0.6,2.4,0.6,3.8v3.4H237.5z"/>
			<path class="st1" d="M241.2,110.8l14.8-4.9v6.6l-9.9,3.3V130l8.6-2.9v6.6l-8.6,2.9V151l9.9-3.3v7l-14.8,4.9V110.8z"/>
		</g>
	</g>
	<g>
		<g>
			<path class="st1" d="M14.6,122.8l7.4-2.5c2.8-0.9,5-0.6,6.5,1.2c1.5,1.7,2.2,4.6,2.2,8.5v22.8c0,4.6-0.8,8.2-2.4,10.9
				s-3.8,4.5-6.8,5.5l-6.9,2.3C14.6,171.5,14.6,122.8,14.6,122.8z M19.5,163.4l2.3-0.8c1.4-0.5,2.4-1.3,3-2.5s0.9-2.8,0.9-4.9v-23.5
				c0-1.9-0.3-3.3-0.8-4.2c-0.6-0.9-1.6-1.1-3-0.6l-2.3,0.8L19.5,163.4L19.5,163.4z"/>
			<path class="st1" d="M35,127.5c0-2,0.2-3.8,0.7-5.5s1.1-3.1,1.9-4.4c0.8-1.2,1.7-2.3,2.7-3.1c1-0.8,2-1.4,3-1.8
				c1-0.3,2-0.4,3-0.2c1,0.2,1.9,0.6,2.7,1.3c0.8,0.7,1.4,1.7,1.9,3.1c0.5,1.3,0.7,3,0.7,5v25.8c0,2-0.2,3.8-0.7,5.5
				c-0.5,1.6-1.1,3.1-1.9,4.3s-1.7,2.3-2.7,3.1s-2,1.4-3,1.8c-1,0.3-2,0.4-3,0.2s-1.9-0.6-2.7-1.3c-0.8-0.7-1.4-1.7-1.9-3.1
				c-0.5-1.3-0.7-3-0.7-5V127.5z M40,151.6c0,1.7,0.3,2.8,1,3.4c0.7,0.6,1.5,0.7,2.4,0.4s1.7-1,2.4-2c0.7-1,1-2.4,1-4.1v-25.8
				c0-1.7-0.3-2.8-1-3.4s-1.5-0.7-2.4-0.4c-0.9,0.3-1.7,1-2.4,2c-0.7,1-1,2.4-1,4.1V151.6z"/>
			<path class="st1" d="M71.9,141.6c0,1.5-0.2,3-0.6,4.5s-1,2.9-1.7,4.2s-1.6,2.4-2.5,3.3c-1,0.9-2,1.6-3.1,2
				c-0.9,0.3-1.9,0.4-2.9,0.4s-1.9-0.4-2.6-1c-0.8-0.6-1.4-1.6-1.9-2.9c-0.5-1.3-0.8-3.1-0.8-5.3v-26.9c0-1.6,0.2-3.2,0.6-4.7
				s0.9-2.9,1.7-4.1c0.7-1.2,1.6-2.3,2.6-3.2c1-0.9,2.1-1.6,3.3-2c1.1-0.4,2.2-0.4,3.2-0.2c1,0.2,1.8,0.8,2.5,1.6
				c0.7,0.8,1.3,1.8,1.7,3.1c0.4,1.3,0.6,2.8,0.6,4.5v2.7l-5,1.7V117c0-1.4-0.3-2.5-0.8-3.3c-0.6-0.8-1.3-1.1-2.2-0.8
				c-1.2,0.4-2.1,1.2-2.5,2.4c-0.4,1.2-0.6,2.6-0.6,4.3v25c0,1.4,0.2,2.5,0.7,3.3c0.4,0.8,1.2,1,2.4,0.7c0.3-0.1,0.7-0.3,1-0.6
				c0.4-0.3,0.7-0.7,1-1.1c0.3-0.5,0.6-1.1,0.8-1.8c0.2-0.7,0.3-1.5,0.3-2.5v-2.4l5-1.7v3.1H71.9z"/>
			<path class="st1" d="M92.1,134.8c0,1.6-0.2,3.2-0.6,4.7c-0.4,1.5-1,2.9-1.7,4.2s-1.6,2.4-2.6,3.3s-2,1.6-3.1,1.9
				c-1.1,0.4-2.1,0.4-3.1,0.1c-1-0.3-1.8-0.8-2.6-1.6c-0.7-0.8-1.3-1.8-1.7-3s-0.6-2.6-0.6-4.2v-37.9l5-1.7v37.2
				c0,1.7,0.3,2.9,0.9,3.5c0.6,0.6,1.3,0.8,2.2,0.5s1.6-0.9,2.2-2c0.6-1,0.9-2.4,0.9-4.1V98.6l5-1.7v37.9H92.1z"/>
			<path class="st1" d="M96.8,95.4l4.8-1.6l6.4,23.7h0.1l6.3-28l4.8-1.6v48.8l-5,1.7v-29.7h-0.1l-4.9,22.6l-2.5,0.8l-4.9-19.4h-0.1
				v29.7l-5,1.7L96.8,95.4L96.8,95.4z"/>
			<path class="st1" d="M123.9,86.4l14.8-4.9V88l-9.9,3.3v14.3l8.6-2.9v6.6l-8.6,2.9v14.3l9.9-3.3v7l-14.8,4.9V86.4z"/>
			<path class="st1" d="M141.8,80.5l4.8-1.6l7.5,26.9h0.1V76.3l5-1.7v48.8l-4.7,1.6l-7.6-26.8h-0.1v29.3l-5,1.7V80.5z"/>
			<path class="st1" d="M166.9,78.7l-5.8,1.9V74l16.5-5.5v6.6l-5.8,1.9v42.2l-5,1.7V78.7H166.9z"/>
			<path class="st1" d="M188.6,76.4c0-2,0.2-3.8,0.7-5.5s1.1-3.1,1.9-4.4c0.8-1.2,1.7-2.3,2.7-3.1c1-0.8,2-1.4,3-1.8
				c1-0.3,2-0.4,3-0.2s1.9,0.6,2.7,1.3s1.4,1.8,1.9,3.1c0.5,1.3,0.7,3,0.7,5v25.8c0,2-0.2,3.8-0.7,5.5c-0.5,1.6-1.1,3.1-1.9,4.3
				c-0.8,1.2-1.7,2.3-2.7,3.1c-1,0.8-2,1.4-3,1.8c-1,0.3-2,0.4-3,0.2c-1-0.2-1.9-0.6-2.7-1.3c-0.8-0.7-1.4-1.7-1.9-3.1
				c-0.5-1.3-0.7-3-0.7-5V76.4z M193.6,100.5c0,1.7,0.3,2.8,1,3.4s1.5,0.7,2.4,0.4c0.9-0.3,1.7-1,2.4-2s1-2.4,1-4.1V72.5
				c0-1.7-0.3-2.8-1-3.4s-1.5-0.7-2.4-0.4c-0.9,0.3-1.7,1-2.4,2s-1,2.4-1,4.1V100.5z"/>
			<path class="st1" d="M209.7,57.9l8-2.7c5.9-1.9,8.8,1.9,8.8,11.4c0,2.8-0.3,5.4-1,7.6c-0.6,2.2-1.7,4.3-3.3,6l5.4,20.5l-5.3,1.8
				l-4.6-19.3l-3,1V105l-5,1.7V57.9z M214.7,78l2.8-0.9c0.9-0.3,1.6-0.7,2.1-1.2s0.9-1.1,1.2-1.9c0.3-0.7,0.5-1.6,0.6-2.6
				s0.1-2.1,0.1-3.3s0-2.3-0.1-3.2c-0.1-0.9-0.3-1.6-0.6-2.2c-0.3-0.6-0.7-0.9-1.3-1c-0.6-0.1-1.3-0.1-2.2,0.3l-2.6,0.9V78z"/>
			<path class="st1" d="M230.6,50.9l5-1.7V98l-5,1.7V50.9z"/>
			<path class="st1" d="M240.4,47.6l14.8-4.9v6.6l-9.9,3.3v14.3l8.6-2.9v6.6l-8.6,2.9v14.3l9.9-3.3v7l-14.8,4.9V47.6z"/>
			<path class="st1" d="M258.3,41.7l4.8-1.6l7.5,26.9h0.1V37.6l5-1.7v48.8l-4.7,1.6l-7.6-26.8h-0.1v29.3l-5,1.7L258.3,41.7
				L258.3,41.7z"/>
			<path class="st1" d="M283.4,39.9l-5.8,1.9v-6.6l16.5-5.5v6.6l-5.8,1.9v42.2l-5,1.7L283.4,39.9L283.4,39.9z"/>
			<path class="st1" d="M296.4,29l14.8-4.9v6.6l-9.9,3.3v14.3l8.6-2.9V52l-8.6,2.9v14.3l9.9-3.3v7l-14.8,4.9V29z"/>
			<path class="st1" d="M314.4,23l7.4-2.5c2.8-0.9,5-0.6,6.5,1.2c1.5,1.7,2.2,4.6,2.2,8.5V53c0,4.6-0.8,8.2-2.4,10.9
				c-1.6,2.7-3.8,4.5-6.8,5.5l-6.9,2.3L314.4,23L314.4,23z M319.4,63.6l2.3-0.8c1.4-0.5,2.4-1.3,3-2.5s0.9-2.8,0.9-4.9V31.9
				c0-1.9-0.3-3.3-0.8-4.2c-0.6-0.9-1.6-1.1-3-0.6l-2.3,0.8v35.7H319.4z"/>
		</g>
	</g>
</g>
<g>
	<g>
		<g>
			<g>
				<path class="st2" d="M59.3,266.5l-2.7,0.9l-2.2-17.8h-0.1l-2.2,19.3l-2.7,0.9l-3-27.5l3.1-1l1.5,17.6h0.1l2.3-18.9l2.2-0.7
					l2.4,17.8h0.1l1.4-19l3.1-1L59.3,266.5z"/>
				<path class="st2" d="M64.8,236.1l2.9-1v28.6l-2.9,1V236.1z"/>
				<path class="st2" d="M73,237.2l-3.4,1.1v-3.8l9.6-3.2v3.8l-3.4,1.1v24.7l-2.9,1v-24.7H73z"/>
				<path class="st2" d="M81.1,230.6l2.9-1v12.2l3.6-1.2v-12.2l2.9-1V256l-2.9,1v-12.7l-3.6,1.2v12.7l-2.9,1V230.6z"/>
				<path class="st2" d="M106.5,244c0,0.9-0.1,1.9-0.3,2.8c-0.2,0.9-0.6,1.8-1,2.6s-0.9,1.5-1.6,2s-1.3,1-2.1,1.3
					c-0.9,0.3-1.7,0.3-2.3-0.1c-0.6-0.4-1.1-0.8-1.5-1.2l2.3-3.3c0.2,0.2,0.5,0.4,0.7,0.5c0.3,0.1,0.6,0.1,0.9,0
					c0.2-0.1,0.4-0.2,0.6-0.3c0.2-0.2,0.4-0.4,0.6-0.7s0.4-0.7,0.5-1.2s0.2-1.1,0.2-1.8v-21.3l2.9-1V244H106.5z"/>
				<path class="st2" d="M119.2,226.2l-2.9,1v-0.9c0-0.9-0.2-1.7-0.5-2.3s-0.8-0.7-1.6-0.5c-0.4,0.1-0.7,0.3-1,0.6s-0.5,0.6-0.6,1
					s-0.2,0.8-0.3,1.3s-0.1,0.9-0.1,1.4c0,0.6,0,1,0,1.4s0.1,0.7,0.2,0.9c0.1,0.2,0.3,0.4,0.5,0.6c0.2,0.1,0.5,0.3,0.9,0.3l2.2,0.5
					c0.6,0.1,1.2,0.4,1.6,0.7c0.4,0.3,0.7,0.8,0.9,1.3c0.2,0.6,0.4,1.2,0.4,2c0.1,0.8,0.1,1.7,0.1,2.7c0,1.2-0.1,2.3-0.3,3.4
					c-0.2,1.1-0.5,2.1-0.8,2.9s-0.9,1.6-1.6,2.3c-0.6,0.6-1.4,1.1-2.4,1.4c-0.7,0.2-1.4,0.3-2,0.1s-1.1-0.4-1.6-0.9
					c-0.4-0.5-0.8-1.1-1-1.8s-0.4-1.6-0.4-2.6v-1.5l2.9-1v1.3c0,0.7,0.2,1.4,0.5,1.9s0.8,0.6,1.6,0.4c0.5-0.2,0.9-0.4,1.2-0.7
					s0.5-0.6,0.6-1.1c0.1-0.4,0.2-0.9,0.3-1.4c0-0.5,0.1-1.1,0.1-1.8s0-1.4-0.1-1.8c0-0.5-0.1-0.8-0.2-1.1c-0.1-0.3-0.3-0.4-0.5-0.6
					c-0.2-0.1-0.5-0.2-0.9-0.3l-2.1-0.5c-1.3-0.3-2.1-1-2.5-2s-0.6-2.5-0.6-4.3c0-1.1,0.1-2.1,0.3-3.2s0.5-2,0.9-2.8
					s0.9-1.6,1.6-2.2c0.6-0.6,1.4-1.1,2.2-1.4c0.7-0.2,1.4-0.3,2-0.1s1.1,0.5,1.5,1s0.8,1.1,1,1.7c0.2,0.7,0.3,1.4,0.3,2.2v2.5
					H119.2z"/>
				<path class="st2" d="M124.5,216l2.3-0.8l-3.8,30.3l-2.3,0.8L124.5,216z"/>
				<path class="st2" d="M138.3,219.8l-2.9,1v-0.9c0-0.9-0.2-1.7-0.5-2.3s-0.8-0.7-1.6-0.5c-0.4,0.1-0.7,0.3-1,0.6s-0.5,0.6-0.6,1
					s-0.2,0.8-0.3,1.3s-0.1,0.9-0.1,1.4c0,0.6,0,1,0,1.4s0.1,0.7,0.2,0.9c0.1,0.2,0.3,0.4,0.5,0.6c0.2,0.1,0.5,0.3,0.9,0.3l2.2,0.5
					c0.6,0.1,1.2,0.4,1.6,0.7c0.4,0.3,0.7,0.8,0.9,1.3c0.2,0.6,0.4,1.2,0.4,2s0.1,1.7,0.1,2.7c0,1.2-0.1,2.3-0.3,3.4
					c-0.2,1.1-0.5,2.1-0.8,2.9c-0.4,0.9-0.9,1.6-1.6,2.3c-0.6,0.6-1.4,1.1-2.4,1.4c-0.7,0.2-1.4,0.3-2,0.1c-0.6-0.1-1.1-0.4-1.6-0.9
					c-0.4-0.5-0.8-1.1-1-1.8s-0.4-1.6-0.4-2.6v-1.5l2.9-1v1.3c0,0.7,0.2,1.4,0.5,1.9s0.8,0.6,1.6,0.4c0.5-0.2,0.9-0.4,1.2-0.7
					s0.5-0.6,0.6-1.1c0.1-0.4,0.2-0.9,0.3-1.4c0-0.5,0.1-1.1,0.1-1.8s0-1.4-0.1-1.8c0-0.5-0.1-0.8-0.2-1.1c-0.1-0.3-0.3-0.4-0.5-0.6
					c-0.2-0.1-0.5-0.2-0.9-0.3l-2.1-0.5c-1.3-0.3-2.1-1-2.5-2s-0.6-2.5-0.6-4.3c0-1.1,0.1-2.1,0.3-3.2c0.2-1,0.5-2,0.9-2.8
					s0.9-1.6,1.6-2.2c0.6-0.6,1.4-1.1,2.2-1.4c0.7-0.2,1.4-0.3,2-0.1s1.1,0.5,1.5,1s0.8,1.1,1,1.7c0.2,0.7,0.3,1.4,0.3,2.2v2.5
					H138.3z"/>
				<path class="st2" d="M140.9,217.5c0-1.1,0.1-2.2,0.4-3.2c0.3-1,0.7-1.8,1.1-2.6c0.5-0.7,1-1.3,1.6-1.8s1.2-0.8,1.8-1
					s1.2-0.2,1.8-0.1c0.6,0.1,1.1,0.4,1.6,0.8c0.5,0.4,0.8,1,1.1,1.8s0.4,1.8,0.4,2.9v15.1c0,1.1-0.1,2.1-0.4,3.1l1.8,1.4l-1.5,3
					l-1.7-1.4c-0.4,0.7-0.9,1.2-1.4,1.6c-0.5,0.4-1.1,0.7-1.6,0.9c-0.6,0.2-1.2,0.2-1.8,0.1c-0.6-0.1-1.1-0.4-1.6-0.8
					c-0.5-0.4-0.8-1-1.1-1.8s-0.4-1.7-0.4-2.9v-15.1H140.9z M143.8,231.6c0,1,0.2,1.7,0.6,2s0.9,0.4,1.4,0.2
					c0.2-0.1,0.5-0.2,0.6-0.4l-1.3-1l1.5-3l1.2,0.9v-0.1v-15.1c0-1-0.2-1.7-0.6-2c-0.4-0.3-0.9-0.4-1.4-0.2s-1,0.6-1.4,1.2
					c-0.4,0.6-0.6,1.4-0.6,2.4V231.6z"/>
				<path class="st2" d="M153.8,206.5l2.9-1V230l5.8-1.9v4.1l-8.7,2.9V206.5z"/>
				<path class="st2" d="M170.8,200.8l4.4-1.5c0.8-0.3,1.5-0.4,2.1-0.3s1.2,0.4,1.7,1s0.8,1.3,1,2.3c0.2,0.9,0.3,2.3,0.3,4
					c0,1.3-0.1,2.4-0.2,3.3c-0.1,0.9-0.3,1.8-0.7,2.7c-0.4,1.1-0.9,2-1.6,2.7c-0.7,0.7-1.5,1.3-2.6,1.7l-1.5,0.5v11.1l-2.9,1V200.8z
					 M173.7,213.4l1.4-0.5c0.6-0.2,1-0.5,1.4-0.8c0.3-0.3,0.6-0.8,0.7-1.2c0.2-0.5,0.2-1,0.3-1.6s0-1.3,0-2s0-1.3,0-1.9
					s-0.1-1.1-0.3-1.5c-0.1-0.4-0.4-0.7-0.7-0.8c-0.3-0.2-0.7-0.1-1.3,0.1l-1.5,0.5L173.7,213.4L173.7,213.4z"/>
				<path class="st2" d="M183,196.8l4.7-1.6c3.4-1.1,5.1,1.1,5.1,6.7c0,1.7-0.2,3.1-0.6,4.5s-1,2.5-2,3.5l3.1,12l-3.1,1l-2.7-11.3
					l-1.7,0.6v12.2l-2.9,1L183,196.8L183,196.8z M185.9,208.6l1.7-0.5c0.5-0.2,0.9-0.4,1.2-0.7s0.5-0.7,0.7-1.1
					c0.2-0.4,0.3-0.9,0.3-1.5c0.1-0.6,0.1-1.2,0.1-1.9s0-1.3-0.1-1.9c-0.1-0.5-0.2-1-0.4-1.3s-0.4-0.5-0.8-0.6
					c-0.3-0.1-0.8,0-1.3,0.1l-1.5,0.5v8.9H185.9z"/>
				<path class="st2" d="M195.5,199.3c0-1.1,0.1-2.2,0.4-3.2c0.3-1,0.7-1.8,1.1-2.6c0.5-0.7,1-1.3,1.6-1.8s1.2-0.8,1.8-1
					s1.2-0.2,1.8-0.1c0.6,0.1,1.1,0.4,1.6,0.8c0.5,0.4,0.8,1,1.1,1.8c0.3,0.8,0.4,1.8,0.4,2.9v15.1c0,1.2-0.1,2.2-0.4,3.2
					s-0.7,1.8-1.1,2.5c-0.5,0.7-1,1.3-1.6,1.8s-1.2,0.8-1.8,1s-1.2,0.2-1.8,0.1c-0.6-0.1-1.1-0.4-1.6-0.8c-0.5-0.4-0.8-1-1.1-1.8
					s-0.4-1.8-0.4-2.9V199.3z M198.4,213.4c0,1,0.2,1.7,0.6,2c0.4,0.3,0.9,0.4,1.4,0.2s1-0.6,1.4-1.2c0.4-0.6,0.6-1.4,0.6-2.4v-15.1
					c0-1-0.2-1.7-0.6-2c-0.4-0.3-0.9-0.4-1.4-0.2s-1,0.6-1.4,1.2c-0.4,0.6-0.6,1.4-0.6,2.4V213.4z"/>
				<path class="st2" d="M217.7,207.4c0,0.9-0.1,1.8-0.4,2.6c-0.2,0.9-0.6,1.7-1,2.4s-0.9,1.4-1.5,1.9s-1.2,0.9-1.8,1.1
					c-0.6,0.2-1.1,0.3-1.7,0.2s-1.1-0.2-1.5-0.6c-0.5-0.4-0.8-0.9-1.1-1.7c-0.3-0.8-0.4-1.8-0.4-3.1v-15.7c0-0.9,0.1-1.8,0.3-2.7
					c0.2-0.9,0.6-1.7,1-2.4s0.9-1.4,1.5-1.9s1.2-0.9,1.9-1.1c0.7-0.2,1.3-0.3,1.9-0.1c0.6,0.1,1.1,0.4,1.5,0.9s0.7,1.1,1,1.8
					c0.2,0.8,0.4,1.6,0.4,2.6v1.6l-2.9,1V193c0-0.8-0.2-1.4-0.5-1.9s-0.8-0.6-1.3-0.4c-0.7,0.2-1.2,0.7-1.4,1.4
					c-0.2,0.7-0.4,1.5-0.4,2.5v14.6c0,0.8,0.1,1.5,0.4,2s0.7,0.6,1.4,0.4c0.2-0.1,0.4-0.2,0.6-0.3s0.4-0.4,0.6-0.7s0.3-0.6,0.4-1
					s0.2-0.9,0.2-1.5v-1.4l2.9-1v1.7H217.7z"/>
				<path class="st2" d="M220.6,184.2l8.7-2.9v3.9l-5.8,1.9v8.4l5-1.7v3.9l-5,1.7v8.4l5.8-1.9v4.1l-8.7,2.9V184.2z"/>
				<path class="st2" d="M241.2,185.6l-2.9,1v-0.9c0-0.9-0.2-1.7-0.5-2.3s-0.8-0.7-1.6-0.5c-0.4,0.1-0.7,0.3-1,0.6s-0.5,0.6-0.6,1
					s-0.2,0.8-0.3,1.3c-0.1,0.5-0.1,0.9-0.1,1.4c0,0.6,0,1,0,1.4s0.1,0.7,0.2,0.9s0.3,0.4,0.5,0.6c0.2,0.1,0.5,0.3,0.9,0.3l2.2,0.5
					c0.6,0.1,1.2,0.4,1.6,0.7s0.7,0.8,0.9,1.3c0.2,0.6,0.4,1.2,0.4,2c0.1,0.8,0.1,1.7,0.1,2.7c0,1.2-0.1,2.3-0.3,3.4
					c-0.2,1.1-0.5,2.1-0.8,2.9c-0.4,0.9-0.9,1.6-1.6,2.3c-0.6,0.6-1.4,1.1-2.4,1.4c-0.7,0.2-1.4,0.3-2,0.1c-0.6-0.1-1.1-0.4-1.6-0.9
					c-0.4-0.5-0.8-1.1-1-1.8c-0.3-0.7-0.4-1.6-0.4-2.6v-1.5l2.9-1v1.3c0,0.8,0.2,1.4,0.5,1.9s0.8,0.6,1.6,0.4
					c0.5-0.2,0.9-0.4,1.2-0.7c0.3-0.3,0.5-0.6,0.6-1.1s0.2-0.9,0.3-1.4c0-0.5,0.1-1.1,0.1-1.8s0-1.4-0.1-1.8c0-0.5-0.1-0.8-0.2-1.1
					s-0.3-0.4-0.5-0.6c-0.2-0.1-0.5-0.2-0.9-0.3l-2.1-0.5c-1.3-0.3-2.1-1-2.5-2s-0.6-2.5-0.6-4.3c0-1.1,0.1-2.1,0.3-3.2
					c0.2-1,0.5-2,0.9-2.8s0.9-1.6,1.6-2.2c0.6-0.6,1.4-1.1,2.2-1.4c0.7-0.2,1.4-0.3,2-0.1s1.1,0.5,1.5,1s0.8,1.1,1,1.7
					c0.2,0.7,0.3,1.4,0.3,2.2v2.5H241.2z"/>
				<path class="st2" d="M253.3,181.6l-2.9,1v-0.9c0-0.9-0.2-1.7-0.5-2.3s-0.8-0.7-1.6-0.5c-0.4,0.1-0.7,0.3-1,0.6s-0.5,0.6-0.6,1
					s-0.2,0.8-0.3,1.3c-0.1,0.5-0.1,0.9-0.1,1.4c0,0.6,0,1,0,1.4s0.1,0.7,0.2,0.9s0.3,0.4,0.5,0.6s0.5,0.3,0.9,0.3l2.2,0.5
					c0.6,0.1,1.2,0.4,1.6,0.7s0.7,0.8,0.9,1.3c0.2,0.6,0.4,1.2,0.4,2c0.1,0.8,0.1,1.7,0.1,2.8c0,1.2-0.1,2.3-0.3,3.4
					c-0.2,1.1-0.5,2.1-0.8,2.9c-0.4,0.9-0.9,1.6-1.6,2.3c-0.6,0.6-1.4,1.1-2.4,1.4c-0.7,0.2-1.4,0.3-2,0.1c-0.6-0.1-1.1-0.4-1.6-0.9
					c-0.4-0.5-0.8-1.1-1-1.8c-0.3-0.7-0.4-1.6-0.4-2.6V197l2.9-1v1.3c0,0.7,0.2,1.4,0.5,1.9s0.8,0.6,1.6,0.4
					c0.5-0.2,0.9-0.4,1.2-0.7s0.5-0.6,0.6-1s0.2-0.9,0.3-1.4c0-0.5,0.1-1.1,0.1-1.8s0-1.4-0.1-1.8c0-0.5-0.1-0.8-0.2-1.1
					s-0.3-0.4-0.5-0.6c-0.2-0.1-0.5-0.2-0.9-0.3l-2.1-0.5c-1.3-0.3-2.1-1-2.5-2s-0.6-2.5-0.6-4.3c0-1.1,0.1-2.1,0.3-3.2
					c0.2-1,0.5-2,0.9-2.8s0.9-1.6,1.6-2.2s1.4-1.1,2.2-1.4c0.7-0.2,1.4-0.3,2-0.1s1.1,0.5,1.5,1s0.8,1.1,1,1.7
					c0.2,0.7,0.3,1.4,0.3,2.2v2.3H253.3z"/>
				<path class="st2" d="M256.1,172.4l2.9-1V200l-2.9,1V172.4z"/>
				<path class="st2" d="M262.3,170.4l2.8-0.9l4.4,15.7h0.1V168l2.9-1v28.6l-2.7,0.9l-4.5-15.7h-0.1V198l-2.9,1L262.3,170.4
					L262.3,170.4z"/>
				<path class="st2" d="M275.5,172.7c0-1.1,0.1-2.2,0.4-3.2s0.7-1.8,1.1-2.6c0.5-0.7,1-1.3,1.6-1.8s1.2-0.8,1.8-1
					c0.6-0.2,1.2-0.2,1.8-0.1c0.6,0.1,1.1,0.4,1.6,0.8c0.5,0.4,0.8,1,1.1,1.8c0.3,0.8,0.4,1.8,0.4,2.9v1.4l-2.9,1v-1.4
					c0-1-0.2-1.7-0.6-2s-0.9-0.4-1.4-0.2s-1,0.6-1.4,1.2c-0.4,0.6-0.6,1.4-0.6,2.4V187c0,1,0.2,1.7,0.6,2s0.9,0.4,1.4,0.2
					s1-0.6,1.4-1.2c0.4-0.6,0.6-1.4,0.6-2.4v-5.4l-2.3,0.8v-3.6l5.2-1.7v9c0,1.2-0.1,2.2-0.4,3.2s-0.7,1.8-1.1,2.5
					c-0.5,0.7-1,1.3-1.6,1.8s-1.2,0.8-1.8,1s-1.2,0.2-1.8,0.1s-1.1-0.4-1.6-0.8c-0.5-0.4-0.8-1-1.1-1.8c-0.3-0.8-0.4-1.7-0.4-2.9
					L275.5,172.7L275.5,172.7z"/>
				<path class="st2" d="M294.4,159.7l2.9-1v28.6l-2.9,1V159.7z"/>
				<path class="st2" d="M300.6,157.6l2.8-0.9l4.4,15.7h0.1v-17.2l2.9-1v28.6l-2.7,0.9l-4.5-15.7h-0.1v17.2l-2.9,1L300.6,157.6
					L300.6,157.6z"/>
				<path class="st2" d="M323.4,158.3l-2.9,1v-0.9c0-0.9-0.2-1.7-0.5-2.3s-0.8-0.7-1.6-0.5c-0.4,0.1-0.7,0.3-1,0.6s-0.5,0.6-0.6,1
					s-0.2,0.8-0.3,1.3c-0.1,0.5-0.1,0.9-0.1,1.4c0,0.6,0,1,0,1.4s0.1,0.7,0.2,0.9s0.3,0.4,0.5,0.6s0.5,0.3,0.9,0.3l2.2,0.5
					c0.6,0.1,1.2,0.4,1.6,0.7s0.7,0.8,0.9,1.3c0.2,0.6,0.4,1.2,0.4,2c0.1,0.8,0.1,1.7,0.1,2.7c0,1.2-0.1,2.3-0.3,3.4
					c-0.2,1.1-0.5,2.1-0.8,2.9c-0.4,0.9-0.9,1.6-1.6,2.3c-0.6,0.6-1.4,1.1-2.4,1.4c-0.7,0.2-1.4,0.3-2,0.1s-1.1-0.4-1.6-0.9
					c-0.4-0.5-0.8-1.1-1-1.8c-0.3-0.7-0.4-1.6-0.4-2.6v-1.5l2.9-1v1.3c0,0.7,0.2,1.4,0.5,1.9s0.8,0.6,1.6,0.4
					c0.5-0.2,0.9-0.4,1.2-0.7c0.3-0.3,0.5-0.6,0.6-1.1c0.1-0.4,0.2-0.9,0.3-1.4c0-0.5,0.1-1.1,0.1-1.8s0-1.4-0.1-1.8
					c0-0.5-0.1-0.8-0.2-1.1s-0.3-0.4-0.5-0.6c-0.2-0.1-0.5-0.2-0.9-0.3l-2.1-0.5c-1.3-0.3-2.1-1-2.5-2s-0.6-2.5-0.6-4.3
					c0-1.1,0.1-2.1,0.3-3.2c0.2-1,0.5-2,0.9-2.8s0.9-1.6,1.6-2.2s1.4-1.1,2.2-1.4c0.7-0.2,1.4-0.3,2-0.1s1.1,0.5,1.5,1
					s0.8,1.1,1,1.7c0.2,0.7,0.3,1.4,0.3,2.2v2.5H323.4z"/>
				<path class="st2" d="M326.2,149.1l2.9-1v28.6l-2.9,1V149.1z"/>
				<path class="st2" d="M332.5,147l4.3-1.4c1.7-0.6,2.9-0.3,3.8,0.7s1.3,2.7,1.3,5v13.4c0,2.7-0.5,4.8-1.4,6.4
					c-0.9,1.6-2.3,2.7-4,3.2l-4.1,1.3V147H332.5z M335.4,170.8l1.3-0.4c0.8-0.3,1.4-0.8,1.7-1.4c0.3-0.7,0.5-1.6,0.5-2.9v-13.8
					c0-1.1-0.2-1.9-0.5-2.4s-0.9-0.6-1.8-0.3l-1.3,0.4L335.4,170.8L335.4,170.8z"/>
				<path class="st2" d="M345.2,142.8l8.7-2.9v3.9l-5.8,1.9v8.4l5-1.7v3.9l-5,1.7v8.4l5.8-1.9v4.1l-8.7,2.9V142.8z"/>
			</g>
		</g>
	</g>
</g>
<rect x="467.7" y="148.2" class="st0" width="310.7" height="124.6"/>
<rect x="512.6" y="119.3" class="st0" width="264.6" height="125.2"/>
<rect x="344" y="217.8" class="st0" width="338.5" height="113"/>
<rect x="442.6" y="338" class="st0" width="53.1" height="27.5"/>
<rect x="657.5" y="257.2" class="st0" width="80.2" height="41.2"/>
<rect x="659.3" y="288.7" class="st0" width="35" height="24.7"/>
<rect x="492.1" y="330" class="st0" width="35" height="24.7"/>
<rect x="414.3" y="342.8" class="st0" width="35" height="24.7"/>
<rect x="753.1" y="138.2" class="st0" width="52.2" height="72.7"/>
<rect x="295" y="250.7" class="st0" width="62" height="40"/>
<rect x="326" y="290.7" class="st0" width="31" height="15.9"/>
<rect x="325.8" y="304.5" class="st0" width="42" height="26.3"/>
<rect x="436.3" y="351.8" class="st0" width="37.9" height="28.3"/>
<rect x="788.1" y="141" class="st0" width="23.9" height="64"/>
<rect x="744.2" y="84" class="st0" width="8.9" height="8.9"/>
<rect x="641.8" y="68.7" class="st0" width="13.3" height="12.7"/>
<rect x="591" y="112.7" class="st0" width="52" height="12.7"/>
<rect x="563.7" y="86" class="st0" width="23.3" height="8"/>
<rect x="519" y="111.3" class="st0" width="11.3" height="12"/>
<rect x="391" y="98.7" class="st0" width="60" height="13.3"/>
<rect x="717" y="296.7" class="st0" width="10" height="8"/>
<rect x="757.7" y="296.7" class="st0" width="10.7" height="8.7"/>
<rect x="801" y="252.7" class="st0" width="10" height="10"/>
<rect x="783" y="206.7" class="st0" width="12.7" height="12"/>
<rect x="630.4" y="330.7" class="st0" width="11.3" height="16.7"/>
<rect x="531.7" y="334" class="st0" width="13.3" height="12"/>
<rect x="519.7" y="362" class="st0" width="12" height="11.3"/>
<rect x="767" y="128" class="st0" width="16.7" height="10.7"/>
<rect x="688.4" y="56.7" class="st0" width="10" height="10"/>
<rect x="295.7" y="239.3" class="st0" width="22.7" height="13.3"/>
<rect x="323" y="224" class="st0" width="19.3" height="18"/>
<rect x="351" y="211.3" class="st0" width="30.7" height="15.3"/>
<rect x="269" y="307.3" class="st0" width="25.3" height="10.7"/>
<rect x="310.4" y="351.3" class="st0" width="8" height="10.7"/>
<rect x="448.2" y="154.8" class="st0" width="24.1" height="19.2"/>
<rect x="482.1" y="141.7" class="st0" width="48.7" height="17"/>
<rect x="408.2" y="168.5" class="st0" width="47.6" height="15.9"/>
<rect x="548" y="111" class="st0" width="11" height="13"/>
<rect x="548" y="57" class="st0" width="12" height="11"/>
<rect x="490" y="56" class="st0" width="12" height="11"/>
<rect x="827.2" y="140.6" class="st0" width="9.5" height="11.4"/>
<rect x="786.7" y="113.4" class="st0" width="10" height="7.6"/>
<rect x="672.8" y="113.4" class="st0" width="67.2" height="12.4"/>
<rect x="617.5" y="84.9" class="st0" width="10.5" height="9.1"/>
<rect x="842.4" y="99.1" class="st0" width="9.1" height="8.1"/>
<rect x="743.8" y="112" class="st0" width="11.4" height="8.6"/>
<rect x="772.8" y="100.1" class="st0" width="10" height="7.1"/>
<rect x="812.9" y="198.2" class="st0" width="9.5" height="6.7"/>
<rect x="830" y="184" class="st0" width="9.1" height="8.6"/>
<rect x="811.9" y="226.4" class="st0" width="12.9" height="8.6"/>
<rect x="785.2" y="239.2" class="st0" width="10" height="10"/>
<rect x="715.7" y="261.1" class="st0" width="65.7" height="16.7"/>
<rect x="786.7" y="295.9" class="st0" width="12.4" height="9.5"/>
<rect x="760.5" y="323.6" class="st0" width="7.6" height="8.1"/>
<rect x="701.8" y="337.4" class="st0" width="10" height="9.5"/>
<rect x="646.1" y="335.9" class="st0" width="7.1" height="10.5"/>
<rect x="671.8" y="350.2" class="st0" width="11.9" height="11"/>
<rect x="617.5" y="336.4" class="st0" width="13.8" height="10.5"/>
<rect x="575.1" y="350.7" class="st0" width="10.5" height="10.5"/>
<rect x="548" y="335.5" class="st0" width="9.5" height="11"/>
<rect x="484.6" y="346.9" class="st0" width="15.2" height="14.8"/>
<rect x="423.1" y="329.7" class="st0" width="32.9" height="17.6"/>
<rect x="378.3" y="335.5" class="st0" width="11.4" height="10.5"/>
<rect x="392.6" y="351.7" class="st0" width="12.4" height="11"/>
<rect x="407.4" y="378.3" class="st0" width="10.5" height="10"/>
<rect x="296.4" y="309.3" class="st0" width="9.5" height="11.9"/>
<rect x="390.7" y="332.1" class="st0" width="14.3" height="13.3"/>
<rect x="349.8" y="351.2" class="st0" width="13.3" height="10"/>
<rect x="366.9" y="379.3" class="st0" width="10" height="9.5"/>
<rect x="295.9" y="335.9" class="st0" width="9.5" height="9.5"/>
<rect x="309.3" y="295.9" class="st0" width="14.3" height="11.4"/>
<rect x="266.9" y="279.7" class="st0" width="13.3" height="9.5"/>
<rect x="266.4" y="254" class="st0" width="17.2" height="11.4"/>
<rect x="309.7" y="224.9" class="st0" width="17.6" height="15.2"/>
<rect x="227.3" y="309.7" class="st0" width="7.6" height="6.7"/>
<rect x="256.4" y="322.6" class="st0" width="8.1" height="10"/>
<rect x="254.5" y="349.3" class="st0" width="25.3" height="11.4"/>
<rect x="294" y="365" class="st0" width="26.2" height="10"/>
<rect x="226.4" y="336.9" class="st0" width="8.6" height="8.6"/>
<rect x="185.4" y="325.5" class="st0" width="8.6" height="7.1"/>
<rect x="154.4" y="308.3" class="st0" width="11.4" height="10"/>
<rect x="253.5" y="379.3" class="st0" width="12.4" height="10.5"/>
<rect x="394.1" y="366" class="st0" width="11.9" height="8.6"/>
<rect x="407.9" y="337.8" class="st0" width="11.4" height="8.6"/>
<rect x="365" y="337.4" class="st0" width="14.3" height="10.5"/>
<rect x="336.9" y="337.8" class="st0" width="12.4" height="10.5"/>
<rect x="366" y="364.5" class="st0" width="25.7" height="10"/>
<rect x="281.2" y="322.6" class="st0" width="9.5" height="8.6"/>
<rect x="282.1" y="378.3" class="st0" width="11.9" height="11.4"/>
<rect x="171.1" y="350.2" class="st0" width="8.6" height="9.1"/>
<rect x="114.9" y="351.2" class="st0" width="9.1" height="9.1"/>
<rect x="297.6" y="295.7" class="st0" width="25" height="22.9"/>
<rect x="562.1" y="364.3" class="st0" width="26.3" height="9.6"/>
<rect x="605.1" y="351.9" class="st0" width="9.1" height="8.5"/>
<line class="st3" x1="259.2" y1="327.8" x2="344.8" y2="299.3"/>
<line class="st3" x1="382.1" y1="327.8" x2="427" y2="312.8"/>
<line class="st3" x1="259.1" y1="356" x2="404.7" y2="307.3"/>
<line class="st3" x1="606.2" y1="322.2" x2="623.6" y2="330.9"/>
<g>
	<path class="st4" d="M463.2,194l93.9-38.2h-0.2c1.8-0.3,3-2.1,3.1-4.9c0.1-3.9-2.1-8.2-5-9.6c-1.1-0.5-2.1-0.6-2.9-0.2l0.4-0.1
		l-93.2,24.5"/>
	<path class="st5" d="M447.9,192.6c-0.2,7.9-5.2,12.1-11,9.3s-10.4-11.5-10.2-19.4c0.2-7.9,5.2-12.1,11-9.3
		C443.5,176,448.1,184.7,447.9,192.6z"/>
</g>
<path class="st4" d="M552.4,141l-118.2,26.8l0,0c1.9-0.4,4-0.2,6.2,0.9c7.3,3.5,13,14.4,12.7,24.2c-0.2,6.1-2.6,10.4-6.2,12l0,0
	l7.8-3.5l102.4-45.7"/>
<path class="st6" d="M453.1,193c-0.3,9.9-6.4,15.1-13.7,11.6c-7.3-3.5-13-14.4-12.7-24.2c0.3-9.9,6.4-15.1,13.7-11.6
	S453.4,183.1,453.1,193z"/>
<path class="st7" d="M448,190.6c-0.2,6.1-4,9.3-8.5,7.1s-8-8.8-7.8-14.9c0.2-6.1,4-9.3,8.5-7.1C444.7,177.8,448.2,184.5,448,190.6z"
	/>
<path class="st8" d="M445.2,187.1c-0.1,2-1.3,3-2.8,2.3s-2.6-2.9-2.6-4.9c0.1-2,1.3-3,2.8-2.3C444.1,182.9,445.3,185.1,445.2,187.1z
	"/>
<polyline class="st9" points="474.2,153.5 481.6,157.2 481.6,209.2 278.9,276.7 278.9,276.7 271.5,273 271.5,262.1 474.2,153.5 "/>
<path class="st4" d="M481.6,157.2"/>
<path class="st10" d="M474.2,153.5l7.4,3.7"/>
<polyline class="st4" points="481.6,157.2 278.9,265.8 278.9,276.7 "/>
<polyline class="st4" points="623.6,216.4 520.4,164.8 520.4,193.3 "/>
<polyline class="st10" points="572,190.6 572,201.8 537.2,213.4 "/>
<polygon class="st2" points="623.6,226.8 623.6,322.9 646.2,315.3 794.7,193.5 794.7,170.4 711.9,208.8 711.9,194.2 "/>
<line class="st10" x1="623.6" y1="330.9" x2="646.2" y2="323.3"/>
<line class="st10" x1="646.2" y1="323.3" x2="794.7" y2="193.3"/>
<polygon class="st11" points="623.6,216.4 745.6,160.7 794.7,154.3 741.9,127.9 678.3,127.1 520.4,164.8 "/>
<line class="st10" x1="623.6" y1="216.4" x2="623.6" y2="330.9"/>
<polyline class="st2" points="715.5,179.1 715.5,202.3 790.7,168.1 790.7,159.2 746.3,165 715.5,179.1 "/>
<line class="st10" x1="745.5" y1="160.7" x2="678.2" y2="127"/>
<line class="st10" x1="543.4" y1="382.3" x2="619.7" y2="357.3"/>
<line class="st10" x1="625.3" y1="117.4" x2="704.4" y2="91.1"/>
<line class="st12" x1="582.4" y1="187.1" x2="699.8" y2="147.9"/>
<line class="st13" x1="684.7" y1="229.8" x2="690.6" y2="227.8"/>
<line class="st13" x1="684.7" y1="231.8" x2="690.6" y2="229.8"/>
<line class="st13" x1="684.7" y1="233.7" x2="690.6" y2="231.7"/>
<line class="st13" x1="684.7" y1="223.9" x2="690.6" y2="221.9"/>
<line class="st13" x1="684.7" y1="225.8" x2="690.6" y2="223.9"/>
<line class="st13" x1="684.7" y1="227.8" x2="690.6" y2="225.8"/>
<polygon class="st12" points="701.1,227.1 704.3,226 704.3,203.4 701.1,204.5 "/>
<line class="st12" x1="704.3" y1="218.5" x2="701.1" y2="219.6"/>
<polyline class="st4" points="656.7,244.8 649.3,241.1 446.7,349.6 446.7,360.6 454.1,364.3 "/>
<g>
	<polygon class="st2" points="454.6,353.6 656.2,245.6 656.2,296.4 454.6,363.6 	"/>
	<path class="st8" d="M655.7,246.4V296L455,362.9v-9L655.7,246.4 M656.7,244.8L454.1,353.3v11l202.7-67.6L656.7,244.8L656.7,244.8z"
		/>
</g>
<g>
	<g>
		<path class="st14" d="M606.8,302.4l-2.9,1v-1.9l2.1-10.9l1.5-0.5l-2.2,10.9l1.4-0.5v-4.1l1.5-0.5v4.1l0.7-0.2v1.9l-0.7,0.2v2.1
			l-1.5,0.5v-2.1H606.8z"/>
		<path class="st14" d="M609.7,289.3l2.1-0.7c0.8-0.3,1.5-0.2,1.9,0.3s0.7,1.3,0.7,2.5v6.7c0,1.3-0.2,2.4-0.7,3.2
			c-0.5,0.8-1.1,1.3-2,1.6l-2,0.7V289.3z M611.2,301.2l0.7-0.2c0.4-0.1,0.7-0.4,0.9-0.7c0.2-0.3,0.3-0.8,0.3-1.4V292
			c0-0.6-0.1-1-0.2-1.2s-0.5-0.3-0.9-0.2l-0.7,0.2L611.2,301.2L611.2,301.2z"/>
		<path class="st14" d="M615.8,287.3l2.1-0.7c0.5-0.2,0.9-0.2,1.2-0.1s0.6,0.3,0.8,0.5c0.2,0.3,0.4,0.6,0.4,1
			c0.1,0.4,0.1,0.8,0.1,1.3v0.5c0,0.4,0,0.7-0.1,1c0,0.3-0.1,0.5-0.2,0.8c-0.1,0.2-0.2,0.4-0.3,0.6s-0.3,0.4-0.4,0.6
			c0.3,0.1,0.6,0.4,0.8,0.8s0.2,1,0.2,1.7v0.8c0,1.3-0.2,2.3-0.6,3.1c-0.4,0.8-1.1,1.4-2.1,1.7l-2,0.7L615.8,287.3L615.8,287.3z
			 M617.3,292.7l0.7-0.2c0.5-0.2,0.8-0.4,1-0.8s0.2-0.9,0.2-1.6c0-0.6-0.1-1.1-0.3-1.3c-0.2-0.3-0.5-0.3-1-0.1l-0.6,0.2L617.3,292.7
			L617.3,292.7z M617.3,299l0.6-0.2c0.3-0.1,0.5-0.2,0.7-0.4c0.2-0.2,0.3-0.4,0.4-0.6c0.1-0.2,0.1-0.5,0.2-0.8c0-0.3,0-0.6,0-1
			s0-0.7,0-0.9s-0.1-0.5-0.2-0.6c-0.1-0.2-0.2-0.2-0.4-0.3c-0.2,0-0.4,0-0.6,0.1l-0.6,0.2v4.5H617.3z"/>
	</g>
</g>
<g>
	<path class="st4" d="M670.3,297.1l93.9-38.2H764c1.8-0.3,3-2.1,3.1-4.9c0.1-3.9-2.1-8.2-5-9.6c-1.1-0.5-2.1-0.6-3-0.2l0.4-0.1
		l-93.2,24.5"/>
	<path class="st5" d="M654.9,295.8c-0.2,7.9-5.2,12.1-11,9.3c-5.8-2.8-10.4-11.5-10.2-19.4s5.2-12.1,11-9.3
		C650.6,279.2,655.1,287.9,654.9,295.8z"/>
</g>
<path class="st4" d="M759.5,244.2L641.3,271l0,0c1.9-0.4,4-0.2,6.2,0.9c7.3,3.5,13,14.4,12.7,24.2c-0.2,6.1-2.6,10.5-6.2,12l0,0
	l7.8-3.5l102.4-45.7"/>
<path class="st6" d="M660.2,296.2c-0.3,9.9-6.4,15.1-13.7,11.6s-13-14.4-12.7-24.2c0.3-9.9,6.4-15.1,13.7-11.6
	C654.8,275.4,660.5,286.3,660.2,296.2z"/>
<path class="st7" d="M655.1,293.7c-0.2,6.1-4,9.3-8.5,7.1c-4.5-2.2-8-8.8-7.8-14.9s4-9.3,8.5-7.1S655.3,287.6,655.1,293.7z"/>
<path class="st8" d="M652.3,290.2c-0.1,2-1.3,3-2.8,2.3s-2.6-2.9-2.5-4.9s1.3-3,2.8-2.3C651.2,286.1,652.3,288.2,652.3,290.2z"/>
<path class="st10" d="M598.1,212.3c-0.1,2.3-1.5,3.5-3.2,2.7s-3-3.4-3-5.7c0.1-2.3,1.5-3.5,3.2-2.7
	C596.8,207.5,598.1,210,598.1,212.3z"/>
<line class="st10" x1="595" y1="210.8" x2="572" y2="218.5"/>
<path class="st10" d="M554.8,191.2c-0.1,2.3-1.5,3.5-3.2,2.7s-3-3.4-3-5.7c0.1-2.3,1.5-3.5,3.2-2.7
	C553.5,186.4,554.8,188.9,554.8,191.2z"/>
<line class="st10" x1="551.7" y1="189.7" x2="528.7" y2="197.4"/>
<path class="st4" d="M616,319.5c-0.1,2.3-1.5,3.5-3.2,2.7s-3-3.4-3-5.7c0.1-2.3,1.5-3.5,3.2-2.7C614.8,314.7,616.1,317.2,616,319.5z
	"/>
<line class="st10" x1="612.9" y1="318" x2="589.9" y2="325.7"/>
<polygon class="st15" points="604.5,159.7 624.2,169.5 649.6,161 630,151.2 "/>
<path class="st15" d="M637.5,161.5c-1.9,2.4-8.2,3.9-14,3.2s-8.9-3.2-7-5.6c1.9-2.4,8.2-3.9,14-3.2
	C636.3,156.6,639.4,159.1,637.5,161.5z"/>
<path class="st16" d="M637.6,179.8c0,0.7,1.9,3.9,4,3.9c2-0.1,3.4-3.5,3.4-4.2s-1.7-1.2-3.7-1.1
	C639.1,178.5,637.5,179.1,637.6,179.8z"/>
<path class="st16" d="M637.6,179.8c0,0.7,1.7,1.2,3.7,1.1c2-0.1,3.6-0.7,3.6-1.4s-1.7-1.2-3.7-1.1
	C639.1,178.5,637.5,179.1,637.6,179.8z"/>
<polyline class="st17" points="656.7,243.3 649.3,239.6 627,251.6 "/>
<line class="st10" x1="38.3" y1="327.1" x2="199.7" y2="273.4"/>
<line class="st10" x1="742.8" y1="87.4" x2="774.6" y2="76.8"/>
<line class="st10" x1="399.1" y1="104.3" x2="438.6" y2="91.1"/>
<polyline class="st18" points="407.6,321.3 400,330.7 400,336.8 "/>
<polygon class="st19" points="460.8,297.3 570,222.8 509.5,192.5 395,264.3 "/>
<polygon class="st20" points="460.8,310.3 393.1,276.5 393.1,267.7 460.8,301.6 "/>
<polygon class="st2" points="438.6,315.8 370.9,281.9 370.9,276.6 438.6,310.4 "/>
<polyline class="st10" points="377.6,277.9 377.6,272.8 445.2,306.6 "/>
<polyline class="st10" points="381.5,290.1 369.3,284 369.3,275.3 407.4,294.4 436.9,309.1 "/>
<polyline class="st3" points="354.8,289.2 354.8,280.5 422.5,314.3 "/>
<line class="st10" x1="586.2" y1="185.8" x2="699.8" y2="147.9"/>
<polyline class="st10" points="570,222.8 570,280.9 570,281.2 400,336.8 "/>
<polyline class="st15" points="570,264.1 593.1,256.3 584.9,252.5 584.9,235.3 593.1,239 570,246.8 "/>
</svg>
