<?xml version="1.0" encoding="utf-8"?>
<!-- Generator: Adobe Illustrator 19.2.1, SVG Export Plug-In . SVG Version: 6.00 Build 0)  -->
<svg version="1.1" xmlns="http://www.w3.org/2000/svg" xmlns:xlink="http://www.w3.org/1999/xlink" x="0px" y="0px"
	 viewBox="0 0 685.7 602.7" style="enable-background:new 0 0 685.7 602.7;" xml:space="preserve">
<style type="text/css">
	.st0{fill:#F1F1F1;}
	.st1{fill:none;stroke:#7629F4;stroke-linecap:round;stroke-linejoin:round;stroke-miterlimit:10;}
	.st2{fill:#F5F5F5;stroke:#7629F4;stroke-miterlimit:10;}
	.st3{fill:#7629F4;stroke:#7629F4;stroke-miterlimit:10;}
	.st4{fill:#FFFFFF;stroke:#7629F4;stroke-miterlimit:10;}
	.st5{fill:#7629F4;stroke:#FFFFFF;stroke-miterlimit:10;}
	.st6{fill:#FFFFFF;}
	.st7{fill:#F5F5F5;stroke:#7629F4;stroke-linecap:round;stroke-linejoin:round;stroke-miterlimit:10;}
	.st8{fill:none;stroke:#7629F4;stroke-miterlimit:10;}
	.st9{fill:#7629F4;}
	.st10{fill:#FFFFFF;stroke:#7629F4;stroke-linecap:round;stroke-linejoin:round;stroke-miterlimit:10;}
	.st11{fill:none;stroke:#FFFFFF;stroke-miterlimit:10;}
	.st12{fill:none;stroke:#FFFFFF;stroke-linecap:round;stroke-linejoin:round;stroke-miterlimit:10;}
	.st13{fill:#F5F5F5;}
	.st14{fill:none;stroke:#762AF3;stroke-linecap:round;stroke-linejoin:round;stroke-miterlimit:10;}
	.st15{fill:#FFFFFF;stroke:#762AF3;stroke-linecap:round;stroke-linejoin:round;stroke-miterlimit:10;}
	.st16{fill:none;stroke:#F5F5F5;stroke-miterlimit:10;}
	.st17{fill:#F1F1F1;stroke:#7629F4;stroke-miterlimit:10;}
	.st18{fill:#FFFFFF;stroke:#7629F4;stroke-linejoin:round;stroke-miterlimit:10;}
	.st19{fill:#7629F4;stroke:#7629F4;stroke-linecap:round;stroke-linejoin:round;stroke-miterlimit:10;}
	.st20{fill:#222222;}
</style>
<g id="Layer_1">
	<rect x="302.6" y="361.1" class="st0" width="310.7" height="124.6"/>
	<rect x="347.5" y="332.2" class="st0" width="264.6" height="125.2"/>
	<rect x="178.9" y="430.7" class="st0" width="338.5" height="113"/>
	<rect x="277.5" y="550.9" class="st0" width="53.1" height="27.5"/>
	<rect x="492.4" y="470.1" class="st0" width="80.2" height="41.2"/>
	<rect x="494.2" y="501.6" class="st0" width="35" height="24.7"/>
	<rect x="327" y="542.9" class="st0" width="35" height="24.7"/>
	<rect x="249.2" y="555.7" class="st0" width="35" height="24.7"/>
	<rect x="588" y="351.1" class="st0" width="52.2" height="72.7"/>
	<rect x="129.9" y="463.6" class="st0" width="62" height="40"/>
	<rect x="160.9" y="503.6" class="st0" width="31" height="15.9"/>
	<rect x="160.7" y="517.4" class="st0" width="42" height="26.3"/>
	<rect x="271.2" y="564.7" class="st0" width="37.9" height="28.3"/>
	<rect x="623" y="353.9" class="st0" width="23.9" height="64"/>
	<rect x="579.1" y="296.9" class="st0" width="8.9" height="8.9"/>
	<rect x="476.7" y="281.6" class="st0" width="13.3" height="12.7"/>
	<rect x="425.9" y="325.6" class="st0" width="52" height="12.7"/>
	<rect x="398.6" y="298.9" class="st0" width="23.3" height="8"/>
	<rect x="353.9" y="324.2" class="st0" width="11.3" height="12"/>
	<rect x="225.9" y="311.6" class="st0" width="60" height="13.3"/>
	<rect x="551.9" y="509.6" class="st0" width="10" height="8"/>
	<rect x="592.6" y="509.6" class="st0" width="10.7" height="8.7"/>
	<rect x="635.9" y="465.6" class="st0" width="10" height="10"/>
	<rect x="617.9" y="419.6" class="st0" width="12.7" height="12"/>
	<rect x="465.3" y="543.6" class="st0" width="11.3" height="16.7"/>
	<rect x="366.6" y="546.9" class="st0" width="13.3" height="12"/>
	<rect x="355.6" y="574.9" class="st0" width="12" height="11.3"/>
	<rect x="601.9" y="340.9" class="st0" width="16.7" height="10.7"/>
	<rect x="523.3" y="269.6" class="st0" width="10" height="10"/>
	<rect x="130.6" y="452.2" class="st0" width="22.7" height="13.3"/>
	<rect x="157.9" y="436.9" class="st0" width="19.3" height="18"/>
	<rect x="185.9" y="424.2" class="st0" width="30.7" height="15.3"/>
	<rect x="103.9" y="520.2" class="st0" width="25.3" height="10.7"/>
	<rect x="145.3" y="564.2" class="st0" width="8" height="10.7"/>
	<rect x="283.1" y="367.7" class="st0" width="24.1" height="19.2"/>
	<rect x="317" y="354.6" class="st0" width="48.7" height="17"/>
	<rect x="243.1" y="381.4" class="st0" width="47.6" height="15.9"/>
	<rect x="382.9" y="323.9" class="st0" width="11" height="13"/>
	<rect x="382.9" y="269.9" class="st0" width="12" height="11"/>
	<rect x="324.9" y="268.9" class="st0" width="12" height="11"/>
	<rect x="621.6" y="326.3" class="st0" width="10" height="7.6"/>
	<rect x="507.7" y="326.3" class="st0" width="67.2" height="12.4"/>
	<rect x="452.4" y="297.8" class="st0" width="10.5" height="9.1"/>
	<rect x="578.7" y="324.9" class="st0" width="11.4" height="8.6"/>
	<rect x="607.7" y="313" class="st0" width="10" height="7.1"/>
	<rect x="647.8" y="411.1" class="st0" width="9.5" height="6.7"/>
	<rect x="646.8" y="439.3" class="st0" width="12.9" height="8.6"/>
	<rect x="620.1" y="452.1" class="st0" width="10" height="10"/>
	<rect x="550.6" y="474" class="st0" width="65.7" height="16.7"/>
	<rect x="621.6" y="508.8" class="st0" width="12.4" height="9.5"/>
	<rect x="595.4" y="536.5" class="st0" width="7.6" height="8.1"/>
	<rect x="536.7" y="550.3" class="st0" width="10" height="9.5"/>
	<rect x="481" y="548.8" class="st0" width="7.1" height="10.5"/>
	<rect x="506.7" y="563.1" class="st0" width="11.9" height="11"/>
	<rect x="452.4" y="549.3" class="st0" width="13.8" height="10.5"/>
	<rect x="410" y="563.6" class="st0" width="10.5" height="10.5"/>
	<rect x="382.9" y="548.4" class="st0" width="9.5" height="11"/>
	<rect x="319.5" y="559.8" class="st0" width="15.2" height="14.8"/>
	<rect x="258" y="542.6" class="st0" width="32.9" height="17.6"/>
	<rect x="213.2" y="548.4" class="st0" width="11.4" height="10.5"/>
	<rect x="227.5" y="564.6" class="st0" width="12.4" height="11"/>
	<rect x="243.3" y="591.2" class="st0" width="10.5" height="10"/>
	<rect x="131.3" y="522.2" class="st0" width="9.5" height="11.9"/>
	<rect x="225.6" y="545" class="st0" width="14.3" height="13.3"/>
	<rect x="184.7" y="564.1" class="st0" width="13.3" height="10"/>
	<rect x="202.8" y="592.2" class="st0" width="10" height="9.5"/>
	<rect x="130.8" y="548.8" class="st0" width="9.5" height="9.5"/>
	<rect x="144.2" y="508.8" class="st0" width="14.3" height="11.4"/>
	<rect x="101.8" y="492.6" class="st0" width="13.3" height="9.5"/>
	<rect x="101.3" y="466.9" class="st0" width="17.2" height="11.4"/>
	<rect x="144.6" y="437.8" class="st0" width="17.6" height="15.2"/>
	<rect x="62.2" y="522.6" class="st0" width="7.6" height="6.7"/>
	<rect x="91.3" y="535.5" class="st0" width="8.1" height="10"/>
	<rect x="89.4" y="562.2" class="st0" width="25.3" height="11.4"/>
	<rect x="129.9" y="577.9" class="st0" width="26.2" height="10"/>
	<rect x="61.3" y="549.8" class="st0" width="8.6" height="8.6"/>
	<rect x="89.4" y="592.2" class="st0" width="12.4" height="10.5"/>
	<rect x="230" y="578.9" class="st0" width="11.9" height="8.6"/>
	<rect x="242.8" y="550.7" class="st0" width="11.4" height="8.6"/>
	<rect x="199.9" y="550.3" class="st0" width="14.3" height="10.5"/>
	<rect x="171.8" y="550.7" class="st0" width="12.4" height="10.5"/>
	<rect x="201.9" y="577.4" class="st0" width="25.7" height="10"/>
	<rect x="116.1" y="535.5" class="st0" width="9.5" height="8.6"/>
	<rect x="118" y="591.2" class="st0" width="11.9" height="11.4"/>
	<rect x="132.5" y="508.6" class="st0" width="25" height="22.9"/>
	<rect x="398" y="577.2" class="st0" width="26.3" height="9.6"/>
	<rect x="440" y="564.8" class="st0" width="9.1" height="8.5"/>
	<line class="st1" x1="94.1" y1="540.7" x2="179.7" y2="512.2"/>
	<line class="st1" x1="217" y1="540.7" x2="261.9" y2="525.7"/>
	<line class="st1" x1="94" y1="568.9" x2="239.6" y2="520.2"/>
	<line class="st1" x1="441.1" y1="535.1" x2="458.5" y2="543.8"/>
	<g>
		<path class="st2" d="M298.1,406.9l93.9-38.2h-0.2c1.8-0.3,3-2.1,3.1-4.9c0.1-3.9-2.1-8.2-5-9.6c-1.1-0.5-2.1-0.6-2.9-0.2l0.4-0.1
			l-93.2,24.5"/>
		<path class="st3" d="M282.8,405.5c-0.2,7.9-5.2,12.1-11,9.3c-5.8-2.8-10.4-11.5-10.2-19.4c0.2-7.9,5.2-12.1,11-9.3
			C278.4,388.9,283,397.6,282.8,405.5z"/>
	</g>
	<path class="st2" d="M387.3,353.9l-118.2,26.8l0,0c1.9-0.4,4-0.2,6.2,0.9c7.3,3.5,13,14.4,12.7,24.2c-0.2,6.1-2.6,10.4-6.2,12l0,0
		l7.8-3.5L392,368.6"/>
	<path class="st4" d="M288,405.9c-0.3,9.9-6.4,15.1-13.7,11.6c-7.3-3.5-13-14.4-12.7-24.2c0.3-9.9,6.4-15.1,13.7-11.6
		S288.3,396,288,405.9z"/>
	<path class="st5" d="M282.9,403.5c-0.2,6.1-4,9.3-8.5,7.1c-4.5-2.2-8-8.8-7.8-14.9c0.2-6.1,4-9.3,8.5-7.1
		C279.6,390.7,283.1,397.4,282.9,403.5z"/>
	<path class="st6" d="M280.1,400c-0.1,2-1.3,3-2.8,2.3c-1.5-0.7-2.6-2.9-2.6-4.9c0.1-2,1.3-3,2.8-2.3C279,395.8,280.2,398,280.1,400
		z"/>
	<polyline class="st7" points="309.1,366.4 316.5,370.1 316.5,422.1 113.8,489.6 113.8,489.6 106.4,485.9 106.4,475 309.1,366.4 	
		"/>
	<path class="st2" d="M316.5,370.1"/>
	<path class="st8" d="M309.1,366.4l7.4,3.7"/>
	<polyline class="st2" points="316.5,370.1 113.8,478.7 113.8,489.6 	"/>
	<polyline class="st2" points="458.5,429.3 355.3,377.7 355.3,406.2 	"/>
	<polyline class="st8" points="406.9,403.5 406.9,414.7 372.1,426.3 	"/>
	<polygon class="st9" points="458.5,439.7 458.5,535.8 481.1,528.2 629.6,406.4 629.6,383.3 546.8,421.7 546.8,407.1 	"/>
	<line class="st8" x1="458.5" y1="543.8" x2="481.1" y2="536.2"/>
	<line class="st8" x1="481.1" y1="536.2" x2="629.6" y2="406.2"/>
	<polygon class="st10" points="458.5,429.3 580.5,373.6 629.6,367.2 576.8,340.8 513.2,340 355.3,377.7 	"/>
	<line class="st8" x1="458.5" y1="429.3" x2="458.5" y2="543.8"/>
	<polyline class="st9" points="550.4,392 550.4,415.2 625.6,381 625.6,372.1 581.2,377.9 550.4,392 	"/>
	<line class="st8" x1="580.4" y1="373.6" x2="513.1" y2="339.9"/>
	<line class="st8" x1="379.3" y1="595.2" x2="455.6" y2="570.2"/>
	<line class="st8" x1="460.2" y1="330.3" x2="539.3" y2="304"/>
	<line class="st11" x1="417.3" y1="400" x2="534.7" y2="360.8"/>
	<line class="st12" x1="519.6" y1="442.7" x2="525.5" y2="440.7"/>
	<line class="st12" x1="519.6" y1="444.7" x2="525.5" y2="442.7"/>
	<line class="st12" x1="519.6" y1="446.6" x2="525.5" y2="444.6"/>
	<line class="st12" x1="519.6" y1="436.8" x2="525.5" y2="434.8"/>
	<line class="st12" x1="519.6" y1="438.7" x2="525.5" y2="436.8"/>
	<line class="st12" x1="519.6" y1="440.7" x2="525.5" y2="438.7"/>
	<polygon class="st11" points="536,440 539.2,438.9 539.2,416.3 536,417.4 	"/>
	<line class="st11" x1="539.2" y1="431.4" x2="536" y2="432.5"/>
	<polyline class="st2" points="491.6,457.7 484.2,454 281.6,562.5 281.6,573.5 289,577.2 	"/>
	<g>
		<polygon class="st9" points="289.5,566.5 491.1,458.5 491.1,509.3 289.5,576.5 		"/>
		<path class="st6" d="M490.6,459.3v49.6l-200.7,66.9v-9L490.6,459.3 M491.6,457.7L289,566.2v11l202.7-67.6L491.6,457.7L491.6,457.7
			z"/>
	</g>
	<g>
		<g>
			<path class="st13" d="M441.7,515.3l-2.9,1v-1.9l2.1-10.9l1.5-0.5l-2.2,10.9l1.4-0.5v-4.1l1.5-0.5v4.1l0.7-0.2v1.9l-0.7,0.2v2.1
				l-1.5,0.5v-2.1H441.7z"/>
			<path class="st13" d="M444.6,502.2l2.1-0.7c0.8-0.3,1.5-0.2,1.9,0.3s0.7,1.3,0.7,2.5v6.7c0,1.3-0.2,2.4-0.7,3.2s-1.1,1.3-2,1.6
				l-2,0.7V502.2z M446.1,514.1l0.7-0.2c0.4-0.1,0.7-0.4,0.9-0.7c0.2-0.3,0.3-0.8,0.3-1.4v-6.9c0-0.6-0.1-1-0.2-1.2
				s-0.5-0.3-0.9-0.2l-0.7,0.2L446.1,514.1L446.1,514.1z"/>
			<path class="st13" d="M450.7,500.2l2.1-0.7c0.5-0.2,0.9-0.2,1.2-0.1s0.6,0.3,0.8,0.5c0.2,0.3,0.4,0.6,0.4,1
				c0.1,0.4,0.1,0.8,0.1,1.3v0.5c0,0.4,0,0.7-0.1,1c0,0.3-0.1,0.5-0.2,0.8c-0.1,0.2-0.2,0.4-0.3,0.6s-0.3,0.4-0.4,0.6
				c0.3,0.1,0.6,0.4,0.8,0.8s0.2,1,0.2,1.7v0.8c0,1.3-0.2,2.3-0.6,3.1c-0.4,0.8-1.1,1.4-2.1,1.7l-2,0.7L450.7,500.2L450.7,500.2z
				 M452.2,505.6l0.7-0.2c0.5-0.2,0.8-0.4,1-0.8s0.2-0.9,0.2-1.6c0-0.6-0.1-1.1-0.3-1.3c-0.2-0.3-0.5-0.3-1-0.1l-0.6,0.2
				L452.2,505.6L452.2,505.6z M452.2,511.9l0.6-0.2c0.3-0.1,0.5-0.2,0.7-0.4c0.2-0.2,0.3-0.4,0.4-0.6c0.1-0.2,0.1-0.5,0.2-0.8
				c0-0.3,0-0.6,0-1s0-0.7,0-0.9s-0.1-0.5-0.2-0.6c-0.1-0.2-0.2-0.2-0.4-0.3c-0.2,0-0.4,0-0.6,0.1l-0.6,0.2v4.5L452.2,511.9
				L452.2,511.9z"/>
		</g>
	</g>
	<g>
		<path class="st2" d="M505.2,510l93.9-38.2h-0.2c1.8-0.3,3-2.1,3.1-4.9c0.1-3.9-2.1-8.2-5-9.6c-1.1-0.5-2.1-0.6-3-0.2l0.4-0.1
			l-93.2,24.5"/>
		<path class="st3" d="M489.8,508.7c-0.2,7.9-5.2,12.1-11,9.3c-5.8-2.8-10.4-11.5-10.2-19.4s5.2-12.1,11-9.3
			C485.5,492.1,490,500.8,489.8,508.7z"/>
	</g>
	<path class="st2" d="M594.4,457.1l-118.2,26.8l0,0c1.9-0.4,4-0.2,6.2,0.9c7.3,3.5,13,14.4,12.7,24.2c-0.2,6.1-2.6,10.5-6.2,12l0,0
		l7.8-3.5l102.4-45.7"/>
	<path class="st4" d="M495.1,509.1c-0.3,9.9-6.4,15.1-13.7,11.6s-13-14.4-12.7-24.2c0.3-9.9,6.4-15.1,13.7-11.6
		C489.7,488.3,495.4,499.2,495.1,509.1z"/>
	<path class="st5" d="M490,506.6c-0.2,6.1-4,9.3-8.5,7.1c-4.5-2.2-8-8.8-7.8-14.9s4-9.3,8.5-7.1S490.2,500.5,490,506.6z"/>
	<path class="st6" d="M487.2,503.1c-0.1,2-1.3,3-2.8,2.3s-2.6-2.9-2.5-4.9s1.3-3,2.8-2.3C486.1,499,487.2,501.1,487.2,503.1z"/>
	<path class="st8" d="M433,425.2c-0.1,2.3-1.5,3.5-3.2,2.7c-1.7-0.8-3-3.4-3-5.7c0.1-2.3,1.5-3.5,3.2-2.7
		C431.7,420.4,433,422.9,433,425.2z"/>
	<line class="st8" x1="429.9" y1="423.7" x2="406.9" y2="431.4"/>
	<path class="st8" d="M389.7,404.1c-0.1,2.3-1.5,3.5-3.2,2.7c-1.7-0.8-3-3.4-3-5.7c0.1-2.3,1.5-3.5,3.2-2.7
		C388.4,399.3,389.7,401.8,389.7,404.1z"/>
	<line class="st8" x1="386.6" y1="402.6" x2="363.6" y2="410.3"/>
	<path class="st2" d="M450.9,532.4c-0.1,2.3-1.5,3.5-3.2,2.7s-3-3.4-3-5.7c0.1-2.3,1.5-3.5,3.2-2.7
		C449.7,527.6,451,530.1,450.9,532.4z"/>
	<line class="st8" x1="447.8" y1="530.9" x2="424.8" y2="538.6"/>
	<polygon class="st14" points="439.4,372.6 459.1,382.4 484.5,373.9 464.9,364.1 	"/>
	<path class="st14" d="M472.4,374.4c-1.9,2.4-8.2,3.9-14,3.2c-5.8-0.7-8.9-3.2-7-5.6c1.9-2.4,8.2-3.9,14-3.2S474.3,372,472.4,374.4z
		"/>
	<path class="st15" d="M472.5,392.7c0,0.7,1.9,3.9,4,3.9c2-0.1,3.4-3.5,3.4-4.2c0-0.7-1.7-1.2-3.7-1.1
		C474,391.4,472.4,392,472.5,392.7z"/>
	<path class="st15" d="M472.5,392.7c0,0.7,1.7,1.2,3.7,1.1s3.6-0.7,3.6-1.4c0-0.7-1.7-1.2-3.7-1.1C474,391.4,472.4,392,472.5,392.7z
		"/>
	<polyline class="st16" points="491.6,456.2 484.2,452.5 461.9,464.5 	"/>
	<line class="st8" x1="-25.8" y1="456.2" x2="135.6" y2="402.5"/>
	<line class="st8" x1="577.7" y1="300.3" x2="609.5" y2="289.7"/>
	<line class="st8" x1="234" y1="317.2" x2="273.5" y2="304"/>
	<polyline class="st17" points="242.5,534.2 234.9,543.6 234.9,549.7 	"/>
	<polygon class="st18" points="295.7,510.2 404.9,435.7 344.4,405.4 229.9,477.2 	"/>
	<polygon class="st19" points="295.7,523.2 228,489.4 228,480.6 295.7,514.5 	"/>
	<polygon class="st9" points="273.5,528.7 205.8,494.8 205.8,489.5 273.5,523.3 	"/>
	<polyline class="st8" points="212.5,490.8 212.5,485.7 280.1,519.5 	"/>
	<polyline class="st8" points="216.4,503 204.2,496.9 204.2,488.2 242.3,507.3 271.8,522 	"/>
	<polyline class="st1" points="189.7,502.1 189.7,493.4 257.4,527.2 	"/>
	<line class="st8" x1="421.1" y1="398.7" x2="534.7" y2="360.8"/>
	<polyline class="st8" points="404.9,435.7 404.9,493.8 404.9,494.1 234.9,549.7 	"/>
	<polyline class="st14" points="404.9,477 428,469.2 419.8,465.4 419.8,448.2 428,451.9 404.9,459.7 	"/>
	<polygon class="st0" points="111.3,144.4 557.4,0 558.2,98.7 461.3,129.7 462.5,197.2 583.3,158 585.1,231.8 154.9,370.7 
		155,299.7 236.2,272.8 235.4,204.6 111.6,247.6 	"/>
	<g>
		<g>
			<g>
				<path class="st20" d="M254.3,199.4l9.6-3.2c3.6-1.2,6.5-0.8,8.4,1.6c1.9,2.2,2.8,5.9,2.8,11v29.5c0,5.9-1,10.6-3.1,14.1
					c-2.1,3.5-4.9,5.8-8.8,7.1l-8.9,3C254.3,262.4,254.3,199.4,254.3,199.4z M260.7,251.9l3-1c1.8-0.6,3.1-1.7,3.9-3.2
					c0.8-1.6,1.2-3.6,1.2-6.3v-30.4c0-2.5-0.4-4.3-1-5.4c-0.8-1.2-2.1-1.4-3.9-0.8l-3,1L260.7,251.9L260.7,251.9z"/>
				<path class="st20" d="M287.5,188.4l5.3-1.8l10.1,59.7l-6.5,2.2l-1.9-12.9l-8.8,3l-1.9,14.2l-6.5,2.2L287.5,188.4z M290.3,205.6
					L290.3,205.6l-3.2,23.9l6.5-2.2L290.3,205.6z"/>
				<path class="st20" d="M306.8,190.5l-7.5,2.5v-8.5l21.3-7.1v8.5l-7.5,2.5v54.6l-6.5,2.2v-54.6L306.8,190.5L306.8,190.5z"/>
				<path class="st20" d="M327.2,175.2l5.3-1.8l10.1,59.7l-6.5,2.2l-1.9-12.9l-8.8,3l-1.9,14.2l-6.5,2.2L327.2,175.2z M330,192.4
					L330,192.4l-3.2,23.9l6.5-2.2L330,192.4z"/>
				<path class="st20" d="M345.7,169l9.4-3.1c2.1-0.6,3.9-0.8,5.3-0.4c1.4,0.4,2.6,1.2,3.6,2.3c0.9,1.2,1.6,2.6,1.9,4.4
					s0.6,3.7,0.6,5.8v2.3c0,1.7-0.1,3.2-0.3,4.4c-0.1,1.3-0.5,2.3-0.9,3.4c-0.4,1-0.9,1.9-1.4,2.8c-0.5,0.9-1.2,1.7-1.9,2.6
					c1.6,0.5,2.6,1.7,3.4,3.4c0.8,1.7,1,4.3,1,7.6v3.5c0,5.6-0.9,10.1-2.8,13.7c-1.9,3.6-4.9,6.1-9.2,7.5l-8.8,3L345.7,169
					L345.7,169z M352.2,192.8l2.8-0.9c2.2-0.8,3.6-1.9,4.3-3.7c0.8-1.8,1.2-4.1,1.2-7s-0.4-4.8-1.3-5.9c-0.8-1.2-2.3-1.4-4.4-0.6
					l-2.6,0.9V192.8z M352.2,221l2.7-0.9c1.3-0.4,2.3-1,3.1-1.8c0.8-0.8,1.3-1.7,1.7-2.7c0.4-1,0.6-2.3,0.6-3.6
					c0.1-1.3,0.1-2.7,0.1-4.3s0-3-0.1-4.1s-0.4-2.1-0.8-2.7s-0.9-1-1.7-1.3c-0.8-0.1-1.7-0.1-2.8,0.3l-2.8,0.9V221z"/>
				<path class="st20" d="M379,157.9l5.3-1.8l10.1,59.7l-6.5,2.2l-1.9-12.9l-8.8,3l-1.9,14.2l-6.5,2.2L379,157.9z M381.7,175.2
					L381.7,175.2l-3.2,23.9l6.5-2.2L381.7,175.2z"/>
				<path class="st20" d="M418.4,163l-6.5,2.2v-2.1c0-2.1-0.4-3.7-1-5s-1.8-1.7-3.5-1c-0.9,0.3-1.6,0.8-2.2,1.4
					c-0.5,0.6-1,1.4-1.3,2.2c-0.3,0.9-0.5,1.8-0.6,2.8c-0.1,1-0.1,2.1-0.1,3.1c0,1.3,0,2.3,0.1,3.1c0,0.8,0.3,1.6,0.5,2.1
					c0.3,0.5,0.6,0.9,1.2,1.3c0.5,0.3,1.2,0.5,1.9,0.8l4.9,1.2c1.4,0.3,2.6,0.8,3.5,1.6c0.9,0.8,1.6,1.7,2.1,3
					c0.5,1.3,0.8,2.7,1,4.5c0.1,1.8,0.3,3.7,0.3,6.1c0,2.7-0.1,5.2-0.5,7.6c-0.4,2.5-1,4.5-1.8,6.5c-0.9,1.9-2.1,3.6-3.5,5
					s-3.2,2.5-5.3,3.1c-1.6,0.5-3,0.6-4.4,0.3c-1.3-0.3-2.5-1-3.5-1.9c-0.9-1-1.7-2.3-2.3-4c-0.5-1.7-0.9-3.5-0.9-5.7v-3.4l6.5-2.2
					v2.8c0,1.7,0.4,3,1,4.1s1.8,1.4,3.5,0.8c1-0.4,1.9-0.9,2.6-1.6c0.6-0.6,1-1.4,1.4-2.3c0.3-0.9,0.5-1.9,0.6-3.2
					c0.1-1.2,0.1-2.6,0.1-3.9c0-1.7,0-3-0.1-4c-0.1-1-0.3-1.8-0.5-2.5c-0.3-0.5-0.6-0.9-1.2-1.2c-0.5-0.3-1.2-0.5-1.9-0.6l-4.7-1.2
					c-2.7-0.6-4.7-2.2-5.6-4.5c-0.9-2.3-1.4-5.4-1.4-9.4c0-2.3,0.3-4.7,0.6-7c0.5-2.3,1.2-4.4,2.1-6.2c0.9-1.8,2.1-3.5,3.5-4.8
					c1.4-1.4,3-2.3,4.9-3c1.6-0.5,3.1-0.6,4.4-0.3c1.3,0.4,2.5,1.2,3.4,2.2s1.7,2.3,2.2,3.9s0.8,3.1,0.8,4.9v4.4L418.4,163
					L418.4,163z"/>
				<path class="st20" d="M423.2,143.3l19.1-6.3v8.5l-12.8,4.3v18.4l11.1-3.7v8.5l-11.1,3.7v18.6l12.8-4.3v9.1l-19.1,6.3V143.3z"/>
			</g>
		</g>
		<g>
			<g>
				<path class="st20" d="M130.2,158.8l9.6-3.2c3.6-1.2,6.5-0.8,8.4,1.6c1.9,2.2,2.8,5.9,2.8,11v29.5c0,5.9-1,10.6-3.1,14.1
					c-2.1,3.5-4.9,5.8-8.8,7.1l-8.9,3V158.8z M136.5,211.3l3-1c1.8-0.6,3.1-1.7,3.9-3.2c0.8-1.6,1.2-3.6,1.2-6.3v-30.4
					c0-2.5-0.4-4.3-1-5.4c-0.8-1.2-2.1-1.4-3.9-0.8l-3,1L136.5,211.3L136.5,211.3z"/>
				<path class="st20" d="M156.6,164.9c0-2.6,0.3-4.9,0.9-7.1c0.6-2.2,1.4-4,2.5-5.7c1-1.6,2.2-3,3.5-4c1.3-1,2.6-1.8,3.9-2.3
					c1.3-0.4,2.6-0.5,3.9-0.3c1.3,0.3,2.5,0.8,3.5,1.7c1,0.9,1.8,2.2,2.5,4c0.6,1.7,0.9,3.9,0.9,6.5V191c0,2.6-0.3,4.9-0.9,7.1
					c-0.6,2.1-1.4,4-2.5,5.6s-2.2,3-3.5,4c-1.3,1-2.6,1.8-3.9,2.3c-1.3,0.4-2.6,0.5-3.9,0.3c-1.3-0.3-2.5-0.8-3.5-1.7
					c-1-0.9-1.8-2.2-2.5-4c-0.6-1.7-0.9-3.9-0.9-6.5V164.9z M163,196c0,2.2,0.4,3.6,1.3,4.4c0.9,0.8,1.9,0.9,3.1,0.5
					s2.2-1.3,3.1-2.6c0.9-1.3,1.3-3.1,1.3-5.3v-33.4c0-2.2-0.4-3.6-1.3-4.4c-0.9-0.8-1.9-0.9-3.1-0.5s-2.2,1.3-3.1,2.6
					c-0.9,1.3-1.3,3.1-1.3,5.3V196z"/>
				<path class="st20" d="M204.3,183.1c0,1.9-0.3,3.9-0.8,5.8c-0.5,1.9-1.3,3.7-2.2,5.4s-2.1,3.1-3.2,4.3c-1.3,1.2-2.6,2.1-4,2.6
					c-1.2,0.4-2.5,0.5-3.7,0.5c-1.3,0-2.5-0.5-3.4-1.3c-1-0.8-1.8-2.1-2.5-3.7c-0.6-1.7-1-4-1-6.9V155c0-2.1,0.3-4.1,0.8-6.1
					c0.5-1.9,1.2-3.7,2.2-5.3c0.9-1.6,2.1-3,3.4-4.1c1.3-1.2,2.7-2.1,4.3-2.6c1.4-0.5,2.8-0.5,4.1-0.3c1.3,0.3,2.3,1,3.2,2.1
					c0.9,1,1.7,2.3,2.2,4c0.5,1.7,0.8,3.6,0.8,5.8v3.5l-6.5,2.2v-3c0-1.8-0.4-3.2-1-4.3c-0.8-1-1.7-1.4-2.8-1
					c-1.6,0.5-2.7,1.6-3.2,3.1s-0.8,3.4-0.8,5.6V187c0,1.8,0.3,3.2,0.9,4.3c0.5,1,1.6,1.3,3.1,0.9c0.4-0.1,0.9-0.4,1.3-0.8
					c0.5-0.4,0.9-0.9,1.3-1.4c0.4-0.6,0.8-1.4,1-2.3c0.3-0.9,0.4-1.9,0.4-3.2v-3.1l6.5-2.2v4H204.3z"/>
				<path class="st20" d="M230.4,174.3c0,2.1-0.3,4.1-0.8,6.1s-1.3,3.7-2.2,5.4c-0.9,1.7-2.1,3.1-3.4,4.3s-2.6,2.1-4,2.5
					c-1.4,0.5-2.7,0.5-4,0.1c-1.3-0.4-2.3-1-3.4-2.1c-0.9-1-1.7-2.3-2.2-3.9c-0.5-1.6-0.8-3.4-0.8-5.4v-49l6.5-2.2v48.1
					c0,2.2,0.4,3.7,1.2,4.5c0.8,0.8,1.7,1,2.8,0.6s2.1-1.2,2.8-2.6c0.8-1.3,1.2-3.1,1.2-5.3v-48l6.5-2.2v49H230.4z"/>
				<path class="st20" d="M236.5,123.4l6.2-2.1l8.3,30.6h0.1l8.1-36.2l6.2-2.1v63.1L259,179v-38.4h-0.1l-6.3,29.2l-3.2,1l-6.3-25.1
					h-0.1v38.4l-6.5,2.2L236.5,123.4L236.5,123.4z"/>
				<path class="st20" d="M271.5,111.7l19.1-6.3v8.4l-12.8,4.3v18.5l11.1-3.7v8.5l-11.1,3.7v18.5l12.8-4.3v9.1l-19.1,6.3
					C271.5,174.7,271.5,111.7,271.5,111.7z"/>
				<path class="st20" d="M294.7,104.1l6.2-2.1l9.7,34.8h0.1V98.7l6.5-2.2v63.1l-6.1,2.1l-9.8-34.7h-0.1v37.9l-6.5,2.2V104.1z"/>
				<path class="st20" d="M327.1,101.8l-7.5,2.5v-8.5l21.3-7.1v8.5l-7.5,2.5v54.6l-6.5,2.2v-54.6H327.1z"/>
				<path class="st20" d="M355.2,98.8c0-2.6,0.3-4.9,0.9-7.1s1.4-4,2.5-5.7c1-1.6,2.2-3,3.5-4s2.6-1.8,3.9-2.3
					c1.3-0.4,2.6-0.5,3.9-0.3c1.3,0.3,2.5,0.8,3.5,1.7c1,0.9,1.8,2.3,2.5,4c0.6,1.7,0.9,3.9,0.9,6.5v33.4c0,2.6-0.3,4.9-0.9,7.1
					c-0.6,2.1-1.4,4-2.5,5.6c-1,1.6-2.2,3-3.5,4c-1.3,1-2.6,1.8-3.9,2.3c-1.3,0.4-2.6,0.5-3.9,0.3s-2.5-0.8-3.5-1.7s-1.8-2.2-2.5-4
					c-0.6-1.7-0.9-3.9-0.9-6.5V98.8z M361.6,129.9c0,2.2,0.4,3.6,1.3,4.4c0.9,0.8,1.9,0.9,3.1,0.5c1.2-0.4,2.2-1.3,3.1-2.6
					c0.9-1.3,1.3-3.1,1.3-5.3V93.7c0-2.2-0.4-3.6-1.3-4.4c-0.9-0.8-1.9-0.9-3.1-0.5c-1.2,0.4-2.2,1.3-3.1,2.6
					c-0.9,1.3-1.3,3.1-1.3,5.3V129.9z"/>
				<path class="st20" d="M382.5,74.9l10.3-3.5c7.6-2.5,11.4,2.5,11.4,14.7c0,3.6-0.4,7-1.3,9.8c-0.8,2.8-2.2,5.6-4.3,7.8l7,26.5
					l-6.9,2.3l-5.9-25l-3.9,1.3v26.9l-6.5,2.2V74.9L382.5,74.9z M388.9,100.9l3.6-1.2c1.2-0.4,2.1-0.9,2.7-1.6
					c0.6-0.6,1.2-1.4,1.6-2.5c0.4-0.9,0.6-2.1,0.8-3.4c0.1-1.3,0.1-2.7,0.1-4.3s0-3-0.1-4.1c-0.1-1.2-0.4-2.1-0.8-2.8
					c-0.4-0.8-0.9-1.2-1.7-1.3c-0.8-0.1-1.7-0.1-2.8,0.4l-3.4,1.2V100.9z"/>
				<path class="st20" d="M409.5,65.8l6.5-2.2v63.1l-6.5,2.2V65.8z"/>
				<path class="st20" d="M422.2,61.5l19.1-6.3v8.5L428.5,68v18.5l11.1-3.7v8.5L428.5,95v18.5l12.8-4.3v9.1l-19.1,6.3V61.5z"/>
				<path class="st20" d="M445.3,53.9l6.2-2.1l9.7,34.8h0.1v-38l6.5-2.2v63.1l-6.1,2.1l-9.8-34.7h-0.1v37.9l-6.5,2.2L445.3,53.9
					L445.3,53.9z"/>
				<path class="st20" d="M477.8,51.6l-7.5,2.5v-8.5l21.3-7.1v8.5l-7.5,2.5V104l-6.5,2.2L477.8,51.6L477.8,51.6z"/>
				<path class="st20" d="M494.6,37.5l19.1-6.3v8.5L500.9,44v18.5l11.1-3.7v8.5L500.9,71v18.5l12.8-4.3v9.1l-19.1,6.3V37.5z"/>
				<path class="st20" d="M517.8,29.7l9.6-3.2c3.6-1.2,6.5-0.8,8.4,1.6c1.9,2.2,2.8,5.9,2.8,11v29.5c0,5.9-1,10.6-3.1,14.1
					c-2.1,3.5-4.9,5.8-8.8,7.1l-8.9,3V29.7L517.8,29.7z M524.3,82.2l3-1c1.8-0.6,3.1-1.7,3.9-3.2c0.8-1.6,1.2-3.6,1.2-6.3V41.2
					c0-2.5-0.4-4.3-1-5.4c-0.8-1.2-2.1-1.4-3.9-0.8l-3,1v46.2H524.3z"/>
			</g>
		</g>
	</g>
	<g>
		<g>
			<g>
				<g>
					<path class="st9" d="M188,344.6l-3.5,1.2l-2.8-23h-0.1l-2.8,25l-3.5,1.2l-3.9-35.6l4-1.3l1.9,22.8h0.1l3-24.4l2.8-0.9l3.1,23
						h0.1l1.8-24.6l4-1.3L188,344.6z"/>
					<path class="st9" d="M195.1,305.3l3.7-1.3v37l-3.7,1.3V305.3z"/>
					<path class="st9" d="M205.7,306.7l-4.4,1.4v-4.9l12.4-4.1v4.9l-4.4,1.4v31.9l-3.7,1.3v-31.9L205.7,306.7L205.7,306.7z"/>
					<path class="st9" d="M216.2,298.2l3.7-1.3v15.8l4.7-1.6v-15.8l3.7-1.3v37l-3.7,1.3v-16.4l-4.7,1.6v16.4l-3.7,1.3V298.2z"/>
					<path class="st9" d="M249,315.5c0,1.2-0.1,2.5-0.4,3.6c-0.3,1.2-0.8,2.3-1.3,3.4s-1.2,1.9-2.1,2.6s-1.7,1.3-2.7,1.7
						c-1.2,0.4-2.2,0.4-3-0.1c-0.8-0.5-1.4-1-1.9-1.6l3-4.3c0.3,0.3,0.6,0.5,0.9,0.6c0.4,0.1,0.8,0.1,1.2,0c0.3-0.1,0.5-0.3,0.8-0.4
						c0.3-0.3,0.5-0.5,0.8-0.9c0.3-0.4,0.5-0.9,0.6-1.6s0.3-1.4,0.3-2.3v-27.5l3.7-1.3v28.1H249z"/>
					<path class="st9" d="M265.4,292.5l-3.7,1.3v-1.2c0-1.2-0.3-2.2-0.6-3s-1-0.9-2.1-0.6c-0.5,0.1-0.9,0.4-1.3,0.8
						s-0.6,0.8-0.8,1.3c-0.1,0.5-0.3,1-0.4,1.7c-0.1,0.6-0.1,1.2-0.1,1.8c0,0.8,0,1.3,0,1.8s0.1,0.9,0.3,1.2
						c0.1,0.3,0.4,0.5,0.6,0.8c0.3,0.1,0.6,0.4,1.2,0.4l2.8,0.6c0.8,0.1,1.6,0.5,2.1,0.9s0.9,1,1.2,1.7c0.3,0.8,0.5,1.6,0.5,2.6
						c0.1,1,0.1,2.2,0.1,3.5c0,1.6-0.1,3-0.4,4.4c-0.3,1.4-0.6,2.7-1,3.7s-1.2,2.1-2.1,3c-0.8,0.8-1.8,1.4-3.1,1.8
						c-0.9,0.3-1.8,0.4-2.6,0.1c-0.8-0.3-1.4-0.5-2.1-1.2c-0.5-0.6-1-1.4-1.3-2.3c-0.3-0.9-0.5-2.1-0.5-3.4v-1.9l3.7-1.3v1.7
						c0,0.9,0.3,1.8,0.6,2.5s1,0.8,2.1,0.5c0.6-0.3,1.2-0.5,1.6-0.9c0.4-0.4,0.6-0.8,0.8-1.4c0.1-0.5,0.3-1.2,0.4-1.8
						c0-0.6,0.1-1.4,0.1-2.3c0-0.9,0-1.8-0.1-2.3c0-0.6-0.1-1-0.3-1.4c-0.1-0.4-0.4-0.5-0.6-0.8c-0.3-0.1-0.6-0.3-1.2-0.4l-2.7-0.6
						c-1.7-0.4-2.7-1.3-3.2-2.6c-0.5-1.3-0.8-3.2-0.8-5.6c0-1.4,0.1-2.7,0.4-4.1c0.3-1.4,0.6-2.6,1.2-3.6c0.5-1,1.2-2.1,2.1-2.8
						c0.8-0.8,1.8-1.4,2.8-1.8c0.9-0.3,1.8-0.4,2.6-0.1c0.8,0.3,1.4,0.6,1.9,1.3s1,1.4,1.3,2.2c0.3,0.9,0.4,1.8,0.4,2.8v3.2
						L265.4,292.5L265.4,292.5z"/>
					<path class="st9" d="M272.3,279.3l3-1l-4.9,39.2l-3,1L272.3,279.3z"/>
					<path class="st9" d="M290.1,284.2l-3.7,1.3v-1.2c0-1.2-0.3-2.2-0.6-3s-1-0.9-2.1-0.6c-0.5,0.1-0.9,0.4-1.3,0.8
						s-0.6,0.8-0.8,1.3c-0.1,0.5-0.3,1-0.4,1.7s-0.1,1.2-0.1,1.8c0,0.8,0,1.3,0,1.8c0,0.5,0.1,0.9,0.3,1.2s0.4,0.5,0.6,0.8
						c0.3,0.1,0.6,0.4,1.2,0.4l2.8,0.6c0.8,0.1,1.6,0.5,2.1,0.9c0.5,0.4,0.9,1,1.2,1.7c0.3,0.8,0.5,1.6,0.5,2.6c0,1,0.1,2.2,0.1,3.5
						c0,1.6-0.1,3-0.4,4.4c-0.3,1.4-0.6,2.7-1,3.7c-0.5,1.2-1.2,2.1-2.1,3c-0.8,0.8-1.8,1.4-3.1,1.8c-0.9,0.3-1.8,0.4-2.6,0.1
						c-0.8-0.1-1.4-0.5-2.1-1.2c-0.5-0.6-1-1.4-1.3-2.3c-0.3-0.9-0.5-2.1-0.5-3.4V304l3.7-1.3v1.7c0,0.9,0.3,1.8,0.6,2.5
						c0.4,0.6,1,0.8,2.1,0.5c0.6-0.3,1.2-0.5,1.6-0.9s0.6-0.8,0.8-1.4c0.1-0.5,0.3-1.2,0.4-1.8c0-0.6,0.1-1.4,0.1-2.3s0-1.8-0.1-2.3
						c0-0.6-0.1-1-0.3-1.4s-0.4-0.5-0.6-0.8c-0.3-0.1-0.6-0.3-1.2-0.4l-2.7-0.6c-1.7-0.4-2.7-1.3-3.2-2.6c-0.5-1.3-0.8-3.2-0.8-5.6
						c0-1.4,0.1-2.7,0.4-4.1c0.3-1.3,0.6-2.6,1.2-3.6c0.5-1,1.2-2.1,2.1-2.8c0.8-0.8,1.8-1.4,2.8-1.8c0.9-0.3,1.8-0.4,2.6-0.1
						s1.4,0.6,1.9,1.3c0.5,0.6,1,1.4,1.3,2.2c0.3,0.9,0.4,1.8,0.4,2.8v3.2L290.1,284.2L290.1,284.2z"/>
					<path class="st9" d="M293.5,281.2c0-1.4,0.1-2.8,0.5-4.1c0.4-1.3,0.9-2.3,1.4-3.4c0.6-0.9,1.3-1.7,2.1-2.3s1.6-1,2.3-1.3
						c0.8-0.3,1.6-0.3,2.3-0.1c0.8,0.1,1.4,0.5,2.1,1s1,1.3,1.4,2.3c0.4,1,0.5,2.3,0.5,3.7v19.5c0,1.4-0.1,2.7-0.5,4l2.3,1.8
						l-1.9,3.9l-2.2-1.8c-0.5,0.9-1.2,1.6-1.8,2.1c-0.6,0.5-1.4,0.9-2.1,1.2c-0.8,0.3-1.6,0.3-2.3,0.1c-0.8-0.1-1.4-0.5-2.1-1
						c-0.6-0.5-1-1.3-1.4-2.3s-0.5-2.2-0.5-3.7v-19.5H293.5z M297.2,299.5c0,1.3,0.3,2.2,0.8,2.6s1.2,0.5,1.8,0.3
						c0.3-0.1,0.6-0.3,0.8-0.5l-1.7-1.3l1.9-3.9l1.6,1.2v-0.1v-19.5c0-1.3-0.3-2.2-0.8-2.6c-0.5-0.4-1.2-0.5-1.8-0.3
						s-1.3,0.8-1.8,1.6c-0.5,0.8-0.8,1.8-0.8,3.1V299.5z"/>
					<path class="st9" d="M310.2,267l3.7-1.3v31.7l7.5-2.5v5.3l-11.2,3.7V267z"/>
					<path class="st9" d="M332.2,259.6l5.7-1.9c1-0.4,1.9-0.5,2.7-0.4c0.8,0.1,1.6,0.5,2.2,1.3s1,1.7,1.3,3c0.3,1.2,0.4,3,0.4,5.2
						c0,1.7-0.1,3.1-0.3,4.3c-0.1,1.2-0.4,2.3-0.9,3.5c-0.5,1.4-1.2,2.6-2.1,3.5c-0.9,0.9-1.9,1.7-3.4,2.2l-1.9,0.6v14.4l-3.7,1.3
						V259.6z M335.9,275.9l1.8-0.6c0.8-0.3,1.3-0.6,1.8-1c0.4-0.4,0.8-1,0.9-1.6c0.3-0.6,0.3-1.3,0.4-2.1c0.1-0.8,0-1.7,0-2.6
						c0-0.9,0-1.7,0-2.5c0-0.8-0.1-1.4-0.4-1.9c-0.1-0.5-0.5-0.9-0.9-1c-0.4-0.3-0.9-0.1-1.7,0.1l-1.9,0.6L335.9,275.9L335.9,275.9z
						"/>
					<path class="st9" d="M347.9,254.5l6.1-2.1c4.4-1.4,6.6,1.4,6.6,8.7c0,2.2-0.3,4-0.8,5.8c-0.5,1.8-1.3,3.2-2.6,4.5l4,15.5
						l-4,1.3l-3.5-14.6l-2.2,0.8v15.8l-3.7,1.3L347.9,254.5L347.9,254.5z M351.7,269.7l2.2-0.6c0.6-0.3,1.2-0.5,1.6-0.9
						s0.6-0.9,0.9-1.4s0.4-1.2,0.4-1.9c0.1-0.8,0.1-1.6,0.1-2.5c0-0.9,0-1.7-0.1-2.5c-0.1-0.6-0.3-1.3-0.5-1.7
						c-0.3-0.4-0.5-0.6-1-0.8c-0.4-0.1-1,0-1.7,0.1l-1.9,0.6v11.5H351.7z"/>
					<path class="st9" d="M364.1,257.7c0-1.4,0.1-2.8,0.5-4.1c0.4-1.3,0.9-2.3,1.4-3.4c0.6-0.9,1.3-1.7,2.1-2.3
						c0.8-0.6,1.6-1,2.3-1.3c0.8-0.3,1.6-0.3,2.3-0.1c0.8,0.1,1.4,0.5,2.1,1c0.6,0.5,1,1.3,1.4,2.3c0.4,1,0.5,2.3,0.5,3.7v19.5
						c0,1.6-0.1,2.8-0.5,4.1c-0.4,1.3-0.9,2.3-1.4,3.2c-0.6,0.9-1.3,1.7-2.1,2.3s-1.6,1-2.3,1.3c-0.8,0.3-1.6,0.3-2.3,0.1
						c-0.8-0.1-1.4-0.5-2.1-1s-1-1.3-1.4-2.3c-0.4-1-0.5-2.3-0.5-3.7V257.7z M367.8,275.9c0,1.3,0.3,2.2,0.8,2.6s1.2,0.5,1.8,0.3
						c0.6-0.3,1.3-0.8,1.8-1.6c0.5-0.8,0.8-1.8,0.8-3.1v-19.5c0-1.3-0.3-2.2-0.8-2.6s-1.2-0.5-1.8-0.3c-0.6,0.3-1.3,0.8-1.8,1.6
						c-0.5,0.8-0.8,1.8-0.8,3.1V275.9z"/>
					<path class="st9" d="M392.8,268.2c0,1.2-0.1,2.3-0.5,3.4c-0.3,1.2-0.8,2.2-1.3,3.1s-1.2,1.8-1.9,2.5s-1.6,1.2-2.3,1.4
						c-0.8,0.3-1.4,0.4-2.2,0.3c-0.8-0.1-1.4-0.3-1.9-0.8c-0.6-0.5-1-1.2-1.4-2.2c-0.4-1-0.5-2.3-0.5-4v-20.3c0-1.2,0.1-2.3,0.4-3.5
						s0.8-2.2,1.3-3.1c0.5-0.9,1.2-1.8,1.9-2.5s1.6-1.2,2.5-1.4c0.9-0.3,1.7-0.4,2.5-0.1c0.8,0.1,1.4,0.5,1.9,1.2
						c0.5,0.6,0.9,1.4,1.3,2.3c0.3,1,0.5,2.1,0.5,3.4v2.1l-3.7,1.3v-1.6c0-1-0.3-1.8-0.6-2.5s-1-0.8-1.7-0.5
						c-0.9,0.3-1.6,0.9-1.8,1.8c-0.3,0.9-0.5,1.9-0.5,3.2v18.9c0,1,0.1,1.9,0.5,2.6c0.4,0.6,0.9,0.8,1.8,0.5
						c0.3-0.1,0.5-0.3,0.8-0.4c0.3-0.1,0.5-0.5,0.8-0.9c0.3-0.4,0.4-0.8,0.5-1.3c0.1-0.5,0.3-1.2,0.3-1.9v-1.8l3.7-1.3v2.2
						L392.8,268.2L392.8,268.2z"/>
					<path class="st9" d="M396.6,238.2l11.2-3.7v5l-7.5,2.5v10.9l6.5-2.2v5l-6.5,2.2v10.9l7.5-2.5v5.3l-11.2,3.7V238.2z"/>
					<path class="st9" d="M423.2,240l-3.7,1.3v-1.2c0-1.2-0.3-2.2-0.6-3s-1-0.9-2.1-0.6c-0.5,0.1-0.9,0.4-1.3,0.8s-0.6,0.8-0.8,1.3
						c-0.1,0.5-0.3,1-0.4,1.7c-0.1,0.6-0.1,1.2-0.1,1.8c0,0.8,0,1.3,0,1.8s0.1,0.9,0.3,1.2c0.1,0.3,0.4,0.5,0.6,0.8
						c0.3,0.1,0.6,0.4,1.2,0.4l2.8,0.6c0.8,0.1,1.6,0.5,2.1,0.9c0.5,0.4,0.9,1,1.2,1.7c0.3,0.8,0.5,1.6,0.5,2.6
						c0.1,1,0.1,2.2,0.1,3.5c0,1.6-0.1,3-0.4,4.4c-0.3,1.4-0.6,2.7-1,3.7c-0.5,1.2-1.2,2.1-2.1,3c-0.8,0.8-1.8,1.4-3.1,1.8
						c-0.9,0.3-1.8,0.4-2.6,0.1c-0.8-0.1-1.4-0.5-2.1-1.2c-0.5-0.6-1-1.4-1.3-2.3c-0.4-0.9-0.5-2.1-0.5-3.4v-1.9l3.7-1.3v1.7
						c0,1,0.3,1.8,0.6,2.5c0.4,0.6,1,0.8,2.1,0.5c0.6-0.3,1.2-0.5,1.6-0.9c0.4-0.4,0.6-0.8,0.8-1.4c0.1-0.6,0.3-1.2,0.4-1.8
						c0-0.6,0.1-1.4,0.1-2.3c0-0.9,0-1.8-0.1-2.3c0-0.6-0.1-1-0.3-1.4c-0.1-0.4-0.4-0.5-0.6-0.8c-0.3-0.1-0.6-0.3-1.2-0.4l-2.7-0.6
						c-1.7-0.4-2.7-1.3-3.2-2.6c-0.5-1.3-0.8-3.2-0.8-5.6c0-1.4,0.1-2.7,0.4-4.1c0.3-1.3,0.6-2.6,1.2-3.6c0.5-1,1.2-2.1,2.1-2.8
						c0.8-0.8,1.8-1.4,2.8-1.8c0.9-0.3,1.8-0.4,2.6-0.1s1.4,0.6,1.9,1.3c0.5,0.6,1,1.4,1.3,2.2c0.3,0.9,0.4,1.8,0.4,2.8v3.2
						L423.2,240L423.2,240z"/>
					<path class="st9" d="M438.8,234.8l-3.7,1.3v-1.2c0-1.2-0.3-2.2-0.6-3s-1-0.9-2.1-0.6c-0.5,0.1-0.9,0.4-1.3,0.8
						c-0.4,0.4-0.6,0.8-0.8,1.3c-0.1,0.5-0.3,1-0.4,1.7c-0.1,0.6-0.1,1.2-0.1,1.8c0,0.8,0,1.3,0,1.8s0.1,0.9,0.3,1.2
						c0.1,0.3,0.4,0.5,0.6,0.8c0.3,0.3,0.6,0.4,1.2,0.4l2.8,0.6c0.8,0.1,1.6,0.5,2.1,0.9c0.5,0.4,0.9,1,1.2,1.7
						c0.3,0.8,0.5,1.6,0.5,2.6c0.1,1,0.1,2.2,0.1,3.6c0,1.6-0.1,3-0.4,4.4c-0.3,1.4-0.6,2.7-1,3.7c-0.5,1.2-1.2,2.1-2.1,3
						c-0.8,0.8-1.8,1.4-3.1,1.8c-0.9,0.3-1.8,0.4-2.6,0.1c-0.8-0.1-1.4-0.5-2.1-1.2c-0.5-0.6-1-1.4-1.3-2.3
						c-0.4-0.9-0.5-2.1-0.5-3.4v-1.9l3.7-1.3v1.7c0,0.9,0.3,1.8,0.6,2.5s1,0.8,2.1,0.5c0.6-0.3,1.2-0.5,1.6-0.9s0.6-0.8,0.8-1.3
						c0.1-0.5,0.3-1.2,0.4-1.8c0-0.6,0.1-1.4,0.1-2.3c0-0.9,0-1.8-0.1-2.3c0-0.6-0.1-1-0.3-1.4c-0.1-0.4-0.4-0.5-0.6-0.8
						c-0.3-0.1-0.6-0.3-1.2-0.4l-2.7-0.6c-1.7-0.4-2.7-1.3-3.2-2.6c-0.5-1.3-0.8-3.2-0.8-5.6c0-1.4,0.1-2.7,0.4-4.1
						c0.3-1.3,0.6-2.6,1.2-3.6c0.5-1,1.2-2.1,2.1-2.8s1.8-1.4,2.8-1.8c0.9-0.3,1.8-0.4,2.6-0.1s1.4,0.6,1.9,1.3
						c0.5,0.6,1,1.4,1.3,2.2c0.3,0.9,0.4,1.8,0.4,2.8v3L438.8,234.8L438.8,234.8z"/>
					<path class="st9" d="M442.5,222.9l3.7-1.3v37l-3.7,1.3V222.9z"/>
					<path class="st9" d="M450.5,220.3l3.6-1.2l5.7,20.3h0.1v-22.2l3.7-1.3v37l-3.5,1.2l-5.8-20.3h-0.1V256l-3.7,1.3L450.5,220.3
						L450.5,220.3z"/>
					<path class="st9" d="M467.5,223.3c0-1.4,0.1-2.8,0.5-4.1c0.4-1.3,0.9-2.3,1.4-3.4c0.6-0.9,1.3-1.7,2.1-2.3
						c0.8-0.6,1.6-1,2.3-1.3c0.8-0.3,1.6-0.3,2.3-0.1c0.8,0.1,1.4,0.5,2.1,1c0.6,0.5,1,1.3,1.4,2.3c0.4,1,0.5,2.3,0.5,3.7v1.8
						l-3.7,1.3v-1.8c0-1.3-0.3-2.2-0.8-2.6s-1.2-0.5-1.8-0.3c-0.6,0.3-1.3,0.8-1.8,1.6c-0.5,0.8-0.8,1.8-0.8,3.1v19.5
						c0,1.3,0.3,2.2,0.8,2.6c0.5,0.4,1.2,0.5,1.8,0.3c0.6-0.3,1.3-0.8,1.8-1.6c0.5-0.8,0.8-1.8,0.8-3.1v-7l-3,1v-4.7l6.7-2.2v11.6
						c0,1.6-0.1,2.8-0.5,4.1c-0.4,1.3-0.9,2.3-1.4,3.2c-0.6,0.9-1.3,1.7-2.1,2.3c-0.8,0.6-1.6,1-2.3,1.3c-0.8,0.3-1.6,0.3-2.3,0.1
						c-0.8-0.1-1.4-0.5-2.1-1c-0.6-0.5-1-1.3-1.4-2.3c-0.4-1-0.5-2.2-0.5-3.7L467.5,223.3L467.5,223.3z"/>
					<path class="st9" d="M492,206.5l3.7-1.3v37l-3.7,1.3V206.5z"/>
					<path class="st9" d="M500,203.8l3.6-1.2l5.7,20.3h0.1v-22.2l3.7-1.3v37l-3.5,1.2l-5.8-20.3h-0.1v22.2l-3.7,1.3L500,203.8
						L500,203.8z"/>
					<path class="st9" d="M529.5,204.7l-3.7,1.3v-1.2c0-1.2-0.3-2.2-0.6-3s-1-0.9-2.1-0.6c-0.5,0.1-0.9,0.4-1.3,0.8
						s-0.6,0.8-0.8,1.3c-0.1,0.5-0.3,1-0.4,1.7c-0.1,0.6-0.1,1.2-0.1,1.8c0,0.8,0,1.3,0,1.8s0.1,0.9,0.3,1.2
						c0.1,0.3,0.4,0.5,0.6,0.8c0.3,0.3,0.6,0.4,1.2,0.4l2.8,0.6c0.8,0.1,1.6,0.5,2.1,0.9c0.5,0.4,0.9,1,1.2,1.7
						c0.3,0.8,0.5,1.6,0.5,2.6c0.1,1,0.1,2.2,0.1,3.5c0,1.6-0.1,3-0.4,4.4c-0.3,1.4-0.6,2.7-1,3.7c-0.5,1.2-1.2,2.1-2.1,3
						c-0.8,0.8-1.8,1.4-3.1,1.8c-0.9,0.3-1.8,0.4-2.6,0.1c-0.8-0.3-1.4-0.5-2.1-1.2c-0.5-0.6-1-1.4-1.3-2.3
						c-0.4-0.9-0.5-2.1-0.5-3.4v-1.9l3.7-1.3v1.7c0,0.9,0.3,1.8,0.6,2.5c0.4,0.6,1,0.8,2.1,0.5c0.6-0.3,1.2-0.5,1.6-0.9
						c0.4-0.4,0.6-0.8,0.8-1.4c0.1-0.5,0.3-1.2,0.4-1.8c0-0.6,0.1-1.4,0.1-2.3c0-0.9,0-1.8-0.1-2.3c0-0.6-0.1-1-0.3-1.4
						c-0.1-0.4-0.4-0.5-0.6-0.8c-0.3-0.1-0.6-0.3-1.2-0.4l-2.7-0.6c-1.7-0.4-2.7-1.3-3.2-2.6c-0.5-1.3-0.8-3.2-0.8-5.6
						c0-1.4,0.1-2.7,0.4-4.1c0.3-1.3,0.6-2.6,1.2-3.6s1.2-2.1,2.1-2.8c0.9-0.8,1.8-1.4,2.8-1.8c0.9-0.3,1.8-0.4,2.6-0.1
						s1.4,0.6,1.9,1.3c0.5,0.6,1,1.4,1.3,2.2c0.3,0.9,0.4,1.8,0.4,2.8v3.2L529.5,204.7L529.5,204.7z"/>
					<path class="st9" d="M533.1,192.8l3.7-1.3v37l-3.7,1.3V192.8z"/>
					<path class="st9" d="M541.2,190.1l5.6-1.8c2.2-0.8,3.7-0.4,4.9,0.9c1.2,1.3,1.7,3.5,1.7,6.5V213c0,3.5-0.6,6.2-1.8,8.3
						c-1.2,2.1-3,3.5-5.2,4.1l-5.3,1.7v-37H541.2z M545,220.8l1.7-0.5c1-0.4,1.8-1,2.2-1.8c0.4-0.9,0.6-2.1,0.6-3.7v-17.8
						c0-1.4-0.3-2.5-0.6-3.1s-1.2-0.8-2.3-0.4l-1.7,0.5L545,220.8L545,220.8z"/>
					<path class="st9" d="M557.7,184.6l11.2-3.7v5l-7.5,2.5v10.9l6.5-2.2v5l-6.5,2.2v10.9l7.5-2.5v5.3l-11.2,3.7V184.6z"/>
				</g>
			</g>
		</g>
	</g>
</g>
<g id="Layer_2">
</g>
</svg>
