<!-- Generator: Adobe Illustrator 19.2.0, SVG Export Plug-In  -->
<svg version="1.0"
	 xmlns="http://www.w3.org/2000/svg" xmlns:xlink="http://www.w3.org/1999/xlink" xmlns:a="http://ns.adobe.com/AdobeSVGViewerExtensions/3.0/"
	 x="0px" y="0px" width="228.4px" height="122.9px" viewBox="0 0 228.4 122.9" style="enable-background:new 0 0 228.4 122.9;"
	 xml:space="preserve">
<style type="text/css">
	.st0{fill:#7629F4;stroke:#FFFFFF;stroke-linecap:round;stroke-linejoin:round;stroke-miterlimit:10;}
	.st1{fill:#FFFFFF;stroke:#FFFFFF;stroke-linecap:round;stroke-linejoin:round;stroke-miterlimit:10;}
	.st2{fill:none;stroke:#FFFFFF;stroke-linecap:round;stroke-linejoin:round;stroke-miterlimit:10;}
	.st3{fill:none;stroke:#7629F4;stroke-miterlimit:10;}
	.st4{fill:#FFFFFF;stroke:#7629F4;stroke-linecap:round;stroke-linejoin:round;stroke-miterlimit:10;}
	.st5{fill:none;stroke:#FFFFFF;stroke-miterlimit:10;}
	.st6{fill:#7629F4;stroke:#7629F4;stroke-miterlimit:10;}
	.st7{fill:#FFFFFF;stroke:#FFFFFF;stroke-miterlimit:10;}
	.st8{fill:#7629F4;stroke:#FFFFFF;stroke-miterlimit:10;}
	.st9{fill:none;stroke:#FFFFFF;stroke-linejoin:round;stroke-miterlimit:10;}
	.st10{fill:#FFFFFF;stroke:#7629F4;stroke-miterlimit:10;}
</style>
<defs>
</defs>
<g>
	<line class="st0" x1="91" y1="54.6" x2="100.2" y2="51.5"/>
	<line class="st0" x1="91" y1="57.6" x2="100.2" y2="54.6"/>
	<line class="st0" x1="91" y1="60.7" x2="100.2" y2="57.6"/>
	<line class="st0" x1="91" y1="45.3" x2="100.2" y2="42.2"/>
	<line class="st0" x1="91" y1="48.4" x2="100.2" y2="45.3"/>
	<line class="st0" x1="91" y1="51.5" x2="100.2" y2="48.4"/>
</g>
<polyline class="st1" points="104.7,17.9 176.8,1.9 216,6.8 219.9,23.4 117.8,46.1 96.2,32.1 "/>
<line class="st2" x1="65.3" y1="122.4" x2="122.7" y2="105"/>
<line class="st3" x1="197.2" y1="11" x2="129.3" y2="26.1"/>
<polyline class="st4" points="5.7,31.3 72.9,8.9 88.2,9.5 119.4,25 117.8,31.3 50.6,53.7 "/>
<polygon class="st0" points="65.3,122.4 20.4,100 15.2,85.9 0.5,37.8 5.7,31.3 50.6,53.7 55.9,65.5 70.6,113.6 "/>
<line class="st5" x1="218.7" y1="5.9" x2="226.5" y2="3.3"/>
<polygon class="st6" points="202.8,50.3 217.6,64.3 223,62.5 213.9,46.6 "/>
<path class="st7" d="M35,88.3c0.3,5.7-3,8.7-7.4,6.7c-4.4-2-8.3-8.3-8.6-14c-0.3-5.7,3-8.7,7.4-6.7C30.8,76.3,34.7,82.6,35,88.3z"/>
<path class="st7" d="M57.5,99.6c0.3,5.7-3,8.7-7.4,6.7c-4.4-2-8.3-8.3-8.6-14c-0.3-5.7,3-8.7,7.4-6.7C53.3,87.6,57.2,93.9,57.5,99.6
	z"/>
<path class="st7" d="M27.7,61.8c0.3,5.7-3,8.7-7.4,6.7c-4.4-2-8.3-8.3-8.6-14c-0.3-5.7,3-8.7,7.4-6.7C23.5,49.8,27.4,56.1,27.7,61.8
	z"/>
<path class="st7" d="M50.2,73c0.3,5.7-3,8.7-7.4,6.7c-4.4-2-8.3-8.3-8.6-14c-0.3-5.7,3-8.7,7.4-6.7C46,61,49.9,67.3,50.2,73z"/>
<path class="st8" d="M33.3,88.6c0.3,5.7-3,8.7-7.4,6.7c-4.4-2-8.3-8.3-8.6-14c-0.3-5.7,3-8.7,7.4-6.7C29.2,76.6,33,82.9,33.3,88.6z"
	/>
<path class="st8" d="M55.8,99.9c0.3,5.7-3,8.7-7.4,6.7c-4.4-2-8.3-8.3-8.6-14c-0.3-5.7,3-8.7,7.4-6.7C51.7,87.9,55.5,94.1,55.8,99.9
	z"/>
<path class="st8" d="M26,62.1c0.3,5.7-3,8.7-7.4,6.7c-4.4-2-8.3-8.3-8.6-14C9.7,49,13,46,17.4,48C21.8,50,25.7,56.3,26,62.1z"/>
<path class="st8" d="M48.5,73.3c0.3,5.7-3,8.7-7.4,6.7c-4.4-2-8.3-8.3-8.6-14c-0.3-5.7,3-8.7,7.4-6.7C44.3,61.3,48.2,67.6,48.5,73.3
	z"/>
<polyline class="st2" points="74.9,85.7 219.9,37.3 219.9,49.7 122.7,105 "/>
<line class="st3" x1="59.5" y1="32.1" x2="92.3" y2="21.2"/>
<line class="st3" x1="117.8" y1="31.3" x2="117.8" y2="46.1"/>
<polyline class="st2" points="119.9,26.4 127.1,31.3 131.9,42.9 "/>
<circle class="st8" cx="226.5" cy="3.3" r="1.4"/>
<polyline class="st2" points="219.9,26.4 162.3,45.6 162.3,51.5 "/>
<line class="st9" x1="211.6" y1="29.1" x2="211.6" y2="40.1"/>
<line class="st9" x1="201.8" y1="32.4" x2="201.8" y2="43.3"/>
<line class="st1" x1="211.6" y1="33.1" x2="219.9" y2="37.2"/>
<line class="st3" x1="65.5" y1="11.9" x2="65.5" y2="17.1"/>
<path class="st10" d="M61.2,7.2C61,6.5,60.9,5.7,61,5c0.1-3.5,2.3-5.4,4.9-4.1c2.6,1.3,4.7,5.1,4.6,8.7c-0.1,3.5-2.3,5.4-4.9,4.1
	c-1.3-0.6-2.5-2-3.4-3.6"/>
<line class="st3" x1="58.5" y1="9.7" x2="65.7" y2="7.3"/>
<circle class="st6" cx="58.5" cy="9.7" r="0.7"/>
<ellipse transform="matrix(5.466359e-02 -0.9985 0.9985 5.466359e-02 169.6135 214.7736)" class="st5" cx="198.2" cy="17.8" rx="1.6" ry="3.8"/>
</svg>
