<!-- Generator: Adobe Illustrator 19.2.0, SVG Export Plug-In  -->
<svg version="1.0"
	 xmlns="http://www.w3.org/2000/svg" xmlns:xlink="http://www.w3.org/1999/xlink" xmlns:a="http://ns.adobe.com/AdobeSVGViewerExtensions/3.0/"
	 x="0px" y="0px" width="77.9px" height="29.7px" viewBox="0 0 77.9 29.7" style="enable-background:new 0 0 77.9 29.7;"
	 xml:space="preserve">
<style type="text/css">
	.st0{fill:#FFFFFF;stroke:#7629F4;stroke-miterlimit:10;}
	.st1{fill:#7629F4;stroke:#FFFFFF;stroke-miterlimit:10;}
	.st2{fill:#FFFFFF;stroke:#7629F4;stroke-linecap:round;stroke-linejoin:round;stroke-miterlimit:10;}
	.st3{fill:none;stroke:#FFFFFF;stroke-miterlimit:10;}
</style>
<defs>
</defs>
<g>
	<path class="st0" d="M7.6,29L60,7.7l-0.1,0c0.8-0.1,1.4-1,1.4-2.3c0.1-1.8-1-3.7-2.3-4.4c-0.5-0.2-1-0.3-1.3-0.1L57.9,1L3.2,15.3"
		/>
	<path class="st1" d="M10.2,24.5c-0.1,3.6-2.4,5.5-5,4.2c-2.7-1.3-4.8-5.2-4.6-8.9c0.1-3.6,2.4-5.5,5-4.2
		C8.2,16.9,10.3,20.9,10.2,24.5z"/>
</g>
<polygon class="st2" points="59.4,14.3 5.3,11.2 37.6,0.5 72.5,0.6 77.4,8.3 "/>
<line class="st3" x1="1.7" y1="23.4" x2="5.3" y2="22.2"/>
</svg>
