<!-- Generator: Adobe Illustrator 19.2.0, SVG Export Plug-In  -->
<svg version="1.0"
	 xmlns="http://www.w3.org/2000/svg" xmlns:xlink="http://www.w3.org/1999/xlink" xmlns:a="http://ns.adobe.com/AdobeSVGViewerExtensions/3.0/"
	 x="0px" y="0px" width="100.7px" height="80.1px" viewBox="0 0 100.7 80.1" style="enable-background:new 0 0 100.7 80.1;"
	 xml:space="preserve">
<style type="text/css">
	.st0{fill:#FFFFFF;stroke:#7629F4;stroke-linecap:round;stroke-linejoin:round;stroke-miterlimit:10;}
	.st1{fill:#FFFFFF;stroke:#7629F4;stroke-miterlimit:10;}
	.st2{fill:#7629F4;stroke:#FFFFFF;stroke-miterlimit:10;}
	.st3{fill:none;stroke:#FFFFFF;stroke-miterlimit:10;}
</style>
<defs>
</defs>
<polygon class="st0" points="59.4,79.6 5.3,34.3 46,20.7 100.2,66 "/>
<g>
	<path class="st1" d="M7.6,28.6L60,7.3l-0.1,0c0.8-0.1,1.4-1,1.4-2.3c0.1-1.8-1-3.7-2.3-4.4c-0.5-0.2-1-0.3-1.3-0.1l0.2-0.1
		L3.2,14.9"/>
	<path class="st2" d="M10.2,24.1c-0.1,3.6-2.4,5.5-5,4.2c-2.7-1.3-4.7-5.2-4.6-8.9c0.1-3.6,2.4-5.5,5-4.2
		C8.2,16.5,10.3,20.5,10.2,24.1z"/>
</g>
<line class="st3" x1="1.7" y1="23" x2="5.3" y2="21.8"/>
</svg>
