<!-- Generator: Adobe Illustrator 19.2.0, SVG Export Plug-In  -->
<svg version="1.0"
	 xmlns="http://www.w3.org/2000/svg" xmlns:xlink="http://www.w3.org/1999/xlink" xmlns:a="http://ns.adobe.com/AdobeSVGViewerExtensions/3.0/"
	 x="0px" y="0px" width="111.2px" height="34.7px" viewBox="0 0 111.2 34.7" style="enable-background:new 0 0 111.2 34.7;"
	 xml:space="preserve">
<style type="text/css">
	.st0{fill:#FFFFFF;stroke:#7629F4;stroke-linecap:round;stroke-linejoin:round;stroke-miterlimit:10;}
	.st1{fill:#FFFFFF;stroke:#7629F4;stroke-miterlimit:10;}
	.st2{fill:#7629F4;stroke:#7629F4;stroke-miterlimit:10;}
	.st3{fill:none;stroke:#7629F4;stroke-miterlimit:10;}
	.st4{fill:none;stroke:#FFFFFF;stroke-miterlimit:10;}
</style>
<defs>
</defs>
<polygon class="st0" points="0.5,25.4 54.7,34.2 95.4,20.6 41.3,11.8 "/>
<path class="st1" d="M57,28.6l52.4-21.3l-0.1,0c0.8-0.1,1.4-1,1.4-2.3c0.1-1.8-1-3.7-2.3-4.4c-0.5-0.2-1-0.3-1.3-0.1l0.2-0.1
	L52.6,14.9"/>
<path class="st2" d="M59.5,24.1c-0.1,3.6-2.4,5.5-5,4.2c-2.7-1.3-4.7-5.2-4.6-8.9c0.1-3.6,2.4-5.5,5-4.2
	C57.6,16.5,59.6,20.5,59.5,24.1z"/>
<line class="st3" x1="36.7" y1="27.6" x2="47.4" y2="24"/>
<line class="st4" x1="51.1" y1="23" x2="54.7" y2="21.8"/>
</svg>
