<!-- Generator: Adobe Illustrator 19.2.0, SVG Export Plug-In  -->
<svg version="1.0"
	 xmlns="http://www.w3.org/2000/svg" xmlns:xlink="http://www.w3.org/1999/xlink" xmlns:a="http://ns.adobe.com/AdobeSVGViewerExtensions/3.0/"
	 x="0px" y="0px" width="1260.5px" height="583px" viewBox="0 0 1260.5 583" style="enable-background:new 0 0 1260.5 583;"
	 xml:space="preserve">
<style type="text/css">
	.st0{fill:#7629F4;}
	.st1{fill:#7629F4;stroke:#FFFFFF;stroke-linecap:round;stroke-linejoin:round;stroke-miterlimit:10;}
	.st2{fill:#FFFFFF;stroke:#FFFFFF;stroke-linecap:round;stroke-linejoin:round;stroke-miterlimit:10;}
	.st3{fill:#FFFFFF;stroke:#7629F4;stroke-miterlimit:10;}
	.st4{fill:#7629F4;stroke:#FFFFFF;stroke-miterlimit:10;}
	.st5{fill:none;stroke:#FFFFFF;stroke-linecap:round;stroke-linejoin:round;stroke-miterlimit:10;}
	.st6{fill:#FFFFFF;stroke:#7629F4;stroke-linecap:round;stroke-linejoin:round;stroke-miterlimit:10;}
	.st7{fill:none;stroke:#FFFFFF;stroke-miterlimit:10;}
	.st8{fill:none;stroke:#7629F4;stroke-miterlimit:10;}
	.st9{fill:#7629F4;stroke:#7629F4;stroke-miterlimit:10;}
	.st10{fill:#FFFFFF;stroke:#FFFFFF;stroke-miterlimit:10;}
	.st11{fill:none;stroke:#FFFFFF;stroke-linejoin:round;stroke-miterlimit:10;}
	.st12{fill:#FFFFFF;}
</style>
<defs>
</defs>
<g>
	<g>
		<g>
			<g>
				<g>
					<rect class="st0" width="1260.5" height="581.9"/>
				</g>
			</g>
		</g>
	</g>
	<g>
		<line class="st1" x1="267.7" y1="476.1" x2="277" y2="473"/>
		<line class="st1" x1="267.7" y1="479.2" x2="277" y2="476.1"/>
		<line class="st1" x1="267.7" y1="482.3" x2="277" y2="479.2"/>
		<line class="st1" x1="267.7" y1="466.9" x2="277" y2="463.8"/>
		<line class="st1" x1="267.7" y1="470" x2="277" y2="466.9"/>
		<line class="st1" x1="267.7" y1="473" x2="277" y2="469.9"/>
	</g>
	<polyline class="st2" points="281.4,439.5 353.6,423.5 392.8,428.3 396.6,445 294.5,467.7 272.9,453.7 	"/>
	<g>
		<path class="st3" d="M157.3,504l52.4-21.3l-0.1,0c0.8-0.1,1.4-1,1.4-2.3c0.1-1.8-1-3.7-2.3-4.4c-0.5-0.2-1-0.3-1.3-0.1l0.2-0.1
			l-54.6,14.4"/>
		<path class="st4" d="M159.8,499.5c-0.1,3.6-2.4,5.5-5,4.2c-2.7-1.3-4.8-5.2-4.6-8.9c0.1-3.6,2.4-5.5,5-4.2
			C157.9,492,159.9,495.9,159.8,499.5z"/>
	</g>
	<line class="st5" x1="242" y1="544" x2="299.5" y2="526.6"/>
	<polygon class="st6" points="191.9,460.7 137.7,415.4 178.5,401.9 232.6,447.2 	"/>
	<polygon class="st6" points="209.1,489.3 155,486.2 187.3,475.5 222.2,475.6 227,483.3 	"/>
	<line class="st7" x1="74.2" y1="468.1" x2="134.1" y2="448.1"/>
	<line class="st7" x1="355.2" y1="533.3" x2="404.6" y2="516.9"/>
	<line class="st7" x1="723.7" y1="257.2" x2="836.7" y2="219.5"/>
	<line class="st7" x1="917.5" y1="221" x2="1016.2" y2="188.1"/>
	<line class="st7" x1="283.3" y1="373.6" x2="386.3" y2="339.3"/>
	<line class="st7" x1="996.3" y1="387.1" x2="1108.7" y2="349.6"/>
	<line class="st8" x1="373.9" y1="432.5" x2="306" y2="447.6"/>
	<polyline class="st6" points="182.4,452.9 249.6,430.4 265,431 296.1,446.6 294.5,452.9 227.3,475.3 	"/>
	<polygon class="st1" points="242,544 197.2,521.5 191.9,507.4 177.2,459.3 182.4,452.9 227.3,475.3 232.6,487 247.3,535.1 	"/>
	<line class="st7" x1="395.4" y1="427.4" x2="403.2" y2="424.8"/>
	<line class="st8" x1="115.1" y1="410.5" x2="130.5" y2="405.4"/>
	<line class="st7" x1="112.1" y1="540.4" x2="172.5" y2="520.2"/>
	<polygon class="st9" points="379.5,471.9 394.4,485.9 399.7,484.1 390.7,468.2 	"/>
	<path class="st10" d="M211.8,509.9c0.3,5.7-3,8.7-7.4,6.7c-4.4-2-8.3-8.3-8.6-14c-0.3-5.7,3-8.7,7.4-6.7
		C207.6,497.9,211.4,504.2,211.8,509.9z"/>
	<path class="st10" d="M234.3,521.1c0.3,5.7-3,8.7-7.4,6.7c-4.4-2-8.3-8.3-8.6-14c-0.3-5.7,3-8.7,7.4-6.7
		C230.1,509.1,233.9,515.4,234.3,521.1z"/>
	<path class="st10" d="M204.4,483.3c0.3,5.7-3,8.7-7.4,6.7c-4.4-2-8.3-8.3-8.6-14c-0.3-5.7,3-8.7,7.4-6.7
		C200.2,471.3,204.1,477.6,204.4,483.3z"/>
	<path class="st10" d="M226.9,494.6c0.3,5.7-3,8.7-7.4,6.7c-4.4-2-8.3-8.3-8.6-14c-0.3-5.7,3-8.7,7.4-6.7
		C222.7,482.6,226.6,488.9,226.9,494.6z"/>
	<path class="st4" d="M210.1,510.2c0.3,5.7-3,8.7-7.4,6.7c-4.4-2-8.3-8.3-8.6-14c-0.3-5.7,3-8.7,7.4-6.7
		C205.9,498.2,209.7,504.5,210.1,510.2z"/>
	<path class="st4" d="M232.6,521.4c0.3,5.7-3,8.7-7.4,6.7c-4.4-2-8.3-8.3-8.6-14c-0.3-5.7,3-8.7,7.4-6.7
		C228.4,509.4,232.2,515.7,232.6,521.4z"/>
	<path class="st4" d="M202.7,483.6c0.3,5.7-3,8.7-7.4,6.7c-4.4-2-8.3-8.3-8.6-14c-0.3-5.7,3-8.7,7.4-6.7
		C198.6,471.6,202.4,477.9,202.7,483.6z"/>
	<path class="st4" d="M225.2,494.9c0.3,5.7-3,8.7-7.4,6.7c-4.4-2-8.3-8.3-8.6-14c-0.3-5.7,3-8.7,7.4-6.7
		C221.1,482.8,224.9,489.1,225.2,494.9z"/>
	<polyline class="st5" points="251.7,507.2 396.6,458.9 396.6,471.3 299.5,526.6 	"/>
	<polygon class="st6" points="254.5,492 308.6,500.9 349.4,487.3 295.2,478.5 	"/>
	<line class="st8" x1="236.3" y1="453.7" x2="269" y2="442.8"/>
	<line class="st8" x1="294.5" y1="452.9" x2="294.5" y2="467.7"/>
	<g>
		<path class="st3" d="M140.1,409.8l52.4-21.3l-0.1,0c0.8-0.1,1.4-1,1.4-2.3c0.1-1.8-1-3.7-2.3-4.4c-0.5-0.2-1-0.3-1.3-0.1l0.2-0.1
			l-54.6,14.4"/>
		<path class="st4" d="M142.6,405.3c-0.1,3.6-2.4,5.5-5,4.2c-2.7-1.3-4.7-5.2-4.6-8.9c0.1-3.6,2.4-5.5,5-4.2
			C140.6,397.7,142.7,401.7,142.6,405.3z"/>
	</g>
	<path class="st3" d="M310.9,495.2l52.4-21.3l-0.1,0c0.8-0.1,1.4-1,1.4-2.3c0.1-1.8-1-3.7-2.3-4.4c-0.5-0.2-1-0.3-1.3-0.1l0.2-0.1
		l-54.6,14.4"/>
	<path class="st9" d="M313.5,490.8c-0.1,3.6-2.4,5.5-5,4.2c-2.7-1.3-4.7-5.2-4.6-8.9c0.1-3.6,2.4-5.5,5-4.2
		C311.5,483.2,313.6,487.1,313.5,490.8z"/>
	<polyline class="st5" points="296.7,447.9 303.8,452.9 308.7,464.4 	"/>
	<circle class="st4" cx="403.2" cy="424.8" r="1.4"/>
	<line class="st7" x1="134.1" y1="404.2" x2="137.7" y2="403"/>
	<polyline class="st5" points="396.6,447.9 339,467.1 339,473 	"/>
	<line class="st11" x1="388.4" y1="450.7" x2="388.4" y2="461.6"/>
	<line class="st11" x1="378.5" y1="453.9" x2="378.5" y2="464.9"/>
	<line class="st2" x1="388.4" y1="454.7" x2="396.6" y2="458.8"/>
	<polygon class="st6" points="257.9,513.6 312.1,564.7 344.4,554 298.7,500 	"/>
	<path class="st3" d="M314.4,582.6l52.4-21.3l-0.1,0c0.8-0.1,1.4-1,1.4-2.3c0.1-1.8-1-3.7-2.3-4.4c-0.5-0.2-1-0.3-1.3-0.1l0.2-0.1
		L310,568.9"/>
	<line class="st7" x1="132.3" y1="504.7" x2="147.7" y2="499.6"/>
	<line class="st7" x1="151.4" y1="498.4" x2="155" y2="497.2"/>
	<line class="st8" x1="290.6" y1="494.3" x2="301.4" y2="490.7"/>
	<line class="st7" x1="305.1" y1="489.6" x2="308.7" y2="488.4"/>
	<line class="st8" x1="242.2" y1="433.5" x2="242.2" y2="438.6"/>
	<path class="st3" d="M237.9,428.7c-0.1-0.7-0.2-1.4-0.2-2.1c0.1-3.5,2.3-5.4,4.9-4.1c2.6,1.3,4.7,5.1,4.6,8.7
		c-0.1,3.5-2.3,5.4-4.9,4.1c-1.3-0.6-2.5-2-3.4-3.6"/>
	<line class="st8" x1="235.2" y1="431.3" x2="242.4" y2="428.9"/>
	<circle class="st9" cx="235.2" cy="431.3" r="0.7"/>
	
		<ellipse transform="matrix(5.466359e-02 -0.9985 0.9985 5.466359e-02 -84.2579 789.7629)" class="st7" cx="375" cy="439.4" rx="1.6" ry="3.8"/>
	<path class="st7" d="M823.6,213.3c0.3-9.8,6.4-14.9,13.6-11.4c7.2,3.5,12.8,14.2,12.6,23.9c-0.3,9.8-6.4,14.9-13.6,11.4"/>
	<line class="st7" x1="1134.1" y1="176.6" x2="992.5" y2="223.8"/>
	<g>
		<g>
			<circle class="st12" cx="699.8" cy="178.3" r="0.7"/>
		</g>
	</g>
	<g>
		<g>
			<circle class="st12" cx="629.8" cy="246.1" r="0.7"/>
		</g>
	</g>
	<g>
		<g>
			<circle class="st12" cx="1022.5" cy="235.3" r="0.7"/>
		</g>
	</g>
	<g>
		<g>
			<circle class="st12" cx="1092.5" cy="444.3" r="0.7"/>
		</g>
	</g>
	<g>
		<g>
			<circle class="st12" cx="1007.8" cy="245.3" r="0.7"/>
		</g>
	</g>
	<g>
		<g>
			<circle class="st12" cx="1052.5" cy="153.3" r="0.7"/>
		</g>
	</g>
	<g>
		<g>
			<circle class="st12" cx="226.3" cy="343.3" r="0.7"/>
		</g>
	</g>
	<g>
		<g>
			<circle class="st12" cx="91.5" cy="294.3" r="0.7"/>
		</g>
	</g>
	<g>
		<g>
			<circle class="st12" cx="246.8" cy="350.3" r="0.7"/>
		</g>
	</g>
	<g>
		<g>
			<circle class="st12" cx="104.2" cy="434.3" r="0.7"/>
		</g>
	</g>
	<g>
		<g>
			<circle class="st12" cx="401.8" cy="490.7" r="0.7"/>
		</g>
	</g>
	<g>
		<g>
			<circle class="st12" cx="310.5" cy="401.6" r="0.7"/>
		</g>
	</g>
	<g>
		<g>
			<circle class="st12" cx="917.5" cy="184.3" r="0.7"/>
		</g>
	</g>
</g>
</svg>
