<!-- Generator: Adobe Illustrator 19.2.0, SVG Export Plug-In  -->
<svg version="1.0"
	 xmlns="http://www.w3.org/2000/svg" xmlns:xlink="http://www.w3.org/1999/xlink" xmlns:a="http://ns.adobe.com/AdobeSVGViewerExtensions/3.0/"
	 x="0px" y="0px" width="272.7px" height="201.8px" viewBox="0 0 272.7 201.8" style="enable-background:new 0 0 272.7 201.8;"
	 xml:space="preserve">
<style type="text/css">
	.st0{fill:#7629F4;stroke:#FFFFFF;stroke-linecap:round;stroke-linejoin:round;stroke-miterlimit:10;}
	.st1{fill:#FFFFFF;stroke:#FFFFFF;stroke-linecap:round;stroke-linejoin:round;stroke-miterlimit:10;}
	.st2{fill:#FFFFFF;stroke:#7629F4;stroke-miterlimit:10;}
	.st3{fill:#7629F4;stroke:#FFFFFF;stroke-miterlimit:10;}
	.st4{fill:none;stroke:#FFFFFF;stroke-linecap:round;stroke-linejoin:round;stroke-miterlimit:10;}
	.st5{fill:#FFFFFF;stroke:#7629F4;stroke-linecap:round;stroke-linejoin:round;stroke-miterlimit:10;}
	.st6{fill:none;stroke:#7629F4;stroke-miterlimit:10;}
	.st7{fill:none;stroke:#FFFFFF;stroke-miterlimit:10;}
	.st8{fill:#FFFFFF;stroke:#FFFFFF;stroke-miterlimit:10;}
	.st9{fill:#7629F4;stroke:#7629F4;stroke-miterlimit:10;}
	.st10{fill:none;stroke:#FFFFFF;stroke-linejoin:round;stroke-miterlimit:10;}
</style>
<defs>
</defs>
<g>
	<line class="st0" x1="135.2" y1="95" x2="144.5" y2="91.9"/>
	<line class="st0" x1="135.2" y1="98" x2="144.5" y2="95"/>
	<line class="st0" x1="135.2" y1="101.1" x2="144.5" y2="98"/>
	<line class="st0" x1="135.2" y1="85.7" x2="144.5" y2="82.6"/>
	<line class="st0" x1="135.2" y1="88.8" x2="144.5" y2="85.7"/>
	<line class="st0" x1="135.2" y1="91.9" x2="144.5" y2="88.8"/>
</g>
<polyline class="st1" points="149,58.3 221.1,42.3 260.3,47.2 264.1,63.8 162.1,86.5 140.5,72.5 "/>
<g>
	<path class="st2" d="M24.8,122.9l52.4-21.3l-0.1,0c0.8-0.1,1.4-1,1.4-2.3c0.1-1.8-1-3.7-2.3-4.4c-0.5-0.2-1-0.3-1.3-0.1l0.2-0.1
		l-54.6,14.4"/>
	<path class="st3" d="M27.4,118.4c-0.1,3.6-2.4,5.5-5,4.2c-2.7-1.3-4.8-5.2-4.6-8.9c0.1-3.6,2.4-5.5,5-4.2
		C25.4,110.8,27.5,114.8,27.4,118.4z"/>
</g>
<line class="st4" x1="109.6" y1="162.8" x2="167" y2="145.4"/>
<polygon class="st5" points="59.4,79.6 5.3,34.3 46,20.7 100.2,66 "/>
<polygon class="st5" points="76.7,108.1 22.5,105.1 54.8,94.3 89.7,94.4 94.6,102.1 "/>
<line class="st6" x1="241.5" y1="51.4" x2="173.6" y2="66.4"/>
<polyline class="st5" points="50,71.7 117.2,49.3 132.5,49.9 163.7,65.4 162.1,71.7 94.9,94.1 "/>
<polygon class="st0" points="109.6,162.8 64.7,140.4 59.5,126.3 44.8,78.2 50,71.7 94.9,94.1 100.2,105.9 114.9,154 "/>
<line class="st7" x1="262.9" y1="46.3" x2="270.8" y2="43.7"/>
<path class="st8" d="M79.3,128.7c0.3,5.7-3,8.7-7.4,6.7c-4.4-2-8.3-8.3-8.6-14c-0.3-5.7,3-8.7,7.4-6.7C75.1,116.7,79,123,79.3,128.7
	z"/>
<path class="st8" d="M101.8,140c0.3,5.7-3,8.7-7.4,6.7c-4.4-2-8.3-8.3-8.6-14c-0.3-5.7,3-8.7,7.4-6.7
	C97.6,128,101.5,134.3,101.8,140z"/>
<path class="st8" d="M72,102.2c0.3,5.7-3,8.7-7.4,6.7c-4.4-2-8.3-8.3-8.6-14c-0.3-5.7,3-8.7,7.4-6.7C67.8,90.2,71.6,96.4,72,102.2z"
	/>
<path class="st8" d="M94.5,113.4c0.3,5.7-3,8.7-7.4,6.7c-4.4-2-8.3-8.3-8.6-14c-0.3-5.7,3-8.7,7.4-6.7
	C90.3,101.4,94.1,107.7,94.5,113.4z"/>
<path class="st3" d="M77.6,129c0.3,5.7-3,8.7-7.4,6.7c-4.4-2-8.3-8.3-8.6-14c-0.3-5.7,3-8.7,7.4-6.7C73.4,117,77.3,123.3,77.6,129z"
	/>
<path class="st3" d="M100.1,140.3c0.3,5.7-3,8.7-7.4,6.7c-4.4-2-8.3-8.3-8.6-14c-0.3-5.7,3-8.7,7.4-6.7
	C96,128.2,99.8,134.5,100.1,140.3z"/>
<path class="st3" d="M70.3,102.5c0.3,5.7-3,8.7-7.4,6.7c-4.4-2-8.3-8.3-8.6-14c-0.3-5.7,3-8.7,7.4-6.7C66.1,90.4,70,96.7,70.3,102.5
	z"/>
<path class="st3" d="M92.8,113.7c0.3,5.7-3,8.7-7.4,6.7c-4.4-2-8.3-8.3-8.6-14c-0.3-5.7,3-8.7,7.4-6.7
	C88.6,101.7,92.5,108,92.8,113.7z"/>
<polyline class="st4" points="119.2,126.1 264.1,77.7 264.1,90.1 167,145.4 "/>
<polygon class="st5" points="122,110.9 176.2,119.7 216.9,106.1 162.8,97.3 "/>
<line class="st6" x1="103.8" y1="72.5" x2="136.6" y2="61.6"/>
<line class="st6" x1="162.1" y1="71.7" x2="162.1" y2="86.5"/>
<g>
	<path class="st2" d="M7.6,28.6L60,7.3l-0.1,0c0.8-0.1,1.4-1,1.4-2.3c0.1-1.8-1-3.7-2.3-4.4c-0.5-0.2-1-0.3-1.3-0.1l0.2-0.1
		L3.2,14.9"/>
	<path class="st3" d="M10.2,24.1c-0.1,3.6-2.4,5.5-5,4.2c-2.7-1.3-4.7-5.2-4.6-8.9c0.1-3.6,2.4-5.5,5-4.2
		C8.2,16.5,10.3,20.5,10.2,24.1z"/>
</g>
<path class="st2" d="M178.5,114.1l52.4-21.3l-0.1,0c0.8-0.1,1.4-1,1.4-2.3c0.1-1.8-1-3.7-2.3-4.4c-0.5-0.2-1-0.3-1.3-0.1l0.2-0.1
	l-54.6,14.4"/>
<path class="st9" d="M181.1,109.6c-0.1,3.6-2.4,5.5-5,4.2c-2.7-1.3-4.7-5.2-4.6-8.9c0.1-3.6,2.4-5.5,5-4.2
	C179.1,102,181.2,106,181.1,109.6z"/>
<polyline class="st4" points="164.2,66.8 171.4,71.7 176.2,83.3 "/>
<circle class="st3" cx="270.8" cy="43.7" r="1.4"/>
<line class="st7" x1="1.7" y1="23" x2="5.3" y2="21.8"/>
<polyline class="st4" points="264.1,66.8 206.6,85.9 206.6,91.9 "/>
<line class="st10" x1="255.9" y1="69.5" x2="255.9" y2="80.5"/>
<line class="st10" x1="246.1" y1="72.8" x2="246.1" y2="83.7"/>
<line class="st1" x1="255.9" y1="73.5" x2="264.1" y2="77.6"/>
<polygon class="st5" points="125.5,132.4 179.6,183.5 211.9,172.8 166.2,118.9 "/>
<path class="st2" d="M182,201.4l52.4-21.3l-0.1,0c0.8-0.1,1.4-1,1.4-2.3c0.1-1.8-1-3.7-2.3-4.4c-0.5-0.2-1-0.3-1.3-0.1l0.2-0.1
	l-54.6,14.4"/>
<line class="st7" x1="18.9" y1="117.2" x2="22.5" y2="116"/>
<line class="st6" x1="158.2" y1="113.1" x2="168.9" y2="109.5"/>
<line class="st7" x1="172.6" y1="108.5" x2="176.2" y2="107.3"/>
<line class="st6" x1="109.8" y1="52.3" x2="109.8" y2="57.5"/>
<path class="st2" d="M105.4,47.6c-0.1-0.7-0.2-1.4-0.2-2.1c0.1-3.5,2.3-5.4,4.9-4.1c2.6,1.3,4.7,5.1,4.6,8.7
	c-0.1,3.5-2.3,5.4-4.9,4.1c-1.3-0.6-2.5-2-3.4-3.6"/>
<line class="st6" x1="102.8" y1="50.1" x2="110" y2="47.7"/>
<circle class="st9" cx="102.8" cy="50.1" r="0.7"/>
<ellipse transform="matrix(5.466359e-02 -0.9985 0.9985 5.466359e-02 171.1434 297.1807)" class="st7" cx="242.5" cy="58.2" rx="1.6" ry="3.8"/>
</svg>
