<!-- Generator: Adobe Illustrator 19.2.1, SVG Export Plug-In  -->
<svg version="1.0"
	 xmlns="http://www.w3.org/2000/svg" xmlns:xlink="http://www.w3.org/1999/xlink" xmlns:a="http://ns.adobe.com/AdobeSVGViewerExtensions/3.0/"
	 x="0px" y="0px" width="250.3px" height="163.6px" viewBox="0 0 250.3 163.6" style="enable-background:new 0 0 250.3 163.6;"
	 xml:space="preserve">
<style type="text/css">
	.st0{fill:#7629F4;}
	.st1{fill:#7629F4;stroke:#FFFFFF;stroke-width:1.248;stroke-linecap:round;stroke-linejoin:round;stroke-miterlimit:10;}
	.st2{fill:#FFFFFF;stroke:#FFFFFF;stroke-width:1.248;stroke-linecap:round;stroke-linejoin:round;stroke-miterlimit:10;}
	.st3{fill:none;stroke:#FFFFFF;stroke-width:1.248;stroke-linecap:round;stroke-linejoin:round;stroke-miterlimit:10;}
	.st4{fill:none;stroke:#7629F4;stroke-width:1.248;stroke-linecap:round;stroke-linejoin:round;stroke-miterlimit:10;}
	.st5{fill:#FFFFFF;stroke:#7629F4;stroke-width:1.2814;stroke-linecap:round;stroke-linejoin:round;stroke-miterlimit:10;}
</style>
<defs>
</defs>
<g>
	<g>
		<path class="st0" d="M82.6,19.6l4.8-1.6L94.9,45l0.1,0V15.5l5-1.7v48.8l-4.7,1.6l-7.6-26.8l-0.1,0v29.3l-5,1.7V19.6z"/>
		<path class="st0" d="M104.2,26.5l5-1.7v3.7c1-1.6,2-3,3-4c1-1.1,2.2-1.8,3.6-2.3v7.4c-0.5-0.1-1-0.1-1.5,0.1
			c-0.5,0.2-1.1,0.5-1.7,0.9c-0.6,0.5-1.2,1.1-1.7,1.8c-0.5,0.8-0.9,1.7-1.2,2.7c-0.3,1.1-0.5,2.3-0.5,3.7v20.6l-5,1.7V26.5z"/>
		<path class="st0" d="M114.1,51l5-1.7v7l-5,1.7V51z"/>
		<path class="st0" d="M131.9,45.5l9-26.8c0.5-1.3,0.7-2.5,0.8-3.4c0.1-0.9,0.1-2,0.1-3.4c0-0.6,0-1.2,0-1.9c0-0.7-0.1-1.2-0.3-1.7
			c-0.1-0.5-0.4-0.8-0.7-1c-0.3-0.2-0.8-0.2-1.4,0c-0.7,0.2-1.3,0.7-1.8,1.5c-0.4,0.7-0.7,1.7-0.7,2.8v4l-5,1.7v-3.8
			c0-1.5,0.2-2.9,0.6-4.3c0.4-1.4,0.9-2.7,1.6-3.9c0.7-1.2,1.5-2.2,2.4-3.1c0.9-0.9,1.9-1.5,2.9-1.8c1.3-0.4,2.4-0.5,3.3-0.1
			c0.9,0.4,1.7,1,2.3,1.9c0.6,0.9,1,2.1,1.3,3.5c0.3,1.4,0.4,2.9,0.4,4.5c0,1.2,0,2.2,0,3c0,0.8-0.1,1.6-0.2,2.4
			c-0.1,0.8-0.3,1.6-0.5,2.4c-0.2,0.8-0.5,1.8-0.9,3l-7.3,22.3l9-3v7l-14.8,4.9V45.5z"/>
	</g>
</g>
<g>
	<g>
		<g>
			<g>
				<polygon class="st1" points="96,150.7 120.3,162.9 120.3,129.2 96,117.1 				"/>
			</g>
			<polyline class="st1" points="120.3,162.9 224.7,128.1 224.7,94.4 120.3,129.2 			"/>
			<polygon class="st2" points="224.7,94.4 120.3,129.2 96,117.1 200.4,82.3 			"/>
			<line class="st3" x1="120.3" y1="129.2" x2="120.3" y2="162.9"/>
		</g>
	</g>
	<g>
		<g>
			<g>
				<g>
					<polygon class="st1" points="0.6,144.7 24.9,156.9 24.9,123.2 0.6,111.1 					"/>
				</g>
				<polyline class="st1" points="24.9,156.9 129.3,122.1 129.3,88.4 24.9,123.2 				"/>
				<polygon class="st2" points="129.3,88.4 24.9,123.2 0.6,111.1 105,76.3 				"/>
				<line class="st3" x1="24.9" y1="123.2" x2="24.9" y2="156.9"/>
			</g>
		</g>
		<line class="st4" x1="143" y1="73.3" x2="57.7" y2="101.7"/>
		<line class="st4" x1="237.7" y1="79.3" x2="152.3" y2="107.7"/>
		<g>
			<polygon class="st0" points="143,84.4 156.5,70 143,62.9 			"/>
		</g>
		<g>
			<polygon class="st0" points="236.8,90 250.3,75.6 236.8,68.5 			"/>
		</g>
		<polygon class="st5" points="43.5,87.1 18.1,74.5 18.1,87.8 38.6,98 43.5,107.4 		"/>
	</g>
</g>
</svg>
