<!-- Generator: Adobe Illustrator 19.2.1, SVG Export Plug-In  -->
<svg version="1.0"
	 xmlns="http://www.w3.org/2000/svg" xmlns:xlink="http://www.w3.org/1999/xlink" xmlns:a="http://ns.adobe.com/AdobeSVGViewerExtensions/3.0/"
	 x="0px" y="0px" width="64.1px" height="68.5px" viewBox="0 0 64.1 68.5" style="enable-background:new 0 0 64.1 68.5;"
	 xml:space="preserve">
<style type="text/css">
	.st0{fill:#7629F4;}
</style>
<defs>
</defs>
<g>
	<g>
		<path class="st0" d="M0,19.6l4.8-1.6L12.3,45l0.1,0V15.5l5-1.7v48.8l-4.7,1.6L5.1,37.4l-0.1,0v29.3l-5,1.7V19.6z"/>
		<path class="st0" d="M21.6,26.5l5-1.7v3.7c1-1.6,2-3,3-4c1-1.1,2.2-1.8,3.6-2.3v7.4c-0.5-0.1-1-0.1-1.5,0.1
			c-0.5,0.2-1.1,0.5-1.7,0.9c-0.6,0.5-1.2,1.1-1.7,1.8c-0.5,0.8-0.9,1.7-1.2,2.7c-0.3,1.1-0.5,2.3-0.5,3.7v20.6l-5,1.7V26.5z"/>
		<path class="st0" d="M31.5,51l5-1.7v7l-5,1.7V51z"/>
		<path class="st0" d="M49.3,45.5l9-26.8c0.5-1.3,0.7-2.5,0.8-3.4c0.1-0.9,0.1-2,0.1-3.4c0-0.6,0-1.2,0-1.9c0-0.7-0.1-1.2-0.3-1.7
			c-0.1-0.5-0.4-0.8-0.7-1c-0.3-0.2-0.8-0.2-1.4,0c-0.7,0.2-1.3,0.7-1.8,1.5c-0.4,0.7-0.7,1.7-0.7,2.8v4l-5,1.7v-3.8
			c0-1.5,0.2-2.9,0.6-4.3c0.4-1.4,0.9-2.7,1.6-3.9c0.7-1.2,1.5-2.2,2.4-3.1c0.9-0.9,1.9-1.5,2.9-1.8c1.3-0.4,2.4-0.5,3.3-0.1
			c0.9,0.4,1.7,1,2.3,1.9c0.6,0.9,1,2.1,1.3,3.5c0.3,1.4,0.4,2.9,0.4,4.5c0,1.2,0,2.2,0,3c0,0.8-0.1,1.6-0.2,2.4
			c-0.1,0.8-0.3,1.6-0.5,2.4c-0.2,0.8-0.5,1.8-0.9,3l-7.3,22.3l9-3v7l-14.8,4.9V45.5z"/>
	</g>
</g>
</svg>
