<?xml version="1.0" encoding="utf-8"?>
<!-- Generator: Adobe Illustrator 19.2.1, SVG Export Plug-In . SVG Version: 6.00 Build 0)  -->
<svg version="1.1" id="Layer_1" xmlns="http://www.w3.org/2000/svg" xmlns:xlink="http://www.w3.org/1999/xlink" x="0px" y="0px"
	 viewBox="0 0 274 479.1" style="enable-background:new 0 0 274 479.1;" xml:space="preserve">
<style type="text/css">
	.st0{fill:#808080;}
	.st1{fill:#222222;}
</style>
<g>
	<g>
		<g>
			<circle class="st0" cx="5.9" cy="432" r="1"/>
		</g>
		<g>
			<circle class="st0" cx="19.5" cy="432" r="1"/>
		</g>
		<g>
			<circle class="st0" cx="33.2" cy="432" r="1"/>
		</g>
		<g>
			<circle class="st0" cx="46.9" cy="432" r="1"/>
		</g>
		<g>
			<circle class="st0" cx="60.6" cy="432" r="1"/>
		</g>
		<g>
			<circle class="st0" cx="74.3" cy="432" r="1"/>
		</g>
		<g>
			<circle class="st0" cx="87.9" cy="432" r="1"/>
		</g>
		<g>
			<circle class="st0" cx="101.6" cy="432" r="1"/>
		</g>
		<g>
			<circle class="st0" cx="115.3" cy="432" r="1"/>
		</g>
		<g>
			<circle class="st0" cx="129" cy="432" r="1"/>
		</g>
		<g>
			<circle class="st0" cx="142.7" cy="432" r="1"/>
		</g>
		<g>
			<circle class="st0" cx="156.3" cy="432" r="1"/>
		</g>
		<g>
			<circle class="st0" cx="170" cy="432" r="1"/>
		</g>
		<g>
			<circle class="st0" cx="183.7" cy="432" r="1"/>
		</g>
		<g>
			<circle class="st0" cx="197.4" cy="432" r="1"/>
		</g>
		<g>
			<circle class="st0" cx="211.1" cy="432" r="1"/>
		</g>
		<g>
			<circle class="st0" cx="224.8" cy="432" r="1"/>
		</g>
		<g>
			<circle class="st0" cx="238.4" cy="432" r="1"/>
		</g>
		<g>
			<circle class="st0" cx="252.1" cy="432" r="1"/>
		</g>
		<g>
			<circle class="st0" cx="265.8" cy="432" r="1"/>
		</g>
		<g>
			<circle class="st0" cx="5.9" cy="445.7" r="1"/>
		</g>
		<g>
			<circle class="st0" cx="19.5" cy="445.7" r="1"/>
		</g>
		<g>
			<circle class="st0" cx="33.2" cy="445.7" r="1"/>
		</g>
		<g>
			<circle class="st0" cx="46.9" cy="445.7" r="1"/>
		</g>
		<g>
			<circle class="st0" cx="60.6" cy="445.7" r="1"/>
		</g>
		<g>
			<circle class="st0" cx="74.3" cy="445.7" r="1"/>
		</g>
		<g>
			<circle class="st0" cx="87.9" cy="445.7" r="1"/>
		</g>
		<g>
			<circle class="st0" cx="101.6" cy="445.7" r="1"/>
		</g>
		<g>
			<circle class="st0" cx="115.3" cy="445.7" r="1"/>
		</g>
		<g>
			<circle class="st0" cx="129" cy="445.7" r="1"/>
		</g>
		<g>
			<circle class="st0" cx="142.7" cy="445.7" r="1"/>
		</g>
		<g>
			<circle class="st0" cx="156.3" cy="445.7" r="1"/>
		</g>
		<g>
			<circle class="st0" cx="170" cy="445.7" r="1"/>
		</g>
		<g>
			<circle class="st0" cx="183.7" cy="445.7" r="1"/>
		</g>
		<g>
			<circle class="st0" cx="197.4" cy="445.7" r="1"/>
		</g>
		<g>
			<circle class="st0" cx="211.1" cy="445.7" r="1"/>
		</g>
		<g>
			<circle class="st0" cx="224.8" cy="445.7" r="1"/>
		</g>
		<g>
			<circle class="st0" cx="238.4" cy="445.7" r="1"/>
		</g>
		<g>
			<circle class="st0" cx="252.1" cy="445.7" r="1"/>
		</g>
		<g>
			<circle class="st0" cx="265.8" cy="445.7" r="1"/>
		</g>
		<g>
			<circle class="st0" cx="5.9" cy="459.4" r="1"/>
		</g>
		<g>
			<circle class="st0" cx="19.5" cy="459.4" r="1"/>
		</g>
		<g>
			<circle class="st0" cx="33.2" cy="459.4" r="1"/>
		</g>
		<g>
			<circle class="st0" cx="46.9" cy="459.4" r="1"/>
		</g>
		<g>
			<circle class="st0" cx="60.6" cy="459.4" r="1"/>
		</g>
		<g>
			<circle class="st0" cx="74.3" cy="459.4" r="1"/>
		</g>
		<g>
			<circle class="st0" cx="87.9" cy="459.4" r="1"/>
		</g>
		<g>
			<circle class="st0" cx="101.6" cy="459.4" r="1"/>
		</g>
		<g>
			<circle class="st0" cx="115.3" cy="459.4" r="1"/>
		</g>
		<g>
			<circle class="st0" cx="129" cy="459.4" r="1"/>
		</g>
		<g>
			<circle class="st0" cx="142.7" cy="459.4" r="1"/>
		</g>
		<g>
			<circle class="st0" cx="156.3" cy="459.4" r="1"/>
		</g>
		<g>
			<circle class="st0" cx="170" cy="459.4" r="1"/>
		</g>
		<g>
			<circle class="st0" cx="183.7" cy="459.4" r="1"/>
		</g>
		<g>
			<circle class="st0" cx="197.4" cy="459.4" r="1"/>
		</g>
		<g>
			<circle class="st0" cx="211.1" cy="459.4" r="1"/>
		</g>
		<g>
			<circle class="st0" cx="224.8" cy="459.4" r="1"/>
		</g>
		<g>
			<circle class="st0" cx="238.4" cy="459.4" r="1"/>
		</g>
		<g>
			<circle class="st0" cx="252.1" cy="459.4" r="1"/>
		</g>
		<g>
			<circle class="st0" cx="265.8" cy="459.4" r="1"/>
		</g>
		<g>
			<circle class="st0" cx="5.9" cy="473.1" r="1"/>
		</g>
		<g>
			<circle class="st0" cx="19.5" cy="473.1" r="1"/>
		</g>
		<g>
			<circle class="st0" cx="33.2" cy="473.1" r="1"/>
		</g>
		<g>
			<circle class="st0" cx="46.9" cy="473.1" r="1"/>
		</g>
		<g>
			<circle class="st0" cx="60.6" cy="473.1" r="1"/>
		</g>
		<g>
			<circle class="st0" cx="74.3" cy="473.1" r="1"/>
		</g>
		<g>
			<circle class="st0" cx="87.9" cy="473.1" r="1"/>
		</g>
		<g>
			<circle class="st0" cx="101.6" cy="473.1" r="1"/>
		</g>
		<g>
			<circle class="st0" cx="115.3" cy="473.1" r="1"/>
		</g>
		<g>
			<circle class="st0" cx="129" cy="473.1" r="1"/>
		</g>
		<g>
			<circle class="st0" cx="142.7" cy="473.1" r="1"/>
		</g>
		<g>
			<circle class="st0" cx="156.3" cy="473.1" r="1"/>
		</g>
		<g>
			<circle class="st0" cx="170" cy="473.1" r="1"/>
		</g>
		<g>
			<circle class="st0" cx="183.7" cy="473.1" r="1"/>
		</g>
		<g>
			<circle class="st0" cx="197.4" cy="473.1" r="1"/>
		</g>
		<g>
			<circle class="st0" cx="211.1" cy="473.1" r="1"/>
		</g>
		<g>
			<circle class="st0" cx="224.8" cy="473.1" r="1"/>
		</g>
		<g>
			<circle class="st0" cx="238.4" cy="473.1" r="1"/>
		</g>
		<g>
			<circle class="st0" cx="252.1" cy="473.1" r="1"/>
		</g>
		<g>
			<circle class="st0" cx="265.8" cy="473.1" r="1"/>
		</g>
		<g>
			<circle class="st0" cx="5.9" cy="418.4" r="1"/>
		</g>
		<g>
			<circle class="st0" cx="19.5" cy="418.4" r="1"/>
		</g>
		<g>
			<circle class="st0" cx="33.2" cy="418.4" r="1"/>
		</g>
		<g>
			<circle class="st0" cx="46.9" cy="418.4" r="1"/>
		</g>
		<g>
			<circle class="st0" cx="60.6" cy="418.4" r="1"/>
		</g>
		<g>
			<circle class="st0" cx="74.3" cy="418.4" r="1"/>
		</g>
		<g>
			<circle class="st0" cx="87.9" cy="418.4" r="1"/>
		</g>
		<g>
			<circle class="st0" cx="101.6" cy="418.4" r="1"/>
		</g>
		<g>
			<circle class="st0" cx="115.3" cy="418.4" r="1"/>
		</g>
		<g>
			<circle class="st0" cx="129" cy="418.4" r="1"/>
		</g>
		<g>
			<circle class="st0" cx="142.7" cy="418.4" r="1"/>
		</g>
		<g>
			<circle class="st0" cx="156.3" cy="418.4" r="1"/>
		</g>
		<g>
			<circle class="st0" cx="170" cy="418.4" r="1"/>
		</g>
		<g>
			<circle class="st0" cx="183.7" cy="418.4" r="1"/>
		</g>
		<g>
			<circle class="st0" cx="197.4" cy="418.4" r="1"/>
		</g>
		<g>
			<circle class="st0" cx="211.1" cy="418.4" r="1"/>
		</g>
		<g>
			<circle class="st0" cx="224.8" cy="418.4" r="1"/>
		</g>
		<g>
			<circle class="st0" cx="238.4" cy="418.4" r="1"/>
		</g>
		<g>
			<circle class="st0" cx="252.1" cy="418.4" r="1"/>
		</g>
		<g>
			<circle class="st0" cx="265.8" cy="418.4" r="1"/>
		</g>
		<g>
			<g>
				<circle class="st0" cx="5.9" cy="363.6" r="1"/>
			</g>
			<g>
				<circle class="st0" cx="19.5" cy="363.6" r="1"/>
			</g>
			<g>
				<circle class="st0" cx="33.2" cy="363.6" r="1"/>
			</g>
			<g>
				<circle class="st0" cx="46.9" cy="363.6" r="1"/>
			</g>
			<g>
				<circle class="st0" cx="60.6" cy="363.6" r="1"/>
			</g>
			<g>
				<circle class="st0" cx="74.3" cy="363.6" r="1"/>
			</g>
			<g>
				<circle class="st0" cx="87.9" cy="363.6" r="1"/>
			</g>
			<g>
				<circle class="st0" cx="101.6" cy="363.6" r="1"/>
			</g>
			<g>
				<circle class="st0" cx="115.3" cy="363.6" r="1"/>
			</g>
			<g>
				<circle class="st0" cx="129" cy="363.6" r="1"/>
			</g>
			<g>
				<circle class="st0" cx="142.7" cy="363.6" r="1"/>
			</g>
			<g>
				<circle class="st0" cx="156.3" cy="363.6" r="1"/>
			</g>
			<g>
				<circle class="st0" cx="170" cy="363.6" r="1"/>
			</g>
			<g>
				<circle class="st0" cx="183.7" cy="363.6" r="1"/>
			</g>
			<g>
				<circle class="st0" cx="197.4" cy="363.6" r="1"/>
			</g>
			<g>
				<circle class="st0" cx="211.1" cy="363.6" r="1"/>
			</g>
			<g>
				<circle class="st0" cx="224.8" cy="363.6" r="1"/>
			</g>
			<g>
				<circle class="st0" cx="238.4" cy="363.6" r="1"/>
			</g>
			<g>
				<circle class="st0" cx="252.1" cy="363.6" r="1"/>
			</g>
			<g>
				<circle class="st0" cx="265.8" cy="363.6" r="1"/>
			</g>
		</g>
		<g>
			<g>
				<circle class="st0" cx="5.9" cy="377.3" r="1"/>
			</g>
			<g>
				<circle class="st0" cx="19.5" cy="377.3" r="1"/>
			</g>
			<g>
				<circle class="st0" cx="33.2" cy="377.3" r="1"/>
			</g>
			<g>
				<circle class="st0" cx="46.9" cy="377.3" r="1"/>
			</g>
			<g>
				<circle class="st0" cx="60.6" cy="377.3" r="1"/>
			</g>
			<g>
				<circle class="st0" cx="74.3" cy="377.3" r="1"/>
			</g>
			<g>
				<circle class="st0" cx="87.9" cy="377.3" r="1"/>
			</g>
			<g>
				<circle class="st0" cx="101.6" cy="377.3" r="1"/>
			</g>
			<g>
				<circle class="st0" cx="115.3" cy="377.3" r="1"/>
			</g>
			<g>
				<circle class="st0" cx="129" cy="377.3" r="1"/>
			</g>
			<g>
				<circle class="st0" cx="142.7" cy="377.3" r="1"/>
			</g>
			<g>
				<circle class="st0" cx="156.3" cy="377.3" r="1"/>
			</g>
			<g>
				<circle class="st0" cx="170" cy="377.3" r="1"/>
			</g>
			<g>
				<circle class="st0" cx="183.7" cy="377.3" r="1"/>
			</g>
			<g>
				<circle class="st0" cx="197.4" cy="377.3" r="1"/>
			</g>
			<g>
				<circle class="st0" cx="211.1" cy="377.3" r="1"/>
			</g>
			<g>
				<circle class="st0" cx="224.8" cy="377.3" r="1"/>
			</g>
			<g>
				<circle class="st0" cx="238.4" cy="377.3" r="1"/>
			</g>
			<g>
				<circle class="st0" cx="252.1" cy="377.3" r="1"/>
			</g>
			<g>
				<circle class="st0" cx="265.8" cy="377.3" r="1"/>
			</g>
		</g>
		<g>
			<g>
				<circle class="st0" cx="5.9" cy="391" r="1"/>
			</g>
			<g>
				<circle class="st0" cx="19.5" cy="391" r="1"/>
			</g>
			<g>
				<circle class="st0" cx="33.2" cy="391" r="1"/>
			</g>
			<g>
				<circle class="st0" cx="46.9" cy="391" r="1"/>
			</g>
			<g>
				<circle class="st0" cx="60.6" cy="391" r="1"/>
			</g>
			<g>
				<circle class="st0" cx="74.3" cy="391" r="1"/>
			</g>
			<g>
				<circle class="st0" cx="87.9" cy="391" r="1"/>
			</g>
			<g>
				<circle class="st0" cx="101.6" cy="391" r="1"/>
			</g>
			<g>
				<circle class="st0" cx="115.3" cy="391" r="1"/>
			</g>
			<g>
				<circle class="st0" cx="129" cy="391" r="1"/>
			</g>
			<g>
				<circle class="st0" cx="142.7" cy="391" r="1"/>
			</g>
			<g>
				<circle class="st0" cx="156.3" cy="391" r="1"/>
			</g>
			<g>
				<circle class="st0" cx="170" cy="391" r="1"/>
			</g>
			<g>
				<circle class="st0" cx="183.7" cy="391" r="1"/>
			</g>
			<g>
				<circle class="st0" cx="197.4" cy="391" r="1"/>
			</g>
			<g>
				<circle class="st0" cx="211.1" cy="391" r="1"/>
			</g>
			<g>
				<circle class="st0" cx="224.8" cy="391" r="1"/>
			</g>
			<g>
				<circle class="st0" cx="238.4" cy="391" r="1"/>
			</g>
			<g>
				<circle class="st0" cx="252.1" cy="391" r="1"/>
			</g>
			<g>
				<circle class="st0" cx="265.8" cy="391" r="1"/>
			</g>
		</g>
		<g>
			<g>
				<circle class="st0" cx="5.9" cy="404.7" r="1"/>
			</g>
			<g>
				<circle class="st0" cx="19.5" cy="404.7" r="1"/>
			</g>
			<g>
				<circle class="st0" cx="33.2" cy="404.7" r="1"/>
			</g>
			<g>
				<circle class="st0" cx="46.9" cy="404.7" r="1"/>
			</g>
			<g>
				<circle class="st0" cx="60.6" cy="404.7" r="1"/>
			</g>
			<g>
				<circle class="st0" cx="74.3" cy="404.7" r="1"/>
			</g>
			<g>
				<circle class="st0" cx="87.9" cy="404.7" r="1"/>
			</g>
			<g>
				<circle class="st0" cx="101.6" cy="404.7" r="1"/>
			</g>
			<g>
				<circle class="st0" cx="115.3" cy="404.7" r="1"/>
			</g>
			<g>
				<circle class="st0" cx="129" cy="404.7" r="1"/>
			</g>
			<g>
				<circle class="st0" cx="142.7" cy="404.7" r="1"/>
			</g>
			<g>
				<circle class="st0" cx="156.3" cy="404.7" r="1"/>
			</g>
			<g>
				<circle class="st0" cx="170" cy="404.7" r="1"/>
			</g>
			<g>
				<circle class="st0" cx="183.7" cy="404.7" r="1"/>
			</g>
			<g>
				<circle class="st0" cx="197.4" cy="404.7" r="1"/>
			</g>
			<g>
				<circle class="st0" cx="211.1" cy="404.7" r="1"/>
			</g>
			<g>
				<circle class="st0" cx="224.8" cy="404.7" r="1"/>
			</g>
			<g>
				<circle class="st0" cx="238.4" cy="404.7" r="1"/>
			</g>
			<g>
				<circle class="st0" cx="252.1" cy="404.7" r="1"/>
			</g>
			<g>
				<circle class="st0" cx="265.8" cy="404.7" r="1"/>
			</g>
		</g>
		<g>
			<g>
				<circle class="st0" cx="5.9" cy="350" r="1"/>
			</g>
			<g>
				<circle class="st0" cx="19.5" cy="350" r="1"/>
			</g>
			<g>
				<circle class="st0" cx="33.2" cy="350" r="1"/>
			</g>
			<g>
				<circle class="st0" cx="46.9" cy="350" r="1"/>
			</g>
			<g>
				<circle class="st0" cx="60.6" cy="350" r="1"/>
			</g>
			<g>
				<circle class="st0" cx="74.3" cy="350" r="1"/>
			</g>
			<g>
				<circle class="st0" cx="87.9" cy="350" r="1"/>
			</g>
			<g>
				<circle class="st0" cx="101.6" cy="350" r="1"/>
			</g>
			<g>
				<circle class="st0" cx="115.3" cy="350" r="1"/>
			</g>
			<g>
				<circle class="st0" cx="129" cy="350" r="1"/>
			</g>
			<g>
				<circle class="st0" cx="142.7" cy="350" r="1"/>
			</g>
			<g>
				<circle class="st0" cx="156.3" cy="350" r="1"/>
			</g>
			<g>
				<circle class="st0" cx="170" cy="350" r="1"/>
			</g>
			<g>
				<circle class="st0" cx="183.7" cy="350" r="1"/>
			</g>
			<g>
				<circle class="st0" cx="197.4" cy="350" r="1"/>
			</g>
			<g>
				<circle class="st0" cx="211.1" cy="350" r="1"/>
			</g>
			<g>
				<circle class="st0" cx="224.8" cy="350" r="1"/>
			</g>
			<g>
				<circle class="st0" cx="238.4" cy="350" r="1"/>
			</g>
			<g>
				<circle class="st0" cx="252.1" cy="350" r="1"/>
			</g>
			<g>
				<circle class="st0" cx="265.8" cy="350" r="1"/>
			</g>
		</g>
		<g>
			<g>
				<circle class="st0" cx="5.9" cy="295.2" r="1"/>
			</g>
			<g>
				<circle class="st0" cx="19.5" cy="295.2" r="1"/>
			</g>
			<g>
				<circle class="st0" cx="33.2" cy="295.2" r="1"/>
			</g>
			<g>
				<circle class="st0" cx="46.9" cy="295.2" r="1"/>
			</g>
			<g>
				<circle class="st0" cx="60.6" cy="295.2" r="1"/>
			</g>
			<g>
				<circle class="st0" cx="74.3" cy="295.2" r="1"/>
			</g>
			<g>
				<circle class="st0" cx="87.9" cy="295.2" r="1"/>
			</g>
			<g>
				<circle class="st0" cx="101.6" cy="295.2" r="1"/>
			</g>
			<g>
				<circle class="st0" cx="115.3" cy="295.2" r="1"/>
			</g>
			<g>
				<circle class="st0" cx="129" cy="295.2" r="1"/>
			</g>
			<g>
				<circle class="st0" cx="142.7" cy="295.2" r="1"/>
			</g>
			<g>
				<circle class="st0" cx="156.3" cy="295.2" r="1"/>
			</g>
			<g>
				<circle class="st0" cx="170" cy="295.2" r="1"/>
			</g>
			<g>
				<circle class="st0" cx="183.7" cy="295.2" r="1"/>
			</g>
			<g>
				<circle class="st0" cx="197.4" cy="295.2" r="1"/>
			</g>
			<g>
				<circle class="st0" cx="224.8" cy="295.2" r="1"/>
			</g>
			<g>
				<circle class="st0" cx="238.4" cy="295.2" r="1"/>
			</g>
			<g>
				<circle class="st0" cx="252.1" cy="295.2" r="1"/>
			</g>
			<g>
				<circle class="st0" cx="265.8" cy="295.2" r="1"/>
			</g>
		</g>
		<g>
			<g>
				<circle class="st0" cx="5.9" cy="308.9" r="1"/>
			</g>
			<g>
				<circle class="st0" cx="19.5" cy="308.9" r="1"/>
			</g>
			<g>
				<circle class="st0" cx="33.2" cy="308.9" r="1"/>
			</g>
			<g>
				<circle class="st0" cx="46.9" cy="308.9" r="1"/>
			</g>
			<g>
				<circle class="st0" cx="60.6" cy="308.9" r="1"/>
			</g>
			<g>
				<circle class="st0" cx="74.3" cy="308.9" r="1"/>
			</g>
			<g>
				<circle class="st0" cx="87.9" cy="308.9" r="1"/>
			</g>
			<g>
				<circle class="st0" cx="101.6" cy="308.9" r="1"/>
			</g>
			<g>
				<circle class="st0" cx="115.3" cy="308.9" r="1"/>
			</g>
			<g>
				<circle class="st0" cx="129" cy="308.9" r="1"/>
			</g>
			<g>
				<circle class="st0" cx="142.7" cy="308.9" r="1"/>
			</g>
			<g>
				<circle class="st0" cx="156.3" cy="308.9" r="1"/>
			</g>
			<g>
				<circle class="st0" cx="170" cy="308.9" r="1"/>
			</g>
			<g>
				<circle class="st0" cx="183.7" cy="308.9" r="1"/>
			</g>
			<g>
				<circle class="st0" cx="197.4" cy="308.9" r="1"/>
			</g>
			<g>
				<circle class="st0" cx="211.1" cy="308.9" r="1"/>
			</g>
			<g>
				<circle class="st0" cx="224.8" cy="308.9" r="1"/>
			</g>
			<g>
				<circle class="st0" cx="238.4" cy="308.9" r="1"/>
			</g>
			<g>
				<circle class="st0" cx="252.1" cy="308.9" r="1"/>
			</g>
			<g>
				<circle class="st0" cx="265.8" cy="308.9" r="1"/>
			</g>
		</g>
		<g>
			<g>
				<circle class="st0" cx="5.9" cy="322.6" r="1"/>
			</g>
			<g>
				<circle class="st0" cx="19.5" cy="322.6" r="1"/>
			</g>
			<g>
				<circle class="st0" cx="33.2" cy="322.6" r="1"/>
			</g>
			<g>
				<circle class="st0" cx="46.9" cy="322.6" r="1"/>
			</g>
			<g>
				<circle class="st0" cx="60.6" cy="322.6" r="1"/>
			</g>
			<g>
				<circle class="st0" cx="74.3" cy="322.6" r="1"/>
			</g>
			<g>
				<circle class="st0" cx="87.9" cy="322.6" r="1"/>
			</g>
			<g>
				<circle class="st0" cx="101.6" cy="322.6" r="1"/>
			</g>
			<g>
				<circle class="st0" cx="115.3" cy="322.6" r="1"/>
			</g>
			<g>
				<circle class="st0" cx="129" cy="322.6" r="1"/>
			</g>
			<g>
				<circle class="st0" cx="142.7" cy="322.6" r="1"/>
			</g>
			<g>
				<circle class="st0" cx="156.3" cy="322.6" r="1"/>
			</g>
			<g>
				<circle class="st0" cx="170" cy="322.6" r="1"/>
			</g>
			<g>
				<circle class="st0" cx="183.7" cy="322.6" r="1"/>
			</g>
			<g>
				<circle class="st0" cx="197.4" cy="322.6" r="1"/>
			</g>
			<g>
				<circle class="st0" cx="211.1" cy="322.6" r="1"/>
			</g>
			<g>
				<circle class="st0" cx="224.8" cy="322.6" r="1"/>
			</g>
			<g>
				<circle class="st0" cx="238.4" cy="322.6" r="1"/>
			</g>
			<g>
				<circle class="st0" cx="252.1" cy="322.6" r="1"/>
			</g>
			<g>
				<circle class="st0" cx="265.8" cy="322.6" r="1"/>
			</g>
		</g>
		<g>
			<g>
				<circle class="st0" cx="5.9" cy="336.3" r="1"/>
			</g>
			<g>
				<circle class="st0" cx="19.5" cy="336.3" r="1"/>
			</g>
			<g>
				<circle class="st0" cx="33.2" cy="336.3" r="1"/>
			</g>
			<g>
				<circle class="st0" cx="46.9" cy="336.3" r="1"/>
			</g>
			<g>
				<circle class="st0" cx="60.6" cy="336.3" r="1"/>
			</g>
			<g>
				<circle class="st0" cx="74.3" cy="336.3" r="1"/>
			</g>
			<g>
				<circle class="st0" cx="87.9" cy="336.3" r="1"/>
			</g>
			<g>
				<circle class="st0" cx="101.6" cy="336.3" r="1"/>
			</g>
			<g>
				<circle class="st0" cx="115.3" cy="336.3" r="1"/>
			</g>
			<g>
				<circle class="st0" cx="129" cy="336.3" r="1"/>
			</g>
			<g>
				<circle class="st0" cx="142.7" cy="336.3" r="1"/>
			</g>
			<g>
				<circle class="st0" cx="156.3" cy="336.3" r="1"/>
			</g>
			<g>
				<circle class="st0" cx="170" cy="336.3" r="1"/>
			</g>
			<g>
				<circle class="st0" cx="183.7" cy="336.3" r="1"/>
			</g>
			<g>
				<circle class="st0" cx="197.4" cy="336.3" r="1"/>
			</g>
			<g>
				<circle class="st0" cx="211.1" cy="336.3" r="1"/>
			</g>
			<g>
				<circle class="st0" cx="224.8" cy="336.3" r="1"/>
			</g>
			<g>
				<circle class="st0" cx="238.4" cy="336.3" r="1"/>
			</g>
			<g>
				<circle class="st0" cx="252.1" cy="336.3" r="1"/>
			</g>
			<g>
				<circle class="st0" cx="265.8" cy="336.3" r="1"/>
			</g>
		</g>
		<g>
			<g>
				<circle class="st0" cx="5.9" cy="281.6" r="1"/>
			</g>
			<g>
				<circle class="st0" cx="19.5" cy="281.6" r="1"/>
			</g>
			<g>
				<circle class="st0" cx="33.2" cy="281.6" r="1"/>
			</g>
			<g>
				<circle class="st0" cx="46.9" cy="281.6" r="1"/>
			</g>
			<g>
				<circle class="st0" cx="74.3" cy="281.6" r="1"/>
			</g>
			<g>
				<circle class="st0" cx="87.9" cy="281.6" r="1"/>
			</g>
			<g>
				<circle class="st0" cx="101.6" cy="281.6" r="1"/>
			</g>
			<g>
				<circle class="st0" cx="115.3" cy="281.6" r="1"/>
			</g>
			<g>
				<circle class="st0" cx="129" cy="281.6" r="1"/>
			</g>
			<g>
				<circle class="st0" cx="142.7" cy="281.6" r="1"/>
			</g>
			<g>
				<circle class="st0" cx="156.3" cy="281.6" r="1"/>
			</g>
			<g>
				<circle class="st0" cx="170" cy="281.6" r="1"/>
			</g>
			<g>
				<circle class="st0" cx="183.7" cy="281.6" r="1"/>
			</g>
			<g>
				<circle class="st0" cx="197.4" cy="281.6" r="1"/>
			</g>
			<g>
				<circle class="st0" cx="211.1" cy="281.6" r="1"/>
			</g>
			<g>
				<circle class="st0" cx="224.8" cy="281.6" r="1"/>
			</g>
			<g>
				<circle class="st0" cx="238.4" cy="281.6" r="1"/>
			</g>
			<g>
				<circle class="st0" cx="252.1" cy="281.6" r="1"/>
			</g>
			<g>
				<circle class="st0" cx="265.8" cy="281.6" r="1"/>
			</g>
		</g>
		<g>
			<g>
				<circle class="st0" cx="5.9" cy="267.9" r="1"/>
			</g>
			<g>
				<circle class="st0" cx="19.5" cy="267.9" r="1"/>
			</g>
			<g>
				<circle class="st0" cx="33.2" cy="267.9" r="1"/>
			</g>
			<g>
				<circle class="st0" cx="46.9" cy="267.9" r="1"/>
			</g>
			<g>
				<circle class="st0" cx="60.6" cy="267.9" r="1"/>
			</g>
			<g>
				<circle class="st0" cx="87.9" cy="267.9" r="1"/>
			</g>
			<g>
				<circle class="st0" cx="101.6" cy="267.9" r="1"/>
			</g>
			<g>
				<circle class="st0" cx="115.3" cy="267.9" r="1"/>
			</g>
			<g>
				<circle class="st0" cx="129" cy="267.9" r="1"/>
			</g>
			<g>
				<circle class="st0" cx="142.7" cy="267.9" r="1"/>
			</g>
			<g>
				<circle class="st0" cx="156.3" cy="267.9" r="1"/>
			</g>
			<g>
				<circle class="st0" cx="170" cy="267.9" r="1"/>
			</g>
			<g>
				<circle class="st0" cx="183.7" cy="267.9" r="1"/>
			</g>
			<g>
				<circle class="st0" cx="197.4" cy="267.9" r="1"/>
			</g>
			<g>
				<circle class="st0" cx="224.8" cy="267.9" r="1"/>
			</g>
			<g>
				<circle class="st0" cx="252.1" cy="267.9" r="1"/>
			</g>
			<g>
				<circle class="st0" cx="265.8" cy="267.9" r="1"/>
			</g>
		</g>
		<g>
			<circle class="st0" cx="19.5" cy="226.8" r="1"/>
		</g>
		<g>
			<circle class="st0" cx="33.2" cy="1" r="1"/>
		</g>
		<g>
			<circle class="st0" cx="46.9" cy="226.8" r="1"/>
		</g>
		<g>
			<circle class="st0" cx="74.3" cy="226.8" r="1"/>
		</g>
		<g>
			<circle class="st0" cx="87.9" cy="226.8" r="1"/>
		</g>
		<g>
			<circle class="st0" cx="87.9" cy="179.5" r="1"/>
		</g>
		<g>
			<circle class="st0" cx="101.6" cy="226.8" r="1"/>
		</g>
		<g>
			<circle class="st0" cx="115.3" cy="133.9" r="1"/>
		</g>
		<g>
			<circle class="st0" cx="129" cy="226.8" r="1"/>
		</g>
		<g>
			<circle class="st0" cx="142.7" cy="226.8" r="1"/>
		</g>
		<g>
			<circle class="st0" cx="156.3" cy="190.5" r="1"/>
		</g>
		<g>
			<circle class="st0" cx="170" cy="226.8" r="1"/>
		</g>
		<g>
			<circle class="st0" cx="183.7" cy="226.8" r="1"/>
		</g>
		<g>
			<circle class="st0" cx="183.7" cy="89.2" r="1"/>
		</g>
		<g>
			<circle class="st0" cx="197.4" cy="226.8" r="1"/>
		</g>
		<g>
			<circle class="st0" cx="211.1" cy="158.4" r="1"/>
		</g>
		<g>
			<circle class="st0" cx="224.8" cy="226.8" r="1"/>
		</g>
		<g>
			<circle class="st0" cx="238.4" cy="226.8" r="1"/>
		</g>
		<g>
			<circle class="st0" cx="252.1" cy="226.8" r="1"/>
		</g>
		<g>
			<g>
				<circle class="st0" cx="5.9" cy="240.5" r="1"/>
			</g>
			<g>
				<circle class="st0" cx="60.6" cy="240.5" r="1"/>
			</g>
			<g>
				<circle class="st0" cx="74.3" cy="240.5" r="1"/>
			</g>
			<g>
				<circle class="st0" cx="87.9" cy="240.5" r="1"/>
			</g>
			<g>
				<circle class="st0" cx="101.6" cy="240.5" r="1"/>
			</g>
			<g>
				<circle class="st0" cx="115.3" cy="240.5" r="1"/>
			</g>
			<g>
				<circle class="st0" cx="129" cy="240.5" r="1"/>
			</g>
			<g>
				<circle class="st0" cx="142.7" cy="240.5" r="1"/>
			</g>
			<g>
				<circle class="st0" cx="170" cy="240.5" r="1"/>
			</g>
			<g>
				<circle class="st0" cx="183.7" cy="240.5" r="1"/>
			</g>
			<g>
				<circle class="st0" cx="211.1" cy="240.5" r="1"/>
			</g>
			<g>
				<circle class="st0" cx="238.4" cy="240.5" r="1"/>
			</g>
			<g>
				<circle class="st0" cx="252.1" cy="240.5" r="1"/>
			</g>
		</g>
		<g>
			<g>
				<circle class="st0" cx="5.9" cy="254.2" r="1"/>
			</g>
			<g>
				<circle class="st0" cx="19.5" cy="254.2" r="1"/>
			</g>
			<g>
				<circle class="st0" cx="33.2" cy="254.2" r="1"/>
			</g>
			<g>
				<circle class="st0" cx="46.9" cy="254.2" r="1"/>
			</g>
			<g>
				<circle class="st0" cx="60.6" cy="254.2" r="1"/>
			</g>
			<g>
				<circle class="st0" cx="87.9" cy="254.2" r="1"/>
			</g>
			<g>
				<circle class="st0" cx="101.6" cy="254.2" r="1"/>
			</g>
			<g>
				<circle class="st0" cx="115.3" cy="254.2" r="1"/>
			</g>
			<g>
				<circle class="st0" cx="129" cy="254.2" r="1"/>
			</g>
			<g>
				<circle class="st0" cx="142.7" cy="254.2" r="1"/>
			</g>
			<g>
				<circle class="st0" cx="156.3" cy="254.2" r="1"/>
			</g>
			<g>
				<circle class="st0" cx="170" cy="254.2" r="1"/>
			</g>
			<g>
				<circle class="st0" cx="183.7" cy="254.2" r="1"/>
			</g>
			<g>
				<circle class="st0" cx="197.4" cy="254.2" r="1"/>
			</g>
			<g>
				<circle class="st0" cx="211.1" cy="254.2" r="1"/>
			</g>
			<g>
				<circle class="st0" cx="238.4" cy="254.2" r="1"/>
			</g>
			<g>
				<circle class="st0" cx="265.8" cy="254.2" r="1"/>
			</g>
		</g>
	</g>
	<g>
		<path class="st1" d="M91.4,373.8c0,0.5-0.4,1-1,1c-0.5,0-1-0.4-1-1c0-0.5,0.4-1,1-1C90.9,372.9,91.4,373.3,91.4,373.8"/>
		<rect x="150.5" y="216.7" class="st1" width="14.7" height="16.2"/>
		<rect x="58.5" y="326.1" class="st1" width="14.7" height="16.2"/>
		<rect x="177.8" y="326.1" class="st1" width="14.7" height="16.2"/>
		<rect x="40.6" y="449.2" class="st1" width="14.7" height="16.2"/>
		<rect x="259.3" y="435.5" class="st1" width="14.7" height="16.2"/>
		<rect x="246.3" y="368.2" class="st1" width="14.7" height="16.2"/>
		<rect x="111.4" y="394.5" class="st1" width="14.7" height="16.2"/>
		<rect x="2" y="445.9" class="st1" width="14.7" height="16.2"/>
		<rect x="1" y="394.5" class="st1" width="54.2" height="16.2"/>
		<rect x="109.4" y="461.9" class="st1" width="14.7" height="16.2"/>
		<rect x="29.3" y="420.5" class="st1" width="14.7" height="16.2"/>
		<rect x="180.4" y="460.6" class="st1" width="29.3" height="16.2"/>
		<rect x="195.1" y="365.8" class="st1" width="14.7" height="16.2"/>
		<rect x="247.4" y="352.1" class="st1" width="14.7" height="16.2"/>
		<rect x="205.8" y="311.1" class="st1" width="14.7" height="16.2"/>
		<rect x="139.8" y="432.3" class="st1" width="14.7" height="16.2"/>
		<rect x="154.5" y="460.6" class="st1" width="14.7" height="16.2"/>
		<rect x="123" y="392.2" class="st1" width="14.7" height="16.2"/>
		<rect x="1" y="367.1" class="st1" width="14.7" height="16.2"/>
		<rect x="83.1" y="312.4" class="st1" width="14.7" height="16.2"/>
		<rect x="202.6" y="230.3" class="st1" width="14.7" height="16.2"/>
		<rect x="135.3" y="230.3" class="st1" width="14.7" height="16.2"/>
		<rect x="135.3" y="222.2" class="st1" width="14.7" height="16.2"/>
		<rect x="217.4" y="222.2" class="st1" width="14.7" height="16.2"/>
		<rect x="98.3" y="222.2" class="st1" width="14.7" height="16.2"/>
		<rect x="166.1" y="222.2" class="st1" width="14.7" height="16.2"/>
		<rect x="187.7" y="222.2" class="st1" width="14.7" height="16.2"/>
		<rect x="123.8" y="222.5" class="st1" width="14.7" height="16.2"/>
		<rect x="10.8" y="217.7" class="st1" width="14.7" height="16.2"/>
		<rect x="205.2" y="257.7" class="st1" width="14.7" height="16.2"/>
		<rect x="136.8" y="257.7" class="st1" width="14.7" height="16.2"/>
		<rect x="13.7" y="298.7" class="st1" width="14.7" height="16.2"/>
		<rect x="202.6" y="285.1" class="st1" width="14.7" height="16.2"/>
		<rect x="187.7" y="338.5" class="st1" width="14.7" height="16.2"/>
		<rect x="220.5" y="365.8" class="st1" width="14.7" height="16.2"/>
		<rect x="54.7" y="449.2" class="st1" width="14.7" height="16.2"/>
		<rect x="27.1" y="449.2" class="st1" width="14.7" height="16.2"/>
		<rect x="68.4" y="447.3" class="st1" width="14.7" height="16.2"/>
		<rect x="247.4" y="324.8" class="st1" width="14.7" height="16.2"/>
		<rect x="259.3" y="377.5" class="st1" width="14.7" height="16.2"/>
		<rect x="154.5" y="297.4" class="st1" width="14.7" height="16.2"/>
		<rect x="165.2" y="338.5" class="st1" width="14.7" height="16.2"/>
		<rect x="108.3" y="336.5" class="st1" width="14.7" height="16.2"/>
		<rect x="247.4" y="432.3" class="st1" width="14.7" height="16.2"/>
		<rect x="154.5" y="406.9" class="st1" width="14.7" height="16.2"/>
		<rect x="220.5" y="433.2" class="st1" width="14.7" height="16.2"/>
		<rect x="259.3" y="393.2" class="st1" width="14.7" height="16.2"/>
		<rect x="98.3" y="406.9" class="st1" width="14.7" height="16.2"/>
		<rect x="108.3" y="445.9" class="st1" width="14.7" height="16.2"/>
		<rect x="232.7" y="419.6" class="st1" width="14.7" height="16.2"/>
		<rect x="180.4" y="433.2" class="st1" width="14.7" height="16.2"/>
		<rect x="205.8" y="433.2" class="st1" width="14.7" height="16.2"/>
		<rect x="139.8" y="445.9" class="st1" width="14.7" height="16.2"/>
		<rect x="15.7" y="434.6" class="st1" width="14.7" height="16.2"/>
		<rect x="218.9" y="414" class="st1" width="14.7" height="16.2"/>
		<rect x="164.2" y="435.5" class="st1" width="14.7" height="16.2"/>
		<rect x="54.7" y="462.9" class="st1" width="14.7" height="16.2"/>
		<rect x="95.8" y="367.1" class="st1" width="14.7" height="16.2"/>
		<rect x="138.8" y="380.8" class="st1" width="14.7" height="16.2"/>
		<rect x="177.8" y="421.9" class="st1" width="14.7" height="16.2"/>
		<rect x="28.3" y="367.1" class="st1" width="14.7" height="16.2"/>
		<rect x="84" y="421.9" class="st1" width="14.7" height="16.2"/>
		<rect x="246.3" y="230.3" class="st1" width="14.7" height="16.2"/>
		<rect x="58.5" y="230.3" class="st1" width="14.7" height="16.2"/>
		<rect x="150.5" y="284.1" class="st1" width="14.7" height="16.2"/>
		<rect x="207.2" y="353.5" class="st1" width="14.7" height="16.2"/>
		<rect y="437.8" class="st1" width="14.7" height="16.2"/>
		<rect x="125.1" y="408.2" class="st1" width="14.7" height="16.2"/>
		<rect x="205.8" y="445.9" class="st1" width="14.7" height="16.2"/>
		<rect x="125.2" y="460.6" class="st1" width="14.7" height="16.2"/>
		<rect x="187.7" y="433.2" class="st1" width="14.7" height="16.2"/>
		<rect x="147.1" y="379.5" class="st1" width="14.7" height="16.2"/>
		<rect x="202.4" y="378.5" class="st1" width="14.7" height="16.2"/>
		<rect x="108.3" y="432.3" class="st1" width="14.7" height="16.2"/>
		<rect x="98.3" y="434.2" class="st1" width="14.7" height="16.2"/>
		<rect x="28.3" y="462.9" class="st1" width="14.7" height="16.2"/>
		<rect x="137.8" y="461.9" class="st1" width="14.7" height="16.2"/>
		<rect x="205.8" y="459.6" class="st1" width="14.7" height="16.2"/>
		<rect x="232.7" y="462.9" class="st1" width="14.7" height="16.2"/>
		<rect x="165.2" y="447.9" class="st1" width="14.7" height="16.2"/>
		<rect x="259.3" y="419.6" class="st1" width="14.7" height="16.2"/>
		<rect x="202.4" y="418.6" class="st1" width="14.7" height="16.2"/>
		<rect x="233.5" y="408.2" class="st1" width="14.7" height="16.2"/>
		<rect x="247.4" y="445.9" class="st1" width="14.7" height="16.2"/>
		<rect x="123" y="352.1" class="st1" width="14.7" height="16.2"/>
		<rect x="152.4" y="367.1" class="st1" width="14.7" height="16.2"/>
		<rect x="195.1" y="406.9" class="st1" width="14.7" height="16.2"/>
		<rect x="69.4" y="435.5" class="st1" width="14.7" height="16.2"/>
		<rect x="123" y="419.6" class="st1" width="14.7" height="16.2"/>
		<rect x="123.1" y="312.4" class="st1" width="14.7" height="16.2"/>
		<rect x="179.8" y="449.2" class="st1" width="14.7" height="16.2"/>
		<rect x="219.9" y="449.2" class="st1" width="14.7" height="16.2"/>
		<rect x="112.8" y="421.9" class="st1" width="14.7" height="16.2"/>
		<rect x="99.2" y="379.8" class="st1" width="14.7" height="16.2"/>
		<rect x="84" y="353.5" class="st1" width="14.7" height="16.2"/>
		<rect x="220.5" y="393.2" class="st1" width="14.7" height="16.2"/>
		<rect x="54.7" y="420.5" class="st1" width="14.7" height="16.2"/>
		<rect x="154.5" y="420.5" class="st1" width="14.7" height="16.2"/>
		<rect x="3.5" y="460.6" class="st1" width="14.7" height="16.2"/>
		<rect x="84" y="448.2" class="st1" width="14.7" height="16.2"/>
		<rect x="96.7" y="462.9" class="st1" width="14.7" height="16.2"/>
		<rect x="66.5" y="408.2" class="st1" width="14.7" height="16.2"/>
		<rect x="40.6" y="462.9" class="st1" width="14.7" height="16.2"/>
		<rect x="84.6" y="393.5" class="st1" width="14.7" height="16.2"/>
		<rect x="166.1" y="394.5" class="st1" width="14.7" height="16.2"/>
		<rect x="191.5" y="394.5" class="st1" width="14.7" height="16.2"/>
		<rect x="3.5" y="420.5" class="st1" width="14.7" height="16.2"/>
		<rect x="108.3" y="189.3" class="st1" width="14.7" height="16.2"/>
		<rect x="58.5" y="351.6" class="st1" width="14.7" height="16.2"/>
		<rect x="166.1" y="351.6" class="st1" width="14.7" height="16.2"/>
		<rect x="248.9" y="337.7" class="st1" width="14.7" height="16.2"/>
		<rect x="151.4" y="338.9" class="st1" width="14.7" height="16.2"/>
		<rect x="222.8" y="339.8" class="st1" width="14.7" height="16.2"/>
		<rect x="27.1" y="351.6" class="st1" width="14.7" height="16.2"/>
		<rect x="243.5" y="351.6" class="st1" width="14.7" height="16.2"/>
		<rect x="178" y="298.7" class="st1" width="14.7" height="16.2"/>
		<rect x="121.1" y="337.9" class="st1" width="14.7" height="16.2"/>
		<rect x="190.5" y="337.9" class="st1" width="14.7" height="16.2"/>
		<rect x="41.7" y="338.9" class="st1" width="14.7" height="16.2"/>
		<rect x="83.1" y="326.1" class="st1" width="14.7" height="16.2"/>
		<rect x="207.2" y="326.1" class="st1" width="14.7" height="16.2"/>
		<rect x="25.9" y="326.1" class="st1" width="14.7" height="16.2"/>
		<rect x="42" y="408.2" class="st1" width="14.7" height="16.2"/>
		<rect x="109.4" y="367.1" class="st1" width="14.7" height="16.2"/>
		<rect x="66.5" y="367.1" class="st1" width="14.7" height="16.2"/>
		<rect x="70.4" y="216.7" class="st1" width="14.7" height="16.2"/>
		<rect x="165.1" y="312.4" class="st1" width="14.7" height="16.2"/>
		<rect x="10.8" y="462.9" class="st1" width="14.7" height="16.2"/>
		<rect x="40.6" y="435.5" class="st1" width="14.7" height="16.2"/>
		<rect x="152.4" y="449.2" class="st1" width="14.7" height="16.2"/>
		<rect x="55.7" y="408.2" class="st1" width="14.7" height="16.2"/>
		<rect x="246.3" y="394.5" class="st1" width="14.7" height="16.2"/>
		<rect x="178.8" y="368.2" class="st1" width="14.7" height="16.2"/>
		<rect x="65.9" y="340.9" class="st1" width="14.7" height="16.2"/>
		<rect x="246.3" y="462.9" class="st1" width="14.7" height="16.2"/>
		<rect x="69.4" y="285.1" class="st1" width="14.7" height="16.2"/>
		<rect x="126.1" y="269.3" class="st1" width="14.7" height="16.2"/>
		<rect x="232" y="189.3" class="st1" width="14.7" height="16.2"/>
		<rect x="13.2" y="371.4" class="st1" width="14.7" height="16.2"/>
		<rect x="69.4" y="377.2" class="st1" width="14.7" height="16.2"/>
		<rect x="84.6" y="228.2" class="st1" width="14.7" height="16.2"/>
		<rect x="66.5" y="255.6" class="st1" width="14.7" height="16.2"/>
		<rect x="42" y="249.6" class="st1" width="14.7" height="16.2"/>
		<rect x="27.1" y="249.6" class="st1" width="14.7" height="16.2"/>
		<rect x="105.3" y="233.1" class="st1" width="14.7" height="16.2"/>
		<rect x="99.2" y="283" class="st1" width="14.7" height="16.2"/>
		<rect x="177.4" y="245.1" class="st1" width="14.7" height="16.2"/>
		<rect x="235.1" y="214.5" class="st1" width="14.7" height="16.2"/>
		<rect x="191.5" y="271.8" class="st1" width="14.7" height="16.2"/>
		<rect x="126.1" y="241.9" class="st1" width="14.7" height="16.2"/>
		<rect x="165.1" y="271.4" class="st1" width="14.7" height="16.2"/>
		<rect x="83.1" y="270.4" class="st1" width="14.7" height="16.2"/>
		<rect x="219.9" y="245.5" class="st1" width="14.7" height="16.2"/>
		<rect x="56.7" y="298.7" class="st1" width="14.7" height="16.2"/>
		<rect x="233.5" y="312.4" class="st1" width="14.7" height="16.2"/>
		<rect x="43" y="380.8" class="st1" width="14.7" height="16.2"/>
		<rect x="177.8" y="378.9" class="st1" width="14.7" height="16.2"/>
		<rect x="33.2" y="214.5" class="st1" width="14.7" height="16.2"/>
		<rect x="44" y="255.6" class="st1" width="14.7" height="16.2"/>
		<rect x="232" y="282" class="st1" width="14.7" height="16.2"/>
		<rect x="250" y="255.6" class="st1" width="14.7" height="16.2"/>
		<rect x="1.7" y="269.3" class="st1" width="14.7" height="16.2"/>
		<rect x="27.1" y="286.1" class="st1" width="14.7" height="16.2"/>
		<rect x="257.6" y="298.7" class="st1" width="14.7" height="16.2"/>
		<rect x="135.3" y="326.1" class="st1" width="14.7" height="16.2"/>
		<rect x="179.7" y="188.5" class="st1" width="14.7" height="16.2"/>
	</g>
</g>
</svg>
