<svg xmlns="http://www.w3.org/2000/svg" width="269.44" height="178.59" viewBox="0 0 269.44 178.59">
  <defs>
    <style>
      .a, .c {
        fill: #7629f4;
      }

      .b, .e {
        fill: none;
      }

      .b {
        stroke: #7629f4;
      }

      .b, .c, .d, .e {
        stroke-linecap: round;
        stroke-linejoin: round;
        stroke-width: 1.25px;
      }

      .c, .d, .e {
        stroke: #fff;
      }

      .d {
        fill: #fff;
      }
    </style>
  </defs>
  <title>acid-small-1</title>
  <g>
    <g>
      <path class="a" d="M65.18,20L70,18.42l7.52,26.92,0.1,0V15.89l5-1.66V63.06l-4.69,1.56L70.25,37.8l-0.1,0V67.18l-5,1.66V20Z"/>
      <path class="a" d="M86.75,26.9l5-1.66v3.7a27,27,0,0,1,3-4,8.46,8.46,0,0,1,3.61-2.3V30a2.76,2.76,0,0,0-1.51.09,6.1,6.1,0,0,0-1.68.94,7.24,7.24,0,0,0-1.66,1.82,10.46,10.46,0,0,0-1.24,2.75,12.82,12.82,0,0,0-.49,3.73V60l-5,1.66V26.9Z"/>
      <path class="a" d="M96.7,51.36l5-1.66v7l-5,1.66v-7Z"/>
      <path class="a" d="M120.37,9.06l-5,6.8V8.45l5-6.8,5-1.66V48.82l-5,1.66V9.06Z"/>
    </g>
    <g>
      <line class="b" x1="206.66" y1="80.71" x2="92.04" y2="118.78"/>
      <line class="b" x1="261.43" y1="37.08" x2="176.1" y2="65.5"/>
      <line class="b" x1="193.16" y1="93.27" x2="85.29" y2="129.23"/>
      <line class="b" x1="241.84" y1="91.46" x2="133.97" y2="127.42"/>
      <g>
        <polygon class="c" points="0.62 165.73 24.9 177.96 24.9 144.22 0.62 132.13 0.62 165.73"/>
        <polyline class="c" points="24.9 177.96 176.1 127.56 176.1 93.84 24.9 144.25"/>
        <polygon class="d" points="176.1 93.84 24.9 144.25 0.62 132.13 151.82 81.73 176.1 93.84"/>
        <line class="e" x1="24.9" y1="144.22" x2="24.9" y2="177.96"/>
      </g>
      <line class="d" x1="132.77" y1="125.2" x2="64.37" y2="148"/>
      <line class="b" x1="132.77" y1="91.46" x2="24.9" y2="127.42"/>
      <line class="b" x1="176.1" y1="43.27" x2="24.9" y2="93.68"/>
      <polygon class="a" points="255.94 49.94 269.44 35.53 255.94 28.45 255.94 49.94"/>
      <polygon class="a" points="206.66 91.46 220.16 77.06 206.66 69.97 206.66 91.46"/>
      <polygon class="a" points="241.84 102.2 255.35 87.8 241.85 80.71 241.84 102.2"/>
      <line class="b" x1="132.77" y1="91.46" x2="132.77" y2="101.45"/>
      <line class="d" x1="132.77" y1="114.22" x2="132.77" y2="125.2"/>
      <line class="b" x1="24.9" y1="93.68" x2="24.9" y2="127.42"/>
      <line class="b" x1="176.1" y1="43.27" x2="176.1" y2="65.5"/>
    </g>
  </g>
</svg>
