<svg xmlns="http://www.w3.org/2000/svg" width="96.01" height="104.31" viewBox="0 0 96.01 104.31">
  <defs>
    <style>
      .a {
        fill: none;
      }

      .a, .b, .d {
        stroke: #7629f4;
        stroke-linecap: round;
        stroke-linejoin: round;
        stroke-width: 1.25px;
      }

      .b, .c {
        fill: #7629f4;
      }

      .d {
        fill: #fff;
      }
    </style>
  </defs>
  <title>acid-small-4</title>
  <polyline class="a" points="46 20.27 32.57 13.55 32.57 25.01 46 31.73"/>
  <polyline class="a" points="35.1 92.22 21.67 85.51 21.67 96.97 35.1 103.69"/>
  <polygon class="b" points="89.75 17.14 89.75 5.68 46 20.26 46 31.73 89.75 17.14"/>
  <polygon class="b" points="78.86 89.1 78.86 77.64 35.1 92.22 35.1 103.69 78.86 89.1"/>
  <polygon class="a" points="10.74 73.35 95.38 45.14 95.38 33.68 10.74 61.89 10.74 73.35"/>
  <polygon class="c" points="65.39 29.48 72.19 37.69 58.59 42.22 65.39 29.48"/>
  <line class="a" x1="65.39" y1="43.27" x2="65.39" y2="70.7"/>
  <polygon class="c" points="40.73 84.49 47.53 72.81 33.93 77.34 40.73 84.49"/>
  <line class="a" x1="40.73" y1="41.62" x2="40.73" y2="71.77"/>
  <line class="a" x1="71.36" y1="0.62" x2="32.57" y2="13.55"/>
  <line class="a" x1="32.57" y1="81.88" x2="21.67" y2="85.51"/>
  <line class="a" x1="74.16" y1="68.02" x2="48.54" y2="76.55"/>
  <path class="a" d="M29.74,46.65V39.4A3.58,3.58,0,0,0,26,36a6.06,6.06,0,0,0-5.63,4.65l0,1.81v6.89" transform="translate(-15.94 -5.99)"/>
  <polygon class="d" points="0.62 42.01 17.5 36.39 17.5 50.91 0.62 56.54 0.62 42.01"/>
</svg>
