<svg xmlns="http://www.w3.org/2000/svg" width="1571.43" height="504.62" viewBox="0 0 1571.43 504.62">
  <defs>
    <style>
      .a, .d, .e, .k, .l, .m, .n, .o {
        fill: none;
      }

      .a, .b, .c, .d, .j, .m, .n, .o {
        stroke: #fff;
      }

      .a, .b, .c, .d, .e, .h, .i, .k, .l, .m, .o {
        stroke-linecap: round;
        stroke-linejoin: round;
      }

      .a, .b, .c, .d, .e, .h, .k, .l, .m, .o {
        stroke-width: 1.25px;
      }

      .b, .f, .h {
        fill: #7629f4;
      }

      .c, .g, .j {
        fill: #fff;
      }

      .d {
        stroke-dasharray: 3 3;
      }

      .e, .i {
        stroke: #f1f1f1;
      }

      .h, .k, .l {
        stroke: #7629f4;
      }

      .i {
        fill: #f1f1f1;
      }

      .j, .n {
        stroke-miterlimit: 10;
      }

      .l {
        stroke-dasharray: 2.95 2.95;
      }

      .m {
        stroke-dasharray: 3.07 3.07;
      }

      .o {
        stroke-dasharray: 3.05 3.05;
      }
    </style>
  </defs>
  <title>acid-animations</title>
  <g>
    <g>
      <line class="a" x1="1206.8" y1="140.09" x2="1274.66" y2="173.95"/>
      <line class="a" x1="1206.84" y1="83.93" x2="1206.84" y2="140"/>
      <g>
        <polygon class="b" points="1139.36 160.28 1159.59 170.47 1159.59 142.35 1139.36 132.28 1139.36 160.28"/>
        <polyline class="b" points="1159.59 170.47 1264.62 135.16 1264.62 107.06 1159.59 142.37"/>
        <polyline class="c" points="1264.62 107.06 1159.59 142.37 1139.36 132.28 1244.39 96.97"/>
        <line class="a" x1="1159.59" y1="142.35" x2="1159.59" y2="170.47"/>
      </g>
      <g>
        <polygon class="b" points="1218.69 156.87 1238.92 167.06 1238.92 138.94 1218.69 128.87 1218.69 156.87"/>
        <polyline class="b" points="1238.92 167.06 1364.92 125.06 1364.92 96.97 1238.92 138.97"/>
        <polyline class="c" points="1364.92 96.97 1238.92 138.97 1218.69 128.87 1344.69 86.87"/>
        <line class="a" x1="1238.92" y1="138.94" x2="1238.92" y2="167.06"/>
      </g>
      <g>
        <polygon class="b" points="1237.73 186.92 1257.96 197.12 1257.96 169 1237.73 158.92 1237.73 186.92"/>
        <polyline class="b" points="1257.96 197.12 1383.96 155.12 1383.96 127.02 1257.96 169.02"/>
        <polyline class="c" points="1383.96 127.02 1257.96 169.02 1237.73 158.92 1363.73 116.92"/>
        <line class="a" x1="1257.96" y1="169" x2="1257.96" y2="197.12"/>
      </g>
      <g>
        <polygon class="b" points="326.95 382.03 347.18 392.23 347.18 364.11 326.95 354.03 326.95 382.03"/>
        <polyline class="b" points="347.18 392.23 473.18 350.23 473.18 322.13 347.18 364.13"/>
        <polygon class="c" points="473.18 322.13 347.18 364.13 326.95 354.04 452.95 312.03 473.18 322.13"/>
        <line class="a" x1="347.18" y1="364.11" x2="347.18" y2="392.23"/>
      </g>
      <g>
        <polygon class="b" points="319.72 427.69 339.95 437.88 339.95 409.76 319.72 399.69 319.72 427.69"/>
        <polyline class="b" points="339.95 437.88 465.95 395.88 465.95 367.79 339.95 409.79"/>
        <polygon class="c" points="465.95 367.79 339.95 409.79 319.72 399.69 445.72 357.69 465.95 367.79"/>
        <line class="a" x1="339.95" y1="409.76" x2="339.95" y2="437.88"/>
      </g>
      <g>
        <polygon class="b" points="422.76 437.43 442.99 447.62 442.99 419.5 422.76 409.43 422.76 437.43"/>
        <polyline class="b" points="442.99 447.62 568.99 405.62 568.99 377.52 442.99 419.53"/>
        <polygon class="c" points="568.99 377.52 442.99 419.53 422.76 409.43 548.76 367.43 568.99 377.52"/>
        <line class="a" x1="442.99" y1="419.5" x2="442.99" y2="447.62"/>
      </g>
      <line class="d" x1="478.95" y1="348.29" x2="529.95" y2="331.29"/>
      <line class="d" x1="577.95" y1="315.28" x2="545.39" y2="326.14"/>
      <line class="a" x1="452.9" y1="226.53" x2="383.23" y2="249.76"/>
      <line class="a" x1="577.19" y1="367.21" x2="552.71" y2="375.36"/>
      <line class="a" x1="491.19" y1="371.29" x2="466.71" y2="379.44"/>
      <line class="e" x1="505.12" y1="302.36" x2="460.25" y2="317.32"/>
      <line class="a" x1="1223.22" y1="139.97" x2="1171.77" y2="157.12"/>
      <line class="a" x1="1246.53" y1="169.44" x2="1195.08" y2="186.6"/>
      <line class="a" x1="538.3" y1="329.46" x2="383.23" y2="249.76"/>
      <polyline class="b" points="1570.81 55.94 1318.81 139.97 1318.81 153.97 1276.81 167.97 1276.81 181.97 1234.81 195.97 1234.81 223.97 1318.81 195.97 1318.81 209.97 1528.81 139.97"/>
      <polyline class="f" points="1290.81 58.37 1207.51 85.11 1207.48 86.75 1318.33 142.09 1318.29 140.39"/>
      <line class="c" x1="1206.89" y1="84.06" x2="1318.8" y2="139.97"/>
      <polyline class="g" points="1206.85 83.94 1248.96 104.98 1318.76 139.85 1570.81 55.94 1458.81 0"/>
      <polygon class="h" points="325.91 327.79 73.99 411.88 116.11 432.92 185.91 467.79 437.91 383.79 325.91 327.79"/>
      <polygon class="i" points="325.91 329.29 73.99 413.38 116.11 434.42 185.91 469.29 437.91 385.29 325.91 329.29"/>
      <polyline class="f" points="284.95 504.62 185.95 469.29 437.95 385.29 437.95 399.29 479.95 385.29 479.95 405.28 460.97 411.59 460.97 419.59 521.95 399.29 521.95 427.29"/>
      <line class="j" x1="601.84" y1="421.65" x2="451.95" y2="471.61"/>
      <line class="j" x1="1144.53" y1="287.66" x2="1224.76" y2="260.92"/>
      <polygon class="g" points="452.08 242.71 472.58 220.83 452.08 211.07 452.08 242.71"/>
      <polygon class="g" points="1217.71 280.92 1239.99 257.16 1217.71 245.46 1217.71 280.92"/>
      <g>
        <line class="k" x1="1309.79" y1="142.97" x2="1308.37" y2="143.45"/>
        <line class="l" x1="1305.57" y1="144.38" x2="1262.21" y2="158.83"/>
        <line class="k" x1="1260.81" y1="159.3" x2="1259.39" y2="159.77"/>
      </g>
      <line class="e" x1="503.95" y1="363.29" x2="609.34" y2="328.16"/>
      <line class="e" x1="466.78" y1="281.24" x2="572.17" y2="246.11"/>
      <g>
        <line class="a" x1="337.68" y1="325.38" x2="339.1" y2="324.9"/>
        <line class="m" x1="342.01" y1="323.93" x2="428.03" y2="295.26"/>
        <line class="a" x1="429.49" y1="294.77" x2="430.91" y2="294.3"/>
      </g>
      <line class="j" x1="67.68" y1="415.38" x2="0.16" y2="437.88"/>
      <line class="j" x1="177.35" y1="472.15" x2="118.43" y2="491.79"/>
      <line class="k" x1="1463.76" y1="42.59" x2="1303.61" y2="95.98"/>
      <line class="k" x1="351.65" y1="364.91" x2="80.72" y2="455.22"/>
      <circle class="a" cx="538.3" cy="329.46" r="3.13"/>
      <polyline class="n" points="437.95 385.29 437.95 399.29 479.95 385.29 479.95 405.28 460.97 411.59 460.97 419.59 521.95 399.29 521.95 433.28"/>
      <g>
        <line class="a" x1="1203.81" y1="84.97" x2="1202.38" y2="85.44"/>
        <line class="o" x1="1199.49" y1="86.41" x2="1039.02" y2="139.9"/>
        <line class="a" x1="1037.57" y1="140.38" x2="1036.15" y2="140.85"/>
      </g>
    </g>
    <line class="e" x1="1195.66" y1="316.06" x2="1366.05" y2="259.26"/>
  </g>
</svg>
