<svg xmlns="http://www.w3.org/2000/svg" width="250.31" height="163.57" viewBox="0 0 250.31 163.57">
  <defs>
    <style>
      .a, .b {
        fill: #7629f4;
      }

      .b, .c, .d {
        stroke: #fff;
      }

      .b, .c, .d, .e, .f {
        stroke-linecap: round;
        stroke-linejoin: round;
      }

      .b, .c, .d, .e {
        stroke-width: 1.25px;
      }

      .c, .f {
        fill: #fff;
      }

      .d, .e {
        fill: none;
      }

      .e, .f {
        stroke: #7629f4;
      }

      .f {
        stroke-width: 1.28px;
      }
    </style>
  </defs>
  <title>acid-small-2</title>
  <g>
    <path class="a" d="M92.18,27.37L97,25.78l7.52,26.92,0.1,0V23.24l5-1.66V70.41L104.87,72,97.25,45.15l-0.1,0V74.53l-5,1.66V27.37Z" transform="translate(-9.56 -7.72)"/>
    <path class="a" d="M113.75,34.25l5-1.66v3.7a27,27,0,0,1,3-4,8.46,8.46,0,0,1,3.61-2.3V37.4a2.76,2.76,0,0,0-1.51.09,6.1,6.1,0,0,0-1.68.94,7.24,7.24,0,0,0-1.66,1.82A10.46,10.46,0,0,0,119.21,43a12.82,12.82,0,0,0-.49,3.73V67.36l-5,1.66V34.25Z" transform="translate(-9.56 -7.72)"/>
    <path class="a" d="M123.7,58.71l5-1.66v7l-5,1.66v-7Z" transform="translate(-9.56 -7.72)"/>
    <path class="a" d="M141.46,53.21l9-26.78a14,14,0,0,0,.78-3.38q0.1-1.37.1-3.36,0-.89,0-1.87a6.56,6.56,0,0,0-.27-1.66,2,2,0,0,0-.71-1,1.54,1.54,0,0,0-1.42,0,3.22,3.22,0,0,0-1.78,1.48,5.47,5.47,0,0,0-.66,2.83v4l-5,1.66V21.19a16.07,16.07,0,0,1,.59-4.31A17.26,17.26,0,0,1,143.64,13,13.29,13.29,0,0,1,146,9.91a7.79,7.79,0,0,1,2.93-1.83A4.93,4.93,0,0,1,152.27,8a4.7,4.7,0,0,1,2.29,1.95,10.13,10.13,0,0,1,1.32,3.47,22.94,22.94,0,0,1,.42,4.52q0,1.78,0,3t-0.19,2.36a16.42,16.42,0,0,1-.49,2.36q-0.34,1.21-.93,3l-7.32,22.25,9-3v7l-14.83,4.94V53.21Z" transform="translate(-9.56 -7.72)"/>
  </g>
  <g>
    <g>
      <polygon class="b" points="96.03 150.71 120.31 162.94 120.31 129.2 96.03 117.11 96.03 150.71"/>
      <polyline class="b" points="120.31 162.95 224.72 128.15 224.72 94.43 120.31 129.23"/>
      <polygon class="c" points="224.72 94.43 120.31 129.23 96.03 117.11 200.44 82.31 224.72 94.43"/>
      <line class="d" x1="120.31" y1="129.2" x2="120.31" y2="162.94"/>
    </g>
    <g>
      <g>
        <polygon class="b" points="0.62 144.71 24.9 156.95 24.9 123.2 0.62 111.11 0.62 144.71"/>
        <polyline class="b" points="24.9 156.95 129.31 122.15 129.31 88.43 24.9 123.23"/>
        <polygon class="c" points="129.31 88.43 24.9 123.23 0.62 111.12 105.03 76.32 129.31 88.43"/>
        <line class="d" x1="24.9" y1="123.2" x2="24.9" y2="156.95"/>
      </g>
      <line class="e" x1="143.04" y1="73.25" x2="57.71" y2="101.68"/>
      <line class="e" x1="237.66" y1="79.25" x2="152.33" y2="107.68"/>
      <polygon class="a" points="143.04 84.4 156.54 70 143.04 62.91 143.04 84.4"/>
      <polygon class="a" points="236.81 90 250.31 75.59 236.81 68.51 236.81 90"/>
      <polygon class="f" points="43.46 87.15 18.08 74.46 18.08 87.79 38.56 98.03 43.46 107.44 43.46 87.15"/>
    </g>
  </g>
</svg>
