<svg xmlns="http://www.w3.org/2000/svg" width="31.04" height="31.04" viewBox="0 0 31.04 31.04">
  <defs>
    <style>
      .a {
        fill: #b5b5b5;
      }

      .b {
        fill: #f0f0f0;
      }
    </style>
  </defs>
  <title>facebook-icon</title>
  <g>
    <path class="a" d="M1.71,0H29.33A1.71,1.71,0,0,1,31,1.71V29.33A1.72,1.72,0,0,1,29.33,31H1.71A1.71,1.71,0,0,1,0,29.33V1.71A1.71,1.71,0,0,1,1.71,0Z"/>
    <path class="b" d="M22.27,27.42V16.8h3.56l0.53-4.13H22.27V10c0-1.19.33-2,2-2h2.19V4.31a28.57,28.57,0,0,0-3.19-.16C20.16,4.15,18,6.07,18,9.62v3.05H14.43V16.8H18V27.42h4.27Z"/>
  </g>
</svg>
