<svg xmlns="http://www.w3.org/2000/svg" width="31.04" height="31.04" viewBox="0 0 31.04 31.04">
  <defs>
    <style>
      .a {
        fill: #aaa;
      }

      .b {
        fill: #f0f0f0;
      }
    </style>
  </defs>
  <title>twiter-icon-hover</title>
  <path class="a" d="M29.33,31A1.71,1.71,0,0,0,31,29.33V1.71A1.71,1.71,0,0,0,29.33,0H1.71A1.71,1.71,0,0,0,0,1.71V29.33A1.71,1.71,0,0,0,1.71,31H29.33Z"/>
  <path class="b" d="M12.31,24.08a11.4,11.4,0,0,1-6.16-1.8,8.18,8.18,0,0,0,1,.06,8.06,8.06,0,0,0,5-1.72,4,4,0,0,1-3.76-2.79,4,4,0,0,0,1.82-.07,4,4,0,0,1-3.23-3.94V13.76a4,4,0,0,0,1.82.5A4,4,0,0,1,7,10.92a4,4,0,0,1,.54-2,11.43,11.43,0,0,0,8.29,4.2,4,4,0,0,1,6.85-3.67,8,8,0,0,0,2.55-1,4,4,0,0,1-1.77,2.22A8,8,0,0,0,25.75,10a8,8,0,0,1-2,2.08c0,0.17,0,.35,0,0.52A11.36,11.36,0,0,1,12.31,24.08"/>
</svg>
