<!-- Generator: Adobe Illustrator 19.2.1, SVG Export Plug-In  -->
<svg version="1.1"
	 xmlns="http://www.w3.org/2000/svg" xmlns:xlink="http://www.w3.org/1999/xlink" xmlns:a="http://ns.adobe.com/AdobeSVGViewerExtensions/3.0/"
	 x="0px" y="0px" width="136.6px" height="69.5px" viewBox="0 0 136.6 69.5" style="enable-background:new 0 0 136.6 69.5;"
	 xml:space="preserve">
<style type="text/css">
	.st0{fill:#752AF3;stroke:#FFFFFF;stroke-width:1.2475;stroke-linecap:round;stroke-linejoin:round;stroke-miterlimit:10;}
	.st1{fill:#752AF3;}
	.st2{fill:#FFFFFF;}
	.st3{fill:none;stroke:#FFFFFF;stroke-linecap:round;stroke-linejoin:round;}
	.st4{fill:none;stroke:#FFFFFF;stroke-linecap:round;stroke-linejoin:round;stroke-dasharray:0.5143,3.0857;}
	.st5{fill:none;stroke:#FFFFFF;stroke-width:1.2475;stroke-linecap:round;stroke-linejoin:round;stroke-miterlimit:10;}
</style>
<defs>
</defs>
<g>
	<g>
		<g>
			<polygon class="st0" points="8.6,26.6 59.7,52.1 59.7,64.8 8.6,39.3 			"/>
			<polyline class="st0" points="59.7,52.1 135.4,26.8 135.4,39.5 59.7,64.8 			"/>
			<g>
				<path class="st1" d="M59.7,52.7c-0.1,0-0.2,0-0.3-0.1l-51-25.5C8.1,27,8,26.8,8,26.5c0-0.3,0.2-0.5,0.4-0.5L84.2,0.7
					c0.1,0,0.1,0,0.2,0c0.1,0,0.2,0,0.3,0.1l51,25.5c0.2,0.1,0.4,0.4,0.3,0.6c0,0.3-0.2,0.5-0.4,0.5L59.9,52.7
					C59.8,52.7,59.7,52.7,59.7,52.7z"/>
				<g>
					<path class="st2" d="M84.4,1.2l51,25.5L59.7,52.1l-51-25.5L84.4,1.2 M84.4,0c-0.1,0-0.3,0-0.4,0.1L8.2,25.4
						c-0.5,0.2-0.8,0.6-0.8,1.1c0,0.5,0.2,1,0.7,1.2l51,25.5c0.2,0.1,0.4,0.1,0.6,0.1c0.1,0,0.3,0,0.4-0.1l75.7-25.3
						c0.5-0.2,0.8-0.6,0.8-1.1c0-0.5-0.2-1-0.7-1.2l-51-25.5C84.7,0,84.5,0,84.4,0L84.4,0z"/>
				</g>
			</g>
		</g>
	</g>
	<polygon class="st0" points="59.7,52.1 67.7,56.1 67.7,68.9 59.7,64.8 	"/>
	<polygon class="st0" points="0.6,22.4 8.6,26.4 8.6,39.2 0.6,35.2 	"/>
	<g>
		<g>
			<line class="st3" x1="13" y1="37.5" x2="13.2" y2="37.7"/>
			<line class="st4" x1="16" y1="39" x2="53.3" y2="57.7"/>
			<line class="st3" x1="54.6" y1="58.4" x2="54.9" y2="58.5"/>
		</g>
	</g>
	<g>
		<g>
			<line class="st3" x1="13" y1="35.2" x2="13.2" y2="35.3"/>
			<line class="st4" x1="16" y1="36.7" x2="53.3" y2="55.4"/>
			<line class="st3" x1="54.6" y1="56" x2="54.9" y2="56.2"/>
		</g>
	</g>
	<line class="st5" x1="102.9" y1="37.5" x2="74.3" y2="23.3"/>
	<line class="st5" x1="89.2" y1="42.1" x2="68" y2="31.5"/>
</g>
</svg>
