<!-- Generator: Adobe Illustrator 19.2.1, SVG Export Plug-In  -->
<svg version="1.1"
	 xmlns="http://www.w3.org/2000/svg" xmlns:xlink="http://www.w3.org/1999/xlink" xmlns:a="http://ns.adobe.com/AdobeSVGViewerExtensions/3.0/"
	 x="0px" y="0px" width="229.2px" height="99.9px" viewBox="0 0 229.2 99.9" style="enable-background:new 0 0 229.2 99.9;"
	 xml:space="preserve">
<style type="text/css">
	.st0{fill:#FFFFFF;stroke:#7629F4;stroke-width:1.248;stroke-linecap:round;stroke-linejoin:round;stroke-miterlimit:10;}
	.st1{fill:none;stroke:#7629F4;stroke-width:1.248;stroke-linecap:round;stroke-linejoin:round;stroke-miterlimit:10;}
	.st2{fill:#752AF3;stroke:#FFFFFF;stroke-width:1.2475;stroke-linecap:round;stroke-linejoin:round;stroke-miterlimit:10;}
	.st3{fill:#752AF3;}
	.st4{fill:#FFFFFF;}
	.st5{fill:none;stroke:#FFFFFF;stroke-linecap:round;stroke-linejoin:round;}
	.st6{fill:none;stroke:#FFFFFF;stroke-linecap:round;stroke-linejoin:round;stroke-dasharray:0.5143,3.0857;}
	.st7{fill:none;stroke:#FFFFFF;stroke-width:1.2475;stroke-linecap:round;stroke-linejoin:round;stroke-miterlimit:10;}
</style>
<defs>
</defs>
<path class="st0" d="M166.9,67.3c-2.6,0-5.1,0.7-7.2,1.9c-3.9-5.5-10.3-9-17.6-9c-11.9,0-21.6,9.7-21.6,21.6h31.9h11.3h17.6
	C181.4,73.8,174.9,67.3,166.9,67.3z"/>
<circle class="st0" cx="114.5" cy="68.1" r="25.1"/>
<circle class="st1" cx="60.6" cy="63.1" r="18.8"/>
<circle class="st0" cx="138.9" cy="55.5" r="16.6"/>
<path class="st0" d="M0.6,91c0-9.2,7.4-16.6,16.6-16.6c9.2,0,16.6,7.4,16.6,16.6H0.6z"/>
<line class="st1" x1="90.1" y1="6.8" x2="48.7" y2="20.6"/>
<line class="st1" x1="209.3" y1="85" x2="167.9" y2="98.8"/>
<line class="st1" x1="75.3" y1="90.4" x2="48.7" y2="99.2"/>
<g>
	<g>
		<g>
			<polygon class="st2" points="35.1,44.4 86.1,70 86.1,82.7 35.1,57.2 			"/>
			<polyline class="st2" points="86.1,70 161.9,44.6 161.9,57.4 86.1,82.7 			"/>
			<g>
				<path class="st3" d="M86.1,70.6c-0.1,0-0.2,0-0.3-0.1L34.8,45c-0.2-0.1-0.4-0.4-0.3-0.6c0-0.3,0.2-0.5,0.4-0.5l75.7-25.3
					c0.1,0,0.1,0,0.2,0c0.1,0,0.2,0,0.3,0.1l51,25.5c0.2,0.1,0.4,0.4,0.3,0.6c0,0.3-0.2,0.5-0.4,0.5L86.3,70.5
					C86.3,70.6,86.2,70.6,86.1,70.6z"/>
				<g>
					<path class="st4" d="M110.8,19.1l51,25.5L86.1,70l-51-25.5L110.8,19.1 M110.8,17.9c-0.1,0-0.3,0-0.4,0.1L34.7,43.3
						c-0.5,0.2-0.8,0.6-0.8,1.1c0,0.5,0.2,1,0.7,1.2l51,25.5c0.2,0.1,0.4,0.1,0.6,0.1c0.1,0,0.3,0,0.4-0.1l75.7-25.3
						c0.5-0.2,0.8-0.6,0.8-1.1c0-0.5-0.2-1-0.7-1.2l-51-25.5C111.2,17.9,111,17.9,110.8,17.9L110.8,17.9z"/>
				</g>
			</g>
		</g>
	</g>
	<polygon class="st2" points="86.2,70 94.2,74 94.2,86.7 86.2,82.7 	"/>
	<polygon class="st2" points="27.1,40.3 35.1,44.3 35.1,57.1 27.1,53.1 	"/>
	<g>
		<g>
			<line class="st5" x1="39.5" y1="55.4" x2="39.7" y2="55.5"/>
			<line class="st6" x1="42.5" y1="56.9" x2="79.7" y2="75.5"/>
			<line class="st5" x1="81.1" y1="76.2" x2="81.3" y2="76.3"/>
		</g>
	</g>
	<g>
		<g>
			<line class="st5" x1="39.5" y1="53.1" x2="39.7" y2="53.2"/>
			<line class="st6" x1="42.5" y1="54.6" x2="79.7" y2="73.2"/>
			<line class="st5" x1="81.1" y1="73.9" x2="81.3" y2="74"/>
		</g>
	</g>
	<line class="st7" x1="129.4" y1="55.4" x2="100.8" y2="41.1"/>
	<line class="st7" x1="115.7" y1="59.9" x2="94.5" y2="49.4"/>
</g>
<path class="st0" d="M203.7,12.9c-4.5,0-8.7,1.2-12.3,3.3c-6.7-9.4-17.7-15.5-30.2-15.5c-20.5,0-37.1,16.6-37.1,37.1h54.8h19.5h30.3
	C228.5,24,217.4,12.9,203.7,12.9z"/>
</svg>
