<?xml version="1.0" encoding="utf-8"?>
<!-- Generator: Adobe Illustrator 19.2.1, SVG Export Plug-In . SVG Version: 6.00 Build 0)  -->
<svg version="1.1" id="Layer_1" xmlns="http://www.w3.org/2000/svg" xmlns:xlink="http://www.w3.org/1999/xlink" x="0px" y="0px"
	 viewBox="0 0 173.2 34.3" style="enable-background:new 0 0 173.2 34.3;" xml:space="preserve">
<style type="text/css">
	.st0{fill:#848484;}
	.st1{display:none;}
	.st2{display:inline;fill:#848484;}
	.st3{display:inline;}
</style>
<g>
	<polygon class="st0" points="167.9,14.3 166.8,14.3 166.8,13.9 169.4,13.9 169.4,14.3 168.4,14.3 168.4,17.1 167.9,17.1 	"/>
	<polygon class="st0" points="172.8,14.2 172.8,14.2 171.8,17.1 171.4,17.1 170.3,14.2 170.3,14.2 170.3,17.1 169.9,17.1 
		169.9,13.9 170.7,13.9 171.6,16.5 171.6,16.5 172.5,13.9 173.2,13.9 173.2,17.1 172.8,17.1 	"/>
	<path class="st0" d="M54.1,13.3c-0.1-1.5-1.7-2.5-3.4-2.5c-3.9,0-4.6,3.6-4.6,6.4c0,3.3,1,6.4,4.4,6.4c1.7,0,3.2-0.8,3.5-2.5h2.3
		c-0.2,2.7-2.9,4.4-6,4.4c-4.7,0-6.5-3.8-6.5-8.2c0-3.9,1.7-8.4,7-8.2c3,0.1,5.3,1.6,5.6,4.4H54.1"/>
	<path class="st0" d="M60.2,20c-0.2,1.9,0.6,3.9,2.8,3.9c1.6,0,2.4-0.6,2.7-2.2h2.2c-0.3,2.5-2.3,3.7-4.9,3.7
		c-3.5,0-4.9-2.5-4.9-5.7c0-3.2,1.6-5.9,5.1-5.9c3.3,0.1,4.8,2.1,4.8,5.2v1H60.2 M65.7,18.5c0-1.8-0.8-3.3-2.8-3.3
		c-1.7,0-2.8,1.5-2.8,3.3H65.7z"/>
	<path class="st0" d="M72.1,15.7L72.1,15.7c0.7-1.4,2.3-1.9,3.4-1.9c0.8,0,4.2,0.2,4.2,3.7v7.6h-2.1v-6.9c0-1.8-0.8-2.8-2.5-2.8
		c0,0-1.1-0.1-2,0.8c-0.3,0.3-0.9,0.8-0.9,2.9v6h-2.1v-11h2V15.7"/>
	<path class="st0" d="M82.9,14.1v-2.3l2.1-0.7v3h2.5v1.5H85v7.1c0,0.8,0.6,1.2,1.4,1.2c0.3,0,0.8,0,1.1-0.1v1.6
		c-0.5,0-0.9,0.1-1.4,0.1c-0.5,0-0.9,0-1.4-0.1c-0.3-0.1-0.9-0.2-1.2-0.7c-0.4-0.5-0.5-0.6-0.5-2v-6.9H81v-1.5H82.9"/>
	<path class="st0" d="M96.7,14.1h2.1v11h-2v-1.6h0c-0.8,1.4-2.2,1.9-3.8,1.9c-2.3,0-3.6-1.7-3.6-4v-7.4h2.1v6.5
		c0,1.9,0.4,3.3,2.4,3.3c0.9,0,2-0.4,2.5-1.6c0.4-1,0.4-2.3,0.4-2.6V14.1"/>
	<path class="st0" d="M103.5,25.1h-2.1v-11h2.1v2.1h0c0.3-1.5,1.7-2.3,3.2-2.3c0.3,0,0.5,0,0.7,0v2c-0.3-0.1-0.6-0.1-0.9-0.1
		c-2.6,0.1-3.1,1.5-3.1,3.8V25.1"/>
	<polygon class="st0" points="113.8,29.3 111.7,29.3 113.3,25 108.7,14.1 111.1,14.1 114.5,22.7 118,14.1 120.2,14.1 	"/>
	<polygon class="st0" points="121.8,25.1 121.8,9.3 125.2,9.3 125.2,22.4 132,22.4 132,25.1 	"/>
	<path class="st0" d="M134,9.3h3.5v2.8H134V9.3z M134.1,14.1h3.3v11h-3.3V14.1z"/>
	<path class="st0" d="M143.8,15.3L143.8,15.3c0.7-0.9,1.8-1.6,3.4-1.6c1.1,0,3.2,0.8,3.6,2.4c0.2,0.7,0.2,1.4,0.2,1.8v7.2h-3.3v-6.6
		c0-1.2-0.4-2.5-2-2.5c-1,0-1.9,0.9-2,2.5v6.6h-3.3v-11h3.3V15.3"/>
	<polygon class="st0" points="157.5,18.5 157.6,18.6 160.8,13.9 164.5,13.9 160.7,18.8 164.7,25.1 160.9,25.1 157.6,19 157.5,19.1 
		157.5,25.1 154.2,25.1 154.2,9.3 157.5,9.3 	"/>
	<path class="st0" d="M3.1,27.1c1.1,1.6,2.5,3,4.2,4.2l5.7-9.9L3.1,27.1"/>
	<path class="st0" d="M7.2,3.1c-1.6,1.1-3,2.6-4.2,4.2l9.9,5.7L7.2,3.1"/>
	<path class="st0" d="M24.4,1.5c-1.8-0.8-3.7-1.3-5.7-1.5v11.4L24.4,1.5"/>
	<path class="st0" d="M9.9,32.8c1.8,0.8,3.7,1.3,5.7,1.5V22.9L9.9,32.8"/>
	<path class="st0" d="M31.3,7.2c-1.1-1.6-2.5-3-4.2-4.2l-5.7,9.8L31.3,7.2"/>
	<path class="st0" d="M27.1,31.2c1.6-1.1,3-2.6,4.2-4.2l-9.9-5.7L27.1,31.2"/>
	<path class="st0" d="M34.3,15.6c-0.2-2-0.7-3.9-1.5-5.7l-9.9,5.7H34.3"/>
	<path class="st0" d="M0,18.7c0.2,2,0.7,3.9,1.5,5.7l9.9-5.7H0"/>
	<path class="st0" d="M1.5,9.9c-0.8,1.8-1.3,3.7-1.5,5.7h11.4L1.5,9.9"/>
	<path class="st0" d="M22.9,18.7l9.9,5.7c0.8-1.8,1.3-3.7,1.5-5.7H22.9"/>
	<path class="st0" d="M15.6,0c-2,0.2-3.9,0.7-5.7,1.5l5.7,9.9V0"/>
	<path class="st0" d="M18.7,34.3c2-0.2,3.9-0.7,5.7-1.5l-5.7-9.8V34.3"/>
	<polygon class="st0" points="30.3,0.4 29.2,0.4 29.2,0 31.8,0 31.8,0.4 30.7,0.4 30.7,3.2 30.3,3.2 	"/>
	<polygon class="st0" points="35.1,0.3 35.1,0.3 34.1,3.2 33.7,3.2 32.7,0.3 32.7,0.3 32.7,3.2 32.2,3.2 32.2,0 33,0 33.9,2.6 
		33.9,2.6 34.8,0 35.6,0 35.6,3.2 35.1,3.2 	"/>
</g>
<g class="st1">
	<path class="st2" d="M44.7,16.7c-1.2,0-1.9,0.6-2.1,1.8h3.8C46.5,17.5,45.7,16.7,44.7,16.7z"/>
	<path class="st2" d="M65.7,21.8c0,0.5,0.5,1,1.3,1c0.9,0,1.6-0.5,1.7-1.6v-1c-0.5,0.2-1,0.4-1.6,0.5C66.2,20.9,65.7,21.1,65.7,21.8
		z"/>
	<path class="st2" d="M95.2,21.8c0,0.5,0.5,1,1.3,1c0.9,0,1.6-0.5,1.7-1.6v-1c-0.5,0.2-1,0.4-1.6,0.5C95.6,20.9,95.2,21.1,95.2,21.8
		z"/>
	<path class="st2" d="M135.7,21.8c0,0.5,0.5,1,1.3,1c0.9,0,1.6-0.5,1.7-1.6v-1c-0.5,0.2-1,0.4-1.6,0.5
		C136.1,20.9,135.7,21.1,135.7,21.8z"/>
	<path class="st2" d="M15.6-0.1v35.7h141.2V-0.1H15.6z M56.8,10.4h4v2.8h-4V10.4z M36.7,24.9h-4.5V14.1h-4.1v-3.7h12.6v3.7h-4.1
		V24.9z M44.7,22.6c0.6,0,1.4-0.2,1.7-0.8h3.7c-0.8,2.3-3,3.3-5.4,3.3c-3.4,0-5.9-2-5.9-5.5c0-3.1,2.2-5.6,5.6-5.6
		c4.2,0,6,2.3,6,6.4h-7.7C42.7,21.8,43.4,22.6,44.7,22.6z M55.3,24.9h-4V10.4h4V24.9z M60.8,24.9h-4V14.4h4V24.9z M68.9,24.9
		c-0.1-0.3-0.2-0.7-0.1-1h0c-0.9,1-2.1,1.3-3.4,1.3c-2,0-3.7-1-3.7-3.2c0-3.3,3.9-3.2,5.9-3.6c0.5-0.1,1.1-0.3,1.1-0.9
		c0-0.7-0.7-1-1.3-1c-1.2,0-1.5,0.6-1.5,1.1h-3.7c0.1-3,2.9-3.4,5.4-3.4c5,0,5,2.1,5,4.1v4.3c0,0.8,0,1.7,0.5,2.4H68.9z M90.7,24.9
		H79.8V10.4h4.5v10.8h6.4V24.9z M98.3,24.9c-0.1-0.3-0.2-0.7-0.1-1h0c-0.9,1-2.1,1.3-3.4,1.3c-2,0-3.7-1-3.7-3.2
		c0-3.3,3.9-3.2,5.9-3.6c0.5-0.1,1.1-0.3,1.1-0.9c0-0.7-0.7-1-1.3-1c-1.2,0-1.5,0.6-1.5,1.1h-3.7c0.1-3,2.9-3.4,5.4-3.4
		c5,0,5,2.1,5,4.1v4.3c0,0.8,0,1.7,0.5,2.4H98.3z M117.5,24.9h-4.7l-2.6-8h-2.1v3.7c0,1,0.2,1.4,1.2,1.4c0.3,0,0.6,0,0.9-0.1v3
		c-0.8,0-1.7,0.1-2.6,0.1c-1.7,0-3.6-0.3-3.6-3.1v-5h-1.8v-2.5h1.8v-3.2h4v3.2h2.1l0,0h3.4l1.6,6.4h0l1.7-6.4h4.1L117.5,24.9z
		 M121.2,10.4h4v2.8h-4V10.4z M121.2,14.4h4v10.5h-4V14.4z M130.7,24.2c0,1.7-0.1,2.7-0.9,3.4c-0.8,0.6-2,0.7-3,0.7h-1.9v-3.2h0.7
		c0.8,0,1.1-0.3,1.1-1.3v-9.4h4V24.2z M130.7,13.2h-4v-2.8h4V13.2z M138.8,24.9c-0.1-0.3-0.2-0.7-0.1-1h0c-0.9,1-2.1,1.3-3.4,1.3
		c-2,0-3.7-1-3.7-3.2c0-3.3,3.9-3.2,5.9-3.6c0.5-0.1,1.1-0.3,1.1-0.9c0-0.7-0.7-1-1.3-1c-1.2,0-1.5,0.6-1.5,1.1h-3.7
		c0.1-3,2.9-3.4,5.4-3.4c5,0,5,2.1,5,4.1v4.3c0,0.8,0,1.7,0.5,2.4H138.8z"/>
</g>
<g class="st1">
	<path class="st2" d="M133.5-16.9c-4.4,0-7.9,3.5-7.9,7.9c0,4.3,3.5,7.9,7.9,7.9c4.4,0,7.9-3.5,7.9-7.9
		C141.4-13.4,137.8-16.9,133.5-16.9 M133.5,2.5c-6.4,0-11.6-5.2-11.6-11.6c0-6.4,5.2-11.6,11.6-11.6c6.4,0,11.6,5.2,11.6,11.6
		C145.1-2.7,139.9,2.5,133.5,2.5"/>
	<path class="st2" d="M94.5-16.9l2,2.7c0,0,1.5-2.4,4.2-2.2c3.4,0.2,7.6,2.9,11.1,2.8c3.5-0.1,5.3-2.4,6-3.3l-2.1-2.8
		c0,0-1.3,2.3-4.3,2.2c-3.2,0-6.8-2.8-10.8-2.8C96.8-20.4,95.1-17.8,94.5-16.9 M94.5-9.1l2,2.7c0,0,1.5-2.4,4.2-2.2
		c3.4,0.2,7.6,2.9,11.1,2.8c3.5-0.1,5.3-2.4,6-3.3l-2.1-2.8c0,0-1.3,2.3-4.3,2.2c-3.2,0-6.8-2.8-10.8-2.8
		C96.8-12.6,95.1-10,94.5-9.1 M94.5-1.3l2,2.7c0,0,1.5-2.4,4.2-2.2c3.4,0.2,7.6,2.9,11.1,2.8c3.5-0.1,5.3-2.4,6-3.3l-2.1-2.8
		c0,0-1.3,2.3-4.3,2.2c-3.2,0-6.8-2.8-10.8-2.8C96.8-4.8,95.1-2.2,94.5-1.3"/>
	<path class="st2" d="M144.5,12.1h-21.6V8.3h21.6V12.1z M144.5,19.9h-21.6V16h21.6V19.9z M144.5,27.6h-21.6v-3.8h21.6V27.6z"/>
	<path class="st2" d="M115.2,14.5L115.2,14.5c-1.2,1.7-2.4,2.7-3.6,3.1c0.2-0.2,0.4-0.4,0.6-0.6c1.6-2,2.1-4.7,1.5-8l0-0.1L110,9.4
		l0,0.1c0.4,2.2,0.1,3.9-0.7,5.1c0-0.5,0-1-0.1-1.5c-0.5-2.5-2.1-4.7-5-6.5l-0.1,0l-1.9,3.1l0.1,0c1.7,1,2.7,2.2,3.2,3.4
		c-0.2-0.2-0.4-0.4-0.7-0.5c-2.1-1.5-4.8-1.8-8.1-1.1l-0.1,0l0.8,3.5l0.1,0c1.9-0.4,3.5-0.3,4.7,0.2c-0.3,0-0.6,0-0.8,0.1
		c-2.5,0.4-4.7,2.1-6.6,4.9l0,0.1l3,2l0-0.1c1.1-1.6,2.2-2.7,3.5-3.1c-0.2,0.2-0.4,0.4-0.5,0.7c-1.5,2.1-1.9,4.8-1.3,8.1l0,0.1
		l3.5-0.7l0-0.1c-0.4-1.9-0.3-3.5,0.3-4.7c0,0.3,0,0.6,0.1,0.8c0.4,2.5,2,4.8,4.8,6.6l0.1,0l2-3l-0.1,0c-1.6-1.1-2.7-2.3-3.1-3.5
		c0.2,0.2,0.4,0.4,0.6,0.6c1.5,1.1,3.3,1.7,5.4,1.7c0.8,0,1.7-0.1,2.6-0.3l0.1,0l-0.6-3.5l-0.1,0c-1.9,0.4-3.5,0.2-4.7-0.4
		c0.3,0,0.6,0,0.8-0.1c2.5-0.3,4.8-1.9,6.7-4.6l0-0.1L115.2,14.5L115.2,14.5z"/>
	<path class="st2" d="M60.5,40.8v-3.3l3.4-0.7v4.1H67l-0.9,2.8h-2.2v8.3c0,1.2,0.6,1.9,1.9,1.9h0.8v2.7c-0.3,0.1-0.6,0.2-0.9,0.2
		c-0.3,0.1-0.6,0.1-0.9,0.1c-0.6,0-1.1-0.1-1.7-0.2c-0.5-0.2-1-0.4-1.4-0.7c-0.4-0.3-0.7-0.8-0.9-1.3c-0.2-0.5-0.4-1.2-0.4-1.9
		L60.5,40.8L60.5,40.8z"/>
	<path class="st2" d="M71.4,46.8h8c0-0.5-0.1-0.9-0.3-1.4c-0.2-0.4-0.4-0.8-0.8-1.1c-0.3-0.3-0.7-0.5-1.2-0.7
		c-0.5-0.2-1-0.2-1.5-0.2c-0.5,0-1,0.1-1.5,0.2c-0.5,0.1-0.9,0.3-1.3,0.6c-0.4,0.3-0.7,0.6-0.9,1.1C71.6,45.7,71.4,46.2,71.4,46.8
		L71.4,46.8z M71.4,49.6c0,0.6,0.1,1.1,0.2,1.7c0.2,0.5,0.4,0.9,0.8,1.3c0.4,0.4,0.8,0.6,1.4,0.8c0.6,0.2,1.3,0.3,2.2,0.3
		c0.8,0,1.4-0.1,1.8-0.3c0.4-0.2,0.9-0.6,1.4-1.1l2.8,1.1c-0.7,1.1-1.5,1.9-2.6,2.5c-1.1,0.5-2.3,0.8-3.5,0.8c-2.6,0-4.5-0.7-5.9-2
		c-1.3-1.3-2-3.3-2-5.9v-1.1c0-0.2,0-0.5,0-0.7c0-1,0.3-1.9,0.7-2.7c0.4-0.8,1-1.5,1.6-2.1c0.7-0.6,1.5-1,2.4-1.3
		c0.9-0.3,1.8-0.5,2.8-0.5c1.1,0,2.1,0.2,3,0.5c0.9,0.4,1.6,0.9,2.3,1.5c0.6,0.6,1.1,1.4,1.4,2.3c0.3,0.9,0.5,1.9,0.5,3v1.8H71.4
		L71.4,49.6z"/>
	<path class="st2" d="M102.3,40.8v-3.3l3.4-0.7v4.1h5.8l0,2.8h-5.9v8.3c0,1.2,0.6,1.9,1.9,1.9h0.8v2.7c-0.3,0.1-0.6,0.2-0.9,0.2
		c-0.3,0.1-0.6,0.1-0.9,0.1c-0.6,0-1.1-0.1-1.7-0.2c-0.5-0.2-1-0.4-1.4-0.7c-0.4-0.3-0.7-0.8-0.9-1.3c-0.2-0.5-0.4-1.2-0.4-1.9
		L102.3,40.8L102.3,40.8z"/>
	<path class="st2" d="M111.2,40.8h3.4v15.6h-3.4V40.8z M112.8,34.5c0.5,0,0.9,0.2,1.3,0.5c0.4,0.4,0.6,0.8,0.6,1.3
		c0,0.5-0.2,1-0.6,1.3c-0.4,0.3-0.8,0.5-1.3,0.5c-0.5,0-1-0.2-1.3-0.5c-0.4-0.3-0.6-0.8-0.6-1.3c0-0.5,0.2-0.9,0.6-1.3
		C111.8,34.7,112.2,34.5,112.8,34.5z"/>
	<path class="st2" d="M124.7,40.4c0.9,0,1.8,0.2,2.8,0.5c0.9,0.3,1.7,0.8,2.4,1.5l-2.1,2.1c-0.6-0.4-1.1-0.7-1.5-0.8
		c-0.4-0.1-1-0.2-1.6-0.2c-1.6,0-2.7,0.4-3.4,1.2c-0.7,0.8-1.1,1.9-1.1,3.4v0.5c0,0.8,0.1,1.5,0.2,2.2c0.1,0.6,0.4,1.2,0.7,1.6
		c0.3,0.4,0.8,0.8,1.4,1c0.6,0.2,1.3,0.4,2.2,0.4c0.6,0,1.2-0.1,1.7-0.2c0.5-0.1,1-0.4,1.5-0.8l2,1.9c-0.7,0.7-1.5,1.2-2.4,1.6
		c-0.9,0.3-1.9,0.5-2.9,0.5c-1.3,0-2.5-0.2-3.5-0.6c-1-0.4-1.8-0.9-2.4-1.7c-0.6-0.7-1.1-1.6-1.4-2.6c-0.3-1-0.4-2.1-0.4-3.3V48
		c0-2.4,0.7-4.2,2.1-5.6C120.3,41.1,122.2,40.4,124.7,40.4"/>
	<path class="st2" d="M37.9,51.6c-0.3,0.2-0.7,0.4-1.1,0.7c-0.4,0.3-0.9,0.5-1.3,0.7c-0.5,0.2-0.9,0.4-1.4,0.6
		c-0.5,0.2-0.9,0.2-1.2,0.2c-0.7,0-1.2-0.1-1.7-0.3c-0.5-0.2-0.7-0.7-0.7-1.4c0-0.7,0.2-1.2,0.5-1.5c0.3-0.3,0.8-0.5,1.5-0.5h5.4
		V51.6z M38.2,55.5c0.1,0.3,0.2,0.5,0.4,0.9l3.2-0.7c-0.2-0.4-0.3-0.7-0.3-1c-0.1-0.5-0.2-1.1-0.2-1.8v-6.7c0-0.9-0.2-1.7-0.5-2.4
		c-0.4-0.7-0.8-1.3-1.5-1.8c-0.6-0.5-1.3-0.8-2.1-1.1c-0.8-0.2-1.6-0.4-2.5-0.4c-1.2,0-2.2,0.1-3.2,0.4c-1,0.3-2,0.7-3,1.3l1.5,2.5
		c0.8-0.4,1.5-0.7,2.2-0.9c0.7-0.2,1.5-0.3,2.5-0.3c1.1,0,1.9,0.3,2.4,0.8c0.5,0.5,0.8,1.3,0.8,2.4V47h-5.4c-0.7,0-1.4,0.1-2.1,0.3
		c-0.7,0.2-1.2,0.6-1.7,1c-0.5,0.4-0.9,1-1.1,1.6c-0.3,0.6-0.4,1.3-0.4,2.1c0,0.7,0.1,1.4,0.4,2c0.3,0.6,0.7,1.1,1.2,1.5
		c0.5,0.4,1.1,0.7,1.7,1c0.6,0.2,1.3,0.3,2,0.3c1.1,0,2-0.2,2.9-0.6c0.9-0.4,1.8-0.9,2.6-1.6C38.1,54.8,38.1,55.2,38.2,55.5z"/>
	<path class="st2" d="M54.5,55.5c0.1,0.3,0.2,0.5,0.4,0.9l3.2-0.8L58,55.5l0,0c-0.1-0.3-0.2-0.5-0.3-0.8c-0.1-0.5-0.2-1.1-0.2-1.9
		V40.4l-3.4,0.8v10c-0.3,0.3-0.6,0.6-0.9,0.9c-0.3,0.3-0.6,0.6-1,0.8c-0.3,0.2-0.7,0.4-1.1,0.6c-0.4,0.1-0.8,0.2-1.2,0.2
		c-0.6,0-1-0.1-1.3-0.2c-0.3-0.2-0.6-0.4-0.8-0.7c-0.2-0.3-0.3-0.7-0.4-1.1c-0.1-0.4-0.1-0.9-0.1-1.4v-9.9l-3.4,0.8v9.8
		c0,1.9,0.5,3.4,1.5,4.3c1,0.9,2.5,1.4,4.4,1.4c0.9,0,1.7-0.2,2.3-0.6c0.7-0.4,1.3-0.9,1.9-1.6C54.3,54.8,54.4,55.2,54.5,55.5"/>
	<path class="st2" d="M141.8,51.6c-0.3,0.2-0.7,0.4-1.1,0.7c-0.4,0.3-0.9,0.5-1.3,0.7c-0.5,0.2-0.9,0.4-1.4,0.6
		c-0.5,0.2-0.9,0.2-1.2,0.2c-0.7,0-1.2-0.1-1.7-0.3c-0.5-0.2-0.7-0.7-0.7-1.4c0-0.7,0.2-1.2,0.5-1.5c0.3-0.3,0.8-0.5,1.5-0.5h5.4
		V51.6L141.8,51.6z M142.1,55.5c0.1,0.3,0.1,0.5,0.3,0.9l2.6-0.6l0.6-0.2l-0.3-1c-0.1-0.5-0.2-1.1-0.2-1.8v-6.7
		c0-0.9-0.2-1.7-0.5-2.4c-0.4-0.7-0.8-1.3-1.5-1.8c-0.6-0.5-1.3-0.8-2.1-1.1c-0.8-0.2-1.6-0.4-2.5-0.4c-1.2,0-2.2,0.1-3.2,0.4
		c-1,0.3-2,0.7-3,1.3l1.5,2.5c0.8-0.4,1.5-0.7,2.2-0.9c0.7-0.2,1.5-0.3,2.5-0.3c1.1,0,1.9,0.3,2.4,0.8c0.5,0.5,0.8,1.3,0.8,2.4V47
		h-5.4c-0.7,0-1.4,0.1-2.1,0.3c-0.6,0.2-1.2,0.6-1.7,1c-0.5,0.4-0.9,1-1.1,1.6c-0.3,0.6-0.4,1.3-0.4,2.1c0,0.7,0.1,1.4,0.4,2
		c0.3,0.6,0.7,1.1,1.2,1.5c0.5,0.4,1.1,0.7,1.7,1c0.6,0.2,1.3,0.3,2,0.3c1.1,0,2-0.2,2.9-0.6c0.9-0.4,1.8-0.9,2.6-1.6
		C142,54.8,142.1,55.2,142.1,55.5L142.1,55.5z"/>
	<path class="st2" d="M98.8,43.5c-0.3-0.7-0.7-1.3-1.3-1.7c-0.5-0.5-1.2-0.8-1.9-1c-0.7-0.2-1.5-0.4-2.4-0.4c-0.4,0-0.7,0-1.1,0.1
		c-0.4,0.1-0.8,0.2-1.2,0.4c-0.4,0.2-0.8,0.4-1.1,0.6c-0.4,0.2-0.7,0.5-0.9,0.7h-0.2c-0.1-0.3-0.2-0.7-0.3-1
		c-0.1-0.2-0.2-0.4-0.3-0.7l-3.3,0.8c0.4,0.7,0.6,1.4,0.6,1.8c0.1,0.4,0.1,0.9,0.1,1.5v11.7h3.4V44.9c0.2-0.2,0.5-0.5,0.8-0.7
		c0.3-0.2,0.7-0.4,1-0.5c0.4-0.1,0.7-0.2,1.1-0.3c0.4-0.1,0.7-0.1,1.1-0.1c2.1,0,3.1,1.1,3.1,3.2v9.8h3.4V45.9
		C99.2,45,99.1,44.2,98.8,43.5"/>
</g>
<g class="st1">
	<g class="st3">
		<path class="st0" d="M63.5,60v-6.7h2.3c0.5,0,0.9,0,1.2,0.1c0.4,0.1,0.7,0.2,1,0.5c0.4,0.3,0.6,0.7,0.8,1.1c0.2,0.5,0.3,1,0.3,1.6
			c0,0.5-0.1,1-0.2,1.3c-0.1,0.4-0.3,0.7-0.5,1c-0.2,0.3-0.4,0.5-0.6,0.6c-0.2,0.1-0.5,0.3-0.8,0.3C66.7,60,66.3,60,65.9,60H63.5z
			 M64.4,59.2h1.4c0.4,0,0.8,0,1-0.1c0.2-0.1,0.4-0.2,0.6-0.3c0.2-0.2,0.4-0.5,0.5-0.8c0.1-0.4,0.2-0.8,0.2-1.3
			c0-0.7-0.1-1.2-0.3-1.6c-0.2-0.4-0.5-0.6-0.8-0.8c-0.2-0.1-0.6-0.1-1.1-0.1h-1.4V59.2z"/>
		<path class="st0" d="M73.5,59.4c-0.3,0.3-0.6,0.4-0.9,0.5c-0.3,0.1-0.6,0.2-0.9,0.2c-0.5,0-0.9-0.1-1.2-0.4
			c-0.3-0.3-0.4-0.6-0.4-1c0-0.2,0.1-0.5,0.2-0.6s0.2-0.4,0.4-0.5c0.2-0.1,0.4-0.2,0.6-0.3c0.2,0,0.4-0.1,0.7-0.1
			c0.7-0.1,1.1-0.2,1.5-0.3c0-0.1,0-0.2,0-0.2c0-0.3-0.1-0.6-0.2-0.7c-0.2-0.2-0.5-0.3-0.9-0.3c-0.4,0-0.7,0.1-0.9,0.2
			c-0.2,0.1-0.3,0.4-0.4,0.7l-0.8-0.1c0.1-0.3,0.2-0.6,0.4-0.8c0.2-0.2,0.4-0.4,0.7-0.5c0.3-0.1,0.7-0.2,1.1-0.2c0.4,0,0.7,0,1,0.1
			c0.3,0.1,0.4,0.2,0.6,0.4c0.1,0.1,0.2,0.3,0.3,0.6c0,0.1,0,0.4,0,0.8V58c0,0.8,0,1.2,0.1,1.4c0,0.2,0.1,0.4,0.2,0.6h-0.9
			C73.6,59.9,73.6,59.7,73.5,59.4z M73.5,57.6c-0.3,0.1-0.7,0.2-1.3,0.3c-0.3,0-0.6,0.1-0.7,0.2c-0.1,0.1-0.2,0.1-0.3,0.3
			C71,58.5,71,58.6,71,58.7c0,0.2,0.1,0.4,0.2,0.5c0.2,0.1,0.4,0.2,0.7,0.2c0.3,0,0.6-0.1,0.8-0.2c0.2-0.1,0.4-0.3,0.5-0.6
			c0.1-0.2,0.1-0.5,0.1-0.8V57.6z"/>
		<path class="st0" d="M77.6,59.3l0.1,0.7c-0.2,0-0.4,0.1-0.6,0.1c-0.3,0-0.5,0-0.7-0.1c-0.2-0.1-0.3-0.2-0.3-0.4
			c-0.1-0.2-0.1-0.5-0.1-1v-2.8h-0.6v-0.6H76V54l0.8-0.5v1.7h0.8v0.6h-0.8v2.8c0,0.2,0,0.4,0,0.4c0,0.1,0.1,0.1,0.1,0.2
			c0.1,0,0.2,0.1,0.3,0.1C77.4,59.3,77.5,59.3,77.6,59.3z"/>
		<path class="st0" d="M78.4,57.6c0-0.9,0.2-1.6,0.7-2c0.4-0.4,0.9-0.5,1.5-0.5c0.7,0,1.2,0.2,1.6,0.7c0.4,0.4,0.6,1,0.6,1.8
			c0,0.6-0.1,1.1-0.3,1.5c-0.2,0.4-0.5,0.6-0.8,0.8c-0.4,0.2-0.7,0.3-1.2,0.3c-0.7,0-1.2-0.2-1.6-0.6C78.6,59,78.4,58.4,78.4,57.6z
			 M79.2,57.6c0,0.6,0.1,1.1,0.4,1.4c0.3,0.3,0.6,0.5,1,0.5c0.4,0,0.7-0.2,1-0.5c0.3-0.3,0.4-0.8,0.4-1.4c0-0.6-0.1-1-0.4-1.4
			c-0.3-0.3-0.6-0.5-1-0.5c-0.4,0-0.7,0.2-1,0.5C79.4,56.5,79.2,57,79.2,57.6z"/>
		<path class="st0" d="M84.1,60v-4.8h0.7v0.7c0.2-0.3,0.4-0.6,0.5-0.7c0.2-0.1,0.3-0.2,0.5-0.2c0.3,0,0.6,0.1,0.8,0.3l-0.3,0.8
			c-0.2-0.1-0.4-0.2-0.6-0.2c-0.2,0-0.3,0.1-0.5,0.2c-0.1,0.1-0.2,0.3-0.3,0.4c-0.1,0.3-0.1,0.6-0.1,1V60H84.1z"/>
		<path class="st0" d="M87.5,54.3v-0.9h0.8v0.9H87.5z M87.5,60v-4.8h0.8V60H87.5z"/>
		<path class="st0" d="M89.9,60v-6.7h0.8v3.8l1.9-2h1.1L91.8,57l2,3h-1l-1.6-2.5l-0.6,0.6V60H89.9z"/>
		<path class="st0" d="M97.9,59.4c-0.3,0.3-0.6,0.4-0.9,0.5c-0.3,0.1-0.6,0.2-0.9,0.2c-0.5,0-0.9-0.1-1.2-0.4
			c-0.3-0.3-0.4-0.6-0.4-1c0-0.2,0.1-0.5,0.2-0.6c0.1-0.2,0.2-0.4,0.4-0.5c0.2-0.1,0.4-0.2,0.6-0.3c0.2,0,0.4-0.1,0.7-0.1
			c0.7-0.1,1.1-0.2,1.5-0.3c0-0.1,0-0.2,0-0.2c0-0.3-0.1-0.6-0.2-0.7c-0.2-0.2-0.5-0.3-0.9-0.3c-0.4,0-0.7,0.1-0.9,0.2
			c-0.2,0.1-0.3,0.4-0.4,0.7l-0.8-0.1c0.1-0.3,0.2-0.6,0.4-0.8c0.2-0.2,0.4-0.4,0.7-0.5c0.3-0.1,0.7-0.2,1.1-0.2c0.4,0,0.7,0,1,0.1
			c0.3,0.1,0.4,0.2,0.6,0.4c0.1,0.1,0.2,0.3,0.3,0.6c0,0.1,0,0.4,0,0.8V58c0,0.8,0,1.2,0.1,1.4c0,0.2,0.1,0.4,0.2,0.6h-0.9
			C98,59.9,98,59.7,97.9,59.4z M97.9,57.6c-0.3,0.1-0.7,0.2-1.3,0.3c-0.3,0-0.6,0.1-0.7,0.2c-0.1,0.1-0.2,0.1-0.3,0.3
			c-0.1,0.1-0.1,0.2-0.1,0.4c0,0.2,0.1,0.4,0.2,0.5c0.2,0.1,0.4,0.2,0.7,0.2c0.3,0,0.6-0.1,0.8-0.2c0.2-0.1,0.4-0.3,0.5-0.6
			c0.1-0.2,0.1-0.5,0.1-0.8V57.6z"/>
		<path class="st0" d="M99.9,58.6l0.8-0.1c0,0.3,0.2,0.6,0.4,0.7c0.2,0.2,0.5,0.3,0.9,0.3c0.4,0,0.7-0.1,0.8-0.2
			c0.2-0.2,0.3-0.3,0.3-0.5c0-0.2-0.1-0.3-0.2-0.4c-0.1-0.1-0.4-0.2-0.8-0.3c-0.6-0.2-1-0.3-1.2-0.4c-0.2-0.1-0.4-0.3-0.5-0.5
			c-0.1-0.2-0.2-0.4-0.2-0.6c0-0.2,0-0.4,0.1-0.6c0.1-0.2,0.2-0.3,0.4-0.5c0.1-0.1,0.3-0.2,0.5-0.2c0.2-0.1,0.5-0.1,0.7-0.1
			c0.4,0,0.7,0.1,1,0.2c0.3,0.1,0.5,0.3,0.6,0.4c0.1,0.2,0.2,0.4,0.3,0.7l-0.8,0.1c0-0.2-0.1-0.4-0.3-0.6c-0.2-0.1-0.4-0.2-0.7-0.2
			c-0.4,0-0.6,0.1-0.8,0.2c-0.2,0.1-0.2,0.3-0.2,0.4c0,0.1,0,0.2,0.1,0.3c0.1,0.1,0.2,0.2,0.3,0.2c0.1,0,0.3,0.1,0.7,0.2
			c0.6,0.2,1,0.3,1.2,0.4c0.2,0.1,0.4,0.2,0.5,0.4c0.1,0.2,0.2,0.4,0.2,0.7c0,0.3-0.1,0.5-0.2,0.8c-0.2,0.2-0.4,0.4-0.7,0.6
			c-0.3,0.1-0.6,0.2-1,0.2c-0.6,0-1.1-0.1-1.4-0.4C100.2,59.5,100,59.1,99.9,58.6z"/>
		<path class="st0" d="M108,54.3v-0.9h0.8v0.9H108z M108,60v-4.8h0.8V60H108z"/>
		<path class="st0" d="M110.4,60v-4.8h0.7v0.7c0.4-0.5,0.9-0.8,1.5-0.8c0.3,0,0.6,0.1,0.8,0.2c0.2,0.1,0.4,0.2,0.5,0.4
			c0.1,0.2,0.2,0.4,0.3,0.6c0,0.2,0,0.4,0,0.8v3h-0.8v-2.9c0-0.3,0-0.6-0.1-0.7c-0.1-0.2-0.2-0.3-0.3-0.4c-0.2-0.1-0.4-0.1-0.6-0.1
			c-0.3,0-0.6,0.1-0.9,0.3c-0.3,0.2-0.4,0.6-0.4,1.3V60H110.4z"/>
		<path class="st0" d="M115.5,58.6l0.8-0.1c0,0.3,0.2,0.6,0.4,0.7c0.2,0.2,0.5,0.3,0.9,0.3c0.4,0,0.7-0.1,0.8-0.2
			c0.2-0.2,0.3-0.3,0.3-0.5c0-0.2-0.1-0.3-0.2-0.4c-0.1-0.1-0.4-0.2-0.8-0.3c-0.6-0.2-1-0.3-1.2-0.4c-0.2-0.1-0.4-0.3-0.5-0.5
			c-0.1-0.2-0.2-0.4-0.2-0.6c0-0.2,0-0.4,0.1-0.6c0.1-0.2,0.2-0.3,0.4-0.5c0.1-0.1,0.3-0.2,0.5-0.2c0.2-0.1,0.5-0.1,0.7-0.1
			c0.4,0,0.7,0.1,1,0.2c0.3,0.1,0.5,0.3,0.6,0.4c0.1,0.2,0.2,0.4,0.3,0.7l-0.8,0.1c0-0.2-0.1-0.4-0.3-0.6c-0.2-0.1-0.4-0.2-0.7-0.2
			c-0.4,0-0.6,0.1-0.8,0.2c-0.2,0.1-0.2,0.3-0.2,0.4c0,0.1,0,0.2,0.1,0.3c0.1,0.1,0.2,0.2,0.3,0.2c0.1,0,0.3,0.1,0.7,0.2
			c0.6,0.2,1,0.3,1.2,0.4c0.2,0.1,0.4,0.2,0.5,0.4c0.1,0.2,0.2,0.4,0.2,0.7c0,0.3-0.1,0.5-0.2,0.8c-0.2,0.2-0.4,0.4-0.7,0.6
			c-0.3,0.1-0.6,0.2-1,0.2c-0.6,0-1.1-0.1-1.4-0.4C115.8,59.5,115.6,59.1,115.5,58.6z"/>
		<path class="st0" d="M122.5,59.3l0.1,0.7c-0.2,0-0.4,0.1-0.6,0.1c-0.3,0-0.5,0-0.7-0.1c-0.2-0.1-0.3-0.2-0.3-0.4
			c-0.1-0.2-0.1-0.5-0.1-1v-2.8h-0.6v-0.6h0.6V54l0.8-0.5v1.7h0.8v0.6h-0.8v2.8c0,0.2,0,0.4,0,0.4c0,0.1,0.1,0.1,0.1,0.2
			c0.1,0,0.2,0.1,0.3,0.1C122.3,59.3,122.4,59.3,122.5,59.3z"/>
		<path class="st0" d="M123.6,54.3v-0.9h0.8v0.9H123.6z M123.6,60v-4.8h0.8V60H123.6z"/>
		<path class="st0" d="M127.8,59.3l0.1,0.7c-0.2,0-0.4,0.1-0.6,0.1c-0.3,0-0.5,0-0.7-0.1c-0.2-0.1-0.3-0.2-0.3-0.4
			c-0.1-0.2-0.1-0.5-0.1-1v-2.8h-0.6v-0.6h0.6V54l0.8-0.5v1.7h0.8v0.6h-0.8v2.8c0,0.2,0,0.4,0,0.4c0,0.1,0.1,0.1,0.1,0.2
			c0.1,0,0.2,0.1,0.3,0.1C127.5,59.3,127.6,59.3,127.8,59.3z"/>
		<path class="st0" d="M132,60v-0.7c-0.4,0.5-0.9,0.8-1.5,0.8c-0.3,0-0.6-0.1-0.8-0.2c-0.2-0.1-0.4-0.2-0.5-0.4
			c-0.1-0.2-0.2-0.4-0.3-0.6c0-0.2-0.1-0.4-0.1-0.8v-3h0.8v2.7c0,0.4,0,0.7,0.1,0.9c0.1,0.2,0.2,0.4,0.3,0.5
			c0.2,0.1,0.4,0.2,0.6,0.2c0.2,0,0.5-0.1,0.7-0.2c0.2-0.1,0.4-0.3,0.5-0.5c0.1-0.2,0.1-0.5,0.1-0.9v-2.6h0.8V60H132z M129.4,54.5
			v-0.7h2.8v0.7H129.4z"/>
		<path class="st0" d="M136.1,59.3l0.1,0.7c-0.2,0-0.4,0.1-0.6,0.1c-0.3,0-0.5,0-0.7-0.1c-0.2-0.1-0.3-0.2-0.3-0.4
			c-0.1-0.2-0.1-0.5-0.1-1v-2.8h-0.6v-0.6h0.6V54l0.8-0.5v1.7h0.8v0.6h-0.8v2.8c0,0.2,0,0.4,0,0.4c0,0.1,0.1,0.1,0.1,0.2
			c0.1,0,0.2,0.1,0.3,0.1C135.8,59.3,135.9,59.3,136.1,59.3z"/>
		<path class="st0" d="M136.8,58.6l0.8-0.1c0,0.3,0.2,0.6,0.4,0.7c0.2,0.2,0.5,0.3,0.9,0.3c0.4,0,0.7-0.1,0.8-0.2
			c0.2-0.2,0.3-0.3,0.3-0.5c0-0.2-0.1-0.3-0.2-0.4c-0.1-0.1-0.4-0.2-0.8-0.3c-0.6-0.2-1-0.3-1.2-0.4c-0.2-0.1-0.4-0.3-0.5-0.5
			c-0.1-0.2-0.2-0.4-0.2-0.6c0-0.2,0-0.4,0.1-0.6c0.1-0.2,0.2-0.3,0.4-0.5c0.1-0.1,0.3-0.2,0.5-0.2c0.2-0.1,0.5-0.1,0.7-0.1
			c0.4,0,0.7,0.1,1,0.2c0.3,0.1,0.5,0.3,0.6,0.4c0.1,0.2,0.2,0.4,0.3,0.7l-0.8,0.1c0-0.2-0.1-0.4-0.3-0.6c-0.2-0.1-0.4-0.2-0.7-0.2
			c-0.4,0-0.6,0.1-0.8,0.2c-0.2,0.1-0.2,0.3-0.2,0.4c0,0.1,0,0.2,0.1,0.3c0.1,0.1,0.2,0.2,0.3,0.2c0.1,0,0.3,0.1,0.7,0.2
			c0.6,0.2,1,0.3,1.2,0.4c0.2,0.1,0.4,0.2,0.5,0.4c0.1,0.2,0.2,0.4,0.2,0.7c0,0.3-0.1,0.5-0.2,0.8c-0.2,0.2-0.4,0.4-0.7,0.6
			c-0.3,0.1-0.6,0.2-1,0.2c-0.6,0-1.1-0.1-1.4-0.4C137.1,59.5,136.9,59.1,136.8,58.6z"/>
		<path class="st0" d="M145,60v-6.7h2.3c0.5,0,0.9,0,1.2,0.1c0.4,0.1,0.7,0.2,1,0.5c0.4,0.3,0.6,0.7,0.8,1.1c0.2,0.5,0.3,1,0.3,1.6
			c0,0.5-0.1,1-0.2,1.3c-0.1,0.4-0.3,0.7-0.5,1c-0.2,0.3-0.4,0.5-0.6,0.6c-0.2,0.1-0.5,0.3-0.8,0.3c-0.3,0.1-0.7,0.1-1.1,0.1H145z
			 M145.9,59.2h1.4c0.4,0,0.8,0,1-0.1c0.2-0.1,0.4-0.2,0.6-0.3c0.2-0.2,0.4-0.5,0.5-0.8c0.1-0.4,0.2-0.8,0.2-1.3
			c0-0.7-0.1-1.2-0.3-1.6c-0.2-0.4-0.5-0.6-0.8-0.8c-0.2-0.1-0.6-0.1-1.1-0.1h-1.4V59.2z"/>
		<path class="st0" d="M152.2,60v-6.7h0.9V60H152.2z"/>
		<path class="st0" d="M156.8,60l-2.6-6.7h1l1.7,4.8c0.1,0.4,0.3,0.8,0.3,1.1c0.1-0.4,0.2-0.7,0.4-1.1l1.8-4.8h0.9l-2.6,6.7H156.8z"
			/>
		<path class="st0" d="M161.5,60v-6.7h0.9V60H161.5z"/>
	</g>
	<g class="st3">
		<rect x="7.3" y="42.5" class="st0" width="158.6" height="0.5"/>
		<rect x="51.6" y="-25.7" class="st0" width="0.5" height="87.3"/>
		<path class="st0" d="M139.3,49.9c-13.8-38.3-39.7-53.4-59-59.3c-20.9-6.4-38.8-3.8-39-3.7l-0.1-0.5c0.2,0,18.2-2.7,39.2,3.7
			C92.8-6,103.8,0.1,113.1,8.5c11.6,10.4,20.6,24.3,26.7,41.3L139.3,49.9z"/>
		<path class="st0" d="M118.2,49.9c-10.9-24.2-28.3-35-41-39.9C63.3,4.8,52,5.3,51.9,5.3l0-0.5c0.1,0,11.6-0.5,25.5,4.8
			c12.8,4.9,30.4,15.8,41.3,40.1L118.2,49.9z"/>
	</g>
	<g class="st3">
		<polygon class="st0" points="54.5,-13.9 54.5,-0.9 59.8,-0.9 59.8,-13.5 		"/>
		<polygon class="st0" points="59.8,5.5 59.8,42.8 54.5,42.8 54.5,5 		"/>
		<polygon class="st0" points="62.8,5.9 62.8,42.8 64.9,42.8 117.1,12.7 112.9,8.7 68,34.5 68,7 		"/>
		<polygon class="st0" points="69.1,42.8 76.8,37.9 111.9,37.9 114.9,42.8 		"/>
		<polygon class="st0" points="119.7,37.9 134.5,37.9 136.7,42.8 122.4,42.8 		"/>
		<path class="st0" d="M46.5-13.8V5.6c0,0-15.8,2.8-22.6,13.9c-6.8,11.1-5.5,23.3-5.5,23.3h33.4v-56.7L46.5-13.8z M46.5,37.9H24.2
			c0,0-0.1-7.8,4.1-15.2c5.6-9.8,18.2-12.5,18.2-12.5V37.9z"/>
	</g>
</g>
</svg>
