<?xml version="1.0" encoding="utf-8"?>
<!-- Generator: Adobe Illustrator 19.2.1, SVG Export Plug-In . SVG Version: 6.00 Build 0)  -->
<svg version="1.1" id="Layer_1" xmlns="http://www.w3.org/2000/svg" xmlns:xlink="http://www.w3.org/1999/xlink" x="0px" y="0px"
	 viewBox="0 0 141.2 35.7" style="enable-background:new 0 0 141.2 35.7;" xml:space="preserve">
<style type="text/css">
	.st0{display:none;}
	.st1{display:inline;fill:#848484;}
	.st2{fill:#848484;}
	.st3{display:inline;}
</style>
<g class="st0">
	<polygon class="st1" points="152.3,14.4 151.2,14.4 151.2,14 153.8,14 153.8,14.4 152.8,14.4 152.8,17.2 152.3,17.2 	"/>
	<polygon class="st1" points="157.2,14.3 157.2,14.3 156.2,17.2 155.8,17.2 154.7,14.3 154.7,14.3 154.7,17.2 154.3,17.2 154.3,14 
		155.1,14 156,16.6 156,16.6 156.9,14 157.6,14 157.6,17.2 157.2,17.2 	"/>
	<path class="st1" d="M38.5,13.4c-0.1-1.5-1.7-2.5-3.4-2.5c-3.9,0-4.6,3.6-4.6,6.4c0,3.3,1,6.4,4.4,6.4c1.7,0,3.2-0.8,3.5-2.5h2.3
		c-0.2,2.7-2.9,4.4-6,4.4c-4.7,0-6.5-3.8-6.5-8.2c0-3.9,1.7-8.4,7-8.2c3,0.1,5.3,1.6,5.6,4.4H38.5"/>
	<path class="st1" d="M44.6,20.1C44.4,22,45.2,24,47.3,24c1.6,0,2.4-0.6,2.7-2.2h2.2c-0.3,2.5-2.3,3.7-4.9,3.7
		c-3.5,0-4.9-2.5-4.9-5.7c0-3.2,1.6-5.9,5.1-5.9c3.3,0.1,4.8,2.1,4.8,5.2v1H44.6 M50.1,18.6c0-1.8-0.8-3.3-2.8-3.3
		c-1.7,0-2.8,1.5-2.8,3.3H50.1z"/>
	<path class="st1" d="M56.5,15.8L56.5,15.8c0.7-1.4,2.3-1.9,3.4-1.9c0.8,0,4.2,0.2,4.2,3.7v7.6H62v-6.9c0-1.8-0.8-2.8-2.5-2.8
		c0,0-1.1-0.1-2,0.8c-0.3,0.3-0.9,0.8-0.9,2.9v6h-2.1v-11h2V15.8"/>
	<path class="st1" d="M67.3,14.2v-2.3l2.1-0.7v3H72v1.5h-2.5v7.1c0,0.8,0.6,1.2,1.4,1.2c0.3,0,0.8,0,1.1-0.1v1.6
		c-0.5,0-0.9,0.1-1.4,0.1c-0.5,0-0.9,0-1.4-0.1c-0.3-0.1-0.9-0.2-1.2-0.7c-0.4-0.5-0.5-0.6-0.5-2v-6.9h-1.9v-1.5H67.3"/>
	<path class="st1" d="M81.1,14.2h2.1v11h-2v-1.6h0c-0.8,1.4-2.2,1.9-3.8,1.9c-2.3,0-3.6-1.7-3.6-4v-7.4h2.1v6.5
		c0,1.9,0.4,3.3,2.4,3.3c0.9,0,2-0.4,2.5-1.6c0.4-1,0.4-2.3,0.4-2.6V14.2"/>
	<path class="st1" d="M87.9,25.2h-2.1v-11h2.1v2.1h0c0.3-1.5,1.7-2.3,3.2-2.3c0.3,0,0.5,0,0.7,0v2c-0.3-0.1-0.6-0.1-0.9-0.1
		c-2.6,0.1-3.1,1.5-3.1,3.8V25.2"/>
	<polygon class="st1" points="98.2,29.4 96.1,29.4 97.7,25.1 93.1,14.2 95.5,14.2 98.9,22.8 102.4,14.2 104.6,14.2 	"/>
	<polygon class="st1" points="106.2,25.2 106.2,9.3 109.6,9.3 109.6,22.5 116.4,22.5 116.4,25.2 	"/>
	<path class="st1" d="M118.4,9.3h3.5v2.8h-3.5V9.3z M118.5,14.2h3.3v11h-3.3V14.2z"/>
	<path class="st1" d="M128.2,15.4L128.2,15.4c0.7-0.9,1.8-1.6,3.4-1.6c1.1,0,3.2,0.8,3.6,2.4c0.2,0.7,0.2,1.4,0.2,1.8v7.2h-3.3v-6.6
		c0-1.2-0.4-2.5-2-2.5c-1,0-1.9,0.9-2,2.5v6.6h-3.3v-11h3.3V15.4"/>
	<polygon class="st1" points="141.9,18.6 142,18.7 145.2,14 148.9,14 145.1,18.9 149.1,25.2 145.3,25.2 142,19.1 141.9,19.2 
		141.9,25.2 138.6,25.2 138.6,9.3 141.9,9.3 	"/>
	<path class="st1" d="M-12.5,27.2c1.1,1.6,2.5,3,4.2,4.2l5.7-9.9L-12.5,27.2"/>
	<path class="st1" d="M-8.4,3.2c-1.6,1.1-3,2.6-4.2,4.2l9.9,5.7L-8.4,3.2"/>
	<path class="st1" d="M8.8,1.6C7,0.8,5.1,0.3,3.1,0.1v11.4L8.8,1.6"/>
	<path class="st1" d="M-5.7,32.9c1.8,0.8,3.7,1.3,5.7,1.5V23L-5.7,32.9"/>
	<path class="st1" d="M15.7,7.3c-1.1-1.6-2.5-3-4.2-4.2L5.8,13L15.7,7.3"/>
	<path class="st1" d="M11.5,31.3c1.6-1.1,3-2.6,4.2-4.2l-9.9-5.7L11.5,31.3"/>
	<path class="st1" d="M18.7,15.7c-0.2-2-0.7-3.9-1.5-5.7l-9.9,5.7H18.7"/>
	<path class="st1" d="M-15.6,18.8c0.2,2,0.7,3.9,1.5,5.7l9.9-5.7H-15.6"/>
	<path class="st1" d="M-14.1,10c-0.8,1.8-1.3,3.7-1.5,5.7h11.4L-14.1,10"/>
	<path class="st1" d="M7.4,18.8l9.9,5.7c0.8-1.8,1.3-3.7,1.5-5.7H7.4"/>
	<path class="st1" d="M0,0.1c-2,0.2-3.9,0.7-5.7,1.5L0,11.5V0.1"/>
	<path class="st1" d="M3.1,34.4c2-0.2,3.9-0.7,5.7-1.5L3.1,23V34.4"/>
	<polygon class="st1" points="14.7,0.5 13.6,0.5 13.6,0.1 16.2,0.1 16.2,0.5 15.1,0.5 15.1,3.3 14.7,3.3 	"/>
	<polygon class="st1" points="19.5,0.4 19.5,0.4 18.5,3.3 18.1,3.3 17.1,0.4 17.1,0.4 17.1,3.3 16.6,3.3 16.6,0.1 17.4,0.1 
		18.3,2.7 18.3,2.7 19.2,0.1 20,0.1 20,3.3 19.5,3.3 	"/>
</g>
<g>
	<path class="st2" d="M29.1,16.8c-1.2,0-1.9,0.6-2.1,1.8h3.8C30.9,17.6,30.1,16.8,29.1,16.8z"/>
	<path class="st2" d="M50.1,21.9c0,0.5,0.5,1,1.3,1c0.9,0,1.6-0.5,1.7-1.6v-1c-0.5,0.2-1,0.4-1.6,0.5C50.6,21,50.1,21.2,50.1,21.9z"
		/>
	<path class="st2" d="M79.6,21.9c0,0.5,0.5,1,1.3,1c0.9,0,1.6-0.5,1.7-1.6v-1c-0.5,0.2-1,0.4-1.6,0.5C80,21,79.6,21.2,79.6,21.9z"/>
	<path class="st2" d="M120.1,21.9c0,0.5,0.5,1,1.3,1c0.9,0,1.6-0.5,1.7-1.6v-1c-0.5,0.2-1,0.4-1.6,0.5
		C120.5,21,120.1,21.2,120.1,21.9z"/>
	<path class="st2" d="M0,0v35.7h141.2V0H0z M41.2,10.5h4v2.8h-4V10.5z M21.1,25h-4.5V14.2h-4.1v-3.7h12.6v3.7h-4.1V25z M29.1,22.7
		c0.6,0,1.4-0.2,1.7-0.8h3.7c-0.8,2.3-3,3.3-5.4,3.3c-3.4,0-5.9-2-5.9-5.5c0-3.1,2.2-5.6,5.6-5.6c4.2,0,6,2.3,6,6.4H27
		C27.1,21.8,27.8,22.7,29.1,22.7z M39.7,25h-4V10.5h4V25z M45.2,25h-4V14.5h4V25z M53.3,25c-0.1-0.3-0.2-0.7-0.1-1h0
		c-0.9,1-2.1,1.3-3.4,1.3c-2,0-3.7-1-3.7-3.2c0-3.3,3.9-3.2,5.9-3.6c0.5-0.1,1.1-0.3,1.1-0.9c0-0.7-0.7-1-1.3-1
		c-1.2,0-1.5,0.6-1.5,1.1h-3.7c0.1-3,2.9-3.4,5.4-3.4c5,0,5,2.1,5,4.1v4.3c0,0.8,0,1.7,0.5,2.4H53.3z M75.1,25H64.2V10.5h4.5v10.8
		h6.4V25z M82.7,25c-0.1-0.3-0.2-0.7-0.1-1h0c-0.9,1-2.1,1.3-3.4,1.3c-2,0-3.7-1-3.7-3.2c0-3.3,3.9-3.2,5.9-3.6
		c0.5-0.1,1.1-0.3,1.1-0.9c0-0.7-0.7-1-1.3-1c-1.2,0-1.5,0.6-1.5,1.1h-3.7c0.1-3,2.9-3.4,5.4-3.4c5,0,5,2.1,5,4.1v4.3
		c0,0.8,0,1.7,0.5,2.4H82.7z M101.9,25h-4.7l-2.6-8h-2.1v3.7c0,1,0.2,1.4,1.2,1.4c0.3,0,0.6,0,0.9-0.1v3c-0.8,0-1.7,0.1-2.6,0.1
		c-1.7,0-3.6-0.3-3.6-3.1v-5h-1.8v-2.5h1.8v-3.2h4v3.2h2.1l0,0H98l1.6,6.4h0l1.7-6.4h4.1L101.9,25z M105.6,10.5h4v2.8h-4V10.5z
		 M105.6,14.5h4V25h-4V14.5z M115.1,24.3c0,1.7-0.1,2.7-0.9,3.4c-0.8,0.6-2,0.7-3,0.7h-1.9v-3.2h0.7c0.8,0,1.1-0.3,1.1-1.3v-9.4h4
		V24.3z M115.1,13.3h-4v-2.8h4V13.3z M123.2,25c-0.1-0.3-0.2-0.7-0.1-1h0c-0.9,1-2.1,1.3-3.4,1.3c-2,0-3.7-1-3.7-3.2
		c0-3.3,3.9-3.2,5.9-3.6c0.5-0.1,1.1-0.3,1.1-0.9c0-0.7-0.7-1-1.3-1c-1.2,0-1.5,0.6-1.5,1.1h-3.7c0.1-3,2.9-3.4,5.4-3.4
		c5,0,5,2.1,5,4.1v4.3c0,0.8,0,1.7,0.5,2.4H123.2z"/>
</g>
<g class="st0">
	<path class="st1" d="M117.9-16.8c-4.4,0-7.9,3.5-7.9,7.9c0,4.3,3.5,7.9,7.9,7.9c4.4,0,7.9-3.5,7.9-7.9
		C125.8-13.3,122.2-16.8,117.9-16.8 M117.9,2.6c-6.4,0-11.6-5.2-11.6-11.6c0-6.4,5.2-11.6,11.6-11.6c6.4,0,11.6,5.2,11.6,11.6
		C129.5-2.6,124.3,2.6,117.9,2.6"/>
	<path class="st1" d="M78.9-16.8l2,2.7c0,0,1.5-2.4,4.2-2.2c3.4,0.2,7.6,2.9,11.1,2.8c3.5-0.1,5.3-2.4,6-3.3l-2.1-2.8
		c0,0-1.3,2.3-4.3,2.2c-3.2,0-6.8-2.8-10.8-2.8C81.2-20.3,79.5-17.7,78.9-16.8 M78.9-9l2,2.7c0,0,1.5-2.4,4.2-2.2
		c3.4,0.2,7.6,2.9,11.1,2.8c3.5-0.1,5.3-2.4,6-3.3l-2.1-2.8c0,0-1.3,2.3-4.3,2.2c-3.2,0-6.8-2.8-10.8-2.8C81.2-12.5,79.5-9.9,78.9-9
		 M78.9-1.2l2,2.7c0,0,1.5-2.4,4.2-2.2c3.4,0.2,7.6,2.9,11.1,2.8c3.5-0.1,5.3-2.4,6-3.3l-2.1-2.8c0,0-1.3,2.3-4.3,2.2
		c-3.2,0-6.8-2.8-10.8-2.8C81.2-4.7,79.5-2.1,78.9-1.2"/>
	<path class="st1" d="M128.9,12.2h-21.6V8.4h21.6V12.2z M128.9,20h-21.6v-3.8h21.6V20z M128.9,27.7h-21.6v-3.8h21.6V27.7z"/>
	<path class="st1" d="M99.6,14.6L99.6,14.6c-1.2,1.7-2.4,2.7-3.6,3.1c0.2-0.2,0.4-0.4,0.6-0.6c1.6-2,2.1-4.7,1.5-8L98,9l-3.6,0.6
		l0,0.1c0.4,2.2,0.1,3.9-0.7,5.1c0-0.5,0-1-0.1-1.5c-0.5-2.5-2.1-4.7-5-6.5l-0.1,0l-1.9,3.1l0.1,0c1.7,1,2.7,2.2,3.2,3.4
		c-0.2-0.2-0.4-0.4-0.7-0.5c-2.1-1.5-4.8-1.8-8.1-1.1l-0.1,0l0.8,3.5l0.1,0c1.9-0.4,3.5-0.3,4.7,0.2c-0.3,0-0.6,0-0.8,0.1
		c-2.5,0.4-4.7,2.1-6.6,4.9l0,0.1l3,2l0-0.1c1.1-1.6,2.2-2.7,3.5-3.1c-0.2,0.2-0.4,0.4-0.5,0.7c-1.5,2.1-1.9,4.8-1.3,8.1l0,0.1
		l3.5-0.7l0-0.1c-0.4-1.9-0.3-3.5,0.3-4.7c0,0.3,0,0.6,0.1,0.8c0.4,2.5,2,4.8,4.8,6.6l0.1,0l2-3l-0.1,0c-1.6-1.1-2.7-2.3-3.1-3.5
		c0.2,0.2,0.4,0.4,0.6,0.6c1.5,1.1,3.3,1.7,5.4,1.7c0.8,0,1.7-0.1,2.6-0.3l0.1,0l-0.6-3.5l-0.1,0c-1.9,0.4-3.5,0.2-4.7-0.4
		c0.3,0,0.6,0,0.8-0.1c2.5-0.3,4.8-1.9,6.7-4.6l0-0.1L99.6,14.6L99.6,14.6z"/>
	<path class="st1" d="M44.9,40.9v-3.3l3.4-0.7v4.1h3.1l-0.9,2.8h-2.2V52c0,1.2,0.6,1.9,1.9,1.9H51v2.7c-0.3,0.1-0.6,0.2-0.9,0.2
		c-0.3,0.1-0.6,0.1-0.9,0.1c-0.6,0-1.1-0.1-1.7-0.2c-0.5-0.2-1-0.4-1.4-0.7c-0.4-0.3-0.7-0.8-0.9-1.3c-0.2-0.5-0.4-1.2-0.4-1.9
		L44.9,40.9L44.9,40.9z"/>
	<path class="st1" d="M55.8,46.9h8c0-0.5-0.1-0.9-0.3-1.4c-0.2-0.4-0.4-0.8-0.8-1.1c-0.3-0.3-0.7-0.5-1.2-0.7
		c-0.5-0.2-1-0.2-1.5-0.2c-0.5,0-1,0.1-1.5,0.2c-0.5,0.1-0.9,0.3-1.3,0.6c-0.4,0.3-0.7,0.6-0.9,1.1C56,45.8,55.8,46.3,55.8,46.9
		L55.8,46.9z M55.8,49.7c0,0.6,0.1,1.1,0.2,1.7c0.2,0.5,0.4,0.9,0.8,1.3c0.4,0.4,0.8,0.6,1.4,0.8c0.6,0.2,1.3,0.3,2.2,0.3
		c0.8,0,1.4-0.1,1.8-0.3c0.4-0.2,0.9-0.6,1.4-1.1l2.8,1.1c-0.7,1.1-1.5,1.9-2.6,2.5c-1.1,0.5-2.3,0.8-3.5,0.8c-2.6,0-4.5-0.7-5.9-2
		c-1.3-1.3-2-3.3-2-5.9v-1.1c0-0.2,0-0.5,0-0.7c0-1,0.3-1.9,0.7-2.7c0.4-0.8,1-1.5,1.6-2.1c0.7-0.6,1.5-1,2.4-1.3
		c0.9-0.3,1.8-0.5,2.8-0.5c1.1,0,2.1,0.2,3,0.5c0.9,0.4,1.6,0.9,2.3,1.5c0.6,0.6,1.1,1.4,1.4,2.3c0.3,0.9,0.5,1.9,0.5,3v1.8H55.8
		L55.8,49.7z"/>
	<path class="st1" d="M86.7,40.9v-3.3l3.4-0.7v4.1h5.8l0,2.8H90V52c0,1.2,0.6,1.9,1.9,1.9h0.8v2.7c-0.3,0.1-0.6,0.2-0.9,0.2
		c-0.3,0.1-0.6,0.1-0.9,0.1c-0.6,0-1.1-0.1-1.7-0.2c-0.5-0.2-1-0.4-1.4-0.7c-0.4-0.3-0.7-0.8-0.9-1.3c-0.2-0.5-0.4-1.2-0.4-1.9
		L86.7,40.9L86.7,40.9z"/>
	<path class="st1" d="M95.6,40.9h3.4v15.6h-3.4V40.9z M97.2,34.6c0.5,0,0.9,0.2,1.3,0.5c0.4,0.4,0.6,0.8,0.6,1.3
		c0,0.5-0.2,1-0.6,1.3c-0.4,0.3-0.8,0.5-1.3,0.5c-0.5,0-1-0.2-1.3-0.5c-0.4-0.3-0.6-0.8-0.6-1.3c0-0.5,0.2-0.9,0.6-1.3
		C96.2,34.8,96.6,34.6,97.2,34.6z"/>
	<path class="st1" d="M109.1,40.5c0.9,0,1.8,0.2,2.8,0.5c0.9,0.3,1.7,0.8,2.4,1.5l-2.1,2.1c-0.6-0.4-1.1-0.7-1.5-0.8
		c-0.4-0.1-1-0.2-1.6-0.2c-1.6,0-2.7,0.4-3.4,1.2c-0.7,0.8-1.1,1.9-1.1,3.4v0.5c0,0.8,0.1,1.5,0.2,2.2c0.1,0.6,0.4,1.2,0.7,1.6
		c0.3,0.4,0.8,0.8,1.4,1c0.6,0.2,1.3,0.4,2.2,0.4c0.6,0,1.2-0.1,1.7-0.2c0.5-0.1,1-0.4,1.5-0.8l2,1.9c-0.7,0.7-1.5,1.2-2.4,1.6
		c-0.9,0.3-1.9,0.5-2.9,0.5c-1.3,0-2.5-0.2-3.5-0.6c-1-0.4-1.8-0.9-2.4-1.7c-0.6-0.7-1.1-1.6-1.4-2.6c-0.3-1-0.4-2.1-0.4-3.3v-0.6
		c0-2.4,0.7-4.2,2.1-5.6C104.7,41.2,106.6,40.5,109.1,40.5"/>
	<path class="st1" d="M22.3,51.7c-0.3,0.2-0.7,0.4-1.1,0.7c-0.4,0.3-0.9,0.5-1.3,0.7c-0.5,0.2-0.9,0.4-1.4,0.6
		c-0.5,0.2-0.9,0.2-1.2,0.2c-0.7,0-1.2-0.1-1.7-0.3c-0.5-0.2-0.7-0.7-0.7-1.4c0-0.7,0.2-1.2,0.5-1.5c0.3-0.3,0.8-0.5,1.5-0.5h5.4
		V51.7z M22.6,55.6c0.1,0.3,0.2,0.5,0.4,0.9l3.2-0.7c-0.2-0.4-0.3-0.7-0.3-1c-0.1-0.5-0.2-1.1-0.2-1.8v-6.7c0-0.9-0.2-1.7-0.5-2.4
		c-0.4-0.7-0.8-1.3-1.5-1.8c-0.6-0.5-1.3-0.8-2.1-1.1c-0.8-0.2-1.6-0.4-2.5-0.4c-1.2,0-2.2,0.1-3.2,0.4c-1,0.3-2,0.7-3,1.3l1.5,2.5
		c0.8-0.4,1.5-0.7,2.2-0.9c0.7-0.2,1.5-0.3,2.5-0.3c1.1,0,1.9,0.3,2.4,0.8c0.5,0.5,0.8,1.3,0.8,2.4v0.4h-5.4c-0.7,0-1.4,0.1-2.1,0.3
		c-0.7,0.2-1.2,0.6-1.7,1c-0.5,0.4-0.9,1-1.1,1.6c-0.3,0.6-0.4,1.3-0.4,2.1c0,0.7,0.1,1.4,0.4,2c0.3,0.6,0.7,1.1,1.2,1.5
		c0.5,0.4,1.1,0.7,1.7,1c0.6,0.2,1.3,0.3,2,0.3c1.1,0,2-0.2,2.9-0.6c0.9-0.4,1.8-0.9,2.6-1.6C22.5,54.9,22.5,55.3,22.6,55.6z"/>
	<path class="st1" d="M38.9,55.6c0.1,0.3,0.2,0.5,0.4,0.9l3.2-0.8l-0.1-0.1l0,0c-0.1-0.3-0.2-0.5-0.3-0.8c-0.1-0.5-0.2-1.1-0.2-1.9
		V40.5l-3.4,0.8v10c-0.3,0.3-0.6,0.6-0.9,0.9c-0.3,0.3-0.6,0.6-1,0.8c-0.3,0.2-0.7,0.4-1.1,0.6c-0.4,0.1-0.8,0.2-1.2,0.2
		c-0.6,0-1-0.1-1.3-0.2c-0.3-0.2-0.6-0.4-0.8-0.7c-0.2-0.3-0.3-0.7-0.4-1.1c-0.1-0.4-0.1-0.9-0.1-1.4v-9.9l-3.4,0.8v9.8
		c0,1.9,0.5,3.4,1.5,4.3c1,0.9,2.5,1.4,4.4,1.4c0.9,0,1.7-0.2,2.3-0.6c0.7-0.4,1.3-0.9,1.9-1.6C38.7,54.9,38.8,55.3,38.9,55.6"/>
	<path class="st1" d="M126.2,51.7c-0.3,0.2-0.7,0.4-1.1,0.7c-0.4,0.3-0.9,0.5-1.3,0.7c-0.5,0.2-0.9,0.4-1.4,0.6
		c-0.5,0.2-0.9,0.2-1.2,0.2c-0.7,0-1.2-0.1-1.7-0.3c-0.5-0.2-0.7-0.7-0.7-1.4c0-0.7,0.2-1.2,0.5-1.5c0.3-0.3,0.8-0.5,1.5-0.5h5.4
		V51.7L126.2,51.7z M126.5,55.6c0.1,0.3,0.1,0.5,0.3,0.9l2.6-0.6l0.6-0.2l-0.3-1c-0.1-0.5-0.2-1.1-0.2-1.8v-6.7
		c0-0.9-0.2-1.7-0.5-2.4c-0.4-0.7-0.8-1.3-1.5-1.8c-0.6-0.5-1.3-0.8-2.1-1.1c-0.8-0.2-1.6-0.4-2.5-0.4c-1.2,0-2.2,0.1-3.2,0.4
		c-1,0.3-2,0.7-3,1.3l1.5,2.5c0.8-0.4,1.5-0.7,2.2-0.9c0.7-0.2,1.5-0.3,2.5-0.3c1.1,0,1.9,0.3,2.4,0.8c0.5,0.5,0.8,1.3,0.8,2.4v0.4
		h-5.4c-0.7,0-1.4,0.1-2.1,0.3c-0.6,0.2-1.2,0.6-1.7,1c-0.5,0.4-0.9,1-1.1,1.6c-0.3,0.6-0.4,1.3-0.4,2.1c0,0.7,0.1,1.4,0.4,2
		c0.3,0.6,0.7,1.1,1.2,1.5c0.5,0.4,1.1,0.7,1.7,1c0.6,0.2,1.3,0.3,2,0.3c1.1,0,2-0.2,2.9-0.6c0.9-0.4,1.8-0.9,2.6-1.6
		C126.4,54.9,126.5,55.3,126.5,55.6L126.5,55.6z"/>
	<path class="st1" d="M83.2,43.6c-0.3-0.7-0.7-1.3-1.3-1.7c-0.5-0.5-1.2-0.8-1.9-1c-0.7-0.2-1.5-0.4-2.4-0.4c-0.4,0-0.7,0-1.1,0.1
		c-0.4,0.1-0.8,0.2-1.2,0.4c-0.4,0.2-0.8,0.4-1.1,0.6c-0.4,0.2-0.7,0.5-0.9,0.7H73c-0.1-0.3-0.2-0.7-0.3-1c-0.1-0.2-0.2-0.4-0.3-0.7
		l-3.3,0.8c0.4,0.7,0.6,1.4,0.6,1.8c0.1,0.4,0.1,0.9,0.1,1.5v11.7h3.4V45c0.2-0.2,0.5-0.5,0.8-0.7c0.3-0.2,0.7-0.4,1-0.5
		c0.4-0.1,0.7-0.2,1.1-0.3c0.4-0.1,0.7-0.1,1.1-0.1c2.1,0,3.1,1.1,3.1,3.2v9.8h3.4V46C83.6,45.1,83.5,44.3,83.2,43.6"/>
</g>
<g class="st0">
	<g class="st3">
		<path class="st2" d="M47.9,60.1v-6.7h2.3c0.5,0,0.9,0,1.2,0.1c0.4,0.1,0.7,0.2,1,0.5c0.4,0.3,0.6,0.7,0.8,1.1
			c0.2,0.5,0.3,1,0.3,1.6c0,0.5-0.1,1-0.2,1.3c-0.1,0.4-0.3,0.7-0.5,1c-0.2,0.3-0.4,0.5-0.6,0.6c-0.2,0.1-0.5,0.3-0.8,0.3
			c-0.3,0.1-0.7,0.1-1.1,0.1H47.9z M48.8,59.3h1.4c0.4,0,0.8,0,1-0.1c0.2-0.1,0.4-0.2,0.6-0.3c0.2-0.2,0.4-0.5,0.5-0.8
			c0.1-0.4,0.2-0.8,0.2-1.3c0-0.7-0.1-1.2-0.3-1.6c-0.2-0.4-0.5-0.6-0.8-0.8c-0.2-0.1-0.6-0.1-1.1-0.1h-1.4V59.3z"/>
		<path class="st2" d="M57.9,59.5c-0.3,0.3-0.6,0.4-0.9,0.5c-0.3,0.1-0.6,0.2-0.9,0.2c-0.5,0-0.9-0.1-1.2-0.4
			c-0.3-0.3-0.4-0.6-0.4-1c0-0.2,0.1-0.5,0.2-0.6c0.1-0.2,0.2-0.4,0.4-0.5c0.2-0.1,0.4-0.2,0.6-0.3c0.2,0,0.4-0.1,0.7-0.1
			c0.7-0.1,1.1-0.2,1.5-0.3c0-0.1,0-0.2,0-0.2c0-0.3-0.1-0.6-0.2-0.7c-0.2-0.2-0.5-0.3-0.9-0.3c-0.4,0-0.7,0.1-0.9,0.2
			c-0.2,0.1-0.3,0.4-0.4,0.7l-0.8-0.1c0.1-0.3,0.2-0.6,0.4-0.8c0.2-0.2,0.4-0.4,0.7-0.5c0.3-0.1,0.7-0.2,1.1-0.2c0.4,0,0.7,0,1,0.1
			c0.3,0.1,0.4,0.2,0.6,0.4c0.1,0.1,0.2,0.3,0.3,0.6c0,0.1,0,0.4,0,0.8v1.1c0,0.8,0,1.2,0.1,1.4c0,0.2,0.1,0.4,0.2,0.6h-0.9
			C58,60,58,59.8,57.9,59.5z M57.9,57.7c-0.3,0.1-0.7,0.2-1.3,0.3c-0.3,0-0.6,0.1-0.7,0.2c-0.1,0.1-0.2,0.1-0.3,0.3
			c-0.1,0.1-0.1,0.2-0.1,0.4c0,0.2,0.1,0.4,0.2,0.5c0.2,0.1,0.4,0.2,0.7,0.2c0.3,0,0.6-0.1,0.8-0.2c0.2-0.1,0.4-0.3,0.5-0.6
			c0.1-0.2,0.1-0.5,0.1-0.8V57.7z"/>
		<path class="st2" d="M62,59.4l0.1,0.7c-0.2,0-0.4,0.1-0.6,0.1c-0.3,0-0.5,0-0.7-0.1c-0.2-0.1-0.3-0.2-0.3-0.4
			c-0.1-0.2-0.1-0.5-0.1-1v-2.8h-0.6v-0.6h0.6v-1.2l0.8-0.5v1.7H62v0.6h-0.8v2.8c0,0.2,0,0.4,0,0.4c0,0.1,0.1,0.1,0.1,0.2
			c0.1,0,0.2,0.1,0.3,0.1C61.8,59.4,61.9,59.4,62,59.4z"/>
		<path class="st2" d="M62.8,57.7c0-0.9,0.2-1.6,0.7-2c0.4-0.4,0.9-0.5,1.5-0.5c0.7,0,1.2,0.2,1.6,0.7c0.4,0.4,0.6,1,0.6,1.8
			c0,0.6-0.1,1.1-0.3,1.5c-0.2,0.4-0.5,0.6-0.8,0.8c-0.4,0.2-0.7,0.3-1.2,0.3c-0.7,0-1.2-0.2-1.6-0.6C63,59.1,62.8,58.5,62.8,57.7z
			 M63.6,57.7c0,0.6,0.1,1.1,0.4,1.4c0.3,0.3,0.6,0.5,1,0.5c0.4,0,0.7-0.2,1-0.5c0.3-0.3,0.4-0.8,0.4-1.4c0-0.6-0.1-1-0.4-1.4
			c-0.3-0.3-0.6-0.5-1-0.5c-0.4,0-0.7,0.2-1,0.5C63.8,56.6,63.6,57.1,63.6,57.7z"/>
		<path class="st2" d="M68.5,60.1v-4.8h0.7V56c0.2-0.3,0.4-0.6,0.5-0.7c0.2-0.1,0.3-0.2,0.5-0.2c0.3,0,0.6,0.1,0.8,0.3l-0.3,0.8
			c-0.2-0.1-0.4-0.2-0.6-0.2c-0.2,0-0.3,0.1-0.5,0.2c-0.1,0.1-0.2,0.3-0.3,0.4c-0.1,0.3-0.1,0.6-0.1,1v2.5H68.5z"/>
		<path class="st2" d="M71.9,54.4v-0.9h0.8v0.9H71.9z M71.9,60.1v-4.8h0.8v4.8H71.9z"/>
		<path class="st2" d="M74.3,60.1v-6.7h0.8v3.8l1.9-2h1.1l-1.8,1.8l2,3h-1l-1.6-2.5l-0.6,0.6v1.9H74.3z"/>
		<path class="st2" d="M82.4,59.5c-0.3,0.3-0.6,0.4-0.9,0.5c-0.3,0.1-0.6,0.2-0.9,0.2c-0.5,0-0.9-0.1-1.2-0.4
			c-0.3-0.3-0.4-0.6-0.4-1c0-0.2,0.1-0.5,0.2-0.6c0.1-0.2,0.2-0.4,0.4-0.5c0.2-0.1,0.4-0.2,0.6-0.3c0.2,0,0.4-0.1,0.7-0.1
			c0.7-0.1,1.1-0.2,1.5-0.3c0-0.1,0-0.2,0-0.2c0-0.3-0.1-0.6-0.2-0.7c-0.2-0.2-0.5-0.3-0.9-0.3c-0.4,0-0.7,0.1-0.9,0.2
			c-0.2,0.1-0.3,0.4-0.4,0.7l-0.8-0.1c0.1-0.3,0.2-0.6,0.4-0.8c0.2-0.2,0.4-0.4,0.7-0.5c0.3-0.1,0.7-0.2,1.1-0.2c0.4,0,0.7,0,1,0.1
			c0.3,0.1,0.4,0.2,0.6,0.4c0.1,0.1,0.2,0.3,0.3,0.6c0,0.1,0,0.4,0,0.8v1.1c0,0.8,0,1.2,0.1,1.4c0,0.2,0.1,0.4,0.2,0.6h-0.9
			C82.4,60,82.4,59.8,82.4,59.5z M82.3,57.7c-0.3,0.1-0.7,0.2-1.3,0.3c-0.3,0-0.6,0.1-0.7,0.2c-0.1,0.1-0.2,0.1-0.3,0.3
			c-0.1,0.1-0.1,0.2-0.1,0.4c0,0.2,0.1,0.4,0.2,0.5c0.2,0.1,0.4,0.2,0.7,0.2c0.3,0,0.6-0.1,0.8-0.2c0.2-0.1,0.4-0.3,0.5-0.6
			c0.1-0.2,0.1-0.5,0.1-0.8V57.7z"/>
		<path class="st2" d="M84.3,58.7l0.8-0.1c0,0.3,0.2,0.6,0.4,0.7c0.2,0.2,0.5,0.3,0.9,0.3c0.4,0,0.7-0.1,0.8-0.2
			c0.2-0.2,0.3-0.3,0.3-0.5c0-0.2-0.1-0.3-0.2-0.4c-0.1-0.1-0.4-0.2-0.8-0.3c-0.6-0.2-1-0.3-1.2-0.4c-0.2-0.1-0.4-0.3-0.5-0.5
			c-0.1-0.2-0.2-0.4-0.2-0.6c0-0.2,0-0.4,0.1-0.6c0.1-0.2,0.2-0.3,0.4-0.5c0.1-0.1,0.3-0.2,0.5-0.2c0.2-0.1,0.5-0.1,0.7-0.1
			c0.4,0,0.7,0.1,1,0.2c0.3,0.1,0.5,0.3,0.6,0.4c0.1,0.2,0.2,0.4,0.3,0.7l-0.8,0.1c0-0.2-0.1-0.4-0.3-0.6c-0.2-0.1-0.4-0.2-0.7-0.2
			c-0.4,0-0.6,0.1-0.8,0.2c-0.2,0.1-0.2,0.3-0.2,0.4c0,0.1,0,0.2,0.1,0.3c0.1,0.1,0.2,0.2,0.3,0.2c0.1,0,0.3,0.1,0.7,0.2
			c0.6,0.2,1,0.3,1.2,0.4c0.2,0.1,0.4,0.2,0.5,0.4c0.1,0.2,0.2,0.4,0.2,0.7c0,0.3-0.1,0.5-0.2,0.8c-0.2,0.2-0.4,0.4-0.7,0.6
			c-0.3,0.1-0.6,0.2-1,0.2c-0.6,0-1.1-0.1-1.4-0.4C84.6,59.6,84.4,59.2,84.3,58.7z"/>
		<path class="st2" d="M92.4,54.4v-0.9h0.8v0.9H92.4z M92.4,60.1v-4.8h0.8v4.8H92.4z"/>
		<path class="st2" d="M94.8,60.1v-4.8h0.7V56c0.4-0.5,0.9-0.8,1.5-0.8c0.3,0,0.6,0.1,0.8,0.2c0.2,0.1,0.4,0.2,0.5,0.4
			c0.1,0.2,0.2,0.4,0.3,0.6c0,0.2,0,0.4,0,0.8v3h-0.8v-2.9c0-0.3,0-0.6-0.1-0.7c-0.1-0.2-0.2-0.3-0.3-0.4c-0.2-0.1-0.4-0.1-0.6-0.1
			c-0.3,0-0.6,0.1-0.9,0.3c-0.3,0.2-0.4,0.6-0.4,1.3v2.6H94.8z"/>
		<path class="st2" d="M99.9,58.7l0.8-0.1c0,0.3,0.2,0.6,0.4,0.7c0.2,0.2,0.5,0.3,0.9,0.3c0.4,0,0.7-0.1,0.8-0.2
			c0.2-0.2,0.3-0.3,0.3-0.5c0-0.2-0.1-0.3-0.2-0.4c-0.1-0.1-0.4-0.2-0.8-0.3c-0.6-0.2-1-0.3-1.2-0.4c-0.2-0.1-0.4-0.3-0.5-0.5
			c-0.1-0.2-0.2-0.4-0.2-0.6c0-0.2,0-0.4,0.1-0.6c0.1-0.2,0.2-0.3,0.4-0.5c0.1-0.1,0.3-0.2,0.5-0.2c0.2-0.1,0.5-0.1,0.7-0.1
			c0.4,0,0.7,0.1,1,0.2c0.3,0.1,0.5,0.3,0.6,0.4c0.1,0.2,0.2,0.4,0.3,0.7l-0.8,0.1c0-0.2-0.1-0.4-0.3-0.6c-0.2-0.1-0.4-0.2-0.7-0.2
			c-0.4,0-0.6,0.1-0.8,0.2c-0.2,0.1-0.2,0.3-0.2,0.4c0,0.1,0,0.2,0.1,0.3c0.1,0.1,0.2,0.2,0.3,0.2c0.1,0,0.3,0.1,0.7,0.2
			c0.6,0.2,1,0.3,1.2,0.4c0.2,0.1,0.4,0.2,0.5,0.4c0.1,0.2,0.2,0.4,0.2,0.7c0,0.3-0.1,0.5-0.2,0.8c-0.2,0.2-0.4,0.4-0.7,0.6
			c-0.3,0.1-0.6,0.2-1,0.2c-0.6,0-1.1-0.1-1.4-0.4C100.2,59.6,100,59.2,99.9,58.7z"/>
		<path class="st2" d="M107,59.4l0.1,0.7c-0.2,0-0.4,0.1-0.6,0.1c-0.3,0-0.5,0-0.7-0.1c-0.2-0.1-0.3-0.2-0.3-0.4
			c-0.1-0.2-0.1-0.5-0.1-1v-2.8h-0.6v-0.6h0.6v-1.2l0.8-0.5v1.7h0.8v0.6h-0.8v2.8c0,0.2,0,0.4,0,0.4c0,0.1,0.1,0.1,0.1,0.2
			c0.1,0,0.2,0.1,0.3,0.1C106.7,59.4,106.8,59.4,107,59.4z"/>
		<path class="st2" d="M108,54.4v-0.9h0.8v0.9H108z M108,60.1v-4.8h0.8v4.8H108z"/>
		<path class="st2" d="M112.2,59.4l0.1,0.7c-0.2,0-0.4,0.1-0.6,0.1c-0.3,0-0.5,0-0.7-0.1c-0.2-0.1-0.3-0.2-0.3-0.4
			c-0.1-0.2-0.1-0.5-0.1-1v-2.8h-0.6v-0.6h0.6v-1.2l0.8-0.5v1.7h0.8v0.6h-0.8v2.8c0,0.2,0,0.4,0,0.4c0,0.1,0.1,0.1,0.1,0.2
			c0.1,0,0.2,0.1,0.3,0.1C111.9,59.4,112,59.4,112.2,59.4z"/>
		<path class="st2" d="M116.4,60.1v-0.7c-0.4,0.5-0.9,0.8-1.5,0.8c-0.3,0-0.6-0.1-0.8-0.2c-0.2-0.1-0.4-0.2-0.5-0.4
			c-0.1-0.2-0.2-0.4-0.3-0.6c0-0.2-0.1-0.4-0.1-0.8v-3h0.8V58c0,0.4,0,0.7,0.1,0.9c0.1,0.2,0.2,0.4,0.3,0.5c0.2,0.1,0.4,0.2,0.6,0.2
			c0.2,0,0.5-0.1,0.7-0.2c0.2-0.1,0.4-0.3,0.5-0.5c0.1-0.2,0.1-0.5,0.1-0.9v-2.6h0.8v4.8H116.4z M113.8,54.5v-0.7h2.8v0.7H113.8z"/>
		<path class="st2" d="M120.5,59.4l0.1,0.7c-0.2,0-0.4,0.1-0.6,0.1c-0.3,0-0.5,0-0.7-0.1c-0.2-0.1-0.3-0.2-0.3-0.4
			c-0.1-0.2-0.1-0.5-0.1-1v-2.8h-0.6v-0.6h0.6v-1.2l0.8-0.5v1.7h0.8v0.6h-0.8v2.8c0,0.2,0,0.4,0,0.4c0,0.1,0.1,0.1,0.1,0.2
			c0.1,0,0.2,0.1,0.3,0.1C120.2,59.4,120.3,59.4,120.5,59.4z"/>
		<path class="st2" d="M121.2,58.7l0.8-0.1c0,0.3,0.2,0.6,0.4,0.7c0.2,0.2,0.5,0.3,0.9,0.3c0.4,0,0.7-0.1,0.8-0.2
			c0.2-0.2,0.3-0.3,0.3-0.5c0-0.2-0.1-0.3-0.2-0.4c-0.1-0.1-0.4-0.2-0.8-0.3c-0.6-0.2-1-0.3-1.2-0.4c-0.2-0.1-0.4-0.3-0.5-0.5
			c-0.1-0.2-0.2-0.4-0.2-0.6c0-0.2,0-0.4,0.1-0.6c0.1-0.2,0.2-0.3,0.4-0.5c0.1-0.1,0.3-0.2,0.5-0.2c0.2-0.1,0.5-0.1,0.7-0.1
			c0.4,0,0.7,0.1,1,0.2c0.3,0.1,0.5,0.3,0.6,0.4c0.1,0.2,0.2,0.4,0.3,0.7l-0.8,0.1c0-0.2-0.1-0.4-0.3-0.6c-0.2-0.1-0.4-0.2-0.7-0.2
			c-0.4,0-0.6,0.1-0.8,0.2c-0.2,0.1-0.2,0.3-0.2,0.4c0,0.1,0,0.2,0.1,0.3c0.1,0.1,0.2,0.2,0.3,0.2c0.1,0,0.3,0.1,0.7,0.2
			c0.6,0.2,1,0.3,1.2,0.4c0.2,0.1,0.4,0.2,0.5,0.4c0.1,0.2,0.2,0.4,0.2,0.7c0,0.3-0.1,0.5-0.2,0.8c-0.2,0.2-0.4,0.4-0.7,0.6
			c-0.3,0.1-0.6,0.2-1,0.2c-0.6,0-1.1-0.1-1.4-0.4C121.5,59.6,121.3,59.2,121.2,58.7z"/>
		<path class="st2" d="M129.4,60.1v-6.7h2.3c0.5,0,0.9,0,1.2,0.1c0.4,0.1,0.7,0.2,1,0.5c0.4,0.3,0.6,0.7,0.8,1.1
			c0.2,0.5,0.3,1,0.3,1.6c0,0.5-0.1,1-0.2,1.3c-0.1,0.4-0.3,0.7-0.5,1c-0.2,0.3-0.4,0.5-0.6,0.6c-0.2,0.1-0.5,0.3-0.8,0.3
			c-0.3,0.1-0.7,0.1-1.1,0.1H129.4z M130.3,59.3h1.4c0.4,0,0.8,0,1-0.1c0.2-0.1,0.4-0.2,0.6-0.3c0.2-0.2,0.4-0.5,0.5-0.8
			c0.1-0.4,0.2-0.8,0.2-1.3c0-0.7-0.1-1.2-0.3-1.6c-0.2-0.4-0.5-0.6-0.8-0.8c-0.2-0.1-0.6-0.1-1.1-0.1h-1.4V59.3z"/>
		<path class="st2" d="M136.6,60.1v-6.7h0.9v6.7H136.6z"/>
		<path class="st2" d="M141.2,60.1l-2.6-6.7h1l1.7,4.8c0.1,0.4,0.3,0.8,0.3,1.1c0.1-0.4,0.2-0.7,0.4-1.1l1.8-4.8h0.9l-2.6,6.7H141.2
			z"/>
		<path class="st2" d="M145.9,60.1v-6.7h0.9v6.7H145.9z"/>
	</g>
	<g class="st3">
		<rect x="-8.3" y="42.6" class="st2" width="158.6" height="0.5"/>
		<rect x="36" y="-25.6" class="st2" width="0.5" height="87.3"/>
		<path class="st2" d="M123.7,50C109.9,11.8,84-3.3,64.7-9.3C43.8-15.7,26-13,25.8-13l-0.1-0.5c0.2,0,18.2-2.7,39.2,3.7
			C77.2-5.9,88.2,0.2,97.5,8.6c11.6,10.4,20.6,24.3,26.7,41.3L123.7,50z"/>
		<path class="st2" d="M102.6,50c-10.9-24.2-28.3-35-41-39.9C47.7,4.9,36.4,5.4,36.3,5.4l0-0.5c0.1,0,11.6-0.5,25.5,4.8
			c12.8,4.9,30.4,15.8,41.3,40.1L102.6,50z"/>
	</g>
	<g class="st3">
		<polygon class="st2" points="38.9,-13.8 38.9,-0.8 44.2,-0.8 44.2,-13.4 		"/>
		<polygon class="st2" points="44.2,5.6 44.2,42.9 38.9,42.9 38.9,5.1 		"/>
		<polygon class="st2" points="47.2,6 47.2,42.9 49.3,42.9 101.5,12.8 97.3,8.8 52.4,34.6 52.4,7.1 		"/>
		<polygon class="st2" points="53.6,42.9 61.2,38 96.3,38 99.3,42.9 		"/>
		<polygon class="st2" points="104.1,38 118.9,38 121.1,42.9 106.8,42.9 		"/>
		<path class="st2" d="M30.9-13.7V5.7c0,0-15.8,2.8-22.6,13.9C1.5,30.7,2.8,42.9,2.8,42.9h33.4v-56.7L30.9-13.7z M30.9,38H8.6
			c0,0-0.1-7.8,4.1-15.2c5.6-9.8,18.2-12.5,18.2-12.5V38z"/>
	</g>
</g>
</svg>
