<?xml version="1.0" encoding="utf-8"?>
<!-- Generator: Adobe Illustrator 19.2.1, SVG Export Plug-In . SVG Version: 6.00 Build 0)  -->
<svg version="1.1" xmlns="http://www.w3.org/2000/svg" xmlns:xlink="http://www.w3.org/1999/xlink" x="0px" y="0px" viewBox="0 0 952 407" style="enable-background:new 0 0 952 407;" xml:space="preserve" width="952" height="407">
<style type="text/css">
	.st0{fill:#F1F1F1;}
	.st1{fill:#222222;}
	.st2{fill:#7629F4;}
	.st3{fill:#FFFFFF;stroke:#7045F6;stroke-miterlimit:10;}
	.st4{fill:#7629F4;stroke:#7629F4;stroke-miterlimit:10;}
	.st5{fill:#FFFFFF;stroke:#7629F4;stroke-miterlimit:10;}
	.st6{fill:none;}
	.st7{fill:#F1F1F1;stroke:#7629F4;stroke-miterlimit:10;}
	.st8{fill:#FFFFFF;stroke:#FFFFFF;stroke-linecap:round;stroke-linejoin:round;stroke-miterlimit:10;}
	.st9{fill:none;stroke:#762AF3;stroke-linecap:round;stroke-linejoin:round;stroke-miterlimit:10;}
	.st10{fill:none;stroke:#7629F4;stroke-linecap:round;stroke-linejoin:round;stroke-miterlimit:10;}
	.st11{fill:none;stroke:#7045F6;stroke-linecap:round;stroke-linejoin:round;stroke-miterlimit:10;}
	.st12{fill:none;stroke:#7045F6;stroke-miterlimit:10;}
	.st13{fill:#7045F6;}
	.st14{fill:none;stroke:#7629F4;stroke-miterlimit:10;}
	.st15{fill:#7629F4;stroke:#FFFFFF;stroke-miterlimit:10;}
	.st16{fill:#7045F6;stroke:#7045F6;stroke-miterlimit:10;}
	.st17{fill:#FFFFFF;}
	.st18{fill:none;stroke:#FFFFFF;stroke-linecap:round;stroke-linejoin:round;stroke-miterlimit:10;}
	.st19{fill:#7629F4;stroke:#7629F4;stroke-linecap:round;stroke-linejoin:round;stroke-miterlimit:10;}
	.st20{fill:none;stroke:#FFFFFF;stroke-miterlimit:10;}
	.st21{fill:#7045F6;stroke:#FFFFFF;stroke-miterlimit:10;}
	.st22{fill:#FFFFFF;stroke:#7045F6;stroke-linecap:round;stroke-linejoin:round;stroke-miterlimit:10;}
</style>
<g id="Layer_1">
	<polygon class="st0" points="0,111.7 345,0 345.6,76.3 270.7,100.3 271.6,152.5 365,122.2 366.4,179.3 33.7,286.7 33.8,231.8 
		96.6,211 96,158.2 0.2,191.5 	"/>
	<g>
		<g>
			<g>
				<path class="st1" d="M110.6,154.2l7.4-2.5c2.8-0.9,5-0.6,6.5,1.2c1.5,1.7,2.2,4.6,2.2,8.5v22.8c0,4.6-0.8,8.2-2.4,10.9
					c-1.6,2.7-3.8,4.5-6.8,5.5l-6.9,2.3V154.2z M115.5,194.8l2.3-0.8c1.4-0.5,2.4-1.3,3-2.5s0.9-2.8,0.9-4.9v-23.5
					c0-1.9-0.3-3.3-0.8-4.2c-0.6-0.9-1.6-1.1-3-0.6l-2.3,0.8L115.5,194.8L115.5,194.8z"/>
				<path class="st1" d="M136.3,145.7l4.1-1.4l7.8,46.2l-5,1.7l-1.5-10l-6.8,2.3l-1.5,11l-5,1.7L136.3,145.7z M138.4,159L138.4,159
					l-2.5,18.5l5-1.7L138.4,159z"/>
				<path class="st1" d="M151.2,147.3l-5.8,1.9v-6.6l16.5-5.5v6.6l-5.8,1.9v42.2l-5,1.7v-42.2H151.2z"/>
				<path class="st1" d="M167,135.5l4.1-1.4l7.8,46.2l-5,1.7l-1.5-10l-6.8,2.3l-1.5,11l-5,1.7L167,135.5z M169.1,148.8L169.1,148.8
					l-2.5,18.5l5-1.7L169.1,148.8z"/>
				<path class="st1" d="M181.3,130.7l7.3-2.4c1.6-0.5,3-0.6,4.1-0.3c1.1,0.3,2,0.9,2.8,1.8c0.7,0.9,1.2,2,1.5,3.4s0.5,2.9,0.5,4.5
					v1.8c0,1.3-0.1,2.5-0.2,3.4c-0.1,1-0.4,1.8-0.7,2.6s-0.7,1.5-1.1,2.2c-0.4,0.7-0.9,1.3-1.5,2c1.2,0.4,2,1.3,2.6,2.6
					s0.8,3.3,0.8,5.9v2.7c0,4.3-0.7,7.8-2.2,10.6s-3.8,4.7-7.1,5.8l-6.8,2.3L181.3,130.7L181.3,130.7z M186.3,149.1l2.2-0.7
					c1.7-0.6,2.8-1.5,3.3-2.9c0.6-1.4,0.9-3.2,0.9-5.4s-0.3-3.7-1-4.6c-0.6-0.9-1.8-1.1-3.4-0.5l-2,0.7V149.1z M186.3,170.9l2.1-0.7
					c1-0.3,1.8-0.8,2.4-1.4c0.6-0.6,1-1.3,1.3-2.1s0.5-1.8,0.5-2.8c0.1-1,0.1-2.1,0.1-3.3s0-2.3-0.1-3.2s-0.3-1.6-0.6-2.1
					s-0.7-0.8-1.3-1c-0.6-0.1-1.3-0.1-2.2,0.2l-2.2,0.7V170.9z"/>
				<path class="st1" d="M207,122.1l4.1-1.4l7.8,46.2l-5,1.7l-1.5-10l-6.8,2.3l-1.5,11l-5,1.7L207,122.1z M209.1,135.5L209.1,135.5
					l-2.5,18.5l5-1.7L209.1,135.5z"/>
				<path class="st1" d="M237.5,126.1l-5,1.7v-1.6c0-1.6-0.3-2.9-0.8-3.9s-1.4-1.3-2.7-0.8c-0.7,0.2-1.2,0.6-1.7,1.1
					c-0.4,0.5-0.8,1.1-1,1.7c-0.2,0.7-0.4,1.4-0.5,2.2s-0.1,1.6-0.1,2.4c0,1,0,1.8,0.1,2.4c0,0.6,0.2,1.2,0.4,1.6
					c0.2,0.4,0.5,0.7,0.9,1c0.4,0.2,0.9,0.4,1.5,0.6l3.8,0.9c1.1,0.2,2,0.6,2.7,1.2c0.7,0.6,1.2,1.3,1.6,2.3s0.6,2.1,0.8,3.5
					c0.1,1.4,0.2,2.9,0.2,4.7c0,2.1-0.1,4-0.4,5.9s-0.8,3.5-1.4,5c-0.7,1.5-1.6,2.8-2.7,3.9s-2.5,1.9-4.1,2.4
					c-1.2,0.4-2.3,0.5-3.4,0.2c-1-0.2-1.9-0.8-2.7-1.5c-0.7-0.8-1.3-1.8-1.8-3.1c-0.4-1.3-0.7-2.7-0.7-4.4v-2.6l5-1.7v2.2
					c0,1.3,0.3,2.3,0.8,3.2s1.4,1.1,2.7,0.6c0.8-0.3,1.5-0.7,2-1.2s0.8-1.1,1.1-1.8c0.2-0.7,0.4-1.5,0.5-2.5c0.1-0.9,0.1-2,0.1-3
					c0-1.3,0-2.3-0.1-3.1s-0.2-1.4-0.4-1.9c-0.2-0.4-0.5-0.7-0.9-0.9s-0.9-0.4-1.5-0.5l-3.6-0.9c-2.1-0.5-3.6-1.7-4.3-3.5
					c-0.7-1.8-1.1-4.2-1.1-7.3c0-1.8,0.2-3.6,0.5-5.4c0.4-1.8,0.9-3.4,1.6-4.8s1.6-2.7,2.7-3.7c1.1-1.1,2.3-1.8,3.8-2.3
					c1.2-0.4,2.4-0.5,3.4-0.2s1.9,0.9,2.6,1.7s1.3,1.8,1.7,3c0.4,1.2,0.6,2.4,0.6,3.8v3.4H237.5z"/>
				<path class="st1" d="M241.2,110.8l14.8-4.9v6.6l-9.9,3.3V130l8.6-2.9v6.6l-8.6,2.9V151l9.9-3.3v7l-14.8,4.9V110.8z"/>
			</g>
		</g>
		<g>
			<g>
				<path class="st1" d="M14.6,122.8l7.4-2.5c2.8-0.9,5-0.6,6.5,1.2c1.5,1.7,2.2,4.6,2.2,8.5v22.8c0,4.6-0.8,8.2-2.4,10.9
					s-3.8,4.5-6.8,5.5l-6.9,2.3C14.6,171.5,14.6,122.8,14.6,122.8z M19.5,163.4l2.3-0.8c1.4-0.5,2.4-1.3,3-2.5s0.9-2.8,0.9-4.9
					v-23.5c0-1.9-0.3-3.3-0.8-4.2c-0.6-0.9-1.6-1.1-3-0.6l-2.3,0.8L19.5,163.4L19.5,163.4z"/>
				<path class="st1" d="M35,127.5c0-2,0.2-3.8,0.7-5.5s1.1-3.1,1.9-4.4c0.8-1.2,1.7-2.3,2.7-3.1c1-0.8,2-1.4,3-1.8
					c1-0.3,2-0.4,3-0.2c1,0.2,1.9,0.6,2.7,1.3c0.8,0.7,1.4,1.7,1.9,3.1c0.5,1.3,0.7,3,0.7,5v25.8c0,2-0.2,3.8-0.7,5.5
					c-0.5,1.6-1.1,3.1-1.9,4.3s-1.7,2.3-2.7,3.1s-2,1.4-3,1.8c-1,0.3-2,0.4-3,0.2s-1.9-0.6-2.7-1.3c-0.8-0.7-1.4-1.7-1.9-3.1
					c-0.5-1.3-0.7-3-0.7-5V127.5z M40,151.6c0,1.7,0.3,2.8,1,3.4c0.7,0.6,1.5,0.7,2.4,0.4s1.7-1,2.4-2c0.7-1,1-2.4,1-4.1v-25.8
					c0-1.7-0.3-2.8-1-3.4s-1.5-0.7-2.4-0.4c-0.9,0.3-1.7,1-2.4,2c-0.7,1-1,2.4-1,4.1V151.6z"/>
				<path class="st1" d="M71.9,141.6c0,1.5-0.2,3-0.6,4.5s-1,2.9-1.7,4.2s-1.6,2.4-2.5,3.3c-1,0.9-2,1.6-3.1,2
					c-0.9,0.3-1.9,0.4-2.9,0.4s-1.9-0.4-2.6-1c-0.8-0.6-1.4-1.6-1.9-2.9c-0.5-1.3-0.8-3.1-0.8-5.3v-26.9c0-1.6,0.2-3.2,0.6-4.7
					s0.9-2.9,1.7-4.1c0.7-1.2,1.6-2.3,2.6-3.2c1-0.9,2.1-1.6,3.3-2c1.1-0.4,2.2-0.4,3.2-0.2c1,0.2,1.8,0.8,2.5,1.6
					c0.7,0.8,1.3,1.8,1.7,3.1c0.4,1.3,0.6,2.8,0.6,4.5v2.7l-5,1.7V117c0-1.4-0.3-2.5-0.8-3.3c-0.6-0.8-1.3-1.1-2.2-0.8
					c-1.2,0.4-2.1,1.2-2.5,2.4c-0.4,1.2-0.6,2.6-0.6,4.3v25c0,1.4,0.2,2.5,0.7,3.3c0.4,0.8,1.2,1,2.4,0.7c0.3-0.1,0.7-0.3,1-0.6
					c0.4-0.3,0.7-0.7,1-1.1c0.3-0.5,0.6-1.1,0.8-1.8c0.2-0.7,0.3-1.5,0.3-2.5v-2.4l5-1.7v3.1H71.9z"/>
				<path class="st1" d="M92.1,134.8c0,1.6-0.2,3.2-0.6,4.7c-0.4,1.5-1,2.9-1.7,4.2s-1.6,2.4-2.6,3.3s-2,1.6-3.1,1.9
					c-1.1,0.4-2.1,0.4-3.1,0.1c-1-0.3-1.8-0.8-2.6-1.6c-0.7-0.8-1.3-1.8-1.7-3s-0.6-2.6-0.6-4.2v-37.9l5-1.7v37.2
					c0,1.7,0.3,2.9,0.9,3.5c0.6,0.6,1.3,0.8,2.2,0.5s1.6-0.9,2.2-2c0.6-1,0.9-2.4,0.9-4.1V98.6l5-1.7v37.9H92.1z"/>
				<path class="st1" d="M96.8,95.4l4.8-1.6l6.4,23.7h0.1l6.3-28l4.8-1.6v48.8l-5,1.7v-29.7h-0.1l-4.9,22.6l-2.5,0.8l-4.9-19.4h-0.1
					v29.7l-5,1.7L96.8,95.4L96.8,95.4z"/>
				<path class="st1" d="M123.9,86.4l14.8-4.9V88l-9.9,3.3v14.3l8.6-2.9v6.6l-8.6,2.9v14.3l9.9-3.3v7l-14.8,4.9V86.4z"/>
				<path class="st1" d="M141.8,80.5l4.8-1.6l7.5,26.9h0.1V76.3l5-1.7v48.8l-4.7,1.6l-7.6-26.8h-0.1v29.3l-5,1.7V80.5z"/>
				<path class="st1" d="M166.9,78.7l-5.8,1.9V74l16.5-5.5v6.6l-5.8,1.9v42.2l-5,1.7V78.7H166.9z"/>
				<path class="st1" d="M188.6,76.4c0-2,0.2-3.8,0.7-5.5s1.1-3.1,1.9-4.4c0.8-1.2,1.7-2.3,2.7-3.1c1-0.8,2-1.4,3-1.8
					c1-0.3,2-0.4,3-0.2s1.9,0.6,2.7,1.3s1.4,1.8,1.9,3.1c0.5,1.3,0.7,3,0.7,5v25.8c0,2-0.2,3.8-0.7,5.5c-0.5,1.6-1.1,3.1-1.9,4.3
					c-0.8,1.2-1.7,2.3-2.7,3.1c-1,0.8-2,1.4-3,1.8c-1,0.3-2,0.4-3,0.2c-1-0.2-1.9-0.6-2.7-1.3c-0.8-0.7-1.4-1.7-1.9-3.1
					c-0.5-1.3-0.7-3-0.7-5V76.4z M193.6,100.5c0,1.7,0.3,2.8,1,3.4s1.5,0.7,2.4,0.4c0.9-0.3,1.7-1,2.4-2s1-2.4,1-4.1V72.5
					c0-1.7-0.3-2.8-1-3.4s-1.5-0.7-2.4-0.4c-0.9,0.3-1.7,1-2.4,2s-1,2.4-1,4.1V100.5z"/>
				<path class="st1" d="M209.7,57.9l8-2.7c5.9-1.9,8.8,1.9,8.8,11.4c0,2.8-0.3,5.4-1,7.6c-0.6,2.2-1.7,4.3-3.3,6l5.4,20.5l-5.3,1.8
					l-4.6-19.3l-3,1V105l-5,1.7V57.9z M214.7,78l2.8-0.9c0.9-0.3,1.6-0.7,2.1-1.2s0.9-1.1,1.2-1.9c0.3-0.7,0.5-1.6,0.6-2.6
					s0.1-2.1,0.1-3.3s0-2.3-0.1-3.2c-0.1-0.9-0.3-1.6-0.6-2.2c-0.3-0.6-0.7-0.9-1.3-1c-0.6-0.1-1.3-0.1-2.2,0.3l-2.6,0.9V78z"/>
				<path class="st1" d="M230.6,50.9l5-1.7V98l-5,1.7V50.9z"/>
				<path class="st1" d="M240.4,47.6l14.8-4.9v6.6l-9.9,3.3v14.3l8.6-2.9v6.6l-8.6,2.9v14.3l9.9-3.3v7l-14.8,4.9V47.6z"/>
				<path class="st1" d="M258.3,41.7l4.8-1.6l7.5,26.9h0.1V37.6l5-1.7v48.8l-4.7,1.6l-7.6-26.8h-0.1v29.3l-5,1.7L258.3,41.7
					L258.3,41.7z"/>
				<path class="st1" d="M283.4,39.9l-5.8,1.9v-6.6l16.5-5.5v6.6l-5.8,1.9v42.2l-5,1.7L283.4,39.9L283.4,39.9z"/>
				<path class="st1" d="M296.4,29l14.8-4.9v6.6l-9.9,3.3v14.3l8.6-2.9V52l-8.6,2.9v14.3l9.9-3.3v7l-14.8,4.9V29z"/>
				<path class="st1" d="M314.4,23l7.4-2.5c2.8-0.9,5-0.6,6.5,1.2c1.5,1.7,2.2,4.6,2.2,8.5V53c0,4.6-0.8,8.2-2.4,10.9
					c-1.6,2.7-3.8,4.5-6.8,5.5l-6.9,2.3L314.4,23L314.4,23z M319.4,63.6l2.3-0.8c1.4-0.5,2.4-1.3,3-2.5s0.9-2.8,0.9-4.9V31.9
					c0-1.9-0.3-3.3-0.8-4.2c-0.6-0.9-1.6-1.1-3-0.6l-2.3,0.8v35.7H319.4z"/>
			</g>
		</g>
	</g>
	<g>
		<g>
			<g>
				<g>
					<path class="st2" d="M59.3,266.5l-2.7,0.9l-2.2-17.8h-0.1l-2.2,19.3l-2.7,0.9l-3-27.5l3.1-1l1.5,17.6h0.1l2.3-18.9l2.2-0.7
						l2.4,17.8h0.1l1.4-19l3.1-1L59.3,266.5z"/>
					<path class="st2" d="M64.8,236.1l2.9-1v28.6l-2.9,1V236.1z"/>
					<path class="st2" d="M73,237.2l-3.4,1.1v-3.8l9.6-3.2v3.8l-3.4,1.1v24.7l-2.9,1v-24.7H73z"/>
					<path class="st2" d="M81.1,230.6l2.9-1v12.2l3.6-1.2v-12.2l2.9-1V256l-2.9,1v-12.7l-3.6,1.2v12.7l-2.9,1V230.6z"/>
					<path class="st2" d="M106.5,244c0,0.9-0.1,1.9-0.3,2.8c-0.2,0.9-0.6,1.8-1,2.6s-0.9,1.5-1.6,2s-1.3,1-2.1,1.3
						c-0.9,0.3-1.7,0.3-2.3-0.1c-0.6-0.4-1.1-0.8-1.5-1.2l2.3-3.3c0.2,0.2,0.5,0.4,0.7,0.5c0.3,0.1,0.6,0.1,0.9,0
						c0.2-0.1,0.4-0.2,0.6-0.3c0.2-0.2,0.4-0.4,0.6-0.7s0.4-0.7,0.5-1.2s0.2-1.1,0.2-1.8v-21.3l2.9-1V244H106.5z"/>
					<path class="st2" d="M119.2,226.2l-2.9,1v-0.9c0-0.9-0.2-1.7-0.5-2.3s-0.8-0.7-1.6-0.5c-0.4,0.1-0.7,0.3-1,0.6s-0.5,0.6-0.6,1
						s-0.2,0.8-0.3,1.3s-0.1,0.9-0.1,1.4c0,0.6,0,1,0,1.4s0.1,0.7,0.2,0.9c0.1,0.2,0.3,0.4,0.5,0.6c0.2,0.1,0.5,0.3,0.9,0.3l2.2,0.5
						c0.6,0.1,1.2,0.4,1.6,0.7c0.4,0.3,0.7,0.8,0.9,1.3c0.2,0.6,0.4,1.2,0.4,2c0.1,0.8,0.1,1.7,0.1,2.7c0,1.2-0.1,2.3-0.3,3.4
						c-0.2,1.1-0.5,2.1-0.8,2.9s-0.9,1.6-1.6,2.3c-0.6,0.6-1.4,1.1-2.4,1.4c-0.7,0.2-1.4,0.3-2,0.1s-1.1-0.4-1.6-0.9
						c-0.4-0.5-0.8-1.1-1-1.8s-0.4-1.6-0.4-2.6v-1.5l2.9-1v1.3c0,0.7,0.2,1.4,0.5,1.9s0.8,0.6,1.6,0.4c0.5-0.2,0.9-0.4,1.2-0.7
						s0.5-0.6,0.6-1.1c0.1-0.4,0.2-0.9,0.3-1.4c0-0.5,0.1-1.1,0.1-1.8s0-1.4-0.1-1.8c0-0.5-0.1-0.8-0.2-1.1
						c-0.1-0.3-0.3-0.4-0.5-0.6c-0.2-0.1-0.5-0.2-0.9-0.3l-2.1-0.5c-1.3-0.3-2.1-1-2.5-2s-0.6-2.5-0.6-4.3c0-1.1,0.1-2.1,0.3-3.2
						s0.5-2,0.9-2.8s0.9-1.6,1.6-2.2c0.6-0.6,1.4-1.1,2.2-1.4c0.7-0.2,1.4-0.3,2-0.1s1.1,0.5,1.5,1s0.8,1.1,1,1.7
						c0.2,0.7,0.3,1.4,0.3,2.2v2.5H119.2z"/>
					<path class="st2" d="M124.5,216l2.3-0.8l-3.8,30.3l-2.3,0.8L124.5,216z"/>
					<path class="st2" d="M138.3,219.8l-2.9,1v-0.9c0-0.9-0.2-1.7-0.5-2.3s-0.8-0.7-1.6-0.5c-0.4,0.1-0.7,0.3-1,0.6s-0.5,0.6-0.6,1
						s-0.2,0.8-0.3,1.3s-0.1,0.9-0.1,1.4c0,0.6,0,1,0,1.4s0.1,0.7,0.2,0.9c0.1,0.2,0.3,0.4,0.5,0.6c0.2,0.1,0.5,0.3,0.9,0.3l2.2,0.5
						c0.6,0.1,1.2,0.4,1.6,0.7c0.4,0.3,0.7,0.8,0.9,1.3c0.2,0.6,0.4,1.2,0.4,2s0.1,1.7,0.1,2.7c0,1.2-0.1,2.3-0.3,3.4
						c-0.2,1.1-0.5,2.1-0.8,2.9c-0.4,0.9-0.9,1.6-1.6,2.3c-0.6,0.6-1.4,1.1-2.4,1.4c-0.7,0.2-1.4,0.3-2,0.1
						c-0.6-0.1-1.1-0.4-1.6-0.9c-0.4-0.5-0.8-1.1-1-1.8s-0.4-1.6-0.4-2.6v-1.5l2.9-1v1.3c0,0.7,0.2,1.4,0.5,1.9s0.8,0.6,1.6,0.4
						c0.5-0.2,0.9-0.4,1.2-0.7s0.5-0.6,0.6-1.1c0.1-0.4,0.2-0.9,0.3-1.4c0-0.5,0.1-1.1,0.1-1.8s0-1.4-0.1-1.8c0-0.5-0.1-0.8-0.2-1.1
						c-0.1-0.3-0.3-0.4-0.5-0.6c-0.2-0.1-0.5-0.2-0.9-0.3l-2.1-0.5c-1.3-0.3-2.1-1-2.5-2s-0.6-2.5-0.6-4.3c0-1.1,0.1-2.1,0.3-3.2
						c0.2-1,0.5-2,0.9-2.8s0.9-1.6,1.6-2.2c0.6-0.6,1.4-1.1,2.2-1.4c0.7-0.2,1.4-0.3,2-0.1s1.1,0.5,1.5,1s0.8,1.1,1,1.7
						c0.2,0.7,0.3,1.4,0.3,2.2v2.5H138.3z"/>
					<path class="st2" d="M140.9,217.5c0-1.1,0.1-2.2,0.4-3.2c0.3-1,0.7-1.8,1.1-2.6c0.5-0.7,1-1.3,1.6-1.8s1.2-0.8,1.8-1
						s1.2-0.2,1.8-0.1c0.6,0.1,1.1,0.4,1.6,0.8c0.5,0.4,0.8,1,1.1,1.8s0.4,1.8,0.4,2.9v15.1c0,1.1-0.1,2.1-0.4,3.1l1.8,1.4l-1.5,3
						l-1.7-1.4c-0.4,0.7-0.9,1.2-1.4,1.6c-0.5,0.4-1.1,0.7-1.6,0.9c-0.6,0.2-1.2,0.2-1.8,0.1c-0.6-0.1-1.1-0.4-1.6-0.8
						c-0.5-0.4-0.8-1-1.1-1.8s-0.4-1.7-0.4-2.9v-15.1H140.9z M143.8,231.6c0,1,0.2,1.7,0.6,2s0.9,0.4,1.4,0.2
						c0.2-0.1,0.5-0.2,0.6-0.4l-1.3-1l1.5-3l1.2,0.9v-0.1v-15.1c0-1-0.2-1.7-0.6-2c-0.4-0.3-0.9-0.4-1.4-0.2s-1,0.6-1.4,1.2
						c-0.4,0.6-0.6,1.4-0.6,2.4V231.6z"/>
					<path class="st2" d="M153.8,206.5l2.9-1V230l5.8-1.9v4.1l-8.7,2.9V206.5z"/>
					<path class="st2" d="M170.8,200.8l4.4-1.5c0.8-0.3,1.5-0.4,2.1-0.3s1.2,0.4,1.7,1s0.8,1.3,1,2.3c0.2,0.9,0.3,2.3,0.3,4
						c0,1.3-0.1,2.4-0.2,3.3c-0.1,0.9-0.3,1.8-0.7,2.7c-0.4,1.1-0.9,2-1.6,2.7c-0.7,0.7-1.5,1.3-2.6,1.7l-1.5,0.5v11.1l-2.9,1V200.8
						z M173.7,213.4l1.4-0.5c0.6-0.2,1-0.5,1.4-0.8c0.3-0.3,0.6-0.8,0.7-1.2c0.2-0.5,0.2-1,0.3-1.6s0-1.3,0-2s0-1.3,0-1.9
						s-0.1-1.1-0.3-1.5c-0.1-0.4-0.4-0.7-0.7-0.8c-0.3-0.2-0.7-0.1-1.3,0.1l-1.5,0.5L173.7,213.4L173.7,213.4z"/>
					<path class="st2" d="M183,196.8l4.7-1.6c3.4-1.1,5.1,1.1,5.1,6.7c0,1.7-0.2,3.1-0.6,4.5s-1,2.5-2,3.5l3.1,12l-3.1,1l-2.7-11.3
						l-1.7,0.6v12.2l-2.9,1L183,196.8L183,196.8z M185.9,208.6l1.7-0.5c0.5-0.2,0.9-0.4,1.2-0.7s0.5-0.7,0.7-1.1
						c0.2-0.4,0.3-0.9,0.3-1.5c0.1-0.6,0.1-1.2,0.1-1.9s0-1.3-0.1-1.9c-0.1-0.5-0.2-1-0.4-1.3s-0.4-0.5-0.8-0.6
						c-0.3-0.1-0.8,0-1.3,0.1l-1.5,0.5v8.9H185.9z"/>
					<path class="st2" d="M195.5,199.3c0-1.1,0.1-2.2,0.4-3.2c0.3-1,0.7-1.8,1.1-2.6c0.5-0.7,1-1.3,1.6-1.8s1.2-0.8,1.8-1
						s1.2-0.2,1.8-0.1c0.6,0.1,1.1,0.4,1.6,0.8c0.5,0.4,0.8,1,1.1,1.8c0.3,0.8,0.4,1.8,0.4,2.9v15.1c0,1.2-0.1,2.2-0.4,3.2
						s-0.7,1.8-1.1,2.5c-0.5,0.7-1,1.3-1.6,1.8s-1.2,0.8-1.8,1s-1.2,0.2-1.8,0.1c-0.6-0.1-1.1-0.4-1.6-0.8c-0.5-0.4-0.8-1-1.1-1.8
						s-0.4-1.8-0.4-2.9V199.3z M198.4,213.4c0,1,0.2,1.7,0.6,2c0.4,0.3,0.9,0.4,1.4,0.2s1-0.6,1.4-1.2c0.4-0.6,0.6-1.4,0.6-2.4
						v-15.1c0-1-0.2-1.7-0.6-2c-0.4-0.3-0.9-0.4-1.4-0.2s-1,0.6-1.4,1.2c-0.4,0.6-0.6,1.4-0.6,2.4V213.4z"/>
					<path class="st2" d="M217.7,207.4c0,0.9-0.1,1.8-0.4,2.6c-0.2,0.9-0.6,1.7-1,2.4s-0.9,1.4-1.5,1.9s-1.2,0.9-1.8,1.1
						c-0.6,0.2-1.1,0.3-1.7,0.2s-1.1-0.2-1.5-0.6c-0.5-0.4-0.8-0.9-1.1-1.7c-0.3-0.8-0.4-1.8-0.4-3.1v-15.7c0-0.9,0.1-1.8,0.3-2.7
						c0.2-0.9,0.6-1.7,1-2.4s0.9-1.4,1.5-1.9s1.2-0.9,1.9-1.1c0.7-0.2,1.3-0.3,1.9-0.1c0.6,0.1,1.1,0.4,1.5,0.9s0.7,1.1,1,1.8
						c0.2,0.8,0.4,1.6,0.4,2.6v1.6l-2.9,1V193c0-0.8-0.2-1.4-0.5-1.9s-0.8-0.6-1.3-0.4c-0.7,0.2-1.2,0.7-1.4,1.4
						c-0.2,0.7-0.4,1.5-0.4,2.5v14.6c0,0.8,0.1,1.5,0.4,2s0.7,0.6,1.4,0.4c0.2-0.1,0.4-0.2,0.6-0.3s0.4-0.4,0.6-0.7s0.3-0.6,0.4-1
						s0.2-0.9,0.2-1.5v-1.4l2.9-1v1.7H217.7z"/>
					<path class="st2" d="M220.6,184.2l8.7-2.9v3.9l-5.8,1.9v8.4l5-1.7v3.9l-5,1.7v8.4l5.8-1.9v4.1l-8.7,2.9V184.2z"/>
					<path class="st2" d="M241.2,185.6l-2.9,1v-0.9c0-0.9-0.2-1.7-0.5-2.3s-0.8-0.7-1.6-0.5c-0.4,0.1-0.7,0.3-1,0.6s-0.5,0.6-0.6,1
						s-0.2,0.8-0.3,1.3c-0.1,0.5-0.1,0.9-0.1,1.4c0,0.6,0,1,0,1.4s0.1,0.7,0.2,0.9s0.3,0.4,0.5,0.6c0.2,0.1,0.5,0.3,0.9,0.3l2.2,0.5
						c0.6,0.1,1.2,0.4,1.6,0.7s0.7,0.8,0.9,1.3c0.2,0.6,0.4,1.2,0.4,2c0.1,0.8,0.1,1.7,0.1,2.7c0,1.2-0.1,2.3-0.3,3.4
						c-0.2,1.1-0.5,2.1-0.8,2.9c-0.4,0.9-0.9,1.6-1.6,2.3c-0.6,0.6-1.4,1.1-2.4,1.4c-0.7,0.2-1.4,0.3-2,0.1
						c-0.6-0.1-1.1-0.4-1.6-0.9c-0.4-0.5-0.8-1.1-1-1.8c-0.3-0.7-0.4-1.6-0.4-2.6v-1.5l2.9-1v1.3c0,0.8,0.2,1.4,0.5,1.9
						s0.8,0.6,1.6,0.4c0.5-0.2,0.9-0.4,1.2-0.7c0.3-0.3,0.5-0.6,0.6-1.1s0.2-0.9,0.3-1.4c0-0.5,0.1-1.1,0.1-1.8s0-1.4-0.1-1.8
						c0-0.5-0.1-0.8-0.2-1.1s-0.3-0.4-0.5-0.6c-0.2-0.1-0.5-0.2-0.9-0.3l-2.1-0.5c-1.3-0.3-2.1-1-2.5-2s-0.6-2.5-0.6-4.3
						c0-1.1,0.1-2.1,0.3-3.2c0.2-1,0.5-2,0.9-2.8s0.9-1.6,1.6-2.2c0.6-0.6,1.4-1.1,2.2-1.4c0.7-0.2,1.4-0.3,2-0.1s1.1,0.5,1.5,1
						s0.8,1.1,1,1.7c0.2,0.7,0.3,1.4,0.3,2.2v2.5H241.2z"/>
					<path class="st2" d="M253.3,181.6l-2.9,1v-0.9c0-0.9-0.2-1.7-0.5-2.3s-0.8-0.7-1.6-0.5c-0.4,0.1-0.7,0.3-1,0.6s-0.5,0.6-0.6,1
						s-0.2,0.8-0.3,1.3c-0.1,0.5-0.1,0.9-0.1,1.4c0,0.6,0,1,0,1.4s0.1,0.7,0.2,0.9s0.3,0.4,0.5,0.6s0.5,0.3,0.9,0.3l2.2,0.5
						c0.6,0.1,1.2,0.4,1.6,0.7s0.7,0.8,0.9,1.3c0.2,0.6,0.4,1.2,0.4,2c0.1,0.8,0.1,1.7,0.1,2.8c0,1.2-0.1,2.3-0.3,3.4
						c-0.2,1.1-0.5,2.1-0.8,2.9c-0.4,0.9-0.9,1.6-1.6,2.3c-0.6,0.6-1.4,1.1-2.4,1.4c-0.7,0.2-1.4,0.3-2,0.1
						c-0.6-0.1-1.1-0.4-1.6-0.9c-0.4-0.5-0.8-1.1-1-1.8c-0.3-0.7-0.4-1.6-0.4-2.6V197l2.9-1v1.3c0,0.7,0.2,1.4,0.5,1.9
						s0.8,0.6,1.6,0.4c0.5-0.2,0.9-0.4,1.2-0.7s0.5-0.6,0.6-1s0.2-0.9,0.3-1.4c0-0.5,0.1-1.1,0.1-1.8s0-1.4-0.1-1.8
						c0-0.5-0.1-0.8-0.2-1.1s-0.3-0.4-0.5-0.6c-0.2-0.1-0.5-0.2-0.9-0.3l-2.1-0.5c-1.3-0.3-2.1-1-2.5-2s-0.6-2.5-0.6-4.3
						c0-1.1,0.1-2.1,0.3-3.2c0.2-1,0.5-2,0.9-2.8s0.9-1.6,1.6-2.2s1.4-1.1,2.2-1.4c0.7-0.2,1.4-0.3,2-0.1s1.1,0.5,1.5,1
						s0.8,1.1,1,1.7c0.2,0.7,0.3,1.4,0.3,2.2v2.3H253.3z"/>
					<path class="st2" d="M256.1,172.4l2.9-1V200l-2.9,1V172.4z"/>
					<path class="st2" d="M262.3,170.4l2.8-0.9l4.4,15.7h0.1V168l2.9-1v28.6l-2.7,0.9l-4.5-15.7h-0.1V198l-2.9,1L262.3,170.4
						L262.3,170.4z"/>
					<path class="st2" d="M275.5,172.7c0-1.1,0.1-2.2,0.4-3.2s0.7-1.8,1.1-2.6c0.5-0.7,1-1.3,1.6-1.8s1.2-0.8,1.8-1
						c0.6-0.2,1.2-0.2,1.8-0.1c0.6,0.1,1.1,0.4,1.6,0.8c0.5,0.4,0.8,1,1.1,1.8c0.3,0.8,0.4,1.8,0.4,2.9v1.4l-2.9,1v-1.4
						c0-1-0.2-1.7-0.6-2s-0.9-0.4-1.4-0.2s-1,0.6-1.4,1.2c-0.4,0.6-0.6,1.4-0.6,2.4V187c0,1,0.2,1.7,0.6,2s0.9,0.4,1.4,0.2
						s1-0.6,1.4-1.2c0.4-0.6,0.6-1.4,0.6-2.4v-5.4l-2.3,0.8v-3.6l5.2-1.7v9c0,1.2-0.1,2.2-0.4,3.2s-0.7,1.8-1.1,2.5
						c-0.5,0.7-1,1.3-1.6,1.8s-1.2,0.8-1.8,1s-1.2,0.2-1.8,0.1s-1.1-0.4-1.6-0.8c-0.5-0.4-0.8-1-1.1-1.8c-0.3-0.8-0.4-1.7-0.4-2.9
						L275.5,172.7L275.5,172.7z"/>
					<path class="st2" d="M294.4,159.7l2.9-1v28.6l-2.9,1V159.7z"/>
					<path class="st2" d="M300.6,157.6l2.8-0.9l4.4,15.7h0.1v-17.2l2.9-1v28.6l-2.7,0.9l-4.5-15.7h-0.1v17.2l-2.9,1L300.6,157.6
						L300.6,157.6z"/>
					<path class="st2" d="M323.4,158.3l-2.9,1v-0.9c0-0.9-0.2-1.7-0.5-2.3s-0.8-0.7-1.6-0.5c-0.4,0.1-0.7,0.3-1,0.6s-0.5,0.6-0.6,1
						s-0.2,0.8-0.3,1.3c-0.1,0.5-0.1,0.9-0.1,1.4c0,0.6,0,1,0,1.4s0.1,0.7,0.2,0.9s0.3,0.4,0.5,0.6s0.5,0.3,0.9,0.3l2.2,0.5
						c0.6,0.1,1.2,0.4,1.6,0.7s0.7,0.8,0.9,1.3c0.2,0.6,0.4,1.2,0.4,2c0.1,0.8,0.1,1.7,0.1,2.7c0,1.2-0.1,2.3-0.3,3.4
						c-0.2,1.1-0.5,2.1-0.8,2.9c-0.4,0.9-0.9,1.6-1.6,2.3c-0.6,0.6-1.4,1.1-2.4,1.4c-0.7,0.2-1.4,0.3-2,0.1s-1.1-0.4-1.6-0.9
						c-0.4-0.5-0.8-1.1-1-1.8c-0.3-0.7-0.4-1.6-0.4-2.6v-1.5l2.9-1v1.3c0,0.7,0.2,1.4,0.5,1.9s0.8,0.6,1.6,0.4
						c0.5-0.2,0.9-0.4,1.2-0.7c0.3-0.3,0.5-0.6,0.6-1.1c0.1-0.4,0.2-0.9,0.3-1.4c0-0.5,0.1-1.1,0.1-1.8s0-1.4-0.1-1.8
						c0-0.5-0.1-0.8-0.2-1.1s-0.3-0.4-0.5-0.6c-0.2-0.1-0.5-0.2-0.9-0.3l-2.1-0.5c-1.3-0.3-2.1-1-2.5-2s-0.6-2.5-0.6-4.3
						c0-1.1,0.1-2.1,0.3-3.2c0.2-1,0.5-2,0.9-2.8s0.9-1.6,1.6-2.2s1.4-1.1,2.2-1.4c0.7-0.2,1.4-0.3,2-0.1s1.1,0.5,1.5,1
						s0.8,1.1,1,1.7c0.2,0.7,0.3,1.4,0.3,2.2v2.5H323.4z"/>
					<path class="st2" d="M326.2,149.1l2.9-1v28.6l-2.9,1V149.1z"/>
					<path class="st2" d="M332.5,147l4.3-1.4c1.7-0.6,2.9-0.3,3.8,0.7s1.3,2.7,1.3,5v13.4c0,2.7-0.5,4.8-1.4,6.4
						c-0.9,1.6-2.3,2.7-4,3.2l-4.1,1.3V147H332.5z M335.4,170.8l1.3-0.4c0.8-0.3,1.4-0.8,1.7-1.4c0.3-0.7,0.5-1.6,0.5-2.9v-13.8
						c0-1.1-0.2-1.9-0.5-2.4s-0.9-0.6-1.8-0.3l-1.3,0.4L335.4,170.8L335.4,170.8z"/>
					<path class="st2" d="M345.2,142.8l8.7-2.9v3.9l-5.8,1.9v8.4l5-1.7v3.9l-5,1.7v8.4l5.8-1.9v4.1l-8.7,2.9V142.8z"/>
				</g>
			</g>
		</g>
	</g>
</g>
<g id="Layer_2">
	<rect x="514.9" y="46.7" class="st0" width="82.5" height="29.7"/>
	<rect x="543.4" y="33" class="st0" width="54" height="11.3"/>
	<rect x="453.2" y="60.9" class="st0" width="42.7" height="13.7"/>
	<rect x="445.5" y="75.2" class="st0" width="40.4" height="51.7"/>
	<rect x="460.9" y="131.6" class="st0" width="24.3" height="8.3"/>
	<rect x="433.6" y="132.2" class="st0" width="10.1" height="10.1"/>
	<rect x="405.7" y="160.6" class="st0" width="24.9" height="8.9"/>
	<rect x="361.2" y="175.5" class="st0" width="12.5" height="7.7"/>
	<rect x="317.8" y="187.4" class="st0" width="26.7" height="12.5"/>
	<rect x="333.3" y="287.1" class="st0" width="26.1" height="7.1"/>
	<rect x="306" y="300.8" class="st0" width="22.6" height="7.1"/>
	<rect x="206.2" y="315" class="st0" width="37.4" height="9.5"/>
	<rect x="457.9" y="369.6" class="st0" width="25.5" height="10.1"/>
	<rect x="503.1" y="370.8" class="st0" width="22.6" height="7.7"/>
	<rect x="417.6" y="384.5" class="st0" width="10.7" height="10.7"/>
	<rect x="679.4" y="255.6" class="st0" width="44.5" height="23.2"/>
	<rect x="720.4" y="242.6" class="st0" width="31.5" height="25.5"/>
	<rect x="747.1" y="227.7" class="st0" width="32.7" height="28.5"/>
	<rect x="767.3" y="214.1" class="st0" width="39.8" height="37.4"/>
	<rect x="803.5" y="189.1" class="st0" width="44.5" height="35.6"/>
	<rect x="824.3" y="160.6" class="st0" width="35.6" height="41.6"/>
	<rect x="816" y="146.4" class="st0" width="17.2" height="11.3"/>
	<rect x="770.2" y="119.1" class="st0" width="24.9" height="13.1"/>
	<rect x="783.9" y="132.2" class="st0" width="23.2" height="14.8"/>
	<rect x="742.9" y="104.8" class="st0" width="20.2" height="13.1"/>
	<rect x="712.1" y="88.2" class="st0" width="24.9" height="15.4"/>
	<rect x="658.6" y="89.4" class="st0" width="56.4" height="18.4"/>
	<rect x="599.3" y="103.7" class="st0" width="33.2" height="15.4"/>
	<rect x="569" y="118.5" class="st0" width="26.1" height="16"/>
	<rect x="526.2" y="117.9" class="st0" width="19" height="13.7"/>
	<rect x="500.7" y="124.4" class="st0" width="19" height="17.8"/>
	<rect x="488.2" y="112" class="st0" width="17.2" height="16"/>
	<rect x="564.2" y="66.8" class="st0" width="17.8" height="16.6"/>
	<rect x="801.7" y="228.9" class="st0" width="18.4" height="12.5"/>
	<rect x="904.4" y="173.1" class="st0" width="13.7" height="10.1"/>
	<rect x="881.3" y="202.2" class="st0" width="11.3" height="8.9"/>
	<rect x="820.1" y="301.4" class="st0" width="13.1" height="8.3"/>
	<rect x="780.3" y="317.4" class="st0" width="14.2" height="7.7"/>
	<rect x="739.4" y="328.1" class="st0" width="24.9" height="9.5"/>
	<rect x="643.8" y="292.5" class="st0" width="35" height="16.6"/>
	<rect x="604" y="310.9" class="st0" width="19" height="13.1"/>
	<rect x="566" y="325.1" class="st0" width="18.4" height="13.7"/>
	<rect x="452.6" y="269.3" class="st0" width="83.7" height="26.1"/>
	<rect x="474.6" y="283" class="st0" width="71.2" height="25.5"/>
	<rect x="498.9" y="303.1" class="st0" width="51.1" height="33.8"/>
	<rect x="401.5" y="281.2" class="st0" width="60" height="16"/>
	<rect x="404.5" y="257.4" class="st0" width="21.4" height="8.9"/>
	<rect x="444.9" y="227.1" class="st0" width="33.8" height="19.6"/>
	<rect x="528" y="337" class="st0" width="29.1" height="13.7"/>
	<rect x="442.5" y="299.6" class="st0" width="12.5" height="10.1"/>
	<rect x="415.8" y="313.8" class="st0" width="13.1" height="10.1"/>
	<rect x="445.5" y="326.9" class="st0" width="10.7" height="8.9"/>
	<rect x="474" y="308.5" class="st0" width="36.8" height="16"/>
	<rect x="486.4" y="340.5" class="st0" width="11.9" height="11.9"/>
	<rect x="415.2" y="342.9" class="st0" width="14.8" height="10.1"/>
	<rect x="362.4" y="312.6" class="st0" width="10.7" height="10.7"/>
	<rect x="376" y="343.5" class="st0" width="8.9" height="9.5"/>
	<rect x="218.7" y="285.9" class="st0" width="14.2" height="10.7"/>
	<rect x="485.3" y="370.2" class="st0" width="16.6" height="9.5"/>
	<rect x="433" y="356.6" class="st0" width="8.3" height="10.1"/>
	<rect x="433.6" y="326.9" class="st0" width="11.9" height="10.7"/>
	<rect x="459.7" y="315" class="st0" width="10.1" height="8.3"/>
	<rect x="474" y="327.5" class="st0" width="9.5" height="10.1"/>
	<rect x="332.7" y="315" class="st0" width="10.1" height="9.5"/>
	<rect x="349.3" y="342.9" class="st0" width="10.1" height="9.5"/>
	<rect x="303.6" y="356" class="st0" width="11.9" height="9.5"/>
	<rect x="330.9" y="383.9" class="st0" width="14.2" height="9.5"/>
	<rect x="677" y="280.6" class="st0" width="20.2" height="19.6"/>
	<rect x="738.8" y="285.3" class="st0" width="11.3" height="8.9"/>
	<rect x="823.1" y="245" class="st0" width="10.1" height="8.9"/>
	<rect x="710.9" y="315.6" class="st0" width="11.3" height="10.7"/>
	<rect x="619.4" y="312" class="st0" width="19.6" height="11.9"/>
	<rect x="626.6" y="340" class="st0" width="12.5" height="13.1"/>
	<rect x="598.1" y="357.2" class="st0" width="12.5" height="10.1"/>
	<rect x="571.4" y="357.2" class="st0" width="12.5" height="11.9"/>
	<rect x="602.2" y="385.1" class="st0" width="8.9" height="8.9"/>
	<rect x="866.4" y="201.6" class="st0" width="11.3" height="12.5"/>
	<rect x="800.5" y="131.6" class="st0" width="19.6" height="12.5"/>
	<rect x="825.5" y="118.5" class="st0" width="7.7" height="8.3"/>
	<rect x="794.6" y="106" class="st0" width="10.1" height="7.7"/>
	<rect x="766.1" y="88.8" class="st0" width="11.9" height="10.7"/>
	<rect x="739.4" y="76.3" class="st0" width="10.1" height="8.3"/>
	<rect x="710.3" y="63.3" class="st0" width="12.5" height="7.7"/>
	<rect x="683.6" y="75.7" class="st0" width="11.9" height="10.7"/>
	<rect x="864.6" y="160.1" class="st0" width="11.9" height="10.7"/>
	<rect x="880.7" y="174.3" class="st0" width="9.5" height="9.5"/>
	<rect x="833.2" y="145.8" class="st0" width="15.4" height="11.9"/>
	<rect x="769.1" y="103.7" class="st0" width="8.3" height="11.3"/>
	<rect x="851.6" y="104.2" class="st0" width="10.7" height="8.9"/>
	<rect x="751.8" y="259.2" class="st0" width="10.7" height="8.9"/>
	<rect x="796.4" y="272.9" class="st0" width="8.9" height="8.3"/>
	<rect x="821.9" y="273.5" class="st0" width="10.7" height="8.3"/>
	<rect x="683" y="342.3" class="st0" width="10.7" height="8.9"/>
	<rect x="654.5" y="328.1" class="st0" width="11.9" height="11.3"/>
	<rect x="640.8" y="313.8" class="st0" width="13.7" height="11.9"/>
	<rect x="488.2" y="189" class="st0" width="12.9" height="29.4"/>
	<rect x="503.1" y="161.5" class="st0" width="14.5" height="25.8"/>
	<rect x="474.3" y="161.8" class="st0" width="9.7" height="8.1"/>
	<rect x="472.7" y="217.1" class="st0" width="14.9" height="12.9"/>
	<rect x="444.9" y="202.2" class="st0" width="10.3" height="8.7"/>
	<rect x="475.3" y="200.6" class="st0" width="14.5" height="14.5"/>
	<rect x="445.9" y="175.4" class="st0" width="10.7" height="7.8"/>
	<rect x="417.8" y="216.4" class="st0" width="9.4" height="9"/>
	<rect x="405.5" y="246.1" class="st0" width="25.2" height="11.9"/>
	<rect x="397.4" y="269.7" class="st0" width="25.5" height="15.2"/>
	<rect x="461.7" y="215.5" class="st0" width="14.5" height="16.1"/>
	<rect x="503.1" y="139.6" class="st0" width="18.1" height="14.5"/>
	<rect x="485.2" y="146" class="st0" width="14.8" height="42.6"/>
	<rect x="472.1" y="186.3" class="st0" width="11.4" height="11.4"/>
	<rect x="426" y="313.7" class="st0" width="31.3" height="8.5"/>
	<rect x="403.8" y="297.8" class="st0" width="25" height="11.4"/>
	<rect x="447.6" y="341" class="st0" width="25" height="10.8"/>
	<rect x="445.4" y="188.6" class="st0" width="24.5" height="10.8"/>
	<rect x="460.1" y="146" class="st0" width="10.2" height="10.8"/>
	<rect x="500.5" y="46.4" class="st0" width="18.2" height="15.9"/>
	<rect x="538.6" y="88" class="st0" width="29.6" height="11.9"/>
	<rect x="581.8" y="324.5" class="st0" width="28.4" height="11.4"/>
	<rect x="515.3" y="339.9" class="st0" width="19.3" height="11.9"/>
	<rect x="279.3" y="397.3" class="st0" width="9.7" height="9.7"/>
	<rect x="389.6" y="356.4" class="st0" width="9.1" height="8"/>
	<rect x="375.4" y="286.4" class="st0" width="11.4" height="8"/>
	<rect x="387.3" y="300.6" class="st0" width="14.2" height="10.2"/>
	<rect x="404.4" y="327.4" class="st0" width="11.4" height="10.8"/>
	<rect x="431.1" y="229.6" class="st0" width="21" height="20.5"/>
	<rect x="432.3" y="218.7" class="st0" width="10.8" height="6.8"/>
	<rect x="432.3" y="186.3" class="st0" width="10.8" height="10.2"/>
	<rect x="388.5" y="202.8" class="st0" width="10.2" height="9.1"/>
	<g>
		<path class="st3" d="M545.8,248.9c3.4-1.1,5.8-5,6-10.6c0.2-8.6-4.7-17.9-11-21c-2.4-1.1-4.6-1.2-6.5-0.4l23.6-7.9
			c1.9-0.8,4.1-0.7,6.5,0.4c6.3,3,11.2,12.4,11,21c-0.2,5.7-2.5,9.5-6,10.6L545.8,248.9z"/>
		<path class="st4" d="M437.1,289.9l111.3-37.1l10.6-3.5c4.3-1.4,7.4-6.3,7.6-13.5c0.3-10.8-5.9-22.7-13.9-26.6
			c-3-1.4-5.8-1.5-8.2-0.5l-10.7,3.5l-110.2,36.7"/>
		<path class="st5" d="M444.1,276.6c-0.3,10.8-7.1,16.5-15.1,12.7c-8-3.8-14.2-15.7-13.9-26.6c0.3-10.8,7.1-16.5,15.1-12.7
			C438.1,253.8,444.4,265.7,444.1,276.6z"/>
		<path class="st4" d="M438.2,277.1c-0.3,9.1-5.9,13.9-12.7,10.7c-6.7-3.2-12-13.2-11.7-22.4c0.3-9.1,5.9-13.9,12.7-10.7
			C433.2,258,438.5,268,438.2,277.1z"/>
	</g>
	<line class="st6" x1="441.4" y1="312.7" x2="818.8" y2="186.9"/>
	<line class="st6" x1="472.8" y1="328.3" x2="850.2" y2="202.5"/>
	<line class="st7" x1="392.2" y1="278.2" x2="288.9" y2="312.6"/>
	<polygon class="st8" points="534.3,215.1 548.4,263.4 550,302.5 618.1,294.5 850.2,202.5 850.2,173.4 782.4,123.7 719.5,92.3 
		524,157.7 	"/>
	<line class="st7" x1="951.6" y1="166.2" x2="904.6" y2="181.9"/>
	<g>
		<line class="st9" x1="785.3" y1="183.5" x2="805" y2="192.6"/>
		<line class="st9" x1="805" y1="234.3" x2="785.3" y2="225.2"/>
		<line class="st10" x1="805" y1="192.6" x2="625.7" y2="253.2"/>
		<line class="st9" x1="785.3" y1="225.2" x2="785.3" y2="199.2"/>
		<line class="st9" x1="725" y1="229" x2="780.8" y2="210.1"/>
		<line class="st9" x1="725" y1="233.2" x2="780.8" y2="214.3"/>
		<line class="st9" x1="725" y1="237.6" x2="780.8" y2="218.7"/>
	</g>
	<polyline class="st11" points="593,305.9 550,302.5 487.2,271.1 	"/>
	<line class="st6" x1="441.4" y1="211.3" x2="818.8" y2="85.5"/>
	<line class="st7" x1="617" y1="178.8" x2="782.4" y2="123.7"/>
	<line class="st12" x1="712.1" y1="121" x2="750.9" y2="108"/>
	<g>
		<g>
			<path class="st13" d="M619.6,238.8L619.6,238.8c0.1,0,0.1-0.1,0.2-0.2c0.1-0.1,0.2-0.1,0.4-0.2c0.3-0.1,0.5-0.1,0.7,0
				c0.2,0.1,0.4,0.3,0.5,0.5c0.1,0.1,0.1,0.3,0.2,0.4s0.1,0.3,0.1,0.5c0,0.2,0,0.5,0,0.9c0,0.4,0,0.8,0,1.4c0,0.5,0,0.9,0,1.2
				c0,0.3,0,0.6,0,0.8c0,0.2-0.1,0.4-0.1,0.6s-0.1,0.3-0.2,0.5c-0.2,0.5-0.4,0.9-0.8,1.3c-0.3,0.3-0.7,0.6-1.1,0.7
				c-0.4,0.1-0.8,0.1-1.1,0c-0.3-0.1-0.6-0.4-0.8-0.8c-0.1-0.1-0.1-0.3-0.2-0.4c0-0.1-0.1-0.3-0.1-0.5c0-0.2,0-0.4,0-0.7
				c0-0.3,0-0.7,0-1.1c0-0.4,0-0.8,0-1.1c0-0.3,0-0.5,0-0.8c0-0.2,0-0.4,0.1-0.6c0-0.2,0.1-0.4,0.1-0.6l1.9-7.8l1.6-0.5L619.6,238.8
				z M620.3,241.2c0-0.3-0.1-0.5-0.2-0.7c-0.1-0.1-0.3-0.2-0.5-0.1s-0.4,0.2-0.5,0.4c-0.1,0.2-0.2,0.5-0.2,0.8v2.6
				c0,0.3,0.1,0.5,0.2,0.7c0.1,0.1,0.3,0.2,0.5,0.1c0.2-0.1,0.4-0.2,0.5-0.4s0.2-0.5,0.2-0.8V241.2z"/>
			<path class="st13" d="M622.9,231.7l2.2-0.7c0.8-0.3,1.5-0.2,1.9,0.3s0.7,1.3,0.7,2.5v6.7c0,1.3-0.2,2.4-0.7,3.2
				c-0.5,0.8-1.1,1.3-2,1.6l-2,0.7V231.7z M624.4,243.5l0.7-0.2c0.4-0.1,0.7-0.4,0.9-0.7s0.3-0.8,0.3-1.4v-6.9c0-0.6-0.1-1-0.2-1.2
				c-0.2-0.3-0.5-0.3-0.9-0.2l-0.7,0.2V243.5z"/>
			<path class="st13" d="M629,229.6l2.1-0.7c0.5-0.2,0.9-0.2,1.2-0.1c0.3,0.1,0.6,0.3,0.8,0.5c0.2,0.3,0.4,0.6,0.4,1
				s0.1,0.8,0.1,1.3v0.5c0,0.4,0,0.7-0.1,1c0,0.3-0.1,0.5-0.2,0.8c-0.1,0.2-0.2,0.4-0.3,0.6s-0.3,0.4-0.4,0.6
				c0.3,0.1,0.6,0.4,0.8,0.8c0.2,0.4,0.2,1,0.2,1.7v0.8c0,1.3-0.2,2.3-0.6,3.1c-0.4,0.8-1.1,1.4-2.1,1.7l-2,0.7V229.6z M630.5,235
				l0.7-0.2c0.5-0.2,0.8-0.4,1-0.8c0.2-0.4,0.2-0.9,0.2-1.6c0-0.6-0.1-1.1-0.3-1.3c-0.2-0.3-0.5-0.3-1-0.1l-0.6,0.2V235z
				 M630.5,241.4l0.6-0.2c0.3-0.1,0.5-0.2,0.7-0.4s0.3-0.4,0.4-0.6c0.1-0.2,0.1-0.5,0.2-0.8c0-0.3,0-0.6,0-1c0-0.4,0-0.7,0-0.9
				c0-0.3-0.1-0.5-0.2-0.6s-0.2-0.2-0.4-0.3c-0.2,0-0.4,0-0.6,0.1l-0.6,0.2V241.4z"/>
		</g>
	</g>
	<line class="st7" x1="503.8" y1="362.3" x2="400.6" y2="396.7"/>
	<line class="st7" x1="476" y1="124.5" x2="421.8" y2="142.6"/>
	<line class="st7" x1="545.9" y1="362.5" x2="491.8" y2="380.5"/>
	<line class="st7" x1="923.9" y1="194.5" x2="869.8" y2="212.5"/>
	<line class="st7" x1="265.9" y1="306.5" x2="211.8" y2="324.5"/>
	<line class="st7" x1="447.9" y1="152.5" x2="330.9" y2="191.5"/>
	<line class="st7" x1="867.9" y1="293.5" x2="750.9" y2="332.5"/>
	<polyline class="st14" points="624.5,154.7 611.1,181 586.7,189.1 595.6,164.3 	"/>
	<polyline class="st5" points="517.6,101.2 548.4,149.5 524,157.7 488.8,110.7 	"/>
	<g>
		<path class="st5" d="M560.3,82.6c3.4-1.1,5.8-5,6-10.6c0.2-8.6-4.7-17.9-11-21c-2.4-1.1-4.6-1.2-6.5-0.4l23.6-7.9
			c1.9-0.8,4.1-0.7,6.5,0.4c6.3,3,11.2,12.4,11,21c-0.2,5.7-2.5,9.5-6,10.6L560.3,82.6z"/>
		<path class="st4" d="M474.3,115.7l90.4-30.1l9.2-3.1c4.3-1.4,7.4-6.3,7.6-13.5c0.3-10.8-5.9-22.7-13.9-26.6
			c-3-1.4-5.8-1.5-8.2-0.5l-7,2.3l-91.6,30.5"/>
		<path class="st5" d="M481.7,102.2c-0.3,10.8-7.1,16.5-15.1,12.7c-8-3.8-14.2-15.7-13.9-26.6c0.3-10.8,7.1-16.5,15.1-12.7
			C475.8,79.5,482,91.4,481.7,102.2z"/>
		<path class="st4" d="M475.7,102.3c-0.3,9.1-5.9,13.9-12.7,10.7c-6.7-3.2-12-13.2-11.7-22.4c0.3-9.1,5.9-13.9,12.7-10.7
			C470.7,83.2,476,93.2,475.7,102.3z"/>
		<path class="st15" d="M471.9,100.5c-0.2,6.2-4.1,9.5-8.7,7.3c-4.6-2.2-8.2-9.1-8-15.3c0.2-6.2,4.1-9.5,8.7-7.3
			C468.5,87.4,472.1,94.2,471.9,100.5z"/>
	</g>
	<line class="st16" x1="548.4" y1="149.5" x2="560.4" y2="155.5"/>
	<line class="st16" x1="592.9" y1="171.8" x2="584.9" y2="167.8"/>
	<polygon class="st4" points="550,256.2 487.2,224.8 523.9,157.7 586.7,189.1 	"/>
	<polyline class="st4" points="550,302.5 487.2,271.1 487.2,225.5 550,256.9 	"/>
	<line class="st6" x1="807.7" y1="52.1" x2="829.9" y2="118.7"/>
	<line class="st6" x1="818.8" y1="69.7" x2="818.8" y2="241.2"/>
	<line class="st12" x1="487.2" y1="225.5" x2="524" y2="157.7"/>
	<g>
		<path class="st5" d="M667,136.2c3.4-1.1,5.8-5,6-10.6c0.2-8.6-4.7-17.9-11-21c-2.4-1.1-4.6-1.2-6.5-0.4l23.6-7.9
			c1.9-0.8,4.1-0.7,6.5,0.4c6.3,3,11.2,12.4,11,21c-0.2,5.7-2.5,9.5-6,10.6L667,136.2z"/>
		<path class="st4" d="M581,169.2l90.4-30.1l9.2-3.1c4.3-1.4,7.4-6.3,7.6-13.5c0.3-10.8-5.9-22.7-13.9-26.6c-3-1.4-5.8-1.5-8.2-0.5
			l-7,2.3l-91.6,30.5"/>
		<path class="st5" d="M588.5,155.7c-0.3,10.8-7.1,16.5-15.1,12.7c-8-3.8-14.2-15.7-13.9-26.6c0.3-10.8,7.1-16.5,15.1-12.7
			C582.5,133,588.8,144.9,588.5,155.7z"/>
		<path class="st4" d="M582.5,155.8c-0.3,9.1-5.9,13.9-12.7,10.7c-6.7-3.2-12-13.2-11.7-22.4c0.3-9.1,5.9-13.9,12.7-10.7
			C577.5,136.7,582.7,146.7,582.5,155.8z"/>
		<path class="st15" d="M578.6,154c-0.2,6.2-4.1,9.5-8.7,7.3c-4.6-2.2-8.2-9.1-8-15.3c0.2-6.2,4.1-9.5,8.7-7.3
			C575.2,140.9,578.8,147.8,578.6,154z"/>
	</g>
	<polygon class="st17" points="540.5,281.7 491.1,257 493.9,250.6 543.3,275.3 	"/>
	<polygon class="st17" points="540.5,271.6 491.1,246.9 493.9,240.5 543.3,265.2 	"/>
	<polygon class="st17" points="567.1,191.2 520.9,168.1 529.1,165.2 575.3,188.3 	"/>
	<polygon class="st17" points="540.5,291.5 491.1,266.8 493.9,260.5 543.3,285.2 	"/>
	<line class="st14" x1="593" y1="305.9" x2="783.8" y2="228.8"/>
	<polyline class="st14" points="791.6,225.7 850.2,202.5 850.2,173.4 782.4,123.7 719.5,92.3 	"/>
	<line class="st18" x1="625.7" y1="130.9" x2="672.8" y2="115.2"/>
	<line class="st11" x1="694.8" y1="100.7" x2="720" y2="92.3"/>
	<line class="st11" x1="548.8" y1="149.5" x2="555.1" y2="147.4"/>
	<line class="st18" x1="570.3" y1="150" x2="577.6" y2="147.6"/>
	<line class="st18" x1="520.3" y1="75.9" x2="567.4" y2="60.2"/>
	<line class="st18" x1="463.6" y1="96.5" x2="470.8" y2="94.1"/>
	<polygon class="st19" points="657.8,220.4 808.9,170 808.9,169.9 808.9,164.4 770.1,136 770.2,135.9 657.8,199.2 	"/>
	<polyline class="st20" points="549.8,302.7 487,271.3 487,223.2 	"/>
	<line class="st21" x1="516.2" y1="193.5" x2="559.7" y2="215.3"/>
	<line class="st16" x1="599.8" y1="195.2" x2="563.1" y2="262.4"/>
	<line class="st21" x1="537.9" y1="204.5" x2="528.7" y2="221.4"/>
	<line class="st9" x1="593" y1="305.9" x2="805" y2="234.3"/>
	<g>
		<path class="st3" d="M652.5,302.4c3.4-1.1,5.8-5,6-10.6c0.2-8.6-4.7-17.9-11-21c-2.4-1.1-4.6-1.2-6.5-0.4l23.6-7.9
			c1.9-0.8,4.1-0.7,6.5,0.4c6.3,3,11.2,12.4,11,21c-0.2,5.7-2.5,9.5-6,10.6L652.5,302.4z"/>
		<path class="st4" d="M543.8,343.4l111.3-37.1l10.6-3.5c4.3-1.4,7.4-6.3,7.6-13.5c0.3-10.8-5.9-22.7-13.9-26.6
			c-3-1.4-5.8-1.5-8.2-0.5l-10.7,3.5l-110.2,36.7"/>
		<path class="st5" d="M550.8,330.1c-0.3,10.8-7.1,16.5-15.1,12.7c-8-3.8-14.2-15.7-13.9-26.6c0.3-10.8,7.1-16.5,15.1-12.7
			C544.9,307.3,551.1,319.2,550.8,330.1z"/>
		<path class="st4" d="M544.9,330.7c-0.3,9.1-5.9,13.9-12.7,10.7c-6.7-3.2-12-13.2-11.7-22.4c0.3-9.1,5.9-13.9,12.7-10.7
			C539.9,311.5,545.2,321.5,544.9,330.7z"/>
		<path class="st15" d="M541.2,328.9c-0.2,6.4-4.1,9.7-8.8,7.4c-4.7-2.2-8.3-9.2-8.2-15.6c0.2-6.4,4.1-9.7,8.8-7.4
			C537.8,315.6,541.4,322.5,541.2,328.9z"/>
	</g>
	<path class="st15" d="M434.5,275.4c-0.2,6.4-4.1,9.7-8.8,7.4c-4.7-2.2-8.3-9.2-8.2-15.6c0.2-6.4,4.1-9.7,8.8-7.4
		C431,262,434.7,269,434.5,275.4z"/>
	<line class="st18" x1="426" y1="271.3" x2="433.2" y2="268.9"/>
	<line class="st18" x1="532.7" y1="324.8" x2="539.9" y2="322.4"/>
	<polygon class="st22" points="600.1,261.6 631.8,298.5 646.4,293.7 623.9,253.7 	"/>
	<line class="st20" x1="673.7" y1="183.1" x2="673.7" y2="222.4"/>
	<line class="st20" x1="701.6" y1="162.3" x2="701.6" y2="214.2"/>
</g>
</svg>
