<!-- Generator: Adobe Illustrator 19.2.1, SVG Export Plug-In  -->
<svg version="1.1"
	 xmlns="http://www.w3.org/2000/svg" xmlns:xlink="http://www.w3.org/1999/xlink" xmlns:a="http://ns.adobe.com/AdobeSVGViewerExtensions/3.0/"
	 x="0px" y="0px" width="166.1px" height="79px" viewBox="0 0 166.1 79" style="enable-background:new 0 0 166.1 79;"
	 xml:space="preserve">
<style type="text/css">
	.st0{fill:#F1F1F1;stroke:#7629F4;stroke-width:1.248;stroke-linecap:round;stroke-linejoin:round;stroke-miterlimit:10;}
	.st1{fill:none;stroke:#7629F4;stroke-width:1.248;stroke-linecap:round;stroke-linejoin:round;stroke-miterlimit:10;}
	.st2{fill:#7629F4;}
	.st3{fill:#FFFFFF;stroke:#7629F4;stroke-width:1.25;stroke-miterlimit:10;}
	.st4{fill:#FFFFFF;stroke:#7629F4;stroke-width:1.25;stroke-linecap:round;stroke-linejoin:round;stroke-miterlimit:10;}
	.st5{fill:#F4F4F4;stroke:#7629F4;stroke-width:1.25;stroke-miterlimit:10;}
	.st6{fill:#FFFFFF;}
	.st7{fill:none;stroke:#7629F4;stroke-width:1.25;stroke-linecap:round;stroke-linejoin:round;stroke-miterlimit:10;}
	.st8{fill:none;stroke:#FFFFFF;stroke-width:1.248;stroke-linecap:round;stroke-linejoin:round;stroke-miterlimit:10;}
	.st9{fill:#FFFFFF;stroke:#7629F4;stroke-width:1.248;stroke-linecap:round;stroke-linejoin:round;stroke-miterlimit:10;}
</style>
<defs>
</defs>
<path class="st0" d="M38.4,78.4c0-5.5,4.5-10,10-10c5.5,0,10,4.5,10,10H38.4z"/>
<path class="st1" d="M44.5,18.9C23.8,18.5,1.9,23,0.7,29.4c-1.9,9.8,39.9,21.3,79.9,28.8c40.9,7.8,82.9,5.1,84.8-5.1
	c1.2-6.5-11.1-14.7-30.9-21.9"/>
<g>
	<path class="st2" d="M51.8,50c8.6,2.2,18.4,4.3,29.1,6.3c11.2,2.1,22.9,3.4,33.8,3.8c0.6-0.8,1.2-1.6,1.8-2.4
		c11.6-16.7,7.4-39.7-9.4-51.2C90.4-5,67.4-0.8,55.9,15.9C48.7,26.3,47.6,39,51.8,50z"/>
	<path class="st2" d="M80.5,58.3c-7.1-1.4-17.3-3.4-27.7-6c2.7,5.8,6.9,10.9,12.5,14.8c15.2,10.5,35.5,8,47.7-5.1
		C102.5,61.6,91.2,60.3,80.5,58.3z"/>
</g>
<g>
	<line class="st3" x1="113.5" y1="36.7" x2="125.4" y2="32.8"/>
	<polygon class="st4" points="99.1,29.8 124.8,21.2 124.8,13.1 99.1,20.3 	"/>
	<polygon class="st4" points="107.5,23.7 116.1,28 116.1,35 107.5,30.7 	"/>
	<path class="st5" d="M114.8,34c0-2.3-1.4-4.8-3-5.6c-1.7-0.8-3,0.3-3,2.6c0,2.3,1.4,4.8,3,5.6C113.5,37.4,114.8,36.2,114.8,34z"/>
	<path class="st2" d="M112.6,33c0-0.6-0.4-1.3-0.8-1.5c-0.5-0.2-0.8,0.1-0.8,0.7c0,0.6,0.4,1.3,0.8,1.5
		C112.3,33.9,112.6,33.6,112.6,33z"/>
	<g>
		<path class="st6" d="M116.1,28l8.3-2.8c1.3-0.4,3.6-1,5-1.2l6.5-1c1.4-0.2,1.5-0.9,0.2-1.5l-4-2c-1.3-0.6-3.4-1-4.8-0.8l-6.5,1
			c-1.4,0.2-3.6,0.7-5,1.2l-8.3,2.8"/>
		<path class="st7" d="M116.1,28l8.3-2.8c1.3-0.4,3.6-1,5-1.2l6.5-1c1.4-0.2,1.5-0.9,0.2-1.5l-4-2c-1.3-0.6-3.4-1-4.8-0.8l-6.5,1
			c-1.4,0.2-3.6,0.7-5,1.2l-8.3,2.8L116.1,28z"/>
	</g>
	<path class="st4" d="M119.8,23.2"/>
	<polygon class="st4" points="138.4,27.6 116.1,35 116.1,28 126.8,24.4 136.8,22.9 	"/>
	<polygon class="st4" points="118.7,39.6 144.4,31 144.4,22.9 118.7,30.1 	"/>
	<line class="st4" x1="126.2" y1="24.1" x2="118.3" y2="20.1"/>
</g>
<line class="st8" x1="104.4" y1="33.9" x2="81.2" y2="41.7"/>
<line class="st8" x1="90.7" y1="42.7" x2="74.5" y2="48.1"/>
<path class="st9" d="M165,78.4c0-10.9-8.8-19.7-19.7-19.7c-3.6,0-6.9,1-9.8,2.6c-5.3-7.5-14.1-12.3-23.9-12.3
	c-16.2,0-29.4,13.2-29.4,29.4H165z"/>
</svg>
