<!-- Generator: Adobe Illustrator 19.2.1, SVG Export Plug-In  -->
<svg version="1.1"
	 xmlns="http://www.w3.org/2000/svg" xmlns:xlink="http://www.w3.org/1999/xlink" xmlns:a="http://ns.adobe.com/AdobeSVGViewerExtensions/3.0/"
	 x="0px" y="0px" width="172.9px" height="96.9px" viewBox="0 0 172.9 96.9" style="enable-background:new 0 0 172.9 96.9;"
	 xml:space="preserve">
<style type="text/css">
	.st0{fill:#F1F1F1;stroke:#7629F4;stroke-width:1.248;stroke-linecap:round;stroke-linejoin:round;stroke-miterlimit:10;}
	.st1{fill:none;stroke:#7629F4;stroke-width:1.248;stroke-linecap:round;stroke-linejoin:round;stroke-miterlimit:10;}
	.st2{fill:#7629F4;}
	.st3{fill:#FFFFFF;stroke:#7629F4;stroke-width:1.248;stroke-linecap:round;stroke-linejoin:round;stroke-miterlimit:10;}
	.st4{fill:#FFFFFF;}
	.st5{clip-path:url(#SVGID_2_);}
	.st6{fill:#FFFFFF;stroke:#FFFFFF;stroke-width:4;stroke-linecap:round;stroke-linejoin:round;stroke-miterlimit:10;}
	.st7{clip-path:url(#SVGID_4_);}
</style>
<defs>
</defs>
<path class="st0" d="M19.1,96.3c0-5,4.1-9.1,9.1-9.1c5,0,9.1,4.1,9.1,9.1H19.1z"/>
<path class="st1" d="M31.4,54.5c-14.5-0.3-29.9,2.8-30.8,7.4c-1.3,6.9,28,14.9,56.1,20.3c28.8,5.5,58.3,3.6,59.6-3.6
	c0.9-4.6-7.8-10.4-21.7-15.4"/>
<g>
	<path class="st2" d="M36.6,76.3c6.1,1.5,12.9,3,20.5,4.5c7.9,1.5,16.1,2.4,23.8,2.7c0.4-0.5,0.8-1.1,1.2-1.6
		c8.1-11.8,5.2-27.9-6.6-36c-11.8-8.1-27.9-5.2-36,6.6C34.4,59.6,33.6,68.6,36.6,76.3z"/>
	<path class="st2" d="M56.7,82.2c-5-1-12.1-2.4-19.5-4.2c1.9,4,4.8,7.6,8.7,10.4c10.7,7.4,24.9,5.6,33.5-3.5
		C72.1,84.5,64.3,83.6,56.7,82.2z"/>
</g>
<path class="st3" d="M129.1,96.3c0-9.9-8-18-18-18c-3.2,0-6.3,0.9-8.9,2.4c-4.9-6.8-12.8-11.2-21.8-11.2c-14.8,0-26.8,12-26.8,26.8
	H129.1z"/>
<g>
	<path class="st4" d="M124.6,59.5c-4.3,0-7.9-3.5-7.9-7.9V11.8c0-4.3,3.5-7.9,7.9-7.9h39.8c4.3,0,7.9,3.5,7.9,7.9v39.8
		c0,4.3-3.5,7.9-7.9,7.9H124.6z"/>
	<path class="st2" d="M164.4,4.5c4,0,7.3,3.3,7.3,7.3v39.8c0,4-3.3,7.3-7.3,7.3h-39.8c-4,0-7.3-3.3-7.3-7.3V11.8
		c0-4,3.3-7.3,7.3-7.3H164.4 M164.4,3.3h-39.8c-4.7,0-8.5,3.8-8.5,8.5v39.8c0,4.7,3.8,8.5,8.5,8.5h39.8c4.7,0,8.5-3.8,8.5-8.5V11.8
		C172.9,7.1,169.1,3.3,164.4,3.3L164.4,3.3z"/>
</g>
<path class="st2" d="M172.9,48.3c0,4.7-3.8,8.5-8.5,8.5h-39.8c-4.7,0-8.5-3.8-8.5-8.5V8.5c0-4.7,3.8-8.5,8.5-8.5h39.8
	c4.7,0,8.5,3.8,8.5,8.5V48.3z"/>
<path class="st2" d="M78.2,38.1l2.5-19.4l5.1,5.1c1.8-1.6,13.7-9.6,23.5,0.2c0,0-9.3-1.3-17.1,6.2l5.4,5.4L78.2,38.1z"/>
<g>
	
		<ellipse transform="matrix(0.3448 -0.9387 0.9387 0.3448 68.0323 154.2555)" class="st4" cx="144.5" cy="28.4" rx="12.4" ry="12.4"/>
	<g>
		<defs>
			
				<ellipse id="SVGID_1_" transform="matrix(0.3448 -0.9387 0.9387 0.3448 68.032 154.2547)" cx="144.5" cy="28.4" rx="15.7" ry="15.7"/>
		</defs>
		<clipPath id="SVGID_2_">
			<use xlink:href="#SVGID_1_"  style="overflow:visible;"/>
		</clipPath>
		<g class="st5">
			
				<rect x="128.3" y="26.5" transform="matrix(0.3449 -0.9386 0.9386 0.3449 68.0153 154.2451)" class="st6" width="32.4" height="3.8"/>
			
				<rect x="142.6" y="12.2" transform="matrix(0.3447 -0.9387 0.9387 0.3447 68.0393 154.26)" class="st6" width="3.8" height="32.4"/>
			
				<rect x="128.3" y="26.5" transform="matrix(0.9076 -0.4199 0.4199 0.9076 1.4348 63.3057)" class="st6" width="32.4" height="3.8"/>
			<rect x="142.6" y="12.2" transform="matrix(0.9075 -0.42 0.42 0.9075 1.4366 63.3138)" class="st6" width="3.8" height="32.4"/>
		</g>
	</g>
	<ellipse transform="matrix(0.3448 -0.9387 0.9387 0.3448 68.0356 154.2569)" class="st2" cx="144.5" cy="28.4" rx="5.7" ry="5.7"/>
</g>
</svg>
