<!-- Generator: Adobe Illustrator 19.2.1, SVG Export Plug-In  -->
<svg version="1.1"
	 xmlns="http://www.w3.org/2000/svg" xmlns:xlink="http://www.w3.org/1999/xlink" xmlns:a="http://ns.adobe.com/AdobeSVGViewerExtensions/3.0/"
	 x="0px" y="0px" width="117.1px" height="51.7px" viewBox="0 0 117.1 51.7" style="enable-background:new 0 0 117.1 51.7;"
	 xml:space="preserve">
<style type="text/css">
	.st0{fill:none;stroke:#7629F4;stroke-width:1.248;stroke-linecap:round;stroke-linejoin:round;stroke-miterlimit:10;}
	.st1{fill:#7629F4;}
</style>
<defs>
</defs>
<path class="st0" d="M31.4,13.3C16.9,13,1.5,16.2,0.7,20.7c-1.3,6.9,28,14.9,56.1,20.3c28.8,5.5,58.3,3.6,59.6-3.6
	c0.9-4.6-7.8-10.4-21.7-15.4"/>
<g>
	<path class="st1" d="M36.6,35.1c6.1,1.5,12.9,3,20.5,4.5c7.9,1.5,16.1,2.4,23.8,2.7c0.4-0.5,0.8-1.1,1.2-1.6
		c8.1-11.8,5.2-27.9-6.6-36c-11.8-8.1-27.9-5.2-36,6.6C34.4,18.4,33.6,27.4,36.6,35.1z"/>
	<path class="st1" d="M56.7,41c-5-1-12.1-2.4-19.5-4.2c1.9,4,4.8,7.6,8.7,10.4c10.7,7.4,24.9,5.6,33.5-3.5
		C72.1,43.3,64.3,42.4,56.7,41z"/>
</g>
</svg>
