<!-- Generator: Adobe Illustrator 19.2.1, SVG Export Plug-In  -->
<svg version="1.1"
	 xmlns="http://www.w3.org/2000/svg" xmlns:xlink="http://www.w3.org/1999/xlink" xmlns:a="http://ns.adobe.com/AdobeSVGViewerExtensions/3.0/"
	 x="0px" y="0px" width="125px" height="125px" viewBox="0 0 125 125" style="enable-background:new 0 0 125 125;"
	 xml:space="preserve">
<style type="text/css">
	.st0{fill:#FFFFFF;}
	.st1{fill:none;stroke:#7629F4;stroke-width:1.248;stroke-linecap:round;stroke-linejoin:round;stroke-miterlimit:10;}
	.st2{fill:#7629F4;}
	.st3{fill:#F5F5F5;}
</style>
<defs>
</defs>
<g>
	<circle class="st0" cx="62.5" cy="62.5" r="62.5"/>
	<g>
		<line class="st1" x1="2.1" y1="68.8" x2="17" y2="76.3"/>
		<line class="st1" x1="8.1" y1="59.1" x2="17" y2="63.5"/>
		<line class="st1" x1="31.9" y1="42.5" x2="43.1" y2="48.1"/>
		<line class="st1" x1="56.2" y1="102.7" x2="86.2" y2="92.7"/>
		<polygon class="st1" points="91.6,31.9 91.6,19.2 43.1,35.3 43.1,48.1 		"/>
		<polygon class="st2" points="91.6,71 91.6,58.3 58.1,69.4 58.1,82.1 		"/>
		<polygon class="st2" points="51.4,83.9 51.4,71.1 23.6,80.3 23.6,93.1 		"/>
		<polygon class="st1" points="17,76.3 111,45 111,32.2 17,63.6 		"/>
		<path class="st2" d="M103.6,68.8L119.3,95l-31.5,10.5L103.6,68.8z"/>
		<path class="st3" d="M103.6,89.2l-1.9-8.8l3.9-1.3L103.6,89.2z"/>
		<path class="st3" d="M105.2,93.2c0-1.3-0.7-2.1-1.6-1.8c-0.9,0.3-1.6,1.6-1.6,2.8c0,1.3,0.7,2.1,1.6,1.8
			C104.5,95.8,105.2,94.5,105.2,93.2z"/>
		<line class="st1" x1="64.9" y1="84.9" x2="76.1" y2="96"/>
		<line class="st1" x1="45" y1="91.6" x2="56.2" y2="102.7"/>
	</g>
</g>
</svg>
