<?xml version="1.0" encoding="utf-8"?>
<!-- Generator: Adobe Illustrator 19.2.1, SVG Export Plug-In . SVG Version: 6.00 Build 0)  -->
<svg version="1.1" id="Layer_1" xmlns="http://www.w3.org/2000/svg" xmlns:xlink="http://www.w3.org/1999/xlink" x="0px" y="0px" viewBox="0 0 104 14" style="enable-background:new 0 0 104 14;" xml:space="preserve" width="104" height="14">
<style type="text/css">
	.st0{fill:#222222;}
</style>
<g>
	<g>
		<g>
			<path class="st0" d="M6.4,10.8c0,0.4-0.1,0.8-0.2,1.2c-0.2,0.4-0.4,0.7-0.7,1c-0.3,0.3-0.6,0.5-1,0.7c-0.4,0.2-0.8,0.3-1.2,0.3
				c-0.4,0-0.8-0.1-1.1-0.2c-0.4-0.1-0.7-0.3-1-0.5c-0.3-0.2-0.6-0.6-0.8-1C0.1,11.9,0,11.3,0,10.7V3.2c0-0.5,0.1-0.9,0.2-1.3
				c0.2-0.4,0.4-0.7,0.7-1c0.3-0.3,0.6-0.5,1-0.7C2.3,0.1,2.7,0,3.2,0c0.4,0,0.9,0.1,1.3,0.2c0.4,0.2,0.7,0.4,1,0.7
				C5.7,1.2,6,1.5,6.1,2c0.2,0.4,0.2,0.8,0.2,1.3V4h-2V3.4c0-0.4-0.1-0.7-0.3-1C3.8,2.1,3.5,2,3.2,2c-0.5,0-0.8,0.2-1,0.5
				C2,2.7,2,3.1,2,3.6v7c0,0.4,0.1,0.7,0.3,1C2.4,11.8,2.7,12,3.2,12c0.1,0,0.3,0,0.4-0.1c0.1,0,0.3-0.1,0.4-0.2
				c0.1-0.1,0.2-0.2,0.3-0.4c0.1-0.2,0.1-0.4,0.1-0.7V9.9h2V10.8z"/>
			<path class="st0" d="M9.5,0.1h2v11.7h3.9v2H9.5V0.1z"/>
			<path class="st0" d="M24.5,10.7c0,0.4-0.1,0.9-0.3,1.2c-0.2,0.4-0.4,0.7-0.7,1c-0.3,0.3-0.6,0.5-1,0.7c-0.4,0.2-0.8,0.3-1.2,0.3
				c-0.4,0-0.8-0.1-1.2-0.3c-0.4-0.2-0.7-0.4-1-0.7c-0.3-0.3-0.5-0.6-0.7-1c-0.2-0.4-0.3-0.8-0.3-1.2V0.1h2v10.4
				c0,0.5,0.1,0.8,0.3,1.1c0.2,0.2,0.5,0.3,0.9,0.3c0.3,0,0.6-0.1,0.9-0.3c0.2-0.2,0.3-0.6,0.3-1.1V0.1h2V10.7z"/>
			<path class="st0" d="M34.2,4.1h-2V3.6c0-0.4-0.1-0.8-0.3-1.2C31.8,2.1,31.4,2,30.9,2c-0.3,0-0.5,0.1-0.7,0.2
				c-0.2,0.1-0.3,0.2-0.4,0.4c-0.1,0.2-0.2,0.3-0.2,0.6c0,0.2-0.1,0.4-0.1,0.7c0,0.3,0,0.5,0,0.7c0,0.2,0.1,0.3,0.1,0.5
				c0.1,0.1,0.2,0.3,0.3,0.4c0.1,0.1,0.4,0.2,0.6,0.3l1.5,0.6c0.4,0.2,0.8,0.4,1.1,0.6c0.3,0.2,0.5,0.5,0.6,0.8
				c0.1,0.3,0.2,0.6,0.3,1c0.1,0.4,0.1,0.8,0.1,1.3c0,0.6-0.1,1.1-0.2,1.6c-0.1,0.5-0.3,0.9-0.6,1.3c-0.3,0.4-0.6,0.6-1,0.8
				c-0.4,0.2-1,0.3-1.6,0.3c-0.5,0-0.9-0.1-1.3-0.3c-0.4-0.2-0.8-0.4-1.1-0.7c-0.3-0.3-0.5-0.6-0.7-1c-0.2-0.4-0.3-0.8-0.3-1.3V10h2
				v0.6c0,0.4,0.1,0.7,0.3,1c0.2,0.3,0.6,0.4,1.1,0.4c0.3,0,0.6,0,0.8-0.1c0.2-0.1,0.3-0.2,0.4-0.4c0.1-0.2,0.2-0.4,0.2-0.6
				c0-0.3,0-0.5,0-0.8c0-0.4,0-0.7,0-0.9c0-0.2-0.1-0.4-0.2-0.6c-0.1-0.1-0.2-0.3-0.3-0.3c-0.1-0.1-0.3-0.2-0.6-0.3l-1.4-0.6
				c-0.8-0.3-1.4-0.8-1.7-1.4c-0.3-0.6-0.4-1.3-0.4-2.1c0-0.5,0.1-1,0.2-1.5c0.1-0.5,0.4-0.9,0.6-1.2c0.3-0.3,0.6-0.6,1-0.8
				C29.9,0.1,30.4,0,31,0c0.5,0,0.9,0.1,1.3,0.3c0.4,0.2,0.8,0.4,1,0.7c0.3,0.3,0.5,0.6,0.7,1c0.2,0.4,0.2,0.7,0.2,1.1V4.1z"/>
			<path class="st0" d="M38.5,2h-2.3V0.1h6.5V2h-2.3v11.9h-2V2z"/>
			<path class="st0" d="M45.2,0.1H51V2h-3.9v4h3.4v1.8h-3.4v4H51v2h-5.9V0.1z"/>
			<path class="st0" d="M54.4,0.1h3.2c2.3,0,3.5,1.3,3.5,4c0,0.8-0.1,1.5-0.4,2c-0.3,0.6-0.7,1-1.3,1.4l2.1,6.3h-2.1L57.5,8h-1.2
				v5.9h-2V0.1z M56.3,6.2h1.1c0.3,0,0.6,0,0.8-0.1c0.2-0.1,0.4-0.2,0.5-0.4C58.9,5.5,58.9,5.3,59,5C59,4.8,59,4.4,59,4.1
				c0-0.3,0-0.7-0.1-0.9c0-0.3-0.1-0.5-0.2-0.7c-0.1-0.2-0.3-0.3-0.5-0.4C58,2,57.7,2,57.4,2h-1V6.2z"/>
			<path class="st0" d="M64.1,0.1h2.9c0.5,0,1,0.1,1.4,0.2c0.4,0.1,0.8,0.4,1.1,0.7c0.3,0.4,0.6,0.8,0.7,1.3c0.1,0.5,0.2,1.1,0.2,2
				c0,0.6,0,1.1-0.1,1.6c-0.1,0.4-0.2,0.8-0.5,1.2c-0.3,0.4-0.6,0.8-1.1,1c-0.5,0.2-1,0.4-1.8,0.4h-1v5.4h-2V0.1z M66.1,6.6H67
				c0.4,0,0.7-0.1,0.9-0.2c0.2-0.1,0.4-0.3,0.5-0.5c0.1-0.2,0.2-0.4,0.2-0.7c0-0.3,0-0.6,0-0.9c0-0.3,0-0.6,0-0.9
				c0-0.3-0.1-0.5-0.2-0.8c-0.1-0.2-0.2-0.4-0.5-0.5C67.8,2,67.5,2,67.1,2h-1V6.6z"/>
			<path class="st0" d="M72.9,3.3c0-0.6,0.1-1,0.3-1.5c0.2-0.4,0.4-0.8,0.8-1.1c0.3-0.3,0.7-0.5,1.1-0.6C75.3,0.1,75.7,0,76.1,0
				c0.4,0,0.8,0.1,1.2,0.2c0.4,0.1,0.7,0.4,1.1,0.6c0.3,0.3,0.6,0.6,0.8,1.1c0.2,0.4,0.3,0.9,0.3,1.5v7.2c0,0.6-0.1,1.1-0.3,1.5
				c-0.2,0.4-0.4,0.8-0.8,1c-0.3,0.3-0.7,0.5-1.1,0.6c-0.4,0.1-0.8,0.2-1.2,0.2c-0.4,0-0.8-0.1-1.2-0.2c-0.4-0.1-0.7-0.4-1.1-0.6
				c-0.3-0.3-0.6-0.6-0.8-1c-0.2-0.4-0.3-0.9-0.3-1.5V3.3z M74.8,10.6c0,0.5,0.1,0.8,0.4,1c0.3,0.2,0.6,0.3,0.9,0.3
				c0.4,0,0.7-0.1,0.9-0.3c0.3-0.2,0.4-0.6,0.4-1V3.3c0-0.5-0.1-0.8-0.4-1C76.8,2.1,76.5,2,76.1,2c-0.4,0-0.7,0.1-0.9,0.3
				c-0.3,0.2-0.4,0.6-0.4,1V10.6z"/>
			<path class="st0" d="M82.8,0.1h2v13.7h-2V0.1z"/>
			<path class="st0" d="M88.1,0.1H90l3,8.3h0V0.1h2v13.7h-1.8l-3-8.2h0v8.2h-2V0.1z"/>
			<path class="st0" d="M99.6,2h-2.3V0.1h6.5V2h-2.3v11.9h-2V2z"/>
		</g>
	</g>
</g>
</svg>
