<?xml version="1.0" encoding="utf-8"?>
<!-- Generator: Adobe Illustrator 19.2.1, SVG Export Plug-In . SVG Version: 6.00 Build 0)  -->
<svg version="1.1" id="Layer_1" xmlns="http://www.w3.org/2000/svg" xmlns:xlink="http://www.w3.org/1999/xlink" x="0px" y="0px"
	 viewBox="0 0 100.4 13.5" style="enable-background:new 0 0 100.4 13.5;" xml:space="preserve">
<style type="text/css">
	.st0{fill:#FFFFFF;}
</style>
<g>
	<g>
		<g>
			<path class="st0" d="M6.1,10.4c0,0.4-0.1,0.8-0.2,1.2c-0.2,0.4-0.4,0.7-0.6,1c-0.3,0.3-0.6,0.5-1,0.7c-0.4,0.2-0.8,0.3-1.2,0.3
				c-0.4,0-0.7,0-1.1-0.1c-0.4-0.1-0.7-0.3-1-0.5c-0.3-0.2-0.5-0.6-0.7-1C0.1,11.5,0,11,0,10.4V3.1c0-0.4,0.1-0.8,0.2-1.2
				c0.2-0.4,0.4-0.7,0.6-1c0.3-0.3,0.6-0.5,1-0.6C2.2,0.1,2.6,0,3.1,0c0.4,0,0.8,0.1,1.2,0.2c0.4,0.2,0.7,0.4,1,0.7
				c0.3,0.3,0.5,0.6,0.6,1c0.2,0.4,0.2,0.8,0.2,1.3v0.7H4.2V3.3c0-0.4-0.1-0.7-0.3-1C3.7,2,3.4,1.9,3.1,1.9C2.6,1.9,2.3,2,2.1,2.3
				C2,2.6,1.9,3,1.9,3.4v6.8c0,0.4,0.1,0.7,0.3,1c0.2,0.3,0.5,0.4,0.9,0.4c0.1,0,0.3,0,0.4-0.1c0.1,0,0.3-0.1,0.4-0.2
				c0.1-0.1,0.2-0.2,0.3-0.4c0.1-0.2,0.1-0.4,0.1-0.7V9.6h1.9V10.4z"/>
			<path class="st0" d="M9.2,0.1h1.9v11.4h3.8v1.9H9.2V0.1z"/>
			<path class="st0" d="M23.7,10.4c0,0.4-0.1,0.8-0.2,1.2c-0.2,0.4-0.4,0.7-0.7,1c-0.3,0.3-0.6,0.5-1,0.7c-0.4,0.2-0.8,0.2-1.2,0.2
				c-0.4,0-0.8-0.1-1.2-0.2c-0.4-0.2-0.7-0.4-1-0.7c-0.3-0.3-0.5-0.6-0.7-1c-0.2-0.4-0.2-0.8-0.2-1.2V0.1h1.9v10.1
				c0,0.5,0.1,0.8,0.3,1c0.2,0.2,0.5,0.3,0.8,0.3c0.3,0,0.6-0.1,0.8-0.3c0.2-0.2,0.3-0.6,0.3-1V0.1h1.9V10.4z"/>
			<path class="st0" d="M33.1,3.9h-1.9V3.5c0-0.4-0.1-0.8-0.3-1.1c-0.2-0.3-0.5-0.5-1-0.5c-0.3,0-0.5,0-0.6,0.1
				c-0.2,0.1-0.3,0.2-0.4,0.4c-0.1,0.2-0.2,0.3-0.2,0.5c0,0.2-0.1,0.4-0.1,0.6c0,0.3,0,0.5,0,0.7c0,0.2,0.1,0.3,0.1,0.5
				C28.8,4.9,29,5,29.1,5.1c0.1,0.1,0.3,0.2,0.6,0.3L31.1,6c0.4,0.2,0.8,0.4,1,0.6c0.3,0.2,0.5,0.5,0.6,0.8c0.1,0.3,0.2,0.6,0.3,1
				c0,0.4,0.1,0.8,0.1,1.3c0,0.6-0.1,1.1-0.2,1.6c-0.1,0.5-0.3,0.9-0.5,1.2c-0.3,0.3-0.6,0.6-1,0.8c-0.4,0.2-0.9,0.3-1.5,0.3
				c-0.5,0-0.9-0.1-1.3-0.2c-0.4-0.2-0.7-0.4-1-0.7c-0.3-0.3-0.5-0.6-0.7-1c-0.2-0.4-0.3-0.8-0.3-1.2V9.6h1.9v0.6
				c0,0.3,0.1,0.7,0.3,0.9c0.2,0.3,0.5,0.4,1,0.4c0.3,0,0.6,0,0.8-0.1c0.2-0.1,0.3-0.2,0.4-0.4c0.1-0.2,0.1-0.4,0.2-0.6
				c0-0.2,0-0.5,0-0.8c0-0.3,0-0.6,0-0.9c0-0.2-0.1-0.4-0.2-0.5C31,8.1,30.8,8,30.7,7.9c-0.1-0.1-0.3-0.2-0.6-0.3L28.8,7
				c-0.8-0.3-1.4-0.8-1.6-1.3c-0.3-0.6-0.4-1.2-0.4-2.1c0-0.5,0.1-1,0.2-1.4c0.1-0.4,0.3-0.8,0.6-1.2c0.3-0.3,0.6-0.6,1-0.8
				C28.9,0.1,29.4,0,30,0c0.5,0,0.9,0.1,1.3,0.3c0.4,0.2,0.7,0.4,1,0.7c0.3,0.3,0.5,0.6,0.6,1c0.1,0.4,0.2,0.7,0.2,1.1V3.9z"/>
			<path class="st0" d="M37.3,1.9h-2.2V0.1h6.3v1.8h-2.2v11.5h-1.9V1.9z"/>
			<path class="st0" d="M43.7,0.1h5.7v1.8h-3.8v3.9h3.3v1.8h-3.3v3.9h3.8v1.9h-5.7V0.1z"/>
			<path class="st0" d="M52.6,0.1h3.1C57.9,0.1,59,1.4,59,4c0,0.8-0.1,1.4-0.4,2c-0.2,0.6-0.7,1-1.3,1.3l2.1,6.1h-2l-1.8-5.7h-1.1
				v5.7h-1.9V0.1z M54.5,6h1.1c0.3,0,0.6,0,0.8-0.1c0.2-0.1,0.4-0.2,0.5-0.4c0.1-0.2,0.2-0.4,0.2-0.6c0-0.3,0.1-0.5,0.1-0.9
				c0-0.3,0-0.6-0.1-0.9c0-0.3-0.1-0.5-0.2-0.6c-0.1-0.2-0.3-0.3-0.5-0.4c-0.2-0.1-0.5-0.1-0.8-0.1h-1V6z"/>
			<path class="st0" d="M62,0.1h2.8c0.5,0,1,0.1,1.4,0.2C66.7,0.5,67,0.7,67.3,1c0.3,0.4,0.5,0.8,0.7,1.2c0.1,0.5,0.2,1.1,0.2,1.9
				c0,0.6,0,1.1-0.1,1.5c-0.1,0.4-0.2,0.8-0.4,1.2c-0.3,0.4-0.6,0.8-1,1c-0.4,0.2-1,0.4-1.7,0.4h-1v5.2H62V0.1z M63.9,6.4h0.9
				c0.4,0,0.7-0.1,0.9-0.2c0.2-0.1,0.4-0.3,0.5-0.5c0.1-0.2,0.2-0.4,0.2-0.7c0-0.3,0-0.6,0-0.9c0-0.3,0-0.6,0-0.9
				c0-0.3-0.1-0.5-0.2-0.7c-0.1-0.2-0.2-0.4-0.4-0.5c-0.2-0.1-0.5-0.2-0.9-0.2h-1V6.4z"/>
			<path class="st0" d="M70.5,3.2c0-0.5,0.1-1,0.3-1.4c0.2-0.4,0.4-0.7,0.7-1c0.3-0.3,0.6-0.5,1-0.6C72.9,0.1,73.3,0,73.7,0
				c0.4,0,0.8,0.1,1.1,0.2c0.4,0.1,0.7,0.3,1,0.6c0.3,0.3,0.5,0.6,0.7,1c0.2,0.4,0.3,0.9,0.3,1.4v7c0,0.5-0.1,1-0.3,1.4
				c-0.2,0.4-0.4,0.7-0.7,1c-0.3,0.3-0.6,0.5-1,0.6c-0.4,0.1-0.8,0.2-1.1,0.2c-0.4,0-0.8-0.1-1.1-0.2c-0.4-0.1-0.7-0.3-1-0.6
				c-0.3-0.3-0.5-0.6-0.7-1c-0.2-0.4-0.3-0.9-0.3-1.4V3.2z M72.4,10.2c0,0.5,0.1,0.8,0.4,1c0.3,0.2,0.6,0.3,0.9,0.3
				c0.3,0,0.6-0.1,0.9-0.3c0.3-0.2,0.4-0.6,0.4-1v-7c0-0.5-0.1-0.8-0.4-1C74.3,2,74,1.9,73.7,1.9c-0.3,0-0.6,0.1-0.9,0.3
				c-0.3,0.2-0.4,0.6-0.4,1V10.2z"/>
			<path class="st0" d="M80.1,0.1H82v13.3h-1.9V0.1z"/>
			<path class="st0" d="M85.2,0.1h1.8l2.9,8h0v-8h1.9v13.3h-1.8l-2.9-8h0v8h-1.9V0.1z"/>
			<path class="st0" d="M96.3,1.9h-2.2V0.1h6.3v1.8h-2.2v11.5h-1.9V1.9z"/>
		</g>
	</g>
</g>
</svg>
