<svg xmlns="http://www.w3.org/2000/svg" viewBox="0 0 111.64 22.26"><defs><style>.a{fill:#f1f1f1;}.b{fill:#222;}</style></defs><title>Untitled-4</title><rect class="a" width="111.64" height="22.26"/><path class="b" d="M18.27,23.45a3.09,3.09,0,0,1-.88,2.15,3.15,3.15,0,0,1-1,.67,2.81,2.81,0,0,1-1.18.25,4.22,4.22,0,0,1-1.1-.15,2.65,2.65,0,0,1-1-.51,2.73,2.73,0,0,1-.74-1,3.48,3.48,0,0,1-.29-1.51V16.1a3.21,3.21,0,0,1,.22-1.21,2.91,2.91,0,0,1,.63-1,3,3,0,0,1,1-.64A3.29,3.29,0,0,1,15.21,13a3.1,3.1,0,0,1,1.21.23,2.9,2.9,0,0,1,1,.65,3,3,0,0,1,.64,1,3.44,3.44,0,0,1,.23,1.28V17h-1.9V16.32a1.54,1.54,0,0,0-.32-1,1,1,0,0,0-.86-0.41,1,1,0,0,0-.94.44A2.32,2.32,0,0,0,14,16.49v6.78a1.74,1.74,0,0,0,.25,1,1,1,0,0,0,.9.39,1.34,1.34,0,0,0,.4-0.06A1.1,1.1,0,0,0,16,24.35a1,1,0,0,0,.29-0.41,1.69,1.69,0,0,0,.11-0.65V22.63h1.9v0.82Z" transform="translate(-7.35 -9.01)"/><path class="b" d="M21.3,13.15h1.9V24.51H27v1.9H21.3V13.15Z" transform="translate(-7.35 -9.01)"/><path class="b" d="M35.83,23.44a3,3,0,0,1-.24,1.21,3.09,3.09,0,0,1-1.64,1.64,3,3,0,0,1-2.38,0,3.08,3.08,0,0,1-1.64-1.64,3,3,0,0,1-.24-1.21V13.15h1.9V23.25a1.42,1.42,0,0,0,.34,1,1.21,1.21,0,0,0,1.67,0,1.42,1.42,0,0,0,.34-1V13.15h1.9V23.44Z" transform="translate(-7.35 -9.01)"/><path class="b" d="M45.25,17h-1.9V16.54A2,2,0,0,0,43,15.42a1.14,1.14,0,0,0-1-.47,1.27,1.27,0,0,0-.64.15,1.13,1.13,0,0,0-.39.38,1.62,1.62,0,0,0-.2.54,3.46,3.46,0,0,0-.06.64c0,0.26,0,.48,0,0.66a1.19,1.19,0,0,0,.14.46,1.05,1.05,0,0,0,.33.35,3,3,0,0,0,.59.3L43.26,19a3.55,3.55,0,0,1,1,.57,2.3,2.3,0,0,1,.61.76,3.21,3.21,0,0,1,.29,1,10.07,10.07,0,0,1,.08,1.29,6.79,6.79,0,0,1-.17,1.56,3.33,3.33,0,0,1-.55,1.23,2.66,2.66,0,0,1-1,.81,3.64,3.64,0,0,1-1.55.3,3.35,3.35,0,0,1-1.29-.24,3.1,3.1,0,0,1-2-2.9V22.67h1.9v0.59a1.55,1.55,0,0,0,.31.94,1.2,1.2,0,0,0,1,.42,1.66,1.66,0,0,0,.75-0.14,1,1,0,0,0,.41-0.39,1.61,1.61,0,0,0,.18-0.62c0-.25,0-0.52,0-0.82a8.07,8.07,0,0,0,0-.86,1.38,1.38,0,0,0-.16-0.54,1,1,0,0,0-.33-0.34,4.64,4.64,0,0,0-.57-0.28l-1.36-.56a3,3,0,0,1-1.65-1.33,4.61,4.61,0,0,1-.42-2.08,4.85,4.85,0,0,1,.2-1.41,3.31,3.31,0,0,1,.61-1.16,2.89,2.89,0,0,1,1-.77A3.34,3.34,0,0,1,42.09,13a3.16,3.16,0,0,1,1.29.26,3.2,3.2,0,0,1,1,.69,3.07,3.07,0,0,1,.64,1A2.78,2.78,0,0,1,45.25,16V17Z" transform="translate(-7.35 -9.01)"/><path class="b" d="M49.41,14.94h-2.2V13.15H53.5v1.79h-2.2V26.41h-1.9V14.94Z" transform="translate(-7.35 -9.01)"/><path class="b" d="M55.83,13.15h5.66v1.79H57.73v3.89H61v1.79H57.73v3.89h3.76v1.9H55.83V13.15Z" transform="translate(-7.35 -9.01)"/><path class="b" d="M64.72,13.15h3.05q3.36,0,3.35,3.89a4.93,4.93,0,0,1-.36,2,2.8,2.8,0,0,1-1.28,1.33l2.05,6.05h-2l-1.77-5.66H66.62v5.66h-1.9V13.15Zm1.9,5.92H67.7a1.89,1.89,0,0,0,.8-0.14,1,1,0,0,0,.46-0.4,1.73,1.73,0,0,0,.21-0.64,7.19,7.19,0,0,0,0-1.77,1.61,1.61,0,0,0-.23-0.65,1.05,1.05,0,0,0-.49-0.4,2.25,2.25,0,0,0-.84-0.13h-1v4.13Z" transform="translate(-7.35 -9.01)"/><path class="b" d="M74.15,13.15H77a4.2,4.2,0,0,1,1.38.21,2.65,2.65,0,0,1,1.08.73,2.85,2.85,0,0,1,.67,1.22,7.63,7.63,0,0,1,.19,1.89,9.38,9.38,0,0,1-.1,1.5,3.11,3.11,0,0,1-.44,1.16,2.76,2.76,0,0,1-1,1,3.53,3.53,0,0,1-1.71.36H76v5.18h-1.9V13.15ZM76,19.45H77a2,2,0,0,0,.89-0.17,1.08,1.08,0,0,0,.47-0.46,1.81,1.81,0,0,0,.18-0.7c0-.28,0-0.58,0-0.91s0-.61,0-0.88a2.07,2.07,0,0,0-.17-0.73,1.07,1.07,0,0,0-.44-0.49A1.73,1.73,0,0,0,77,14.94H76v4.51Z" transform="translate(-7.35 -9.01)"/><path class="b" d="M82.59,16.28a3.4,3.4,0,0,1,.28-1.41,3,3,0,0,1,.74-1,3.2,3.2,0,0,1,1-.6,3.33,3.33,0,0,1,2.29,0,3.21,3.21,0,0,1,1,.6,3,3,0,0,1,.74,1A3.4,3.4,0,0,1,89,16.28v7a3.39,3.39,0,0,1-.28,1.43,3,3,0,0,1-.74,1,3.19,3.19,0,0,1-1,.6,3.29,3.29,0,0,1-2.29,0,3.19,3.19,0,0,1-1-.6,3,3,0,0,1-.74-1,3.39,3.39,0,0,1-.28-1.43v-7Zm1.9,7a1.27,1.27,0,0,0,.38,1,1.42,1.42,0,0,0,1.81,0,1.26,1.26,0,0,0,.38-1v-7a1.26,1.26,0,0,0-.38-1,1.41,1.41,0,0,0-1.81,0,1.26,1.26,0,0,0-.38,1v7Z" transform="translate(-7.35 -9.01)"/><path class="b" d="M92.19,13.15h1.9V26.41h-1.9V13.15Z" transform="translate(-7.35 -9.01)"/><path class="b" d="M97.34,13.15h1.83l2.87,8h0v-8H104V26.41h-1.79l-2.91-8h0v8h-1.9V13.15Z" transform="translate(-7.35 -9.01)"/><path class="b" d="M108.43,14.94h-2.2V13.15h6.3v1.79h-2.2V26.41h-1.9V14.94Z" transform="translate(-7.35 -9.01)"/></svg>