<svg width="121" height="108" viewBox="0 0 121 108" xmlns="http://www.w3.org/2000/svg"><title>clusterpoint-logo</title><g fill="none" fill-rule="evenodd"><g fill="#9d9d9d"><path d="M16.318 0c-.642 0-1.162.518-1.162 1.154 0 .637.52 1.155 1.162 1.155.64 0 1.16-.52 1.16-1.156 0-.636-.52-1.154-1.16-1.154M31.473 0c-.64 0-1.162.518-1.162 1.154 0 .637.522 1.155 1.163 1.155.64 0 1.16-.52 1.16-1.156 0-.636-.52-1.154-1.16-1.154M107.255 2.31c.64 0 1.16-.52 1.16-1.156 0-.636-.52-1.154-1.16-1.154-.642 0-1.163.518-1.163 1.154 0 .637.52 1.155 1.163 1.155M1.163 0C.523 0 0 .518 0 1.154 0 1.79.522 2.31 1.163 2.31c.638 0 1.158-.52 1.158-1.156C2.32.518 1.8 0 1.164 0M46.63 0c-.642 0-1.164.518-1.164 1.154 0 .637.522 1.155 1.163 1.155.64 0 1.16-.52 1.16-1.156C47.79.518 47.27 0 46.63 0M76.942 0C76.3 0 75.78.518 75.78 1.154c0 .637.52 1.155 1.162 1.155.64 0 1.16-.52 1.16-1.156 0-.636-.52-1.154-1.16-1.154M92.097 0c-.64 0-1.162.518-1.162 1.154 0 .637.52 1.155 1.162 1.155.64 0 1.162-.52 1.162-1.156C93.257.518 92.736 0 92.096 0M61.786 0c-.64 0-1.162.518-1.162 1.154 0 .637.522 1.155 1.162 1.155.64 0 1.16-.52 1.16-1.156 0-.636-.52-1.154-1.16-1.154M2.32 16.24c0-.64-.52-1.158-1.16-1.158-.64 0-1.16.52-1.16 1.157 0 .636.52 1.153 1.16 1.153.64 0 1.16-.517 1.16-1.154M2.32 31.32c0-.637-.52-1.155-1.16-1.155-.64 0-1.16.518-1.16 1.156 0 .638.52 1.156 1.16 1.156.64 0 1.16-.518 1.16-1.155M0 106.74c0 .635.52 1.15 1.162 1.15.638 0 1.16-.515 1.16-1.15 0-.64-.522-1.158-1.16-1.158-.64 0-1.162.518-1.162 1.157M2.32 46.404c0-.637-.52-1.156-1.16-1.156-.64 0-1.16.52-1.16 1.156 0 .637.52 1.155 1.16 1.155.64 0 1.16-.52 1.16-1.156M2.32 91.654c0-.638-.52-1.157-1.16-1.157-.64 0-1.16.52-1.16 1.157s.52 1.156 1.16 1.156c.64 0 1.16-.52 1.16-1.156M17.477 16.24c0-.64-.52-1.158-1.16-1.158-.64 0-1.16.52-1.16 1.157 0 .636.52 1.153 1.16 1.153.64 0 1.16-.517 1.16-1.154M17.477 31.32c0-.637-.52-1.155-1.16-1.155-.64 0-1.16.518-1.16 1.156 0 .638.52 1.156 1.16 1.156.64 0 1.16-.518 1.16-1.155M15.156 106.74c0 .635.52 1.15 1.16 1.15.64 0 1.16-.515 1.16-1.15 0-.64-.52-1.158-1.16-1.158-.64 0-1.16.518-1.16 1.157M17.477 46.404c0-.637-.52-1.156-1.16-1.156-.64 0-1.16.52-1.16 1.156 0 .637.52 1.155 1.16 1.155.64 0 1.16-.52 1.16-1.156M17.477 91.654c0-.638-.52-1.157-1.16-1.157-.64 0-1.16.52-1.16 1.157s.52 1.156 1.16 1.156c.64 0 1.16-.52 1.16-1.156M32.634 16.24c0-.64-.522-1.158-1.16-1.158-.64 0-1.162.52-1.162 1.157 0 .636.52 1.153 1.162 1.153.638 0 1.16-.517 1.16-1.154M32.634 31.32c0-.637-.522-1.155-1.16-1.155-.64 0-1.162.518-1.162 1.156 0 .638.52 1.156 1.162 1.156.638 0 1.16-.518 1.16-1.155M30.312 106.74c0 .635.52 1.15 1.16 1.15.64 0 1.16-.515 1.16-1.15 0-.64-.52-1.158-1.16-1.158-.64 0-1.16.518-1.16 1.157M32.634 46.404c0-.637-.522-1.156-1.16-1.156-.64 0-1.162.52-1.162 1.156 0 .637.52 1.155 1.162 1.155.638 0 1.16-.52 1.16-1.156M47.79 16.24c0-.64-.52-1.158-1.16-1.158-.64 0-1.162.52-1.162 1.157 0 .636.52 1.153 1.162 1.153.64 0 1.16-.517 1.16-1.154M47.79 31.32c0-.637-.52-1.155-1.16-1.155-.64 0-1.162.518-1.162 1.156 0 .638.52 1.156 1.162 1.156.64 0 1.16-.518 1.16-1.155M45.468 106.74c0 .635.52 1.15 1.162 1.15.64 0 1.16-.515 1.16-1.15 0-.64-.52-1.158-1.16-1.158-.64 0-1.162.518-1.162 1.157M47.79 46.404c0-.637-.52-1.156-1.16-1.156-.64 0-1.162.52-1.162 1.156 0 .637.52 1.155 1.162 1.155.64 0 1.16-.52 1.16-1.156M62.946 16.24c0-.64-.522-1.158-1.16-1.158-.64 0-1.162.52-1.162 1.157 0 .636.52 1.153 1.162 1.153.638 0 1.16-.517 1.16-1.154M62.946 31.32c0-.637-.522-1.155-1.16-1.155-.64 0-1.162.518-1.162 1.156 0 .638.52 1.156 1.162 1.156.638 0 1.16-.518 1.16-1.155M60.625 106.74c0 .635.52 1.15 1.162 1.15.637 0 1.16-.515 1.16-1.15 0-.64-.523-1.158-1.16-1.158-.642 0-1.162.518-1.162 1.157M62.946 46.404c0-.637-.522-1.156-1.16-1.156-.64 0-1.162.52-1.162 1.156 0 .637.52 1.155 1.162 1.155.638 0 1.16-.52 1.16-1.156M93.258 16.24c0-.64-.522-1.158-1.16-1.158-.642 0-1.162.52-1.162 1.157 0 .636.52 1.153 1.162 1.153.638 0 1.16-.517 1.16-1.154M93.258 31.32c0-.637-.522-1.155-1.16-1.155-.642 0-1.162.518-1.162 1.156 0 .638.52 1.156 1.162 1.156.638 0 1.16-.518 1.16-1.155M90.936 106.74c0 .635.52 1.15 1.163 1.15.637 0 1.158-.515 1.158-1.15 0-.64-.52-1.158-1.16-1.158-.64 0-1.162.518-1.162 1.157M93.258 46.404c0-.637-.522-1.156-1.16-1.156-.642 0-1.162.52-1.162 1.156 0 .637.52 1.155 1.162 1.155.638 0 1.16-.52 1.16-1.156M108.413 16.24c0-.64-.522-1.158-1.16-1.158-.64 0-1.16.52-1.16 1.157 0 .636.52 1.153 1.16 1.153.64 0 1.16-.517 1.16-1.154M108.413 31.32c0-.637-.522-1.155-1.16-1.155-.64 0-1.16.518-1.16 1.156 0 .638.52 1.156 1.16 1.156.64 0 1.16-.518 1.16-1.155M106.092 106.74c0 .635.52 1.15 1.163 1.15.637 0 1.158-.515 1.158-1.15 0-.64-.52-1.158-1.158-1.158-.642 0-1.163.518-1.163 1.157M108.413 46.404c0-.637-.522-1.156-1.16-1.156-.64 0-1.16.52-1.16 1.156 0 .637.52 1.155 1.16 1.155.64 0 1.16-.52 1.16-1.156M78.1 16.24c0-.64-.52-1.158-1.16-1.158-.64 0-1.16.52-1.16 1.157 0 .636.52 1.153 1.16 1.153.64 0 1.16-.517 1.16-1.154M78.1 31.32c0-.637-.52-1.155-1.16-1.155-.64 0-1.16.518-1.16 1.156 0 .638.52 1.156 1.16 1.156.64 0 1.16-.518 1.16-1.155M75.78 106.74c0 .635.522 1.15 1.162 1.15.64 0 1.16-.515 1.16-1.15 0-.64-.52-1.158-1.16-1.158-.64 0-1.16.518-1.16 1.157M78.1 46.404c0-.637-.52-1.156-1.16-1.156-.64 0-1.16.52-1.16 1.156 0 .637.52 1.155 1.16 1.155.64 0 1.16-.52 1.16-1.156"/></g><g fill="#7629F4"><path d="M6.764 72.704c0 .44-.086.864-.252 1.265-.168.4-.4.754-.696 1.053-.296.303-.642.544-1.04.724-.396.18-.823.27-1.28.27-.39 0-.786-.053-1.19-.16-.405-.108-.767-.29-1.09-.553-.324-.258-.59-.605-.8-1.034-.206-.427-.31-.97-.31-1.626v-7.868c0-.473.08-.905.24-1.307.164-.403.394-.75.686-1.045.298-.294.652-.525 1.06-.694.412-.165.867-.248 1.364-.248.47 0 .907.083 1.31.25.404.168.754.402 1.05.703.296.302.528.664.697 1.084.166.42.25.88.25 1.376v.8H4.707v-.68c0-.403-.114-.748-.343-1.045-.23-.29-.537-.44-.927-.44-.512 0-.852.157-1.02.473-.17.312-.252.71-.252 1.193v7.306c0 .418.09.766.274 1.046.18.284.505.422.978.422.132 0 .28-.022.432-.07.154-.047.297-.125.425-.232.13-.106.232-.25.312-.44.08-.188.12-.422.12-.704v-.704h2.06v.884zM10.05 61.6h2.06V73.85h4.076v2.047H10.05M25.79 72.687c0 .465-.09.902-.262 1.3-.176.406-.414.756-.717 1.06-.303.298-.654.536-1.058.71-.403.175-.834.26-1.29.26-.46 0-.89-.085-1.292-.26-.403-.174-.758-.412-1.06-.71-.304-.304-.542-.654-.717-1.06-.176-.398-.263-.836-.263-1.3V61.6h2.06v10.883c0 .51.12.884.364 1.124.24.24.543.362.907.362.363 0 .665-.122.91-.363.24-.24.36-.615.36-1.124V61.6h2.06v11.087zM35.998 65.718H33.94v-.463c0-.468-.11-.872-.333-1.214-.22-.34-.595-.51-1.12-.51-.282 0-.515.053-.696.158-.18.11-.32.245-.423.414-.1.167-.17.36-.21.582-.044.22-.06.45-.06.692 0 .282.01.52.028.714.02.193.072.36.152.5.08.143.198.266.352.373.155.107.366.212.635.32l1.574.622c.458.174.827.38 1.11.615.28.232.5.51.656.823.152.312.258.673.31 1.083.053.407.08.874.08 1.394 0 .605-.06 1.162-.18 1.678-.12.513-.32.957-.596 1.326-.274.367-.644.658-1.098.873-.458.213-1.017.32-1.676.32-.498 0-.96-.086-1.392-.26-.43-.174-.8-.412-1.11-.712-.31-.302-.555-.662-.734-1.076-.182-.417-.273-.864-.273-1.346v-.763h2.058v.64c0 .378.11.718.332 1.017.222.3.596.452 1.12.452.35 0 .62-.05.816-.152.195-.1.344-.24.446-.422.1-.178.162-.404.19-.67.027-.27.04-.564.04-.884 0-.375-.013-.684-.04-.925-.028-.24-.086-.432-.172-.58-.087-.15-.21-.27-.363-.364-.154-.092-.36-.193-.615-.3l-1.473-.603c-.888-.364-1.483-.84-1.787-1.434-.302-.596-.452-1.344-.452-2.24 0-.534.074-1.044.22-1.526.148-.482.368-.895.658-1.245.29-.347.655-.624 1.1-.832.442-.21.96-.312 1.553-.312.51 0 .977.094 1.4.282.425.188.788.434 1.09.742.303.31.536.655.695 1.033.163.383.243.774.243 1.175v1.006zM40.497 63.53h-2.38V61.6h6.818v1.93h-2.38v12.365h-2.058M47.46 61.6h6.132v1.93h-4.077v4.196h3.55v1.927h-3.55v4.195h4.077v2.047H47.46M57.09 61.6h3.306c2.423 0 3.633 1.4 3.633 4.197 0 .83-.13 1.543-.393 2.138-.263.6-.724 1.076-1.384 1.436l2.22 6.525h-2.18l-1.915-6.102h-1.232v6.102H57.09V61.6zm2.056 6.387h1.17c.364 0 .653-.05.868-.153.215-.1.38-.243.495-.43.112-.185.19-.42.23-.692.04-.273.06-.59.06-.952 0-.364-.02-.683-.06-.958-.04-.27-.125-.507-.25-.7-.13-.195-.306-.34-.537-.432-.228-.093-.53-.14-.907-.14h-1.07v4.457zM67.297 61.6h3.087c.568 0 1.063.075 1.493.224.43.146.82.407 1.17.782.35.377.592.812.726 1.315.135.505.202 1.184.202 2.04 0 .627-.036 1.167-.11 1.616-.074.45-.23.867-.474 1.254-.28.47-.657.834-1.13 1.095-.47.26-1.088.39-1.855.39h-1.05v5.58H67.3V61.602zm2.058 6.786h.987c.42 0 .74-.06.968-.178.23-.122.398-.286.506-.492.107-.208.17-.46.19-.752.024-.298.03-.624.03-.986 0-.334-.006-.653-.03-.952-.02-.304-.078-.564-.18-.783-.1-.223-.258-.395-.472-.525-.217-.124-.528-.188-.93-.188h-1.07v4.856zM76.45 64.974c0-.574.1-1.083.3-1.524.204-.443.468-.806.8-1.097.328-.286.696-.505 1.108-.652.41-.147.825-.218 1.24-.218.416 0 .832.07 1.24.22.41.146.782.366 1.11.65.33.29.595.655.797 1.098.202.44.303.95.303 1.524v7.55c0 .59-.1 1.1-.303 1.537-.202.436-.466.794-.797 1.087-.328.284-.7.503-1.11.65-.408.146-.824.22-1.24.22-.415 0-.83-.074-1.24-.22-.412-.148-.78-.367-1.11-.65-.33-.293-.594-.65-.798-1.086-.2-.436-.3-.945-.3-1.536v-7.55zm2.056 7.55c0 .494.138.86.413 1.094.275.235.603.35.978.35s.702-.115.98-.35c.274-.234.413-.6.413-1.094v-7.55c0-.494-.138-.858-.412-1.092-.278-.237-.605-.353-.98-.353s-.703.115-.98.352c-.274.234-.412.598-.412 1.092v7.55zM86.84 61.6h2.06v14.295h-2.06zM92.427 61.6h1.978l3.106 8.614h.043V61.6h2.056v14.295h-1.936l-3.15-8.59h-.04v8.59h-2.057M104.43 63.53h-2.38V61.6h6.82v1.93h-2.38v12.365h-2.06"/></g><g fill="#222"><path d="M36.59 88.685c.09-.145.142-.305.152-.48.01-.172-.034-.33-.133-.47-.084-.138-.2-.237-.357-.31-.154-.072-.335-.097-.54-.075-.316.03-.647.107-.984.228-.338.12-.67.268-.99.436-.32.17-.627.356-.908.552-.276.19-.528.383-.75.57-.4.322-.708.656-.916.99-.208.335-.322.653-.34.945-.02.307.05.593.207.852.157.258.41.47.75.633.378.198.743.397 1.086.592.333.19.6.4.79.618.19.244.268.542.235.89-.012.186-.052.394-.12.613-.07.22-.17.448-.303.684-.21.385-.498.79-.86 1.2-.364.41-.736.763-1.105 1.047-.097.075-.207.122-.325.136-.124.014-.236-.023-.33-.11-.108-.084-.216-.13-.317-.13-.054 0-.11.013-.16.038-.158.075-.28.21-.36.4-.07.178-.09.375-.06.587.033.21.147.37.35.497.223.126.458.185.705.17.255-.012.51-.11.755-.287.564-.398 1.06-.842 1.474-1.32.41-.478.778-.995 1.09-1.54.176-.296.325-.632.443-.997.117-.36.188-.73.21-1.1.022-.337-.01-.684-.09-1.032-.082-.342-.237-.63-.46-.864-.335-.32-.654-.56-.945-.712-.303-.16-.61-.34-.915-.533-.265-.17-.392-.355-.38-.55.025-.22.186-.45.495-.704.19-.17.422-.34.686-.506.26-.167.526-.32.793-.453.264-.133.52-.244.764-.33.25-.088.447-.135.603-.143h.022l.017.013c.138.11.278.19.417.247.128.05.237.048.338-.015.108-.07.196-.16.263-.275zM50.215 95.164c-.053.096-.126.19-.22.283-.095.092-.195.147-.3.163-.036.002-.064 0-.082-.012-.018-.01-.065-.02-.14-.028-.123.03-.335.095-.636.198-.3.104-.605.227-.914.37-.386.184-.768.273-1.147.27-.38-.004-.696-.202-.952-.597-.197-.29-.347-.66-.45-1.1-.103-.443-.19-.913-.26-1.408-.04-.266-.13-.395-.27-.387-.16.008-.42.178-.777.51-.08.063-.19.17-.33.323s-.297.336-.468.547c-.174.213-.35.436-.528.672-.18.236-.346.468-.5.7-.074.12-.164.21-.27.274-.107.065-.212.1-.316.105-.103.005-.204-.02-.303-.08-.1-.06-.173-.15-.22-.276-.104-.322-.19-.684-.263-1.087-.072-.403-.152-.742-.238-1.017-.056-.148-.155-.2-.3-.158-.167.02-.35.187-.548.5-.168.276-.357.55-.565.822-.21.272-.416.547-.622.825-.163.22-.334.48-.512.787-.18.305-.33.57-.457.8-.108.19-.24.31-.397.36-.157.05-.294.04-.416-.022-.103-.054-.182-.14-.242-.267-.06-.124-.088-.28-.086-.466.003-.372.015-.783.034-1.232.02-.45.044-.892.077-1.33.033-.438.066-.85.1-1.234.033-.385.064-.7.087-.946.033-.234.107-.408.22-.52.112-.11.235-.167.364-.175.14-.02.263.027.367.137.105.112.144.278.12.5-.03.48-.067.997-.11 1.55-.045.555-.073 1.084-.087 1.584.063-.096.135-.213.22-.35.083-.138.18-.274.292-.408.152-.193.305-.403.46-.625.154-.224.304-.437.448-.642.175-.255.39-.503.65-.75.26-.246.512-.405.76-.475.218-.06.42-.037.606.063.186.102.336.34.454.72.06.23.12.47.178.723.06.252.106.46.143.62.014.104.05.158.104.16.056.004.115-.038.176-.122.09-.12.196-.254.312-.4.117-.145.238-.292.365-.438.126-.146.25-.286.37-.42s.227-.25.316-.348c.69-.722 1.264-1.096 1.713-1.12.254-.024.458.073.613.292.154.22.255.55.302.987.037.44.106.877.205 1.307.1.43.217.76.352.985.118.178.258.262.42.248.158-.014.315-.055.47-.12.173-.08.353-.16.54-.24.188-.078.375-.152.56-.22.188-.067.365-.128.533-.185.166-.053.31-.09.434-.11.235-.023.418.037.55.182.174.19.177.44.008.75zM59.326 94.048c.085.147.11.32.073.52-.038.2-.135.36-.292.485-.333.238-.708.458-1.13.66-.418.204-.804.336-1.154.402-.416.068-.73.054-.946-.038-.214-.094-.39-.29-.53-.584-.06-.102-.11-.256-.146-.464-.04-.208-.053-.392-.043-.557-.005-.09-.037-.147-.095-.16-.06-.014-.13.014-.21.09-.11.087-.24.206-.394.36-.155.153-.32.32-.494.505-.175.184-.354.373-.534.568-.182.196-.352.373-.512.533-.378.356-.72.552-1.032.584-.31.034-.56-.055-.742-.267-.228-.255-.323-.65-.29-1.188.026-.258.075-.514.147-.767.072-.254.163-.5.27-.74.164-.357.36-.71.588-1.058.23-.35.466-.68.716-.99.247-.31.497-.588.747-.84.25-.25.478-.464.686-.64.177-.148.378-.306.605-.475.224-.17.464-.298.717-.386.254-.09.515-.117.785-.085s.53.18.786.447c.114.123.17.26.17.41 0 .15-.032.292-.096.423-.085.17-.21.282-.38.344-.168.06-.323.037-.465-.072-.204-.2-.435-.266-.697-.2-.26.066-.575.254-.94.565-.177.147-.38.342-.605.58-.226.24-.446.498-.66.776-.213.278-.417.566-.608.86-.192.296-.347.58-.468.854-.065.142-.113.313-.145.513-.032.2-.013.333.06.398.095.1.248.04.46-.182.15-.158.336-.353.563-.587.224-.233.457-.47.696-.71.238-.236.476-.468.71-.69.232-.22.438-.4.616-.536.147-.113.294-.193.442-.243.15-.046.278-.055.39-.027.11.03.192.1.25.214.06.113.082.268.07.467-.024.234-.035.453-.034.655 0 .205.02.38.057.53.046.195.115.325.21.39.093.064.22.087.38.067.125-.03.268-.074.43-.136.163-.06.327-.13.49-.208.164-.08.327-.158.486-.242.16-.086.3-.165.415-.24.147-.09.27-.12.372-.09.1.032.185.097.254.198zM65.932 91.586c-.074.132-.167.224-.278.276-.11.052-.234.036-.37-.05-.1-.053-.188-.086-.267-.1-.078-.013-.155-.006-.232.02-.152.033-.33.095-.538.187-.207.09-.426.2-.66.33-.232.128-.464.273-.693.437-.23.163-.45.326-.656.488-.17.136-.31.27-.433.406-.12.135-.208.256-.262.363-.086.168-.146.325-.183.47-.037.15-.07.305-.1.47-.033.223-.1.385-.206.49-.105.104-.223.16-.353.167-.13.006-.245-.047-.34-.157-.095-.11-.142-.284-.137-.517.005-.22.016-.477.035-.77.02-.29.037-.582.055-.874.018-.303.044-.592.075-.868.032-.274.065-.517.095-.73.05-.345.055-.56.1-.666.043-.108.087-.22.13-.34.06-.165.148-.27.268-.318.12-.048.245-.056.373-.028.1.04.187.11.26.212.074.102.09.235.053.4-.025.106-.052.228-.08.37-.027.14-.053.288-.076.44-.023.153-.043.302-.057.447-.014.148-.023.273-.03.378.07-.096.14-.175.205-.237.065-.06.135-.127.216-.2.218-.188.468-.376.75-.565.285-.19.572-.364.863-.525.29-.16.577-.294.86-.402.283-.108.533-.174.748-.196.188-.022.356 0 .502.06.144.063.258.128.338.192.124.123.18.275.168.464-.01.176-.058.336-.14.478zM71.896 90.28c-.01.147-.062.283-.152.407-.092.124-.23.197-.408.217-.207.01-.502.014-.89.012-.39-.003-.766.004-1.133.023-.02.327-.032.666-.036 1.022-.003.355 0 .698.012 1.03.012.33.027.646.045.948.018.3.044.56.077.78.026.196-.006.365-.094.502-.088.138-.195.23-.32.27-.136.05-.272.04-.41-.04-.136-.08-.222-.24-.254-.484-.07-.508-.116-1.11-.134-1.807-.018-.696-.003-1.418.045-2.165l-1.028.054c-.17.018-.295-.03-.377-.152-.08-.122-.116-.26-.107-.42.01-.158.062-.305.154-.44.093-.135.23-.22.41-.25.12-.008.27-.018.45-.033.178-.015.37-.028.577-.038.024-.362.062-.776.115-1.243.05-.468.12-.957.203-1.47.084-.51.177-1.02.28-1.53.102-.513.273-.987.323-1.457.02-.195.174-.847.23-.955l.066-.187c.023-.065.046-.12.067-.168.076-.19.187-.31.33-.36.144-.047.272-.026.39.06.097.066.176.16.234.285.057.125.076.276.057.45-.01.13-.033.238-.077.328-.043.09-.092.18-.145.277-.11.39-.216.837-.322 1.342-.107.505-.208 1.025-.302 1.56-.095.533-.175 1.064-.24 1.59-.067.527-.112 1.002-.14 1.42.104-.005.247-.01.43-.013.18-.003.373-.006.576-.004.2 0 .4.005.602.01.2.007.37.017.51.033.14.015.242.08.304.196.062.118.088.25.08.397zM83.57 91.053c-.002.326-.07.578-.208.753-.14.176-.287.268-.447.276-.11.005-.22-.024-.324-.088-.102-.065-.182-.177-.237-.336-.09-.193-.198-.394-.32-.604-.124-.21-.26-.396-.414-.564-.153-.166-.322-.297-.502-.392-.18-.095-.367-.137-.554-.13-.168.01-.36.065-.57.163-.212.1-.426.224-.642.374-.214.15-.427.326-.637.522-.208.197-.393.393-.554.587-.11.134-.195.272-.25.414-.056.143-.087.266-.093.37-.003.187.062.353.192.498.13.144.33.256.595.336.147.05.34.09.583.118.24.03.512.03.813.01.3-.02.617-.067.95-.135.33-.07.666-.184 1.003-.34.154-.067.287-.062.4.013.11.076.19.188.237.336.038.16.028.325-.03.49-.058.166-.197.3-.418.406-.396.183-.784.314-1.162.39-.38.08-.743.127-1.09.144-.338.018-.646.013-.925-.012-.278-.027-.515-.063-.71-.11-.56-.146-.977-.398-1.248-.756-.273-.358-.4-.776-.377-1.255.013-.513.238-1.047.676-1.606.193-.254.428-.51.7-.768.276-.26.563-.498.868-.72.304-.217.61-.402.925-.552.312-.15.606-.232.877-.246.226-.01.426.01.6.064.174.057.335.132.484.23.15.095.284.205.4.326.12.122.232.238.337.35 0-.595-.004-1.213-.01-1.858-.007-.644-.014-1.28-.027-1.91-.012-.627-.027-1.228-.048-1.803-.02-.574-.043-1.087-.07-1.54-.024-.23.02-.422.127-.573.106-.15.227-.242.36-.27.133-.043.26-.017.38.074.12.094.188.267.2.522.024.512.05 1.14.077 1.88.03.744.05 1.52.07 2.335.02.814.03 1.624.03 2.432 0 .81-.006 1.528-.017 2.156zM93.436 91.71c.084.147.108.32.073.52-.038.2-.134.363-.292.486-.334.24-.71.46-1.13.66-.42.203-.803.337-1.154.402-.417.067-.732.054-.945-.04-.215-.093-.392-.287-.534-.582-.058-.1-.107-.256-.145-.464-.037-.207-.05-.393-.042-.556-.003-.092-.034-.147-.094-.16-.06-.016-.13.014-.21.088-.108.088-.24.207-.393.362-.154.153-.32.322-.495.504l-.534.57c-.18.194-.35.372-.51.53-.378.36-.722.554-1.03.587-.313.033-.56-.056-.743-.266-.228-.256-.325-.652-.29-1.19.025-.255.075-.512.146-.765.072-.254.164-.5.272-.738.16-.357.358-.71.585-1.06.228-.35.467-.68.716-.988.25-.31.497-.59.747-.843.25-.25.48-.462.686-.637.176-.15.378-.307.604-.476.227-.168.466-.297.72-.386.252-.09.513-.116.783-.084s.53.18.787.448c.112.122.17.258.17.41 0 .15-.032.29-.097.422-.086.168-.213.28-.38.342s-.323.04-.466-.07c-.202-.2-.433-.266-.695-.2-.26.065-.574.254-.94.564-.177.148-.38.342-.605.58-.225.238-.445.5-.66.776-.212.28-.415.566-.607.86-.192.297-.348.58-.47.854-.064.144-.112.314-.143.514-.03.2-.01.332.06.398.095.1.25.04.46-.18.15-.16.337-.356.563-.59.226-.23.458-.467.698-.707.24-.238.477-.47.71-.69.234-.224.44-.4.617-.54.147-.11.294-.19.442-.24.147-.05.277-.057.386-.03.11.03.196.1.254.214.058.112.082.27.07.467-.025.234-.037.453-.036.656.002.205.02.38.058.53.045.195.115.325.208.39.094.066.222.087.382.067.123-.03.267-.073.43-.136.162-.06.326-.13.49-.208.164-.078.325-.16.485-.244.16-.084.298-.164.416-.24.145-.088.27-.118.37-.09.1.033.185.097.253.198zM98.736 88.328c-.01.147-.06.282-.153.407-.092.123-.23.196-.407.217-.207.01-.504.014-.892.012-.39-.004-.765.005-1.132.023-.02.328-.033.667-.036 1.022-.003.354 0 .697.013 1.028.01.33.026.646.044.948.02.303.045.563.077.782.027.196-.006.365-.093.5-.088.14-.195.23-.32.272-.136.053-.272.04-.41-.04-.137-.08-.22-.24-.254-.484-.07-.508-.117-1.11-.134-1.808-.018-.697-.004-1.42.043-2.166l-1.027.054c-.17.02-.294-.03-.376-.15-.082-.12-.118-.26-.107-.42.01-.158.06-.305.154-.44.093-.135.23-.22.41-.252.12-.005.27-.016.45-.03.177-.015.37-.03.577-.04.023-.36.06-.775.113-1.244.052-.467.12-.957.204-1.467.085-.51.178-1.02.28-1.533.103-.51.246-.99.324-1.456.07-.42.175-.848.23-.955.02-.06.043-.122.066-.188.024-.064.045-.12.07-.168.075-.19.186-.308.33-.358.143-.048.27-.03.387.058.1.065.178.16.236.285.056.125.076.275.054.45-.007.127-.033.238-.076.326-.042.09-.09.183-.142.278-.11.39-.217.837-.325 1.343-.106.506-.207 1.025-.3 1.56-.096.534-.175 1.065-.24 1.592-.067.524-.114 1-.14 1.42.103-.006.246-.01.43-.014.182-.004.373-.006.575-.005.2.003.4.006.602.012.2.006.37.017.51.032.14.017.24.08.305.196.062.118.09.25.08.398zM107.402 90.985c.084.147.11.32.072.52-.036.2-.132.363-.29.486-.333.24-.71.46-1.128.663-.42.202-.806.335-1.155.4-.416.07-.73.055-.945-.037-.214-.094-.39-.288-.53-.585-.06-.1-.11-.254-.147-.462-.04-.208-.054-.393-.043-.557-.004-.09-.036-.145-.095-.16-.06-.013-.13.016-.21.09-.108.087-.24.208-.394.362-.154.153-.32.32-.494.504-.175.184-.353.375-.535.57-.18.195-.35.372-.51.53-.378.358-.722.554-1.032.587-.31.034-.558-.054-.742-.267-.226-.256-.324-.652-.29-1.188.027-.257.075-.514.148-.767.072-.253.162-.498.27-.737.163-.358.36-.71.588-1.06.227-.35.465-.678.714-.988.25-.31.498-.59.747-.84.248-.252.478-.465.685-.638.178-.15.38-.308.604-.478.227-.17.467-.297.72-.386.253-.09.514-.117.783-.085.27.032.532.182.787.446.114.123.17.26.17.41 0 .152-.033.292-.096.425-.087.167-.214.28-.38.344-.17.06-.324.035-.466-.073-.204-.198-.435-.265-.696-.198-.262.066-.575.253-.942.564-.176.148-.377.342-.602.58-.227.24-.447.497-.66.775-.215.28-.418.567-.61.862-.19.295-.347.58-.467.854-.064.142-.113.314-.143.513-.032.198-.01.33.06.397.095.1.25.04.46-.18.15-.16.337-.355.563-.59.225-.23.457-.467.697-.706.24-.238.477-.468.71-.69.233-.222.438-.4.615-.54.15-.11.295-.19.444-.24.148-.05.277-.058.388-.03.11.032.194.103.252.216.058.112.082.268.07.467-.025.234-.037.452-.035.655 0 .205.02.38.058.53.044.196.113.326.208.39.093.066.22.088.38.068.124-.03.27-.074.43-.136.164-.06.327-.13.49-.21.166-.077.327-.158.486-.24.16-.086.298-.167.415-.242.147-.09.27-.12.37-.09.1.03.186.096.255.197z"/></g><path d="M116.8 61.6h-.66v4.44h.66v-3.204l1.512 2.508 1.512-2.508v3.204h.66V61.6h-.66l-1.512 2.484L116.8 61.6zm-3.36.636v3.804h.66v-3.804h1.224V61.6h-3.084v.636h1.2z" fill="#7629F4"/></g></svg>