<?xml version="1.0" encoding="utf-8"?>
<!-- Generator: Adobe Illustrator 19.2.1, SVG Export Plug-In . SVG Version: 6.00 Build 0)  -->
<svg version="1.1" id="Layer_1" xmlns="http://www.w3.org/2000/svg" xmlns:xlink="http://www.w3.org/1999/xlink" x="0px" y="0px"
	 viewBox="0 0 26.2 26.2" style="enable-background:new 0 0 26.2 26.2;" xml:space="preserve">
<style type="text/css">
	.st0{fill:#6F45F7;}
</style>
<g>
	<path class="st0" d="M19.1,7.1v8h-8v-8H19.1 M19.1,6.1h-8c-0.6,0-1,0.4-1,1v8c0,0.6,0.4,1,1,1h8c0.6,0,1-0.4,1-1v-8
		C20.1,6.6,19.7,6.1,19.1,6.1L19.1,6.1z"/>
</g>
<g>
	<path class="st0" d="M15.1,11.1v8h-8v-8H15.1 M15.1,10.1h-8c-0.6,0-1,0.4-1,1v8c0,0.5,0.4,1,1,1h8c0.6,0,1-0.5,1-1v-8
		C16.1,10.6,15.7,10.1,15.1,10.1L15.1,10.1z"/>
</g>
</svg>
