<?xml version="1.0" encoding="utf-8"?>
<!-- Generator: Adobe Illustrator 19.2.1, SVG Export Plug-In . SVG Version: 6.00 Build 0)  -->
<svg version="1.1" id="Layer_1" xmlns="http://www.w3.org/2000/svg" xmlns:xlink="http://www.w3.org/1999/xlink" x="0px" y="0px"
	 viewBox="0 0 31.2 31.2" style="enable-background:new 0 0 31.2 31.2;" xml:space="preserve">
<style type="text/css">
	.st0{fill:#8763EA;}
</style>
<path class="st0" d="M10.9,21.7c-0.2,0-0.3-0.1-0.4-0.2c-0.2-0.2-0.2-0.6,0-0.8l9.9-9.9c0.2-0.2,0.6-0.2,0.8,0s0.2,0.6,0,0.8
	l-9.9,9.9C11.2,21.7,11,21.7,10.9,21.7z"/>
<path class="st0" d="M21,21.5c-0.2,0-0.3-0.1-0.4-0.2l-10-9.8c-0.2-0.2-0.2-0.6,0-0.8s0.6-0.2,0.8,0l10,9.8c0.2,0.2,0.2,0.6,0,0.8
	C21.3,21.5,21.2,21.5,21,21.5z"/>
</svg>
