<!-- Generator: Adobe Illustrator 19.2.1, SVG Export Plug-In  -->
<svg version="1.1"
	 xmlns="http://www.w3.org/2000/svg" xmlns:xlink="http://www.w3.org/1999/xlink" xmlns:a="http://ns.adobe.com/AdobeSVGViewerExtensions/3.0/"
	 x="0px" y="0px" width="203.8px" height="150.3px" viewBox="0 0 203.8 150.3" style="enable-background:new 0 0 203.8 150.3;"
	 xml:space="preserve">
<style type="text/css">
	.st0{fill:#F1F1F1;stroke:#7629F4;stroke-width:1.2475;stroke-linecap:round;stroke-linejoin:round;stroke-miterlimit:10;}
	.st1{fill:#FFFFFF;stroke:#7629F4;stroke-width:1.2475;stroke-linecap:round;stroke-linejoin:round;stroke-miterlimit:10;}
	.st2{fill:none;stroke:#7629F4;stroke-width:1.2475;stroke-linecap:round;stroke-linejoin:round;stroke-miterlimit:10;}
	.st3{fill:#7629F4;}
</style>
<defs>
</defs>
<g>
	<g>
		<polyline class="st0" points="203.1,90.1 203.1,106.7 117.2,149.7 0.6,110.9 0.6,94.3 		"/>
		<polygon class="st1" points="203.1,90.1 117.2,133.1 0.6,94.3 33.8,78 0.6,66.9 53.8,40.3 		"/>
		<line class="st2" x1="0.6" y1="66.9" x2="0.6" y2="94.3"/>
		<line class="st2" x1="117.2" y1="133.1" x2="117.2" y2="149.7"/>
		<polyline class="st3" points="0.6,66.9 33.8,78 0.6,94.3 		"/>
	</g>
</g>
<g>
	<polygon class="st3" points="103.9,76.3 87.3,70.8 87.3,27.5 103.9,33 	"/>
	<polygon class="st3" points="62,86.2 45.4,80.7 45.4,14.2 62,19.7 	"/>
	<polyline class="st2" points="181.3,82.8 131.8,107.8 115.2,102.3 164.7,77.3 	"/>
	<polygon class="st3" points="131.9,107.6 115.3,102.1 115.3,0 131.9,5.5 	"/>
</g>
</svg>
