<?xml version="1.0" encoding="utf-8"?>
<!-- Generator: Adobe Illustrator 19.2.1, SVG Export Plug-In . SVG Version: 6.00 Build 0)  -->
<svg version="1.1" id="Layer_1" xmlns="http://www.w3.org/2000/svg" xmlns:xlink="http://www.w3.org/1999/xlink" x="0px" y="0px" viewBox="0 0 932 345" style="enable-background:new 0 0 932 345;" xml:space="preserve" width="932" height="345">
<style type="text/css">
	.st0{fill:#F1F1F1;}
	.st1{fill:none;stroke:#7629F4;stroke-miterlimit:10;}
	.st2{fill:#F5F5F5;stroke:#7629F4;stroke-miterlimit:10;}
	.st3{fill:#FFFFFF;stroke:#7045F6;stroke-miterlimit:10;}
	.st4{fill:#7629F4;stroke:#7045F6;stroke-miterlimit:10;}
	.st5{fill:none;stroke:#7045F6;stroke-miterlimit:10;}
	.st6{fill:none;stroke:#FFFFFF;stroke-linecap:round;stroke-linejoin:round;stroke-miterlimit:10;}
	.st7{fill:none;stroke:#7629F4;stroke-linecap:round;stroke-linejoin:round;stroke-miterlimit:10;}
	.st8{fill:none;stroke:#7045F6;stroke-linecap:round;stroke-linejoin:round;stroke-miterlimit:10;}
	.st9{fill:#7629F4;stroke:#7629F4;stroke-linejoin:round;stroke-miterlimit:10;}
	.st10{fill:#F1F1F1;stroke:#7629F4;stroke-linecap:round;stroke-linejoin:round;stroke-miterlimit:10;}
	.st11{fill:#FFFFFF;stroke:#7045F6;stroke-linecap:round;stroke-linejoin:round;stroke-miterlimit:10;}
	.st12{fill:#7629F4;}
	.st13{fill:none;stroke:#F5F5F5;stroke-miterlimit:10;}
	.st14{fill:#7629F4;stroke:#F1F1F1;stroke-miterlimit:10;}
	.st15{fill:none;stroke:#F1F1F1;stroke-miterlimit:10;}
	.st16{fill:#222222;}
</style>
<rect x="503" y="36.6" class="st0" width="16.2" height="81.7"/>
<rect x="521" y="123.7" class="st0" width="97.9" height="28.7"/>
<rect x="614.4" y="134.5" class="st0" width="32.3" height="29.6"/>
<rect x="636.8" y="188.4" class="st0" width="50.3" height="15.3"/>
<rect x="624.3" y="162.4" class="st0" width="24.2" height="35"/>
<rect x="715.9" y="165.9" class="st0" width="82.6" height="33.2"/>
<rect x="755.4" y="208.2" class="st0" width="43.1" height="79.9"/>
<rect x="789.5" y="137.2" class="st0" width="10.8" height="10.8"/>
<rect x="746.4" y="122.8" class="st0" width="9.9" height="8.1"/>
<rect x="634.1" y="165" class="st0" width="39.5" height="35.9"/>
<rect x="513.8" y="107.6" class="st0" width="16.2" height="25.1"/>
<rect x="397" y="52.8" class="st0" width="39.5" height="44.9"/>
<rect x="450.9" y="37.5" class="st0" width="21.6" height="16.2"/>
<rect x="353.9" y="164.2" class="st0" width="58.4" height="65.6"/>
<rect x="382.7" y="109.4" class="st0" width="17.1" height="40.4"/>
<rect x="368.3" y="207.3" class="st0" width="109.6" height="79"/>
<rect x="472.5" y="232.4" class="st0" width="210.2" height="39.5"/>
<rect x="477.9" y="273.7" class="st0" width="16.2" height="12.6"/>
<rect x="744.6" y="289" class="st0" width="26" height="41.3"/>
<rect x="799.4" y="231.5" class="st0" width="15.3" height="29.6"/>
<rect x="817.4" y="150.7" class="st0" width="9" height="10.8"/>
<rect x="702.4" y="176.7" class="st0" width="17.1" height="16.2"/>
<rect x="563.2" y="94.1" class="st0" width="9.9" height="10.8"/>
<rect x="537.1" y="80.6" class="st0" width="11.7" height="11.7"/>
<rect x="549.7" y="109.4" class="st0" width="8.1" height="9.9"/>
<rect x="661.1" y="136.3" class="st0" width="9" height="9"/>
<rect x="437.4" y="40.2" class="st0" width="21.6" height="13.5"/>
<rect x="380.9" y="79.7" class="st0" width="15.3" height="11.7"/>
<rect x="368.3" y="148.9" class="st0" width="21.6" height="23.4"/>
<rect x="353" y="122.8" class="st0" width="11.7" height="10.8"/>
<rect x="337.8" y="165" class="st0" width="18" height="12.6"/>
<rect x="341.3" y="276.4" class="st0" width="26" height="10.8"/>
<rect x="326.1" y="246.8" class="st0" width="14.4" height="10.8"/>
<rect x="270.4" y="218.9" class="st0" width="22.5" height="12.6"/>
<rect x="270.4" y="248.6" class="st0" width="13.5" height="12.6"/>
<rect x="380" y="289.9" class="st0" width="14.4" height="10.8"/>
<rect x="353.9" y="305.2" class="st0" width="9.9" height="12.6"/>
<rect x="326.1" y="331.2" class="st0" width="13.5" height="11.7"/>
<rect x="270.4" y="304.3" class="st0" width="9.9" height="10.8"/>
<rect x="494.9" y="289.9" class="st0" width="35.9" height="12.6"/>
<rect x="563.2" y="274.6" class="st0" width="28.7" height="14.4"/>
<rect x="559.6" y="318.6" class="st0" width="18.9" height="13.5"/>
<rect x="606.3" y="306.1" class="st0" width="9" height="10.8"/>
<rect x="688.9" y="303.4" class="st0" width="42.2" height="10.8"/>
<rect x="634.1" y="273.7" class="st0" width="28.7" height="13.5"/>
<rect x="492.2" y="319.5" class="st0" width="13.5" height="10.8"/>
<rect x="370.1" y="290.8" class="st0" width="6.3" height="8.1"/>
<rect x="354.8" y="263.8" class="st0" width="14.4" height="14.4"/>
<rect x="212.9" y="249.5" class="st0" width="12.6" height="9.9"/>
<rect x="604.5" y="93.2" class="st0" width="12.6" height="11.7"/>
<rect x="690.7" y="149.8" class="st0" width="9.9" height="10.8"/>
<rect x="521.9" y="273.7" class="st0" width="25.1" height="13.5"/>
<rect x="563.2" y="289" class="st0" width="11.7" height="13.5"/>
<rect x="521" y="303.4" class="st0" width="13.5" height="12.6"/>
<rect x="468.9" y="305.2" class="st0" width="10.8" height="10.8"/>
<rect x="436.6" y="317.7" class="st0" width="12.6" height="11.7"/>
<rect x="409.6" y="331.2" class="st0" width="11.7" height="13.5"/>
<rect x="327.5" y="263.6" class="st0" width="11.4" height="9.6"/>
<rect x="355" y="250.5" class="st0" width="13.5" height="10.5"/>
<rect x="310" y="235.2" class="st0" width="12.2" height="9.2"/>
<rect x="241.9" y="235.2" class="st0" width="13.1" height="9.6"/>
<rect x="168.5" y="234.8" class="st0" width="11.4" height="10.5"/>
<rect x="241.9" y="290.7" class="st0" width="9.6" height="8.7"/>
<rect x="269.4" y="263.2" class="st0" width="24.5" height="9.6"/>
<rect x="313.5" y="251.4" class="st0" width="12.2" height="8.7"/>
<rect x="270.2" y="334.4" class="st0" width="10" height="8.7"/>
<rect x="197.8" y="291.6" class="st0" width="12.2" height="10"/>
<rect x="397.8" y="288.9" class="st0" width="14" height="12.2"/>
<rect x="451.9" y="290.7" class="st0" width="12.2" height="11.4"/>
<rect x="381.6" y="319.9" class="st0" width="11.4" height="9.2"/>
<rect x="339.6" y="192.7" class="st0" width="27.9" height="52.5"/>
<rect x="325.7" y="206.6" class="st0" width="13" height="12.1"/>
<rect x="326.2" y="234.5" class="st0" width="13" height="11.2"/>
<rect x="298.7" y="194.1" class="st0" width="10.2" height="8.8"/>
<rect x="311.7" y="166.2" class="st0" width="11.6" height="8.8"/>
<rect x="343.4" y="110.4" class="st0" width="7.4" height="7.4"/>
<rect x="284.8" y="108.6" class="st0" width="10.2" height="9.3"/>
<rect x="621.7" y="68.1" class="st0" width="8.6" height="8.4"/>
<rect x="662.1" y="52.7" class="st0" width="11.1" height="10.3"/>
<rect x="675.6" y="53" class="st0" width="10.8" height="10"/>
<rect x="846.1" y="123.7" class="st0" width="24.6" height="10"/>
<rect x="885.5" y="124.5" class="st0" width="13.2" height="8.1"/>
<rect x="859.1" y="138" class="st0" width="24.8" height="8.1"/>
<rect x="367.2" y="137.5" class="st0" width="19.3" height="9"/>
<rect x="325.8" y="180.3" class="st0" width="30.4" height="10.4"/>
<rect x="296.1" y="291.5" class="st0" width="77.3" height="8.3"/>
<rect x="312.7" y="277.7" class="st0" width="11" height="9"/>
<rect x="327.9" y="273.6" class="st0" width="13.8" height="14.5"/>
<rect x="323.7" y="302.6" class="st0" width="9.7" height="15.2"/>
<rect x="279.5" y="250.1" class="st0" width="18.6" height="9"/>
<rect x="312" y="221.1" class="st0" width="11.7" height="10.4"/>
<rect x="293.8" y="250.1" class="st0" width="16.1" height="22.7"/>
<rect x="229.1" y="319.1" class="st0" width="11" height="9.7"/>
<rect x="228.4" y="264.6" class="st0" width="35.9" height="21.4"/>
<rect x="258.1" y="248.6" class="st0" width="12.3" height="11.2"/>
<rect x="268.5" y="273.6" class="st0" width="14.5" height="13.1"/>
<rect x="354.8" y="320.5" class="st0" width="11" height="10.4"/>
<rect x="382.4" y="304.6" class="st0" width="11" height="9.7"/>
<rect x="363.8" y="317.7" class="st0" width="19.3" height="12.4"/>
<rect x="412.1" y="303.2" class="st0" width="24.4" height="14.5"/>
<rect x="459.1" y="287.4" class="st0" width="17.3" height="11.7"/>
<rect x="423.8" y="290.1" class="st0" width="11" height="13.8"/>
<rect x="269.9" y="288.7" class="st0" width="27.6" height="12.4"/>
<rect x="200.1" y="321.2" class="st0" width="11.7" height="8.3"/>
<rect x="156.6" y="290.1" class="st0" width="13.1" height="13.1"/>
<rect x="648.3" y="121.6" class="st0" width="11.7" height="11"/>
<rect x="760.8" y="151.3" class="st0" width="11" height="11"/>
<rect x="476.3" y="25.6" class="st0" width="27.6" height="10.4"/>
<rect x="520.5" y="52.6" class="st0" width="12.4" height="24.9"/>
<rect x="550.9" y="40.1" class="st0" width="11" height="10.4"/>
<rect x="452.2" y="25.6" class="st0" width="11" height="10.4"/>
<rect x="659.3" y="303.9" class="st0" width="22.1" height="9"/>
<rect x="591.7" y="277.7" class="st0" width="26.9" height="9.7"/>
<rect x="662.1" y="332.3" class="st0" width="11" height="11.7"/>
<rect x="635.2" y="319.8" class="st0" width="10.4" height="9.7"/>
<rect x="575.8" y="318.4" class="st0" width="11.7" height="10.4"/>
<line class="st1" x1="420" y1="228.7" x2="613.3" y2="164.3"/>
<g>
	<path class="st2" d="M425.9,264.7L551.4,231h-0.3c2.3-0.1,4.2-2.2,4.8-5.8c0.8-4.9-1.4-10.7-4.9-13c-1.3-0.8-2.6-1-3.7-0.7l0.5-0.1
		l-122.5,16.4"/>
	<path class="st2" d="M547.8,211.4l-154.6,15.4l0,0c2.4-0.2,5.1,0.4,7.7,2.1c8.7,5.6,14.3,20.3,12.3,32.9c-1.2,7.8-5,12.9-9.8,14.3
		l0,0l10.5-3.2l137.5-42"/>
	<path class="st3" d="M413.1,261.8c-1.9,12.4-10.5,18-19.2,12.4s-14.2-20.2-12.2-32.6c1.9-12.4,10.5-18,19.2-12.4
		C409.5,234.7,415,249.3,413.1,261.8z"/>
	<path class="st3" d="M408,258.5c-1.3,8.4-7.1,12.1-12.9,8.4s-9.5-13.6-8.2-21.9c1.3-8.4,7.1-12.1,12.9-8.4
		C405.6,240.3,409.2,250.1,408,258.5z"/>
</g>
<g>
	<path class="st4" d="M432.1,157.1l80.4-26.8h-0.1c2.1-0.9,3.5-3.5,3.5-7.2V57.4c0-6-3.6-12.6-7.9-14.8c-1.5-0.8-3-0.9-4.2-0.4"/>
	<line class="st5" x1="441.7" y1="62.8" x2="504" y2="42.1"/>
	<path class="st3" d="M415.4,60.3l76-25.3l-0.3,0.1c1.5-0.5,3.3-0.4,5.1,0.6c5.4,2.7,10.6,10.7,9.7,18l-10.3,83.6
		c0,4.6-1.7,7.7-4.3,8.8h0.1l-87.9,29.2"/>
	<path class="st4" d="M387.7,153.8c-2.4,9.9,0.6,17.1,7.2,20.4c6.6,3.3,13.8,1.4,16.6-8.6l18.7-83.1c2-13.1-1.5-18.4-8-21.9
		c-4.7-2.6-13.7,0.5-15.8,10.1L387.7,153.8z"/>
	<line class="st6" x1="399.5" y1="159.3" x2="418.2" y2="76.2"/>
</g>
<path class="st1" d="M454.9,250.9"/>
<path class="st1" d="M373.2,210.1"/>
<polygon class="st2" points="467.7,107.9 421,123.7 373.4,210 373.4,210.1 455,250.9 672.7,249.2 720.5,232.9 "/>
<line class="st1" x1="640.2" y1="141.4" x2="592.7" y2="157.2"/>
<line class="st7" x1="383.8" y1="101.5" x2="280.6" y2="135.9"/>
<line class="st1" x1="381.2" y1="257.7" x2="367.8" y2="262.1"/>
<line class="st7" x1="356.5" y1="243.9" x2="253.2" y2="278.4"/>
<line class="st1" x1="389.3" y1="254.9" x2="399.2" y2="251.7"/>
<line class="st1" x1="650.8" y1="297.5" x2="547.6" y2="332"/>
<line class="st1" x1="496.8" y1="283.1" x2="419.1" y2="309"/>
<line class="st1" x1="889.4" y1="115.3" x2="842.4" y2="130.9"/>
<line class="st1" x1="706.3" y1="45.7" x2="613.2" y2="76.7"/>
<line class="st1" x1="257.4" y1="269.7" x2="223.8" y2="281"/>
<line class="st1" x1="931.5" y1="115.4" x2="865.8" y2="137.3"/>
<line class="st1" x1="673.8" y1="248.8" x2="421" y2="123.8"/>
<path class="st8" d="M606.3,189.7"/>
<line class="st5" x1="635.9" y1="175.6" x2="635.9" y2="191.1"/>
<line class="st1" x1="373.4" y1="210.1" x2="455" y2="250.9"/>
<polyline class="st9" points="428.5,210.5 370.9,181.7 578.3,138.2 628.5,145.3 635.9,166.9 "/>
<polygon class="st10" points="636,166.9 428.5,210.5 410.5,246.4 428.5,252 636,182.9 "/>
<line class="st1" x1="474" y1="111" x2="427.2" y2="126.8"/>
<line class="st1" x1="704.7" y1="225.2" x2="657.9" y2="241"/>
<line class="st1" x1="715.1" y1="230.4" x2="668.3" y2="246.2"/>
<line class="st1" x1="484.4" y1="116.3" x2="437.6" y2="132.1"/>
<line class="st7" x1="533.5" y1="144.2" x2="499.6" y2="155.6"/>
<line class="st1" x1="535.7" y1="143.4" x2="552.2" y2="137.8"/>
<path class="st2" d="M554.6,139.1c-0.1,1.8-1.2,2.7-2.5,2.1c-1.3-0.6-2.4-2.6-2.3-4.4c0.1-1.8,1.2-2.7,2.5-2.1
	S554.7,137.3,554.6,139.1z"/>
<line class="st7" x1="645.9" y1="199.9" x2="612" y2="211.4"/>
<line class="st1" x1="648.1" y1="199.2" x2="664.6" y2="193.6"/>
<path class="st2" d="M667,194.9c-0.1,1.8-1.2,2.7-2.5,2.1c-1.3-0.6-2.4-2.6-2.3-4.4c0.1-1.8,1.2-2.7,2.5-2.1
	C666,191.1,667,193.1,667,194.9z"/>
<g>
	<path class="st4" d="M707.6,294.3l80.4-26.8h-0.1c2.1-0.9,3.5-3.5,3.5-7.2v-65.7c0-6-3.6-12.6-7.9-14.8c-1.5-0.8-3-0.9-4.2-0.5"/>
	<line class="st5" x1="717.3" y1="200.1" x2="779.5" y2="179.3"/>
	<path class="st3" d="M690.9,197.6l76-25.3l-0.3,0.1c1.5-0.5,3.3-0.4,5.1,0.5c5.4,2.7,10.6,10.7,9.7,18l-10.3,83.6
		c0,4.6-1.7,7.7-4.3,8.8h0.1L679,312.5"/>
	<path class="st4" d="M663.3,291c-2.4,9.9,0.6,17.1,7.2,20.4c6.6,3.3,13.8,1.4,16.6-8.6l18.7-83.1c2-13.1-1.5-18.4-8-21.9
		c-4.7-2.6-13.7,0.5-15.8,10.1L663.3,291z"/>
	<line class="st6" x1="675" y1="296.5" x2="693.7" y2="213.5"/>
</g>
<polygon class="st11" points="717.3,279.8 749,316.7 763.6,311.9 741,271.9 "/>
<g>
	<g>
		<path class="st12" d="M460.9,224l-2.9,1v3.8c0.1-0.2,0.3-0.4,0.5-0.6c0.2-0.2,0.4-0.3,0.7-0.4c0.5-0.2,0.9-0.1,1.2,0.2
			s0.5,0.9,0.5,1.7v3.7c0,0.5-0.1,0.9-0.2,1.3c-0.1,0.4-0.3,0.8-0.5,1.1s-0.4,0.6-0.7,0.8s-0.5,0.4-0.8,0.5s-0.6,0.1-0.8,0.1
			c-0.3-0.1-0.5-0.2-0.7-0.4s-0.4-0.5-0.5-0.8s-0.2-0.7-0.2-1.2v-0.6l1.5-0.5v0.5c0,0.3,0.1,0.6,0.2,0.7s0.3,0.2,0.5,0.1
			c0.2-0.1,0.4-0.2,0.5-0.4s0.2-0.5,0.2-0.8v-3.3c0-0.3-0.1-0.5-0.2-0.7s-0.3-0.2-0.5-0.1c-0.1,0-0.2,0.1-0.3,0.2
			c-0.1,0.1-0.2,0.2-0.2,0.3c-0.1,0.1-0.1,0.2-0.1,0.3s-0.1,0.2-0.1,0.2l-1.3,0.4v-7.7l4.2-1.4L460.9,224L460.9,224z"/>
		<path class="st12" d="M462.1,221.7l2.1-0.7c0.8-0.3,1.5-0.2,1.9,0.3s0.7,1.3,0.7,2.5v6.7c0,1.3-0.2,2.4-0.7,3.2s-1.1,1.3-2,1.6
			l-2,0.7V221.7z M463.5,233.6l0.7-0.2c0.4-0.1,0.7-0.4,0.9-0.7c0.2-0.3,0.3-0.8,0.3-1.4v-6.9c0-0.6-0.1-1-0.2-1.2s-0.5-0.3-0.9-0.2
			l-0.7,0.2L463.5,233.6L463.5,233.6z"/>
		<path class="st12" d="M468.1,219.7l2.1-0.7c0.5-0.2,0.9-0.2,1.2-0.1c0.3,0.1,0.6,0.3,0.8,0.5c0.2,0.3,0.4,0.6,0.4,1
			c0.1,0.4,0.1,0.8,0.1,1.3v0.5c0,0.4,0,0.7-0.1,1c0,0.3-0.1,0.5-0.2,0.8c-0.1,0.2-0.2,0.4-0.3,0.6c-0.1,0.2-0.3,0.4-0.4,0.6
			c0.3,0.1,0.6,0.4,0.8,0.8c0.2,0.4,0.2,1,0.2,1.7v0.8c0,1.3-0.2,2.3-0.6,3.1s-1.1,1.4-2.1,1.7l-2,0.7v-14.3H468.1z M469.6,225.1
			l0.7-0.2c0.5-0.2,0.8-0.4,1-0.8c0.2-0.4,0.2-0.9,0.2-1.6c0-0.6-0.1-1.1-0.3-1.3s-0.5-0.3-1-0.1l-0.6,0.2L469.6,225.1L469.6,225.1z
			 M469.6,231.4l0.6-0.2c0.3-0.1,0.5-0.2,0.7-0.4s0.3-0.4,0.4-0.6c0.1-0.2,0.1-0.5,0.2-0.8s0-0.6,0-1s0-0.7,0-0.9
			c0-0.3-0.1-0.5-0.2-0.6c-0.1-0.2-0.2-0.2-0.4-0.3c-0.2,0-0.4,0-0.6,0.1l-0.6,0.2v4.5H469.6z"/>
	</g>
</g>
<polygon class="st3" points="482.8,101.9 486,100.8 486,78.2 482.8,79.3 "/>
<line class="st5" x1="486" y1="93.2" x2="482.8" y2="94.3"/>
<polygon class="st9" points="428.5,210.5 370.9,181.7 481.1,140.6 538.7,169.4 "/>
<line class="st13" x1="509.9" y1="155" x2="454.3" y2="175.7"/>
<line class="st13" x1="538.7" y1="169.4" x2="554.6" y2="184.8"/>
<line class="st13" x1="538.7" y1="169.4" x2="428.5" y2="210.5"/>
<line class="st13" x1="475.7" y1="137.8" x2="538.7" y2="169.4"/>
<line class="st1" x1="501" y1="223.8" x2="636" y2="178.9"/>
<line class="st1" x1="558.1" y1="200.8" x2="636" y2="174.8"/>
<line class="st1" x1="590.8" y1="185.6" x2="636" y2="170.6"/>
<polyline class="st9" points="410.5,246.4 352.9,217.7 370.9,181.7 428.5,210.5 "/>
<polygon class="st14" points="407.1,240.9 359.4,217.1 374.3,187.3 422,211.1 "/>
<line class="st15" x1="383.2" y1="229" x2="398.1" y2="199.2"/>
<line class="st15" x1="370.9" y1="222.8" x2="385.8" y2="193"/>
<line class="st15" x1="395.6" y1="235.1" x2="410.5" y2="205.3"/>
<line class="st1" x1="455" y1="260.5" x2="672.7" y2="258.8"/>
<polygon class="st0" points="0,111.7 345,0 345.6,76.3 270.7,100.3 271.6,152.5 365,122.2 366.4,179.3 33.7,286.7 33.8,231.8 
	96.6,211 96,158.2 0.2,191.5 "/>
<g>
	<g>
		<g>
			<path class="st16" d="M110.6,154.2l7.4-2.5c2.8-0.9,5-0.6,6.5,1.2c1.5,1.7,2.2,4.6,2.2,8.5v22.8c0,4.6-0.8,8.2-2.4,10.9
				s-3.8,4.5-6.8,5.5l-6.9,2.3C110.6,202.9,110.6,154.2,110.6,154.2z M115.5,194.8l2.3-0.8c1.4-0.5,2.4-1.3,3-2.5s0.9-2.8,0.9-4.9
				v-23.5c0-1.9-0.3-3.3-0.8-4.2c-0.6-0.9-1.6-1.1-3-0.6l-2.3,0.8L115.5,194.8L115.5,194.8z"/>
			<path class="st16" d="M136.3,145.7l4.1-1.4l7.8,46.2l-5,1.7l-1.5-10l-6.8,2.3l-1.5,11l-5,1.7L136.3,145.7z M138.4,159L138.4,159
				l-2.5,18.5l5-1.7L138.4,159z"/>
			<path class="st16" d="M151.2,147.3l-5.8,1.9v-6.6l16.5-5.5v6.6l-5.8,1.9v42.2l-5,1.7v-42.2L151.2,147.3L151.2,147.3z"/>
			<path class="st16" d="M167,135.5l4.1-1.4l7.8,46.2l-5,1.7l-1.5-10l-6.8,2.3l-1.5,11l-5,1.7L167,135.5z M169.1,148.8L169.1,148.8
				l-2.5,18.5l5-1.7L169.1,148.8z"/>
			<path class="st16" d="M181.3,130.7l7.3-2.4c1.6-0.5,3-0.6,4.1-0.3c1.1,0.3,2,0.9,2.8,1.8c0.7,0.9,1.2,2,1.5,3.4s0.5,2.9,0.5,4.5
				v1.8c0,1.3-0.1,2.5-0.2,3.4c-0.1,1-0.4,1.8-0.7,2.6s-0.7,1.5-1.1,2.2c-0.4,0.7-0.9,1.3-1.5,2c1.2,0.4,2,1.3,2.6,2.6
				s0.8,3.3,0.8,5.9v2.7c0,4.3-0.7,7.8-2.2,10.6s-3.8,4.7-7.1,5.8l-6.8,2.3L181.3,130.7L181.3,130.7z M186.3,149.1l2.2-0.7
				c1.7-0.6,2.8-1.5,3.3-2.9c0.6-1.4,0.9-3.2,0.9-5.4s-0.3-3.7-1-4.6c-0.6-0.9-1.8-1.1-3.4-0.5l-2,0.7V149.1z M186.3,170.9l2.1-0.7
				c1-0.3,1.8-0.8,2.4-1.4c0.6-0.6,1-1.3,1.3-2.1s0.5-1.8,0.5-2.8c0.1-1,0.1-2.1,0.1-3.3s0-2.3-0.1-3.2s-0.3-1.6-0.6-2.1
				s-0.7-0.8-1.3-1c-0.6-0.1-1.3-0.1-2.2,0.2l-2.2,0.7V170.9z"/>
			<path class="st16" d="M207,122.1l4.1-1.4l7.8,46.2l-5,1.7l-1.5-10l-6.8,2.3l-1.5,11l-5,1.7L207,122.1z M209.1,135.5L209.1,135.5
				l-2.5,18.5l5-1.7L209.1,135.5z"/>
			<path class="st16" d="M237.5,126.1l-5,1.7v-1.6c0-1.6-0.3-2.9-0.8-3.9s-1.4-1.3-2.7-0.8c-0.7,0.2-1.2,0.6-1.7,1.1
				c-0.4,0.5-0.8,1.1-1,1.7c-0.2,0.7-0.4,1.4-0.5,2.2s-0.1,1.6-0.1,2.4c0,1,0,1.8,0.1,2.4c0,0.6,0.2,1.2,0.4,1.6
				c0.2,0.4,0.5,0.7,0.9,1c0.4,0.2,0.9,0.4,1.5,0.6l3.8,0.9c1.1,0.2,2,0.6,2.7,1.2c0.7,0.6,1.2,1.3,1.6,2.3s0.6,2.1,0.8,3.5
				c0.1,1.4,0.2,2.9,0.2,4.7c0,2.1-0.1,4-0.4,5.9s-0.8,3.5-1.4,5c-0.7,1.5-1.6,2.8-2.7,3.9s-2.5,1.9-4.1,2.4
				c-1.2,0.4-2.3,0.5-3.4,0.2c-1-0.2-1.9-0.8-2.7-1.5c-0.7-0.8-1.3-1.8-1.8-3.1c-0.4-1.3-0.7-2.7-0.7-4.4v-2.6l5-1.7v2.2
				c0,1.3,0.3,2.3,0.8,3.2s1.4,1.1,2.7,0.6c0.8-0.3,1.5-0.7,2-1.2s0.8-1.1,1.1-1.8c0.2-0.7,0.4-1.5,0.5-2.5c0.1-0.9,0.1-2,0.1-3
				c0-1.3,0-2.3-0.1-3.1s-0.2-1.4-0.4-1.9c-0.2-0.4-0.5-0.7-0.9-0.9s-0.9-0.4-1.5-0.5l-3.6-0.9c-2.1-0.5-3.6-1.7-4.3-3.5
				s-1.1-4.2-1.1-7.3c0-1.8,0.2-3.6,0.5-5.4c0.4-1.8,0.9-3.4,1.6-4.8s1.6-2.7,2.7-3.7c1.1-1.1,2.3-1.8,3.8-2.3
				c1.2-0.4,2.4-0.5,3.4-0.2s1.9,0.9,2.6,1.7s1.3,1.8,1.7,3s0.6,2.4,0.6,3.8v3.4L237.5,126.1L237.5,126.1z"/>
			<path class="st16" d="M241.2,110.8l14.8-4.9v6.6l-9.9,3.3V130l8.6-2.9v6.6l-8.6,2.9V151l9.9-3.3v7l-14.8,4.9V110.8z"/>
		</g>
	</g>
	<g>
		<g>
			<path class="st16" d="M14.6,122.8l7.4-2.5c2.8-0.9,5-0.6,6.5,1.2c1.5,1.7,2.2,4.6,2.2,8.5v22.8c0,4.6-0.8,8.2-2.4,10.9
				s-3.8,4.5-6.8,5.5l-6.9,2.3V122.8z M19.5,163.4l2.3-0.8c1.4-0.5,2.4-1.3,3-2.5s0.9-2.8,0.9-4.9v-23.5c0-1.9-0.3-3.3-0.8-4.2
				c-0.6-0.9-1.6-1.1-3-0.6l-2.3,0.8L19.5,163.4L19.5,163.4z"/>
			<path class="st16" d="M35,127.5c0-2,0.2-3.8,0.7-5.5s1.1-3.1,1.9-4.4c0.8-1.2,1.7-2.3,2.7-3.1c1-0.8,2-1.4,3-1.8
				c1-0.3,2-0.4,3-0.2c1,0.2,1.9,0.6,2.7,1.3c0.8,0.7,1.4,1.7,1.9,3.1c0.5,1.3,0.7,3,0.7,5v25.8c0,2-0.2,3.8-0.7,5.5
				c-0.5,1.6-1.1,3.1-1.9,4.3s-1.7,2.3-2.7,3.1s-2,1.4-3,1.8c-1,0.3-2,0.4-3,0.2s-1.9-0.6-2.7-1.3s-1.4-1.7-1.9-3.1
				c-0.5-1.3-0.7-3-0.7-5V127.5z M40,151.6c0,1.7,0.3,2.8,1,3.4c0.7,0.6,1.5,0.7,2.4,0.4s1.7-1,2.4-2s1-2.4,1-4.1v-25.8
				c0-1.7-0.3-2.8-1-3.4s-1.5-0.7-2.4-0.4c-0.9,0.3-1.7,1-2.4,2s-1,2.4-1,4.1V151.6z"/>
			<path class="st16" d="M71.9,141.6c0,1.5-0.2,3-0.6,4.5s-1,2.9-1.7,4.2s-1.6,2.4-2.5,3.3c-1,0.9-2,1.6-3.1,2
				c-0.9,0.3-1.9,0.4-2.9,0.4s-1.9-0.4-2.6-1c-0.8-0.6-1.4-1.6-1.9-2.9c-0.5-1.3-0.8-3.1-0.8-5.3v-26.9c0-1.6,0.2-3.2,0.6-4.7
				s0.9-2.9,1.7-4.1c0.7-1.2,1.6-2.3,2.6-3.2c1-0.9,2.1-1.6,3.3-2c1.1-0.4,2.2-0.4,3.2-0.2c1,0.2,1.8,0.8,2.5,1.6
				c0.7,0.8,1.3,1.8,1.7,3.1c0.4,1.3,0.6,2.8,0.6,4.5v2.7l-5,1.7V117c0-1.4-0.3-2.5-0.8-3.3c-0.6-0.8-1.3-1.1-2.2-0.8
				c-1.2,0.4-2.1,1.2-2.5,2.4c-0.4,1.2-0.6,2.6-0.6,4.3v25c0,1.4,0.2,2.5,0.7,3.3c0.4,0.8,1.2,1,2.4,0.7c0.3-0.1,0.7-0.3,1-0.6
				c0.4-0.3,0.7-0.7,1-1.1c0.3-0.5,0.6-1.1,0.8-1.8c0.2-0.7,0.3-1.5,0.3-2.5v-2.4l5-1.7v3.1H71.9z"/>
			<path class="st16" d="M92.1,134.8c0,1.6-0.2,3.2-0.6,4.7s-1,2.9-1.7,4.2s-1.6,2.4-2.6,3.3s-2,1.6-3.1,1.9
				c-1.1,0.4-2.1,0.4-3.1,0.1c-1-0.3-1.8-0.8-2.6-1.6c-0.7-0.8-1.3-1.8-1.7-3s-0.6-2.6-0.6-4.2v-37.9l5-1.7v37.2
				c0,1.7,0.3,2.9,0.9,3.5s1.3,0.8,2.2,0.5s1.6-0.9,2.2-2c0.6-1,0.9-2.4,0.9-4.1V98.6l5-1.7v37.9H92.1z"/>
			<path class="st16" d="M96.8,95.4l4.8-1.6l6.4,23.7h0.1l6.3-28l4.8-1.6v48.8l-5,1.7v-29.7h-0.1l-4.9,22.6l-2.5,0.8l-4.9-19.4h-0.1
				v29.7l-5,1.7L96.8,95.4L96.8,95.4z"/>
			<path class="st16" d="M123.9,86.4l14.8-4.9V88l-9.9,3.3v14.3l8.6-2.9v6.6l-8.6,2.9v14.3l9.9-3.3v7l-14.8,4.9
				C123.9,135.1,123.9,86.4,123.9,86.4z"/>
			<path class="st16" d="M141.8,80.5l4.8-1.6l7.5,26.9h0.1V76.3l5-1.7v48.8l-4.7,1.6l-7.6-26.8h-0.1v29.3l-5,1.7V80.5z"/>
			<path class="st16" d="M166.9,78.7l-5.8,1.9V74l16.5-5.5v6.6l-5.8,1.9v42.2l-5,1.7V78.7H166.9z"/>
			<path class="st16" d="M188.6,76.4c0-2,0.2-3.8,0.7-5.5s1.1-3.1,1.9-4.4c0.8-1.2,1.7-2.3,2.7-3.1c1-0.8,2-1.4,3-1.8
				c1-0.3,2-0.4,3-0.2s1.9,0.6,2.7,1.3s1.4,1.8,1.9,3.1s0.7,3,0.7,5v25.8c0,2-0.2,3.8-0.7,5.5c-0.5,1.6-1.1,3.1-1.9,4.3
				c-0.8,1.2-1.7,2.3-2.7,3.1c-1,0.8-2,1.4-3,1.8c-1,0.3-2,0.4-3,0.2c-1-0.2-1.9-0.6-2.7-1.3c-0.8-0.7-1.4-1.7-1.9-3.1
				c-0.5-1.3-0.7-3-0.7-5V76.4z M193.6,100.5c0,1.7,0.3,2.8,1,3.4s1.5,0.7,2.4,0.4c0.9-0.3,1.7-1,2.4-2s1-2.4,1-4.1V72.5
				c0-1.7-0.3-2.8-1-3.4s-1.5-0.7-2.4-0.4c-0.9,0.3-1.7,1-2.4,2s-1,2.4-1,4.1V100.5z"/>
			<path class="st16" d="M209.7,57.9l8-2.7c5.9-1.9,8.8,1.9,8.8,11.4c0,2.8-0.3,5.4-1,7.6c-0.6,2.2-1.7,4.3-3.3,6l5.4,20.5l-5.3,1.8
				l-4.6-19.3l-3,1V105l-5,1.7L209.7,57.9L209.7,57.9z M214.7,78l2.8-0.9c0.9-0.3,1.6-0.7,2.1-1.2s0.9-1.1,1.2-1.9
				c0.3-0.7,0.5-1.6,0.6-2.6s0.1-2.1,0.1-3.3s0-2.3-0.1-3.2c-0.1-0.9-0.3-1.6-0.6-2.2c-0.3-0.6-0.7-0.9-1.3-1s-1.3-0.1-2.2,0.3
				l-2.6,0.9V78z"/>
			<path class="st16" d="M230.6,50.9l5-1.7V98l-5,1.7V50.9z"/>
			<path class="st16" d="M240.4,47.6l14.8-4.9v6.6l-9.9,3.3v14.3l8.6-2.9v6.6l-8.6,2.9v14.3l9.9-3.3v7l-14.8,4.9V47.6z"/>
			<path class="st16" d="M258.3,41.7l4.8-1.6l7.5,26.9h0.1V37.6l5-1.7v48.8l-4.7,1.6l-7.6-26.8h-0.1v29.3l-5,1.7L258.3,41.7
				L258.3,41.7z"/>
			<path class="st16" d="M283.4,39.9l-5.8,1.9v-6.6l16.5-5.5v6.6l-5.8,1.9v42.2l-5,1.7L283.4,39.9L283.4,39.9z"/>
			<path class="st16" d="M296.4,29l14.8-4.9v6.6l-9.9,3.3v14.3l8.6-2.9V52l-8.6,2.9v14.3l9.9-3.3v7l-14.8,4.9V29z"/>
			<path class="st16" d="M314.4,23l7.4-2.5c2.8-0.9,5-0.6,6.5,1.2c1.5,1.7,2.2,4.6,2.2,8.5V53c0,4.6-0.8,8.2-2.4,10.9
				c-1.6,2.7-3.8,4.5-6.8,5.5l-6.9,2.3L314.4,23L314.4,23z M319.4,63.6l2.3-0.8c1.4-0.5,2.4-1.3,3-2.5s0.9-2.8,0.9-4.9V31.9
				c0-1.9-0.3-3.3-0.8-4.2c-0.6-0.9-1.6-1.1-3-0.6l-2.3,0.8v35.7H319.4z"/>
		</g>
	</g>
</g>
<g>
	<g>
		<g>
			<g>
				<path class="st12" d="M59.3,266.5l-2.7,0.9l-2.2-17.8h-0.1l-2.2,19.3l-2.7,0.9l-3-27.5l3.1-1l1.5,17.6h0.1l2.3-18.9l2.2-0.7
					l2.4,17.8h0.1l1.4-19l3.1-1L59.3,266.5z"/>
				<path class="st12" d="M64.8,236.1l2.9-1v28.6l-2.9,1V236.1z"/>
				<path class="st12" d="M73,237.2l-3.4,1.1v-3.8l9.6-3.2v3.8l-3.4,1.1v24.7l-2.9,1v-24.7L73,237.2L73,237.2z"/>
				<path class="st12" d="M81.1,230.6l2.9-1v12.2l3.6-1.2v-12.2l2.9-1V256l-2.9,1v-12.7l-3.6,1.2v12.7l-2.9,1V230.6z"/>
				<path class="st12" d="M106.5,244c0,0.9-0.1,1.9-0.3,2.8c-0.2,0.9-0.6,1.8-1,2.6s-0.9,1.5-1.6,2s-1.3,1-2.1,1.3
					c-0.9,0.3-1.7,0.3-2.3-0.1c-0.6-0.4-1.1-0.8-1.5-1.2l2.3-3.3c0.2,0.2,0.5,0.4,0.7,0.5c0.3,0.1,0.6,0.1,0.9,0
					c0.2-0.1,0.4-0.2,0.6-0.3c0.2-0.2,0.4-0.4,0.6-0.7s0.4-0.7,0.5-1.2s0.2-1.1,0.2-1.8v-21.3l2.9-1V244H106.5z"/>
				<path class="st12" d="M119.2,226.2l-2.9,1v-0.9c0-0.9-0.2-1.7-0.5-2.3s-0.8-0.7-1.6-0.5c-0.4,0.1-0.7,0.3-1,0.6s-0.5,0.6-0.6,1
					s-0.2,0.8-0.3,1.3s-0.1,0.9-0.1,1.4c0,0.6,0,1,0,1.4s0.1,0.7,0.2,0.9s0.3,0.4,0.5,0.6c0.2,0.1,0.5,0.3,0.9,0.3l2.2,0.5
					c0.6,0.1,1.2,0.4,1.6,0.7s0.7,0.8,0.9,1.3c0.2,0.6,0.4,1.2,0.4,2c0.1,0.8,0.1,1.7,0.1,2.7c0,1.2-0.1,2.3-0.3,3.4
					c-0.2,1.1-0.5,2.1-0.8,2.9s-0.9,1.6-1.6,2.3c-0.6,0.6-1.4,1.1-2.4,1.4c-0.7,0.2-1.4,0.3-2,0.1s-1.1-0.4-1.6-0.9
					c-0.4-0.5-0.8-1.1-1-1.8s-0.4-1.6-0.4-2.6v-1.5l2.9-1v1.3c0,0.7,0.2,1.4,0.5,1.9s0.8,0.6,1.6,0.4c0.5-0.2,0.9-0.4,1.2-0.7
					s0.5-0.6,0.6-1.1c0.1-0.4,0.2-0.9,0.3-1.4c0-0.5,0.1-1.1,0.1-1.8s0-1.4-0.1-1.8c0-0.5-0.1-0.8-0.2-1.1s-0.3-0.4-0.5-0.6
					c-0.2-0.1-0.5-0.2-0.9-0.3l-2.1-0.5c-1.3-0.3-2.1-1-2.5-2s-0.6-2.5-0.6-4.3c0-1.1,0.1-2.1,0.3-3.2s0.5-2,0.9-2.8
					s0.9-1.6,1.6-2.2c0.6-0.6,1.4-1.1,2.2-1.4c0.7-0.2,1.4-0.3,2-0.1s1.1,0.5,1.5,1s0.8,1.1,1,1.7c0.2,0.7,0.3,1.4,0.3,2.2v2.5
					L119.2,226.2L119.2,226.2z"/>
				<path class="st12" d="M124.5,216l2.3-0.8l-3.8,30.3l-2.3,0.8L124.5,216z"/>
				<path class="st12" d="M138.3,219.8l-2.9,1v-0.9c0-0.9-0.2-1.7-0.5-2.3s-0.8-0.7-1.6-0.5c-0.4,0.1-0.7,0.3-1,0.6s-0.5,0.6-0.6,1
					s-0.2,0.8-0.3,1.3s-0.1,0.9-0.1,1.4c0,0.6,0,1,0,1.4s0.1,0.7,0.2,0.9c0.1,0.2,0.3,0.4,0.5,0.6c0.2,0.1,0.5,0.3,0.9,0.3l2.2,0.5
					c0.6,0.1,1.2,0.4,1.6,0.7c0.4,0.3,0.7,0.8,0.9,1.3c0.2,0.6,0.4,1.2,0.4,2s0.1,1.7,0.1,2.7c0,1.2-0.1,2.3-0.3,3.4
					c-0.2,1.1-0.5,2.1-0.8,2.9c-0.4,0.9-0.9,1.6-1.6,2.3c-0.6,0.6-1.4,1.1-2.4,1.4c-0.7,0.2-1.4,0.3-2,0.1c-0.6-0.1-1.1-0.4-1.6-0.9
					c-0.4-0.5-0.8-1.1-1-1.8s-0.4-1.6-0.4-2.6v-1.5l2.9-1v1.3c0,0.7,0.2,1.4,0.5,1.9s0.8,0.6,1.6,0.4c0.5-0.2,0.9-0.4,1.2-0.7
					s0.5-0.6,0.6-1.1c0.1-0.4,0.2-0.9,0.3-1.4c0-0.5,0.1-1.1,0.1-1.8s0-1.4-0.1-1.8c0-0.5-0.1-0.8-0.2-1.1c-0.1-0.3-0.3-0.4-0.5-0.6
					c-0.2-0.1-0.5-0.2-0.9-0.3l-2.1-0.5c-1.3-0.3-2.1-1-2.5-2s-0.6-2.5-0.6-4.3c0-1.1,0.1-2.1,0.3-3.2c0.2-1,0.5-2,0.9-2.8
					s0.9-1.6,1.6-2.2c0.6-0.6,1.4-1.1,2.2-1.4c0.7-0.2,1.4-0.3,2-0.1s1.1,0.5,1.5,1s0.8,1.1,1,1.7c0.2,0.7,0.3,1.4,0.3,2.2v2.5
					L138.3,219.8L138.3,219.8z"/>
				<path class="st12" d="M140.9,217.5c0-1.1,0.1-2.2,0.4-3.2c0.3-1,0.7-1.8,1.1-2.6c0.5-0.7,1-1.3,1.6-1.8s1.2-0.8,1.8-1
					s1.2-0.2,1.8-0.1c0.6,0.1,1.1,0.4,1.6,0.8c0.5,0.4,0.8,1,1.1,1.8s0.4,1.8,0.4,2.9v15.1c0,1.1-0.1,2.1-0.4,3.1l1.8,1.4l-1.5,3
					l-1.7-1.4c-0.4,0.7-0.9,1.2-1.4,1.6c-0.5,0.4-1.1,0.7-1.6,0.9c-0.6,0.2-1.2,0.2-1.8,0.1c-0.6-0.1-1.1-0.4-1.6-0.8
					c-0.5-0.4-0.8-1-1.1-1.8s-0.4-1.7-0.4-2.9v-15.1H140.9z M143.8,231.6c0,1,0.2,1.7,0.6,2s0.9,0.4,1.4,0.2
					c0.2-0.1,0.5-0.2,0.6-0.4l-1.3-1l1.5-3l1.2,0.9v-0.1v-15.1c0-1-0.2-1.7-0.6-2c-0.4-0.3-0.9-0.4-1.4-0.2s-1,0.6-1.4,1.2
					c-0.4,0.6-0.6,1.4-0.6,2.4V231.6z"/>
				<path class="st12" d="M153.8,206.5l2.9-1V230l5.8-1.9v4.1l-8.7,2.9V206.5z"/>
				<path class="st12" d="M170.8,200.8l4.4-1.5c0.8-0.3,1.5-0.4,2.1-0.3s1.2,0.4,1.7,1s0.8,1.3,1,2.3c0.2,0.9,0.3,2.3,0.3,4
					c0,1.3-0.1,2.4-0.2,3.3c-0.1,0.9-0.3,1.8-0.7,2.7c-0.4,1.1-0.9,2-1.6,2.7c-0.7,0.7-1.5,1.3-2.6,1.7l-1.5,0.5v11.1l-2.9,1V200.8z
					 M173.7,213.4l1.4-0.5c0.6-0.2,1-0.5,1.4-0.8c0.3-0.3,0.6-0.8,0.7-1.2c0.2-0.5,0.2-1,0.3-1.6s0-1.3,0-2s0-1.3,0-1.9
					s-0.1-1.1-0.3-1.5c-0.1-0.4-0.4-0.7-0.7-0.8c-0.3-0.2-0.7-0.1-1.3,0.1l-1.5,0.5L173.7,213.4L173.7,213.4z"/>
				<path class="st12" d="M183,196.8l4.7-1.6c3.4-1.1,5.1,1.1,5.1,6.7c0,1.7-0.2,3.1-0.6,4.5s-1,2.5-2,3.5l3.1,12l-3.1,1l-2.7-11.3
					l-1.7,0.6v12.2l-2.9,1L183,196.8L183,196.8z M185.9,208.6l1.7-0.5c0.5-0.2,0.9-0.4,1.2-0.7s0.5-0.7,0.7-1.1
					c0.2-0.4,0.3-0.9,0.3-1.5c0.1-0.6,0.1-1.2,0.1-1.9s0-1.3-0.1-1.9c-0.1-0.5-0.2-1-0.4-1.3s-0.4-0.5-0.8-0.6
					c-0.3-0.1-0.8,0-1.3,0.1l-1.5,0.5v8.9H185.9z"/>
				<path class="st12" d="M195.5,199.3c0-1.1,0.1-2.2,0.4-3.2c0.3-1,0.7-1.8,1.1-2.6c0.5-0.7,1-1.3,1.6-1.8s1.2-0.8,1.8-1
					s1.2-0.2,1.8-0.1c0.6,0.1,1.1,0.4,1.6,0.8c0.5,0.4,0.8,1,1.1,1.8s0.4,1.8,0.4,2.9v15.1c0,1.2-0.1,2.2-0.4,3.2s-0.7,1.8-1.1,2.5
					c-0.5,0.7-1,1.3-1.6,1.8s-1.2,0.8-1.8,1s-1.2,0.2-1.8,0.1c-0.6-0.1-1.1-0.4-1.6-0.8c-0.5-0.4-0.8-1-1.1-1.8s-0.4-1.8-0.4-2.9
					V199.3z M198.4,213.4c0,1,0.2,1.7,0.6,2c0.4,0.3,0.9,0.4,1.4,0.2s1-0.6,1.4-1.2c0.4-0.6,0.6-1.4,0.6-2.4v-15.1
					c0-1-0.2-1.7-0.6-2c-0.4-0.3-0.9-0.4-1.4-0.2s-1,0.6-1.4,1.2c-0.4,0.6-0.6,1.4-0.6,2.4V213.4z"/>
				<path class="st12" d="M217.7,207.4c0,0.9-0.1,1.8-0.4,2.6c-0.2,0.9-0.6,1.7-1,2.4s-0.9,1.4-1.5,1.9s-1.2,0.9-1.8,1.1
					c-0.6,0.2-1.1,0.3-1.7,0.2s-1.1-0.2-1.5-0.6c-0.5-0.4-0.8-0.9-1.1-1.7s-0.4-1.8-0.4-3.1v-15.7c0-0.9,0.1-1.8,0.3-2.7
					s0.6-1.7,1-2.4s0.9-1.4,1.5-1.9s1.2-0.9,1.9-1.1c0.7-0.2,1.3-0.3,1.9-0.1c0.6,0.1,1.1,0.4,1.5,0.9s0.7,1.1,1,1.8
					c0.2,0.8,0.4,1.6,0.4,2.6v1.6l-2.9,1V193c0-0.8-0.2-1.4-0.5-1.9s-0.8-0.6-1.3-0.4c-0.7,0.2-1.2,0.7-1.4,1.4s-0.4,1.5-0.4,2.5
					v14.6c0,0.8,0.1,1.5,0.4,2s0.7,0.6,1.4,0.4c0.2-0.1,0.4-0.2,0.6-0.3s0.4-0.4,0.6-0.7s0.3-0.6,0.4-1s0.2-0.9,0.2-1.5v-1.4l2.9-1
					L217.7,207.4L217.7,207.4L217.7,207.4z"/>
				<path class="st12" d="M220.6,184.2l8.7-2.9v3.9l-5.8,1.9v8.4l5-1.7v3.9l-5,1.7v8.4l5.8-1.9v4.1l-8.7,2.9V184.2z"/>
				<path class="st12" d="M241.2,185.6l-2.9,1v-0.9c0-0.9-0.2-1.7-0.5-2.3s-0.8-0.7-1.6-0.5c-0.4,0.1-0.7,0.3-1,0.6s-0.5,0.6-0.6,1
					s-0.2,0.8-0.3,1.3s-0.1,0.9-0.1,1.4c0,0.6,0,1,0,1.4s0.1,0.7,0.2,0.9s0.3,0.4,0.5,0.6c0.2,0.1,0.5,0.3,0.9,0.3l2.2,0.5
					c0.6,0.1,1.2,0.4,1.6,0.7s0.7,0.8,0.9,1.3c0.2,0.6,0.4,1.2,0.4,2c0.1,0.8,0.1,1.7,0.1,2.7c0,1.2-0.1,2.3-0.3,3.4
					c-0.2,1.1-0.5,2.1-0.8,2.9c-0.4,0.9-0.9,1.6-1.6,2.3c-0.6,0.6-1.4,1.1-2.4,1.4c-0.7,0.2-1.4,0.3-2,0.1c-0.6-0.1-1.1-0.4-1.6-0.9
					c-0.4-0.5-0.8-1.1-1-1.8c-0.3-0.7-0.4-1.6-0.4-2.6v-1.5l2.9-1v1.3c0,0.8,0.2,1.4,0.5,1.9s0.8,0.6,1.6,0.4
					c0.5-0.2,0.9-0.4,1.2-0.7s0.5-0.6,0.6-1.1s0.2-0.9,0.3-1.4c0-0.5,0.1-1.1,0.1-1.8s0-1.4-0.1-1.8c0-0.5-0.1-0.8-0.2-1.1
					s-0.3-0.4-0.5-0.6c-0.2-0.1-0.5-0.2-0.9-0.3l-2.1-0.5c-1.3-0.3-2.1-1-2.5-2s-0.6-2.5-0.6-4.3c0-1.1,0.1-2.1,0.3-3.2
					c0.2-1,0.5-2,0.9-2.8s0.9-1.6,1.6-2.2c0.6-0.6,1.4-1.1,2.2-1.4c0.7-0.2,1.4-0.3,2-0.1s1.1,0.5,1.5,1s0.8,1.1,1,1.7
					c0.2,0.7,0.3,1.4,0.3,2.2v2.5L241.2,185.6L241.2,185.6z"/>
				<path class="st12" d="M253.3,181.6l-2.9,1v-0.9c0-0.9-0.2-1.7-0.5-2.3s-0.8-0.7-1.6-0.5c-0.4,0.1-0.7,0.3-1,0.6s-0.5,0.6-0.6,1
					s-0.2,0.8-0.3,1.3s-0.1,0.9-0.1,1.4c0,0.6,0,1,0,1.4s0.1,0.7,0.2,0.9s0.3,0.4,0.5,0.6s0.5,0.3,0.9,0.3l2.2,0.5
					c0.6,0.1,1.2,0.4,1.6,0.7s0.7,0.8,0.9,1.3c0.2,0.6,0.4,1.2,0.4,2c0.1,0.8,0.1,1.7,0.1,2.8c0,1.2-0.1,2.3-0.3,3.4
					c-0.2,1.1-0.5,2.1-0.8,2.9c-0.4,0.9-0.9,1.6-1.6,2.3c-0.6,0.6-1.4,1.1-2.4,1.4c-0.7,0.2-1.4,0.3-2,0.1c-0.6-0.1-1.1-0.4-1.6-0.9
					c-0.4-0.5-0.8-1.1-1-1.8c-0.3-0.7-0.4-1.6-0.4-2.6V197l2.9-1v1.3c0,0.7,0.2,1.4,0.5,1.9s0.8,0.6,1.6,0.4
					c0.5-0.2,0.9-0.4,1.2-0.7s0.5-0.6,0.6-1s0.2-0.9,0.3-1.4c0-0.5,0.1-1.1,0.1-1.8s0-1.4-0.1-1.8c0-0.5-0.1-0.8-0.2-1.1
					s-0.3-0.4-0.5-0.6c-0.2-0.1-0.5-0.2-0.9-0.3l-2.1-0.5c-1.3-0.3-2.1-1-2.5-2s-0.6-2.5-0.6-4.3c0-1.1,0.1-2.1,0.3-3.2
					c0.2-1,0.5-2,0.9-2.8s0.9-1.6,1.6-2.2s1.4-1.1,2.2-1.4c0.7-0.2,1.4-0.3,2-0.1s1.1,0.5,1.5,1s0.8,1.1,1,1.7
					c0.2,0.7,0.3,1.4,0.3,2.2v2.3L253.3,181.6L253.3,181.6z"/>
				<path class="st12" d="M256.1,172.4l2.9-1V200l-2.9,1V172.4z"/>
				<path class="st12" d="M262.3,170.4l2.8-0.9l4.4,15.7h0.1V168l2.9-1v28.6l-2.7,0.9l-4.5-15.7h-0.1V198l-2.9,1L262.3,170.4
					L262.3,170.4z"/>
				<path class="st12" d="M275.5,172.7c0-1.1,0.1-2.2,0.4-3.2s0.7-1.8,1.1-2.6c0.5-0.7,1-1.3,1.6-1.8s1.2-0.8,1.8-1
					c0.6-0.2,1.2-0.2,1.8-0.1c0.6,0.1,1.1,0.4,1.6,0.8c0.5,0.4,0.8,1,1.1,1.8c0.3,0.8,0.4,1.8,0.4,2.9v1.4l-2.9,1v-1.4
					c0-1-0.2-1.7-0.6-2s-0.9-0.4-1.4-0.2s-1,0.6-1.4,1.2c-0.4,0.6-0.6,1.4-0.6,2.4V187c0,1,0.2,1.7,0.6,2s0.9,0.4,1.4,0.2
					s1-0.6,1.4-1.2c0.4-0.6,0.6-1.4,0.6-2.4v-5.4l-2.3,0.8v-3.6l5.2-1.7v9c0,1.2-0.1,2.2-0.4,3.2s-0.7,1.8-1.1,2.5
					c-0.5,0.7-1,1.3-1.6,1.8s-1.2,0.8-1.8,1s-1.2,0.2-1.8,0.1s-1.1-0.4-1.6-0.8c-0.5-0.4-0.8-1-1.1-1.8c-0.3-0.8-0.4-1.7-0.4-2.9
					L275.5,172.7L275.5,172.7z"/>
				<path class="st12" d="M294.4,159.7l2.9-1v28.6l-2.9,1V159.7z"/>
				<path class="st12" d="M300.6,157.6l2.8-0.9l4.4,15.7h0.1v-17.2l2.9-1v28.6l-2.7,0.9l-4.5-15.7h-0.1v17.2l-2.9,1L300.6,157.6
					L300.6,157.6z"/>
				<path class="st12" d="M323.4,158.3l-2.9,1v-0.9c0-0.9-0.2-1.7-0.5-2.3s-0.8-0.7-1.6-0.5c-0.4,0.1-0.7,0.3-1,0.6s-0.5,0.6-0.6,1
					s-0.2,0.8-0.3,1.3c-0.1,0.5-0.1,0.9-0.1,1.4c0,0.6,0,1,0,1.4s0.1,0.7,0.2,0.9s0.3,0.4,0.5,0.6s0.5,0.3,0.9,0.3l2.2,0.5
					c0.6,0.1,1.2,0.4,1.6,0.7s0.7,0.8,0.9,1.3c0.2,0.6,0.4,1.2,0.4,2c0.1,0.8,0.1,1.7,0.1,2.7c0,1.2-0.1,2.3-0.3,3.4
					c-0.2,1.1-0.5,2.1-0.8,2.9c-0.4,0.9-0.9,1.6-1.6,2.3c-0.6,0.6-1.4,1.1-2.4,1.4c-0.7,0.2-1.4,0.3-2,0.1s-1.1-0.4-1.6-0.9
					c-0.4-0.5-0.8-1.1-1-1.8c-0.3-0.7-0.4-1.6-0.4-2.6v-1.5l2.9-1v1.3c0,0.7,0.2,1.4,0.5,1.9s0.8,0.6,1.6,0.4
					c0.5-0.2,0.9-0.4,1.2-0.7c0.3-0.3,0.5-0.6,0.6-1.1c0.1-0.4,0.2-0.9,0.3-1.4c0-0.5,0.1-1.1,0.1-1.8s0-1.4-0.1-1.8
					c0-0.5-0.1-0.8-0.2-1.1s-0.3-0.4-0.5-0.6c-0.2-0.1-0.5-0.2-0.9-0.3l-2.1-0.5c-1.3-0.3-2.1-1-2.5-2s-0.6-2.5-0.6-4.3
					c0-1.1,0.1-2.1,0.3-3.2c0.2-1,0.5-2,0.9-2.8s0.9-1.6,1.6-2.2s1.4-1.1,2.2-1.4c0.7-0.2,1.4-0.3,2-0.1s1.1,0.5,1.5,1
					s0.8,1.1,1,1.7c0.2,0.7,0.3,1.4,0.3,2.2v2.5L323.4,158.3L323.4,158.3z"/>
				<path class="st12" d="M326.2,149.1l2.9-1v28.6l-2.9,1V149.1z"/>
				<path class="st12" d="M332.5,147l4.3-1.4c1.7-0.6,2.9-0.3,3.8,0.7s1.3,2.7,1.3,5v13.4c0,2.7-0.5,4.8-1.4,6.4
					c-0.9,1.6-2.3,2.7-4,3.2l-4.1,1.3V147H332.5z M335.4,170.8l1.3-0.4c0.8-0.3,1.4-0.8,1.7-1.4c0.3-0.7,0.5-1.6,0.5-2.9v-13.8
					c0-1.1-0.2-1.9-0.5-2.4s-0.9-0.6-1.8-0.3l-1.3,0.4L335.4,170.8L335.4,170.8z"/>
				<path class="st12" d="M345.2,142.8l8.7-2.9v3.9l-5.8,1.9v8.4l5-1.7v3.9l-5,1.7v8.4l5.8-1.9v4.1l-8.7,2.9V142.8z"/>
			</g>
		</g>
	</g>
</g>
</svg>
