<svg xmlns="http://www.w3.org/2000/svg" width="1074.88" height="321.57" viewBox="0 0 1074.88 321.57">
  <defs>
    <style>
      .a, .d {
        fill: none;
      }

      .a, .b, .c {
        stroke: #fff;
      }

      .a, .b, .c, .d {
        stroke-linecap: round;
        stroke-linejoin: round;
        stroke-width: 1.25px;
      }

      .b {
        fill: #762af3;
      }

      .c {
        fill: #fff;
      }

      .d {
        stroke: #762af3;
      }
    </style>
  </defs>
  <title>cost-effective-animation]</title>
  <g>
    <line class="a" x1="148.87" y1="169.43" x2="273.9" y2="231.94"/>
    <line class="a" x1="46.2" y1="216.1" x2="255.9" y2="320.94"/>
    <line class="a" x1="237.94" y1="225.87" x2="143.2" y2="257.46"/>
    <line class="a" x1="0.62" y1="305.01" x2="128.58" y2="262.34"/>
    <polygon class="b" points="204.07 222.29 242.09 222.29 242.09 241.39 204.07 222.29"/>
    <line class="a" x1="1070.09" y1="225.97" x2="909.17" y2="279.64"/>
    <polygon class="b" points="1036.23 222.39 1074.25 222.39 1074.25 241.49 1036.23 222.39"/>
    <g>
      <polyline class="b" points="225.88 84.76 225.88 185.38 225.88 185.36 210.54 190.48 196.77 183.59 196.77 82.99"/>
      <polygon class="b" points="210.54 89.88 225.88 84.76 212.11 77.88 196.77 82.99 210.54 89.88"/>
      <line class="a" x1="210.54" y1="89.88" x2="210.54" y2="190.48"/>
    </g>
    <g>
      <polyline class="b" points="243.31 93.42 243.31 194.03 243.31 194.02 227.97 199.13 214.19 192.25 214.19 91.65"/>
      <polygon class="b" points="227.97 98.53 243.31 93.42 229.53 86.53 214.19 91.65 227.97 98.53"/>
      <line class="a" x1="227.96" y1="98.53" x2="227.96" y2="199.13"/>
    </g>
    <g>
      <polyline class="b" points="260.73 102.11 260.73 202.72 260.73 202.71 245.39 207.82 231.62 200.94 231.62 100.34"/>
      <polygon class="b" points="245.39 107.22 260.73 102.11 246.96 95.22 231.62 100.34 245.39 107.22"/>
      <line class="a" x1="245.39" y1="107.22" x2="245.39" y2="207.82"/>
    </g>
    <g>
      <polyline class="c" points="295.58 178.37 295.58 220.2 295.58 220.19 280.24 225.31 266.47 218.42 266.47 176.59"/>
      <polygon class="b" points="280.24 183.48 295.58 178.37 281.81 171.48 266.47 176.59 280.24 183.48"/>
      <line class="d" x1="280.24" y1="184.88" x2="280.24" y2="225.31"/>
    </g>
    <g>
      <polyline class="c" points="313.01 161.89 313.01 228.93 313.01 228.92 297.67 234.03 283.89 227.15 283.89 160.12"/>
      <polygon class="b" points="297.67 167.01 313.01 161.89 299.24 155.01 283.89 160.12 297.67 167.01"/>
      <line class="d" x1="297.67" y1="168.13" x2="297.67" y2="234.03"/>
    </g>
    <g>
      <polyline class="c" points="330.44 212.59 330.44 237.63 330.44 237.62 315.09 242.73 301.32 235.85 301.32 210.82"/>
      <polygon class="b" points="315.09 217.71 330.44 212.59 316.66 205.7 301.32 210.82 315.09 217.71"/>
      <line class="d" x1="315.09" y1="218.82" x2="315.09" y2="242.73"/>
    </g>
    <g>
      <polyline class="b" points="108.28 142.65 108.28 224.59 108.28 224.58 92.94 229.7 79.17 222.81 79.17 140.88"/>
      <polygon class="b" points="92.94 147.77 108.28 142.65 94.51 135.76 79.17 140.88 92.94 147.77"/>
      <line class="a" x1="92.94" y1="147.77" x2="92.94" y2="229.7"/>
    </g>
    <g>
      <polyline class="b" points="125.71 151.31 125.71 233.25 125.71 233.24 110.37 238.35 96.59 231.47 96.59 149.54"/>
      <polygon class="b" points="110.37 156.42 125.71 151.31 111.94 144.42 96.59 149.54 110.37 156.42"/>
      <line class="a" x1="110.37" y1="156.42" x2="110.37" y2="238.35"/>
    </g>
    <g>
      <polyline class="b" points="143.14 160 143.14 241.94 143.14 241.93 127.79 247.04 114.02 240.16 114.02 158.23"/>
      <polygon class="b" points="127.79 165.11 143.14 160 129.36 153.11 114.02 158.23 127.79 165.11"/>
      <line class="a" x1="127.79" y1="165.11" x2="127.79" y2="247.04"/>
    </g>
    <g>
      <polyline class="c" points="177.99 192.39 177.99 259.42 177.99 259.41 162.64 264.53 148.87 257.64 148.87 190.62"/>
      <polygon class="b" points="162.64 197.5 177.99 192.39 164.21 185.5 148.87 190.62 162.64 197.5"/>
      <line class="d" x1="162.64" y1="198.9" x2="162.64" y2="264.53"/>
    </g>
    <g>
      <polyline class="c" points="195.41 231.91 195.41 268.15 195.41 268.14 180.07 273.25 166.3 266.37 166.3 230.14"/>
      <polygon class="b" points="180.07 237.02 195.41 231.91 181.64 225.02 166.3 230.14 180.07 237.02"/>
      <line class="d" x1="180.07" y1="238.14" x2="180.07" y2="273.25"/>
    </g>
    <g>
      <polyline class="c" points="212.84 246.21 212.84 276.85 212.84 276.84 197.5 281.95 183.72 275.07 183.72 244.44"/>
      <polygon class="b" points="197.5 251.32 212.84 246.21 199.06 239.32 183.72 244.44 197.5 251.32"/>
      <line class="d" x1="197.5" y1="252.44" x2="197.5" y2="281.95"/>
    </g>
    <line class="c" x1="883.52" y1="177.42" x2="1009.9" y2="240.6"/>
    <line class="a" x1="1020.83" y1="174.58" x2="1063.82" y2="160.24"/>
    <polygon class="b" points="1025.34 160.15 1064.07 160.15 1064.07 179.61 1025.34 160.15"/>
    <g>
      <polyline class="b" points="909.17 7.64 909.17 167.22 909.17 167.21 893.54 172.42 879.5 165.4 879.5 5.83"/>
      <polygon class="b" points="893.54 12.85 909.17 7.64 895.13 0.62 879.5 5.83 893.54 12.85"/>
      <line class="a" x1="893.54" y1="12.85" x2="893.54" y2="172.42"/>
    </g>
    <g>
      <polyline class="b" points="926.92 16.46 926.92 176.04 926.92 176.03 911.29 181.24 897.26 174.22 897.26 14.65"/>
      <polygon class="b" points="911.29 21.67 926.92 16.46 912.89 9.44 897.26 14.65 911.29 21.67"/>
      <line class="a" x1="911.29" y1="21.67" x2="911.29" y2="181.24"/>
    </g>
    <g>
      <polyline class="b" points="944.68 25.32 944.68 184.9 944.68 184.88 929.04 190.09 915.01 183.08 915.01 23.51"/>
      <polygon class="b" points="929.04 30.53 944.68 25.32 930.64 18.3 915.01 23.51 929.04 30.53"/>
      <line class="a" x1="929.04" y1="30.53" x2="929.04" y2="190.1"/>
    </g>
    <g>
      <polyline class="c" points="980.19 177.19 980.19 202.71 980.19 202.7 964.55 207.91 950.52 200.89 950.52 175.39"/>
      <polygon class="b" points="964.55 182.41 980.19 177.19 966.15 170.18 950.52 175.39 964.55 182.41"/>
      <line class="d" x1="964.55" y1="183.83" x2="964.55" y2="207.91"/>
    </g>
    <g>
      <polyline class="c" points="997.94 171.82 997.94 211.6 997.94 211.59 982.31 216.8 968.27 209.78 968.27 170.02"/>
      <polygon class="b" points="982.31 177.03 997.94 171.82 983.91 164.81 968.27 170.02 982.31 177.03"/>
      <line class="d" x1="982.31" y1="178.46" x2="982.31" y2="216.8"/>
    </g>
    <g>
      <polyline class="c" points="1015.7 140.75 1015.7 220.46 1015.7 220.45 1000.06 225.66 986.03 218.65 986.03 138.95"/>
      <polygon class="b" points="1000.06 145.96 1015.7 140.75 1001.66 133.74 986.03 138.95 1000.06 145.96"/>
      <line class="d" x1="1000.06" y1="147.39" x2="1000.06" y2="225.66"/>
    </g>
  </g>
</svg>
