<?xml version="1.0" encoding="utf-8"?>
<!-- Generator: Adobe Illustrator 19.2.1, SVG Export Plug-In . SVG Version: 6.00 Build 0)  -->
<svg version="1.1" id="Layer_1" xmlns="http://www.w3.org/2000/svg" xmlns:xlink="http://www.w3.org/1999/xlink" x="0px" y="0px"
	 viewBox="0 0 1152 145" style="enable-background:new 0 0 1152 145;" xml:space="preserve" width="1152" height="145">
<style type="text/css">
	.st0{fill:none;}
	.st1{fill:#7629F4;}
	.st2{fill:#FFFFFF;}
</style>
<title>cost-effective-graph</title>
<g>
	<path class="st0" d="M38.4,5.2c0,0.8-0.2,1.6-0.6,2.3l18.7,9.4c0.9-1.7,2.6-2.9,4.6-2.9s3.8,1.2,4.6,2.9l18.7-9.4
		C84.2,6.8,84,6,84,5.2C84,2.3,86.3,0,89.2,0h-56C36.1,0,38.4,2.3,38.4,5.2z"/>
	<path class="st0" d="M94.4,5.2c0,1.8-0.9,3.4-2.3,4.3l22.2,33.3c0.8-0.6,1.8-0.9,2.9-0.9c1.4,0,2.7,0.6,3.7,1.5l20.6-20.6
		c-0.9-0.9-1.5-2.2-1.5-3.7c0-2.9,2.3-5.2,5.2-5.2s5.2,2.3,5.2,5.2H168c0-2.9,2.3-5.2,5.2-5.2s5.2,2.3,5.2,5.2H196
		c0-2.9,2.3-5.2,5.2-5.2s5.2,2.3,5.2,5.2c0,1.8-0.9,3.4-2.3,4.3l22.2,33.3c0.8-0.5,1.8-0.9,2.9-0.9c2.9,0,5.2,2.3,5.2,5.2H252
		c0-2.9,2.3-5.2,5.2-5.2c2,0,3.8,1.2,4.6,2.9l18.7-9.4c-0.4-0.7-0.6-1.5-0.6-2.3c0-2.9,2.3-5.2,5.2-5.2s5.2,2.3,5.2,5.2
		c0,1.8-0.9,3.4-2.3,4.3l22.2,33.3c0.8-0.6,1.8-0.9,2.9-0.9c2.9,0,5.2,2.3,5.2,5.2H336c0-2.9,2.3-5.2,5.2-5.2c0.7,0,1.3,0.1,1.9,0.4
		L367.3,24c-1.9-0.8-3.3-2.6-3.3-4.8c0-2.9,2.3-5.2,5.2-5.2s5.2,2.3,5.2,5.2H392c0-2.9,2.3-5.2,5.2-5.2s5.2,2.3,5.2,5.2
		c0,2.4-1.6,4.4-3.8,5l25.2,88c0.5-0.1,0.9-0.2,1.4-0.2c2,0,3.8,1.2,4.6,2.9l18.7-9.4c-0.4-0.7-0.6-1.5-0.6-2.3
		c0-2.9,2.3-5.2,5.2-5.2s5.2,2.3,5.2,5.2c0,0.8-0.2,1.6-0.6,2.3l18.7,9.4c0.9-1.7,2.6-2.9,4.6-2.9c0.8,0,1.6,0.2,2.3,0.6l23.4-46.7
		c-1.7-0.9-2.9-2.6-2.9-4.6c0-2.9,2.3-5.2,5.2-5.2s5.2,2.3,5.2,5.2H532c0-2.9,2.3-5.2,5.2-5.2c0.8,0,1.6,0.2,2.3,0.6l23.4-46.7
		C561.2,9,560,7.2,560,5.2c0-2.9,2.3-5.2,5.2-5.2h-476C92.1,0,94.4,2.3,94.4,5.2z"/>
	<path class="st0" d="M5.2,56c0.8,0,1.6,0.2,2.3,0.6L30.9,9.8C29.2,9,28,7.2,28,5.2C28,2.3,30.3,0,33.2,0H0v61.2
		C0,58.3,2.3,56,5.2,56z"/>
	<path class="st0" d="M565.2,0c2.9,0,5.2,2.3,5.2,5.2c0,1.4-0.6,2.7-1.5,3.7l20.6,20.6c0.9-0.9,2.2-1.5,3.7-1.5c2,0,3.8,1.2,4.6,2.9
		l18.7-9.4c-0.4-0.7-0.6-1.5-0.6-2.3c0-2.9,2.3-5.2,5.2-5.2s5.2,2.3,5.2,5.2c0,2.2-1.4,4.1-3.3,4.8l24.1,60.4
		c0.6-0.2,1.2-0.4,1.9-0.4c1.4,0,2.7,0.6,3.7,1.5l20.6-20.6c-0.9-0.9-1.5-2.2-1.5-3.7c0-2.9,2.3-5.2,5.2-5.2s5.2,2.3,5.2,5.2
		c0,1.8-0.9,3.4-2.3,4.3l22.2,33.3c0.8-0.6,1.8-0.9,2.9-0.9c0.7,0,1.3,0.1,1.9,0.4L731.3,38c-1.9-0.8-3.3-2.6-3.3-4.8
		c0-2.9,2.3-5.2,5.2-5.2s5.2,2.3,5.2,5.2c0,1.4-0.6,2.7-1.5,3.7l20.6,20.6c0.9-0.9,2.2-1.5,3.7-1.5c1.1,0,2.1,0.3,2.9,0.9l22.2-33.3
		c-1.4-0.9-2.3-2.5-2.3-4.3c0-2.9,2.3-5.2,5.2-5.2s5.2,2.3,5.2,5.2c0,1.4-0.6,2.7-1.5,3.7l20.6,20.6c0.9-0.9,2.2-1.5,3.7-1.5
		c2.9,0,5.2,2.3,5.2,5.2H840c0-2.9,2.3-5.2,5.2-5.2s5.2,2.3,5.2,5.2c0,2-1.2,3.8-2.9,4.6l23.4,46.7c0.7-0.4,1.5-0.6,2.3-0.6
		c0.7,0,1.3,0.1,1.9,0.4L899.3,38c-1.9-0.8-3.3-2.6-3.3-4.8c0-2.9,2.3-5.2,5.2-5.2c2,0,3.8,1.2,4.6,2.9l18.7-9.4
		c-0.4-0.7-0.6-1.5-0.6-2.3c0-2.9,2.3-5.2,5.2-5.2c2.9,0,5.2,2.3,5.2,5.2c0,0,0,0,0,0c0,2-1.2,3.8-2.9,4.6l23.4,46.7
		c0.7-0.4,1.5-0.6,2.3-0.6c2.9,0,5.2,2.3,5.2,5.2H980v0c0-2.9,2.3-5.2,5.2-5.2c2,0,3.8,1.2,4.6,2.9l18.7-9.4
		c-0.4-0.7-0.6-1.5-0.6-2.3c0-2.9,2.3-5.2,5.2-5.2c2.9,0,5.2,2.3,5.2,5.2c0,0,0,0,0,0c0,0.8-0.2,1.6-0.6,2.3l18.7,9.4
		c0.9-1.7,2.6-2.9,4.6-2.9c2.9,0,5.2,2.3,5.2,5.2c0,0,0,0,0,0c0,1.8-0.9,3.4-2.3,4.3l22.2,33.4c0.8-0.6,1.8-0.9,2.9-0.9
		s2.1,0.3,2.9,0.9l22.2-33.4c-1.4-0.9-2.3-2.5-2.3-4.3c0-2.9,2.3-5.2,5.2-5.2c2,0,3.8,1.2,4.6,2.9l18.7-9.4
		c-0.4-0.7-0.6-1.5-0.6-2.3c0-2.9,2.3-5.2,5.2-5.2c2.9,0,5.2,2.3,5.2,5.2h21.8V0H565.2z"/>
	<path class="st1" d="M1130.4,61.2C1130.4,61.2,1130.4,61.2,1130.4,61.2c0,2.9-2.3,5.2-5.2,5.2c-2,0-3.8-1.2-4.6-2.9l-18.7,9.4
		c0.4,0.7,0.6,1.5,0.6,2.3c0,0,0,0,0,0c0,2.9-2.3,5.2-5.2,5.2c0,0,0,0,0,0c-1.1,0-2.1-0.3-2.9-0.9l-22.2,33.4
		c1.4,0.9,2.3,2.5,2.3,4.3c0,0,0,0,0,0c0,2.9-2.3,5.2-5.2,5.2c-2.9,0-5.2-2.3-5.2-5.2c0-1.8,0.9-3.4,2.3-4.3l-22.2-33.4
		c-0.8,0.6-1.8,0.9-2.9,0.9c-2.9,0-5.2-2.3-5.2-5.2c0-0.8,0.2-1.6,0.6-2.3l-18.7-9.4c-0.9,1.7-2.6,2.9-4.6,2.9c-2,0-3.8-1.2-4.6-2.9
		l-18.7,9.4c0.4,0.7,0.6,1.5,0.6,2.3c0,0,0,0,0,0c0,2.9-2.3,5.2-5.2,5.2c-2.9,0-5.2-2.3-5.2-5.2h-17.6c0,0,0,0,0,0
		c0,2.9-2.3,5.2-5.2,5.2c-2.9,0-5.2-2.3-5.2-5.2c0-2,1.2-3.8,2.9-4.6l-23.4-46.7c-0.7,0.4-1.5,0.6-2.3,0.6c-2,0-3.8-1.2-4.6-2.9
		l-18.7,9.4c0.4,0.7,0.6,1.5,0.6,2.3c0,2.9-2.3,5.2-5.2,5.2c-0.7,0-1.3-0.1-1.9-0.4l-24.1,60.4c1.9,0.8,3.3,2.6,3.3,4.8
		c0,2.9-2.3,5.2-5.2,5.2c-2.9,0-5.2-2.3-5.2-5.2c0-2,1.2-3.8,2.9-4.6l-23.4-46.7c-0.7,0.4-1.5,0.6-2.3,0.6c-2.9,0-5.2-2.3-5.2-5.2
		h-17.6c0,2.9-2.3,5.2-5.2,5.2c-2.9,0-5.2-2.3-5.2-5.2c0-1.4,0.6-2.7,1.5-3.7l-20.6-20.6c-0.9,0.9-2.2,1.5-3.7,1.5
		c-1.1,0-2.1-0.3-2.9-0.9l-22.2,33.3c1.4,0.9,2.3,2.5,2.3,4.3c0,2.9-2.3,5.2-5.2,5.2c-2.9,0-5.2-2.3-5.2-5.2c0-1.4,0.6-2.7,1.5-3.7
		l-20.6-20.6c-0.9,0.9-2.2,1.5-3.7,1.5c-0.7,0-1.3-0.1-1.9-0.4l-24.1,60.4c1.9,0.8,3.3,2.6,3.3,4.8c0,2.9-2.3,5.2-5.2,5.2
		c-2.9,0-5.2-2.3-5.2-5.2c0-1.8,0.9-3.4,2.3-4.3l-22.2-33.3c-0.8,0.6-1.8,0.9-2.9,0.9c-1.4,0-2.7-0.6-3.7-1.5l-20.6,20.6
		c0.9,0.9,1.5,2.2,1.5,3.7c0,2.9-2.3,5.2-5.2,5.2c-2.9,0-5.2-2.3-5.2-5.2c0-2.2,1.4-4.1,3.3-4.8L623.1,24c-0.6,0.2-1.2,0.4-1.9,0.4
		c-2,0-3.8-1.2-4.6-2.9l-18.7,9.4c0.4,0.7,0.6,1.5,0.6,2.3c0,2.9-2.3,5.2-5.2,5.2c-2.9,0-5.2-2.3-5.2-5.2c0-1.4,0.6-2.7,1.5-3.7
		L568.9,8.9c-0.9,0.9-2.2,1.5-3.7,1.5c-0.8,0-1.6-0.2-2.3-0.6l-23.4,46.7c1.7,0.9,2.9,2.6,2.9,4.6c0,2.9-2.3,5.2-5.2,5.2
		c-2.9,0-5.2-2.3-5.2-5.2h-17.6c0,2.9-2.3,5.2-5.2,5.2c-0.8,0-1.6-0.2-2.3-0.6l-23.4,46.7c1.7,0.9,2.9,2.6,2.9,4.6
		c0,2.9-2.3,5.2-5.2,5.2c-2.9,0-5.2-2.3-5.2-5.2c0-0.8,0.2-1.6,0.6-2.3l-18.7-9.4c-0.9,1.7-2.6,2.9-4.6,2.9c-2,0-3.8-1.2-4.6-2.9
		l-18.7,9.4c0.4,0.7,0.6,1.5,0.6,2.3c0,2.9-2.3,5.2-5.2,5.2c-2.9,0-5.2-2.3-5.2-5.2c0-2.4,1.6-4.4,3.8-5l-25.2-88
		c-0.5,0.1-0.9,0.2-1.4,0.2c-2.9,0-5.2-2.3-5.2-5.2h-17.6c0,2.9-2.3,5.2-5.2,5.2c-0.7,0-1.3-0.1-1.9-0.4l-24.1,60.4
		c1.9,0.8,3.3,2.6,3.3,4.8c0,2.9-2.3,5.2-5.2,5.2c-2.9,0-5.2-2.3-5.2-5.2h-17.6c0,2.9-2.3,5.2-5.2,5.2c-2.9,0-5.2-2.3-5.2-5.2
		c0-1.8,0.9-3.4,2.3-4.3l-22.2-33.3c-0.8,0.6-1.8,0.9-2.9,0.9c-2,0-3.8-1.2-4.6-2.9l-18.7,9.4c0.4,0.7,0.6,1.5,0.6,2.3
		c0,2.9-2.3,5.2-5.2,5.2c-2.9,0-5.2-2.3-5.2-5.2h-17.6c0,2.9-2.3,5.2-5.2,5.2c-2.9,0-5.2-2.3-5.2-5.2c0-1.8,0.9-3.4,2.3-4.3
		l-22.2-33.3c-0.8,0.6-1.8,0.9-2.9,0.9c-2.9,0-5.2-2.3-5.2-5.2h-17.6c0,2.9-2.3,5.2-5.2,5.2c-2.9,0-5.2-2.3-5.2-5.2h-17.6
		c0,2.9-2.3,5.2-5.2,5.2c-1.4,0-2.7-0.6-3.7-1.5l-20.6,20.6c0.9,0.9,1.5,2.2,1.5,3.7c0,2.9-2.3,5.2-5.2,5.2s-5.2-2.3-5.2-5.2
		c0-1.8,0.9-3.4,2.3-4.3L92.1,9.5c-0.8,0.6-1.8,0.9-2.9,0.9c-2,0-3.8-1.2-4.6-2.9l-18.7,9.4c0.4,0.7,0.6,1.5,0.6,2.3
		c0,2.9-2.3,5.2-5.2,5.2S56,22.1,56,19.2c0-0.8,0.2-1.6,0.6-2.3L37.8,7.5c-0.9,1.7-2.6,2.9-4.6,2.9c-0.8,0-1.6-0.2-2.3-0.6L7.5,56.6
		c1.7,0.9,2.9,2.6,2.9,4.6c0,2.9-2.3,5.2-5.2,5.2S0,64.1,0,61.2v84h1097.2h3.5h51.5v-84H1130.4z"/>
	<circle class="st2" cx="397.2" cy="19.2" r="3.2"/>
	<path class="st1" d="M402.4,19.2c0-2.9-2.3-5.2-5.2-5.2s-5.2,2.3-5.2,5.2s2.3,5.2,5.2,5.2c0.5,0,1-0.1,1.4-0.2
		C400.8,23.6,402.4,21.6,402.4,19.2z M397.2,16c1.8,0,3.2,1.4,3.2,3.2c0,1.8-1.4,3.2-3.2,3.2c-1.8,0-3.2-1.4-3.2-3.2
		S395.4,16,397.2,16z"/>
	<circle class="st2" cx="425.2" cy="117.2" r="3.2"/>
	<path class="st1" d="M425.2,112c-0.5,0-1,0.1-1.4,0.2c-2.2,0.6-3.8,2.6-3.8,5c0,2.9,2.3,5.2,5.2,5.2c2.9,0,5.2-2.3,5.2-5.2
		c0-0.8-0.2-1.6-0.6-2.3C429,113.2,427.2,112,425.2,112z M428.4,117.2c0,1.8-1.4,3.2-3.2,3.2c-1.8,0-3.2-1.4-3.2-3.2
		c0-1.8,1.4-3.2,3.2-3.2S428.4,115.4,428.4,117.2z"/>
	<circle class="st2" cx="453.2" cy="103.2" r="3.2"/>
	<path class="st1" d="M453.2,98c-2.9,0-5.2,2.3-5.2,5.2c0,0.8,0.2,1.6,0.6,2.3c0.9,1.7,2.6,2.9,4.6,2.9c2,0,3.8-1.2,4.6-2.9
		c0.4-0.7,0.6-1.5,0.6-2.3C458.4,100.3,456.1,98,453.2,98z M453.2,106.4c-1.8,0-3.2-1.4-3.2-3.2c0-1.8,1.4-3.2,3.2-3.2
		s3.2,1.4,3.2,3.2C456.4,105,455,106.4,453.2,106.4z"/>
	<circle class="st2" cx="481.2" cy="117.2" r="3.2"/>
	<path class="st1" d="M476.6,114.9c-0.4,0.7-0.6,1.5-0.6,2.3c0,2.9,2.3,5.2,5.2,5.2c2.9,0,5.2-2.3,5.2-5.2c0-2-1.2-3.8-2.9-4.6
		c-0.7-0.4-1.5-0.6-2.3-0.6C479.2,112,477.4,113.2,476.6,114.9z M481.2,120.4c-1.8,0-3.2-1.4-3.2-3.2c0-1.8,1.4-3.2,3.2-3.2
		s3.2,1.4,3.2,3.2C484.4,119,483,120.4,481.2,120.4z"/>
	<circle class="st2" cx="509.2" cy="61.2" r="3.2"/>
	<path class="st1" d="M509.2,56c-2.9,0-5.2,2.3-5.2,5.2c0,2,1.2,3.8,2.9,4.6c0.7,0.4,1.5,0.6,2.3,0.6c2.9,0,5.2-2.3,5.2-5.2
		S512.1,56,509.2,56z M509.2,64.4c-1.8,0-3.2-1.4-3.2-3.2s1.4-3.2,3.2-3.2s3.2,1.4,3.2,3.2C512.4,63,511,64.4,509.2,64.4z"/>
	<circle class="st2" cx="537.2" cy="61.2" r="3.2"/>
	<path class="st1" d="M532,61.2c0,2.9,2.3,5.2,5.2,5.2c2.9,0,5.2-2.3,5.2-5.2c0-2-1.2-3.8-2.9-4.6c-0.7-0.4-1.5-0.6-2.3-0.6
		C534.3,56,532,58.3,532,61.2z M537.2,64.4c-1.8,0-3.2-1.4-3.2-3.2s1.4-3.2,3.2-3.2s3.2,1.4,3.2,3.2C540.4,63,539,64.4,537.2,64.4z"
		/>
	<circle class="st2" cx="565.2" cy="5.2" r="3.2"/>
	<path class="st1" d="M560,5.2c0,2,1.2,3.8,2.9,4.6c0.7,0.4,1.5,0.6,2.3,0.6c1.4,0,2.7-0.6,3.7-1.5c0.9-0.9,1.5-2.2,1.5-3.7
		c0-2.9-2.3-5.2-5.2-5.2S560,2.3,560,5.2z M565.2,2c1.8,0,3.2,1.4,3.2,3.2c0,1.8-1.4,3.2-3.2,3.2c-1.8,0-3.2-1.4-3.2-3.2
		S563.4,2,565.2,2z"/>
	<circle class="st2" cx="593.2" cy="33.2" r="3.2"/>
	<path class="st1" d="M593.2,38.4c2.9,0,5.2-2.3,5.2-5.2c0-0.8-0.2-1.6-0.6-2.3c-0.9-1.7-2.6-2.9-4.6-2.9c-1.4,0-2.7,0.6-3.7,1.5
		c-0.9,0.9-1.5,2.2-1.5,3.7C588,36.1,590.3,38.4,593.2,38.4z M593.2,30c1.8,0,3.2,1.4,3.2,3.2c0,1.8-1.4,3.2-3.2,3.2
		c-1.8,0-3.2-1.4-3.2-3.2S591.4,30,593.2,30z"/>
	<circle class="st2" cx="621.2" cy="19.2" r="3.2"/>
	<path class="st1" d="M621.2,24.4c0.7,0,1.3-0.1,1.9-0.4c1.9-0.8,3.3-2.6,3.3-4.8c0-2.9-2.3-5.2-5.2-5.2s-5.2,2.3-5.2,5.2
		c0,0.8,0.2,1.6,0.6,2.3C617.4,23.2,619.2,24.4,621.2,24.4z M618,19.2c0-1.8,1.4-3.2,3.2-3.2s3.2,1.4,3.2,3.2c0,1.8-1.4,3.2-3.2,3.2
		C619.4,22.4,618,21,618,19.2z"/>
	<circle class="st2" cx="649.2" cy="89.2" r="3.2"/>
	<path class="st1" d="M644,89.2c0,2.9,2.3,5.2,5.2,5.2c2.9,0,5.2-2.3,5.2-5.2c0-1.4-0.6-2.7-1.5-3.7c-0.9-0.9-2.2-1.5-3.7-1.5
		c-0.7,0-1.3,0.1-1.9,0.4C645.4,85.1,644,87,644,89.2z M649.2,92.4c-1.8,0-3.2-1.4-3.2-3.2c0-1.8,1.4-3.2,3.2-3.2s3.2,1.4,3.2,3.2
		C652.4,91,651,92.4,649.2,92.4z"/>
	<circle class="st2" cx="677.2" cy="61.2" r="3.2"/>
	<path class="st1" d="M680.1,65.5c1.4-0.9,2.3-2.5,2.3-4.3c0-2.9-2.3-5.2-5.2-5.2s-5.2,2.3-5.2,5.2c0,1.4,0.6,2.7,1.5,3.7
		c0.9,0.9,2.2,1.5,3.7,1.5C678.3,66.4,679.3,66.1,680.1,65.5z M677.2,58c1.8,0,3.2,1.4,3.2,3.2c0,1.8-1.4,3.2-3.2,3.2
		c-1.8,0-3.2-1.4-3.2-3.2S675.4,58,677.2,58z"/>
	<circle class="st2" cx="705.2" cy="103.2" r="3.2"/>
	<path class="st1" d="M700,103.2c0,2.9,2.3,5.2,5.2,5.2c2.9,0,5.2-2.3,5.2-5.2c0-2.2-1.4-4.1-3.3-4.8c-0.6-0.2-1.2-0.4-1.9-0.4
		c-1.1,0-2.1,0.3-2.9,0.9C700.9,99.8,700,101.4,700,103.2z M705.2,100c1.8,0,3.2,1.4,3.2,3.2c0,1.8-1.4,3.2-3.2,3.2
		c-1.8,0-3.2-1.4-3.2-3.2C702,101.4,703.4,100,705.2,100z"/>
	<circle class="st2" cx="733.2" cy="33.2" r="3.2"/>
	<path class="st1" d="M736.9,36.9c0.9-0.9,1.5-2.2,1.5-3.7c0-2.9-2.3-5.2-5.2-5.2s-5.2,2.3-5.2,5.2c0,2.2,1.4,4.1,3.3,4.8
		c0.6,0.2,1.2,0.4,1.9,0.4C734.6,38.4,735.9,37.8,736.9,36.9z M733.2,30c1.8,0,3.2,1.4,3.2,3.2c0,1.8-1.4,3.2-3.2,3.2
		c-1.8,0-3.2-1.4-3.2-3.2S731.4,30,733.2,30z"/>
	<circle class="st2" cx="789.2" cy="19.2" r="3.2"/>
	<path class="st1" d="M792.9,22.9c0.9-0.9,1.5-2.2,1.5-3.7c0-2.9-2.3-5.2-5.2-5.2s-5.2,2.3-5.2,5.2c0,1.8,0.9,3.4,2.3,4.3
		c0.8,0.6,1.8,0.9,2.9,0.9C790.6,24.4,791.9,23.8,792.9,22.9z M786,19.2c0-1.8,1.4-3.2,3.2-3.2s3.2,1.4,3.2,3.2
		c0,1.8-1.4,3.2-3.2,3.2C787.4,22.4,786,21,786,19.2z"/>
	<circle class="st2" cx="817.2" cy="47.2" r="3.2"/>
	<path class="st1" d="M817.2,52.4c2.9,0,5.2-2.3,5.2-5.2s-2.3-5.2-5.2-5.2c-1.4,0-2.7,0.6-3.7,1.5c-0.9,0.9-1.5,2.2-1.5,3.7
		C812,50.1,814.3,52.4,817.2,52.4z M817.2,44c1.8,0,3.2,1.4,3.2,3.2c0,1.8-1.4,3.2-3.2,3.2c-1.8,0-3.2-1.4-3.2-3.2
		S815.4,44,817.2,44z"/>
	<circle class="st2" cx="845.2" cy="47.2" r="3.2"/>
	<path class="st1" d="M845.2,52.4c0.8,0,1.6-0.2,2.3-0.6c1.7-0.9,2.9-2.6,2.9-4.6c0-2.9-2.3-5.2-5.2-5.2s-5.2,2.3-5.2,5.2
		C840,50.1,842.3,52.4,845.2,52.4z M845.2,44c1.8,0,3.2,1.4,3.2,3.2c0,1.8-1.4,3.2-3.2,3.2c-1.8,0-3.2-1.4-3.2-3.2
		S843.4,44,845.2,44z"/>
	<circle class="st2" cx="873.2" cy="103.2" r="3.2"/>
	<path class="st1" d="M868,103.2c0,2.9,2.3,5.2,5.2,5.2c2.9,0,5.2-2.3,5.2-5.2c0-2.2-1.4-4.1-3.3-4.8c-0.6-0.2-1.2-0.4-1.9-0.4
		c-0.8,0-1.6,0.2-2.3,0.6C869.2,99.4,868,101.2,868,103.2z M873.2,106.4c-1.8,0-3.2-1.4-3.2-3.2c0-1.8,1.4-3.2,3.2-3.2
		s3.2,1.4,3.2,3.2C876.4,105,875,106.4,873.2,106.4z"/>
	<circle class="st2" cx="901.2" cy="33.2" r="3.2"/>
	<path class="st1" d="M906.4,33.2c0-0.8-0.2-1.6-0.6-2.3c-0.9-1.7-2.6-2.9-4.6-2.9c-2.9,0-5.2,2.3-5.2,5.2c0,2.2,1.4,4.1,3.3,4.8
		c0.6,0.2,1.2,0.4,1.9,0.4C904.1,38.4,906.4,36.1,906.4,33.2z M901.2,30c1.8,0,3.2,1.4,3.2,3.2c0,1.8-1.4,3.2-3.2,3.2
		c-1.8,0-3.2-1.4-3.2-3.2S899.4,30,901.2,30z"/>
	<path class="st2" d="M929.2,22.4c1.8,0,3.2-1.4,3.2-3.2c0-1.8-1.4-3.2-3.2-3.2c-1.8,0-3.2,1.4-3.2,3.2v0
		C926,21,927.4,22.4,929.2,22.4z"/>
	<path class="st1" d="M929.2,24.4c0.8,0,1.6-0.2,2.3-0.6c1.7-0.9,2.9-2.6,2.9-4.6c0,0,0,0,0,0c0-2.9-2.3-5.2-5.2-5.2
		c-2.9,0-5.2,2.3-5.2,5.2c0,0.8,0.2,1.6,0.6,2.3C925.4,23.2,927.2,24.4,929.2,24.4z M926,19.2L926,19.2c0-1.8,1.4-3.2,3.2-3.2
		c1.8,0,3.2,1.4,3.2,3.2c0,1.8-1.4,3.2-3.2,3.2C927.4,22.4,926,21,926,19.2z"/>
	<path class="st2" d="M957.2,72c-1.8,0-3.2,1.4-3.2,3.2v0c0,1.8,1.4,3.2,3.2,3.2c1.8,0,3.2-1.4,3.2-3.2C960.4,73.4,959,72,957.2,72z
		"/>
	<path class="st1" d="M952,75.2c0,2.9,2.3,5.2,5.2,5.2c2.9,0,5.2-2.3,5.2-5.2c0,0,0,0,0,0c0-2.9-2.3-5.2-5.2-5.2
		c-0.8,0-1.6,0.2-2.3,0.6C953.2,71.4,952,73.2,952,75.2z M957.2,78.4c-1.8,0-3.2-1.4-3.2-3.2v0c0-1.8,1.4-3.2,3.2-3.2
		c1.8,0,3.2,1.4,3.2,3.2C960.4,77,959,78.4,957.2,78.4z"/>
	<path class="st2" d="M985.2,78.4c1.8,0,3.2-1.4,3.2-3.2c0-1.8-1.4-3.2-3.2-3.2c-1.8,0-3.2,1.4-3.2,3.2v0
		C982,77,983.4,78.4,985.2,78.4z"/>
	<path class="st1" d="M985.2,80.4c2.9,0,5.2-2.3,5.2-5.2c0,0,0,0,0,0c0-0.8-0.2-1.6-0.6-2.3c-0.9-1.7-2.6-2.9-4.6-2.9
		c-2.9,0-5.2,2.3-5.2,5.2v0C980,78.1,982.3,80.4,985.2,80.4z M982,75.2c0-1.8,1.4-3.2,3.2-3.2c1.8,0,3.2,1.4,3.2,3.2
		c0,1.8-1.4,3.2-3.2,3.2C983.4,78.4,982,77,982,75.2L982,75.2z"/>
	<path class="st2" d="M1013.2,64.4c1.8,0,3.2-1.4,3.2-3.2c0-1.8-1.4-3.2-3.2-3.2c-1.8,0-3.2,1.4-3.2,3.2v0
		C1010,63,1011.4,64.4,1013.2,64.4z"/>
	<path class="st1" d="M1013.2,66.4c2,0,3.8-1.2,4.6-2.9c0.4-0.7,0.6-1.5,0.6-2.3c0,0,0,0,0,0c0-2.9-2.3-5.2-5.2-5.2
		c-2.9,0-5.2,2.3-5.2,5.2c0,0.8,0.2,1.6,0.6,2.3C1009.4,65.2,1011.2,66.4,1013.2,66.4z M1010,61.2L1010,61.2c0-1.8,1.4-3.2,3.2-3.2
		c1.8,0,3.2,1.4,3.2,3.2c0,1.8-1.4,3.2-3.2,3.2C1011.4,64.4,1010,63,1010,61.2z"/>
	<path class="st2" d="M1038,75.2L1038,75.2c0,1.8,1.4,3.2,3.2,3.2c1.8,0,3.2-1.4,3.2-3.2c0-1.8-1.4-3.2-3.2-3.2
		C1039.4,72,1038,73.4,1038,75.2z"/>
	<path class="st1" d="M1041.2,80.4c1.1,0,2.1-0.3,2.9-0.9c1.4-0.9,2.3-2.5,2.3-4.3c0,0,0,0,0,0c0-2.9-2.3-5.2-5.2-5.2
		c-2,0-3.8,1.2-4.6,2.9c-0.4,0.7-0.6,1.5-0.6,2.3C1036,78.1,1038.3,80.4,1041.2,80.4z M1041.2,72c1.8,0,3.2,1.4,3.2,3.2
		c0,1.8-1.4,3.2-3.2,3.2c-1.8,0-3.2-1.4-3.2-3.2v0C1038,73.4,1039.4,72,1041.2,72z"/>
	<path class="st2" d="M1066,117.2c0,1.8,1.4,3.2,3.2,3.2c1.8,0,3.2-1.4,3.2-3.2s-1.4-3.2-3.2-3.2C1067.4,114,1066,115.4,1066,117.2
		C1066,117.2,1066,117.2,1066,117.2z"/>
	<path class="st1" d="M1064,117.2c0,2.9,2.3,5.2,5.2,5.2c2.9,0,5.2-2.3,5.2-5.2c0,0,0,0,0,0c0-1.8-0.9-3.4-2.3-4.3
		c-0.8-0.6-1.8-0.9-2.9-0.9s-2.1,0.3-2.9,0.9C1064.9,113.8,1064,115.4,1064,117.2z M1069.2,114c1.8,0,3.2,1.4,3.2,3.2
		s-1.4,3.2-3.2,3.2c-1.8,0-3.2-1.4-3.2-3.2c0,0,0,0,0,0C1066,115.4,1067.4,114,1069.2,114z"/>
	<path class="st2" d="M1097.2,78.4c1.8,0,3.2-1.4,3.2-3.2c0-1.8-1.4-3.2-3.2-3.2c-1.8,0-3.2,1.4-3.2,3.2v0
		C1094,77,1095.4,78.4,1097.2,78.4z"/>
	<path class="st1" d="M1097.2,80.4c2.9,0,5.2-2.3,5.2-5.2c0,0,0,0,0,0c0-0.8-0.2-1.6-0.6-2.3c-0.9-1.7-2.6-2.9-4.6-2.9
		c-2.9,0-5.2,2.3-5.2,5.2c0,1.8,0.9,3.4,2.3,4.3C1095.1,80.1,1096.1,80.4,1097.2,80.4C1097.2,80.4,1097.2,80.4,1097.2,80.4z
		 M1094,75.2L1094,75.2c0-1.8,1.4-3.2,3.2-3.2c1.8,0,3.2,1.4,3.2,3.2c0,1.8-1.4,3.2-3.2,3.2C1095.4,78.4,1094,77,1094,75.2z"/>
	<path class="st2" d="M1125.2,64.4c1.8,0,3.2-1.4,3.2-3.2c0-1.8-1.4-3.2-3.2-3.2c-1.8,0-3.2,1.4-3.2,3.2v0
		C1122,63,1123.4,64.4,1125.2,64.4z"/>
	<path class="st1" d="M1125.2,66.4c2.9,0,5.2-2.3,5.2-5.2c0,0,0,0,0,0c0-2.9-2.3-5.2-5.2-5.2c-2.9,0-5.2,2.3-5.2,5.2
		c0,0.8,0.2,1.6,0.6,2.3C1121.4,65.2,1123.2,66.4,1125.2,66.4z M1122,61.2L1122,61.2c0-1.8,1.4-3.2,3.2-3.2c1.8,0,3.2,1.4,3.2,3.2
		c0,1.8-1.4,3.2-3.2,3.2C1123.4,64.4,1122,63,1122,61.2z"/>
	<circle class="st2" cx="761.2" cy="61.2" r="3.2"/>
	<path class="st1" d="M761.2,66.4c2.9,0,5.2-2.3,5.2-5.2c0-1.8-0.9-3.4-2.3-4.3c-0.8-0.6-1.8-0.9-2.9-0.9c-1.4,0-2.7,0.6-3.7,1.5
		c-0.9,0.9-1.5,2.2-1.5,3.7C756,64.1,758.3,66.4,761.2,66.4z M761.2,58c1.8,0,3.2,1.4,3.2,3.2c0,1.8-1.4,3.2-3.2,3.2
		c-1.8,0-3.2-1.4-3.2-3.2S759.4,58,761.2,58z"/>
	<circle class="st2" cx="341.2" cy="89.2" r="3.2"/>
	<path class="st1" d="M336,89.2c0,2.9,2.3,5.2,5.2,5.2c2.9,0,5.2-2.3,5.2-5.2c0-2.2-1.4-4.1-3.3-4.8c-0.6-0.2-1.2-0.4-1.9-0.4
		C338.3,84,336,86.3,336,89.2z M341.2,92.4c-1.8,0-3.2-1.4-3.2-3.2c0-1.8,1.4-3.2,3.2-3.2s3.2,1.4,3.2,3.2S343,92.4,341.2,92.4z"/>
	<circle class="st2" cx="313.2" cy="89.2" r="3.2"/>
	<path class="st1" d="M313.2,84c-1.1,0-2.1,0.3-2.9,0.9c-1.4,0.9-2.3,2.5-2.3,4.3c0,2.9,2.3,5.2,5.2,5.2c2.9,0,5.2-2.3,5.2-5.2
		S316.1,84,313.2,84z M313.2,92.4c-1.8,0-3.2-1.4-3.2-3.2c0-1.8,1.4-3.2,3.2-3.2s3.2,1.4,3.2,3.2S315,92.4,313.2,92.4z"/>
	<circle class="st2" cx="285.2" cy="47.2" r="3.2"/>
	<path class="st1" d="M290.4,47.2c0-2.9-2.3-5.2-5.2-5.2s-5.2,2.3-5.2,5.2c0,0.8,0.2,1.6,0.6,2.3c0.9,1.7,2.6,2.9,4.6,2.9
		c1.1,0,2.1-0.3,2.9-0.9C289.5,50.6,290.4,49,290.4,47.2z M285.2,50.4c-1.8,0-3.2-1.4-3.2-3.2s1.4-3.2,3.2-3.2s3.2,1.4,3.2,3.2
		C288.4,49,287,50.4,285.2,50.4z"/>
	<circle class="st2" cx="257.2" cy="61.2" r="3.2"/>
	<path class="st1" d="M257.2,56c-2.9,0-5.2,2.3-5.2,5.2s2.3,5.2,5.2,5.2c2.9,0,5.2-2.3,5.2-5.2c0-0.8-0.2-1.6-0.6-2.3
		C261,57.2,259.2,56,257.2,56z M260.4,61.2c0,1.8-1.4,3.2-3.2,3.2c-1.8,0-3.2-1.4-3.2-3.2s1.4-3.2,3.2-3.2S260.4,59.4,260.4,61.2z"
		/>
	<circle class="st2" cx="229.2" cy="61.2" r="3.2"/>
	<path class="st1" d="M229.2,56c-1.1,0-2,0.3-2.9,0.9c-1.4,0.9-2.3,2.5-2.3,4.3c0,2.9,2.3,5.2,5.2,5.2c2.9,0,5.2-2.3,5.2-5.2
		S232.1,56,229.2,56z M229.2,64.4c-1.8,0-3.2-1.4-3.2-3.2s1.4-3.2,3.2-3.2s3.2,1.4,3.2,3.2C232.4,63,231,64.4,229.2,64.4z"/>
	<circle class="st2" cx="201.2" cy="19.2" r="3.2"/>
	<path class="st1" d="M206.4,19.2c0-2.9-2.3-5.2-5.2-5.2s-5.2,2.3-5.2,5.2s2.3,5.2,5.2,5.2c1.1,0,2.1-0.3,2.9-0.9
		C205.5,22.6,206.4,21,206.4,19.2z M201.2,22.4c-1.8,0-3.2-1.4-3.2-3.2s1.4-3.2,3.2-3.2s3.2,1.4,3.2,3.2
		C204.4,21,203,22.4,201.2,22.4z"/>
	<circle class="st2" cx="145.2" cy="19.2" r="3.2"/>
	<path class="st1" d="M145.2,14c-2.9,0-5.2,2.3-5.2,5.2c0,1.4,0.6,2.7,1.5,3.7c0.9,0.9,2.2,1.5,3.7,1.5c2.9,0,5.2-2.3,5.2-5.2
		S148.1,14,145.2,14z M145.2,22.4c-1.8,0-3.2-1.4-3.2-3.2s1.4-3.2,3.2-3.2c1.8,0,3.2,1.4,3.2,3.2S147,22.4,145.2,22.4z"/>
	<circle class="st2" cx="117.2" cy="47.2" r="3.2"/>
	<path class="st1" d="M114.3,42.9c-1.4,0.9-2.3,2.5-2.3,4.3c0,2.9,2.3,5.2,5.2,5.2s5.2-2.3,5.2-5.2c0-1.4-0.6-2.7-1.5-3.7
		c-0.9-0.9-2.2-1.5-3.7-1.5C116.1,42,115.1,42.3,114.3,42.9z M117.2,50.4c-1.8,0-3.2-1.4-3.2-3.2s1.4-3.2,3.2-3.2
		c1.8,0,3.2,1.4,3.2,3.2S119,50.4,117.2,50.4z"/>
	<circle class="st2" cx="173.2" cy="19.2" r="3.2"/>
	<path class="st1" d="M173.2,14c-2.9,0-5.2,2.3-5.2,5.2s2.3,5.2,5.2,5.2c2.9,0,5.2-2.3,5.2-5.2S176.1,14,173.2,14z M173.2,22.4
		c-1.8,0-3.2-1.4-3.2-3.2s1.4-3.2,3.2-3.2s3.2,1.4,3.2,3.2C176.4,21,175,22.4,173.2,22.4z"/>
	<circle class="st2" cx="89.2" cy="5.2" r="3.2"/>
	<path class="st1" d="M84,5.2c0,0.8,0.2,1.6,0.6,2.3c0.9,1.7,2.6,2.9,4.6,2.9c1.1,0,2.1-0.3,2.9-0.9c1.4-0.9,2.3-2.5,2.3-4.3
		c0-2.9-2.3-5.2-5.2-5.2S84,2.3,84,5.2z M89.2,2c1.8,0,3.2,1.4,3.2,3.2S91,8.4,89.2,8.4C87.4,8.4,86,7,86,5.2S87.4,2,89.2,2z"/>
	<circle class="st2" cx="61.2" cy="19.2" r="3.2"/>
	<path class="st1" d="M61.2,14c-2,0-3.8,1.2-4.6,2.9c-0.4,0.7-0.6,1.5-0.6,2.3c0,2.9,2.3,5.2,5.2,5.2s5.2-2.3,5.2-5.2
		c0-0.8-0.2-1.6-0.6-2.3C65,15.2,63.2,14,61.2,14z M64.4,19.2c0,1.8-1.4,3.2-3.2,3.2c-1.8,0-3.2-1.4-3.2-3.2s1.4-3.2,3.2-3.2
		C63,16,64.4,17.4,64.4,19.2z"/>
	<circle class="st2" cx="33.2" cy="5.2" r="3.2"/>
	<path class="st1" d="M28,5.2c0,2,1.2,3.8,2.9,4.6c0.7,0.4,1.5,0.6,2.3,0.6c2,0,3.8-1.2,4.6-2.9c0.4-0.7,0.6-1.5,0.6-2.3
		c0-2.9-2.3-5.2-5.2-5.2S28,2.3,28,5.2z M33.2,2c1.8,0,3.2,1.4,3.2,3.2S35,8.4,33.2,8.4C31.4,8.4,30,7,30,5.2S31.4,2,33.2,2z"/>
	<circle class="st2" cx="5.2" cy="61.2" r="3.2"/>
	<path class="st1" d="M5.2,66.4c2.9,0,5.2-2.3,5.2-5.2c0-2-1.2-3.8-2.9-4.6C6.8,56.2,6,56,5.2,56C2.3,56,0,58.3,0,61.2
		S2.3,66.4,5.2,66.4z M5.2,58c1.8,0,3.2,1.4,3.2,3.2S7,64.4,5.2,64.4C3.4,64.4,2,63,2,61.2S3.4,58,5.2,58z"/>
	<circle class="st2" cx="369.2" cy="19.2" r="3.2"/>
	<path class="st1" d="M369.2,14c-2.9,0-5.2,2.3-5.2,5.2c0,2.2,1.4,4.1,3.3,4.8c0.6,0.2,1.2,0.4,1.9,0.4c2.9,0,5.2-2.3,5.2-5.2
		S372.1,14,369.2,14z M369.2,22.4c-1.8,0-3.2-1.4-3.2-3.2s1.4-3.2,3.2-3.2s3.2,1.4,3.2,3.2C372.4,21,371,22.4,369.2,22.4z"/>
</g>
</svg>
