<svg xmlns="http://www.w3.org/2000/svg" width="394.79" height="410.65" viewBox="0 0 394.79 410.65">
  <defs>
    <style>
      .a, .d {
        fill: #7629f4;
      }

      .b, .c, .e, .g {
        fill: none;
      }

      .b {
        stroke: #7629f4;
      }

      .b, .d, .e, .g {
        stroke-miterlimit: 10;
      }

      .c, .d, .e {
        stroke: #fff;
      }

      .c {
        stroke-linecap: round;
        stroke-linejoin: round;
      }

      .c, .d {
        stroke-width: 2px;
      }

      .e, .g {
        stroke-width: 0.5px;
      }

      .f {
        fill: #222;
      }

      .g {
        stroke: #222;
      }
    </style>
  </defs>
  <title>cost-effective-graph-1</title>
  <rect class="a" x="8.38" y="164.29" width="364" height="238"/>
  <polyline class="b" points="8.88 38.79 8.88 401.79 371.88 401.79"/>
  <g>
    <polygon class="a" points="372.38 360.29 344.38 192.29 316.38 206.29 288.38 360.29 260.38 262.29 232.38 248.29 204.38 374.29 176.38 374.29 148.38 346.29 120.38 290.29 92.4 360.29 64.38 360.29 36.38 374.29 8.38 360.29 8.38 401.29 372.38 401.29 372.38 360.29"/>
    <polyline class="c" points="372.38 360.29 344.38 192.29 316.38 206.29 288.38 360.29 260.38 262.29 232.38 248.29 204.38 374.29 176.38 374.29 148.38 346.29 120.38 290.29 92.4 360.29 64.38 360.29 36.38 374.29 8.38 360.29"/>
    <circle class="d" cx="176.38" cy="374.29" r="3.2"/>
    <circle class="d" cx="204.38" cy="374.29" r="3.2"/>
    <circle class="d" cx="232.38" cy="248.29" r="3.2"/>
    <circle class="d" cx="260.38" cy="262.29" r="3.2"/>
    <circle class="d" cx="288.38" cy="360.29" r="3.2"/>
    <circle class="d" cx="316.38" cy="206.29" r="3.2"/>
    <circle class="d" cx="344.38" cy="192.29" r="3.2"/>
    <circle class="d" cx="148.38" cy="346.29" r="3.2"/>
    <circle class="d" cx="120.38" cy="290.29" r="3.2"/>
    <circle class="d" cx="92.4" cy="360.29" r="3.2"/>
    <circle class="d" cx="64.38" cy="360.29" r="3.2"/>
    <circle class="d" cx="36.38" cy="374.29" r="3.2"/>
    <polyline class="b" points="8.88 38.79 8.88 401.79 386.88 401.79"/>
    <circle class="d" cx="8.88" cy="401.79" r="5"/>
    <path class="d" d="M1.86,45.2l7-10.6,7,10.6h-14Z" transform="translate(0 -1.31)"/>
    <path class="d" d="M382.38,396.07l10.6,7-10.6,7v-14Z" transform="translate(0 -1.31)"/>
    <line class="e" x1="22.38" y1="374.29" x2="22.38" y2="401.79"/>
    <line class="e" x1="36.38" y1="388.04" x2="36.38" y2="401.79"/>
    <line class="e" x1="50.38" y1="374.29" x2="50.38" y2="401.79"/>
    <line class="e" x1="64.38" y1="374.29" x2="64.38" y2="402.29"/>
    <line class="e" x1="78.38" y1="374.29" x2="78.38" y2="401.79"/>
    <line class="e" x1="92.38" y1="374.29" x2="92.38" y2="401.79"/>
    <line class="e" x1="106.38" y1="360.29" x2="106.38" y2="401.79"/>
    <line class="e" x1="120.38" y1="318.29" x2="120.38" y2="402.29"/>
    <line class="e" x1="134.38" y1="332.29" x2="134.38" y2="401.79"/>
    <line class="e" x1="148.38" y1="360.29" x2="148.38" y2="401.79"/>
    <line class="e" x1="162.38" y1="374.29" x2="162.38" y2="401.79"/>
    <line class="e" x1="176.38" y1="388.04" x2="176.38" y2="401.77"/>
    <line class="e" x1="190.38" y1="388.29" x2="190.38" y2="401.77"/>
    <line class="e" x1="204.38" y1="388.29" x2="204.38" y2="402.29"/>
    <line class="e" x1="218.38" y1="360.29" x2="218.38" y2="401.79"/>
    <line class="e" x1="232.38" y1="304.29" x2="232.38" y2="401.77"/>
    <line class="e" x1="246.38" y1="262.29" x2="246.38" y2="401.77"/>
    <line class="e" x1="260.38" y1="290.29" x2="260.38" y2="401.79"/>
    <line class="e" x1="274.38" y1="332.29" x2="274.38" y2="401.77"/>
    <line class="e" x1="288.38" y1="374.29" x2="288.38" y2="401.77"/>
    <line class="e" x1="302.38" y1="346.29" x2="302.38" y2="401.77"/>
    <line class="e" x1="316.38" y1="262.29" x2="316.38" y2="401.77"/>
    <line class="e" x1="330.38" y1="206.29" x2="330.38" y2="401.77"/>
    <line class="e" x1="344.38" y1="234.29" x2="344.38" y2="401.77"/>
    <line class="e" x1="358.38" y1="332.29" x2="358.38" y2="401.79"/>
    <g>
      <path class="f" d="M136.15,3.38A3.62,3.62,0,0,0,134.6,3a3.35,3.35,0,0,0-1.48.32,3.56,3.56,0,0,0-1.14.87,4,4,0,0,0-.74,1.26,4.46,4.46,0,0,0,0,3A4,4,0,0,0,132,9.76a3.57,3.57,0,0,0,1.13.87,3.27,3.27,0,0,0,1.46.32,3.47,3.47,0,0,0,.92-0.12,3.87,3.87,0,0,0,.79-0.31,3.78,3.78,0,0,0,.64-0.42,4.14,4.14,0,0,0,.48-0.46l0.8,0.81a4.9,4.9,0,0,1-.62.57,4.77,4.77,0,0,1-.83.52,5.33,5.33,0,0,1-1,.38,4.65,4.65,0,0,1-1.2.15,4.7,4.7,0,0,1-1.93-.39,4.6,4.6,0,0,1-1.52-1.08,5.08,5.08,0,0,1-1-1.61,5.38,5.38,0,0,1-.36-2,5.47,5.47,0,0,1,.36-2,4.92,4.92,0,0,1,1-1.61,4.65,4.65,0,0,1,1.53-1.08,5.1,5.1,0,0,1,3.15-.25,5.12,5.12,0,0,1,1,.36,4.32,4.32,0,0,1,.78.48,4.44,4.44,0,0,1,.56.52l-0.81.77A3.27,3.27,0,0,0,136.15,3.38Z" transform="translate(0 -1.31)"/>
      <path class="f" d="M143.58,5.53a3.35,3.35,0,0,1,1.06.72,3.26,3.26,0,0,1,.7,1.08,3.68,3.68,0,0,1,0,2.68,3.27,3.27,0,0,1-.7,1.08,3.35,3.35,0,0,1-1.06.72,3.42,3.42,0,0,1-2.65,0,3.35,3.35,0,0,1-1.06-.72,3.26,3.26,0,0,1-.7-1.08,3.68,3.68,0,0,1,0-2.68,3.25,3.25,0,0,1,.7-1.08,3.35,3.35,0,0,1,1.06-.72A3.42,3.42,0,0,1,143.58,5.53Zm-0.43,5.27a2,2,0,0,0,.68-0.5,2.26,2.26,0,0,0,.43-0.74,2.68,2.68,0,0,0,0-1.79A2.26,2.26,0,0,0,143.82,7a2,2,0,0,0-.68-0.5,2.26,2.26,0,0,0-1.78,0,2,2,0,0,0-.68.5,2.28,2.28,0,0,0-.43.74,2.69,2.69,0,0,0,0,1.79,2.28,2.28,0,0,0,.43.74,2,2,0,0,0,.68.5A2.26,2.26,0,0,0,143.14,10.79Z" transform="translate(0 -1.31)"/>
      <path class="f" d="M150.94,5.42a2.22,2.22,0,0,1,1.31,1.25,2.7,2.7,0,0,1,.2,1.06V11.9h-1.18v-4a1.81,1.81,0,0,0-.13-0.71,1.5,1.5,0,0,0-.33-0.49,1.25,1.25,0,0,0-.48-0.29,1.79,1.79,0,0,0-.57-0.09,1.63,1.63,0,0,0-.58.1,1.7,1.7,0,0,0-.46.26,2.17,2.17,0,0,0-.36.36,4.15,4.15,0,0,0-.27.38V11.9h-1.18V5.43H148V6.34a2.52,2.52,0,0,1,.75-0.74A2.19,2.19,0,0,1,150,5.26,2.66,2.66,0,0,1,150.94,5.42Z" transform="translate(0 -1.31)"/>
      <path class="f" d="M156.7,9.81l2-4.38h1.2l-3.24,6.75-3.24-6.75h1.29Z" transform="translate(0 -1.31)"/>
      <path class="f" d="M164.91,5.51a2.9,2.9,0,0,1,1,.69,3.2,3.2,0,0,1,.66,1.09,4,4,0,0,1,.24,1.42V8.89a1.53,1.53,0,0,1,0,.2h-5.22a1.8,1.8,0,0,0,.21.71,2.22,2.22,0,0,0,1.16,1,2.32,2.32,0,0,0,.85.15,2.25,2.25,0,0,0,1.17-.29,2.69,2.69,0,0,0,.78-0.66l0.74,0.77a4.71,4.71,0,0,1-.48.47,3.5,3.5,0,0,1-.62.41,3.39,3.39,0,0,1-.75.29,3.5,3.5,0,0,1-.88.1,3.4,3.4,0,0,1-1.33-.26,3.11,3.11,0,0,1-1.06-.72,3.39,3.39,0,0,1-.69-1.09,3.63,3.63,0,0,1-.25-1.36,3.67,3.67,0,0,1,.23-1.3,3.31,3.31,0,0,1,.65-1.08,3,3,0,0,1,1-.73A3.41,3.41,0,0,1,164.91,5.51Zm0.6,2A2,2,0,0,0,165.14,7a1.87,1.87,0,0,0-.62-0.43,2.11,2.11,0,0,0-.87-0.17,2,2,0,0,0-.89.18,2.12,2.12,0,0,0-.62.44,2,2,0,0,0-.38.57,2,2,0,0,0-.16.56h4.06A1.68,1.68,0,0,0,165.52,7.53Z" transform="translate(0 -1.31)"/>
      <path class="f" d="M172.17,5.42a2.22,2.22,0,0,1,1.31,1.25,2.7,2.7,0,0,1,.2,1.06V11.9h-1.18v-4a1.81,1.81,0,0,0-.13-0.71A1.5,1.5,0,0,0,172,6.73a1.25,1.25,0,0,0-.48-0.29A1.79,1.79,0,0,0,171,6.35a1.63,1.63,0,0,0-.58.1,1.7,1.7,0,0,0-.46.26,2.17,2.17,0,0,0-.36.36,4.15,4.15,0,0,0-.27.38V11.9h-1.18V5.43h1.09V6.34A2.52,2.52,0,0,1,170,5.6a2.19,2.19,0,0,1,1.25-.34A2.66,2.66,0,0,1,172.17,5.42Z" transform="translate(0 -1.31)"/>
      <path class="f" d="M176.16,5.43v-2h1.18v2h2V6.49h-2V10a1,1,0,0,0,.24.74,0.85,0.85,0,0,0,.66.26,1.07,1.07,0,0,0,.42-0.08,2.73,2.73,0,0,0,.36-0.19l0.43,1a3,3,0,0,1-.74.31,2.44,2.44,0,0,1-.58.08,2.2,2.2,0,0,1-.71-0.12,1.86,1.86,0,0,1-.63-0.36,1.83,1.83,0,0,1-.46-0.63,2.21,2.21,0,0,1-.17-0.92V6.49H174.9V5.43h1.26Z" transform="translate(0 -1.31)"/>
      <path class="f" d="M181,2.79a0.8,0.8,0,0,1,1.36.56A0.8,0.8,0,1,1,181,2.79Zm1.15,2.63V11.9h-1.18V5.43h1.18Z" transform="translate(0 -1.31)"/>
      <path class="f" d="M188.32,5.53a3.35,3.35,0,0,1,1.06.72,3.26,3.26,0,0,1,.7,1.08,3.68,3.68,0,0,1,0,2.68,3.27,3.27,0,0,1-.7,1.08,3.35,3.35,0,0,1-1.06.72,3.43,3.43,0,0,1-2.65,0,3.35,3.35,0,0,1-1.06-.72,3.26,3.26,0,0,1-.7-1.08,3.68,3.68,0,0,1,0-2.68,3.25,3.25,0,0,1,.7-1.08,3.35,3.35,0,0,1,1.06-.72A3.43,3.43,0,0,1,188.32,5.53Zm-0.43,5.27a2,2,0,0,0,.68-0.5A2.26,2.26,0,0,0,189,9.56a2.68,2.68,0,0,0,0-1.79A2.26,2.26,0,0,0,188.57,7a2,2,0,0,0-.68-0.5,2.26,2.26,0,0,0-1.78,0,2,2,0,0,0-.68.5,2.27,2.27,0,0,0-.43.74,2.68,2.68,0,0,0,0,1.79,2.27,2.27,0,0,0,.43.74,2,2,0,0,0,.68.5A2.26,2.26,0,0,0,187.89,10.79Z" transform="translate(0 -1.31)"/>
      <path class="f" d="M195.69,5.42A2.22,2.22,0,0,1,197,6.68a2.7,2.7,0,0,1,.2,1.06V11.9H196v-4a1.81,1.81,0,0,0-.13-0.71,1.5,1.5,0,0,0-.33-0.49,1.25,1.25,0,0,0-.48-0.29,1.79,1.79,0,0,0-.57-0.09,1.63,1.63,0,0,0-.58.1,1.7,1.7,0,0,0-.46.26,2.15,2.15,0,0,0-.36.36,4.07,4.07,0,0,0-.27.38V11.9h-1.18V5.43h1.09V6.34a2.52,2.52,0,0,1,.75-0.74,2.19,2.19,0,0,1,1.25-.34A2.66,2.66,0,0,1,195.69,5.42Z" transform="translate(0 -1.31)"/>
      <path class="f" d="M202.79,5.46a2.5,2.5,0,0,1,.88.54,2.25,2.25,0,0,1,.52.76,2.28,2.28,0,0,1,.17.88V11.9h-1.08V11a2.7,2.7,0,0,1-3.06,1,2.57,2.57,0,0,1-.78-0.43,2.11,2.11,0,0,1-.56-0.69,2.13,2.13,0,0,1,0-1.81,2.09,2.09,0,0,1,.54-0.69,2.52,2.52,0,0,1,.82-0.45,3.17,3.17,0,0,1,1-.16,3.54,3.54,0,0,1,1.12.17,3.73,3.73,0,0,1,.81.36V7.88A1.54,1.54,0,0,0,203,7.07a1.35,1.35,0,0,0-.44-0.46A1.52,1.52,0,0,0,202,6.4a3,3,0,0,0-.48,0,3.35,3.35,0,0,0-1,.15,5.31,5.31,0,0,0-1,.39l-0.49-1a5.52,5.52,0,0,1,1-.45,4.37,4.37,0,0,1,1.39-.21A3.49,3.49,0,0,1,202.79,5.46Zm-0.34,5.25a3.34,3.34,0,0,0,.74-0.66V9.14a2.53,2.53,0,0,0-.73-0.33,3.35,3.35,0,0,0-1-.13,2,2,0,0,0-1.22.34,1.05,1.05,0,0,0-.43.87,1,1,0,0,0,.13.51,1.07,1.07,0,0,0,.34.36,1.59,1.59,0,0,0,.47.21,2,2,0,0,0,.54.07A1.94,1.94,0,0,0,202.45,10.71Z" transform="translate(0 -1.31)"/>
      <path class="f" d="M207.58,1.31V11.9H206.4V1.31h1.18Z" transform="translate(0 -1.31)"/>
      <path class="f" d="M218.63,11.26a3.46,3.46,0,0,1-.59.41,3.36,3.36,0,0,1-.74.29,3.31,3.31,0,0,1-.88.11,3.26,3.26,0,0,1-1.32-.27,3.35,3.35,0,0,1-1.06-.72,3.26,3.26,0,0,1-.7-1.08,3.52,3.52,0,0,1-.25-1.34,3.46,3.46,0,0,1,.25-1.33,3.35,3.35,0,0,1,.7-1.08,3.39,3.39,0,0,1,3.24-.89,3.5,3.5,0,0,1,.71.27,3.44,3.44,0,0,1,.58.38,3.31,3.31,0,0,1,.43.41l-0.8.71a2.79,2.79,0,0,0-.69-0.53,2.15,2.15,0,0,0-1.09-.26,2.11,2.11,0,0,0-.89.18,2,2,0,0,0-.68.5,2.25,2.25,0,0,0-.43.74,2.7,2.7,0,0,0,0,1.79,2.25,2.25,0,0,0,.43.74,2,2,0,0,0,.68.5,2.12,2.12,0,0,0,.89.18,2.18,2.18,0,0,0,1.16-.29,2.59,2.59,0,0,0,.74-0.63l0.76,0.77A4.38,4.38,0,0,1,218.63,11.26Z" transform="translate(0 -1.31)"/>
      <path class="f" d="M224.43,5.53a3.35,3.35,0,0,1,1.06.72,3.25,3.25,0,0,1,.7,1.08,3.68,3.68,0,0,1,0,2.68,3.26,3.26,0,0,1-.7,1.08,3.35,3.35,0,0,1-1.06.72,3.43,3.43,0,0,1-2.65,0,3.35,3.35,0,0,1-1.06-.72A3.26,3.26,0,0,1,220,10a3.68,3.68,0,0,1,0-2.68,3.25,3.25,0,0,1,.7-1.08,3.35,3.35,0,0,1,1.06-.72A3.43,3.43,0,0,1,224.43,5.53ZM224,10.79a2,2,0,0,0,.68-0.5,2.29,2.29,0,0,0,.43-0.74,2.68,2.68,0,0,0,0-1.79A2.29,2.29,0,0,0,224.67,7a2,2,0,0,0-.68-0.5,2.26,2.26,0,0,0-1.78,0,2,2,0,0,0-.68.5,2.25,2.25,0,0,0-.43.74,2.68,2.68,0,0,0,0,1.79,2.25,2.25,0,0,0,.43.74,2,2,0,0,0,.68.5A2.26,2.26,0,0,0,224,10.79Z" transform="translate(0 -1.31)"/>
      <path class="f" d="M228.48,10.32a2.56,2.56,0,0,0,.44.34,2.6,2.6,0,0,0,.55.25,2.13,2.13,0,0,0,.67.1,2.81,2.81,0,0,0,.47,0,1.52,1.52,0,0,0,.45-0.15,1.07,1.07,0,0,0,.34-0.27,0.66,0.66,0,0,0,0-.79A1.06,1.06,0,0,0,231,9.48a2.39,2.39,0,0,0-.48-0.18l-0.51-.13q-0.32-.07-0.73-0.2a3.56,3.56,0,0,1-.77-0.34,2,2,0,0,1-.62-0.57,1.43,1.43,0,0,1-.25-0.85,1.74,1.74,0,0,1,.17-0.75,1.84,1.84,0,0,1,.48-0.62,2.38,2.38,0,0,1,.75-0.42,2.92,2.92,0,0,1,1-.15,3.15,3.15,0,0,1,1.44.31,3.53,3.53,0,0,1,1,.67L231.7,7A3.08,3.08,0,0,0,231,6.56a2,2,0,0,0-1-.23,1.36,1.36,0,0,0-.9.26,0.75,0.75,0,0,0-.31.58,0.55,0.55,0,0,0,.13.38,1,1,0,0,0,.36.26,3.16,3.16,0,0,0,.5.18l0.57,0.15c0.24,0.06.5,0.13,0.76,0.21a2.87,2.87,0,0,1,.74.35,2,2,0,0,1,.56.57,1.52,1.52,0,0,1,.22.85,1.66,1.66,0,0,1-.22.88,1.9,1.9,0,0,1-.58.61,2.66,2.66,0,0,1-.82.36,3.69,3.69,0,0,1-.92.12,3.39,3.39,0,0,1-.92-0.12,3.47,3.47,0,0,1-.78-0.31,3.91,3.91,0,0,1-.63-0.43,2.81,2.81,0,0,1-.46-0.49l0.81-.76A2.47,2.47,0,0,0,228.48,10.32Z" transform="translate(0 -1.31)"/>
      <path class="f" d="M234.85,5.43v-2H236v2h2V6.49h-2V10a1,1,0,0,0,.24.74,0.85,0.85,0,0,0,.66.26,1.07,1.07,0,0,0,.42-0.08,2.7,2.7,0,0,0,.36-0.19l0.43,1a3,3,0,0,1-.74.31,2.44,2.44,0,0,1-.58.08,2.2,2.2,0,0,1-.71-0.12,1.87,1.87,0,0,1-.63-0.36A1.84,1.84,0,0,1,235,11a2.21,2.21,0,0,1-.17-0.92V6.49h-1.26V5.43h1.26Z" transform="translate(0 -1.31)"/>
      <path class="f" d="M240.12,10.32a2.6,2.6,0,0,0,1,.59,2.14,2.14,0,0,0,.67.1,2.79,2.79,0,0,0,.47,0,1.54,1.54,0,0,0,.45-0.15,1.07,1.07,0,0,0,.34-0.27,0.66,0.66,0,0,0,0-.79,1,1,0,0,0-.35-0.28,2.42,2.42,0,0,0-.48-0.18l-0.51-.13c-0.21,0-.46-0.11-0.73-0.2a3.56,3.56,0,0,1-.77-0.34,2,2,0,0,1-.62-0.57,1.43,1.43,0,0,1-.25-0.85,1.74,1.74,0,0,1,.17-0.75A1.84,1.84,0,0,1,240,5.83a2.38,2.38,0,0,1,.75-0.42,2.92,2.92,0,0,1,1-.15,3.15,3.15,0,0,1,1.44.31,3.54,3.54,0,0,1,1,.67l-0.77.8a3.06,3.06,0,0,0-.66-0.48,2,2,0,0,0-1-.23,1.36,1.36,0,0,0-.9.26,0.75,0.75,0,0,0-.31.58,0.56,0.56,0,0,0,.13.38,1.06,1.06,0,0,0,.36.26,3.18,3.18,0,0,0,.5.18L242,8.13q0.36,0.08.76,0.21a2.89,2.89,0,0,1,.74.35,2,2,0,0,1,.56.57,1.52,1.52,0,0,1,.22.85,1.66,1.66,0,0,1-.22.88,1.9,1.9,0,0,1-.58.61,2.66,2.66,0,0,1-.82.36,3.69,3.69,0,0,1-.92.12,3.41,3.41,0,0,1-.92-0.12,3.53,3.53,0,0,1-.78-0.31,4,4,0,0,1-.63-0.43,2.81,2.81,0,0,1-.46-0.49L239.8,10A2.41,2.41,0,0,0,240.12,10.32Z" transform="translate(0 -1.31)"/>
    </g>
    <line class="g" x1="191.66" y1="25.95" x2="152.43" y2="198.29"/>
  </g>
</svg>
