<svg xmlns="http://www.w3.org/2000/svg" width="394.3" height="410.62" viewBox="0 0 394.3 410.62">
  <defs>
    <style>
      .a, .c {
        fill: #7629f4;
      }

      .b, .d, .f, .h {
        fill: none;
      }

      .b, .c, .f {
        stroke: #fff;
      }

      .b {
        stroke-linecap: round;
        stroke-linejoin: round;
      }

      .b, .c {
        stroke-width: 2px;
      }

      .c, .d, .f, .h {
        stroke-miterlimit: 10;
      }

      .d {
        stroke: #7629f4;
      }

      .e {
        fill: #fff;
      }

      .f, .h {
        stroke-width: 0.5px;
      }

      .g {
        fill: #222;
      }

      .h {
        stroke: #222;
      }
    </style>
  </defs>
  <title>cost-effective-graph-2</title>
  <rect class="a" x="7.89" y="163.26" width="364" height="238"/>
  <g>
    <polygon class="a" points="371.89 248.26 343.89 248.26 315.89 66.26 287.89 52.26 259.89 346.26 231.89 346.26 203.89 374.26 175.89 304.26 147.89 94.26 119.89 108.26 91.91 374.26 63.89 318.26 35.89 360.26 7.89 360.26 7.89 401.76 371.89 401.76 371.89 248.26"/>
    <polyline class="b" points="371.89 248.26 343.89 248.26 315.89 66.26 287.89 52.26 259.89 346.26 231.89 346.26 203.89 374.26 175.89 304.26 147.89 94.26 119.89 108.26 91.91 374.26 63.89 318.26 35.89 360.26 7.89 360.26"/>
    <circle class="c" cx="175.89" cy="304.26" r="3.2"/>
    <circle class="c" cx="203.89" cy="374.26" r="3.2"/>
    <circle class="c" cx="231.89" cy="346.26" r="3.2"/>
    <circle class="c" cx="259.89" cy="346.26" r="3.2"/>
    <circle class="c" cx="343.89" cy="248.26" r="3.2"/>
    <circle class="c" cx="91.91" cy="374.26" r="3.2"/>
    <circle class="c" cx="63.89" cy="318.26" r="3.2"/>
    <circle class="c" cx="35.89" cy="360.26" r="3.2"/>
    <polyline class="d" points="8.39 38.76 8.39 401.76 386.39 401.76"/>
    <circle class="c" cx="8.39" cy="401.76" r="5"/>
    <path class="c" d="M1.86,45l7-10.6,7,10.6h-14Z" transform="translate(0 -1.14)"/>
    <path class="c" d="M381.89,395.87l10.6,7-10.6,7v-14Z" transform="translate(0 -1.14)"/>
    <g>
      <circle class="e" cx="119.89" cy="108.26" r="4.7"/>
      <path class="a" d="M119.89,106.2a3.2,3.2,0,1,1-3.2,3.2,3.2,3.2,0,0,1,3.2-3.2m0-3a6.2,6.2,0,1,0,6.2,6.2,6.21,6.21,0,0,0-6.2-6.2h0Z" transform="translate(0 -1.14)"/>
    </g>
    <g>
      <circle class="e" cx="147.89" cy="94.26" r="4.7"/>
      <path class="a" d="M147.89,92.2a3.2,3.2,0,1,1-3.2,3.2,3.2,3.2,0,0,1,3.2-3.2m0-3a6.2,6.2,0,1,0,6.2,6.2,6.21,6.21,0,0,0-6.2-6.2h0Z" transform="translate(0 -1.14)"/>
    </g>
    <g>
      <circle class="e" cx="287.89" cy="52.26" r="4.7"/>
      <path class="a" d="M287.89,50.2a3.2,3.2,0,1,1-3.2,3.2,3.2,3.2,0,0,1,3.2-3.2m0-3a6.2,6.2,0,1,0,6.2,6.2,6.21,6.21,0,0,0-6.2-6.2h0Z" transform="translate(0 -1.14)"/>
    </g>
    <g>
      <circle class="e" cx="315.89" cy="66.26" r="4.7"/>
      <path class="a" d="M315.89,64.2a3.2,3.2,0,1,1-3.2,3.2,3.2,3.2,0,0,1,3.2-3.2m0-3a6.2,6.2,0,1,0,6.2,6.2,6.21,6.21,0,0,0-6.2-6.2h0Z" transform="translate(0 -1.14)"/>
    </g>
    <line class="f" x1="21.89" y1="374.26" x2="21.89" y2="401.76"/>
    <line class="f" x1="35.89" y1="374.26" x2="35.89" y2="401.76"/>
    <line class="f" x1="49.89" y1="360.26" x2="49.89" y2="401.76"/>
    <line class="f" x1="63.89" y1="346.26" x2="63.89" y2="402.26"/>
    <line class="f" x1="77.89" y1="374.26" x2="77.89" y2="401.76"/>
    <line class="f" x1="91.89" y1="388.01" x2="91.89" y2="401.76"/>
    <line class="f" x1="105.89" y1="360.26" x2="105.89" y2="401.76"/>
    <line class="f" x1="119.89" y1="234.26" x2="119.89" y2="402.26"/>
    <line class="f" x1="133.89" y1="108.26" x2="133.89" y2="401.76"/>
    <line class="f" x1="147.89" y1="192.26" x2="147.89" y2="401.76"/>
    <line class="f" x1="161.89" y1="276.26" x2="161.89" y2="401.76"/>
    <line class="f" x1="175.89" y1="346.26" x2="175.89" y2="401.74"/>
    <line class="f" x1="189.89" y1="360.26" x2="189.89" y2="401.74"/>
    <line class="f" x1="203.89" y1="388.26" x2="203.89" y2="402.26"/>
    <line class="f" x1="217.89" y1="374.26" x2="217.89" y2="401.76"/>
    <line class="f" x1="231.89" y1="360.26" x2="231.89" y2="401.74"/>
    <line class="f" x1="245.89" y1="360.26" x2="245.89" y2="401.74"/>
    <line class="f" x1="259.89" y1="360.26" x2="259.89" y2="401.76"/>
    <line class="f" x1="273.89" y1="304.26" x2="273.89" y2="401.74"/>
    <line class="f" x1="287.89" y1="192.26" x2="287.89" y2="401.74"/>
    <line class="f" x1="301.89" y1="66.26" x2="301.89" y2="401.74"/>
    <line class="f" x1="315.89" y1="122.26" x2="315.89" y2="401.74"/>
    <line class="f" x1="329.89" y1="206.26" x2="329.89" y2="401.74"/>
    <line class="f" x1="343.89" y1="262.26" x2="343.89" y2="401.74"/>
    <line class="f" x1="357.89" y1="262.26" x2="357.89" y2="401.76"/>
    <g>
      <g>
        <path class="g" d="M82.67,6.31V7.43H78.52v3.35h4.57V11.9H77.35V2.09H83V3.22H78.52v3.1h4.15Z" transform="translate(0 -1.14)"/>
        <path class="g" d="M87.27,7.81L88.9,5.43h1.3L88,8.57l2.33,3.33H89L87.19,9.36,85.44,11.9H84.12l2.35-3.33L84.26,5.43h1.37Z" transform="translate(0 -1.14)"/>
        <path class="g" d="M92.26,5.43v-2h1.18v2h2V6.49h-2V10a1,1,0,0,0,.24.74,0.85,0.85,0,0,0,.66.26,1.07,1.07,0,0,0,.42-0.08,2.7,2.7,0,0,0,.36-0.19l0.43,1a3,3,0,0,1-.74.31,2.44,2.44,0,0,1-.58.08,2.2,2.2,0,0,1-.71-0.12,1.85,1.85,0,0,1-.63-0.36A1.82,1.82,0,0,1,92.43,11,2.2,2.2,0,0,1,92.26,10V6.49H91V5.43h1.26Z" transform="translate(0 -1.14)"/>
        <path class="g" d="M100.19,5.3a2.62,2.62,0,0,1,.47.13l-0.43,1.06a1.45,1.45,0,0,0-.36-0.11l-0.36,0a1.34,1.34,0,0,0-.55.1,1.84,1.84,0,0,0-.43.26,1.63,1.63,0,0,0-.32.35,2.75,2.75,0,0,0-.22.38V11.9H96.82V5.43h1.09v1A2.9,2.9,0,0,1,98.21,6a2.15,2.15,0,0,1,.4-0.37,2,2,0,0,1,.5-0.26,1.85,1.85,0,0,1,.62-0.1A2.72,2.72,0,0,1,100.19,5.3Z" transform="translate(0 -1.14)"/>
        <path class="g" d="M105.39,5.46a2.5,2.5,0,0,1,.88.54,2.26,2.26,0,0,1,.52.76,2.29,2.29,0,0,1,.17.88V11.9h-1.08V11a2.7,2.7,0,0,1-3.06,1,2.58,2.58,0,0,1-.78-0.43,2.11,2.11,0,0,1-.56-0.69,2.13,2.13,0,0,1,0-1.81A2.09,2.09,0,0,1,102,8.31a2.52,2.52,0,0,1,.82-0.45,3.17,3.17,0,0,1,1-.16,3.54,3.54,0,0,1,1.12.17,3.72,3.72,0,0,1,.81.36V7.88a1.55,1.55,0,0,0-.18-0.81,1.35,1.35,0,0,0-.44-0.46,1.52,1.52,0,0,0-.55-0.21,3,3,0,0,0-.48,0,3.34,3.34,0,0,0-1,.15,5.29,5.29,0,0,0-1,.39l-0.49-1a5.54,5.54,0,0,1,1-.45,4.38,4.38,0,0,1,1.39-.21A3.49,3.49,0,0,1,105.39,5.46ZM105,10.71a3.36,3.36,0,0,0,.74-0.66V9.14a2.53,2.53,0,0,0-.73-0.33,3.34,3.34,0,0,0-1-.13,2,2,0,0,0-1.22.34,1,1,0,0,0-.43.87,1,1,0,0,0,.13.51,1.07,1.07,0,0,0,.34.36,1.6,1.6,0,0,0,.47.21,2.05,2.05,0,0,0,.54.07A2,2,0,0,0,105,10.71Z" transform="translate(0 -1.14)"/>
        <path class="g" d="M117.76,11.26a3.42,3.42,0,0,1-.59.41,3.34,3.34,0,0,1-.74.29,3.31,3.31,0,0,1-.88.11,3.27,3.27,0,0,1-1.32-.27,3.35,3.35,0,0,1-1.06-.72,3.26,3.26,0,0,1-.7-1.08,3.54,3.54,0,0,1-.25-1.34,3.48,3.48,0,0,1,.25-1.33,3.35,3.35,0,0,1,.7-1.08,3.39,3.39,0,0,1,3.24-.89,3.5,3.5,0,0,1,.71.27,3.44,3.44,0,0,1,.58.38,3.31,3.31,0,0,1,.43.41l-0.8.71a2.8,2.8,0,0,0-.69-0.53,2.15,2.15,0,0,0-1.09-.26,2.12,2.12,0,0,0-.89.18A2,2,0,0,0,114,7a2.28,2.28,0,0,0-.43.74,2.69,2.69,0,0,0,0,1.79,2.28,2.28,0,0,0,.43.74,2,2,0,0,0,.68.5,2.12,2.12,0,0,0,.89.18,2.18,2.18,0,0,0,1.16-.29,2.57,2.57,0,0,0,.74-0.63l0.76,0.77A4.35,4.35,0,0,1,117.76,11.26Z" transform="translate(0 -1.14)"/>
        <path class="g" d="M123.56,5.53a3.35,3.35,0,0,1,1.06.72,3.25,3.25,0,0,1,.7,1.08,3.67,3.67,0,0,1,0,2.68,3.26,3.26,0,0,1-.7,1.08,3.35,3.35,0,0,1-1.06.72,3.43,3.43,0,0,1-2.65,0,3.35,3.35,0,0,1-1.06-.72,3.26,3.26,0,0,1-.7-1.08,3.68,3.68,0,0,1,0-2.68,3.25,3.25,0,0,1,.7-1.08,3.35,3.35,0,0,1,1.06-.72A3.43,3.43,0,0,1,123.56,5.53Zm-0.43,5.27a2,2,0,0,0,.68-0.5,2.28,2.28,0,0,0,.43-0.74,2.69,2.69,0,0,0,0-1.79A2.28,2.28,0,0,0,123.8,7a2,2,0,0,0-.68-0.5,2.26,2.26,0,0,0-1.78,0,2,2,0,0,0-.68.5,2.27,2.27,0,0,0-.43.74,2.68,2.68,0,0,0,0,1.79,2.27,2.27,0,0,0,.43.74,2,2,0,0,0,.68.5A2.26,2.26,0,0,0,123.12,10.79Z" transform="translate(0 -1.14)"/>
        <path class="g" d="M127.61,10.32a2.58,2.58,0,0,0,.44.34,2.6,2.6,0,0,0,.55.25,2.13,2.13,0,0,0,.67.1,2.8,2.8,0,0,0,.47,0,1.53,1.53,0,0,0,.45-0.15,1.07,1.07,0,0,0,.34-0.27,0.66,0.66,0,0,0,0-.79,1.05,1.05,0,0,0-.35-0.28,2.4,2.4,0,0,0-.48-0.18l-0.51-.13q-0.32-.07-0.73-0.2a3.56,3.56,0,0,1-.77-0.34,2,2,0,0,1-.62-0.57,1.43,1.43,0,0,1-.25-0.85A1.74,1.74,0,0,1,127,6.46a1.84,1.84,0,0,1,.48-0.62,2.38,2.38,0,0,1,.75-0.42,2.92,2.92,0,0,1,1-.15,3.15,3.15,0,0,1,1.44.31,3.53,3.53,0,0,1,1,.67l-0.77.8a3.07,3.07,0,0,0-.66-0.48,2,2,0,0,0-1-.23,1.36,1.36,0,0,0-.9.26,0.75,0.75,0,0,0-.31.58,0.56,0.56,0,0,0,.13.38,1,1,0,0,0,.36.26A3.17,3.17,0,0,0,129,8l0.57,0.15q0.36,0.08.76,0.21a2.88,2.88,0,0,1,.74.35,2,2,0,0,1,.56.57,1.52,1.52,0,0,1,.22.85,1.66,1.66,0,0,1-.22.88,1.9,1.9,0,0,1-.58.61,2.66,2.66,0,0,1-.82.36,3.69,3.69,0,0,1-.92.12,3.4,3.4,0,0,1-.92-0.12,3.5,3.5,0,0,1-.78-0.31,4,4,0,0,1-.63-0.43,2.81,2.81,0,0,1-.46-0.49L127.3,10A2.44,2.44,0,0,0,127.61,10.32Z" transform="translate(0 -1.14)"/>
        <path class="g" d="M134,5.43v-2h1.18v2h2V6.49h-2V10a1,1,0,0,0,.24.74A0.85,0.85,0,0,0,136,11a1.07,1.07,0,0,0,.42-0.08,2.67,2.67,0,0,0,.36-0.19l0.43,1a3,3,0,0,1-.74.31,2.45,2.45,0,0,1-.58.08,2.2,2.2,0,0,1-.71-0.12,1.86,1.86,0,0,1-.63-0.36,1.83,1.83,0,0,1-.46-0.63A2.21,2.21,0,0,1,134,10V6.49h-1.26V5.43H134Z" transform="translate(0 -1.14)"/>
        <path class="g" d="M142.1,3.49A1.67,1.67,0,0,0,140.89,3a1.85,1.85,0,0,0-.67.12,1.88,1.88,0,0,0-.55.32,2.47,2.47,0,0,0-.42.46,2.66,2.66,0,0,0-.29.54L138,4a3.25,3.25,0,0,1,1.11-1.49,3,3,0,0,1,1.81-.57,3.1,3.1,0,0,1,1.13.2,2.84,2.84,0,0,1,.92.57,2.66,2.66,0,0,1,.62.86,2.61,2.61,0,0,1,.22,1.09,2.56,2.56,0,0,1-.15.89,3,3,0,0,1-.37.71,3.87,3.87,0,0,1-.49.57q-0.27.25-.49,0.43l-0.46.4a1.15,1.15,0,0,0-.23.27,0.69,0.69,0,0,0-.08.27q0,0.14,0,.38V9.38h-1.09V8.57q0-.34,0-0.58a1.4,1.4,0,0,1,.12-0.46,1.7,1.7,0,0,1,.29-0.43,5.6,5.6,0,0,1,.55-0.51l0.39-.33a3.11,3.11,0,0,0,.39-0.39,2.08,2.08,0,0,0,.31-0.5,1.61,1.61,0,0,0,.13-0.65A1.61,1.61,0,0,0,142.1,3.49Zm-1.72,7.23a0.75,0.75,0,0,1,.55-0.24,0.81,0.81,0,0,1,.8.8,0.74,0.74,0,0,1-.24.55,0.78,0.78,0,0,1-.56.23,0.79,0.79,0,0,1-.78-0.78A0.78,0.78,0,0,1,140.38,10.72Z" transform="translate(0 -1.14)"/>
      </g>
      <g>
        <path class="g" d="M211.58,2.09a3.64,3.64,0,0,1,2.44.77,2.71,2.71,0,0,1,.9,2.19,2.71,2.71,0,0,1-.9,2.19,3.64,3.64,0,0,1-2.44.77h-1.36V11.9H209V2.09h2.54Zm1.55,4.34a1.6,1.6,0,0,0,.62-1.39,1.6,1.6,0,0,0-.62-1.39,2.7,2.7,0,0,0-1.62-.45h-1.29V6.89h1.29A2.7,2.7,0,0,0,213.13,6.44Z" transform="translate(0 -1.14)"/>
        <path class="g" d="M220.22,5.51a2.9,2.9,0,0,1,1,.69,3.21,3.21,0,0,1,.66,1.09,4,4,0,0,1,.24,1.42V8.89a1.54,1.54,0,0,1,0,.2h-5.22a1.8,1.8,0,0,0,.21.71,2.21,2.21,0,0,0,1.16,1,2.32,2.32,0,0,0,.85.15,2.26,2.26,0,0,0,1.17-.29,2.69,2.69,0,0,0,.78-0.66l0.74,0.77a4.57,4.57,0,0,1-.48.47,3.48,3.48,0,0,1-.62.41,3.4,3.4,0,0,1-.75.29,3.51,3.51,0,0,1-.88.1,3.41,3.41,0,0,1-1.33-.26,3.12,3.12,0,0,1-1.06-.72A3.39,3.39,0,0,1,216,10a3.63,3.63,0,0,1-.25-1.36,3.67,3.67,0,0,1,.23-1.3,3.31,3.31,0,0,1,.65-1.08,3,3,0,0,1,1-.73A3.41,3.41,0,0,1,220.22,5.51Zm0.6,2A2.06,2.06,0,0,0,220.45,7a1.88,1.88,0,0,0-.62-0.43A2.11,2.11,0,0,0,219,6.35a2,2,0,0,0-.89.18,2.14,2.14,0,0,0-.62.44,2,2,0,0,0-.38.57,2,2,0,0,0-.16.56H221A1.69,1.69,0,0,0,220.82,7.53Z" transform="translate(0 -1.14)"/>
        <path class="g" d="M226.83,5.3a2.62,2.62,0,0,1,.47.13l-0.43,1.06a1.46,1.46,0,0,0-.36-0.11l-0.36,0a1.34,1.34,0,0,0-.55.1,1.85,1.85,0,0,0-.43.26,1.63,1.63,0,0,0-.32.35,2.64,2.64,0,0,0-.22.38V11.9h-1.18V5.43h1.09v1a2.94,2.94,0,0,1,.3-0.43,2.14,2.14,0,0,1,.4-0.37,2,2,0,0,1,.5-0.26,1.85,1.85,0,0,1,.62-0.1A2.71,2.71,0,0,1,226.83,5.3Z" transform="translate(0 -1.14)"/>
        <path class="g" d="M228.95,5.43V3.2a2.1,2.1,0,0,1,.18-0.9,2,2,0,0,1,.47-0.64,1.88,1.88,0,0,1,.65-0.39A2.21,2.21,0,0,1,231,1.14a2.8,2.8,0,0,1,.57.07,2.71,2.71,0,0,1,.75.31l-0.43,1a1.56,1.56,0,0,0-.8-0.25,0.88,0.88,0,0,0-.69.28,1.09,1.09,0,0,0-.25.76V5.43h1.68V6.49h-1.68V11.9h-1.18V6.49H227.6V5.43h1.34Z" transform="translate(0 -1.14)"/>
        <path class="g" d="M237.23,5.53a3.35,3.35,0,0,1,1.06.72,3.27,3.27,0,0,1,.7,1.08A3.68,3.68,0,0,1,239,10a3.28,3.28,0,0,1-.7,1.08,3.35,3.35,0,0,1-1.06.72,3.43,3.43,0,0,1-2.65,0,3.35,3.35,0,0,1-1.06-.72,3.26,3.26,0,0,1-.7-1.08,3.68,3.68,0,0,1,0-2.68,3.25,3.25,0,0,1,.7-1.08,3.35,3.35,0,0,1,1.06-.72A3.43,3.43,0,0,1,237.23,5.53Zm-0.43,5.27a2,2,0,0,0,.68-0.5,2.25,2.25,0,0,0,.43-0.74,2.68,2.68,0,0,0,0-1.79A2.25,2.25,0,0,0,237.48,7a2,2,0,0,0-.68-0.5,2.26,2.26,0,0,0-1.78,0,2,2,0,0,0-.68.5,2.27,2.27,0,0,0-.43.74,2.68,2.68,0,0,0,0,1.79,2.27,2.27,0,0,0,.43.74,2,2,0,0,0,.68.5A2.26,2.26,0,0,0,236.8,10.79Z" transform="translate(0 -1.14)"/>
        <path class="g" d="M244,5.3a2.61,2.61,0,0,1,.47.13L244,6.49a1.45,1.45,0,0,0-.36-0.11,2.17,2.17,0,0,0-.36,0,1.33,1.33,0,0,0-.55.1,1.84,1.84,0,0,0-.43.26,1.6,1.6,0,0,0-.32.35,2.65,2.65,0,0,0-.22.38V11.9h-1.18V5.43h1.09v1A2.87,2.87,0,0,1,242,6a2.13,2.13,0,0,1,.4-0.37,2,2,0,0,1,.5-0.26,1.85,1.85,0,0,1,.62-0.1A2.72,2.72,0,0,1,244,5.3Z" transform="translate(0 -1.14)"/>
        <path class="g" d="M253.8,5.9a2.55,2.55,0,0,1,.62,1.84V11.9h-1.18v-4a1.63,1.63,0,0,0-.38-1.18,1.3,1.3,0,0,0-1-.39,1.24,1.24,0,0,0-.91.33,2.54,2.54,0,0,0-.52.71V11.9h-1.18v-4a1.63,1.63,0,0,0-.38-1.18,1.28,1.28,0,0,0-1-.39,1.43,1.43,0,0,0-.53.09,1.45,1.45,0,0,0-.41.24,1.6,1.6,0,0,0-.3.34,2.84,2.84,0,0,0-.21.37V11.9h-1.18V5.43h1.09v1a2.5,2.5,0,0,1,.25-0.4,1.74,1.74,0,0,1,.38-0.36,1.92,1.92,0,0,1,.52-0.26,2.12,2.12,0,0,1,.67-0.1,2.59,2.59,0,0,1,1.15.27,1.74,1.74,0,0,1,.84.93A2.36,2.36,0,0,1,251,5.63a2,2,0,0,1,1.27-.37A2.11,2.11,0,0,1,253.8,5.9Z" transform="translate(0 -1.14)"/>
        <path class="g" d="M260,5.46a2.5,2.5,0,0,1,.88.54,2.27,2.27,0,0,1,.52.76,2.3,2.3,0,0,1,.17.88V11.9h-1.08V11a2.72,2.72,0,0,1-2.18,1.11,2.67,2.67,0,0,1-.88-0.15,2.58,2.58,0,0,1-.78-0.43,2.1,2.1,0,0,1-.56-0.69,2.13,2.13,0,0,1,0-1.81,2.09,2.09,0,0,1,.54-0.69,2.52,2.52,0,0,1,.82-0.45,3.17,3.17,0,0,1,1-.16,3.53,3.53,0,0,1,1.12.17,3.71,3.71,0,0,1,.81.36V7.88a1.55,1.55,0,0,0-.18-0.81,1.36,1.36,0,0,0-.44-0.46,1.52,1.52,0,0,0-.55-0.21,2.94,2.94,0,0,0-.48,0,3.34,3.34,0,0,0-1,.15,5.29,5.29,0,0,0-1,.39l-0.49-1a5.58,5.58,0,0,1,1-.45,4.38,4.38,0,0,1,1.39-.21A3.49,3.49,0,0,1,260,5.46Zm-0.34,5.25a3.33,3.33,0,0,0,.74-0.66V9.14a2.52,2.52,0,0,0-.73-0.33,3.34,3.34,0,0,0-1-.13,2,2,0,0,0-1.22.34,1,1,0,0,0-.43.87,1,1,0,0,0,.13.51,1.08,1.08,0,0,0,.34.36A1.58,1.58,0,0,0,258,11a2.05,2.05,0,0,0,.54.07A2,2,0,0,0,259.67,10.71Z" transform="translate(0 -1.14)"/>
        <path class="g" d="M267.39,5.42a2.22,2.22,0,0,1,1.31,1.25,2.7,2.7,0,0,1,.2,1.06V11.9h-1.18v-4a1.81,1.81,0,0,0-.13-0.71,1.49,1.49,0,0,0-.33-0.49,1.26,1.26,0,0,0-.48-0.29,1.79,1.79,0,0,0-.57-0.09,1.63,1.63,0,0,0-.58.1,1.69,1.69,0,0,0-.46.26,2.21,2.21,0,0,0-.36.36,4,4,0,0,0-.27.38V11.9h-1.18V5.43h1.09V6.34a2.52,2.52,0,0,1,.75-0.74,2.19,2.19,0,0,1,1.25-.34A2.65,2.65,0,0,1,267.39,5.42Z" transform="translate(0 -1.14)"/>
        <path class="g" d="M275.77,11.26a3.45,3.45,0,0,1-.59.41,3.36,3.36,0,0,1-.74.29,3.31,3.31,0,0,1-.88.11,3.27,3.27,0,0,1-1.32-.27,3.35,3.35,0,0,1-1.06-.72,3.26,3.26,0,0,1-.7-1.08,3.52,3.52,0,0,1-.25-1.34,3.46,3.46,0,0,1,.25-1.33,3.35,3.35,0,0,1,.7-1.08,3.39,3.39,0,0,1,3.24-.89,3.5,3.5,0,0,1,.71.27,3.44,3.44,0,0,1,.58.38,3.23,3.23,0,0,1,.43.41l-0.8.71a2.81,2.81,0,0,0-.69-0.53,2.15,2.15,0,0,0-1.09-.26,2.12,2.12,0,0,0-.89.18A2,2,0,0,0,272,7a2.27,2.27,0,0,0-.43.74,2.68,2.68,0,0,0,0,1.79,2.27,2.27,0,0,0,.43.74,2,2,0,0,0,.68.5,2.12,2.12,0,0,0,.89.18,2.18,2.18,0,0,0,1.16-.29,2.59,2.59,0,0,0,.74-0.63l0.76,0.77A4.3,4.3,0,0,1,275.77,11.26Z" transform="translate(0 -1.14)"/>
        <path class="g" d="M281.4,5.51a2.9,2.9,0,0,1,1,.69,3.19,3.19,0,0,1,.66,1.09,4,4,0,0,1,.24,1.42V8.89a1.72,1.72,0,0,1,0,.2h-5.22a1.78,1.78,0,0,0,.21.71,2.22,2.22,0,0,0,1.16,1,2.32,2.32,0,0,0,.85.15,2.26,2.26,0,0,0,1.17-.29,2.71,2.71,0,0,0,.78-0.66L283,10.79a4.57,4.57,0,0,1-.48.47,3.48,3.48,0,0,1-.62.41,3.4,3.4,0,0,1-.75.29,3.51,3.51,0,0,1-.88.1,3.41,3.41,0,0,1-1.33-.26,3.11,3.11,0,0,1-1.06-.72,3.37,3.37,0,0,1-.69-1.09,3.61,3.61,0,0,1-.25-1.36,3.67,3.67,0,0,1,.23-1.3,3.31,3.31,0,0,1,.65-1.08,3,3,0,0,1,1-.73A3.41,3.41,0,0,1,281.4,5.51Zm0.6,2A2.06,2.06,0,0,0,281.62,7,1.89,1.89,0,0,0,281,6.52a2.11,2.11,0,0,0-.88-0.17,2,2,0,0,0-.89.18,2.13,2.13,0,0,0-.62.44,2,2,0,0,0-.38.57,2,2,0,0,0-.16.56h4.06A1.69,1.69,0,0,0,282,7.53Z" transform="translate(0 -1.14)"/>
        <path class="g" d="M289.64,6.37a2.66,2.66,0,0,1,.83-0.76,2.52,2.52,0,0,1,1.35-.34,2.9,2.9,0,0,1,1.23.27,3.13,3.13,0,0,1,1,.72,3.41,3.41,0,0,1,.67,1.08,3.77,3.77,0,0,1,0,2.68,3.42,3.42,0,0,1-.67,1.08,3.12,3.12,0,0,1-1,.72,2.89,2.89,0,0,1-1.23.27A2.61,2.61,0,0,1,291,12a2.92,2.92,0,0,1-.61-0.27,2.38,2.38,0,0,1-.43-0.32,2.33,2.33,0,0,1-.25-0.27v4h-1.18V5.43h1.08V6.37Zm0.4,3.89a2.23,2.23,0,0,0,.41.36,2.11,2.11,0,0,0,1.2.36,2.09,2.09,0,0,0,.88-0.18,1.94,1.94,0,0,0,.67-0.5,2.36,2.36,0,0,0,.43-0.74,2.7,2.7,0,0,0,0-1.79A2.36,2.36,0,0,0,293.2,7a1.94,1.94,0,0,0-.67-0.5,2.09,2.09,0,0,0-.88-0.18,2.13,2.13,0,0,0-.67.1,2.1,2.1,0,0,0-.54.26,2.21,2.21,0,0,0-.41.36,3.19,3.19,0,0,0-.3.39V9.87A3.19,3.19,0,0,0,290,10.26Z" transform="translate(0 -1.14)"/>
        <path class="g" d="M300.34,5.51a2.89,2.89,0,0,1,1,.69A3.2,3.2,0,0,1,302,7.28a4.05,4.05,0,0,1,.24,1.42V8.89a1.52,1.52,0,0,1,0,.2H297a1.8,1.8,0,0,0,.21.71,2.22,2.22,0,0,0,1.16,1,2.32,2.32,0,0,0,.85.15,2.25,2.25,0,0,0,1.17-.29,2.68,2.68,0,0,0,.78-0.66l0.74,0.77a4.66,4.66,0,0,1-.48.47,3.49,3.49,0,0,1-.62.41,3.4,3.4,0,0,1-.75.29,3.5,3.5,0,0,1-.88.1,3.41,3.41,0,0,1-1.33-.26,3.11,3.11,0,0,1-1.06-.72,3.39,3.39,0,0,1-.69-1.09,3.63,3.63,0,0,1-.25-1.36,3.7,3.7,0,0,1,.23-1.3,3.3,3.3,0,0,1,.65-1.08,3,3,0,0,1,1-.73A3.41,3.41,0,0,1,300.34,5.51Zm0.6,2A2,2,0,0,0,300.57,7a1.87,1.87,0,0,0-.62-0.43,2.11,2.11,0,0,0-.87-0.17,2,2,0,0,0-.89.18,2.11,2.11,0,0,0-.62.44,1.93,1.93,0,0,0-.38.57,2,2,0,0,0-.16.56h4.06A1.69,1.69,0,0,0,300.95,7.53Z" transform="translate(0 -1.14)"/>
        <path class="g" d="M307.59,5.42a2.22,2.22,0,0,1,1.31,1.25,2.7,2.7,0,0,1,.2,1.06V11.9h-1.18v-4a1.81,1.81,0,0,0-.13-0.71,1.5,1.5,0,0,0-.33-0.49A1.26,1.26,0,0,0,307,6.44a1.78,1.78,0,0,0-.57-0.09,1.63,1.63,0,0,0-.58.1,1.71,1.71,0,0,0-.46.26,2.16,2.16,0,0,0-.36.36,4.07,4.07,0,0,0-.27.38V11.9h-1.18V5.43h1.09V6.34a2.51,2.51,0,0,1,.75-0.74,2.19,2.19,0,0,1,1.25-.34A2.66,2.66,0,0,1,307.59,5.42Z" transform="translate(0 -1.14)"/>
        <path class="g" d="M314.7,5.46a2.5,2.5,0,0,1,.88.54,2.25,2.25,0,0,1,.52.76,2.28,2.28,0,0,1,.17.88V11.9h-1.08V11a2.7,2.7,0,0,1-3.06,1,2.57,2.57,0,0,1-.78-0.43,2.11,2.11,0,0,1-.56-0.69,2.13,2.13,0,0,1,0-1.81,2.09,2.09,0,0,1,.54-0.69,2.52,2.52,0,0,1,.82-0.45,3.17,3.17,0,0,1,1-.16,3.54,3.54,0,0,1,1.12.17,3.73,3.73,0,0,1,.81.36V7.88a1.54,1.54,0,0,0-.18-0.81,1.35,1.35,0,0,0-.44-0.46,1.52,1.52,0,0,0-.55-0.21,3,3,0,0,0-.48,0,3.35,3.35,0,0,0-1,.15,5.31,5.31,0,0,0-1,.39l-0.49-1a5.52,5.52,0,0,1,1-.45,4.37,4.37,0,0,1,1.39-.21A3.49,3.49,0,0,1,314.7,5.46Zm-0.34,5.25a3.34,3.34,0,0,0,.74-0.66V9.14a2.53,2.53,0,0,0-.73-0.33,3.35,3.35,0,0,0-1-.13,2,2,0,0,0-1.22.34,1.05,1.05,0,0,0-.43.87,1,1,0,0,0,.13.51,1.07,1.07,0,0,0,.34.36,1.59,1.59,0,0,0,.47.21,2,2,0,0,0,.54.07A1.94,1.94,0,0,0,314.36,10.71Z" transform="translate(0 -1.14)"/>
        <path class="g" d="M319.49,1.31V11.9h-1.18V1.31h1.18Z" transform="translate(0 -1.14)"/>
        <path class="g" d="M322.23,5.43v-2h1.18v2h2V6.49h-2V10a1,1,0,0,0,.24.74,0.85,0.85,0,0,0,.66.26,1.07,1.07,0,0,0,.42-0.08,2.76,2.76,0,0,0,.36-0.19l0.43,1a3,3,0,0,1-.74.31,2.44,2.44,0,0,1-.58.08,2.19,2.19,0,0,1-.71-0.12,1.86,1.86,0,0,1-.63-0.36A1.84,1.84,0,0,1,322.4,11a2.2,2.2,0,0,1-.17-0.92V6.49H321V5.43h1.26Z" transform="translate(0 -1.14)"/>
        <path class="g" d="M327,2.79a0.8,0.8,0,0,1,1.36.56A0.8,0.8,0,1,1,327,2.79Zm1.15,2.63V11.9H327V5.43h1.18Z" transform="translate(0 -1.14)"/>
        <path class="g" d="M334.22,5.51a2.9,2.9,0,0,1,1,.69,3.21,3.21,0,0,1,.66,1.09,4,4,0,0,1,.24,1.42V8.89a1.54,1.54,0,0,1,0,.2h-5.22a1.8,1.8,0,0,0,.21.71,2.22,2.22,0,0,0,1.16,1,2.32,2.32,0,0,0,.85.15,2.25,2.25,0,0,0,1.17-.29,2.67,2.67,0,0,0,.78-0.66l0.74,0.77a4.67,4.67,0,0,1-.48.47,3.48,3.48,0,0,1-.62.41,3.41,3.41,0,0,1-.75.29,3.51,3.51,0,0,1-.88.1,3.41,3.41,0,0,1-1.33-.26,3.12,3.12,0,0,1-1.06-.72A3.39,3.39,0,0,1,330,10a3.63,3.63,0,0,1-.25-1.36,3.67,3.67,0,0,1,.23-1.3,3.3,3.3,0,0,1,.65-1.08,3,3,0,0,1,1-.73A3.41,3.41,0,0,1,334.22,5.51Zm0.6,2A2.06,2.06,0,0,0,334.45,7a1.89,1.89,0,0,0-.62-0.43A2.12,2.12,0,0,0,333,6.35a2,2,0,0,0-.89.18,2.13,2.13,0,0,0-.62.44,2,2,0,0,0-.38.57,2,2,0,0,0-.16.56H335A1.67,1.67,0,0,0,334.82,7.53Z" transform="translate(0 -1.14)"/>
        <path class="g" d="M338.17,10.32a2.56,2.56,0,0,0,.44.34,2.62,2.62,0,0,0,.55.25,2.14,2.14,0,0,0,.67.1,2.8,2.8,0,0,0,.47,0,1.53,1.53,0,0,0,.45-0.15,1.06,1.06,0,0,0,.34-0.27,0.65,0.65,0,0,0,0-.79,1.05,1.05,0,0,0-.35-0.28,2.43,2.43,0,0,0-.48-0.18l-0.51-.13Q339.42,9.1,339,9a3.54,3.54,0,0,1-.77-0.34,2,2,0,0,1-.62-0.57,1.43,1.43,0,0,1-.25-0.85,1.74,1.74,0,0,1,.17-0.75A1.82,1.82,0,0,1,338,5.83a2.4,2.4,0,0,1,.75-0.42,2.91,2.91,0,0,1,1-.15,3.15,3.15,0,0,1,1.44.31,3.54,3.54,0,0,1,1,.67l-0.77.8a3.08,3.08,0,0,0-.66-0.48,2,2,0,0,0-1-.23,1.36,1.36,0,0,0-.9.26,0.75,0.75,0,0,0-.31.58,0.56,0.56,0,0,0,.13.38,1.06,1.06,0,0,0,.36.26,3.18,3.18,0,0,0,.5.18l0.57,0.15c0.24,0.06.5,0.13,0.76,0.21a2.88,2.88,0,0,1,.74.35,2,2,0,0,1,.56.57,1.52,1.52,0,0,1,.22.85,1.66,1.66,0,0,1-.22.88,1.91,1.91,0,0,1-.58.61,2.66,2.66,0,0,1-.82.36,3.68,3.68,0,0,1-.92.12,3.4,3.4,0,0,1-.92-0.12,3.49,3.49,0,0,1-.78-0.31,4,4,0,0,1-.63-0.43,2.84,2.84,0,0,1-.46-0.49l0.81-.76A2.42,2.42,0,0,0,338.17,10.32Z" transform="translate(0 -1.14)"/>
        <path class="g" d="M347.39,3.49A1.67,1.67,0,0,0,346.18,3a1.85,1.85,0,0,0-.67.12,1.87,1.87,0,0,0-.55.32,2.45,2.45,0,0,0-.42.46,2.64,2.64,0,0,0-.29.54l-1-.48a3.24,3.24,0,0,1,1.11-1.49,3,3,0,0,1,1.81-.57,3.1,3.1,0,0,1,1.13.2,2.84,2.84,0,0,1,.92.57,2.66,2.66,0,0,1,.62.86,2.61,2.61,0,0,1,.22,1.09,2.57,2.57,0,0,1-.15.89,3.1,3.1,0,0,1-.37.71,4,4,0,0,1-.49.57c-0.18.17-.34,0.31-0.49,0.43l-0.46.4a1.15,1.15,0,0,0-.23.27,0.7,0.7,0,0,0-.08.27c0,0.09,0,.22,0,0.38V9.38h-1.09V8.57c0-.22,0-0.42,0-0.58a1.4,1.4,0,0,1,.12-0.46,1.7,1.7,0,0,1,.29-0.43,5.5,5.5,0,0,1,.55-0.51l0.39-.33a3.17,3.17,0,0,0,.39-0.39,2.08,2.08,0,0,0,.31-0.5,1.61,1.61,0,0,0,.13-0.65A1.61,1.61,0,0,0,347.39,3.49Zm-1.72,7.23a0.75,0.75,0,0,1,.55-0.24,0.81,0.81,0,0,1,.8.8,0.74,0.74,0,0,1-.24.55,0.78,0.78,0,0,1-.56.23,0.79,0.79,0,0,1-.78-0.78A0.78,0.78,0,0,1,345.67,10.72Z" transform="translate(0 -1.14)"/>
      </g>
    </g>
    <line class="h" x1="294.09" y1="27.43" x2="298.89" y2="45.59"/>
    <line class="h" x1="114.4" y1="26.02" x2="126.1" y2="74.26"/>
  </g>
</svg>
