<!-- Generator: Adobe Illustrator 19.2.1, SVG Export Plug-In  -->
<svg version="1.1"
	 xmlns="http://www.w3.org/2000/svg" xmlns:xlink="http://www.w3.org/1999/xlink" xmlns:a="http://ns.adobe.com/AdobeSVGViewerExtensions/3.0/"
	 x="0px" y="0px" width="203.8px" height="110.6px" viewBox="0 0 203.8 110.6" style="enable-background:new 0 0 203.8 110.6;"
	 xml:space="preserve">
<style type="text/css">
	.st0{fill:#F1F1F1;stroke:#7629F4;stroke-width:1.2475;stroke-linecap:round;stroke-linejoin:round;stroke-miterlimit:10;}
	.st1{fill:#FFFFFF;stroke:#7629F4;stroke-width:1.2475;stroke-linecap:round;stroke-linejoin:round;stroke-miterlimit:10;}
	.st2{fill:none;stroke:#6D51F3;stroke-width:1.2475;stroke-linecap:round;stroke-linejoin:round;stroke-miterlimit:10;}
	.st3{fill:none;stroke:#7629F4;stroke-width:1.2475;stroke-linecap:round;stroke-linejoin:round;stroke-miterlimit:10;}
	.st4{fill:#7629F4;}
	.st5{enable-background:new    ;}
</style>
<defs>
</defs>
<g>
	<g>
		<g>
			<polyline class="st0" points="203.1,50.4 203.1,67 117.2,110 0.6,71.2 0.6,54.6 			"/>
			<polygon class="st1" points="203.1,50.4 117.2,93.4 0.6,54.6 33.8,38.2 0.6,27.2 53.8,0.6 			"/>
			<line class="st2" x1="0.6" y1="27.2" x2="0.6" y2="54.6"/>
			<line class="st3" x1="117.2" y1="93.4" x2="117.2" y2="110"/>
			<polyline class="st4" points="0.6,27.2 33.8,38.2 0.6,54.6 			"/>
		</g>
	</g>
	<g>
		<g class="st5">
			<g>
				<path class="st4" d="M54.9,43.8c-1.6,0.8-2.8,1.6-3.4,2.5c-0.6,0.9-0.9,1.8-0.6,2.7c0.2,0.9,0.9,1.7,2,2.5
					c1.1,0.8,2.6,1.5,4.6,2.2l32.2,10.9c2.7,0.9,5.3,1.5,7.7,1.8c2.4,0.3,4.7,0.3,6.8,0.2c2.1-0.2,4.1-0.5,5.8-1
					c1.8-0.5,3.3-1,4.5-1.7c1.5-0.7,2.5-1.5,3.1-2.4c0.6-0.9,0.7-1.8,0.4-2.7c-0.3-0.9-1-1.8-2-2.6c-1.1-0.8-2.5-1.5-4.4-2.2
					l-3.6-1.2l-6.7,3.3l2.9,1c1.2,0.4,2,0.8,2.5,1.2c0.5,0.4,0.8,0.8,0.8,1.1c0,0.4-0.1,0.7-0.4,1c-0.3,0.3-0.7,0.6-1.1,0.8
					c-1.5,0.7-3.2,1.1-4.9,1c-1.7-0.1-3.5-0.4-5.2-1L65.9,51c-2-0.7-3.3-1.4-4.1-2.1c-0.7-0.7-0.3-1.5,1.4-2.3
					c1.3-0.6,2.9-0.9,4.8-0.9c1.9,0,3.8,0.3,5.4,0.9l2.8,0.9l6.7-3.3l-3.3-1.1c-2-0.7-4.2-1.2-6.5-1.5c-2.3-0.3-4.5-0.5-6.7-0.4
					c-2.2,0.1-4.3,0.3-6.3,0.7C58.2,42.5,56.5,43.1,54.9,43.8"/>
				<path class="st4" d="M106.2,42.2l-19.9-6.8l3.5-1.7c1.3-0.6,2.6-1,3.8-1.2c1.2-0.2,2.4-0.2,3.7,0c1.2,0.1,2.5,0.4,3.8,0.8
					c1.3,0.4,2.6,0.8,4,1.3c1.5,0.5,2.8,1,3.9,1.4c1.1,0.4,2,0.9,2.5,1.4c0.5,0.5,0.6,1,0.4,1.5c-0.3,0.5-1.1,1.1-2.4,1.8
					L106.2,42.2 M81.7,31.1L71.7,36l58.6,19.9l6.7-3.3l-22.9-7.8l3.4-1.7c2.5-1.2,4-2.4,4.5-3.5c0.5-1.1,0.2-2.2-0.8-3.3
					c-0.8-0.9-2-1.8-3.6-2.5c-1.6-0.7-3.7-1.5-6.3-2.4c-3.5-1.2-6.5-2-9-2.5c-2.5-0.5-5.1-0.7-7.8-0.7c-2.7,0-5,0.3-7,0.8
					C85.5,29.5,83.6,30.2,81.7,31.1"/>
			</g>
		</g>
	</g>
</g>
</svg>
