<!-- Generator: Adobe Illustrator 19.2.1, SVG Export Plug-In  -->
<svg version="1.1"
	 xmlns="http://www.w3.org/2000/svg" xmlns:xlink="http://www.w3.org/1999/xlink" xmlns:a="http://ns.adobe.com/AdobeSVGViewerExtensions/3.0/"
	 x="0px" y="0px" width="210.2px" height="168.3px" viewBox="0 0 210.2 168.3" style="enable-background:new 0 0 210.2 168.3;"
	 xml:space="preserve">
<style type="text/css">
	.st0{fill:#F1F1F1;}
	.st1{fill:#F1F1F1;stroke:#7629F4;stroke-width:1.2475;stroke-linecap:round;stroke-linejoin:round;stroke-miterlimit:10;}
	.st2{fill:#FFFFFF;stroke:#7629F4;stroke-width:1.2475;stroke-linecap:round;stroke-linejoin:round;stroke-miterlimit:10;}
	.st3{fill:none;stroke:#6D51F3;stroke-width:1.2475;stroke-linecap:round;stroke-linejoin:round;stroke-miterlimit:10;}
	.st4{fill:none;stroke:#7629F4;stroke-width:1.2475;stroke-linecap:round;stroke-linejoin:round;stroke-miterlimit:10;}
	.st5{fill:#7629F4;}
	.st6{enable-background:new    ;}
</style>
<defs>
</defs>
<polygon class="st0" points="99,5.1 121.3,0 144.5,12.5 156.9,22 167,27 171.8,41 182,43 167,79.7 209.3,93.5 210.2,122 
	125.3,168.3 1.2,126 0,73 63.3,44.5 96.5,57.7 116.9,35.1 "/>
<g>
	<g>
		<g>
			<polyline class="st1" points="207.6,101.8 207.6,118.4 121.6,161.4 5.1,122.6 5.1,106 			"/>
			<polygon class="st2" points="207.6,101.8 121.6,144.8 5.1,106 38.3,89.7 5.1,78.6 58.2,52.1 			"/>
			<line class="st3" x1="5.1" y1="78.6" x2="5.1" y2="106"/>
			<line class="st4" x1="121.6" y1="144.8" x2="121.6" y2="161.4"/>
			<polyline class="st5" points="5.1,78.6 38.3,89.7 5.1,106 			"/>
		</g>
		<path class="st5" d="M145.7,90.7L178.6,48h-19.7c-0.1-3.8-2.8-38.2-50.2-38.2c0,0,24.9,7.7,25,38.2l-21,0L145.7,90.7z"/>
	</g>
	<g>
		<g class="st6">
			<g>
				<path class="st5" d="M59.4,95.2c-1.6,0.8-2.8,1.6-3.4,2.5c-0.6,0.9-0.9,1.8-0.6,2.7c0.2,0.9,0.9,1.7,2,2.5
					c1.1,0.8,2.6,1.5,4.6,2.2l32.2,10.9c2.7,0.9,5.3,1.5,7.7,1.8c2.4,0.3,4.7,0.3,6.8,0.2c2.1-0.2,4.1-0.5,5.8-1
					c1.8-0.5,3.3-1,4.5-1.7c1.5-0.7,2.5-1.5,3.1-2.4c0.6-0.9,0.7-1.8,0.4-2.7c-0.3-0.9-1-1.8-2-2.6c-1.1-0.8-2.5-1.5-4.4-2.2
					l-3.6-1.2l-6.7,3.3l2.9,1c1.2,0.4,2,0.8,2.5,1.2c0.5,0.4,0.8,0.8,0.8,1.1c0,0.4-0.1,0.7-0.4,1c-0.3,0.3-0.7,0.6-1.1,0.8
					c-1.5,0.7-3.2,1.1-4.9,1c-1.7-0.1-3.5-0.4-5.2-1l-29.9-10.2c-2-0.7-3.3-1.4-4.1-2.1c-0.7-0.7-0.3-1.5,1.4-2.3
					c1.3-0.6,2.9-0.9,4.8-0.9c1.9,0,3.8,0.3,5.4,0.9l2.8,0.9l6.7-3.3l-3.3-1.1c-2-0.7-4.2-1.2-6.5-1.5c-2.3-0.3-4.5-0.5-6.7-0.4
					c-2.2,0.1-4.3,0.3-6.3,0.7C62.7,93.9,60.9,94.5,59.4,95.2"/>
				<path class="st5" d="M110.6,93.6l-19.9-6.8l3.5-1.7c1.3-0.6,2.6-1,3.8-1.2c1.2-0.2,2.4-0.2,3.7,0c1.2,0.1,2.5,0.4,3.8,0.8
					c1.3,0.4,2.6,0.8,4,1.3c1.5,0.5,2.8,1,3.9,1.4c1.1,0.4,2,0.9,2.5,1.4c0.5,0.5,0.6,1,0.4,1.5c-0.3,0.5-1.1,1.1-2.4,1.8
					L110.6,93.6 M86.2,82.5l-10.1,4.9l58.6,19.9l6.7-3.3l-22.9-7.8l3.4-1.7c2.5-1.2,4-2.4,4.5-3.5c0.5-1.1,0.2-2.2-0.8-3.3
					c-0.8-0.9-2-1.8-3.6-2.5c-1.6-0.7-3.7-1.5-6.3-2.4c-3.5-1.2-6.5-2-9-2.5c-2.5-0.5-5.1-0.7-7.8-0.7c-2.7,0-5,0.3-7,0.8
					C89.9,80.9,88,81.6,86.2,82.5"/>
			</g>
		</g>
	</g>
</g>
</svg>
