<!-- Generator: Adobe Illustrator 19.2.1, SVG Export Plug-In  -->
<svg version="1.1"
	 xmlns="http://www.w3.org/2000/svg" xmlns:xlink="http://www.w3.org/1999/xlink" xmlns:a="http://ns.adobe.com/AdobeSVGViewerExtensions/3.0/"
	 x="0px" y="0px" width="56.8px" height="60.1px" viewBox="0 0 56.8 60.1" style="enable-background:new 0 0 56.8 60.1;"
	 xml:space="preserve">
<style type="text/css">
	.st0{fill:#FFFFFF;}
	.st1{fill:#7629F4;}
</style>
<defs>
</defs>
<g>
	<path class="st0" d="M8.5,59.5c-4.3,0-7.9-3.5-7.9-7.9V11.8c0-4.3,3.5-7.9,7.9-7.9h39.8c4.3,0,7.9,3.5,7.9,7.9v39.8
		c0,4.3-3.5,7.9-7.9,7.9H8.5z"/>
	<path class="st1" d="M48.3,4.5c4,0,7.3,3.3,7.3,7.3v39.8c0,4-3.3,7.3-7.3,7.3H8.5c-4,0-7.3-3.3-7.3-7.3V11.8c0-4,3.3-7.3,7.3-7.3
		H48.3 M48.3,3.3H8.5C3.8,3.3,0,7.1,0,11.8v39.8c0,4.7,3.8,8.5,8.5,8.5h39.8c4.7,0,8.5-3.8,8.5-8.5V11.8C56.8,7.1,53,3.3,48.3,3.3
		L48.3,3.3z"/>
</g>
<path class="st1" d="M56.8,48.3c0,4.7-3.8,8.5-8.5,8.5H8.5C3.8,56.8,0,53,0,48.3V8.5C0,3.8,3.8,0,8.5,0h39.8c4.7,0,8.5,3.8,8.5,8.5
	V48.3z"/>
</svg>
