<!-- Generator: Adobe Illustrator 19.2.1, SVG Export Plug-In  -->
<svg version="1.1"
	 xmlns="http://www.w3.org/2000/svg" xmlns:xlink="http://www.w3.org/1999/xlink" xmlns:a="http://ns.adobe.com/AdobeSVGViewerExtensions/3.0/"
	 x="0px" y="0px" width="35.7px" height="35.7px" viewBox="0 0 35.7 35.7" style="enable-background:new 0 0 35.7 35.7;"
	 xml:space="preserve">
<style type="text/css">
	.st0{fill:#FFFFFF;}
	.st1{clip-path:url(#SVGID_2_);}
	.st2{fill:#FFFFFF;stroke:#FFFFFF;stroke-width:4;stroke-linecap:round;stroke-linejoin:round;stroke-miterlimit:10;}
	.st3{fill:#7629F4;}
	.st4{clip-path:url(#SVGID_4_);}
</style>
<defs>
</defs>
<g>
	<ellipse transform="matrix(0.3448 -0.9387 0.9387 0.3448 -5.0594 28.445)" class="st0" cx="17.8" cy="17.8" rx="12.4" ry="12.4"/>
	<g>
		<defs>
			
				<ellipse id="SVGID_1_" transform="matrix(0.3448 -0.9387 0.9387 0.3448 -5.0591 28.4445)" cx="17.8" cy="17.8" rx="15.7" ry="15.7"/>
		</defs>
		<clipPath id="SVGID_2_">
			<use xlink:href="#SVGID_1_"  style="overflow:visible;"/>
		</clipPath>
		<g class="st1">
			<rect x="1.7" y="16" transform="matrix(0.3449 -0.9386 0.9386 0.3449 -5.0607 28.4418)" class="st2" width="32.4" height="3.8"/>
			<rect x="16" y="1.7" transform="matrix(0.3447 -0.9387 0.9387 0.3447 -5.0588 28.4465)" class="st2" width="3.8" height="32.4"/>
			<rect x="1.7" y="16" transform="matrix(0.9076 -0.4199 0.4199 0.9076 -5.8441 9.1431)" class="st2" width="32.4" height="3.8"/>
			<rect x="16" y="1.7" transform="matrix(0.9075 -0.42 0.42 0.9075 -5.8447 9.1445)" class="st2" width="3.8" height="32.4"/>
		</g>
	</g>
	<ellipse transform="matrix(0.3448 -0.9387 0.9387 0.3448 -5.0589 28.4451)" class="st3" cx="17.8" cy="17.8" rx="5.7" ry="5.7"/>
</g>
</svg>
