<!-- Generator: Adobe Illustrator 19.2.1, SVG Export Plug-In  -->
<svg version="1.1"
	 xmlns="http://www.w3.org/2000/svg" xmlns:xlink="http://www.w3.org/1999/xlink" xmlns:a="http://ns.adobe.com/AdobeSVGViewerExtensions/3.0/"
	 x="0px" y="0px" width="166.1px" height="73.6px" viewBox="0 0 166.1 73.6" style="enable-background:new 0 0 166.1 73.6;"
	 xml:space="preserve">
<style type="text/css">
	.st0{fill:none;stroke:#7629F4;stroke-width:1.248;stroke-linecap:round;stroke-linejoin:round;stroke-miterlimit:10;}
	.st1{fill:#7629F4;}
</style>
<defs>
</defs>
<path class="st0" d="M44.5,18.9C23.8,18.5,1.9,23,0.7,29.4c-1.9,9.8,39.9,21.3,79.9,28.8c40.9,7.8,82.9,5.1,84.8-5.1
	c1.2-6.5-11.1-14.7-30.9-21.9"/>
<g>
	<path class="st1" d="M51.8,50c8.6,2.2,18.4,4.3,29.1,6.3c11.2,2.1,22.9,3.4,33.8,3.8c0.6-0.8,1.2-1.6,1.8-2.4
		c11.6-16.7,7.4-39.7-9.4-51.2C90.4-5,67.4-0.8,55.9,15.9C48.7,26.3,47.6,39,51.8,50z"/>
	<path class="st1" d="M80.5,58.3c-7.1-1.4-17.3-3.4-27.7-6c2.7,5.8,6.9,10.9,12.5,14.8c15.2,10.5,35.5,8,47.7-5.1
		C102.5,61.6,91.2,60.3,80.5,58.3z"/>
</g>
</svg>
