<!-- Generator: Adobe Illustrator 19.2.1, SVG Export Plug-In  -->
<svg version="1.0"
	 xmlns="http://www.w3.org/2000/svg" xmlns:xlink="http://www.w3.org/1999/xlink" xmlns:a="http://ns.adobe.com/AdobeSVGViewerExtensions/3.0/"
	 x="0px" y="0px" width="96px" height="104.3px" viewBox="0 0 96 104.3" style="enable-background:new 0 0 96 104.3;"
	 xml:space="preserve">
<style type="text/css">
	.st0{fill:none;stroke:#7629F4;stroke-width:1.248;stroke-linecap:round;stroke-linejoin:round;stroke-miterlimit:10;}
	.st1{fill:#7629F4;stroke:#7629F4;stroke-width:1.248;stroke-linecap:round;stroke-linejoin:round;stroke-miterlimit:10;}
	.st2{fill:#7629F4;}
	.st3{fill:#FFFFFF;stroke:#7629F4;stroke-width:1.248;stroke-linecap:round;stroke-linejoin:round;stroke-miterlimit:10;}
</style>
<defs>
</defs>
<polyline class="st0" points="46,20.3 32.6,13.6 32.6,25 46,31.7 "/>
<polyline class="st0" points="35.1,92.2 21.7,85.5 21.7,97 35.1,103.7 "/>
<polygon class="st1" points="89.8,17.1 89.8,5.7 46,20.3 46,31.7 "/>
<polygon class="st1" points="78.9,89.1 78.9,77.6 35.1,92.2 35.1,103.7 "/>
<polygon class="st0" points="10.7,73.4 95.4,45.1 95.4,33.7 10.7,61.9 "/>
<polygon class="st2" points="65.4,29.5 72.2,37.7 58.6,42.2 "/>
<line class="st0" x1="65.4" y1="43.3" x2="65.4" y2="70.7"/>
<polygon class="st2" points="40.7,84.5 47.5,72.8 33.9,77.3 "/>
<line class="st0" x1="40.7" y1="41.6" x2="40.7" y2="71.8"/>
<line class="st0" x1="71.4" y1="0.6" x2="32.6" y2="13.6"/>
<line class="st0" x1="32.6" y1="81.9" x2="21.7" y2="85.5"/>
<line class="st0" x1="74.2" y1="68" x2="48.5" y2="76.6"/>
<path class="st0" d="M13.8,40.7v-7.2c-0.1-2-1.6-3.4-3.8-3.4c-2.6,0-5.1,2.1-5.6,4.6l0,1.8v6.9"/>
<polygon class="st3" points="0.6,42 17.5,36.4 17.5,50.9 0.6,56.5 "/>
</svg>
