<svg xmlns="http://www.w3.org/2000/svg" viewBox="0 0 115.36 49.73"><defs><style>.a,.b{fill:#848484;}.b{fill-rule:evenodd;}</style></defs><title>abc-software</title><path class="a" d="M36.58,41.83s1.73-8.56,2.13-10.52c0.88-4.32-2.6-8.48-7.84-8.48-15.81,0-20.33,17-3,17a19.08,19.08,0,0,0,4.75-.61A2.47,2.47,0,0,1,33.88,44s-0.74.2-1.87,0.39a25,25,0,0,1-4.14.38c-23.89,0-19.4-26.89,3-26.89,7.79,0,14.3,6.48,12.68,14.4-0.4,2-2.13,10.51-2.13,10.51A2.47,2.47,0,1,1,36.58,41.83Z" transform="translate(-11.89 1)"/><path class="a" d="M54.39,2s-3.77,17.66-4.17,19.62c-0.88,4.32,2.6,8.48,7.84,8.48,15.74,0,20.38-17,3-17a19.06,19.06,0,0,0-4.75.61,2.47,2.47,0,1,1-1.26-4.77s0.74-.2,1.87-0.39a25,25,0,0,1,4.14-.38C85,8.13,80.47,35,58.07,35c-7.79,0-14.3-6.48-12.68-14.4C45.79,18.66,49.56,1,49.56,1A2.47,2.47,0,0,1,54.39,2Z" transform="translate(-11.89 1)"/><path class="a" d="M103.15,5.59A8.6,8.6,0,0,0,98,3.94c-8,0-12.35,3.09-13.87,9.15C83.47,15.63,84.49,21,95,21a19.06,19.06,0,0,0,4.75-.61A2.47,2.47,0,1,1,101,25.11s-0.74.2-1.87,0.39a24.91,24.91,0,0,1-4.14.38C71.18,25.89,75.48-1,98-1a13.54,13.54,0,0,1,8.11,2.63A2.47,2.47,0,1,1,103.15,5.59Z" transform="translate(-11.89 1)"/><path class="a" d="M125.76,48.73h-113a0.23,0.23,0,1,1,0-.46h113A0.23,0.23,0,0,1,125.76,48.73Z" transform="translate(-11.89 1)"/><path class="b" d="M49.07,45.13a5.21,5.21,0,0,0,1.82.32c1.92,0,2.57-1.13,2.57-2,0-1.77-2.37-2.14-2.37-3.36A1.23,1.23,0,0,1,52.51,39a3.72,3.72,0,0,1,1.65.39l0.16-.78a5.23,5.23,0,0,0-1.7-.29c-1.59,0-2.42.87-2.42,1.92,0,1.59,2.37,2,2.37,3.33A1.36,1.36,0,0,1,51,44.77a4.42,4.42,0,0,1-1.79-.44Z" transform="translate(-11.89 1)"/><path class="b" d="M58.8,42.91a2.33,2.33,0,0,0,2.49,2.54c2.43,0,4.08-2.3,4.08-4.59a2.33,2.33,0,0,0-2.49-2.55C60.44,38.32,58.8,40.62,58.8,42.91Zm1-.06c0-1.61,1.1-3.86,2.94-3.86a1.71,1.71,0,0,1,1.71,1.92c0,1.67-1.11,3.86-3,3.86A1.72,1.72,0,0,1,59.75,42.86Z" transform="translate(-11.89 1)"/><polygon class="b" points="58.16 46.28 59.07 46.28 59.69 43.16 62.01 43.16 62.16 42.48 59.82 42.48 60.28 40.16 63.11 40.16 63.25 39.49 59.51 39.49 58.16 46.28"/><polygon class="b" points="68.87 46.28 69.77 46.28 70.99 40.16 73.39 40.16 73.53 39.49 67.81 39.49 67.68 40.16 70.08 40.16 68.87 46.28"/><polygon class="b" points="78.31 46.28 79.21 46.28 81.55 41.02 81.57 41.02 81.7 46.28 82.61 46.28 85.84 39.49 85.02 39.49 82.52 44.77 82.5 44.77 82.37 39.49 81.5 39.49 79.09 44.91 79.07 44.91 78.79 39.49 77.94 39.49 78.31 46.28"/><path class="b" d="M100.86,45.28h0.85l1-1.76h3l0.34,1.76H107l-1.31-6.8h-0.9Zm2.25-2.43L105,39.61l0.62,3.23h-2.48Z" transform="translate(-11.89 1)"/><path class="b" d="M112.12,45.28H113l0.6-3h0.93l1.46,3h1L115.42,42a2.58,2.58,0,0,0,1.8-2.21,1.31,1.31,0,0,0-1.5-1.33h-2.25Zm2.12-6.09,0.64,0c0.57,0,1.39,0,1.39.73a1.82,1.82,0,0,1-1.82,1.68h-0.69Z" transform="translate(-11.89 1)"/><polygon class="b" points="110.27 46.28 114.21 46.28 114.34 45.6 111.31 45.6 111.81 43.08 114.13 43.08 114.27 42.4 111.95 42.4 112.39 40.16 115.22 40.16 115.36 39.49 111.62 39.49 110.27 46.28"/></svg>