<?xml version="1.0" encoding="utf-8"?>
<!-- Generator: Adobe Illustrator 19.2.1, SVG Export Plug-In . SVG Version: 6.00 Build 0)  -->
<svg version="1.0" id="Layer_1" xmlns="http://www.w3.org/2000/svg" xmlns:xlink="http://www.w3.org/1999/xlink" x="0px" y="0px"
	 viewBox="0 0 575 359" style="enable-background:new 0 0 575 359;" xml:space="preserve">
<style type="text/css">
	.st0{fill:#848484;}
</style>
<title>autentica</title>
<g>
	<path class="st0" d="M281.9,243.3l-22.4,50h5.2l6.3-14h25.9l6.3,14h5.2l-22.4-50H281.9z M295,275.3h-22l11.1-24.3L295,275.3z"/>
	<path class="st0" d="M349.8,272.1c0,11-5.4,17.4-15,17.4c-9.5,0-15-6.5-15-17.4v-27.7h-5v27.7c0,13.6,7.7,22.1,20,22.1
		c12.3,0,20-8.5,20-22.1v-27.7h-5V272.1z"/>
	<path class="st0" d="M404.7,257.5c0-8.3-5.9-13.2-15.4-13.2h-22.4v49h5v-22h15.9l15.7,22h5.8l-15.8-22.8
		C400.5,269.3,404.7,264.6,404.7,257.5z M399.7,257.3c0,5.8-3.8,9-10.8,9h-17.1v-18h17.1C395.8,248.3,399.7,251.7,399.7,257.3z"/>
	<path class="st0" d="M451.8,272.1c0,11-5.4,17.4-15,17.4c-9.5,0-15-6.5-15-17.4v-27.7h-5v27.7c0,13.6,7.7,22.1,20,22.1
		c12.3,0,20-8.5,20-22.1v-27.7h-5V272.1z"/>
	<polygon class="st0" points="509.7,244.3 491.6,268.1 473.5,244.3 468.8,244.3 468.8,293.3 473.8,293.3 473.8,252 490.2,273.3 
		493.1,273.3 508.8,252.1 508.8,293.3 513.8,293.3 513.8,244.3 	"/>
</g>
<g>
	<rect x="540.8" y="243.3" class="st0" width="5" height="27"/>
	<polygon class="st0" points="552.8,243.3 552.8,247.3 561.8,247.3 561.8,270.3 565.8,270.3 565.8,247.3 574.8,247.3 574.8,243.3 	
		"/>
</g>
<g>
	<path class="st0" d="M305.4,192.5l-50.7-97c-0.4-0.7-1-1.2-1.8-1.3l-43.5-7.3L69,63.1c-1.1-0.2-2.1,0.3-2.6,1.3L0.5,190.6
		c-0.5,1-0.3,2.1,0.4,2.9l99.6,101.7c0.5,0.5,1.1,0.8,1.8,0.8c0.4,0,0.8-0.1,1.1-0.3l200.8-99.7c0.6-0.3,1.1-0.8,1.3-1.5
		C305.7,193.8,305.7,193.1,305.4,192.5z M102.8,290.4L5.7,191.3l64.2-123l138.6,23.4l42.3,7.1l48.9,93.7L102.8,290.4z"/>
	<path class="st0" d="M210.8,171.1c0,26.7-14.8,32.3-27.5,32.3c-8,0-14.5-2.4-18.8-7c-5-5.3-7.7-13.7-7.7-24.8v-38.2h-5v38.2
		c0,32.6,19.8,37.4,31.7,37.4c21.3,0,33.3-13.8,33.3-37.9v-37.7h-6V171.1z"/>
	<path class="st0" d="M107.3,133.8c-0.5-0.9-1.5-1.5-2.5-1.5c0,0,0,0,0,0c-1.1,0-2,0.6-2.5,1.5l-37,73.3l5,2.5l34.5-68.4l30.4,59.1
		L100,185.9l-2.1,5.2l42.3,17.3c1.1,0.4,2.4,0.2,3.2-0.7c0.8-0.9,1-2.1,0.4-3.2L107.3,133.8z"/>
</g>
</svg>
