<svg xmlns="http://www.w3.org/2000/svg" viewBox="0 0 118.53 77.38"><defs><style>.a{fill:#848484;}</style></defs><title>autentica</title><path class="a" d="M113.59,7.23a7.88,7.88,0,1,0,7.89,7.88,7.9,7.9,0,0,0-7.89-7.88m0,19.47A11.59,11.59,0,1,1,125.2,15.11a11.61,11.61,0,0,1-11.61,11.58" transform="translate(-7.22 -3.52)"/><path class="a" d="M74.64,7.27l2,2.72a5,5,0,0,1,4.16-2.21C84.19,8,88.42,10.65,92,10.58a7.58,7.58,0,0,0,6-3.35L95.9,4.4a4.85,4.85,0,0,1-4.27,2.24c-3.17,0-6.82-2.76-10.76-2.83a6.85,6.85,0,0,0-6.23,3.46m0,7.8,2,2.72a5,5,0,0,1,4.17-2.21c3.35,0.19,7.59,2.87,11.13,2.8A7.57,7.57,0,0,0,98,15l-2.1-2.83a4.85,4.85,0,0,1-4.27,2.24c-3.17,0-6.82-2.76-10.76-2.83a6.86,6.86,0,0,0-6.23,3.46m0,7.8,2,2.72a5,5,0,0,1,4.16-2.21c3.35,0.19,7.59,2.87,11.13,2.79a7.58,7.58,0,0,0,6-3.35L95.91,20a4.86,4.86,0,0,1-4.27,2.24c-3.17,0-6.82-2.76-10.76-2.83a6.86,6.86,0,0,0-6.23,3.46" transform="translate(-7.22 -3.52)"/><path class="a" d="M124.63,36.28H103V32.47h21.64v3.81Zm0,7.72H103V40.19h21.64V44Zm0,7.72H103V47.92h21.64v3.81Z" transform="translate(-7.22 -3.52)"/><path class="a" d="M95.27,38.68l0,0.07a7.31,7.31,0,0,1-3.6,3,7.37,7.37,0,0,0,.56-0.63c1.57-2,2.09-4.72,1.54-8V33l-3.57.59v0.08c0.36,2.19.11,3.89-.72,5.08a7.62,7.62,0,0,0-.13-1.48c-0.47-2.51-2.15-4.68-5-6.47l-0.07,0-1.93,3.05,0.07,0a7.31,7.31,0,0,1,3.18,3.43,7.7,7.7,0,0,0-.66-0.53c-2.09-1.45-4.84-1.83-8.11-1.12l-0.08,0,0.77,3.52,0.08,0a7.37,7.37,0,0,1,4.68.22,7.3,7.3,0,0,0-.84.09c-2.52.43-4.73,2.07-6.57,4.87l0,0.07,3,2,0-.07a7.3,7.3,0,0,1,3.49-3.12,7.19,7.19,0,0,0-.54.65c-1.5,2.07-1.92,4.78-1.26,8.07l0,0.08,3.54-.71V51.21a7.27,7.27,0,0,1,.3-4.66,7,7,0,0,0,.07.84c0.38,2.52,2,4.76,4.77,6.64l0.07,0,2-3-0.07,0a7.29,7.29,0,0,1-3.06-3.54,7.49,7.49,0,0,0,.65.55,8.83,8.83,0,0,0,5.42,1.65,14.87,14.87,0,0,0,2.65-.25l0.08,0L95.35,45.9H95.26a7.38,7.38,0,0,1-4.66-.38,7.64,7.64,0,0,0,.84-0.06c2.53-.34,4.8-1.9,6.74-4.65l0-.07-3-2.08h0Z" transform="translate(-7.22 -3.52)"/><path class="a" d="M40.62,65V61.62L44,60.88V65h3.08L46.2,67.74H44V76a1.67,1.67,0,0,0,1.92,1.86h0.77v2.66a7.18,7.18,0,0,1-.85.25,4.05,4.05,0,0,1-.88.09,5.89,5.89,0,0,1-1.65-.23,3.75,3.75,0,0,1-1.38-.73A3.53,3.53,0,0,1,41,78.66a4.6,4.6,0,0,1-.36-1.9V65h0Z" transform="translate(-7.22 -3.52)"/><path class="a" d="M51.54,70.92h8a3.3,3.3,0,0,0-.28-1.36,2.94,2.94,0,0,0-.79-1.05,3.8,3.8,0,0,0-1.21-.68,4.5,4.5,0,0,0-1.53-.25,6.21,6.21,0,0,0-1.52.18,3.93,3.93,0,0,0-1.33.6,3.21,3.21,0,0,0-.94,1.05,3,3,0,0,0-.36,1.5h0Zm0,2.87a5.64,5.64,0,0,0,.23,1.65,3.07,3.07,0,0,0,.77,1.3,3.71,3.71,0,0,0,1.44.85,6.91,6.91,0,0,0,2.23.31A4,4,0,0,0,58,77.56a6.39,6.39,0,0,0,1.39-1.05l2.79,1.14a6.09,6.09,0,0,1-2.63,2.45,8.06,8.06,0,0,1-3.53.79,8,8,0,0,1-5.88-2q-2-2-2-5.93V71.85c0-.25,0-0.49,0-0.71a6.39,6.39,0,0,1,.68-2.69,6.68,6.68,0,0,1,1.64-2.07A7.34,7.34,0,0,1,52.87,65a8.51,8.51,0,0,1,2.82-.46,8,8,0,0,1,3,.54A6.25,6.25,0,0,1,62.39,69a9.18,9.18,0,0,1,.48,3v1.76H51.54Z" transform="translate(-7.22 -3.52)"/><path class="a" d="M82.37,65V61.62l3.37-.74V65h5.81l0,2.78H85.74V76a1.67,1.67,0,0,0,1.92,1.86h0.77v2.66a7.14,7.14,0,0,1-.85.25,4,4,0,0,1-.88.09A5.9,5.9,0,0,1,85,80.67a3.77,3.77,0,0,1-1.38-.73,3.54,3.54,0,0,1-.94-1.28,4.58,4.58,0,0,1-.36-1.9V65h0Z" transform="translate(-7.22 -3.52)"/><path class="a" d="M91.28,65h3.37V80.53H91.28V65Zm1.61-6.27a1.83,1.83,0,0,1,1.3.5,1.78,1.78,0,0,1,.56,1.29,1.65,1.65,0,0,1-.56,1.3,1.83,1.83,0,0,1-1.3.49,1.76,1.76,0,0,1-1.3-.49,1.65,1.65,0,0,1-.56-1.3A1.8,1.8,0,0,1,92.89,58.69Z" transform="translate(-7.22 -3.52)"/><path class="a" d="M104.76,64.59a8,8,0,0,1,2.75.5,6.35,6.35,0,0,1,2.35,1.48l-2.1,2.07a4.88,4.88,0,0,0-1.5-.85,5.71,5.71,0,0,0-1.62-.2,4.38,4.38,0,0,0-3.42,1.19,5,5,0,0,0-1.07,3.44v0.49a9.88,9.88,0,0,0,.22,2.16,4.17,4.17,0,0,0,.73,1.62,3.36,3.36,0,0,0,1.38,1,5.53,5.53,0,0,0,2.17.37,7.5,7.5,0,0,0,1.73-.19,4,4,0,0,0,1.54-.81l2,1.92a6.11,6.11,0,0,1-2.4,1.57,8.44,8.44,0,0,1-2.86.49,9.26,9.26,0,0,1-3.47-.59,6.08,6.08,0,0,1-2.38-1.67,7,7,0,0,1-1.38-2.56A11.39,11.39,0,0,1,97,72.77V72.19A7.46,7.46,0,0,1,99,66.61a7.84,7.84,0,0,1,5.74-2" transform="translate(-7.22 -3.52)"/><path class="a" d="M18,75.71q-0.5.28-1.13,0.67c-0.42.26-.86,0.5-1.31,0.72a10.72,10.72,0,0,1-1.36.57,3.87,3.87,0,0,1-1.24.23,3.8,3.8,0,0,1-1.7-.34,1.43,1.43,0,0,1-.68-1.42,2.1,2.1,0,0,1,.51-1.52,2,2,0,0,1,1.5-.52H18v1.61Zm0.34,4a3.07,3.07,0,0,0,.36.85l3.22-.75a6.08,6.08,0,0,1-.35-1,7.48,7.48,0,0,1-.2-1.84V70.24a5.16,5.16,0,0,0-.54-2.41,5.39,5.39,0,0,0-1.46-1.78,6.44,6.44,0,0,0-2.1-1.1,8.36,8.36,0,0,0-2.49-.37,12.06,12.06,0,0,0-3.22.4,13,13,0,0,0-3,1.27L10,68.76a11.38,11.38,0,0,1,2.24-.91,9.48,9.48,0,0,1,2.49-.29,3.58,3.58,0,0,1,2.4.77A3.15,3.15,0,0,1,18,70.76v0.37H12.55a6.33,6.33,0,0,0-2.09.34,5,5,0,0,0-1.7,1A4.44,4.44,0,0,0,7.62,74a5.15,5.15,0,0,0-.4,2.07,4.26,4.26,0,0,0,.45,2,4.92,4.92,0,0,0,1.19,1.51,5.32,5.32,0,0,0,1.72,1,6.11,6.11,0,0,0,2,.34,6.79,6.79,0,0,0,2.92-.63,16.18,16.18,0,0,0,2.61-1.56C18.19,79,18.25,79.31,18.33,79.66Z" transform="translate(-7.22 -3.52)"/><path class="a" d="M34.57,79.65a5.24,5.24,0,0,0,.38.92l3.22-.75-0.06-.14h0a6.13,6.13,0,0,1-.26-0.79A7,7,0,0,1,37.63,77V64.59l-3.37.84v10c-0.27.31-.55,0.61-0.85,0.9a7.83,7.83,0,0,1-1,.79,5.11,5.11,0,0,1-1.07.57,3.33,3.33,0,0,1-1.21.22,3.29,3.29,0,0,1-1.35-.23A1.77,1.77,0,0,1,28,77a2.56,2.56,0,0,1-.36-1.07,11.49,11.49,0,0,1-.08-1.42V64.59l-3.37.84v9.78a5.55,5.55,0,0,0,1.52,4.29,6.33,6.33,0,0,0,4.43,1.39,4.3,4.3,0,0,0,2.34-.63,10.26,10.26,0,0,0,1.9-1.56,3.24,3.24,0,0,0,.15.94" transform="translate(-7.22 -3.52)"/><path class="a" d="M121.91,75.71c-0.33.18-.71,0.41-1.13,0.67s-0.86.5-1.31,0.72a10.91,10.91,0,0,1-1.36.57,3.89,3.89,0,0,1-1.24.23,3.8,3.8,0,0,1-1.7-.34,1.43,1.43,0,0,1-.68-1.42,2.08,2.08,0,0,1,.51-1.52,2,2,0,0,1,1.5-.52h5.42v1.61h0Zm0.34,4a4.11,4.11,0,0,0,.3.89l2.56-.59,0.64-.19-0.27-1a7.51,7.51,0,0,1-.2-1.84V70.24a5.17,5.17,0,0,0-.54-2.41,5.41,5.41,0,0,0-1.45-1.78,6.44,6.44,0,0,0-2.1-1.1,8.34,8.34,0,0,0-2.49-.37,12.06,12.06,0,0,0-3.22.4,13,13,0,0,0-3,1.27l1.46,2.5a11.49,11.49,0,0,1,2.24-.91,9.48,9.48,0,0,1,2.49-.29,3.58,3.58,0,0,1,2.4.77,3.16,3.16,0,0,1,.82,2.44v0.37h-5.45a6.35,6.35,0,0,0-2.09.34,5,5,0,0,0-1.7,1A4.46,4.46,0,0,0,111.54,74a5.14,5.14,0,0,0-.4,2.07,4.27,4.27,0,0,0,.45,2,4.9,4.9,0,0,0,1.19,1.51,5.31,5.31,0,0,0,1.72,1,6.1,6.1,0,0,0,2,.34,6.81,6.81,0,0,0,2.93-.63,16.16,16.16,0,0,0,2.61-1.56c0,0.29.1,0.61,0.19,1h0Z" transform="translate(-7.22 -3.52)"/><path class="a" d="M78.91,67.69A4.62,4.62,0,0,0,77.65,66a5.59,5.59,0,0,0-1.9-1,7.9,7.9,0,0,0-2.43-.35,5.68,5.68,0,0,0-1.13.12,6.33,6.33,0,0,0-1.19.37,8,8,0,0,0-1.13.59,5.35,5.35,0,0,0-.94.74H68.74a5.93,5.93,0,0,0-.31-1c-0.1-.22-0.21-0.44-0.33-0.67l-3.31.77a6.78,6.78,0,0,1,.64,1.77,7.73,7.73,0,0,1,.12,1.47V80.52h3.37V69.1a3.83,3.83,0,0,1,.82-0.67,5.28,5.28,0,0,1,1-.48,7.84,7.84,0,0,1,1.08-.29,5.54,5.54,0,0,1,1.05-.11q3.09,0,3.09,3.18v9.79h3.37V70.05a5.93,5.93,0,0,0-.45-2.36" transform="translate(-7.22 -3.52)"/></svg>