<svg xmlns="http://www.w3.org/2000/svg" viewBox="0 0 158.58 87.28"><defs><style>.a{fill:#848484;}</style></defs><title>datorikas-instituts</title><path class="a" d="M56.2,85.74V79.09H58.5a5.58,5.58,0,0,1,1.19.1,2.26,2.26,0,0,1,1,.48,2.71,2.71,0,0,1,.79,1.14,4.47,4.47,0,0,1,.26,1.58,4.66,4.66,0,0,1-.18,1.34,3.27,3.27,0,0,1-.45,1,2.41,2.41,0,0,1-.61.6,2.47,2.47,0,0,1-.79.33,4.54,4.54,0,0,1-1.07.11H56.2ZM57.08,85H58.5a3.44,3.44,0,0,0,1-.12,1.47,1.47,0,0,0,.6-0.34,2.1,2.1,0,0,0,.49-0.84,4.13,4.13,0,0,0,.17-1.28,3.1,3.1,0,0,0-.34-1.6A1.73,1.73,0,0,0,59.62,80a3.45,3.45,0,0,0-1.14-.14h-1.4V85Z"/><path class="a" d="M66.24,85.15a3,3,0,0,1-.87.54,2.53,2.53,0,0,1-.9.16,1.75,1.75,0,0,1-1.22-.39,1.28,1.28,0,0,1-.43-1,1.35,1.35,0,0,1,.58-1.12A2,2,0,0,1,64,83.09,5.84,5.84,0,0,1,64.71,83a7.43,7.43,0,0,0,1.46-.28c0-.11,0-0.18,0-0.21a0.9,0.9,0,0,0-.23-0.7A1.37,1.37,0,0,0,65,81.49a1.44,1.44,0,0,0-.85.2,1.24,1.24,0,0,0-.41.71L63,82.3a2,2,0,0,1,.36-0.83A1.57,1.57,0,0,1,64,81a3.21,3.21,0,0,1,1.09-.17,2.9,2.9,0,0,1,1,.14,1.32,1.32,0,0,1,.57.37,1.28,1.28,0,0,1,.25.56,4.59,4.59,0,0,1,0,.75v1.09A11.51,11.51,0,0,0,67,85.17a1.81,1.81,0,0,0,.21.58H66.4A1.73,1.73,0,0,1,66.24,85.15Zm-0.07-1.83a6,6,0,0,1-1.33.31,3.09,3.09,0,0,0-.71.16,0.71,0.71,0,0,0-.32.27,0.72,0.72,0,0,0,.13.93,1.06,1.06,0,0,0,.72.22A1.69,1.69,0,0,0,65.5,85,1.27,1.27,0,0,0,66,84.44a2,2,0,0,0,.13-0.82v-0.3Z"/><path class="a" d="M70.32,85l0.12,0.72a3,3,0,0,1-.62.07,1.4,1.4,0,0,1-.69-0.14,0.78,0.78,0,0,1-.34-0.37,2.91,2.91,0,0,1-.1-1V81.56h-0.6V80.92h0.6V79.73l0.81-.49v1.68h0.82v0.64H69.5v2.82a1.41,1.41,0,0,0,0,.45,0.34,0.34,0,0,0,.14.16A0.54,0.54,0,0,0,70,85Z"/><path class="a" d="M71.1,83.33a2.48,2.48,0,0,1,.74-2,2.24,2.24,0,0,1,1.52-.54,2.16,2.16,0,0,1,1.63.65,2.48,2.48,0,0,1,.63,1.8,3.19,3.19,0,0,1-.28,1.46,2,2,0,0,1-.81.83,2.36,2.36,0,0,1-1.16.29,2.17,2.17,0,0,1-1.64-.65A2.59,2.59,0,0,1,71.1,83.33Zm0.84,0a2.06,2.06,0,0,0,.4,1.39,1.35,1.35,0,0,0,2,0,2.1,2.1,0,0,0,.4-1.41A2,2,0,0,0,74.37,82a1.35,1.35,0,0,0-2,0A2,2,0,0,0,71.94,83.33Z"/><path class="a" d="M76.84,85.74V80.92h0.74v0.73A2,2,0,0,1,78.1,81a0.9,0.9,0,0,1,.52-0.16,1.6,1.6,0,0,1,.84.26l-0.28.76a1.17,1.17,0,0,0-.6-0.18,0.78,0.78,0,0,0-.48.16,0.87,0.87,0,0,0-.3.45,3.18,3.18,0,0,0-.14,1v2.52H76.84Z"/><path class="a" d="M80.23,80V79.09H81V80H80.23Zm0,5.72V80.92H81v4.82H80.23Z"/><path class="a" d="M82.58,85.74V79.09h0.82v3.8l1.93-2h1.06l-1.84,1.79,2,3h-1L84,83.28l-0.58.55v1.91H82.58Z"/><path class="a" d="M90.65,85.15a3,3,0,0,1-.87.54,2.53,2.53,0,0,1-.9.16,1.75,1.75,0,0,1-1.22-.39,1.28,1.28,0,0,1-.43-1,1.34,1.34,0,0,1,.58-1.12,2,2,0,0,1,.59-0.27A5.83,5.83,0,0,1,89.12,83a7.42,7.42,0,0,0,1.46-.28c0-.11,0-0.18,0-0.21a0.9,0.9,0,0,0-.23-0.7,1.37,1.37,0,0,0-.93-0.28,1.44,1.44,0,0,0-.85.2,1.23,1.23,0,0,0-.41.71l-0.8-.11a2,2,0,0,1,.36-0.83A1.57,1.57,0,0,1,88.44,81a3.22,3.22,0,0,1,1.09-.17,2.91,2.91,0,0,1,1,.14,1.32,1.32,0,0,1,.57.37,1.29,1.29,0,0,1,.25.56,4.66,4.66,0,0,1,0,.75v1.09a11.62,11.62,0,0,0,.05,1.44,1.8,1.8,0,0,0,.21.58H90.81A1.72,1.72,0,0,1,90.65,85.15Zm-0.07-1.83a6,6,0,0,1-1.33.31,3.09,3.09,0,0,0-.71.16,0.71,0.71,0,0,0-.32.27,0.72,0.72,0,0,0,.13.93,1.07,1.07,0,0,0,.72.22A1.68,1.68,0,0,0,89.91,85a1.27,1.27,0,0,0,.54-0.56,2,2,0,0,0,.13-0.82v-0.3Z"/><path class="a" d="M92.62,84.31l0.81-.13a1.13,1.13,0,0,0,.38.74,1.32,1.32,0,0,0,.87.26A1.28,1.28,0,0,0,95.52,85a0.69,0.69,0,0,0,.27-0.54A0.5,0.5,0,0,0,95.55,84a3.59,3.59,0,0,0-.84-0.28,7.64,7.64,0,0,1-1.25-.39,1.19,1.19,0,0,1-.71-1.11,1.25,1.25,0,0,1,.15-0.6,1.32,1.32,0,0,1,.4-0.46,1.68,1.68,0,0,1,.52-0.24,2.48,2.48,0,0,1,.71-0.1,2.78,2.78,0,0,1,1,.16,1.35,1.35,0,0,1,.63.44,1.73,1.73,0,0,1,.28.75l-0.8.11a0.87,0.87,0,0,0-.32-0.58,1.15,1.15,0,0,0-.74-0.21,1.34,1.34,0,0,0-.8.19,0.54,0.54,0,0,0-.24.44,0.45,0.45,0,0,0,.1.29,0.72,0.72,0,0,0,.31.22l0.72,0.21a10.06,10.06,0,0,1,1.21.38,1.23,1.23,0,0,1,.54.43,1.2,1.2,0,0,1,.19.7,1.37,1.37,0,0,1-.24.77,1.54,1.54,0,0,1-.69.56,2.51,2.51,0,0,1-1,.2,2.26,2.26,0,0,1-1.43-.39A1.82,1.82,0,0,1,92.62,84.31Z"/><path class="a" d="M100.74,80V79.09h0.82V80h-0.82Zm0,5.72V80.92h0.82v4.82h-0.82Z"/><path class="a" d="M103.08,85.74V80.92h0.74v0.69a1.73,1.73,0,0,1,1.53-.79,2,2,0,0,1,.8.16,1.26,1.26,0,0,1,.55.41,1.58,1.58,0,0,1,.25.6,4.67,4.67,0,0,1,0,.79v3h-0.82V82.81a2.19,2.19,0,0,0-.1-0.75,0.79,0.79,0,0,0-.34-0.39,1.08,1.08,0,0,0-.57-0.15,1.32,1.32,0,0,0-.9.33,1.64,1.64,0,0,0-.38,1.26v2.63h-0.82Z"/><path class="a" d="M108.21,84.31l0.81-.13a1.13,1.13,0,0,0,.38.74,1.32,1.32,0,0,0,.87.26A1.28,1.28,0,0,0,111.1,85a0.69,0.69,0,0,0,.27-0.54,0.5,0.5,0,0,0-.24-0.44,3.59,3.59,0,0,0-.84-0.28,7.64,7.64,0,0,1-1.25-.39,1.19,1.19,0,0,1-.71-1.11,1.25,1.25,0,0,1,.15-0.6,1.32,1.32,0,0,1,.4-0.46,1.68,1.68,0,0,1,.52-0.24,2.48,2.48,0,0,1,.71-0.1,2.78,2.78,0,0,1,1,.16,1.35,1.35,0,0,1,.63.44,1.73,1.73,0,0,1,.28.75l-0.8.11a0.87,0.87,0,0,0-.32-0.58,1.15,1.15,0,0,0-.74-0.21,1.34,1.34,0,0,0-.8.19,0.54,0.54,0,0,0-.24.44,0.45,0.45,0,0,0,.1.29,0.72,0.72,0,0,0,.31.22l0.72,0.21a10.06,10.06,0,0,1,1.21.38,1.23,1.23,0,0,1,.54.43,1.2,1.2,0,0,1,.19.7,1.37,1.37,0,0,1-.24.77,1.54,1.54,0,0,1-.69.56,2.51,2.51,0,0,1-1,.2,2.26,2.26,0,0,1-1.43-.39A1.82,1.82,0,0,1,108.21,84.31Z"/><path class="a" d="M115.25,85l0.12,0.72a3,3,0,0,1-.62.07,1.4,1.4,0,0,1-.69-0.14,0.79,0.79,0,0,1-.35-0.37,2.93,2.93,0,0,1-.1-1V81.56H113V80.92h0.6V79.73l0.81-.49v1.68h0.82v0.64h-0.82v2.82a1.42,1.42,0,0,0,0,.45,0.34,0.34,0,0,0,.14.16,0.54,0.54,0,0,0,.28.06Z"/><path class="a" d="M116.33,80V79.09h0.82V80h-0.82Zm0,5.72V80.92h0.82v4.82h-0.82Z"/><path class="a" d="M120.45,85l0.12,0.72a3,3,0,0,1-.62.07,1.4,1.4,0,0,1-.69-0.14,0.79,0.79,0,0,1-.34-0.37,2.91,2.91,0,0,1-.1-1V81.56h-0.6V80.92h0.6V79.73l0.81-.49v1.68h0.82v0.64h-0.82v2.82a1.42,1.42,0,0,0,0,.45,0.34,0.34,0,0,0,.14.16,0.54,0.54,0,0,0,.28.06Z"/><path class="a" d="M124.69,85.74V85a1.77,1.77,0,0,1-1.53.82,1.94,1.94,0,0,1-.8-0.16,1.31,1.31,0,0,1-.55-0.41,1.54,1.54,0,0,1-.25-0.61,4.15,4.15,0,0,1-.05-0.76v-3h0.82V83.6a4.72,4.72,0,0,0,.05.86,0.85,0.85,0,0,0,.33.51,1,1,0,0,0,.62.18A1.35,1.35,0,0,0,124,85a1,1,0,0,0,.46-0.51,2.58,2.58,0,0,0,.13-0.94V80.92h0.82v4.82h-0.73Zm-2.57-5.57V79.5H125v0.67h-2.83Z"/><path class="a" d="M128.76,85l0.12,0.72a3,3,0,0,1-.62.07,1.4,1.4,0,0,1-.69-0.14,0.79,0.79,0,0,1-.34-0.37,2.91,2.91,0,0,1-.1-1V81.56h-0.6V80.92h0.6V79.73l0.81-.49v1.68h0.82v0.64h-0.82v2.82a1.42,1.42,0,0,0,0,.45,0.34,0.34,0,0,0,.14.16,0.54,0.54,0,0,0,.28.06Z"/><path class="a" d="M129.52,84.31l0.81-.13a1.13,1.13,0,0,0,.38.74,1.32,1.32,0,0,0,.87.26,1.27,1.27,0,0,0,.83-0.23,0.68,0.68,0,0,0,.27-0.54,0.5,0.5,0,0,0-.24-0.44,3.57,3.57,0,0,0-.84-0.28,7.66,7.66,0,0,1-1.25-.39,1.19,1.19,0,0,1-.71-1.11,1.24,1.24,0,0,1,.15-0.6,1.32,1.32,0,0,1,.4-0.46,1.69,1.69,0,0,1,.52-0.24,2.47,2.47,0,0,1,.71-0.1,2.78,2.78,0,0,1,1,.16,1.36,1.36,0,0,1,.63.44,1.73,1.73,0,0,1,.28.75l-0.8.11a0.88,0.88,0,0,0-.32-0.58,1.15,1.15,0,0,0-.74-0.21,1.34,1.34,0,0,0-.8.19,0.54,0.54,0,0,0-.24.44,0.45,0.45,0,0,0,.1.29,0.72,0.72,0,0,0,.31.22l0.72,0.21a10,10,0,0,1,1.21.38,1.22,1.22,0,0,1,.54.43,1.19,1.19,0,0,1,.2.7,1.37,1.37,0,0,1-.24.77,1.54,1.54,0,0,1-.69.56,2.51,2.51,0,0,1-1,.2,2.27,2.27,0,0,1-1.43-.39A1.82,1.82,0,0,1,129.52,84.31Z"/><path class="a" d="M137.74,85.74V79.09H140a5.58,5.58,0,0,1,1.19.1,2.26,2.26,0,0,1,1,.48A2.72,2.72,0,0,1,143,80.8a4.47,4.47,0,0,1,.26,1.58,4.68,4.68,0,0,1-.18,1.34,3.26,3.26,0,0,1-.45,1,2.4,2.4,0,0,1-.61.6,2.47,2.47,0,0,1-.79.33,4.54,4.54,0,0,1-1.07.11h-2.4Zm0.88-.79H140a3.44,3.44,0,0,0,1-.12,1.47,1.47,0,0,0,.6-0.34,2.1,2.1,0,0,0,.49-0.84,4.13,4.13,0,0,0,.17-1.28,3.1,3.1,0,0,0-.34-1.6,1.73,1.73,0,0,0-.83-0.75,3.45,3.45,0,0,0-1.14-.14h-1.4V85Z"/><path class="a" d="M144.88,85.74V79.09h0.88v6.66h-0.88Z"/><path class="a" d="M149.49,85.74l-2.58-6.66h1l1.73,4.84q0.21,0.58.35,1.09,0.15-.54.36-1.09l1.8-4.84H153l-2.61,6.66h-0.9Z"/><path class="a" d="M154.22,85.74V79.09h0.88v6.66h-0.88Z"/><rect class="a" y="68.23" width="158.58" height="0.5"/><rect class="a" x="44.29" width="0.5" height="87.28"/><path class="a" d="M132,75.65c-13.8-38.26-39.7-53.36-59-59.28a97,97,0,0,0-39-3.73L34,12.15a97.6,97.6,0,0,1,39.18,3.74,86.16,86.16,0,0,1,32.6,18.29c11.6,10.43,20.59,24.32,26.71,41.3Z"/><path class="a" d="M110.88,75.67c-10.87-24.16-28.32-35-41-39.88A70.06,70.06,0,0,0,44.55,31l0-.5A70.39,70.39,0,0,1,70,35.31c12.82,4.89,30.4,15.82,41.34,40.15Z"/><polygon class="a" points="47.2 11.81 47.2 24.82 52.53 24.82 52.53 12.18 47.2 11.81"/><polygon class="a" points="52.53 31.18 52.53 68.49 47.2 68.49 47.2 30.74 52.53 31.18"/><polygon class="a" points="55.48 31.63 55.48 68.49 57.56 68.49 109.83 38.42 105.63 34.44 60.66 60.21 60.66 32.69 55.48 31.63"/><polygon class="a" points="61.85 68.49 69.54 63.58 104.63 63.58 107.55 68.49 61.85 68.49"/><polygon class="a" points="112.44 63.58 127.22 63.58 129.42 68.49 115.1 68.49 112.44 63.58"/><path class="a" d="M39.21,11.93v19.4S23.38,34.14,16.58,45.24a40.82,40.82,0,0,0-5.47,23.26H44.54V11.81Zm0,51.65H16.9A33.08,33.08,0,0,1,21,48.43C26.64,38.58,39.21,36,39.21,36v27.6Z"/></svg>