<svg xmlns="http://www.w3.org/2000/svg" viewBox="0 0 123.53 42.59"><defs><style>.a{fill:#848484;}</style></defs><title>lattelecom-technology</title><path class="a" d="M13.2,0.22h2.71V19.16H13.2V0.22Z" transform="translate(-13.2)"/><path class="a" d="M29.24,16.07a18.73,18.73,0,0,0,.22,3.1H27l-0.25-1.63H26.68a5.84,5.84,0,0,1-4.57,1.92c-3,0-4.56-1.84-4.56-3.71,0-3.12,3.21-4.83,9-4.8V10.68c0-1.07-.34-3-3.39-3a8,8,0,0,0-3.92,1L18.6,7.07A10.84,10.84,0,0,1,23.53,6c4.59,0,5.7,2.69,5.7,5.28v4.83Zm-2.65-3.5c-3-.05-6.32.4-6.32,2.91a2.23,2.23,0,0,0,2.53,2.24,3.78,3.78,0,0,0,3.67-2.16,2.13,2.13,0,0,0,.12-0.75V12.57Z" transform="translate(-13.2)"/><path class="a" d="M57,13.13c0.06,3.15,2.38,4.46,5.09,4.46a11,11,0,0,0,4.13-.67l0.49,1.68a13.84,13.84,0,0,1-5,.83c-4.57,0-7.34-2.64-7.34-6.51a6.69,6.69,0,0,1,7-7c4.87,0,6.14,3.71,6.14,6.08a4.87,4.87,0,0,1-.09,1.09H57ZM65,11.45a3.5,3.5,0,0,0-3.73-3.82,4.15,4.15,0,0,0-4.16,3.82H65Z" transform="translate(-13.2)"/><path class="a" d="M69.19,0.22h2.72V19.16H69.19V0.22Z" transform="translate(-13.2)"/><path class="a" d="M76,13.13c0.06,3.15,2.37,4.46,5.09,4.46a11,11,0,0,0,4.13-.67l0.49,1.68a13.81,13.81,0,0,1-5,.83c-4.56,0-7.34-2.64-7.34-6.51a6.69,6.69,0,0,1,7-7c4.88,0,6.14,3.71,6.14,6.08a4.8,4.8,0,0,1-.1,1.09H76ZM84,11.45a3.5,3.5,0,0,0-3.73-3.82,4.15,4.15,0,0,0-4.16,3.82H84Z" transform="translate(-13.2)"/><path class="a" d="M99.41,18.68a11.88,11.88,0,0,1-4.29.75c-4.5,0-7.43-2.64-7.43-6.59S90.84,6,95.71,6a9.7,9.7,0,0,1,3.76.69L98.86,8.44a7.5,7.5,0,0,0-3.15-.61c-3.42,0-5.27,2.21-5.27,4.88,0,3,2.22,4.83,5.18,4.83A8.79,8.79,0,0,0,99,16.92Z" transform="translate(-13.2)"/><path class="a" d="M106.53,19.46c-4,0-7.16-2.56-7.16-6.64,0-4.32,3.3-6.86,7.4-6.86,4.29,0,7.19,2.69,7.19,6.62,0,4.8-3.85,6.89-7.4,6.89h0Zm0.12-1.76c2.59,0,4.53-2.11,4.53-5,0-2.19-1.26-4.94-4.47-4.94s-4.56,2.56-4.56,5c0,2.83,1.85,5,4.47,5h0Z" transform="translate(-13.2)"/><path class="a" d="M115.39,9.74c0-1.36-.06-2.43-0.12-3.5h2.37l0.13,2.08h0.09A5.31,5.31,0,0,1,122.58,6a4.4,4.4,0,0,1,4.19,2.59h0.06a5.43,5.43,0,0,1,1.7-1.68A5.53,5.53,0,0,1,131.8,6c2,0,4.94,1.12,4.94,5.6v7.61h-2.65V11.85c0-2.51-1.08-4-3.24-4A3.54,3.54,0,0,0,127.6,10a3.66,3.66,0,0,0-.22,1.17v8h-2.65V11.4c0-2.06-1-3.52-3.12-3.52a3.66,3.66,0,0,0-3.36,2.35,2.84,2.84,0,0,0-.22,1.15v7.79h-2.65V9.74Z" transform="translate(-13.2)"/><path class="a" d="M41.93,19.55v-2a5.76,5.76,0,0,1-1.57.16c-1.51,0-2-1.13-2-2.73V7.59h6.13v7.46c0,1.52.31,3.18,1,3.9a3.15,3.15,0,0,0,.91.6H41.93Zm11-14V1.47A1.48,1.48,0,0,0,51.42,0H33a1.48,1.48,0,0,0-1.47,1.47V5.58H52.89Zm-5.77,2V15c0,1.6.52,2.73,2,2.73a5.75,5.75,0,0,0,1.57-.16v2h0.7a1.48,1.48,0,0,0,1.47-1.47V7.59H47.11ZM36.72,19c-0.74-.72-1-2.38-1-3.9V7.59H31.52V18.08A1.47,1.47,0,0,0,33,19.55h4.65A3.19,3.19,0,0,1,36.72,19Zm-1.27-16A1.52,1.52,0,1,1,37,4.45,1.52,1.52,0,0,1,35.45,2.93Zm8.83,0A1.52,1.52,0,1,1,45.8,4.45,1.52,1.52,0,0,1,44.28,2.93Z" transform="translate(-13.2)"/><path class="a" d="M37.88,27.33v2.51h2.28v1.21H37.88v4.72c0,1.08.31,1.7,1.19,1.7A3.55,3.55,0,0,0,40,37.36l0.07,1.19a3.9,3.9,0,0,1-1.41.22,2.2,2.2,0,0,1-1.72-.67,3.24,3.24,0,0,1-.61-2.28V31.05H35V29.84h1.36v-2.1Z" transform="translate(-13.2)"/><path class="a" d="M42.36,34.51a2.8,2.8,0,0,0,3,3,5.77,5.77,0,0,0,2.42-.45l0.27,1.14a7.09,7.09,0,0,1-2.91.54,4.06,4.06,0,0,1-4.3-4.41c0-2.64,1.55-4.72,4.1-4.72,2.86,0,3.61,2.51,3.61,4.12a6,6,0,0,1-.05.74H42.36ZM47,33.37a2.26,2.26,0,0,0-2.2-2.59,2.64,2.64,0,0,0-2.44,2.59H47Z" transform="translate(-13.2)"/><path class="a" d="M56.41,38.27a5.86,5.86,0,0,1-2.51.51,4.16,4.16,0,0,1-4.36-4.46,4.44,4.44,0,0,1,4.7-4.64,5.33,5.33,0,0,1,2.21.45l-0.36,1.23a3.68,3.68,0,0,0-1.84-.42,3,3,0,0,0-3.09,3.31,3,3,0,0,0,3,3.27,4.52,4.52,0,0,0,2-.43Z" transform="translate(-13.2)"/><path class="a" d="M57.91,25.76H59.5v5.46h0a3,3,0,0,1,1.14-1.12,3.27,3.27,0,0,1,1.63-.45c1.17,0,3.05.72,3.05,3.74v5.21H63.77v-5c0-1.41-.52-2.6-2-2.6a2.28,2.28,0,0,0-2.13,1.59,1.93,1.93,0,0,0-.11.76v5.28H57.91V25.76Z" transform="translate(-13.2)"/><path class="a" d="M67.58,32.21c0-.9,0-1.64-0.07-2.37h1.41L69,31.29h0a3.22,3.22,0,0,1,2.89-1.65c1.21,0,3.09.72,3.09,3.72v5.22H73.44v-5c0-1.41-.52-2.58-2-2.58a2.26,2.26,0,0,0-2.13,1.63,2.3,2.3,0,0,0-.11.74v5.26H67.58V32.21Z" transform="translate(-13.2)"/><path class="a" d="M85.17,34.15a4.27,4.27,0,0,1-4.36,4.64,4.16,4.16,0,0,1-4.19-4.5c0-2.93,1.92-4.65,4.34-4.65S85.17,31.47,85.17,34.15Zm-6.94.09c0,1.92,1.1,3.36,2.66,3.36s2.66-1.43,2.66-3.4c0-1.48-.74-3.36-2.62-3.36S78.23,32.57,78.23,34.24Z" transform="translate(-13.2)"/><path class="a" d="M86.82,25.76h1.59V38.59H86.82V25.76Z" transform="translate(-13.2)"/><path class="a" d="M98.64,34.15a4.27,4.27,0,0,1-4.36,4.64,4.16,4.16,0,0,1-4.19-4.5c0-2.93,1.92-4.65,4.34-4.65S98.64,31.47,98.64,34.15Zm-6.94.09c0,1.92,1.1,3.36,2.66,3.36S97,36.17,97,34.2c0-1.48-.74-3.36-2.62-3.36S91.7,32.57,91.7,34.24Z" transform="translate(-13.2)"/><path class="a" d="M107.82,29.84c0,0.63-.07,1.34-0.07,2.4v5.08c0,2-.4,3.24-1.25,4a4.64,4.64,0,0,1-3.18,1,5.65,5.65,0,0,1-2.91-.72l0.4-1.21a4.94,4.94,0,0,0,2.57.69c1.63,0,2.82-.85,2.82-3.05v-1h0a3.12,3.12,0,0,1-2.78,1.46c-2.17,0-3.72-1.84-3.72-4.27,0-3,1.93-4.65,3.94-4.65a2.91,2.91,0,0,1,2.73,1.52h0l0.07-1.32h1.39Zm-1.65,3.45a2.26,2.26,0,0,0-.09-0.72,2.29,2.29,0,0,0-2.22-1.68c-1.52,0-2.6,1.28-2.6,3.31,0,1.72.87,3.14,2.58,3.14a2.32,2.32,0,0,0,2.21-1.63,2.77,2.77,0,0,0,.13-0.85V33.3Z" transform="translate(-13.2)"/><path class="a" d="M110.61,29.84L112.52,35c0.2,0.58.42,1.27,0.56,1.79h0c0.16-.52.34-1.19,0.56-1.83l1.74-5.13h1.68l-2.39,6.24c-1.14,3-1.92,4.54-3,5.48a4.31,4.31,0,0,1-2,1l-0.4-1.34a4.19,4.19,0,0,0,1.39-.78,4.82,4.82,0,0,0,1.34-1.77,1.14,1.14,0,0,0,.13-0.38,1.4,1.4,0,0,0-.11-0.42l-3.24-8.06h1.74Z" transform="translate(-13.2)"/></svg>