<?xml version="1.0" encoding="utf-8"?>
<!-- Generator: Adobe Illustrator 19.2.1, SVG Export Plug-In . SVG Version: 6.00 Build 0)  -->
<svg version="1.0" id="Layer_1" xmlns="http://www.w3.org/2000/svg" xmlns:xlink="http://www.w3.org/1999/xlink" x="0px" y="0px"
	 viewBox="0 0 118.5 77.4" style="enable-background:new 0 0 118.5 77.4;" xml:space="preserve">
<style type="text/css">
	.st0{fill:#848484;}
</style>
<title>autentica</title>
<g>
	<g>
		<path class="st0" d="M38.6,30.2c0-0.3,0.2-0.7,0.4-1.1c0.3-0.4,0.6-0.7,0.7-0.7c0.1,0,0.2,0.1,0.5,0.2c0.8,0.4,1.6,0.7,2.3,0.7
			c1.2,0,1.8-0.5,1.8-1.4c0-0.4-0.2-0.7-0.6-1.1c-0.4-0.2-0.8-0.5-1.4-0.7c-0.6-0.2-1.1-0.5-1.7-0.7c-0.6-0.2-1-0.7-1.4-1.3
			s-0.6-1.3-0.6-2.2s0.2-1.7,0.7-2.2c0.8-1.2,2.2-1.7,3.9-1.7c1,0,1.8,0.2,2.5,0.4s1,0.6,1,0.9c0,0.2-0.1,0.7-0.3,1.1
			c-0.2,0.4-0.5,0.7-0.7,0.7c-0.1,0-0.2-0.1-0.3-0.2c-0.5-0.2-1.1-0.3-1.8-0.3c-0.7,0-1.2,0.1-1.4,0.3s-0.4,0.5-0.4,0.9
			c0,0.4,0.2,0.7,0.6,0.9c0.4,0.2,0.8,0.5,1.4,0.7c0.6,0.2,1.1,0.4,1.7,0.7c0.6,0.2,1,0.7,1.4,1.3c0.4,0.6,0.6,1.2,0.6,2.1
			s-0.2,1.5-0.4,2.1s-0.6,1-1.1,1.3c-0.8,0.7-1.9,0.9-3.2,0.9c-1.2,0-2.3-0.2-3.2-0.6C39,31.1,38.6,30.6,38.6,30.2z"/>
		<path class="st0" d="M48.7,24.9c0-4.6,2.2-6.9,6.6-6.9c0.9,0,1.8,0.2,2.7,0.4c0.9,0.2,1.3,0.6,1.3,1c0,0.2-0.2,0.6-0.5,1.1
			c-0.3,0.5-0.6,0.7-0.8,0.7c0,0-0.2-0.1-0.4-0.2c-0.7-0.3-1.5-0.5-2.5-0.5c-2.2,0-3.4,1.5-3.4,4.4s1.1,4.4,3.3,4.4
			c0.9,0,1.8-0.2,2.7-0.6c0.2-0.2,0.4-0.2,0.5-0.2c0.2,0,0.5,0.2,0.7,0.7c0.2,0.4,0.3,0.7,0.3,1c0,0.5-0.5,0.9-1.4,1.2
			c-1,0.2-1.9,0.4-2.9,0.4c-2.2,0-3.8-0.6-4.8-1.7C49.3,29.1,48.7,27.3,48.7,24.9z"/>
		<path class="st0" d="M60.7,31.4c0-0.1,0-0.2,0.1-0.3l4.3-12.6c0.1-0.2,0.5-0.4,1.1-0.4h1c0.7,0,1,0.2,1.1,0.4l4.3,12.6
			c0,0.2,0.1,0.2,0.1,0.3c0,0.2-0.3,0.4-1,0.4h-0.8c-0.7,0-1-0.2-1.1-0.4L69,29h-4.6l-0.7,2.4c-0.1,0.2-0.4,0.4-0.9,0.4H62
			C61.1,31.9,60.7,31.7,60.7,31.4z M65.2,26.5h2.9L67,23l-0.3-1.2l0,0c-0.1,0.6-0.2,1-0.3,1.2L65.2,26.5z"/>
		<path class="st0" d="M74,31.2V18.7c0-0.4,0.4-0.7,1.2-0.7H76c0.7,0,1.1,0.2,1.2,0.5l5.2,7.9v-7.7c0-0.4,0.4-0.7,1.2-0.7h0.6
			c0.7,0,1.2,0.2,1.2,0.7v12.5c0,0.4-0.4,0.7-1.2,0.7h-0.7c-0.7,0-1.1-0.2-1.2-0.5l-5.2-8v7.9c0,0.4-0.4,0.7-1.2,0.7h-0.6
			C74.4,31.9,74,31.6,74,31.2z"/>
		<path class="st0" d="M88.1,31.1V18.9c0-0.5,0.2-0.7,0.7-0.7h4.4c2,0,3.6,0.6,4.7,1.7c1.1,1.2,1.6,2.8,1.6,5.1
			c0,2.2-0.5,3.9-1.6,5.1c-1.1,1.2-2.6,1.7-4.7,1.7h-4.4C88.3,31.8,88.1,31.6,88.1,31.1z M91.1,29.2h2.2c1.1,0,1.8-0.3,2.3-1.1
			c0.5-0.7,0.8-1.7,0.8-3.2s-0.2-2.4-0.8-3.2c-0.5-0.7-1.3-1.1-2.3-1.1h-2.2V29.2z"/>
		<path class="st0" d="M101.5,31.2V18.7c0-0.4,0.4-0.7,1.2-0.7h0.7c0.7,0,1.2,0.2,1.2,0.7v12.5c0,0.4-0.4,0.7-1.2,0.7h-0.7
			C101.9,31.9,101.5,31.6,101.5,31.2z"/>
		<path class="st0" d="M106.7,24.9c0-4.7,2.2-6.9,6.5-6.9c0.9,0,1.8,0.2,2.7,0.4c0.9,0.2,1.3,0.6,1.3,1c0,0.2-0.2,0.7-0.5,1.2
			c-0.3,0.5-0.6,0.7-0.8,0.7c0,0-0.2-0.1-0.4-0.2c-0.7-0.3-1.5-0.5-2.5-0.5c-2.2,0-3.4,1.5-3.4,4.4s1.1,4.4,3.3,4.4
			c0.9,0,1.8-0.2,2.7-0.6c0.2-0.2,0.4-0.2,0.5-0.2c0.2,0,0.5,0.2,0.7,0.7c0.2,0.4,0.3,0.7,0.3,1c0,0.5-0.5,0.9-1.4,1.2
			c-1,0.2-1.9,0.4-2.9,0.4c-2.2,0-3.8-0.6-4.8-1.7C107.2,29.1,106.7,27.3,106.7,24.9z"/>
		<path class="st0" d="M51.1,48.9V36.6c0-0.5,0.2-0.7,0.7-0.7h6.6c0.4,0,0.6,0.3,0.6,1v0.6c0,0.7-0.2,1-0.6,1h-4.3v2.8h4.2
			c0.4,0,0.6,0.3,0.6,1v0.6c0,0.7-0.2,1-0.6,1h-4.2v5.1c0,0.4-0.4,0.7-1.2,0.7h-0.7C51.5,49.6,51.1,49.3,51.1,48.9z"/>
		<path class="st0" d="M61.3,44.9v-8.5c0-0.4,0.4-0.7,1.2-0.7h0.7c0.7,0,1.2,0.2,1.2,0.7v8.3c0,0.7,0.2,1.2,0.7,1.7s1.2,0.7,1.9,0.7
			s1.4-0.2,1.9-0.7s0.7-1,0.7-1.7v-8.3c0-0.4,0.4-0.7,1.2-0.7h0.7c0.7,0,1.2,0.2,1.2,0.7v8.5c0,1.5-0.5,2.7-1.5,3.5
			c-1,0.8-2.4,1.2-4.2,1.2c-1.8,0-3.2-0.4-4.2-1.2C61.8,47.6,61.3,46.4,61.3,44.9z"/>
		<path class="st0" d="M74.5,48c0-0.3,0.2-0.7,0.4-1.1c0.3-0.4,0.6-0.7,0.7-0.7c0.1,0,0.2,0.1,0.5,0.2c0.8,0.4,1.6,0.7,2.3,0.7
			c1.2,0,1.8-0.5,1.8-1.4c0-0.4-0.2-0.7-0.6-1.1c-0.4-0.2-0.8-0.5-1.4-0.7s-1.1-0.5-1.7-0.7c-0.6-0.2-1-0.7-1.4-1.3
			c-0.4-0.6-0.6-1.3-0.6-2.2c0-0.9,0.2-1.7,0.7-2.2c0.8-1.2,2.2-1.7,3.9-1.7c1,0,1.8,0.2,2.5,0.4s1,0.6,1,0.9c0,0.2-0.1,0.7-0.3,1.1
			c-0.2,0.4-0.5,0.7-0.7,0.7c-0.1,0-0.2-0.1-0.3-0.2c-0.5-0.2-1.1-0.3-1.8-0.3c-0.7,0-1.2,0.1-1.4,0.3c-0.2,0.2-0.4,0.5-0.4,0.9
			c0,0.3,0.2,0.7,0.6,0.9c0.4,0.2,0.8,0.5,1.4,0.7s1.1,0.4,1.7,0.7c0.6,0.2,1,0.7,1.4,1.3c0.4,0.6,0.6,1.2,0.6,2.1
			c0,0.8-0.2,1.5-0.4,2.1s-0.6,1-1.1,1.3c-0.8,0.7-1.9,0.9-3.2,0.9s-2.3-0.2-3.2-0.6C74.9,48.8,74.5,48.4,74.5,48z"/>
		<path class="st0" d="M85.7,48.9V36.5c0-0.4,0.4-0.7,1.2-0.7h0.7c0.7,0,1.2,0.2,1.2,0.7v12.5c0,0.4-0.4,0.7-1.2,0.7h-0.7
			C86.1,49.6,85.7,49.3,85.7,48.9z"/>
		<path class="st0" d="M92.5,47.9c-1.1-1.2-1.6-2.9-1.6-5.2c0-2.2,0.5-4,1.6-5.2c1.1-1.2,2.7-1.8,4.7-1.8s3.6,0.6,4.7,1.8
			c1.1,1.2,1.6,2.9,1.6,5.2c0,2.2-0.5,4-1.6,5.2c-1.1,1.2-2.6,1.8-4.7,1.8C95.1,49.7,93.6,49.1,92.5,47.9z M94.8,46
			c0.5,0.7,1.3,1.2,2.4,1.2c1.1,0,1.8-0.4,2.3-1.2c0.5-0.7,0.8-1.8,0.8-3.3c0-1.4-0.2-2.6-0.8-3.3c-0.5-0.7-1.3-1.1-2.3-1.1
			c-1.1,0-1.8,0.3-2.4,1.1c-0.5,0.7-0.8,1.8-0.8,3.3S94.2,45.3,94.8,46z"/>
		<path class="st0" d="M105.2,48.9V36.5c0-0.4,0.4-0.7,1.2-0.7h0.8c0.7,0,1.1,0.2,1.2,0.5l5.2,7.9v-7.8c0-0.4,0.4-0.7,1.2-0.7h0.6
			c0.7,0,1.2,0.2,1.2,0.7v12.5c0,0.4-0.4,0.7-1.2,0.7h-0.7c-0.7,0-1.1-0.2-1.2-0.5l-5.2-8v7.9c0,0.4-0.4,0.7-1.2,0.7h-0.6
			C105.5,49.6,105.2,49.3,105.2,48.9z"/>
	</g>
	<g>
		<path class="st0" d="M30.9,35c-0.1,0-0.2,0-0.2,0.1c-0.1,0-0.1,0-0.2,0.1c-0.1,0-0.1,0.1-0.2,0.1c-0.1,0-0.1,0.1-0.2,0.1l-4.8,4.1
			c-0.2,0.2-0.2,0.2-0.3,0.5c-0.1,0.2-0.2,0.4-0.2,0.6c0,0.2,0,0.4,0.1,0.7c0.1,0.2,0.2,0.4,0.3,0.7l5.5,7.9
			c0.2,0.2,0.4,0.5,0.6,0.7c0.2,0.2,0.5,0.4,0.7,0.5c0.2,0.2,0.6,0.2,0.8,0.3c0.2,0.1,0.6,0.1,0.8,0.1l8.4-1.1h0.1h0.1h0.1h0.1
			c0.2-0.1,0.3-0.2,0.5-0.2c0.2-0.1,0.2-0.2,0.3-0.4s0.2-0.3,0.2-0.5c0-0.2,0-0.4,0-0.6l-1.7-7.3c0-0.2-0.1-0.4-0.2-0.6
			c-0.1-0.2-0.2-0.4-0.4-0.6c-0.2-0.2-0.3-0.3-0.6-0.5c-0.2-0.2-0.4-0.2-0.6-0.4l-7.5-3.8c-0.2-0.1-0.2-0.1-0.4-0.2
			C32,35,31.9,35,31.8,35s-0.2,0-0.4,0C31.2,35,31,35,30.9,35"/>
		<path class="st0" d="M9.6,38.5c-0.2,0-0.4,0.1-0.6,0.2c-0.2,0.1-0.3,0.2-0.5,0.2c-0.2,0.1-0.3,0.2-0.4,0.2
			c-0.2,0.1-0.2,0.2-0.3,0.3l-6.2,8c-0.2,0.2-0.3,0.6-0.4,0.8C1,48.6,1,48.9,1,49.3c0,0.3,0.1,0.7,0.2,0.9c0.1,0.3,0.2,0.6,0.5,0.8
			l8.5,8.6c0.2,0.2,0.5,0.4,0.7,0.6c0.3,0.2,0.6,0.2,0.9,0.3c0.3,0.1,0.7,0.1,1,0.1s0.7-0.1,1-0.2c0.1,0,0.1,0,0.2-0.1
			c0,0,0.1,0,0.1-0.1c0,0,0.1,0,0.1-0.1c0,0,0.1,0,0.1-0.1l10.1-5.8c0.2-0.2,0.5-0.3,0.7-0.6c0.2-0.2,0.3-0.5,0.4-0.7
			s0.2-0.6,0.2-0.9c0-0.3,0-0.6-0.1-0.9l-2.8-8.9c-0.1-0.2-0.2-0.4-0.3-0.7c-0.2-0.2-0.3-0.4-0.6-0.6c-0.2-0.2-0.4-0.3-0.7-0.4
			c-0.2-0.1-0.5-0.2-0.7-0.2l-9.5-1.8c-0.1,0-0.2,0-0.2,0s-0.2,0-0.3,0c-0.1,0-0.2,0-0.3,0C9.8,38.5,9.7,38.5,9.6,38.5"/>
		<path class="st0" d="M19.5,25.9l-7.2,0.4c-0.2,0-0.4,0.1-0.6,0.1c-0.2,0.1-0.3,0.2-0.5,0.2c-0.2,0.1-0.2,0.2-0.3,0.3
			c-0.1,0.2-0.2,0.2-0.2,0.4l-0.4,5.8c0,0.2,0,0.3,0.1,0.6c0.1,0.2,0.2,0.4,0.3,0.6c0.2,0.2,0.3,0.3,0.6,0.5
			c0.2,0.2,0.4,0.2,0.7,0.3l8.7,3c0.1,0,0.2,0.1,0.3,0.1c0.2,0,0.2,0,0.4,0.1c0.2,0,0.2,0,0.4,0s0.2,0,0.3-0.1
			c0.1,0,0.2-0.1,0.3-0.1c0.1,0,0.2-0.1,0.3-0.2c0.1-0.1,0.2-0.1,0.2-0.2c0.1-0.1,0.2-0.2,0.2-0.2l3.8-4.7c0.1-0.1,0.2-0.2,0.2-0.4
			c0-0.2,0-0.3,0-0.5c0-0.2-0.1-0.3-0.2-0.5c-0.1-0.2-0.2-0.3-0.3-0.4l-5.2-4.6c-0.2-0.1-0.3-0.2-0.5-0.3s-0.4-0.2-0.6-0.2
			c-0.2-0.1-0.4-0.2-0.7-0.2C20,25.9,19.7,25.8,19.5,25.9"/>
	</g>
</g>
</svg>
