<svg xmlns="http://www.w3.org/2000/svg" viewBox="0 0 149.13 18.4"><defs><style>.a,.b{fill:#848484;}.a{fill-rule:evenodd;}</style></defs><title>ugunssiena</title><path class="a" d="M25.44,24.67c2.91-1.2,4.76-3,4.76-5,0-3.61-6-6.54-13.34-6.54a25.43,25.43,0,0,0-5.69.62l-1.25-1a29.75,29.75,0,0,1,7.15-.84c9.43,0,17.07,4.12,17.07,9.2,0,2.51-1.86,4.78-4.88,6.44Zm-21.93-5c0,3.61,6,6.54,13.34,6.54a26.4,26.4,0,0,0,4-.29l3.91,3.47a29.45,29.45,0,0,1-7.67,1C7.64,30.35,0,26.23,0,21.15c0-3.07,2.78-5.78,7.06-7.45l1.13,1C5.32,15.89,3.51,17.67,3.51,19.66Zm14.73-.5a1.64,1.64,0,0,0,.67-1.23c0-1.36-2.24-2.46-5-2.46H13.44l-0.53-.4c0.35,0,.71,0,1.07,0,3.54,0,6.41,1.55,6.41,3.46a2.36,2.36,0,0,1-.82,1.69ZM8.89,17.93c0,1.36,2.24,2.46,5,2.46l0.67,0,1.56,1.38a11.46,11.46,0,0,1-2.15.2c-3.54,0-6.41-1.55-6.41-3.46a3.11,3.11,0,0,1,2-2.53l0.45,0.39A2,2,0,0,0,8.89,17.93Z" transform="translate(0 -11.95)"/><path class="a" d="M91.93,22.1h2.75a0.7,0.7,0,0,0,.51.64,5.9,5.9,0,0,0,1.75.17,7.34,7.34,0,0,0,1.79-.14,0.55,0.55,0,0,0,.47-0.53,0.52,0.52,0,0,0-.46-0.5,21.18,21.18,0,0,0-2.31-.08q-2,0-2.41-.07a2.35,2.35,0,0,1-1.72-.83A2.32,2.32,0,0,1,92,19.43a2,2,0,0,1,1.18-2.08A12.36,12.36,0,0,1,97,17a18.4,18.4,0,0,1,2.68.14,2.67,2.67,0,0,1,1.3.53,1.35,1.35,0,0,1,.41.57,4,4,0,0,1,.18,1H98.78a0.62,0.62,0,0,0-.19-0.35,4,4,0,0,0-1.7-.21,7.85,7.85,0,0,0-1.74.13,0.51,0.51,0,0,0-.47.46q0,0.44.65,0.49T99,19.78a3.77,3.77,0,0,1,2.2.52,2,2,0,0,1,.69,1.74,2.86,2.86,0,0,1-.27,1.33,1.69,1.69,0,0,1-.84.77,11.68,11.68,0,0,1-4,.44,18.32,18.32,0,0,1-2.84-.15,2.66,2.66,0,0,1-1.35-.6A2.27,2.27,0,0,1,91.93,22.1Z" transform="translate(0 -11.95)"/><path class="a" d="M102.86,17.16h2.71v7.23h-2.71V17.16Zm0-3h2.71v2h-2.71v-2Z" transform="translate(0 -11.95)"/><path class="a" d="M113.66,22.08h2.69a2.42,2.42,0,0,1-.72,1.69,3,3,0,0,1-1.48.63,17.24,17.24,0,0,1-2.86.17,14.44,14.44,0,0,1-2.42-.15,3.11,3.11,0,0,1-1.34-.53,2,2,0,0,1-.72-1.05,7.78,7.78,0,0,1-.19-2,11.65,11.65,0,0,1,.08-1.55,3.06,3.06,0,0,1,.28-0.94,2.18,2.18,0,0,1,1.57-1.13,14.7,14.7,0,0,1,3-.22,17.3,17.3,0,0,1,2.54.13,2.53,2.53,0,0,1,1.81,1,4.89,4.89,0,0,1,.49,2.55q0,0.17,0,.73h-7.07a3.07,3.07,0,0,0,.07.79,0.75,0.75,0,0,0,.28.39,3.53,3.53,0,0,0,1.82.3,9.48,9.48,0,0,0,1.35-.07,1.14,1.14,0,0,0,.62-0.23A0.84,0.84,0,0,0,113.66,22.08Zm0-2.2a3.28,3.28,0,0,0-.06-0.59,0.66,0.66,0,0,0-.16-0.29,3,3,0,0,0-1.87-.36,4.38,4.38,0,0,0-1.81.24,1.09,1.09,0,0,0-.47,1h4.37Z" transform="translate(0 -11.95)"/><path class="a" d="M117.41,17.16h2.54v1.1h0.15a2.06,2.06,0,0,1,1.06-1,5.43,5.43,0,0,1,2-.29,8,8,0,0,1,2,.2,2.6,2.6,0,0,1,1.22.7,2.38,2.38,0,0,1,.65,1.12,10.09,10.09,0,0,1,.15,2.1v3.28h-2.7V21.11a7.06,7.06,0,0,0-.06-1.18,1,1,0,0,0-.28-0.53,2.79,2.79,0,0,0-1.81-.39,2.61,2.61,0,0,0-1.85.48,1.27,1.27,0,0,0-.32.64,8.34,8.34,0,0,0-.07,1.37v2.89h-2.7V17.16Z" transform="translate(0 -11.95)"/><path class="a" d="M131.16,19.42h-2.69a2.48,2.48,0,0,1,.36-1.27,2.45,2.45,0,0,1,1.5-.94,16.6,16.6,0,0,1,3.44-.25,14.36,14.36,0,0,1,2.43.13,2.14,2.14,0,0,1,1.1.59,1.85,1.85,0,0,1,.49.86,6.36,6.36,0,0,1,.13,1.49v4.35h-2.6v-1H135.2a1.82,1.82,0,0,1-.95.9,3.23,3.23,0,0,1-1,.2q-0.62.06-2,.06a7.81,7.81,0,0,1-1.68-.14A2,2,0,0,1,128.7,24a2.18,2.18,0,0,1-.52-1.63,2.34,2.34,0,0,1,.62-1.82,2.52,2.52,0,0,1,1.3-.57,21.39,21.39,0,0,1,3-.13,5.72,5.72,0,0,1,1.33.11,1.46,1.46,0,0,1,.71.46h0.12V20a1.28,1.28,0,0,0-.31-1.07,3.33,3.33,0,0,0-1.54-.22,8.23,8.23,0,0,0-1.8.11A0.65,0.65,0,0,0,131.16,19.42ZM133,21.35a5.07,5.07,0,0,0-1.69.16,0.62,0.62,0,0,0-.39.59,0.58,0.58,0,0,0,.39.59,4.61,4.61,0,0,0,1.48.16,7.09,7.09,0,0,0,1.92-.17,0.65,0.65,0,0,0,.51-0.64,0.6,0.6,0,0,0-.44-0.59A10.45,10.45,0,0,0,133,21.35Z" transform="translate(0 -11.95)"/><path class="a" d="M10.19,18c0-.93,1.55-1.69,3.45-1.69S17.09,17.1,17.09,18s-1.55,1.69-3.45,1.69S10.19,19,10.19,18Z" transform="translate(0 -11.95)"/><path class="a" d="M47.06,24.39H44.53V23.31H44.38a1.87,1.87,0,0,1-1,1,5.72,5.72,0,0,1-2.07.29,7.58,7.58,0,0,1-2-.21,2.71,2.71,0,0,1-1.22-.7,2.45,2.45,0,0,1-.64-1.11,9.76,9.76,0,0,1-.15-2.08v-3.3H40v3.3a5.87,5.87,0,0,0,.07,1.13,1.07,1.07,0,0,0,.3.55,1.25,1.25,0,0,0,.6.31,5.56,5.56,0,0,0,1.14.09,2.83,2.83,0,0,0,1.78-.4,1.21,1.21,0,0,0,.38-0.65,7.22,7.22,0,0,0,.09-1.42V17.16h2.71v7.23Z" transform="translate(0 -11.95)"/><path class="a" d="M55.73,17.16h2.54v6.64q0,0.91,0,1.23a3.55,3.55,0,0,1-.19.76,2.35,2.35,0,0,1-.59.92,2.47,2.47,0,0,1-.94.58,11.93,11.93,0,0,1-3.54.38,14,14,0,0,1-2.56-.17A2.87,2.87,0,0,1,49,26.88,2.67,2.67,0,0,1,48.25,25H51l0,0.07a0.76,0.76,0,0,0,.51.54A5.29,5.29,0,0,0,53,25.8a8.25,8.25,0,0,0,1.54-.1,1.32,1.32,0,0,0,.72-0.37,1.08,1.08,0,0,0,.25-0.5,6,6,0,0,0,.06-1V23.17h-0.1a2.07,2.07,0,0,1-1,.9,6,6,0,0,1-2,.23,13.12,13.12,0,0,1-2.17-.14,3.05,3.05,0,0,1-1.25-.47,2,2,0,0,1-.78-1.07,7.51,7.51,0,0,1-.21-2.07,4.66,4.66,0,0,1,.43-2.35,2.22,2.22,0,0,1,1.3-1A10.15,10.15,0,0,1,52.51,17a6.47,6.47,0,0,1,2,.23,2.17,2.17,0,0,1,1.06.9h0.13V17.16ZM53.27,19a4.77,4.77,0,0,0-2,.27,0.86,0.86,0,0,0-.38.46,2.74,2.74,0,0,0-.11.9,2.45,2.45,0,0,0,.15,1,0.92,0.92,0,0,0,.56.46,5.73,5.73,0,0,0,1.63.16,4,4,0,0,0,2-.33,0.83,0.83,0,0,0,.33-0.44,3,3,0,0,0,.09-0.86,2.84,2.84,0,0,0-.12-0.94A0.78,0.78,0,0,0,55,19.25,4.42,4.42,0,0,0,53.27,19Z" transform="translate(0 -11.95)"/><path class="a" d="M69.19,24.39H66.65V23.31H66.51a1.87,1.87,0,0,1-1,1,5.73,5.73,0,0,1-2.07.29,7.58,7.58,0,0,1-2-.21,2.71,2.71,0,0,1-1.22-.7,2.45,2.45,0,0,1-.64-1.11,9.75,9.75,0,0,1-.15-2.08v-3.3h2.7v3.3a5.92,5.92,0,0,0,.07,1.13,1.08,1.08,0,0,0,.3.55,1.25,1.25,0,0,0,.6.31,5.55,5.55,0,0,0,1.14.09,2.83,2.83,0,0,0,1.78-.4,1.21,1.21,0,0,0,.38-0.65,7.21,7.21,0,0,0,.09-1.42V17.16h2.71v7.23Z" transform="translate(0 -11.95)"/><path class="a" d="M70.4,17.16h2.54v1.1h0.15a2.06,2.06,0,0,1,1.06-1,5.43,5.43,0,0,1,2-.29,8,8,0,0,1,2,.2,2.6,2.6,0,0,1,1.22.7A2.39,2.39,0,0,1,80.06,19a10.08,10.08,0,0,1,.15,2.1v3.28H77.5V21.11a7.06,7.06,0,0,0-.06-1.18,1,1,0,0,0-.28-0.53A2.79,2.79,0,0,0,75.35,19a2.61,2.61,0,0,0-1.85.48,1.27,1.27,0,0,0-.32.64,8.42,8.42,0,0,0-.07,1.37v2.89H70.4V17.16Z" transform="translate(0 -11.95)"/><path class="a" d="M81.17,22.1h2.75a0.7,0.7,0,0,0,.52.64,5.9,5.9,0,0,0,1.75.17A7.34,7.34,0,0,0,88,22.77a0.55,0.55,0,0,0,.47-0.53,0.52,0.52,0,0,0-.46-0.5,21.19,21.19,0,0,0-2.31-.08q-2,0-2.41-.07a2.35,2.35,0,0,1-1.72-.83,2.32,2.32,0,0,1-.34-1.33,2,2,0,0,1,1.18-2.08A12.35,12.35,0,0,1,86.21,17a18.39,18.39,0,0,1,2.68.14,2.67,2.67,0,0,1,1.3.53,1.35,1.35,0,0,1,.41.57,4,4,0,0,1,.18,1H88a0.62,0.62,0,0,0-.19-0.35,4,4,0,0,0-1.7-.21,7.84,7.84,0,0,0-1.74.13,0.51,0.51,0,0,0-.47.46q0,0.44.65,0.49t3.69,0.06a3.77,3.77,0,0,1,2.2.52A2,2,0,0,1,91.15,22a2.86,2.86,0,0,1-.27,1.33,1.69,1.69,0,0,1-.84.77,11.68,11.68,0,0,1-4,.44,18.32,18.32,0,0,1-2.84-.15,2.66,2.66,0,0,1-1.35-.6A2.27,2.27,0,0,1,81.17,22.1Z" transform="translate(0 -11.95)"/><rect class="b" x="141.19" y="0.87" width="1.76" height="5.67"/><polygon class="a" points="143.8 0.87 149.13 0.87 149.13 2.27 147.34 2.27 147.34 6.54 145.59 6.54 145.59 2.27 143.8 2.27 143.8 0.87"/></svg>