<svg xmlns="http://www.w3.org/2000/svg" viewBox="0 0 132.31 26.43"><defs><style>.a{fill:#848484;}</style></defs><title>zoom-charts</title><path class="a" d="M64.45,29.88a3.87,3.87,0,0,0,1.41.73,6.78,6.78,0,0,0,1.69.18,9.77,9.77,0,0,0,4.25-1v2.66a12.25,12.25,0,0,1-4.49.84,6.72,6.72,0,0,1-5.29-2,8.58,8.58,0,0,1-1.82-5.88A8.52,8.52,0,0,1,62,19.5a6.72,6.72,0,0,1,5.29-2,12.21,12.21,0,0,1,4.49.85V21a9.45,9.45,0,0,0-4.2-1H67.53a4.7,4.7,0,0,0-3.3,1.09c-0.8.73-1.19,2.16-1.19,4.29a9.52,9.52,0,0,0,.35,2.82,3.31,3.31,0,0,0,1.05,1.68h0Zm19.17,3.19V23.92c0-1.5-.31-2.51-1-3a3.87,3.87,0,0,0-2.47-.75,10.47,10.47,0,0,0-3.78.74V33.06h-2.8V11.86h2.8v6.39a11.19,11.19,0,0,1,4-.75,5.69,5.69,0,0,1,4.43,1.71A6.87,6.87,0,0,1,86.47,24v9H83.62Zm17.16-3.75a5.93,5.93,0,0,1-.46,1.26,4.34,4.34,0,0,1-1,1.33,5.31,5.31,0,0,1-1.89,1,9.3,9.3,0,0,1-2.91.41,9.19,9.19,0,0,1-3-.43,5.53,5.53,0,0,1-1.92-1,4.41,4.41,0,0,1-1-1.35,5.58,5.58,0,0,1-.48-1.29,5.5,5.5,0,0,1-.09-1A4,4,0,0,1,90,24.66a9.44,9.44,0,0,1,5.28-1.28,22,22,0,0,1,2.77.18A3.76,3.76,0,0,0,97,20.78a4.73,4.73,0,0,0-3.15-.84,13,13,0,0,0-4.23.77v-2.4a12.81,12.81,0,0,1,4.62-.83,6.85,6.85,0,0,1,4.93,1.66,6.3,6.3,0,0,1,1.74,4.77v4.43a5.2,5.2,0,0,1-.1,1h0ZM98,25.81a17.59,17.59,0,0,0-2.66-.19,7.58,7.58,0,0,0-1.28.11,10.28,10.28,0,0,0-1.44.35,2.92,2.92,0,0,0-1.28.79,1.86,1.86,0,0,0-.5,1.32c0,1.73,1.22,2.6,3.66,2.6h0.05c2.31,0,3.46-.83,3.46-2.5V25.81h0Zm7.72-5.11V33.05h-2.8V19a20,20,0,0,1,7.44-1.53v2.58a20.71,20.71,0,0,0-4.64.65h0Zm12.83,10.07h0a3.33,3.33,0,0,0,1.78-.45v2.55a5.45,5.45,0,0,1-2.1.43h-0.08a5.78,5.78,0,0,1-1.18-.14,7.72,7.72,0,0,1-1.51-.53,3.23,3.23,0,0,1-1.44-1.38,4.82,4.82,0,0,1-.56-2.43v-8.7h-2.66v-2.4h2.66V13.19h2.8v4.54h4.06v2.4h-4.06V29c0,1.18.75,1.78,2.26,1.78h0ZM125.33,23a9.52,9.52,0,0,0,1.94.75,23.12,23.12,0,0,1,2.27.78,4.48,4.48,0,0,1,1.94,1.53,4.54,4.54,0,0,1-.56,5.86,6,6,0,0,1-4.29,1.34,9,9,0,0,1-4.4-1.08V29.66a8.43,8.43,0,0,0,4.23,1.12h0.06a3.94,3.94,0,0,0,2.23-.53,1.58,1.58,0,0,0,.77-1.35,1.78,1.78,0,0,0-.8-1.52,6.18,6.18,0,0,0-1.94-.9q-1.15-.32-2.3-0.72a4.48,4.48,0,0,1-1.94-1.32,3.53,3.53,0,0,1-.8-2.38,4.38,4.38,0,0,1,1.36-3.24,5.67,5.67,0,0,1,4.13-1.33,9.16,9.16,0,0,1,4.09,1v2.43a9.06,9.06,0,0,0-3.74-.92c-2,0-3,.65-3,2a1.24,1.24,0,0,0,.8,1.07h0Z" transform="translate(0 -11.86)"/><path class="a" d="M26.6,28.32a6.24,6.24,0,0,1-6.21,6.21s0-6.26,0-6.26,6.21,0,6.21.05h0Z" transform="translate(0 -11.86)"/><path class="a" d="M56.26,33.06V23a3.34,3.34,0,0,0-.64-2.13,3.09,3.09,0,0,0-2.51-.82,10.88,10.88,0,0,0-4.1.85,6.35,6.35,0,0,1,.35,2.2v9.95h-2.8V23a3,3,0,0,0-.72-2.13A3.85,3.85,0,0,0,43,20.13a12.52,12.52,0,0,0-3.34.46V33.06h-2.8V26.89a8.23,8.23,0,0,1-4.57,2.71,8.79,8.79,0,0,1-2.35.16,10,10,0,0,1-18.63,3.3H0V30.45L7.77,20.3H0.18V17.72H11.35v2.55L3.61,30.38h6.74s0-.06,0-0.09A10.07,10.07,0,0,1,18,18.37a9.75,9.75,0,0,1,4.74.15,8.3,8.3,0,0,1,15.57-.2,13.9,13.9,0,0,1,4.88-.89,6.82,6.82,0,0,1,4.08,1.15,15.11,15.11,0,0,1,5.6-1.15,6.32,6.32,0,0,1,4.52,1.52A5.52,5.52,0,0,1,59,23.18V33l-2.79,0h0ZM30.74,15.59a5.89,5.89,0,0,0-5.9,5.9,7.2,7.2,0,0,0,.06.9,7.41,7.41,0,1,0,2.72,4.1,5.9,5.9,0,1,0,3.11-10.9h0Z" transform="translate(0 -11.86)"/></svg>