<svg xmlns="http://www.w3.org/2000/svg" viewBox="0 0 129.06 33.17"><defs><style>.a{fill:#848484;}</style></defs><title>zz-dats</title><polygon class="a" points="45.78 26.74 60.32 26.74 60.32 23.34 52.01 23.34 60.8 6.7 47.14 6.7 47.14 10.1 54.61 10.1 45.78 26.74"/><polygon class="a" points="60.74 26.74 75.28 26.74 75.28 23.34 66.96 23.34 75.76 6.7 62.1 6.7 62.1 10.1 69.57 10.1 60.74 26.74"/><path class="a" d="M108.81,36.09a9.18,9.18,0,0,0-7-2.84H96.24v20h5.56a9.2,9.2,0,0,0,7-2.87,9.92,9.92,0,0,0,2.74-7.12A10.08,10.08,0,0,0,108.81,36.09Zm-2.9,12a6.67,6.67,0,0,1-5.13,1.81h-0.64V36.65h0.64q6.67,0,6.67,6.62A6.85,6.85,0,0,1,105.91,48.07Z" transform="translate(-14.36 -26.55)"/><path class="a" d="M121.66,40.23v1.22A4.4,4.4,0,0,0,120,40.23a5,5,0,0,0-2-.43A5.34,5.34,0,0,0,113.63,42a7.42,7.42,0,0,0-1.57,4.73,7.65,7.65,0,0,0,1.57,4.84,5.37,5.37,0,0,0,4.44,2.18,4.94,4.94,0,0,0,2-.43,4.05,4.05,0,0,0,1.58-1.2v1.2h3.67v-13h-3.67Zm-0.5,9.05a2.71,2.71,0,0,1-2.23,1.13,2.67,2.67,0,0,1-2.23-1.13,4.12,4.12,0,0,1-.85-2.54,4,4,0,0,1,.85-2.54,2.69,2.69,0,0,1,2.23-1.1,2.77,2.77,0,0,1,2.29,1.17,3.92,3.92,0,0,1,.82,2.47A4,4,0,0,1,121.16,49.28Z" transform="translate(-14.36 -26.55)"/><polygon class="a" points="112.36 13.69 112.36 16.82 113.64 16.82 113.64 26.74 117.36 26.74 117.36 16.82 119.64 16.82 119.64 13.69 117.36 13.69 117.36 9.28 113.64 9.28 113.64 13.69 112.36 13.69"/><path class="a" d="M133.75,51.53a5.9,5.9,0,0,0,4.6,2.18,5.24,5.24,0,0,0,3.56-1.22,4.27,4.27,0,0,0,1.52-3.4,3.73,3.73,0,0,0-.82-2.52,5.27,5.27,0,0,0-1.86-1.22l-2.21-1a1,1,0,0,1-.11-1.62,1.27,1.27,0,0,1,.85-0.32,2.29,2.29,0,0,1,1,.25,3.89,3.89,0,0,1,.93.65l1.6-2.15a5.19,5.19,0,0,0-1.91-1,7.85,7.85,0,0,0-2.29-.35,4,4,0,0,0-3,1.18,4.17,4.17,0,0,0-1.16,3,3.55,3.55,0,0,0,.52,2,4.49,4.49,0,0,0,2.09,1.48,13.51,13.51,0,0,1,2.13,1,1.21,1.21,0,0,1,.48,1,1.31,1.31,0,0,1-.42,1,1.56,1.56,0,0,1-1.06.37,2.92,2.92,0,0,1-1.54-.45,5.31,5.31,0,0,1-1.22-1.06Z" transform="translate(-14.36 -26.55)"/><path class="a" d="M34.93,26.55A16.58,16.58,0,1,0,51.52,43.13,16.58,16.58,0,0,0,34.93,26.55Zm0,30.26A13.67,13.67,0,1,1,48.6,43.13,13.67,13.67,0,0,1,34.93,56.8Z" transform="translate(-14.36 -26.55)"/><path class="a" d="M40.25,30.53L26.71,54a13.65,13.65,0,0,0,2.9,1.67L43.16,32.21A13.64,13.64,0,0,0,40.25,30.53Z" transform="translate(-14.36 -26.55)"/><path class="a" d="M53.74,50.35H37.65l8.59-14.9A13.75,13.75,0,0,0,44.1,33c-3.46,6-6.83,12-10.38,17.91A1.56,1.56,0,0,0,35,53.44c2.95,0,16.64,0,20.54,0Z" transform="translate(-14.36 -26.55)"/><path class="a" d="M34.9,33H14.36l1.81,3.1H32.26L23.7,50.92a13.73,13.73,0,0,0,2.16,2.43L36.19,35.52A1.57,1.57,0,0,0,34.9,33Z" transform="translate(-14.36 -26.55)"/></svg>