<svg xmlns="http://www.w3.org/2000/svg" width="75" height="30.32" viewBox="0 0 75 30.32">
  <defs>
    <style>
      .a {
        fill: #8c8c8c;
      }
    </style>
  </defs>
  <title>firmas</title>
  <g>
    <path class="a" d="M107.18,41.78s-12-4.09-29.29-2.17C44,43.38,33,39.62,33,39.62c7.1,1.63,25,1.93,38.6-.33a107.92,107.92,0,0,1,15.6-1.58c13-.27,20.17,2.56,20.17,2.56Z" transform="translate(-33.02 -11.46)"/>
    <path class="a" d="M74,26.45a2,2,0,0,0-1.59.72,2.09,2.09,0,0,0-.63,1.57,2.78,2.78,0,0,0,.61,1.87,1.92,1.92,0,0,0,1.59.61,2.12,2.12,0,0,0,1.65-.7,2.37,2.37,0,0,0,.51-1.73A2.11,2.11,0,0,0,74,26.45Z" transform="translate(-33.02 -11.46)"/>
    <path class="a" d="M70,13.14c-14.36,2.16-25.89,3-37,.36V39.62s9.8,3.73,36.51-.59S108,39.62,108,39.62V13.5S96.35,9.17,70,13.14ZM45.7,24.1H42.32V26H45.7V28.1H42.34v4.8H40.23V22H45.7V24.1Zm3.36,8.8H46.83V24.83h2.23V32.9Zm-0.15-9a1.28,1.28,0,0,1-1,.4,1.36,1.36,0,0,1-1.36-1.37A1.36,1.36,0,0,1,48,21.55a1.31,1.31,0,0,1,1,.4,1.28,1.28,0,0,1,.4,1A1.3,1.3,0,0,1,48.91,23.86Zm5.47,2.67A0.94,0.94,0,0,0,54,26.46c-0.94,0-1.06.78-1.06,1.89V32.9H50.87V24.76h1.72v0.67a3.3,3.3,0,0,1,.84-0.68,1.93,1.93,0,0,1,.89-0.19,2.36,2.36,0,0,1,.74.13Zm14,6.37H66.23V28.39c0-.78-0.27-1.92-1.42-1.92s-1.54,1.38-1.54,2.24V32.9H61V28.53c0-1.45-.36-2-1.2-2-1.48,0-1.69,1.37-1.69,2.22V32.9h-2V24.78h2v0.75A2.74,2.74,0,0,1,59,24.91a4.62,4.62,0,0,1,1.48-.36A3.22,3.22,0,0,1,63,26a3,3,0,0,1,2.39-1.43c1.83,0,3,1.11,3,3.33v5Zm9.77-.11H76V31.92A3.28,3.28,0,0,1,73.7,33,3.53,3.53,0,0,1,71,31.79a4.45,4.45,0,0,1-1.07-3,4.31,4.31,0,0,1,1.07-3,3.46,3.46,0,0,1,2.69-1.2A3.16,3.16,0,0,1,76,25.7V24.78h2.08v8Zm6.18-.44a3.06,3.06,0,0,1-4.85-1.22L81,30.4a3.45,3.45,0,0,0,.5.73,1.15,1.15,0,0,0,.8.31,0.79,0.79,0,0,0,.94-0.85,1.17,1.17,0,0,0-.72-0.92L82,29.4l-0.57-.27a3.48,3.48,0,0,1-1.13-.79,1.94,1.94,0,0,1-.42-1.29,2.28,2.28,0,0,1,.71-1.72,2.5,2.5,0,0,1,1.77-.68,2.42,2.42,0,0,1,2.28,1.58L83.1,27a1.06,1.06,0,0,0-.89-0.74,0.61,0.61,0,0,0-.44.17,0.56,0.56,0,0,0-.18.43,1.39,1.39,0,0,0,1.07.91,6.38,6.38,0,0,1,2,1.16,2,2,0,0,1,.51,1.44A2.52,2.52,0,0,1,84.29,32.36Zm4.28,0.3a1.19,1.19,0,0,1-1.66,0,1.14,1.14,0,0,1-.34-0.84A1.12,1.12,0,0,1,86.92,31,1.17,1.17,0,1,1,88.57,32.66Zm4.15,0.43H90.59V21.69h2.13V33.1Zm5.65-.23H96.94l-3.49-8.07h2.16l2,4.75,2-4.75h2.05Z" transform="translate(-33.02 -11.46)"/>
  </g>
</svg>
