<svg xmlns="http://www.w3.org/2000/svg" width="123.53" height="19.55" viewBox="0 0 123.53 19.55">
  <defs>
    <style>
      .a {
        fill: #8c8c8c;
      }
    </style>
  </defs>
  <title>lattelecom</title>
  <g>
    <path class="a" d="M8.45,16.3h2.71V35.25H8.45V16.3Z" transform="translate(-8.45 -16.08)"/>
    <path class="a" d="M24.48,32.15a18.74,18.74,0,0,0,.22,3.1H22.26L22,33.62H21.93a5.84,5.84,0,0,1-4.57,1.92c-3,0-4.56-1.84-4.56-3.71,0-3.12,3.21-4.83,9-4.8V26.76c0-1.07-.34-3-3.39-3a8,8,0,0,0-3.92,1l-0.62-1.57A10.84,10.84,0,0,1,18.78,22c4.59,0,5.7,2.69,5.7,5.28v4.83Zm-2.65-3.5c-3-.05-6.32.4-6.32,2.91A2.23,2.23,0,0,0,18,33.81a3.78,3.78,0,0,0,3.67-2.16,2.13,2.13,0,0,0,.12-0.75V28.65Z" transform="translate(-8.45 -16.08)"/>
    <path class="a" d="M52.29,29.21c0.06,3.15,2.38,4.46,5.09,4.46A11,11,0,0,0,61.51,33L62,34.69a13.84,13.84,0,0,1-5,.83c-4.57,0-7.34-2.64-7.34-6.51a6.69,6.69,0,0,1,7-7c4.87,0,6.14,3.71,6.14,6.08a4.87,4.87,0,0,1-.09,1.09H52.29Zm7.93-1.68a3.5,3.5,0,0,0-3.73-3.82,4.15,4.15,0,0,0-4.16,3.82h7.9Z" transform="translate(-8.45 -16.08)"/>
    <path class="a" d="M64.44,16.3h2.72V35.25H64.44V16.3Z" transform="translate(-8.45 -16.08)"/>
    <path class="a" d="M71.28,29.21c0.06,3.15,2.37,4.46,5.09,4.46A11,11,0,0,0,80.5,33L81,34.69a13.82,13.82,0,0,1-5,.83c-4.56,0-7.34-2.64-7.34-6.51a6.69,6.69,0,0,1,7-7c4.88,0,6.14,3.71,6.14,6.08a4.8,4.8,0,0,1-.09,1.09H71.28Zm7.93-1.68a3.5,3.5,0,0,0-3.73-3.82,4.15,4.15,0,0,0-4.16,3.82h7.9Z" transform="translate(-8.45 -16.08)"/>
    <path class="a" d="M94.66,34.77a11.88,11.88,0,0,1-4.29.75c-4.5,0-7.43-2.64-7.43-6.59S86.09,22,91,22a9.7,9.7,0,0,1,3.76.69l-0.62,1.79A7.5,7.5,0,0,0,91,23.9c-3.42,0-5.27,2.21-5.27,4.88,0,3,2.22,4.83,5.18,4.83A8.79,8.79,0,0,0,94.2,33Z" transform="translate(-8.45 -16.08)"/>
    <path class="a" d="M101.78,35.54c-4,0-7.16-2.56-7.16-6.64,0-4.32,3.3-6.86,7.4-6.86,4.29,0,7.19,2.69,7.19,6.62,0,4.8-3.85,6.89-7.4,6.89h0Zm0.12-1.76c2.59,0,4.53-2.11,4.53-5,0-2.19-1.26-4.94-4.47-4.94s-4.56,2.56-4.56,5c0,2.83,1.85,5,4.47,5h0Z" transform="translate(-8.45 -16.08)"/>
    <path class="a" d="M110.63,25.83c0-1.36-.06-2.43-0.12-3.5h2.37L113,24.41h0.09A5.31,5.31,0,0,1,117.82,22,4.4,4.4,0,0,1,122,24.63h0.06a5.43,5.43,0,0,1,1.7-1.68A5.53,5.53,0,0,1,127,22c2,0,4.94,1.12,4.94,5.6v7.61h-2.65V27.93c0-2.51-1.08-4-3.24-4a3.54,3.54,0,0,0-3.24,2.11,3.66,3.66,0,0,0-.22,1.17v8H120V27.48c0-2.06-1-3.52-3.12-3.52a3.66,3.66,0,0,0-3.36,2.35,2.84,2.84,0,0,0-.22,1.15v7.79h-2.65V25.83Z" transform="translate(-8.45 -16.08)"/>
    <path class="a" d="M37.18,35.64v-2a5.76,5.76,0,0,1-1.57.16c-1.51,0-2-1.13-2-2.73V23.68H39.7v7.46c0,1.52.31,3.18,1,3.9a3.15,3.15,0,0,0,.91.6H37.18Zm11-14V17.55a1.48,1.48,0,0,0-1.47-1.47H28.24a1.48,1.48,0,0,0-1.47,1.47v4.11H48.13Zm-5.77,2v7.38c0,1.6.52,2.73,2,2.73A5.74,5.74,0,0,0,46,33.63v2h0.7a1.48,1.48,0,0,0,1.47-1.47V23.68H42.36ZM32,35c-0.74-.72-1-2.38-1-3.9V23.68H26.77V34.17a1.47,1.47,0,0,0,1.47,1.47h4.65A3.19,3.19,0,0,1,32,35ZM30.7,19a1.52,1.52,0,1,1,1.52,1.52A1.52,1.52,0,0,1,30.7,19Zm8.83,0A1.52,1.52,0,1,1,41,20.53,1.52,1.52,0,0,1,39.53,19Z" transform="translate(-8.45 -16.08)"/>
  </g>
</svg>
