<svg xmlns="http://www.w3.org/2000/svg" width="126.36" height="39.65" viewBox="0 0 126.36 39.65">
  <defs>
    <style>
      .a {
        fill: #8c8c8c;
      }
    </style>
  </defs>
  <title>latvijas-dzelzscels</title>
  <g>
    <g>
      <path class="a" d="M27.61,26a7.89,7.89,0,0,0-4-6.86,8.09,8.09,0,0,0-4-1.06v4.69a3.2,3.2,0,1,1,0,6.41v4.56a8.25,8.25,0,0,0,4-1A7.69,7.69,0,0,0,27.61,26Z" transform="translate(-6.92 -6.03)"/>
      <path class="a" d="M23.58,11.41a15.8,15.8,0,0,0-4-.52V16a10.39,10.39,0,0,1,4,.8,10,10,0,0,1,0,18.49,10.48,10.48,0,0,1-4,.79v5a15.88,15.88,0,0,0,4-.51A15.14,15.14,0,0,0,35,26,15.22,15.22,0,0,0,23.58,11.41Z" transform="translate(-6.92 -6.03)"/>
    </g>
    <polygon class="a" points="0 12.09 5.89 12.09 5.89 22.97 11.83 22.97 11.79 27.65 0 27.65 0 12.09"/>
    <polygon class="a" points="29.07 12.04 29.12 16.6 34.41 16.6 29.07 23.01 29.07 27.65 40.86 27.65 40.86 23.01 35.87 23.01 40.9 16.56 40.9 12.04 29.07 12.04"/>
    <path class="a" d="M47.86,36l-1.81,0v2.62a5.38,5.38,0,0,1-5.42,5.33H14.23a5.42,5.42,0,0,1-5.46-5.33V35.92H7v2.62c0.13,4.21,3.1,6.79,7.23,7.14H40.59c4.17-.34,7.1-2.92,7.27-7.14V36Z" transform="translate(-6.92 -6.03)"/>
    <path class="a" d="M47.86,15.71l-1.81,0V13.13a5.41,5.41,0,0,0-5.42-5.38H14.23a5.45,5.45,0,0,0-5.46,5.38v2.62H7V13.13C7.13,9,10.1,6.38,14.23,6H40.59c4.17,0.34,7.1,2.92,7.27,7.1v2.58Z" transform="translate(-6.92 -6.03)"/>
    <polygon class="a" points="49.42 10.45 49.42 10.45 52.08 10.45 52.08 16.94 56.26 16.94 56.26 19.05 49.42 19.05 49.42 10.45"/>
    <polygon class="a" points="57.24 28.94 57.24 28.94 57.24 30.75 57.24 28.94"/>
    <path class="a" d="M63.95,30.76a3.15,3.15,0,0,0-.69-1.37,2.75,2.75,0,0,0-1.16-.95,5.76,5.76,0,0,0-1.89-.3h-4v8.64h4a5.83,5.83,0,0,0,1.59-.26A3,3,0,0,0,63,35.84a3.69,3.69,0,0,0,.9-1.25,6,6,0,0,0,.3-2V32.27A5.66,5.66,0,0,0,63.95,30.76ZM61.28,34a1.2,1.2,0,0,1-.56.64,4.73,4.73,0,0,1-.52.13,3.41,3.41,0,0,1-.65,0H58.87V30.12h0.69a3.26,3.26,0,0,1,.65,0,1.48,1.48,0,0,1,.82.43,2.94,2.94,0,0,1,.47,1.89A4.17,4.17,0,0,1,61.28,34Z" transform="translate(-6.92 -6.03)"/>
    <polygon class="a" points="57.24 30.75 57.24 30.75 65.42 30.75 65.42 28.86 60.43 28.86 65.24 23.83 65.24 22.11 57.72 22.11 57.72 23.96 62.02 23.96 57.24 28.94 57.24 30.75"/>
    <path class="a" d="M64.16,32.27h0v0Z" transform="translate(-6.92 -6.03)"/>
    <path class="a" d="M69.63,16.48H66.75l-3.27,8.6h2.75l0.39-1.42h3.05l0.43,1.42h2.34V23.92Zm-1.46,5.33H67.22l0.94-3.1,0.95,3.1H68.16Z" transform="translate(-6.92 -6.03)"/>
    <polygon class="a" points="65.52 19.05 65.52 19.05 65.67 19.05 65.67 18.28 65.52 17.88 65.52 19.05"/>
    <polygon class="a" points="65.83 18.66 65.83 18.66 65.83 19.05 65.67 19.05 65.67 18.28 65.83 18.66"/>
    <path class="a" d="M98.87,16.48h2.67v4.69a7.36,7.36,0,0,1-.26,2.24,2.47,2.47,0,0,1-1,1.29,3.3,3.3,0,0,1-2,.56,4.89,4.89,0,0,1-2-.34,2.86,2.86,0,0,1-1.12-1,4,4,0,0,1-.48-1.68l2.54-.39a2.12,2.12,0,0,0,.13.86,0.78,0.78,0,0,0,.3.43,0.78,0.78,0,0,0,1.08-.21,1.83,1.83,0,0,0,.21-1.12V16.48h0Z" transform="translate(-6.92 -6.03)"/>
    <polygon class="a" points="83.78 10.45 83.78 10.45 86.45 10.45 86.45 19.05 83.78 19.05 83.78 10.45"/>
    <polygon class="a" points="73.59 10.45 73.59 10.45 76.38 10.45 78.32 16.64 80.21 10.45 82.92 10.45 79.74 19.05 76.86 19.05 73.59 10.45"/>
    <path class="a" d="M111.82,22.25h0l2.54-.17a1.73,1.73,0,0,0,.3.95,1.49,1.49,0,0,0,1.2.52,1.28,1.28,0,0,0,.86-0.26,0.75,0.75,0,0,0,.3-0.6,0.77,0.77,0,0,0-.26-0.6,4.1,4.1,0,0,0-1.38-.52,5.71,5.71,0,0,1-2.49-1,2.07,2.07,0,0,1-.77-1.68,2.23,2.23,0,0,1,.39-1.25,2.58,2.58,0,0,1,1.16-.95,5.52,5.52,0,0,1,2.11-.34,4.17,4.17,0,0,1,2.54.64,2.67,2.67,0,0,1,1,1.94l-2.49.13a1.36,1.36,0,0,0-.43-0.82,1.41,1.41,0,0,0-.9-0.26,1.08,1.08,0,0,0-.69.17,0.59,0.59,0,0,0-.26.47,0.52,0.52,0,0,0,.21.39,2,2,0,0,0,.9.3,11.75,11.75,0,0,1,2.5.77,2.75,2.75,0,0,1,1.12.95,2.64,2.64,0,0,1,.35,1.29,2.59,2.59,0,0,1-.47,1.5,2.64,2.64,0,0,1-1.29,1.07,4.89,4.89,0,0,1-2.06.39,4.32,4.32,0,0,1-3.06-.86A3.22,3.22,0,0,1,111.82,22.25Z" transform="translate(-6.92 -6.03)"/>
    <polygon class="a" points="123.31 21.59 123.31 21.59 121.58 21.59 120.3 19.91 121.76 19.91 122.44 20.82 123.18 19.91 124.64 19.91 123.31 21.59"/>
    <path class="a" d="M125.45,33.9h0l2.54-.13a1.72,1.72,0,0,0,.34.9,1.29,1.29,0,0,0,1.16.56,1.05,1.05,0,0,0,.86-0.3,0.81,0.81,0,0,0,.35-0.6,0.91,0.91,0,0,0-.3-0.6,3.77,3.77,0,0,0-1.38-.52,5.71,5.71,0,0,1-2.49-1,2.08,2.08,0,0,1-.78-1.68,2.24,2.24,0,0,1,.39-1.25,2.49,2.49,0,0,1,1.16-.9,5,5,0,0,1,2.15-.35,4.13,4.13,0,0,1,2.5.6,2.48,2.48,0,0,1,1,1.94l-2.49.17a1.47,1.47,0,0,0-.43-0.86,1.41,1.41,0,0,0-.9-0.26,1.11,1.11,0,0,0-.69.22,0.62,0.62,0,0,0-.21.47,0.39,0.39,0,0,0,.17.34,2.38,2.38,0,0,0,.9.34,12.18,12.18,0,0,1,2.49.73,2.82,2.82,0,0,1,1.12,1,2.34,2.34,0,0,1,.34,1.25,2.84,2.84,0,0,1-.47,1.55,2.9,2.9,0,0,1-1.29,1.08,5.6,5.6,0,0,1-2.07.34,4.31,4.31,0,0,1-3.05-.86A3.4,3.4,0,0,1,125.45,33.9Z" transform="translate(-6.92 -6.03)"/>
    <path class="a" d="M120.12,37.73h0l0.17-.69a4.81,4.81,0,0,1,1-.13,2,2,0,0,1,1.42.35,1,1,0,0,1,.34.82,1,1,0,0,1-.17.56,1,1,0,0,1-.6.47,3,3,0,0,1-1.21.21,12,12,0,0,1-1.55-.17V38.42a6,6,0,0,0,1.29.13,1.29,1.29,0,0,0,.69-0.13,0.39,0.39,0,0,0,.17-0.34,0.38,0.38,0,0,0-.13-0.3,0.77,0.77,0,0,0-.47-0.13C120.85,37.64,120.51,37.69,120.12,37.73Z" transform="translate(-6.92 -6.03)"/>
    <polygon class="a" points="110.96 22.11 110.96 22.11 113.63 22.11 113.63 28.6 117.8 28.6 117.8 30.75 110.96 30.75 110.96 22.11"/>
    <polygon class="a" points="101.89 22.11 101.89 22.11 109.03 22.11 109.03 23.96 104.56 23.96 104.56 25.33 108.72 25.33 108.72 27.09 104.56 27.09 104.56 28.77 109.16 28.77 109.16 30.75 101.89 30.75 101.89 22.11"/>
    <path class="a" d="M105.07,33.26h0l2.32,0.69a3.8,3.8,0,0,1-.73,1.63,3.12,3.12,0,0,1-1.25,1,4.16,4.16,0,0,1-1.89.34,5.91,5.91,0,0,1-2.32-.39,3.84,3.84,0,0,1-1.55-1.46A4.84,4.84,0,0,1,99,32.44a4.51,4.51,0,0,1,1.16-3.31A4.45,4.45,0,0,1,103.39,28a4.35,4.35,0,0,1,2.54.65,3.71,3.71,0,0,1,1.38,2l-2.32.52a2.34,2.34,0,0,0-.26-0.56,1.44,1.44,0,0,0-.56-0.47,1.42,1.42,0,0,0-.73-0.17,1.55,1.55,0,0,0-1.38.73,3,3,0,0,0-.39,1.72,3,3,0,0,0,.47,1.94,1.36,1.36,0,0,0,1.2.56,1.59,1.59,0,0,0,1.16-.43A3.06,3.06,0,0,0,105.07,33.26Z" transform="translate(-6.92 -6.03)"/>
    <polygon class="a" points="83.74 22.11 83.74 22.11 91.27 22.11 91.27 23.83 86.45 28.86 91.44 28.86 91.44 30.75 83.27 30.75 83.27 28.94 88.04 23.96 83.74 23.96 83.74 22.11"/>
    <polygon class="a" points="75.69 22.11 75.69 22.11 78.36 22.11 78.36 28.6 82.49 28.6 82.49 30.75 75.69 30.75 75.69 22.11"/>
    <polygon class="a" points="66.75 22.11 66.75 22.11 73.89 22.11 73.89 23.96 69.42 23.96 69.42 25.33 73.55 25.33 73.55 27.09 69.42 27.09 69.42 28.77 74.02 28.77 74.02 30.75 66.75 30.75 66.75 22.11"/>
    <polygon class="a" points="65.37 10.45 65.37 12.56 68.08 12.56 68.08 19.05 70.75 19.05 70.75 12.56 73.46 12.56 73.46 10.45 65.37 10.45"/>
    <polygon class="a" points="65.83 19.05 65.83 19.05 65.83 18.66 65.98 19.05 65.83 19.05"/>
    <path class="a" d="M108.42,16.48h-2.93l-3.22,8.6H105l0.43-1.42h3.05l0.39,1.42h2.8Zm-1.51,5.33H106l0.94-3.1,1,3.1h-1Z" transform="translate(-6.92 -6.03)"/>
  </g>
</svg>
