<svg xmlns="http://www.w3.org/2000/svg" width="114.01" height="38.02" viewBox="0 0 114.01 38.02">
  <defs>
    <style>
      .a, .b {
        fill: #8c8c8c;
      }

      .a {
        fill-rule: evenodd;
      }
    </style>
  </defs>
  <title>latvijas-vestnesis</title>
  <g>
    <g>
      <g>
        <polygon class="a" points="48.67 27.13 46.23 20.53 46.89 20.53 49 26.32 51.13 20.53 51.78 20.53 49.29 27.13 48.67 27.13"/>
        <path class="a" d="M68.58,34v-6.6h4v0.56H69.2v2.35h3.19v0.56H69.2v2.57h3.55V34H68.58Zm3.58-7.29V27H69V26.69h3.14Z" transform="translate(-13.26 -6.85)"/>
        <path class="a" d="M76.34,33.16l0.58-.39a1.63,1.63,0,0,0,1.5.83,1.57,1.57,0,0,0,1.06-.35A1.19,1.19,0,0,0,79,31.19l-1.63-.61A1.66,1.66,0,0,1,76.52,29a1.62,1.62,0,0,1,.64-1.34,2.3,2.3,0,0,1,1.46-.47,2.48,2.48,0,0,1,1,.2,2,2,0,0,1,.78.63l-0.53.38a1.48,1.48,0,0,0-1.28-.65,1.69,1.69,0,0,0-1.06.33,1.09,1.09,0,0,0-.42.92A1.22,1.22,0,0,0,78,30.2l1.63,0.59a1.58,1.58,0,0,1,.88,1.51,1.7,1.7,0,0,1-.62,1.37,2.14,2.14,0,0,1-1.42.48,3,3,0,0,1-1.22-.23A2.14,2.14,0,0,1,76.34,33.16Z" transform="translate(-13.26 -6.85)"/>
        <polygon class="a" points="72.76 27.13 72.76 21.09 70.52 21.09 70.52 20.53 75.62 20.53 75.62 21.09 73.37 21.09 73.37 27.13 72.76 27.13"/>
        <polygon class="a" points="79.3 27.13 79.3 20.53 80.09 20.53 84.08 26.31 84.1 20.53 84.71 20.53 84.71 27.13 83.92 27.13 79.93 21.35 79.91 27.13 79.3 27.13"/>
        <polygon class="a" points="89.18 27.13 89.18 20.53 93.19 20.53 93.19 21.09 89.79 21.09 89.79 23.44 92.98 23.44 92.98 24 89.79 24 89.79 26.57 93.34 26.57 93.34 27.13 89.18 27.13"/>
        <path class="a" d="M110.2,33.16l0.58-.39a1.63,1.63,0,0,0,1.5.83,1.57,1.57,0,0,0,1.06-.35,1.19,1.19,0,0,0-.45-2.05l-1.63-.61a1.66,1.66,0,0,1-.88-1.56,1.63,1.63,0,0,1,.64-1.34,2.3,2.3,0,0,1,1.46-.47,2.48,2.48,0,0,1,1,.2,2,2,0,0,1,.78.63l-0.53.38a1.48,1.48,0,0,0-1.28-.65,1.68,1.68,0,0,0-1.06.33A1.09,1.09,0,0,0,111,29a1.22,1.22,0,0,0,.87,1.17l1.63,0.59a1.58,1.58,0,0,1,.88,1.51,1.7,1.7,0,0,1-.62,1.37,2.14,2.14,0,0,1-1.42.48,3.05,3.05,0,0,1-1.22-.23A2.14,2.14,0,0,1,110.2,33.16Z" transform="translate(-13.26 -6.85)"/>
        <rect class="b" x="105.17" y="20.53" width="0.61" height="6.6"/>
        <path class="a" d="M123.1,33.16l0.58-.39a1.63,1.63,0,0,0,1.5.83,1.57,1.57,0,0,0,1.06-.35,1.19,1.19,0,0,0-.45-2.05l-1.63-.61a1.66,1.66,0,0,1-.88-1.56,1.62,1.62,0,0,1,.64-1.34,2.3,2.3,0,0,1,1.46-.47,2.47,2.47,0,0,1,1,.2,2,2,0,0,1,.78.63l-0.53.38a1.48,1.48,0,0,0-1.28-.65,1.69,1.69,0,0,0-1.06.33,1.09,1.09,0,0,0-.42.92,1.22,1.22,0,0,0,.87,1.17l1.63,0.59a1.58,1.58,0,0,1,.88,1.51,1.7,1.7,0,0,1-.62,1.37,2.15,2.15,0,0,1-1.42.48,3,3,0,0,1-1.22-.23A2.14,2.14,0,0,1,123.1,33.16Z" transform="translate(-13.26 -6.85)"/>
      </g>
      <g>
        <polygon class="a" points="47.15 16.77 47.15 10.17 47.77 10.17 47.77 16.21 50.82 16.21 50.82 16.77 47.15 16.77"/>
        <path class="a" d="M68.21,23.63L71.07,17H71.7l2.76,6.6H73.78l-0.71-1.75H69.59l-0.74,1.75H68.21Zm4.63-2.31-1.48-3.62-1.53,3.62h3Z" transform="translate(-13.26 -6.85)"/>
        <polygon class="a" points="67.61 16.77 67.61 10.73 65.37 10.73 65.37 10.17 70.47 10.17 70.47 10.73 68.22 10.73 68.22 16.77 67.61 16.77"/>
        <polygon class="a" points="77 16.77 74.56 10.17 75.22 10.17 77.33 15.96 79.46 10.17 80.11 10.17 77.62 16.77 77 16.77"/>
        <rect class="b" x="84.99" y="10.17" width="0.61" height="6.6"/>
        <path class="a" d="M107.34,17v4.66a2.83,2.83,0,0,1-.26,1.35,1.6,1.6,0,0,1-1.54.76,1.7,1.7,0,0,1-1.13-.36,1.73,1.73,0,0,1-.58-1l0.61-.11a1,1,0,0,0,1.09.9,1.08,1.08,0,0,0,.92-0.39,1.64,1.64,0,0,0,.27-1V17h0.61Z" transform="translate(-13.26 -6.85)"/>
        <path class="a" d="M112.3,23.63l2.86-6.6h0.63l2.76,6.6h-0.69l-0.71-1.75h-3.47l-0.74,1.75H112.3Zm4.63-2.31-1.48-3.62-1.53,3.62h3Z" transform="translate(-13.26 -6.85)"/>
        <path class="a" d="M123.1,22.8l0.58-.39a1.63,1.63,0,0,0,1.5.83,1.57,1.57,0,0,0,1.06-.35,1.19,1.19,0,0,0-.45-2.05l-1.63-.61a1.66,1.66,0,0,1-.88-1.56,1.62,1.62,0,0,1,.64-1.34,2.3,2.3,0,0,1,1.46-.47,2.47,2.47,0,0,1,1,.2,2,2,0,0,1,.78.63l-0.53.38a1.48,1.48,0,0,0-1.28-.65,1.69,1.69,0,0,0-1.06.33,1.09,1.09,0,0,0-.42.92,1.23,1.23,0,0,0,.87,1.18l1.63,0.59a1.58,1.58,0,0,1,.88,1.51,1.71,1.71,0,0,1-.62,1.37,2.15,2.15,0,0,1-1.42.49,3,3,0,0,1-1.22-.23A2.15,2.15,0,0,1,123.1,22.8Z" transform="translate(-13.26 -6.85)"/>
      </g>
    </g>
    <path class="b" d="M46.16,28.75l-7.31-7.3H41l5.13,5.13,5.12-5.13V14.6a7.75,7.75,0,0,0-7.75-7.75H21a7.75,7.75,0,0,0-7.75,7.75v6.83h1.55v5.76h5.65l1.62,1.56H13.26v8.36A7.75,7.75,0,0,0,21,44.87H43.53a7.76,7.76,0,0,0,7.75-7.75V23.63ZM17,21.45h2.18l5.13,5.13,5.14-5.14h2.17l-7.32,7.32Zm15,5.79A1.28,1.28,0,1,1,33.26,26,1.28,1.28,0,0,1,32,27.24Zm3,1.51V21.44h1.62v5.76h6.09l1.62,1.56H35Z" transform="translate(-13.26 -6.85)"/>
  </g>
</svg>
