<svg xmlns="http://www.w3.org/2000/svg" width="108.36" height="30.85" viewBox="0 0 108.36 30.85">
  <defs>
    <style>
      .a {
        fill: #8c8c8c;
      }
    </style>
  </defs>
  <title>lata</title>
  <g>
    <path class="a" d="M78.37,37.82a6.68,6.68,0,0,1-3.07-.64,4.4,4.4,0,0,1-1.94-2,6.92,6.92,0,0,1-.66-3.12V21.81a5.09,5.09,0,0,1,1.5-4c1-.87,2.59-1.29,4.74-1.29h7.82v3.08h-9a1.72,1.72,0,0,0-1,.37,2.22,2.22,0,0,0-.85,1.4,3.58,3.58,0,0,0-.06.56v3.62H86.73v3.13H75.8v4.17a1.63,1.63,0,0,0,.15.62,2.19,2.19,0,0,0,.61.82,1.85,1.85,0,0,0,.92.38,11.12,11.12,0,0,0,1.74.11h7.46v3.08h-8.3Z" transform="translate(-15.93 -10.43)"/>
    <g>
      <path class="a" d="M60.76,37.76C57.59,37.42,56,35.63,56,32.45v-16h3.11V32.43a2.34,2.34,0,0,0,.56,1.76,2.71,2.71,0,0,0,1.91.56H69.7v3.08h-8A7.4,7.4,0,0,1,60.76,37.76Z" transform="translate(-15.93 -10.43)"/>
      <path class="a" d="M96.06,19.56H91.48V16.48h12.35v3.08H99.19V37.82H96.06V19.56Z" transform="translate(-15.93 -10.43)"/>
      <path class="a" d="M108.42,37.82h-3.29l7.09-19.37c0.54-1.47,1.33-2.21,2.37-2.21a3.13,3.13,0,0,1,1.08.2,1.8,1.8,0,0,1,.84.62,5.88,5.88,0,0,1,.69,1.39l7.09,19.37H121l-1.62-4.45H110Zm2.76-7.56h7l-3.55-9.7Z" transform="translate(-15.93 -10.43)"/>
    </g>
    <path class="a" d="M35.06,30.75a4,4,0,0,0,2.84-.68l7.61-4.34A16.41,16.41,0,0,0,23.16,11.55l9.9,17.37A3.43,3.43,0,0,0,35.06,30.75Z" transform="translate(-15.93 -10.43)"/>
    <path class="a" d="M38.53,33.73c-3.67,1.61-6.51.63-8.49-2.84L21.53,15.94a14.1,14.1,0,1,0,22.11,15l-4.08,2.33A9.33,9.33,0,0,1,38.53,33.73Z" transform="translate(-15.93 -10.43)"/>
  </g>
</svg>
