<svg xmlns="http://www.w3.org/2000/svg" width="114.69" height="20.37" viewBox="0 0 114.69 20.37">
  <defs>
    <style>
      .a {
        fill: #8c8c8c;
      }
    </style>
  </defs>
  <title>mailigen</title>
  <g>
    <path class="a" d="M111.46,15.7l13.84,14.23V16.45h2.56V36L114,21.88v13.3h-2.56V15.7Z" transform="translate(-13.17 -15.68)"/>
    <path class="a" d="M98.78,16.45h10.38V19h-7.85v4.67h7.85v2.53h-7.85v6.44h7.85v2.53H98.78V16.45Z" transform="translate(-13.17 -15.68)"/>
    <path class="a" d="M94.75,19.45l-1.9,1.87a9.19,9.19,0,0,0-6.63-2.81,7.58,7.58,0,0,0-5.48,2.11,7.21,7.21,0,0,0-.07,10.28,7.71,7.71,0,0,0,5.86,2.22q5.6,0,7-4.87H88.52V25.71h8a14.57,14.57,0,0,1-.26,3.07,9,9,0,0,1-1.07,2.52A9.14,9.14,0,0,1,93,33.78a8.48,8.48,0,0,1-2.88,1.56,12.65,12.65,0,0,1-3.67.47,10.16,10.16,0,0,1-7.74-3,9.84,9.84,0,0,1-2.89-7,9.48,9.48,0,0,1,3-7A9.84,9.84,0,0,1,86,15.87a13.19,13.19,0,0,1,4.56.76A12.49,12.49,0,0,1,94.75,19.45Z" transform="translate(-13.17 -15.68)"/>
    <path class="a" d="M60.52,16.45H63V32.65h6.1v2.53H60.52V16.45Z" transform="translate(-13.17 -15.68)"/>
    <path class="a" d="M55.74,16.45h2.53V35.18H55.74V16.45Z" transform="translate(-13.17 -15.68)"/>
    <path class="a" d="M71.27,16.45H73.8V35.18H71.27V16.45Z" transform="translate(-13.17 -15.68)"/>
    <path class="a" d="M45.3,15.73l8.84,19.44H51.45l-2.17-4.79H41.34l-2.15,4.79H36.53Zm0,5.84-3,6.68h6Z" transform="translate(-13.17 -15.68)"/>
    <path class="a" d="M30,15.68l5.12,19.5H32.59l-3.1-11.92L24.15,35.9,18.8,23.16l-3.14,12H13.17l5.12-19.5,5.86,14Z" transform="translate(-13.17 -15.68)"/>
  </g>
</svg>
