<!-- Generator: Adobe Illustrator 19.2.0, SVG Export Plug-In  -->
<svg version="1.0"
	 xmlns="http://www.w3.org/2000/svg" xmlns:xlink="http://www.w3.org/1999/xlink" xmlns:a="http://ns.adobe.com/AdobeSVGViewerExtensions/3.0/"
	 x="0px" y="0px" width="38.5px" height="49.7px" viewBox="0 0 38.5 49.7" style="enable-background:new 0 0 38.5 49.7;"
	 xml:space="preserve">
<style type="text/css">
	.st0{fill:#FFFFFF;}
	.st1{fill:#7629F4;}
</style>
<defs>
</defs>
<g>
	<polygon class="st0" points="37.9,19.3 0.6,0.6 0.6,20.2 30.7,35.2 37.9,49 	"/>
	<path class="st1" d="M37.9,49.7c-0.2,0-0.5-0.1-0.6-0.3l-7.1-13.6L0.4,20.8C0.1,20.7,0,20.4,0,20.2V0.6c0-0.2,0.1-0.4,0.3-0.5
		C0.5,0,0.7,0,0.9,0.1l37.2,18.6c0.2,0.1,0.4,0.3,0.4,0.6V49c0,0.3-0.2,0.6-0.5,0.6C38,49.7,37.9,49.7,37.9,49.7z M1.3,19.8L31,34.7
		c0.1,0.1,0.2,0.2,0.3,0.3l6,11.5V19.7l-36-18V19.8z"/>
</g>
</svg>
