<!-- Generator: Adobe Illustrator 19.2.0, SVG Export Plug-In  -->
<svg version="1.0"
	 xmlns="http://www.w3.org/2000/svg" xmlns:xlink="http://www.w3.org/1999/xlink" xmlns:a="http://ns.adobe.com/AdobeSVGViewerExtensions/3.0/"
	 x="0px" y="0px" width="47.7px" height="30.8px" viewBox="0 0 47.7 30.8" style="enable-background:new 0 0 47.7 30.8;"
	 xml:space="preserve">
<style type="text/css">
	.st0{fill:#FFFFFF;}
	.st1{fill:#7629F4;}
</style>
<defs>
</defs>
<g>
	<polyline class="st0" points="16,30.2 47,19.8 47,8 	"/>
	<path class="st1" d="M16,30.8c-0.3,0-0.5-0.2-0.6-0.4c-0.1-0.3,0.1-0.7,0.4-0.8l30.6-10.2V8c0-0.4,0.3-0.6,0.6-0.6s0.6,0.3,0.6,0.6
		v11.8c0,0.3-0.2,0.5-0.4,0.6L16.2,30.8C16.1,30.8,16,30.8,16,30.8z"/>
</g>
<path class="st1" d="M16,30.2C28.2,23.4,38.6,15.8,47,8c0,0-15.8-8.2-16-8C22.6,7.9,12.3,15.4,0,22.3"/>
</svg>
