<!-- Generator: Adobe Illustrator 19.2.0, SVG Export Plug-In  -->
<svg version="1.0"
	 xmlns="http://www.w3.org/2000/svg" xmlns:xlink="http://www.w3.org/1999/xlink" xmlns:a="http://ns.adobe.com/AdobeSVGViewerExtensions/3.0/"
	 x="0px" y="0px" width="73.6px" height="103.5px" viewBox="0 0 73.6 103.5" style="enable-background:new 0 0 73.6 103.5;"
	 xml:space="preserve">
<style type="text/css">
	.st0{fill:#7629F4;}
</style>
<defs>
</defs>
<path class="st0" d="M73.6,0.6c0-0.4-0.3-0.6-0.6-0.6c-0.4,0-0.6,0.3-0.7,0.6c0,0.2-0.5,15.9-9.6,36.2c-8.4,18.7-26,45.3-62.3,65.4
	c-0.3,0.2-0.4,0.5-0.3,0.8c0.1,0.2,0.3,0.4,0.6,0.4c0.1,0,0.1,0,0.2,0l5.6-3.2c32.9-19.9,49.4-44.9,57.4-62.9
	c4.7-10.5,7.1-19.8,8.4-26.5L73.6,0.6z"/>
</svg>
