<!-- Generator: Adobe Illustrator 19.2.0, SVG Export Plug-In  -->
<svg version="1.0"
	 xmlns="http://www.w3.org/2000/svg" xmlns:xlink="http://www.w3.org/1999/xlink" xmlns:a="http://ns.adobe.com/AdobeSVGViewerExtensions/3.0/"
	 x="0px" y="0px" width="67.9px" height="100.3px" viewBox="0 0 67.9 100.3" style="enable-background:new 0 0 67.9 100.3;"
	 xml:space="preserve">
<style type="text/css">
	.st0{fill:#7629F4;}
</style>
<defs>
</defs>
<path class="st0" d="M67.3,0c-0.4,0-0.6,0.3-0.7,0.6c0,0.2-0.5,15.9-9.6,36.2C49,54.6,32.7,79.5,0,99.1c0.2,0.3,0.4,0.6,0.5,1
	c0.1,0,0.2,0.1,0.3,0.1c0.1,0,0.2-0.1,0.3-0.1l-0.3,0.1c32.9-19.9,49.4-44.9,57.4-62.9c4.7-10.5,7.1-19.8,8.4-26.5l-0.3,67.5
	L66,78.5c0.3,0.3,0.5,0.7,0.7,1.1l0.5-0.2c0.3-0.1,0.4-0.3,0.4-0.6l0.3-78.2C67.9,0.3,67.6,0,67.3,0z"/>
</svg>
