<!-- Generator: Adobe Illustrator 19.2.1, SVG Export Plug-In  -->
<svg version="1.1"
	 xmlns="http://www.w3.org/2000/svg" xmlns:xlink="http://www.w3.org/1999/xlink" xmlns:a="http://ns.adobe.com/AdobeSVGViewerExtensions/3.0/"
	 x="0px" y="0px" width="92.4px" height="60.9px" viewBox="0 0 92.4 60.9" style="enable-background:new 0 0 92.4 60.9;"
	 xml:space="preserve">
<style type="text/css">
	.st0{fill:#7629F4;}
	.st1{fill:#FFFFFF;stroke:#7629F4;stroke-width:1.248;stroke-linecap:round;stroke-linejoin:round;stroke-miterlimit:10;}
	.st2{fill:#FFFFFF;stroke:#FFFFFF;stroke-width:12;stroke-linecap:round;stroke-linejoin:round;stroke-miterlimit:10;}
</style>
<defs>
</defs>
<path class="st0" d="M42.2,35.1l-10.9-1.6l10.1-3.3l0-0.2C38.7,17.7,31.2,6.1,22.1,1.8C10.3-3.9,0.5,4.4,0,20.3
	c-0.5,15.9,8.7,33.3,20.4,38.9c11.7,5.6,21.6-2.7,22-18.5c0-1.7,0-3.5-0.2-5.3L42.2,35.1z M20.9,44c-5.5-2.6-9.8-10.8-9.6-18.3
	c0.2-7.5,4.9-11.4,10.4-8.7c5.5,2.6,9.8,10.8,9.6,18.3C31,42.7,26.4,46.6,20.9,44z"/>
<path class="st1" d="M31.2,35.3C31,42.7,26.4,46.6,20.9,44c-5.5-2.6-9.8-10.8-9.6-18.3c0.2-7.5,4.9-11.4,10.4-8.7
	C27.1,19.6,31.4,27.8,31.2,35.3z"/>
<line class="st2" x1="21.2" y1="30.5" x2="86.4" y2="8.8"/>
</svg>
