<!-- Generator: Adobe Illustrator 19.2.1, SVG Export Plug-In  -->
<svg version="1.1"
	 xmlns="http://www.w3.org/2000/svg" xmlns:xlink="http://www.w3.org/1999/xlink" xmlns:a="http://ns.adobe.com/AdobeSVGViewerExtensions/3.0/"
	 x="0px" y="0px" width="119.2px" height="67.1px" viewBox="0 0 119.2 67.1" style="enable-background:new 0 0 119.2 67.1;"
	 xml:space="preserve">
<style type="text/css">
	.st0{fill:#7629F4;}
	.st1{fill:#FFFFFF;stroke:#7629F4;stroke-width:1.248;stroke-linecap:round;stroke-linejoin:round;stroke-miterlimit:10;}
	.st2{fill:#FFFFFF;stroke:#FFFFFF;stroke-width:12;stroke-linecap:round;stroke-linejoin:round;stroke-miterlimit:10;}
</style>
<defs>
</defs>
<path class="st0" d="M42.2,41.3l-10.9-1.6l10.1-3.3l0-0.2C38.7,23.8,31.2,12.3,22.1,7.9C10.3,2.3,0.5,10.6,0,26.5
	c-0.5,15.9,8.7,33.3,20.4,38.9c11.7,5.6,21.6-2.7,22-18.5c0-1.7,0-3.5-0.2-5.3L42.2,41.3z M20.9,50.1c-5.5-2.6-9.8-10.8-9.6-18.3
	c0.2-7.5,4.9-11.4,10.4-8.7c5.5,2.6,9.8,10.8,9.6,18.3C31,48.9,26.4,52.8,20.9,50.1z"/>
<path class="st1" d="M31.2,41.4c-0.2,7.5-4.9,11.4-10.4,8.7c-5.5-2.6-9.8-10.8-9.6-18.3c0.2-7.5,4.9-11.4,10.4-8.7
	C27.1,25.8,31.4,33.9,31.2,41.4z"/>
<line class="st2" x1="21.2" y1="36.6" x2="86.4" y2="14.9"/>
<line class="st2" x1="113.2" y1="6" x2="86.4" y2="14.9"/>
</svg>
