<!-- Generator: Adobe Illustrator 19.2.1, SVG Export Plug-In  -->
<svg version="1.1"
	 xmlns="http://www.w3.org/2000/svg" xmlns:xlink="http://www.w3.org/1999/xlink" xmlns:a="http://ns.adobe.com/AdobeSVGViewerExtensions/3.0/"
	 x="0px" y="0px" width="145.4px" height="98.1px" viewBox="0 0 145.4 98.1" style="enable-background:new 0 0 145.4 98.1;"
	 xml:space="preserve">
<style type="text/css">
	.st0{fill:#7629F4;}
	.st1{fill:none;stroke:#7629F4;stroke-width:1.248;stroke-linecap:round;stroke-linejoin:round;stroke-miterlimit:10;}
	.st2{fill:#FFFFFF;stroke:#7629F4;stroke-width:1.248;stroke-linecap:round;stroke-linejoin:round;stroke-miterlimit:10;}
	.st3{fill:#FFFFFF;stroke:#FFFFFF;stroke-width:12;stroke-linecap:round;stroke-linejoin:round;stroke-miterlimit:10;}
</style>
<defs>
</defs>
<path class="st0" d="M68.5,71.6L57.6,70l10.1-3.3l0-0.2C65,54.2,57.5,42.6,48.4,38.3c-11.7-5.6-21.6,2.7-22,18.5
	C25.9,72.7,35,90.1,46.7,95.7c11.7,5.6,21.6-2.7,22-18.5c0-1.7,0-3.5-0.2-5.3L68.5,71.6z M47.1,80.5c-5.5-2.6-9.8-10.8-9.6-18.3
	c0.2-7.5,4.9-11.4,10.4-8.7c5.5,2.6,9.8,10.8,9.6,18.3C57.3,79.2,52.7,83.1,47.1,80.5z"/>
<line class="st1" x1="62.8" y1="0.6" x2="21.3" y2="14.4"/>
<line class="st1" x1="42" y1="22.5" x2="0.6" y2="36.3"/>
<line class="st1" x1="143.6" y1="81.2" x2="117" y2="90.1"/>
<path class="st1" d="M68.6,71.9c0.2,1.8,0.2,3.5,0.2,5.3c-0.5,15.9-10.3,24.2-22,18.5c-11.7-5.6-20.8-23-20.4-38.9
	c0.5-15.9,10.3-24.2,22-18.5c9.1,4.4,16.7,15.9,19.4,28.3"/>
<path class="st2" d="M126.8,52.6c0.2,1.7,0.2,3.3,0.2,5c-0.3,10.5-4.7,17.6-11,19.7"/>
<path class="st2" d="M95.8,17.5c3.2-1,6.9-0.6,10.7,1.2c8,3.8,14.8,13.2,18.2,23.8"/>
<path class="st2" d="M57.5,71.8c-0.2,7.5-4.9,11.4-10.4,8.7c-5.5-2.6-9.8-10.8-9.6-18.3c0.2-7.5,4.9-11.4,10.4-8.7
	C53.4,56.1,57.7,64.3,57.5,71.8z"/>
<line class="st3" x1="47.5" y1="67" x2="112.7" y2="45.3"/>
<line class="st2" x1="53.4" y1="58.2" x2="85.6" y2="47.5"/>
<line class="st2" x1="37.6" y1="37" x2="96.2" y2="17.5"/>
<line class="st2" x1="58.3" y1="96.5" x2="117" y2="77"/>
<line class="st2" x1="57.5" y1="70" x2="68.6" y2="71.9"/>
<line class="st2" x1="115.7" y1="50.6" x2="126.7" y2="52.5"/>
<path class="st2" d="M105,54.2c-2.2-3.2-3.7-7.4-3.9-11.5"/>
<line class="st3" x1="139.4" y1="36.3" x2="112.7" y2="45.3"/>
<line class="st2" x1="115.9" y1="50.6" x2="92.2" y2="58.5"/>
<line class="st2" x1="121.9" y1="35.4" x2="97.9" y2="43.4"/>
<line class="st2" x1="57.5" y1="70" x2="86.2" y2="60.7"/>
<line class="st2" x1="68.5" y1="71.7" x2="126.8" y2="52.7"/>
</svg>
