<!-- Generator: Adobe Illustrator 19.2.1, SVG Export Plug-In  -->
<svg version="1.1"
	 xmlns="http://www.w3.org/2000/svg" xmlns:xlink="http://www.w3.org/1999/xlink" xmlns:a="http://ns.adobe.com/AdobeSVGViewerExtensions/3.0/"
	 x="0px" y="0px" width="130px" height="141.9px" viewBox="0 0 130 141.9" style="enable-background:new 0 0 130 141.9;"
	 xml:space="preserve">
<style type="text/css">
	.st0{fill:#7629F4;stroke:#7045F6;stroke-miterlimit:10;}
	.st1{fill:none;stroke:#7045F6;stroke-miterlimit:10;}
	.st2{fill:#FFFFFF;stroke:#7045F6;stroke-miterlimit:10;}
	.st3{fill:none;stroke:#FFFFFF;stroke-linecap:round;stroke-linejoin:round;stroke-miterlimit:10;}
</style>
<defs>
</defs>
<g>
	<path class="st0" d="M45.6,122.8L126.1,96l-0.1,0c2.1-0.9,3.5-3.5,3.5-7.2V23.1c0-6-3.6-12.6-7.9-14.8c-1.5-0.8-3-0.9-4.2-0.4"/>
	<line class="st1" x1="55.3" y1="28.6" x2="117.6" y2="7.8"/>
	<path class="st2" d="M28.9,26l76-25.3l-0.3,0.1c1.5-0.5,3.3-0.4,5.1,0.6c5.4,2.7,10.6,10.7,9.7,18L109.2,103c0,4.6-1.7,7.7-4.3,8.8
		l0.1,0l-87.9,29.2"/>
	<path class="st0" d="M1.3,119.5c-2.4,9.9,0.6,17.1,7.2,20.4c6.6,3.3,13.8,1.4,16.6-8.6l18.7-83.1c2-13.1-1.5-18.4-8-21.9
		c-4.7-2.6-13.7,0.5-15.8,10.1L1.3,119.5z"/>
	<line class="st3" x1="13.1" y1="125" x2="31.7" y2="41.9"/>
</g>
<polygon class="st2" points="96.4,67.6 99.6,66.5 99.6,43.9 96.4,45 "/>
<line class="st2" x1="99.6" y1="59" x2="96.4" y2="60"/>
</svg>
