<!-- Generator: Adobe Illustrator 19.2.1, SVG Export Plug-In  -->
<svg version="1.1"
	 xmlns="http://www.w3.org/2000/svg" xmlns:xlink="http://www.w3.org/1999/xlink" xmlns:a="http://ns.adobe.com/AdobeSVGViewerExtensions/3.0/"
	 x="0px" y="0px" width="369.5px" height="169.5px" viewBox="0 0 369.5 169.5" style="enable-background:new 0 0 369.5 169.5;"
	 xml:space="preserve">
<style type="text/css">
	.st0{fill:#F1F1F1;stroke:#7629F4;stroke-miterlimit:10;}
	.st1{fill:#F5F5F5;stroke:#7629F4;stroke-miterlimit:10;}
	.st2{fill:#FFFFFF;stroke:#7045F6;stroke-miterlimit:10;}
	.st3{fill:none;stroke:#7629F4;stroke-miterlimit:10;}
	.st4{fill:none;stroke:#7045F6;stroke-linecap:round;stroke-linejoin:round;stroke-miterlimit:10;}
	.st5{fill:none;stroke:#7045F6;stroke-miterlimit:10;}
	.st6{fill:#7629F4;stroke:#7629F4;stroke-linejoin:round;stroke-miterlimit:10;}
	.st7{fill:#F1F1F1;stroke:#7629F4;stroke-linecap:round;stroke-linejoin:round;stroke-miterlimit:10;}
	.st8{fill:#F5F5F5;stroke:#7629F4;stroke-linecap:round;stroke-linejoin:round;stroke-miterlimit:10;}
	.st9{fill:#7629F4;}
	.st10{fill:#7629F4;stroke:#F5F5F5;stroke-miterlimit:10;}
	.st11{fill:none;stroke:#F5F5F5;stroke-miterlimit:10;}
	.st12{fill:#7629F4;stroke:#F1F1F1;stroke-miterlimit:10;}
</style>
<defs>
</defs>
<line class="st0" x1="67.6" y1="121.4" x2="260.9" y2="56.9"/>
<g>
	<path class="st1" d="M73.5,157.3L199,123.6l-0.3,0c2.3-0.1,4.2-2.2,4.8-5.8c0.8-4.9-1.4-10.7-4.9-13c-1.3-0.8-2.6-1-3.7-0.7
		l0.5-0.1L72.9,120.5"/>
	<path class="st1" d="M195.4,104.1L40.8,119.5l0,0c2.4-0.2,5.1,0.4,7.7,2.1c8.7,5.6,14.3,20.3,12.3,32.9c-1.2,7.8-5,12.9-9.8,14.3
		l0,0l10.5-3.2l137.5-42"/>
	<path class="st2" d="M60.7,154.4c-1.9,12.4-10.5,18-19.2,12.4c-8.7-5.6-14.2-20.2-12.2-32.6c1.9-12.4,10.5-18,19.2-12.4
		C57.2,127.4,62.7,142,60.7,154.4z"/>
	<path class="st2" d="M55.6,151.1c-1.3,8.4-7.1,12.1-12.9,8.4c-5.8-3.7-9.5-13.6-8.2-21.9c1.3-8.4,7.1-12.1,12.9-8.4
		C53.2,132.9,56.9,142.7,55.6,151.1z"/>
</g>
<path class="st3" d="M102.5,143.5"/>
<path class="st3" d="M20.9,102.7"/>
<polygon class="st1" points="115.4,0.5 68.6,16.3 21,102.7 21,102.7 102.6,143.5 320.3,141.8 368.2,125.6 "/>
<line class="st0" x1="287.8" y1="34.1" x2="240.3" y2="49.9"/>
<line class="st0" x1="37" y1="147.6" x2="46.8" y2="144.3"/>
<line class="st1" x1="321.4" y1="141.5" x2="68.6" y2="16.4"/>
<path class="st4" d="M253.9,82.3"/>
<line class="st5" x1="283.6" y1="68.3" x2="283.6" y2="83.7"/>
<line class="st1" x1="21" y1="102.7" x2="102.6" y2="143.5"/>
<polyline class="st6" points="76.1,103.1 18.5,74.4 226,30.8 276.1,38 283.6,59.5 "/>
<polygon class="st7" points="283.6,59.5 76.1,103.1 58.1,139.1 76.1,144.7 283.6,75.5 "/>
<line class="st1" x1="121.6" y1="3.7" x2="74.8" y2="19.5"/>
<line class="st1" x1="352.3" y1="117.9" x2="305.5" y2="133.7"/>
<line class="st1" x1="362.7" y1="123" x2="316" y2="138.8"/>
<line class="st1" x1="132" y1="9" x2="85.3" y2="24.8"/>
<line class="st8" x1="181.1" y1="36.8" x2="147.2" y2="48.3"/>
<line class="st1" x1="183.3" y1="36.1" x2="199.8" y2="30.5"/>
<path class="st1" d="M202.2,31.8c-0.1,1.8-1.2,2.7-2.5,2.1c-1.3-0.6-2.4-2.6-2.3-4.4c0.1-1.8,1.2-2.7,2.5-2.1
	C201.3,28,202.3,30,202.2,31.8z"/>
<line class="st8" x1="293.5" y1="92.6" x2="259.6" y2="104.1"/>
<line class="st1" x1="295.7" y1="91.9" x2="312.2" y2="86.3"/>
<path class="st1" d="M314.6,87.5c-0.1,1.8-1.2,2.7-2.5,2.1c-1.3-0.6-2.4-2.6-2.3-4.4c0.1-1.8,1.2-2.7,2.5-2.1
	C313.6,83.8,314.6,85.7,314.6,87.5z"/>
<g>
	<g>
		<path class="st9" d="M108.5,116.7l-2.9,1v3.8c0.1-0.2,0.3-0.4,0.5-0.6c0.2-0.2,0.4-0.3,0.7-0.4c0.5-0.2,0.9-0.1,1.2,0.2
			s0.5,0.9,0.5,1.7v3.7c0,0.5-0.1,0.9-0.2,1.3c-0.1,0.4-0.3,0.8-0.5,1.1s-0.4,0.6-0.7,0.8c-0.3,0.2-0.5,0.4-0.8,0.5
			c-0.3,0.1-0.6,0.1-0.8,0.1c-0.3-0.1-0.5-0.2-0.7-0.4c-0.2-0.2-0.4-0.5-0.5-0.8c-0.1-0.3-0.2-0.7-0.2-1.2v-0.6l1.5-0.5v0.5
			c0,0.3,0.1,0.6,0.2,0.7s0.3,0.2,0.5,0.1c0.2-0.1,0.4-0.2,0.5-0.4c0.1-0.2,0.2-0.5,0.2-0.8v-3.3c0-0.3-0.1-0.5-0.2-0.7
			c-0.1-0.2-0.3-0.2-0.5-0.1c-0.1,0-0.2,0.1-0.3,0.2c-0.1,0.1-0.2,0.2-0.2,0.3c-0.1,0.1-0.1,0.2-0.1,0.3s-0.1,0.2-0.1,0.2l-1.3,0.4
			v-7.7l4.2-1.4V116.7z"/>
		<path class="st9" d="M109.7,114.4l2.1-0.7c0.8-0.3,1.5-0.2,1.9,0.3s0.7,1.3,0.7,2.5v6.7c0,1.3-0.2,2.4-0.7,3.2
			c-0.5,0.8-1.1,1.3-2,1.6l-2,0.7V114.4z M111.1,126.2l0.7-0.2c0.4-0.1,0.7-0.4,0.9-0.7c0.2-0.3,0.3-0.8,0.3-1.4V117
			c0-0.6-0.1-1-0.2-1.2s-0.5-0.3-0.9-0.2l-0.7,0.2V126.2z"/>
		<path class="st9" d="M115.8,112.4l2.1-0.7c0.5-0.2,0.9-0.2,1.2-0.1c0.3,0.1,0.6,0.3,0.8,0.5c0.2,0.3,0.4,0.6,0.4,1
			c0.1,0.4,0.1,0.8,0.1,1.3v0.5c0,0.4,0,0.7-0.1,1c0,0.3-0.1,0.5-0.2,0.8c-0.1,0.2-0.2,0.4-0.3,0.6c-0.1,0.2-0.3,0.4-0.4,0.6
			c0.3,0.1,0.6,0.4,0.8,0.8c0.2,0.4,0.2,1,0.2,1.7v0.8c0,1.3-0.2,2.3-0.6,3.1c-0.4,0.8-1.1,1.4-2.1,1.7l-2,0.7V112.4z M117.2,117.7
			l0.7-0.2c0.5-0.2,0.8-0.4,1-0.8c0.2-0.4,0.2-0.9,0.2-1.6c0-0.6-0.1-1.1-0.3-1.3c-0.2-0.3-0.5-0.3-1-0.1l-0.6,0.2V117.7z
			 M117.2,124.1l0.6-0.2c0.3-0.1,0.5-0.2,0.7-0.4c0.2-0.2,0.3-0.4,0.4-0.6c0.1-0.2,0.1-0.5,0.2-0.8c0-0.3,0-0.6,0-1
			c0-0.4,0-0.7,0-0.9c0-0.3-0.1-0.5-0.2-0.6c-0.1-0.1-0.2-0.2-0.4-0.3s-0.4,0-0.6,0.1l-0.6,0.2V124.1z"/>
	</g>
</g>
<polygon class="st6" points="76.1,103.1 18.5,74.4 128.7,33.3 186.3,62 "/>
<line class="st10" x1="157.5" y1="47.7" x2="101.9" y2="68.4"/>
<line class="st11" x1="186.3" y1="62" x2="202.2" y2="77.4"/>
<line class="st10" x1="186.3" y1="62" x2="76.1" y2="103.1"/>
<line class="st10" x1="123.3" y1="30.5" x2="186.3" y2="62"/>
<line class="st0" x1="148.7" y1="116.5" x2="283.6" y2="71.5"/>
<line class="st0" x1="205.7" y1="93.5" x2="283.6" y2="67.5"/>
<line class="st0" x1="238.4" y1="78.3" x2="283.6" y2="63.2"/>
<polyline class="st6" points="58.1,139.1 0.5,110.4 18.5,74.4 76.1,103.1 "/>
<polygon class="st12" points="54.7,133.5 7,109.8 21.9,80 69.6,103.7 "/>
<line class="st12" x1="30.9" y1="121.6" x2="45.7" y2="91.9"/>
<line class="st12" x1="18.5" y1="115.5" x2="33.4" y2="85.7"/>
<line class="st12" x1="43.2" y1="127.7" x2="58.1" y2="97.9"/>
<line class="st1" x1="102.6" y1="153.1" x2="320.3" y2="151.4"/>
</svg>
