<!-- Generator: Adobe Illustrator 19.2.1, SVG Export Plug-In  -->
<svg version="1.1"
	 xmlns="http://www.w3.org/2000/svg" xmlns:xlink="http://www.w3.org/1999/xlink" xmlns:a="http://ns.adobe.com/AdobeSVGViewerExtensions/3.0/"
	 x="0px" y="0px" width="294.2px" height="66px" viewBox="0 0 294.2 66" style="enable-background:new 0 0 294.2 66;"
	 xml:space="preserve">
<style type="text/css">
	.st0{fill:#FFFFFF;}
	.st1{fill:#F5F5F5;stroke:#7629F4;stroke-miterlimit:10;}
	.st2{fill:#FFFFFF;stroke:#7629F4;stroke-miterlimit:10;}
	.st3{fill:#FFFFFF;stroke:#7045F6;stroke-miterlimit:10;}
	.st4{fill:#F1F1F1;stroke:#7629F4;stroke-miterlimit:10;}
</style>
<defs>
</defs>
<g>
	
		<rect x="76.1" y="35.1" transform="matrix(1 -1.216941e-03 1.216941e-03 1 -5.077001e-02 0.2254)" class="st0" width="218.1" height="13.5"/>
	<g>
		<path class="st1" d="M45.1,53.8l125.5-33.7l-0.3,0c2.3-0.1,4.2-2.2,4.8-5.8c0.8-4.9-1.4-10.7-4.9-13c-1.3-0.8-2.6-1-3.7-0.7
			l0.5-0.1L44.5,16.9"/>
		<path class="st2" d="M167,0.5L12.4,15.9l0,0c2.4-0.2,5.1,0.4,7.7,2.1c8.7,5.6,14.3,20.3,12.3,32.9c-1.2,7.8-5,12.9-9.8,14.3l0,0
			L33.1,62l137.5-42"/>
		<path class="st3" d="M32.3,50.9c-1.9,12.4-10.5,18-19.2,12.4C4.4,57.7-1,43.1,0.9,30.7c1.9-12.4,10.5-18,19.2-12.4
			C28.7,23.8,34.2,38.4,32.3,50.9z"/>
		<path class="st3" d="M27.2,47.6c-1.3,8.4-7.1,12.1-12.9,8.4C8.4,52.2,4.7,42.3,6,34c1.3-8.4,7.1-12.1,12.9-8.4
			C24.8,29.4,28.4,39.2,27.2,47.6z"/>
	</g>
	<line class="st4" x1="8.5" y1="44" x2="18.4" y2="40.8"/>
	<line class="st1" x1="74.2" y1="49.6" x2="291.9" y2="47.9"/>
</g>
</svg>
