<!-- Generator: Adobe Illustrator 19.2.1, SVG Export Plug-In  -->
<svg version="1.1"
	 xmlns="http://www.w3.org/2000/svg" xmlns:xlink="http://www.w3.org/1999/xlink" xmlns:a="http://ns.adobe.com/AdobeSVGViewerExtensions/3.0/"
	 x="0px" y="0px" width="831px" height="333.4px" viewBox="0 0 831 333.4" style="enable-background:new 0 0 831 333.4;"
	 xml:space="preserve">
<style type="text/css">
	.st0{fill:#F1F1F1;}
	.st1{fill:#F1F1F1;stroke:#7629F4;stroke-miterlimit:10;}
	.st2{fill:#F5F5F5;stroke:#7629F4;stroke-miterlimit:10;}
	.st3{fill:#FFFFFF;stroke:#7045F6;stroke-miterlimit:10;}
	.st4{fill:#7629F4;stroke:#7045F6;stroke-miterlimit:10;}
	.st5{fill:none;stroke:#7045F6;stroke-miterlimit:10;}
	.st6{fill:none;stroke:#FFFFFF;stroke-linecap:round;stroke-linejoin:round;stroke-miterlimit:10;}
	.st7{fill:none;stroke:#7629F4;stroke-miterlimit:10;}
	.st8{fill:#F1F1F1;stroke:#7629F4;stroke-linecap:round;stroke-linejoin:round;stroke-miterlimit:10;}
	.st9{fill:none;stroke:#7045F6;stroke-linecap:round;stroke-linejoin:round;stroke-miterlimit:10;}
	.st10{fill:#7629F4;stroke:#7629F4;stroke-linejoin:round;stroke-miterlimit:10;}
	.st11{fill:#F5F5F5;stroke:#7629F4;stroke-linecap:round;stroke-linejoin:round;stroke-miterlimit:10;}
	.st12{fill:#FFFFFF;stroke:#7045F6;stroke-linecap:round;stroke-linejoin:round;stroke-miterlimit:10;}
	.st13{fill:#7629F4;}
	.st14{fill:#7629F4;stroke:#F5F5F5;stroke-miterlimit:10;}
	.st15{fill:none;stroke:#F5F5F5;stroke-miterlimit:10;}
	.st16{fill:#7629F4;stroke:#F1F1F1;stroke-miterlimit:10;}
</style>
<defs>
</defs>
<rect x="402.3" y="11" class="st0" width="16.2" height="81.7"/>
<rect x="420.3" y="98.1" class="st0" width="97.9" height="28.7"/>
<rect x="513.7" y="108.9" class="st0" width="32.3" height="29.6"/>
<rect x="536.2" y="162.8" class="st0" width="50.3" height="15.3"/>
<rect x="523.6" y="136.7" class="st0" width="24.2" height="35"/>
<rect x="615.2" y="140.3" class="st0" width="82.6" height="33.2"/>
<rect x="654.7" y="182.5" class="st0" width="43.1" height="79.9"/>
<rect x="688.9" y="111.6" class="st0" width="10.8" height="10.8"/>
<rect x="645.7" y="97.2" class="st0" width="9.9" height="8.1"/>
<rect x="533.5" y="139.4" class="st0" width="39.5" height="35.9"/>
<rect x="413.1" y="81.9" class="st0" width="16.2" height="25.1"/>
<rect x="296.4" y="27.1" class="st0" width="39.5" height="44.9"/>
<rect x="350.3" y="11.9" class="st0" width="21.6" height="16.2"/>
<rect x="253.3" y="138.5" class="st0" width="58.4" height="65.6"/>
<rect x="282" y="83.7" class="st0" width="17.1" height="40.4"/>
<rect x="267.6" y="181.6" class="st0" width="109.6" height="79"/>
<rect x="371.8" y="206.8" class="st0" width="210.2" height="39.5"/>
<rect x="377.2" y="248.1" class="st0" width="16.2" height="12.6"/>
<rect x="643.9" y="263.4" class="st0" width="26" height="41.3"/>
<rect x="660.1" y="320.8" class="st0" width="10.8" height="12.6"/>
<rect x="698.7" y="205.9" class="st0" width="15.3" height="29.6"/>
<rect x="716.7" y="125" class="st0" width="9" height="10.8"/>
<rect x="601.7" y="151.1" class="st0" width="17.1" height="16.2"/>
<rect x="462.5" y="68.5" class="st0" width="9.9" height="10.8"/>
<rect x="436.5" y="55" class="st0" width="11.7" height="11.7"/>
<rect x="449.1" y="83.7" class="st0" width="8.1" height="9.9"/>
<rect x="560.4" y="110.7" class="st0" width="9" height="9"/>
<rect x="336.8" y="14.6" class="st0" width="21.6" height="13.5"/>
<rect x="280.2" y="54.1" class="st0" width="15.3" height="11.7"/>
<rect x="267.6" y="123.2" class="st0" width="21.6" height="23.4"/>
<rect x="252.4" y="97.2" class="st0" width="11.7" height="10.8"/>
<rect x="237.1" y="139.4" class="st0" width="18" height="12.6"/>
<rect x="240.7" y="250.8" class="st0" width="26" height="10.8"/>
<rect x="225.4" y="221.1" class="st0" width="14.4" height="10.8"/>
<rect x="169.7" y="193.3" class="st0" width="22.5" height="12.6"/>
<rect x="169.7" y="222.9" class="st0" width="13.5" height="12.6"/>
<rect x="279.3" y="264.2" class="st0" width="14.4" height="10.8"/>
<rect x="253.3" y="279.5" class="st0" width="9.9" height="12.6"/>
<rect x="225.4" y="305.6" class="st0" width="13.5" height="11.7"/>
<rect x="169.7" y="278.6" class="st0" width="9.9" height="10.8"/>
<rect x="394.3" y="264.2" class="st0" width="35.9" height="12.6"/>
<rect x="462.5" y="249" class="st0" width="28.7" height="14.4"/>
<rect x="458.9" y="293" class="st0" width="18.9" height="13.5"/>
<rect x="505.6" y="280.4" class="st0" width="9" height="10.8"/>
<rect x="588.3" y="277.7" class="st0" width="42.2" height="10.8"/>
<rect x="533.5" y="248.1" class="st0" width="28.7" height="13.5"/>
<rect x="391.6" y="293.9" class="st0" width="13.5" height="10.8"/>
<rect x="269.4" y="265.1" class="st0" width="6.3" height="8.1"/>
<rect x="254.2" y="238.2" class="st0" width="14.4" height="14.4"/>
<rect x="112.2" y="223.8" class="st0" width="12.6" height="9.9"/>
<rect x="503.8" y="67.6" class="st0" width="12.6" height="11.7"/>
<rect x="590.1" y="124.1" class="st0" width="9.9" height="10.8"/>
<rect x="421.2" y="248.1" class="st0" width="25.1" height="13.5"/>
<rect x="462.5" y="263.4" class="st0" width="11.7" height="13.5"/>
<rect x="420.3" y="277.7" class="st0" width="13.5" height="12.6"/>
<rect x="368.2" y="279.5" class="st0" width="10.8" height="10.8"/>
<rect x="335.9" y="292.1" class="st0" width="12.6" height="11.7"/>
<rect x="308.9" y="305.6" class="st0" width="11.7" height="13.5"/>
<rect x="226.8" y="238" class="st0" width="11.4" height="9.6"/>
<rect x="254.3" y="224.9" class="st0" width="13.5" height="10.5"/>
<rect x="209.3" y="209.6" class="st0" width="12.2" height="9.2"/>
<rect x="141.2" y="209.6" class="st0" width="13.1" height="9.6"/>
<rect x="67.8" y="209.1" class="st0" width="11.4" height="10.5"/>
<rect x="141.2" y="265" class="st0" width="9.6" height="8.7"/>
<rect x="168.7" y="237.5" class="st0" width="24.5" height="9.6"/>
<rect x="212.8" y="225.7" class="st0" width="12.2" height="8.7"/>
<rect x="169.6" y="308.7" class="st0" width="10" height="8.7"/>
<rect x="97.1" y="265.9" class="st0" width="12.2" height="10"/>
<rect x="44.7" y="294.3" class="st0" width="9.2" height="8.7"/>
<rect x="297.1" y="263.3" class="st0" width="14" height="12.2"/>
<rect x="351.3" y="265" class="st0" width="12.2" height="11.4"/>
<rect x="280.9" y="294.3" class="st0" width="11.4" height="9.2"/>
<rect x="239" y="167.1" class="st0" width="27.9" height="52.5"/>
<rect x="225" y="181" class="st0" width="13" height="12.1"/>
<rect x="225.5" y="208.9" class="st0" width="13" height="11.2"/>
<rect x="198.1" y="168.5" class="st0" width="10.2" height="8.8"/>
<rect x="211.1" y="140.6" class="st0" width="11.6" height="8.8"/>
<rect x="242.7" y="84.8" class="st0" width="7.4" height="7.4"/>
<rect x="184.1" y="82.9" class="st0" width="10.2" height="9.3"/>
<rect x="521" y="42.5" class="st0" width="8.6" height="8.4"/>
<rect x="561.5" y="27.1" class="st0" width="11.1" height="10.3"/>
<rect x="575" y="27.3" class="st0" width="10.8" height="10"/>
<rect x="745.5" y="98" class="st0" width="24.6" height="10"/>
<rect x="784.9" y="98.8" class="st0" width="13.2" height="8.1"/>
<rect x="758.4" y="112.3" class="st0" width="24.8" height="8.1"/>
<rect x="266.6" y="111.9" class="st0" width="19.3" height="9"/>
<rect x="225.1" y="154.7" class="st0" width="30.4" height="10.4"/>
<rect x="195.4" y="265.9" class="st0" width="77.3" height="8.3"/>
<rect x="212" y="252.1" class="st0" width="11" height="9"/>
<rect x="227.2" y="247.9" class="st0" width="13.8" height="14.5"/>
<rect x="223.1" y="276.9" class="st0" width="9.7" height="15.2"/>
<rect x="178.9" y="224.4" class="st0" width="18.6" height="9"/>
<rect x="211.3" y="195.4" class="st0" width="11.7" height="10.4"/>
<rect x="193.2" y="224.4" class="st0" width="16.1" height="22.7"/>
<rect x="128.4" y="293.5" class="st0" width="11" height="9.7"/>
<rect x="84.9" y="319.7" class="st0" width="11" height="11"/>
<rect x="127.8" y="238.9" class="st0" width="35.9" height="21.4"/>
<rect x="157.4" y="222.9" class="st0" width="12.3" height="11.2"/>
<rect x="167.8" y="247.9" class="st0" width="14.5" height="13.1"/>
<rect x="254.1" y="294.9" class="st0" width="11" height="10.4"/>
<rect x="281.7" y="279" class="st0" width="11" height="9.7"/>
<rect x="263.1" y="292.1" class="st0" width="19.3" height="12.4"/>
<rect x="311.4" y="277.6" class="st0" width="24.4" height="14.5"/>
<rect x="358.4" y="261.7" class="st0" width="17.3" height="11.7"/>
<rect x="323.2" y="264.5" class="st0" width="11" height="13.8"/>
<rect x="169.2" y="263.1" class="st0" width="27.6" height="12.4"/>
<rect x="99.4" y="295.6" class="st0" width="11.7" height="8.3"/>
<rect x="55.9" y="264.5" class="st0" width="13.1" height="13.1"/>
<rect y="265.9" class="st0" width="14.5" height="12.4"/>
<rect x="547.6" y="96" class="st0" width="11.7" height="11"/>
<rect x="660.2" y="125.7" class="st0" width="11" height="11"/>
<rect x="375.7" class="st0" width="27.6" height="10.4"/>
<rect x="419.9" y="26.9" class="st0" width="12.4" height="24.9"/>
<rect x="450.2" y="14.5" class="st0" width="11" height="10.4"/>
<rect x="351.5" class="st0" width="11" height="10.4"/>
<rect x="558.7" y="278.3" class="st0" width="22.1" height="9"/>
<rect x="491" y="252.1" class="st0" width="26.9" height="9.7"/>
<rect x="561.4" y="306.6" class="st0" width="11" height="11.7"/>
<rect x="534.5" y="294.2" class="st0" width="10.4" height="9.7"/>
<rect x="475.1" y="292.8" class="st0" width="11.7" height="10.4"/>
<rect x="393.6" y="321.1" class="st0" width="12.4" height="9.7"/>
<line class="st1" x1="319.3" y1="203.1" x2="512.6" y2="138.6"/>
<g>
	<path class="st2" d="M325.2,239l125.5-33.7l-0.3,0c2.3-0.1,4.2-2.2,4.8-5.8c0.8-4.9-1.4-10.7-4.9-13c-1.3-0.8-2.6-1-3.7-0.7
		l0.5-0.1l-122.5,16.4"/>
	<path class="st2" d="M447.1,185.8l-154.6,15.4l0,0c2.4-0.2,5.1,0.4,7.7,2.1c8.7,5.6,14.3,20.3,12.3,32.9c-1.2,7.8-5,12.9-9.8,14.3
		l0,0l10.5-3.2l137.5-42"/>
	<path class="st3" d="M312.4,236.1c-1.9,12.4-10.5,18-19.2,12.4c-8.7-5.6-14.2-20.2-12.2-32.6c1.9-12.4,10.5-18,19.2-12.4
		C308.9,209.1,314.4,223.7,312.4,236.1z"/>
	<path class="st3" d="M307.3,232.8c-1.3,8.4-7.1,12.1-12.9,8.4c-5.8-3.7-9.5-13.6-8.2-21.9c1.3-8.4,7.1-12.1,12.9-8.4
		C304.9,214.6,308.6,224.4,307.3,232.8z"/>
</g>
<g>
	<path class="st4" d="M331.4,131.4l80.4-26.8l-0.1,0c2.1-0.9,3.5-3.5,3.5-7.2V31.8c0-6-3.6-12.6-7.9-14.8c-1.5-0.8-3-0.9-4.2-0.4"/>
	<line class="st5" x1="341.1" y1="37.2" x2="403.3" y2="16.5"/>
	<path class="st3" d="M314.7,34.7l76-25.3l-0.3,0.1c1.5-0.5,3.3-0.4,5.1,0.6c5.4,2.7,10.6,10.7,9.7,18l-10.3,83.6
		c0,4.6-1.7,7.7-4.3,8.8l0.1,0l-87.9,29.2"/>
	<path class="st4" d="M287.1,128.2c-2.4,9.9,0.6,17.1,7.2,20.4c6.6,3.3,13.8,1.4,16.6-8.6l18.7-83.1c2-13.1-1.5-18.4-8-21.9
		c-4.7-2.6-13.7,0.5-15.8,10.1L287.1,128.2z"/>
	<line class="st6" x1="298.8" y1="133.6" x2="317.5" y2="50.6"/>
</g>
<path class="st7" d="M354.2,225.2"/>
<path class="st7" d="M272.6,184.4"/>
<polygon class="st2" points="367.1,82.2 320.3,98 272.7,184.4 272.7,184.4 354.3,225.2 572,223.5 619.9,207.3 "/>
<line class="st1" x1="539.5" y1="115.8" x2="492" y2="131.6"/>
<line class="st8" x1="283.1" y1="75.8" x2="179.9" y2="110.3"/>
<line class="st1" x1="280.5" y1="232" x2="267.2" y2="236.5"/>
<line class="st8" x1="255.8" y1="218.3" x2="152.5" y2="252.7"/>
<line class="st1" x1="288.7" y1="229.3" x2="298.5" y2="226"/>
<line class="st1" x1="550.2" y1="271.9" x2="446.9" y2="306.3"/>
<line class="st1" x1="396.1" y1="257.4" x2="318.5" y2="283.3"/>
<line class="st1" x1="788.7" y1="89.6" x2="741.7" y2="105.3"/>
<line class="st1" x1="605.6" y1="20" x2="512.5" y2="51.1"/>
<line class="st1" x1="156.8" y1="244.1" x2="123.1" y2="255.3"/>
<line class="st1" x1="830.8" y1="89.8" x2="765.1" y2="111.7"/>
<line class="st2" x1="573.1" y1="223.2" x2="320.3" y2="98.1"/>
<path class="st9" d="M505.6,164"/>
<line class="st5" x1="535.3" y1="150" x2="535.3" y2="165.4"/>
<line class="st2" x1="272.7" y1="184.4" x2="354.3" y2="225.2"/>
<polyline class="st10" points="327.8,184.8 270.2,156.1 477.7,112.5 527.8,119.7 535.3,141.2 "/>
<polygon class="st8" points="535.3,141.2 327.8,184.8 309.8,220.8 327.8,226.4 535.3,157.2 "/>
<line class="st2" x1="373.3" y1="85.4" x2="326.5" y2="101.2"/>
<line class="st2" x1="604" y1="199.6" x2="557.2" y2="215.4"/>
<line class="st2" x1="614.4" y1="204.7" x2="567.7" y2="220.5"/>
<line class="st2" x1="383.7" y1="90.7" x2="337" y2="106.5"/>
<line class="st11" x1="432.8" y1="118.5" x2="399" y2="130"/>
<line class="st2" x1="435" y1="117.8" x2="451.5" y2="112.2"/>
<path class="st2" d="M453.9,113.5c-0.1,1.8-1.2,2.7-2.5,2.1c-1.3-0.6-2.4-2.6-2.3-4.4c0.1-1.8,1.2-2.7,2.5-2.1
	C453,109.7,454,111.7,453.9,113.5z"/>
<line class="st11" x1="545.2" y1="174.3" x2="511.3" y2="185.8"/>
<line class="st2" x1="547.4" y1="173.6" x2="563.9" y2="168"/>
<path class="st2" d="M566.3,169.2c-0.1,1.8-1.2,2.7-2.5,2.1c-1.3-0.6-2.4-2.6-2.3-4.4c0.1-1.8,1.2-2.7,2.5-2.1
	C565.3,165.5,566.4,167.4,566.3,169.2z"/>
<g>
	<path class="st4" d="M606.9,268.7l80.4-26.8l-0.1,0c2.1-0.9,3.5-3.5,3.5-7.2V169c0-6-3.6-12.6-7.9-14.8c-1.5-0.8-3-0.9-4.2-0.5"/>
	<line class="st5" x1="616.6" y1="174.4" x2="678.9" y2="153.7"/>
	<path class="st3" d="M590.2,171.9l76-25.3l-0.3,0.1c1.5-0.5,3.3-0.4,5.1,0.5c5.4,2.7,10.6,10.7,9.7,18l-10.3,83.6
		c0,4.6-1.7,7.7-4.3,8.8l0.1,0l-87.9,29.2"/>
	<path class="st4" d="M562.6,265.4c-2.4,9.9,0.6,17.1,7.2,20.4c6.6,3.3,13.8,1.4,16.6-8.6l18.7-83.1c2-13.1-1.5-18.4-8-21.9
		c-4.7-2.6-13.7,0.5-15.8,10.1L562.6,265.4z"/>
	<line class="st6" x1="574.4" y1="270.9" x2="593" y2="187.8"/>
</g>
<polygon class="st12" points="616.6,254.2 648.3,291.1 663,286.3 640.4,246.2 "/>
<g>
	<g>
		<path class="st13" d="M360.2,198.4l-2.9,1v3.8c0.1-0.2,0.3-0.4,0.5-0.6c0.2-0.2,0.4-0.3,0.7-0.4c0.5-0.2,0.9-0.1,1.2,0.2
			s0.5,0.9,0.5,1.7v3.7c0,0.5-0.1,0.9-0.2,1.3c-0.1,0.4-0.3,0.8-0.5,1.1s-0.4,0.6-0.7,0.8c-0.3,0.2-0.5,0.4-0.8,0.5
			c-0.3,0.1-0.6,0.1-0.8,0.1c-0.3-0.1-0.5-0.2-0.7-0.4c-0.2-0.2-0.4-0.5-0.5-0.8c-0.1-0.3-0.2-0.7-0.2-1.2v-0.6l1.5-0.5v0.5
			c0,0.3,0.1,0.6,0.2,0.7s0.3,0.2,0.5,0.1c0.2-0.1,0.4-0.2,0.5-0.4c0.1-0.2,0.2-0.5,0.2-0.8v-3.3c0-0.3-0.1-0.5-0.2-0.7
			c-0.1-0.2-0.3-0.2-0.5-0.1c-0.1,0-0.2,0.1-0.3,0.2c-0.1,0.1-0.2,0.2-0.2,0.3c-0.1,0.1-0.1,0.2-0.1,0.3s-0.1,0.2-0.1,0.2l-1.3,0.4
			v-7.7l4.2-1.4V198.4z"/>
		<path class="st13" d="M361.4,196.1l2.1-0.7c0.8-0.3,1.5-0.2,1.9,0.3s0.7,1.3,0.7,2.5v6.7c0,1.3-0.2,2.4-0.7,3.2
			c-0.5,0.8-1.1,1.3-2,1.6l-2,0.7V196.1z M362.9,207.9l0.7-0.2c0.4-0.1,0.7-0.4,0.9-0.7c0.2-0.3,0.3-0.8,0.3-1.4v-6.9
			c0-0.6-0.1-1-0.2-1.2s-0.5-0.3-0.9-0.2l-0.7,0.2V207.9z"/>
		<path class="st13" d="M367.5,194.1l2.1-0.7c0.5-0.2,0.9-0.2,1.2-0.1c0.3,0.1,0.6,0.3,0.8,0.5c0.2,0.3,0.4,0.6,0.4,1
			c0.1,0.4,0.1,0.8,0.1,1.3v0.5c0,0.4,0,0.7-0.1,1c0,0.3-0.1,0.5-0.2,0.8c-0.1,0.2-0.2,0.4-0.3,0.6c-0.1,0.2-0.3,0.4-0.4,0.6
			c0.3,0.1,0.6,0.4,0.8,0.8c0.2,0.4,0.2,1,0.2,1.7v0.8c0,1.3-0.2,2.3-0.6,3.1c-0.4,0.8-1.1,1.4-2.1,1.7l-2,0.7V194.1z M368.9,199.4
			l0.7-0.2c0.5-0.2,0.8-0.4,1-0.8c0.2-0.4,0.2-0.9,0.2-1.6c0-0.6-0.1-1.1-0.3-1.3c-0.2-0.3-0.5-0.3-1-0.1l-0.6,0.2V199.4z
			 M368.9,205.8l0.6-0.2c0.3-0.1,0.5-0.2,0.7-0.4c0.2-0.2,0.3-0.4,0.4-0.6c0.1-0.2,0.1-0.5,0.2-0.8c0-0.3,0-0.6,0-1
			c0-0.4,0-0.7,0-0.9c0-0.3-0.1-0.5-0.2-0.6c-0.1-0.1-0.2-0.2-0.4-0.3s-0.4,0-0.6,0.1l-0.6,0.2V205.8z"/>
	</g>
</g>
<polygon class="st3" points="382.1,76.2 385.3,75.2 385.3,52.5 382.1,53.6 "/>
<line class="st3" x1="385.3" y1="67.6" x2="382.1" y2="68.7"/>
<polygon class="st10" points="327.8,184.8 270.2,156.1 380.5,115 438.1,143.7 "/>
<line class="st14" x1="409.2" y1="129.4" x2="353.6" y2="150.1"/>
<line class="st15" x1="438.1" y1="143.7" x2="453.9" y2="159.1"/>
<line class="st14" x1="438.1" y1="143.7" x2="327.8" y2="184.8"/>
<line class="st14" x1="375" y1="112.2" x2="438.1" y2="143.7"/>
<line class="st1" x1="400.4" y1="198.2" x2="535.3" y2="153.2"/>
<line class="st1" x1="457.4" y1="175.2" x2="535.3" y2="149.2"/>
<line class="st1" x1="490.1" y1="160" x2="535.3" y2="144.9"/>
<polyline class="st10" points="309.8,220.8 252.2,192.1 270.2,156.1 327.8,184.8 "/>
<polygon class="st16" points="306.4,215.2 258.7,191.5 273.6,161.7 321.3,185.4 "/>
<line class="st16" x1="282.6" y1="203.3" x2="297.5" y2="173.6"/>
<line class="st16" x1="270.2" y1="197.2" x2="285.1" y2="167.4"/>
<line class="st16" x1="294.9" y1="209.4" x2="309.8" y2="179.6"/>
<line class="st2" x1="354.3" y1="234.8" x2="572" y2="233.1"/>
</svg>
