<!-- Generator: Adobe Illustrator 19.2.1, SVG Export Plug-In  -->
<svg version="1.1"
	 xmlns="http://www.w3.org/2000/svg" xmlns:xlink="http://www.w3.org/1999/xlink" xmlns:a="http://ns.adobe.com/AdobeSVGViewerExtensions/3.0/"
	 x="0px" y="0px" width="226.5px" height="86.1px" viewBox="0 0 226.5 86.1" style="enable-background:new 0 0 226.5 86.1;"
	 xml:space="preserve">
<style type="text/css">
	.st0{fill:#F1F1F1;stroke:#7629F4;stroke-miterlimit:10;}
	.st1{fill:none;stroke:#7045F6;stroke-miterlimit:10;}
	.st2{fill:#FFFFFF;stroke:#7629F4;stroke-linecap:round;stroke-linejoin:round;stroke-miterlimit:10;}
	.st3{fill:#7629F4;}
</style>
<defs>
</defs>
<line class="st0" x1="184.1" y1="6.6" x2="137" y2="22.3"/>
<g>
	<line class="st1" x1="226" y1="9.2" x2="226" y2="24.7"/>
	<polygon class="st2" points="226,0.5 18.5,44.1 0.5,80.1 18.5,85.6 226,16.5 	"/>
	<g>
		<g>
			<path class="st3" d="M50.9,57.7l-2.9,1v3.8c0.1-0.2,0.3-0.4,0.5-0.6c0.2-0.2,0.4-0.3,0.7-0.4c0.5-0.2,0.9-0.1,1.2,0.2
				s0.5,0.9,0.5,1.7V67c0,0.5-0.1,0.9-0.2,1.3c-0.1,0.4-0.3,0.8-0.5,1.1c-0.2,0.3-0.4,0.6-0.7,0.8c-0.3,0.2-0.5,0.4-0.8,0.5
				c-0.3,0.1-0.6,0.1-0.8,0.1s-0.5-0.2-0.7-0.4c-0.2-0.2-0.4-0.5-0.5-0.8s-0.2-0.7-0.2-1.2v-0.6l1.5-0.5v0.5c0,0.3,0.1,0.6,0.2,0.7
				s0.3,0.2,0.5,0.1c0.2-0.1,0.4-0.2,0.5-0.4c0.1-0.2,0.2-0.5,0.2-0.8v-3.3c0-0.3-0.1-0.5-0.2-0.7c-0.1-0.2-0.3-0.2-0.5-0.1
				c-0.1,0-0.2,0.1-0.3,0.2c-0.1,0.1-0.2,0.2-0.2,0.3c-0.1,0.1-0.1,0.2-0.1,0.3s-0.1,0.2-0.1,0.2l-1.3,0.4v-7.7l4.2-1.4V57.7z"/>
			<path class="st3" d="M52.1,55.4l2.1-0.7c0.8-0.3,1.5-0.2,1.9,0.3s0.7,1.3,0.7,2.5v6.7c0,1.3-0.2,2.4-0.7,3.2
				c-0.5,0.8-1.1,1.3-2,1.6l-2,0.7V55.4z M53.5,67.2l0.7-0.2c0.4-0.1,0.7-0.4,0.9-0.7c0.2-0.3,0.3-0.8,0.3-1.4V58
				c0-0.6-0.1-1-0.2-1.2s-0.5-0.3-0.9-0.2l-0.7,0.2V67.2z"/>
			<path class="st3" d="M58.2,53.3l2.1-0.7c0.5-0.2,0.9-0.2,1.2-0.1c0.3,0.1,0.6,0.3,0.8,0.5c0.2,0.3,0.4,0.6,0.4,1
				c0.1,0.4,0.1,0.8,0.1,1.3v0.5c0,0.4,0,0.7-0.1,1c0,0.3-0.1,0.5-0.2,0.8c-0.1,0.2-0.2,0.4-0.3,0.6c-0.1,0.2-0.3,0.4-0.4,0.6
				c0.3,0.1,0.6,0.4,0.8,0.8c0.2,0.4,0.2,1,0.2,1.7v0.8c0,1.3-0.2,2.3-0.6,3.1c-0.4,0.8-1.1,1.4-2.1,1.7l-2,0.7V53.3z M59.6,58.7
				l0.7-0.2c0.5-0.2,0.8-0.4,1-0.8c0.2-0.4,0.2-0.9,0.2-1.6c0-0.6-0.1-1.1-0.3-1.3c-0.2-0.3-0.5-0.3-1-0.1l-0.6,0.2V58.7z M59.6,65
				l0.6-0.2c0.3-0.1,0.5-0.2,0.7-0.4c0.2-0.2,0.3-0.4,0.4-0.6c0.1-0.2,0.1-0.5,0.2-0.8c0-0.3,0-0.6,0-1c0-0.4,0-0.7,0-0.9
				s-0.1-0.5-0.2-0.6c-0.1-0.2-0.2-0.2-0.4-0.3s-0.4,0-0.6,0.1l-0.6,0.2V65z"/>
		</g>
	</g>
	<line class="st0" x1="91.1" y1="57.5" x2="226" y2="12.5"/>
	<line class="st0" x1="148.1" y1="34.4" x2="226" y2="8.5"/>
	<line class="st0" x1="180.8" y1="19.2" x2="226" y2="4.2"/>
</g>
</svg>
