<!-- Generator: Adobe Illustrator 19.2.1, SVG Export Plug-In  -->
<svg version="1.1"
	 xmlns="http://www.w3.org/2000/svg" xmlns:xlink="http://www.w3.org/1999/xlink" xmlns:a="http://ns.adobe.com/AdobeSVGViewerExtensions/3.0/"
	 x="0px" y="0px" width="798.1px" height="347.9px" viewBox="0 0 798.1 347.9" style="enable-background:new 0 0 798.1 347.9;"
	 xml:space="preserve">
<style type="text/css">
	.st0{fill:#F2F2F2;}
</style>
<defs>
</defs>
<g>
	<polygon class="st0" points="615.2,165.6 601.7,165.6 601.7,181.8 615.2,181.8 615.2,188 697.8,188 697.8,154.8 615.2,154.8 	"/>
	<rect x="654.7" y="197" class="st0" width="43.1" height="79.9"/>
	<rect x="688.9" y="126.1" class="st0" width="10.8" height="10.8"/>
	<rect x="645.7" y="111.7" class="st0" width="9.9" height="8.1"/>
	<polygon class="st0" points="573,153.9 547.8,153.9 547.8,151.2 546.1,151.2 546.1,123.4 518.2,123.4 518.2,112.6 429.3,112.6 
		429.3,96.4 418.5,96.4 418.5,25.5 403.3,25.5 403.3,15 373.9,15 373.9,26.4 350.3,26.4 350.3,29.1 336.8,29.1 336.8,41.6 
		296.4,41.6 296.4,98.2 282,98.2 282,126.4 266.6,126.4 266.6,135.4 282,135.4 282,137.7 267.6,137.7 267.6,153 253.3,153 
		253.3,153.9 237.1,153.9 237.1,166.5 253.3,166.5 253.3,169.2 225.1,169.2 225.1,179.5 253.3,179.5 253.3,181.6 239,181.6 
		239,234.1 266.9,234.1 266.9,218.6 267.6,218.6 267.6,239.4 254.3,239.4 254.3,249.9 267.6,249.9 267.6,252.7 254.2,252.7 
		254.2,265.3 241,265.3 241,262.4 227.2,262.4 227.2,276.9 241,276.9 241,276.1 266.7,276.1 266.7,267.1 267.6,267.1 267.6,275.2 
		377.2,275.2 377.2,275.2 393.4,275.2 393.4,262.6 377.2,262.6 377.2,260.8 582,260.8 582,192.5 586.5,192.5 586.5,177.3 573,177.3 
			"/>
	<rect x="643.9" y="277.9" class="st0" width="26" height="41.3"/>
	<rect x="660.1" y="335.3" class="st0" width="10.8" height="12.6"/>
	<rect x="698.7" y="220.4" class="st0" width="15.3" height="29.6"/>
	<rect x="716.7" y="139.5" class="st0" width="9" height="10.8"/>
	<rect x="462.5" y="83" class="st0" width="9.9" height="10.8"/>
	<rect x="436.5" y="69.5" class="st0" width="11.7" height="11.7"/>
	<rect x="449.1" y="98.2" class="st0" width="8.1" height="9.9"/>
	<rect x="560.4" y="125.2" class="st0" width="9" height="9"/>
	<rect x="365.5" y="0.3" class="st0" width="10.8" height="9"/>
	<rect x="280.2" y="68.6" class="st0" width="15.3" height="11.7"/>
	<rect x="252.4" y="111.7" class="st0" width="11.7" height="10.8"/>
	<rect x="225.4" y="235.6" class="st0" width="14.4" height="10.8"/>
	<rect x="169.7" y="207.8" class="st0" width="22.5" height="12.6"/>
	<polygon class="st0" points="169.7,250 183.2,250 183.2,247.9 193.2,247.9 193.2,252 168.7,252 168.7,261.6 193.2,261.6 
		209.2,261.6 209.2,238.9 197.5,238.9 193.2,238.9 183.2,238.9 183.2,237.4 169.7,237.4 157.4,237.4 157.4,248.6 169.7,248.6 	"/>
	<rect x="279.3" y="278.8" class="st0" width="14.4" height="10.8"/>
	<rect x="253.3" y="294" class="st0" width="9.9" height="12.6"/>
	<rect x="225.4" y="320.1" class="st0" width="13.5" height="11.7"/>
	<rect x="169.7" y="293.1" class="st0" width="9.9" height="10.8"/>
	<rect x="394.3" y="278.8" class="st0" width="35.9" height="12.6"/>
	<polygon class="st0" points="491.3,263.5 462.5,263.5 462.5,277.9 462.5,291.3 474.2,291.3 474.2,277.9 491.3,277.9 491.3,276.2 
		517.9,276.2 517.9,266.6 491.3,266.6 	"/>
	<rect x="505.6" y="294.9" class="st0" width="9" height="10.8"/>
	<rect x="588.3" y="292.2" class="st0" width="42.2" height="10.8"/>
	<rect x="533.5" y="262.6" class="st0" width="28.7" height="13.5"/>
	<rect x="391.6" y="308.4" class="st0" width="13.5" height="10.8"/>
	<rect x="112.2" y="238.3" class="st0" width="12.6" height="9.9"/>
	<rect x="503.8" y="82.1" class="st0" width="12.6" height="11.7"/>
	<rect x="590.1" y="138.6" class="st0" width="9.9" height="10.8"/>
	<rect x="421.2" y="262.6" class="st0" width="25.1" height="13.5"/>
	<rect x="420.3" y="292.2" class="st0" width="13.5" height="12.6"/>
	<rect x="368.2" y="294" class="st0" width="10.8" height="10.8"/>
	<rect x="335.9" y="306.6" class="st0" width="12.6" height="11.7"/>
	<rect x="308.9" y="320.1" class="st0" width="11.7" height="13.5"/>
	<rect x="226.8" y="252.5" class="st0" width="11.4" height="9.6"/>
	<rect x="209.3" y="224.1" class="st0" width="12.2" height="9.2"/>
	<rect x="141.2" y="224.1" class="st0" width="13.1" height="9.6"/>
	<rect x="67.8" y="223.6" class="st0" width="11.4" height="10.5"/>
	<rect x="141.2" y="279.5" class="st0" width="9.6" height="8.7"/>
	<rect x="212.8" y="240.2" class="st0" width="12.2" height="8.7"/>
	<rect x="169.6" y="323.2" class="st0" width="10" height="8.7"/>
	<rect x="97.1" y="280.4" class="st0" width="12.2" height="10"/>
	<rect x="44.7" y="308.8" class="st0" width="9.2" height="8.7"/>
	<rect x="297.1" y="277.8" class="st0" width="14" height="12.2"/>
	<rect x="225" y="195.5" class="st0" width="13" height="12.1"/>
	<rect x="225.5" y="223.4" class="st0" width="13" height="11.2"/>
	<rect x="198.1" y="183" class="st0" width="10.2" height="8.8"/>
	<rect x="211.1" y="155.1" class="st0" width="11.6" height="8.8"/>
	<rect x="242.7" y="99.3" class="st0" width="7.4" height="7.4"/>
	<rect x="184.1" y="97.4" class="st0" width="10.2" height="9.3"/>
	<rect x="521" y="57" class="st0" width="8.6" height="8.4"/>
	<rect x="561.5" y="41.6" class="st0" width="11.1" height="10.3"/>
	<rect x="575" y="41.8" class="st0" width="10.8" height="10"/>
	<rect x="745.5" y="112.5" class="st0" width="24.6" height="10"/>
	<rect x="784.9" y="113.3" class="st0" width="13.2" height="8.1"/>
	<rect x="758.4" y="126.8" class="st0" width="24.8" height="8.1"/>
	<polygon class="st0" points="272.8,288.7 272.8,287.7 275.7,287.7 275.7,279.6 269.4,279.6 269.4,280.4 196.8,280.4 196.8,277.6 
		169.2,277.6 169.2,290 196.8,290 196.8,288.7 	"/>
	<rect x="212" y="266.6" class="st0" width="11" height="9"/>
	<rect x="223.1" y="291.4" class="st0" width="9.7" height="15.2"/>
	<rect x="211.3" y="209.9" class="st0" width="11.7" height="10.4"/>
	<rect x="128.4" y="308" class="st0" width="11" height="9.7"/>
	<rect x="84.9" y="334.2" class="st0" width="11" height="11"/>
	<rect x="127.8" y="253.4" class="st0" width="35.9" height="21.4"/>
	<rect x="167.8" y="262.4" class="st0" width="14.5" height="13.1"/>
	<rect x="281.7" y="293.5" class="st0" width="11" height="9.7"/>
	<polygon class="st0" points="282.4,306.6 263.1,306.6 263.1,309.4 254.1,309.4 254.1,319.7 265.2,319.7 265.2,319 282.4,319 
		282.4,318 292.3,318 292.3,308.8 282.4,308.8 	"/>
	<polygon class="st0" points="334.2,292.1 334.2,279 323.2,279 323.2,292.1 311.4,292.1 311.4,306.6 335.9,306.6 335.9,292.1 	"/>
	<polygon class="st0" points="375.7,288 375.7,276.2 358.4,276.2 358.4,279.5 351.3,279.5 351.3,290.9 363.5,290.9 363.5,288 	"/>
	<rect x="99.4" y="310.1" class="st0" width="11.7" height="8.3"/>
	<rect x="55.9" y="279" class="st0" width="13.1" height="13.1"/>
	<rect y="280.4" class="st0" width="14.5" height="12.4"/>
	<rect x="547.6" y="110.5" class="st0" width="11.7" height="11"/>
	<rect x="660.2" y="140.2" class="st0" width="11" height="11"/>
	<rect x="406.7" class="st0" width="11.7" height="11"/>
	<rect x="419.9" y="41.4" class="st0" width="12.4" height="24.9"/>
	<rect x="450.2" y="29" class="st0" width="11" height="10.4"/>
	<rect x="351.5" y="14.5" class="st0" width="11" height="10.4"/>
	<rect x="558.7" y="292.8" class="st0" width="22.1" height="9"/>
	<rect x="561.4" y="321.1" class="st0" width="11" height="11.7"/>
	<rect x="534.5" y="308.7" class="st0" width="10.4" height="9.7"/>
	<polygon class="st0" points="475.1,307.5 458.9,307.5 458.9,321 477.8,321 477.8,317.7 486.8,317.7 486.8,307.3 475.1,307.3 	"/>
	<rect x="393.6" y="335.6" class="st0" width="12.4" height="9.7"/>
</g>
</svg>
