<!-- Generator: Adobe Illustrator 19.2.1, SVG Export Plug-In  -->
<svg version="1.1"
	 xmlns="http://www.w3.org/2000/svg" xmlns:xlink="http://www.w3.org/1999/xlink" xmlns:a="http://ns.adobe.com/AdobeSVGViewerExtensions/3.0/"
	 x="0px" y="0px" width="364.2px" height="214.6px" viewBox="0 0 364.2 214.6" style="enable-background:new 0 0 364.2 214.6;"
	 xml:space="preserve">
<style type="text/css">
	.st0{fill:#FFFFFF;stroke:#FFFFFF;stroke-linecap:round;stroke-linejoin:round;stroke-miterlimit:10;}
	.st1{fill:none;stroke:#762AF3;stroke-linecap:round;stroke-linejoin:round;stroke-miterlimit:10;}
	.st2{fill:none;stroke:#7629F4;stroke-linecap:round;stroke-linejoin:round;stroke-miterlimit:10;}
	.st3{fill:none;stroke:#7045F6;stroke-linecap:round;stroke-linejoin:round;stroke-miterlimit:10;}
	.st4{fill:#F1F1F1;stroke:#7629F4;stroke-miterlimit:10;}
	.st5{fill:none;stroke:#7045F6;stroke-miterlimit:10;}
	.st6{fill:#7045F6;}
	.st7{fill:none;stroke:#7629F4;stroke-miterlimit:10;}
	.st8{fill:#FFFFFF;stroke:#7629F4;stroke-miterlimit:10;}
	.st9{fill:#7045F6;stroke:#7045F6;stroke-miterlimit:10;}
	.st10{fill:#7629F4;stroke:#7629F4;stroke-miterlimit:10;}
	.st11{fill:#FFFFFF;}
	.st12{fill:none;stroke:#FFFFFF;stroke-linecap:round;stroke-linejoin:round;stroke-miterlimit:10;}
	.st13{fill:#7629F4;stroke:#7629F4;stroke-linecap:round;stroke-linejoin:round;stroke-miterlimit:10;}
	.st14{fill:none;stroke:#FFFFFF;stroke-miterlimit:10;}
	.st15{fill:#7045F6;stroke:#FFFFFF;stroke-miterlimit:10;}
	.st16{fill:#FFFFFF;stroke:#7045F6;stroke-linecap:round;stroke-linejoin:round;stroke-miterlimit:10;}
</style>
<defs>
</defs>
<polygon class="st0" points="47.8,123.2 61.9,171.5 63.5,210.6 131.7,202.6 363.7,110.7 363.7,81.5 295.9,31.8 233,0.5 37.5,65.8 
	"/>
<g>
	<line class="st1" x1="298.8" y1="91.6" x2="318.5" y2="100.7"/>
	<line class="st1" x1="318.5" y1="142.5" x2="298.8" y2="133.4"/>
	<line class="st2" x1="318.5" y1="100.7" x2="139.2" y2="161.3"/>
	<line class="st1" x1="298.8" y1="133.4" x2="298.8" y2="107.4"/>
	<line class="st1" x1="238.5" y1="137.1" x2="294.3" y2="118.3"/>
	<line class="st1" x1="238.5" y1="141.3" x2="294.3" y2="122.5"/>
	<line class="st1" x1="238.5" y1="145.7" x2="294.3" y2="126.9"/>
</g>
<polyline class="st3" points="106.5,214.1 63.5,210.6 0.7,179.2 "/>
<line class="st4" x1="130.5" y1="87" x2="295.9" y2="31.8"/>
<line class="st5" x1="225.6" y1="29.1" x2="264.4" y2="16.2"/>
<g>
	<g>
		<path class="st6" d="M133.1,146.9L133.1,146.9c0.1,0,0.1-0.1,0.2-0.2c0.1-0.1,0.2-0.1,0.4-0.2c0.3-0.1,0.5-0.1,0.7,0
			c0.2,0.1,0.4,0.3,0.5,0.5c0.1,0.1,0.1,0.3,0.2,0.4c0,0.1,0.1,0.3,0.1,0.5c0,0.2,0,0.5,0,0.9c0,0.4,0,0.8,0,1.4c0,0.5,0,0.9,0,1.2
			c0,0.3,0,0.6,0,0.8s-0.1,0.4-0.1,0.6s-0.1,0.3-0.2,0.5c-0.2,0.5-0.4,0.9-0.8,1.3c-0.3,0.3-0.7,0.6-1.1,0.7c-0.4,0.1-0.8,0.1-1.1,0
			c-0.3-0.1-0.6-0.4-0.8-0.8c-0.1-0.1-0.1-0.3-0.2-0.4c0-0.1-0.1-0.3-0.1-0.5s0-0.4,0-0.7c0-0.3,0-0.7,0-1.1c0-0.4,0-0.8,0-1.1
			c0-0.3,0-0.5,0-0.8c0-0.2,0-0.4,0.1-0.6c0-0.2,0.1-0.4,0.1-0.6l1.9-7.8l1.6-0.5L133.1,146.9z M133.8,149.4c0-0.3-0.1-0.5-0.2-0.7
			c-0.1-0.1-0.3-0.2-0.5-0.1s-0.4,0.2-0.5,0.4c-0.1,0.2-0.2,0.5-0.2,0.8v2.6c0,0.3,0.1,0.5,0.2,0.7c0.1,0.1,0.3,0.2,0.5,0.1
			c0.2-0.1,0.4-0.2,0.5-0.4s0.2-0.5,0.2-0.8V149.4z"/>
		<path class="st6" d="M136.5,139.8l2.2-0.7c0.8-0.3,1.5-0.2,1.9,0.3s0.7,1.3,0.7,2.5v6.7c0,1.3-0.2,2.4-0.7,3.2
			c-0.5,0.8-1.1,1.3-2,1.6l-2,0.7V139.8z M137.9,151.7l0.7-0.2c0.4-0.1,0.7-0.4,0.9-0.7c0.2-0.3,0.3-0.8,0.3-1.4v-6.9
			c0-0.6-0.1-1-0.2-1.2c-0.2-0.3-0.5-0.3-0.9-0.2l-0.7,0.2V151.7z"/>
		<path class="st6" d="M142.5,137.8l2.1-0.7c0.5-0.2,0.9-0.2,1.2-0.1s0.6,0.3,0.8,0.5c0.2,0.3,0.4,0.6,0.4,1s0.1,0.8,0.1,1.3v0.5
			c0,0.4,0,0.7-0.1,1c0,0.3-0.1,0.5-0.2,0.8c-0.1,0.2-0.2,0.4-0.3,0.6s-0.3,0.4-0.4,0.6c0.3,0.1,0.6,0.4,0.8,0.8
			c0.2,0.4,0.2,1,0.2,1.7v0.8c0,1.3-0.2,2.3-0.6,3.1c-0.4,0.8-1.1,1.4-2.1,1.7l-2,0.7V137.8z M144,143.2l0.7-0.2
			c0.5-0.2,0.8-0.4,1-0.8c0.2-0.4,0.2-0.9,0.2-1.6c0-0.6-0.1-1.1-0.3-1.3c-0.2-0.3-0.5-0.3-1-0.1l-0.6,0.2V143.2z M144,149.5
			l0.6-0.2c0.3-0.1,0.5-0.2,0.7-0.4c0.2-0.2,0.3-0.4,0.4-0.6c0.1-0.2,0.1-0.5,0.2-0.8c0-0.3,0-0.6,0-1c0-0.4,0-0.7,0-0.9
			c0-0.3-0.1-0.5-0.2-0.6c-0.1-0.1-0.2-0.2-0.4-0.3c-0.2,0-0.4,0-0.6,0.1L144,145V149.5z"/>
	</g>
</g>
<polyline class="st7" points="138,62.8 124.7,89.1 100.2,97.3 109.1,72.5 "/>
<polyline class="st8" points="31.1,9.4 61.9,57.7 37.5,65.8 2.3,18.9 "/>
<line class="st9" x1="61.9" y1="57.7" x2="73.9" y2="63.7"/>
<line class="st9" x1="106.4" y1="80" x2="98.4" y2="75.9"/>
<polygon class="st10" points="63.5,164.4 0.7,133 37.4,65.8 100.2,97.3 "/>
<polyline class="st10" points="63.5,210.6 0.7,179.2 0.7,133.6 63.5,165.1 "/>
<line class="st5" x1="0.7" y1="133.6" x2="37.5" y2="65.8"/>
<polygon class="st11" points="54,189.8 4.6,165.1 7.4,158.7 56.8,183.4 "/>
<polygon class="st11" points="54,179.8 4.6,155.1 7.4,148.7 56.8,173.4 "/>
<polygon class="st11" points="80.6,99.3 34.4,76.2 42.6,73.4 88.8,96.5 "/>
<polygon class="st11" points="54,199.7 4.6,175 7.4,168.6 56.8,193.3 "/>
<line class="st7" x1="106.5" y1="214.1" x2="297.4" y2="137"/>
<polyline class="st7" points="305.1,133.9 363.7,110.7 363.7,81.5 295.9,31.9 233,0.5 "/>
<line class="st3" x1="208.3" y1="8.9" x2="233.5" y2="0.5"/>
<line class="st3" x1="62.3" y1="57.7" x2="68.6" y2="55.6"/>
<line class="st12" x1="83.8" y1="58.2" x2="91.1" y2="55.7"/>
<polygon class="st13" points="171.3,128.5 322.4,78.1 322.4,78 322.4,72.5 283.6,44.1 283.7,44.1 171.3,107.4 "/>
<polyline class="st14" points="63.3,210.8 0.5,179.4 0.5,131.4 "/>
<line class="st15" x1="29.7" y1="101.6" x2="73.2" y2="123.4"/>
<line class="st9" x1="113.4" y1="103.4" x2="76.6" y2="170.5"/>
<line class="st15" x1="51.5" y1="112.6" x2="42.2" y2="129.6"/>
<line class="st1" x1="106.5" y1="214.1" x2="318.5" y2="142.5"/>
<polygon class="st16" points="113.6,169.8 145.3,206.7 159.9,201.9 137.4,161.9 "/>
<line class="st14" x1="187.2" y1="91.3" x2="187.2" y2="130.5"/>
<line class="st14" x1="215.1" y1="70.5" x2="215.1" y2="122.3"/>
</svg>
