<!-- Generator: Adobe Illustrator 19.2.1, SVG Export Plug-In  -->
<svg version="1.1"
	 xmlns="http://www.w3.org/2000/svg" xmlns:xlink="http://www.w3.org/1999/xlink" xmlns:a="http://ns.adobe.com/AdobeSVGViewerExtensions/3.0/"
	 x="0px" y="0px" width="364.2px" height="211.3px" viewBox="0 0 364.2 211.3" style="enable-background:new 0 0 364.2 211.3;"
	 xml:space="preserve">
<style type="text/css">
	.st0{fill:#FFFFFF;stroke:#FFFFFF;stroke-linecap:round;stroke-linejoin:round;stroke-miterlimit:10;}
	.st1{fill:#F1F1F1;stroke:#7629F4;stroke-miterlimit:10;}
	.st2{fill:none;stroke:#7045F6;stroke-miterlimit:10;}
	.st3{fill:#7045F6;stroke:#7045F6;stroke-miterlimit:10;}
	.st4{fill:#7629F4;stroke:#7629F4;stroke-miterlimit:10;}
	.st5{fill:#FFFFFF;}
	.st6{fill:none;stroke:#7629F4;stroke-miterlimit:10;}
	.st7{fill:none;stroke:#7045F6;stroke-linecap:round;stroke-linejoin:round;stroke-miterlimit:10;}
	.st8{fill:none;stroke:#FFFFFF;stroke-linecap:round;stroke-linejoin:round;stroke-miterlimit:10;}
	.st9{fill:none;stroke:#FFFFFF;stroke-miterlimit:10;}
	.st10{fill:#7045F6;stroke:#FFFFFF;stroke-miterlimit:10;}
</style>
<defs>
</defs>
<polygon class="st0" points="47.8,123.2 61.9,171.5 63.5,210.6 131.7,202.6 363.7,110.7 363.7,81.5 295.9,31.8 233,0.5 37.5,65.8 
	"/>
<line class="st1" x1="130.5" y1="87" x2="295.9" y2="31.8"/>
<line class="st2" x1="225.6" y1="29.1" x2="264.4" y2="16.2"/>
<line class="st3" x1="61.9" y1="57.7" x2="73.9" y2="63.7"/>
<line class="st3" x1="106.4" y1="80" x2="98.4" y2="75.9"/>
<polygon class="st4" points="63.5,164.4 0.7,133 37.4,65.8 100.2,97.3 "/>
<polyline class="st4" points="63.5,210.6 0.7,179.2 0.7,133.6 63.5,165.1 "/>
<line class="st2" x1="0.7" y1="133.6" x2="37.5" y2="65.8"/>
<polygon class="st5" points="80.6,99.3 34.4,76.2 42.6,73.4 88.8,96.5 "/>
<polyline class="st6" points="305.1,133.9 363.7,110.7 363.7,81.5 295.9,31.9 233,0.5 "/>
<line class="st7" x1="61.9" y1="57.7" x2="233.5" y2="0.5"/>
<line class="st7" x1="62.3" y1="57.7" x2="68.6" y2="55.6"/>
<line class="st8" x1="83.8" y1="58.2" x2="91.1" y2="55.7"/>
<polyline class="st9" points="63.3,210.8 0.5,179.4 0.5,131.4 "/>
<line class="st10" x1="29.7" y1="101.6" x2="73.2" y2="123.4"/>
<line class="st3" x1="113.4" y1="103.4" x2="76.6" y2="170.5"/>
<line class="st10" x1="51.5" y1="112.6" x2="42.2" y2="129.6"/>
</svg>
