<!-- Generator: Adobe Illustrator 19.2.1, SVG Export Plug-In  -->
<svg version="1.1"
	 xmlns="http://www.w3.org/2000/svg" xmlns:xlink="http://www.w3.org/1999/xlink" xmlns:a="http://ns.adobe.com/AdobeSVGViewerExtensions/3.0/"
	 x="0px" y="0px" width="139.6px" height="75.9px" viewBox="0 0 139.6 75.9" style="enable-background:new 0 0 139.6 75.9;"
	 xml:space="preserve">
<style type="text/css">
	.st0{fill:#FFFFFF;stroke:#7629F4;stroke-miterlimit:10;}
	.st1{fill:#7629F4;stroke:#7629F4;stroke-miterlimit:10;}
	.st2{fill:#7629F4;stroke:#FFFFFF;stroke-miterlimit:10;}
	.st3{fill:none;stroke:#FFFFFF;stroke-linecap:round;stroke-linejoin:round;stroke-miterlimit:10;}
</style>
<defs>
</defs>
<g>
	<path class="st0" d="M109.5,41.9c3.4-1.1,5.8-5,6-10.6c0.2-8.6-4.7-17.9-11-21c-2.4-1.1-4.6-1.2-6.5-0.4l23.6-7.9
		c1.9-0.8,4.1-0.7,6.5,0.4c6.3,3,11.2,12.4,11,21c-0.2,5.7-2.5,9.5-6,10.6L109.5,41.9z"/>
	<path class="st1" d="M23.5,74.9l90.4-30.1l9.2-3.1c4.3-1.4,7.4-6.3,7.6-13.5c0.3-10.8-5.9-22.7-13.9-26.6c-3-1.4-5.8-1.5-8.2-0.5
		l-7,2.3L9.9,34"/>
	<path class="st0" d="M30.9,61.5C30.6,72.4,23.9,78,15.9,74.2c-8-3.8-14.2-15.7-13.9-26.6C2.2,36.8,9,31.1,17,34.9
		C25,38.8,31.2,50.7,30.9,61.5z"/>
	<path class="st1" d="M24.9,61.6c-0.3,9.1-5.9,13.9-12.7,10.7C5.5,69,0.2,59,0.5,49.9C0.8,40.8,6.4,36,13.2,39.3
		C19.9,42.5,25.2,52.5,24.9,61.6z"/>
	<path class="st2" d="M21.1,59.8c-0.2,6.2-4.1,9.5-8.7,7.3c-4.6-2.2-8.2-9.1-8-15.3c0.2-6.2,4.1-9.5,8.7-7.3
		C17.6,46.7,21.2,53.5,21.1,59.8z"/>
</g>
<line class="st3" x1="69.5" y1="35.2" x2="116.6" y2="19.5"/>
</svg>
