<!-- Generator: Adobe Illustrator 19.2.1, SVG Export Plug-In  -->
<svg version="1.1"
	 xmlns="http://www.w3.org/2000/svg" xmlns:xlink="http://www.w3.org/1999/xlink" xmlns:a="http://ns.adobe.com/AdobeSVGViewerExtensions/3.0/"
	 x="0px" y="0px" width="162.5px" height="83.4px" viewBox="0 0 162.5 83.4" style="enable-background:new 0 0 162.5 83.4;"
	 xml:space="preserve">
<style type="text/css">
	.st0{fill:#FFFFFF;stroke:#7045F6;stroke-miterlimit:10;}
	.st1{fill:#7629F4;stroke:#7629F4;stroke-miterlimit:10;}
	.st2{fill:#FFFFFF;stroke:#7629F4;stroke-miterlimit:10;}
	.st3{fill:#7629F4;stroke:#FFFFFF;stroke-miterlimit:10;}
	.st4{fill:none;stroke:#FFFFFF;stroke-linecap:round;stroke-linejoin:round;stroke-miterlimit:10;}
</style>
<defs>
</defs>
<g>
	<path class="st0" d="M132.5,41.3c3.4-1.1,5.8-5,6-10.6c0.2-8.6-4.7-17.9-11-21c-2.4-1.1-4.6-1.2-6.5-0.4l23.6-7.9
		c1.9-0.8,4.1-0.7,6.5,0.4c6.3,3,11.2,12.4,11,21c-0.2,5.7-2.5,9.5-6,10.6L132.5,41.3z"/>
	<path class="st1" d="M23.8,82.3l111.3-37.1l10.6-3.5c4.3-1.4,7.4-6.3,7.6-13.5c0.3-10.8-5.9-22.7-13.9-26.6c-3-1.4-5.8-1.5-8.2-0.5
		l-10.7,3.5L10.2,41.4"/>
	<path class="st2" d="M30.8,69c-0.3,10.8-7.1,16.5-15.1,12.7C7.7,77.9,1.5,66,1.8,55.1c0.3-10.8,7.1-16.5,15.1-12.7
		C24.8,46.3,31.1,58.2,30.8,69z"/>
	<path class="st1" d="M24.9,69.6c-0.3,9.1-5.9,13.9-12.7,10.7C5.5,77,0.2,67,0.5,57.9C0.8,48.8,6.4,44,13.2,47.3
		C19.9,50.5,25.2,60.5,24.9,69.6z"/>
</g>
<path class="st3" d="M20.9,68.1c-0.2,6.4-4.1,9.7-8.8,7.4C7.4,73.3,3.8,66.4,4,60c0.2-6.4,4.1-9.7,8.8-7.4
	C17.5,54.8,21.1,61.8,20.9,68.1z"/>
<line class="st4" x1="12.4" y1="64.1" x2="19.7" y2="61.7"/>
</svg>
