<!-- Generator: Adobe Illustrator 19.2.1, SVG Export Plug-In  -->
<svg version="1.1"
	 xmlns="http://www.w3.org/2000/svg" xmlns:xlink="http://www.w3.org/1999/xlink" xmlns:a="http://ns.adobe.com/AdobeSVGViewerExtensions/3.0/"
	 x="0px" y="0px" width="318.8px" height="123.4px" viewBox="0 0 318.8 123.4" style="enable-background:new 0 0 318.8 123.4;"
	 xml:space="preserve">
<style type="text/css">
	.st0{fill:none;stroke:#762AF3;stroke-linecap:round;stroke-linejoin:round;stroke-miterlimit:10;}
	.st1{fill:none;stroke:#7629F4;stroke-linecap:round;stroke-linejoin:round;stroke-miterlimit:10;}
	.st2{fill:none;stroke:#7045F6;stroke-linecap:round;stroke-linejoin:round;stroke-miterlimit:10;}
	.st3{fill:#7045F6;}
	.st4{fill:none;stroke:#7629F4;stroke-miterlimit:10;}
</style>
<defs>
</defs>
<g>
	<line class="st0" x1="298.6" y1="0.5" x2="318.3" y2="9.6"/>
	<line class="st0" x1="318.3" y1="51.3" x2="298.6" y2="42.2"/>
	<line class="st1" x1="318.3" y1="9.6" x2="139" y2="70.2"/>
	<line class="st0" x1="298.6" y1="42.2" x2="298.6" y2="16.3"/>
	<line class="st0" x1="238.3" y1="46" x2="294.1" y2="27.1"/>
	<line class="st0" x1="238.3" y1="50.2" x2="294.1" y2="31.3"/>
	<line class="st0" x1="238.3" y1="54.6" x2="294.1" y2="35.7"/>
</g>
<polyline class="st2" points="106.3,122.9 63.3,119.5 0.5,88.1 "/>
<g>
	<g>
		<path class="st3" d="M132.9,55.8L132.9,55.8c0.1,0,0.2-0.1,0.2-0.2s0.2-0.1,0.4-0.2c0.3-0.1,0.5-0.1,0.7,0
			c0.2,0.1,0.4,0.3,0.5,0.5c0.1,0.1,0.1,0.3,0.2,0.4c0,0.1,0.1,0.3,0.1,0.5s0,0.5,0,0.9c0,0.4,0,0.8,0,1.4c0,0.5,0,0.9,0,1.2
			c0,0.3,0,0.6,0,0.8c0,0.2-0.1,0.4-0.1,0.6c0,0.2-0.1,0.3-0.2,0.5c-0.2,0.5-0.4,0.9-0.8,1.3c-0.3,0.3-0.7,0.6-1.1,0.7
			s-0.8,0.1-1.1,0c-0.3-0.1-0.6-0.4-0.8-0.8c-0.1-0.1-0.1-0.3-0.2-0.4c0-0.1-0.1-0.3-0.1-0.5c0-0.2,0-0.4,0-0.7s0-0.7,0-1.1
			c0-0.4,0-0.8,0-1.1c0-0.3,0-0.5,0-0.8c0-0.2,0-0.4,0.1-0.6c0-0.2,0.1-0.4,0.1-0.6l1.9-7.8l1.6-0.5L132.9,55.8z M133.6,58.2
			c0-0.3-0.1-0.5-0.2-0.7c-0.1-0.1-0.3-0.2-0.5-0.1c-0.2,0.1-0.4,0.2-0.5,0.4s-0.2,0.5-0.2,0.8v2.6c0,0.3,0.1,0.5,0.2,0.7
			c0.1,0.1,0.3,0.2,0.5,0.1c0.2-0.1,0.4-0.2,0.5-0.4c0.1-0.2,0.2-0.5,0.2-0.8V58.2z"/>
		<path class="st3" d="M136.3,48.7l2.1-0.7c0.8-0.3,1.5-0.2,1.9,0.3s0.7,1.3,0.7,2.5v6.7c0,1.3-0.2,2.4-0.7,3.2
			c-0.5,0.8-1.1,1.3-2,1.6l-2,0.7V48.7z M137.7,60.5l0.7-0.2c0.4-0.1,0.7-0.4,0.9-0.7c0.2-0.3,0.3-0.8,0.3-1.4v-6.9
			c0-0.6-0.1-1-0.2-1.2s-0.5-0.3-0.9-0.2l-0.7,0.2V60.5z"/>
		<path class="st3" d="M142.3,46.7l2.1-0.7c0.5-0.2,0.9-0.2,1.2-0.1c0.3,0.1,0.6,0.3,0.8,0.5s0.4,0.6,0.4,1c0.1,0.4,0.1,0.8,0.1,1.3
			v0.5c0,0.4,0,0.7-0.1,1c0,0.3-0.1,0.5-0.2,0.8c-0.1,0.2-0.2,0.4-0.3,0.6c-0.1,0.2-0.3,0.4-0.4,0.6c0.3,0.1,0.6,0.4,0.8,0.8
			c0.2,0.4,0.2,1,0.2,1.7v0.8c0,1.3-0.2,2.3-0.6,3.1c-0.4,0.8-1.1,1.4-2.1,1.7l-2,0.7V46.7z M143.8,52l0.7-0.2
			c0.5-0.2,0.8-0.4,1-0.8c0.2-0.4,0.2-0.9,0.2-1.6c0-0.6-0.1-1.1-0.3-1.3c-0.2-0.3-0.5-0.3-1-0.1l-0.6,0.2V52z M143.8,58.4l0.6-0.2
			c0.3-0.1,0.5-0.2,0.7-0.4c0.2-0.2,0.3-0.4,0.4-0.6c0.1-0.2,0.1-0.5,0.2-0.8c0-0.3,0-0.6,0-1c0-0.4,0-0.7,0-0.9s-0.1-0.5-0.2-0.6
			c-0.1-0.2-0.2-0.2-0.4-0.3c-0.2,0-0.4,0-0.6,0.1l-0.6,0.2V58.4z"/>
	</g>
</g>
<line class="st4" x1="106.3" y1="122.9" x2="297.2" y2="45.8"/>
<line class="st0" x1="106.3" y1="122.9" x2="318.3" y2="51.3"/>
</svg>
