<!-- Generator: Adobe Illustrator 19.2.1, SVG Export Plug-In  -->
<svg version="1.1"
	 xmlns="http://www.w3.org/2000/svg" xmlns:xlink="http://www.w3.org/1999/xlink" xmlns:a="http://ns.adobe.com/AdobeSVGViewerExtensions/3.0/"
	 x="0px" y="0px" width="973.7px" height="410.8px" viewBox="0 0 973.7 410.8" style="enable-background:new 0 0 973.7 410.8;"
	 xml:space="preserve">
<style type="text/css">
	.st0{fill:#F1F1F1;}
	.st1{fill:#7629F4;}
	.st2{font-family:'DINCondensed-Bold';}
	.st3{font-size:40.1032px;}
	.st4{fill:#222222;}
	.st5{fill:#FFFFFF;stroke:#7045F6;stroke-miterlimit:10;}
	.st6{fill:#7629F4;stroke:#7629F4;stroke-miterlimit:10;}
	.st7{fill:#FFFFFF;stroke:#7629F4;stroke-miterlimit:10;}
	.st8{fill:none;}
	.st9{fill:#F1F1F1;stroke:#7629F4;stroke-miterlimit:10;}
	.st10{fill:#FFFFFF;stroke:#FFFFFF;stroke-linecap:round;stroke-linejoin:round;stroke-miterlimit:10;}
	.st11{fill:none;stroke:#762AF3;stroke-linecap:round;stroke-linejoin:round;stroke-miterlimit:10;}
	.st12{fill:none;stroke:#7629F4;stroke-linecap:round;stroke-linejoin:round;stroke-miterlimit:10;}
	.st13{fill:none;stroke:#7045F6;stroke-linecap:round;stroke-linejoin:round;stroke-miterlimit:10;}
	.st14{fill:none;stroke:#7045F6;stroke-miterlimit:10;}
	.st15{fill:#7045F6;}
	.st16{fill:none;stroke:#7629F4;stroke-miterlimit:10;}
	.st17{fill:#7629F4;stroke:#FFFFFF;stroke-miterlimit:10;}
	.st18{fill:#7045F6;stroke:#7045F6;stroke-miterlimit:10;}
	.st19{fill:#FFFFFF;}
	.st20{fill:none;stroke:#FFFFFF;stroke-linecap:round;stroke-linejoin:round;stroke-miterlimit:10;}
	.st21{fill:#7629F4;stroke:#7629F4;stroke-linecap:round;stroke-linejoin:round;stroke-miterlimit:10;}
	.st22{fill:none;stroke:#FFFFFF;stroke-miterlimit:10;}
	.st23{fill:#7045F6;stroke:#FFFFFF;stroke-miterlimit:10;}
	.st24{fill:#FFFFFF;stroke:#7045F6;stroke-linecap:round;stroke-linejoin:round;stroke-miterlimit:10;}
</style>
<defs>
</defs>
<g>
	<path class="st0" d="M418,4L0,144.9l3.1,72.9L145,166l-1,54.2L41.9,260.7l5.7,50.5l55.4-25.3l7,48.1l250-95v-47.8L294,211l3-35.6
		c0,0,132.1-44.1,126.4-45.9C417.7,127.7,425.8,0,425.8,0L418,4z"/>
	<g>
		<g>
			<g>
				<text transform="matrix(0.7117 -0.2367 0 1 114.029 313.0138)" class="st1 st2 st3">WITH JS/SQL PROCESSING</text>
			</g>
			<g>
				<text transform="matrix(0.7117 -0.2367 0 1 49.9339 295.2083)" class="st1 st2 st3">TOP SPEED NoSQL ENGINE</text>
			</g>
		</g>
	</g>
	<g>
		<g>
			<path class="st4" d="M169.8,196.6c0,1.5-0.2,3-0.6,4.5c-0.4,1.5-1,2.9-1.7,4.2c-0.7,1.3-1.6,2.4-2.5,3.3c-1,0.9-2,1.6-3.1,2
				c-0.9,0.3-1.9,0.4-2.9,0.4s-1.9-0.4-2.6-1s-1.4-1.6-1.9-2.9c-0.5-1.3-0.8-3.1-0.8-5.3v-26.9c0-1.6,0.2-3.2,0.6-4.7
				c0.4-1.5,0.9-2.9,1.7-4.1c0.7-1.2,1.6-2.3,2.6-3.2c1-0.9,2.1-1.6,3.3-2c1.1-0.4,2.2-0.4,3.2-0.2c1,0.2,1.8,0.8,2.5,1.6
				c0.7,0.8,1.3,1.8,1.7,3.1c0.4,1.3,0.6,2.8,0.6,4.5v2.7l-5,1.7V172c0-1.4-0.3-2.5-0.8-3.3c-0.6-0.8-1.3-1.1-2.2-0.8
				c-1.2,0.4-2.1,1.2-2.5,2.4c-0.4,1.2-0.6,2.6-0.6,4.3v25c0,1.4,0.2,2.5,0.7,3.3c0.4,0.8,1.2,1,2.4,0.7c0.3-0.1,0.7-0.3,1-0.6
				c0.4-0.3,0.7-0.7,1-1.1c0.3-0.5,0.6-1.1,0.8-1.8c0.2-0.7,0.3-1.5,0.3-2.5v-2.4l5-1.7V196.6z"/>
			<path class="st4" d="M173.8,157.4l5-1.7v41.8l9.9-3.3v7l-14.8,4.9V157.4z"/>
			<path class="st4" d="M191.6,163c0-2,0.2-3.8,0.7-5.5c0.5-1.7,1.1-3.1,1.9-4.4c0.8-1.2,1.7-2.3,2.7-3.1c1-0.8,2-1.4,3-1.8
				c1-0.3,2-0.4,3-0.2c1,0.2,1.9,0.6,2.7,1.3c0.8,0.7,1.4,1.7,1.9,3.1c0.5,1.3,0.7,3,0.7,5v25.8c0,2-0.2,3.8-0.7,5.5
				c-0.5,1.6-1.1,3.1-1.9,4.3c-0.8,1.2-1.7,2.3-2.7,3.1c-1,0.8-2,1.4-3,1.8c-1,0.3-2,0.4-3,0.2c-1-0.2-1.9-0.6-2.7-1.3
				c-0.8-0.7-1.4-1.7-1.9-3.1c-0.5-1.3-0.7-3-0.7-5V163z M196.6,187.1c0,1.7,0.3,2.8,1,3.4c0.7,0.6,1.5,0.7,2.4,0.4
				c0.9-0.3,1.7-1,2.4-2c0.7-1,1-2.4,1-4.1v-25.8c0-1.7-0.3-2.8-1-3.4c-0.7-0.6-1.5-0.7-2.4-0.4c-0.9,0.3-1.7,1-2.4,2
				c-0.7,1-1,2.4-1,4.1V187.1z"/>
			<path class="st4" d="M228.8,177c0,1.6-0.2,3.2-0.6,4.7c-0.4,1.5-1,2.9-1.7,4.2c-0.7,1.3-1.6,2.4-2.6,3.3s-2,1.6-3.1,1.9
				c-1.1,0.4-2.1,0.4-3.1,0.1c-1-0.3-1.8-0.8-2.6-1.6c-0.7-0.8-1.3-1.8-1.7-3c-0.4-1.2-0.6-2.6-0.6-4.2v-37.9l5-1.7V180
				c0,1.7,0.3,2.9,0.9,3.5c0.6,0.6,1.3,0.8,2.2,0.5c0.9-0.3,1.6-0.9,2.2-2c0.6-1,0.9-2.4,0.9-4.1v-37.2l5-1.7V177z"/>
			<path class="st4" d="M233.5,137.5l7.4-2.5c2.8-0.9,5-0.6,6.5,1.2c1.5,1.7,2.2,4.6,2.2,8.5v22.8c0,4.6-0.8,8.2-2.4,10.9
				c-1.6,2.7-3.8,4.5-6.8,5.5l-6.9,2.3V137.5z M238.4,178.1l2.3-0.8c1.4-0.5,2.4-1.3,3-2.5c0.6-1.2,0.9-2.8,0.9-4.9v-23.5
				c0-1.9-0.3-3.3-0.8-4.2c-0.6-0.9-1.6-1.1-3-0.6l-2.3,0.8V178.1z"/>
			<path class="st4" d="M263.3,127.6l7.4-2.5c2.8-0.9,5-0.6,6.5,1.2c1.5,1.7,2.2,4.6,2.2,8.5v22.8c0,4.6-0.8,8.2-2.4,10.9
				c-1.6,2.7-3.8,4.5-6.8,5.5l-6.9,2.3V127.6z M268.3,168.2l2.3-0.8c1.4-0.5,2.4-1.3,3-2.5c0.6-1.2,0.9-2.8,0.9-4.9v-23.5
				c0-1.9-0.3-3.3-0.8-4.2c-0.6-0.9-1.6-1.1-3-0.6l-2.3,0.8V168.2z"/>
			<path class="st4" d="M289.6,118.9l4.1-1.4l7.8,46.2l-5,1.7l-1.5-10l-6.8,2.3l-1.5,11l-5,1.7L289.6,118.9z M291.7,132.2
				L291.7,132.2l-2.5,18.5l5-1.7L291.7,132.2z"/>
			<path class="st4" d="M307.3,119.6l-5.8,1.9v-6.6l16.5-5.5v6.6l-5.8,1.9v42.2l-5,1.7V119.6z"/>
			<path class="st4" d="M325.7,106.9l4.1-1.4l7.8,46.2l-5,1.7l-1.5-10l-6.8,2.3l-1.5,11l-5,1.7L325.7,106.9z M327.8,120.2
				L327.8,120.2l-2.5,18.5l5-1.7L327.8,120.2z"/>
			<path class="st4" d="M340,102.1l7.3-2.4c1.6-0.5,3-0.6,4.1-0.3c1.1,0.3,2,0.9,2.8,1.8c0.7,0.9,1.2,2,1.5,3.4
				c0.3,1.4,0.5,2.9,0.5,4.5v1.8c0,1.3-0.1,2.5-0.2,3.4c-0.1,1-0.4,1.8-0.7,2.6c-0.3,0.8-0.7,1.5-1.1,2.2c-0.4,0.7-0.9,1.3-1.5,2
				c1.2,0.4,2,1.3,2.6,2.6c0.6,1.3,0.8,3.3,0.8,5.9v2.7c0,4.3-0.7,7.8-2.2,10.6c-1.5,2.8-3.8,4.7-7.1,5.8l-6.8,2.3V102.1z
				 M345,120.5l2.2-0.7c1.7-0.6,2.8-1.5,3.3-2.9c0.6-1.4,0.9-3.2,0.9-5.4c0-2.2-0.3-3.7-1-4.6c-0.6-0.9-1.8-1.1-3.4-0.5l-2,0.7
				V120.5z M345,142.3l2.1-0.7c1-0.3,1.8-0.8,2.4-1.4c0.6-0.6,1-1.3,1.3-2.1c0.3-0.8,0.5-1.8,0.5-2.8c0.1-1,0.1-2.1,0.1-3.3
				c0-1.2,0-2.3-0.1-3.2c-0.1-0.9-0.3-1.6-0.6-2.1c-0.3-0.5-0.7-0.8-1.3-1c-0.6-0.1-1.3-0.1-2.2,0.3l-2.2,0.7V142.3z"/>
			<path class="st4" d="M366.3,93.3l4.1-1.4l7.8,46.2l-5,1.7l-1.5-10l-6.8,2.3l-1.5,11l-5,1.7L366.3,93.3z M368.4,106.7L368.4,106.7
				l-2.5,18.5l5-1.7L368.4,106.7z"/>
			<path class="st4" d="M396.8,97.3l-5,1.7v-1.6c0-1.6-0.3-2.9-0.8-3.9c-0.5-1-1.4-1.3-2.7-0.8c-0.7,0.2-1.2,0.6-1.7,1.1
				c-0.4,0.5-0.8,1.1-1,1.7c-0.2,0.7-0.4,1.4-0.5,2.2c-0.1,0.8-0.1,1.6-0.1,2.4c0,1,0,1.8,0.1,2.4c0,0.6,0.2,1.2,0.4,1.6
				c0.2,0.4,0.5,0.7,0.9,1c0.4,0.2,0.9,0.4,1.5,0.6l3.8,0.9c1.1,0.2,2,0.6,2.7,1.2c0.7,0.6,1.2,1.3,1.6,2.3c0.4,1,0.6,2.1,0.8,3.5
				c0.1,1.4,0.2,2.9,0.2,4.7c0,2.1-0.1,4-0.4,5.9c-0.3,1.9-0.8,3.5-1.4,5c-0.7,1.5-1.6,2.8-2.7,3.9s-2.5,1.9-4.1,2.4
				c-1.2,0.4-2.3,0.5-3.4,0.2c-1-0.2-1.9-0.8-2.7-1.5c-0.7-0.8-1.3-1.8-1.8-3.1c-0.4-1.3-0.7-2.7-0.7-4.4v-2.6l5-1.7v2.2
				c0,1.3,0.3,2.3,0.8,3.2c0.5,0.9,1.4,1.1,2.7,0.6c0.8-0.3,1.5-0.7,2-1.2c0.5-0.5,0.8-1.1,1.1-1.8c0.2-0.7,0.4-1.5,0.5-2.5
				c0.1-0.9,0.1-2,0.1-3c0-1.3,0-2.3-0.1-3.1c-0.1-0.8-0.2-1.4-0.4-1.9c-0.2-0.4-0.5-0.7-0.9-0.9c-0.4-0.2-0.9-0.4-1.5-0.5l-3.6-0.9
				c-2.1-0.5-3.6-1.7-4.3-3.5c-0.7-1.8-1.1-4.2-1.1-7.3c0-1.8,0.2-3.6,0.5-5.4c0.4-1.8,0.9-3.4,1.6-4.8c0.7-1.4,1.6-2.7,2.7-3.7
				c1.1-1.1,2.3-1.8,3.8-2.3c1.2-0.4,2.4-0.5,3.4-0.2c1,0.3,1.9,0.9,2.6,1.7c0.7,0.8,1.3,1.8,1.7,3c0.4,1.2,0.6,2.4,0.6,3.8V97.3z"
				/>
			<path class="st4" d="M400.5,82l14.8-4.9v6.6l-9.9,3.3v14.3l8.6-2.9v6.6l-8.6,2.9v14.3l9.9-3.3v7l-14.8,4.9V82z"/>
		</g>
	</g>
	<g>
		<g>
			<path class="st4" d="M29.9,158.8l-5,1.7v-1.6c0-1.6-0.3-2.9-0.8-3.9c-0.5-1-1.4-1.3-2.7-0.8c-0.7,0.2-1.2,0.6-1.7,1.1
				c-0.4,0.5-0.8,1.1-1,1.7c-0.2,0.7-0.4,1.4-0.5,2.2c-0.1,0.8-0.1,1.6-0.1,2.4c0,1,0,1.8,0.1,2.4c0,0.6,0.2,1.2,0.4,1.6
				c0.2,0.4,0.5,0.7,0.9,1c0.4,0.2,0.9,0.4,1.5,0.6l3.8,0.9c1.1,0.2,2,0.6,2.7,1.2c0.7,0.6,1.2,1.3,1.6,2.3c0.4,1,0.6,2.1,0.8,3.5
				c0.1,1.4,0.2,2.9,0.2,4.7c0,2.1-0.1,4-0.4,5.9c-0.3,1.9-0.8,3.5-1.4,5c-0.7,1.5-1.6,2.8-2.7,3.9c-1.1,1.1-2.5,1.9-4.1,2.4
				c-1.2,0.4-2.3,0.5-3.4,0.2c-1-0.2-1.9-0.8-2.7-1.5c-0.7-0.8-1.3-1.8-1.8-3.1c-0.4-1.3-0.7-2.7-0.7-4.4v-2.6l5-1.7v2.2
				c0,1.3,0.3,2.3,0.8,3.2c0.5,0.9,1.4,1.1,2.7,0.6c0.8-0.3,1.5-0.7,2-1.2c0.5-0.5,0.8-1.1,1.1-1.8c0.2-0.7,0.4-1.5,0.5-2.5
				c0.1-0.9,0.1-2,0.1-3c0-1.3,0-2.3-0.1-3.1c-0.1-0.8-0.2-1.4-0.4-1.9c-0.2-0.4-0.5-0.7-0.9-0.9c-0.4-0.2-0.9-0.4-1.5-0.5l-3.6-0.9
				c-2.1-0.5-3.6-1.7-4.3-3.5c-0.7-1.8-1.1-4.2-1.1-7.3c0-1.8,0.2-3.6,0.5-5.4c0.4-1.8,0.9-3.4,1.6-4.8c0.7-1.4,1.6-2.7,2.7-3.7
				c1.1-1.1,2.3-1.8,3.8-2.3c1.2-0.4,2.4-0.5,3.4-0.2c1,0.3,1.9,0.9,2.6,1.7c0.7,0.8,1.3,1.8,1.7,3c0.4,1.2,0.6,2.4,0.6,3.8V158.8z"
				/>
			<path class="st4" d="M49.4,176.2c0,1.5-0.2,3-0.6,4.5c-0.4,1.5-1,2.9-1.7,4.2c-0.7,1.3-1.6,2.4-2.5,3.3c-1,0.9-2,1.6-3.1,2
				c-0.9,0.3-1.9,0.4-2.9,0.4c-1,0-1.9-0.4-2.6-1s-1.4-1.6-1.9-2.9c-0.5-1.3-0.8-3.1-0.8-5.3v-26.9c0-1.6,0.2-3.2,0.6-4.7
				c0.4-1.5,0.9-2.9,1.7-4.1c0.7-1.2,1.6-2.3,2.6-3.2c1-0.9,2.1-1.6,3.3-2c1.1-0.4,2.2-0.4,3.2-0.2c1,0.2,1.8,0.8,2.5,1.6
				c0.7,0.8,1.3,1.8,1.7,3.1c0.4,1.3,0.6,2.8,0.6,4.5v2.7l-5,1.7v-2.3c0-1.4-0.3-2.5-0.8-3.3c-0.6-0.8-1.3-1.1-2.2-0.8
				c-1.2,0.4-2.1,1.2-2.5,2.4c-0.4,1.2-0.6,2.6-0.6,4.3v25c0,1.4,0.2,2.5,0.7,3.3c0.4,0.8,1.2,1,2.4,0.7c0.3-0.1,0.7-0.3,1-0.6
				c0.4-0.3,0.7-0.7,1-1.1c0.3-0.5,0.6-1.1,0.8-1.8c0.2-0.7,0.3-1.5,0.3-2.5v-2.4l5-1.7V176.2z"/>
			<path class="st4" d="M59,135.1l4.1-1.4l7.8,46.2l-5,1.7l-1.5-10l-6.8,2.3l-1.5,11l-5,1.7L59,135.1z M61.1,148.4L61.1,148.4
				l-2.5,18.5l5-1.7L61.1,148.4z"/>
			<path class="st4" d="M73.3,130.3l5-1.7v41.8l9.9-3.3v7l-14.8,4.9V130.3z"/>
			<path class="st4" d="M96.9,122.4l4.1-1.4l7.8,46.2l-5,1.7l-1.5-10l-6.8,2.3l-1.5,11l-5,1.7L96.9,122.4z M99,135.8L99,135.8
				l-2.5,18.5l5-1.7L99,135.8z"/>
			<path class="st4" d="M111.2,117.7l7.3-2.4c1.6-0.5,3-0.6,4.1-0.3s2,0.9,2.8,1.8c0.7,0.9,1.2,2,1.5,3.4c0.3,1.4,0.5,2.9,0.5,4.5
				v1.8c0,1.3-0.1,2.5-0.2,3.4c-0.1,1-0.4,1.8-0.7,2.6c-0.3,0.8-0.7,1.5-1.1,2.2c-0.4,0.7-0.9,1.3-1.5,2c1.2,0.4,2,1.3,2.6,2.6
				c0.6,1.3,0.8,3.3,0.8,5.9v2.7c0,4.3-0.7,7.8-2.2,10.6c-1.5,2.8-3.8,4.7-7.1,5.8l-6.8,2.3V117.7z M116.2,136l2.2-0.7
				c1.7-0.6,2.8-1.5,3.3-2.9c0.6-1.4,0.9-3.2,0.9-5.4c0-2.2-0.3-3.7-1-4.6c-0.6-0.9-1.8-1.1-3.4-0.5l-2,0.7V136z M116.2,157.8
				l2.1-0.7c1-0.3,1.8-0.8,2.4-1.4c0.6-0.6,1-1.3,1.3-2.1s0.5-1.8,0.5-2.8c0.1-1,0.1-2.1,0.1-3.3c0-1.2,0-2.3-0.1-3.2
				c-0.1-0.9-0.3-1.6-0.6-2.1c-0.3-0.5-0.7-0.8-1.3-1c-0.6-0.1-1.3-0.1-2.2,0.3l-2.2,0.7V157.8z"/>
			<path class="st4" d="M132,110.8l5-1.7v41.8l9.9-3.3v7l-14.8,4.9V110.8z"/>
			<path class="st4" d="M150.1,104.7l14.8-4.9v6.6l-9.9,3.3V124l8.6-2.9v6.6l-8.6,2.9v14.3l9.9-3.3v7l-14.8,4.9V104.7z"/>
			<path class="st4" d="M193,128.4c0,1.5-0.2,3-0.6,4.5c-0.4,1.5-1,2.9-1.7,4.2c-0.7,1.3-1.6,2.4-2.5,3.3c-1,0.9-2,1.6-3.1,2
				c-0.9,0.3-1.9,0.4-2.9,0.4s-1.9-0.4-2.6-1s-1.4-1.6-1.9-2.9c-0.5-1.3-0.8-3.1-0.8-5.3v-26.9c0-1.6,0.2-3.2,0.6-4.7
				c0.4-1.5,0.9-2.9,1.7-4.1c0.7-1.2,1.6-2.3,2.6-3.2c1-0.9,2.1-1.6,3.3-2c1.1-0.4,2.2-0.4,3.2-0.2c1,0.2,1.8,0.8,2.5,1.6
				c0.7,0.8,1.3,1.8,1.7,3.1c0.4,1.3,0.6,2.8,0.6,4.5v2.7l-5,1.7v-2.3c0-1.4-0.3-2.5-0.8-3.3c-0.6-0.8-1.3-1.1-2.2-0.8
				c-1.2,0.4-2.1,1.2-2.5,2.4c-0.4,1.2-0.6,2.6-0.6,4.3v25c0,1.4,0.2,2.5,0.7,3.3c0.4,0.8,1.2,1,2.4,0.7c0.3-0.1,0.7-0.3,1-0.6
				c0.4-0.3,0.7-0.7,1-1.1c0.3-0.5,0.6-1.1,0.8-1.8c0.2-0.7,0.3-1.5,0.3-2.5V127l5-1.7V128.4z"/>
			<path class="st4" d="M196.8,100.7c0-2,0.2-3.8,0.7-5.5c0.5-1.7,1.1-3.1,1.9-4.4c0.8-1.2,1.7-2.3,2.7-3.1c1-0.8,2-1.4,3-1.8
				c1-0.3,2-0.4,3-0.2c1,0.2,1.9,0.6,2.7,1.3c0.8,0.7,1.4,1.7,1.9,3.1c0.5,1.3,0.7,3,0.7,5V121c0,2-0.2,3.8-0.7,5.5
				c-0.5,1.6-1.1,3.1-1.9,4.3c-0.8,1.2-1.7,2.3-2.7,3.1c-1,0.8-2,1.4-3,1.8c-1,0.3-2,0.4-3,0.2c-1-0.2-1.9-0.6-2.7-1.3
				c-0.8-0.7-1.4-1.7-1.9-3.1c-0.5-1.3-0.7-3-0.7-5V100.7z M201.8,124.9c0,1.7,0.3,2.8,1,3.4c0.7,0.6,1.5,0.7,2.4,0.4
				c0.9-0.3,1.7-1,2.4-2c0.7-1,1-2.4,1-4.1V96.8c0-1.7-0.3-2.8-1-3.4c-0.7-0.6-1.5-0.7-2.4-0.4c-0.9,0.3-1.7,1-2.4,2
				c-0.7,1-1,2.4-1,4.1V124.9z"/>
			<path class="st4" d="M217.9,82.2l4.8-1.6l6.4,23.7l0.1,0l6.3-28l4.8-1.6v48.8l-5,1.7V95.5l-0.1,0l-4.9,22.6l-2.5,0.8l-4.9-19.4
				l-0.1,0v29.7l-5,1.7V82.2z"/>
			<path class="st4" d="M245,73.2l7.5-2.5c1.4-0.5,2.6-0.6,3.6-0.4c1,0.2,2,0.7,2.8,1.7c0.8,1,1.4,2.3,1.8,3.9
				c0.3,1.6,0.5,3.9,0.5,6.8c0,2.1-0.1,4-0.3,5.6c-0.2,1.6-0.6,3.1-1.1,4.7c-0.7,1.8-1.6,3.4-2.7,4.6c-1.1,1.3-2.6,2.2-4.5,2.8
				l-2.5,0.8v19.1l-5,1.7V73.2z M250,94.7l2.4-0.8c1-0.3,1.8-0.8,2.3-1.4c0.6-0.6,1-1.3,1.2-2.1c0.3-0.8,0.4-1.7,0.5-2.7
				c0-1,0.1-2.1,0.1-3.4c0-1.1,0-2.2-0.1-3.2c0-1-0.2-1.9-0.4-2.5c-0.2-0.7-0.6-1.1-1.1-1.4c-0.5-0.3-1.3-0.2-2.2,0.1l-2.6,0.9V94.7
				z"/>
			<path class="st4" d="M281,99.1c0,1.6-0.2,3.2-0.6,4.7c-0.4,1.5-1,2.9-1.7,4.2c-0.7,1.3-1.6,2.4-2.6,3.3s-2,1.6-3.1,1.9
				c-1.1,0.4-2.1,0.4-3.1,0.1s-1.8-0.8-2.6-1.6c-0.7-0.8-1.3-1.8-1.7-3c-0.4-1.2-0.6-2.6-0.6-4.2V66.6l5-1.7v37.2
				c0,1.7,0.3,2.9,0.9,3.5c0.6,0.6,1.3,0.8,2.2,0.5c0.9-0.3,1.6-0.9,2.2-2s0.9-2.4,0.9-4.1V62.9l5-1.7V99.1z"/>
			<path class="st4" d="M288.9,65.1l-5.8,1.9v-6.6l16.5-5.5v6.6l-5.8,1.9v42.2l-5,1.7V65.1z"/>
			<path class="st4" d="M307.4,52.4l4.1-1.4l7.8,46.2l-5,1.7l-1.5-10l-6.8,2.3l-1.5,11l-5,1.7L307.4,52.4z M309.5,65.8L309.5,65.8
				l-2.5,18.5l5-1.7L309.5,65.8z"/>
			<path class="st4" d="M325,53.1l-5.8,1.9v-6.6l16.5-5.5v6.6l-5.8,1.9v42.2l-5,1.7V53.1z"/>
			<path class="st4" d="M338.1,42.2l5-1.7v48.8l-5,1.7V42.2z"/>
			<path class="st4" d="M347.6,50.6c0-2,0.2-3.8,0.7-5.5c0.5-1.7,1.1-3.1,1.9-4.4c0.8-1.2,1.7-2.3,2.7-3.1c1-0.8,2-1.4,3-1.8
				c1-0.3,2-0.4,3-0.2c1,0.2,1.9,0.6,2.7,1.3c0.8,0.7,1.4,1.7,1.9,3.1c0.5,1.3,0.7,3,0.7,5v25.8c0,2-0.2,3.8-0.7,5.5
				c-0.5,1.6-1.1,3.1-1.9,4.3c-0.8,1.2-1.7,2.3-2.7,3.1c-1,0.8-2,1.4-3,1.8c-1,0.3-2,0.4-3,0.2c-1-0.2-1.9-0.6-2.7-1.3
				c-0.8-0.7-1.4-1.7-1.9-3.1c-0.5-1.3-0.7-3-0.7-5V50.6z M352.5,74.7c0,1.7,0.3,2.8,1,3.4c0.7,0.6,1.5,0.7,2.4,0.4
				c0.9-0.3,1.7-1,2.4-2c0.7-1,1-2.4,1-4.1V46.7c0-1.7-0.3-2.8-1-3.4c-0.7-0.6-1.5-0.7-2.4-0.4c-0.9,0.3-1.7,1-2.4,2
				c-0.7,1-1,2.4-1,4.1V74.7z"/>
			<path class="st4" d="M368.5,32.1l4.8-1.6l7.5,26.9l0.1,0V28l5-1.7v48.8l-4.7,1.6l-7.6-26.8l-0.1,0v29.3l-5,1.7V32.1z"/>
			<path class="st4" d="M395.8,23l4.1-1.4l7.8,46.2l-5,1.7l-1.5-10l-6.8,2.3l-1.5,11l-5,1.7L395.8,23z M397.9,36.4L397.9,36.4
				l-2.5,18.5l5-1.7L397.9,36.4z"/>
			<path class="st4" d="M410.2,18.2l5-1.7v41.8l9.9-3.3v7L410.2,67V18.2z"/>
		</g>
	</g>
</g>
<rect x="536.9" y="50.5" class="st0" width="82.5" height="29.7"/>
<rect x="565.4" y="36.9" class="st0" width="54" height="11.3"/>
<rect x="475.1" y="64.8" class="st0" width="42.7" height="13.7"/>
<rect x="467.4" y="79" class="st0" width="40.4" height="51.7"/>
<rect x="482.8" y="135.4" class="st0" width="24.3" height="8.3"/>
<rect x="455.5" y="136" class="st0" width="10.1" height="10.1"/>
<rect x="427.6" y="164.5" class="st0" width="24.9" height="8.9"/>
<rect x="383.1" y="179.3" class="st0" width="12.5" height="7.7"/>
<rect x="339.8" y="191.2" class="st0" width="26.7" height="12.5"/>
<rect x="355.2" y="291" class="st0" width="26.1" height="7.1"/>
<rect x="327.9" y="304.6" class="st0" width="22.6" height="7.1"/>
<rect x="228.1" y="318.9" class="st0" width="37.4" height="9.5"/>
<rect x="479.9" y="373.5" class="st0" width="25.5" height="10.1"/>
<rect x="525" y="374.7" class="st0" width="22.6" height="7.7"/>
<rect x="439.5" y="388.3" class="st0" width="10.7" height="10.7"/>
<rect x="701.3" y="259.5" class="st0" width="44.5" height="23.2"/>
<rect x="742.3" y="246.4" class="st0" width="31.5" height="25.5"/>
<rect x="769" y="231.6" class="st0" width="32.7" height="28.5"/>
<rect x="789.2" y="217.9" class="st0" width="39.8" height="37.4"/>
<rect x="825.4" y="193" class="st0" width="44.5" height="35.6"/>
<rect x="846.2" y="164.5" class="st0" width="35.6" height="41.6"/>
<rect x="837.9" y="150.3" class="st0" width="17.2" height="11.3"/>
<rect x="792.2" y="122.9" class="st0" width="24.9" height="13.1"/>
<rect x="805.8" y="136" class="st0" width="23.2" height="14.8"/>
<rect x="764.9" y="108.7" class="st0" width="20.2" height="13.1"/>
<rect x="734" y="92.1" class="st0" width="24.9" height="15.4"/>
<rect x="680.6" y="93.3" class="st0" width="56.4" height="18.4"/>
<rect x="621.2" y="107.5" class="st0" width="33.2" height="15.4"/>
<rect x="590.9" y="122.4" class="st0" width="26.1" height="16"/>
<rect x="548.2" y="121.8" class="st0" width="19" height="13.7"/>
<rect x="522.6" y="128.3" class="st0" width="19" height="17.8"/>
<rect x="510.2" y="115.8" class="st0" width="17.2" height="16"/>
<rect x="586.2" y="70.7" class="st0" width="17.8" height="16.6"/>
<rect x="823.6" y="232.8" class="st0" width="18.4" height="12.5"/>
<rect x="926.4" y="177" class="st0" width="13.7" height="10.1"/>
<rect x="903.2" y="206.1" class="st0" width="11.3" height="8.9"/>
<rect x="842" y="305.2" class="st0" width="13.1" height="8.3"/>
<rect x="802.3" y="321.2" class="st0" width="14.2" height="7.7"/>
<rect x="761.3" y="331.9" class="st0" width="24.9" height="9.5"/>
<rect x="665.7" y="296.3" class="st0" width="35" height="16.6"/>
<rect x="625.9" y="314.7" class="st0" width="19" height="13.1"/>
<rect x="587.9" y="329" class="st0" width="18.4" height="13.7"/>
<rect x="474.5" y="273.2" class="st0" width="83.7" height="26.1"/>
<rect x="496.5" y="286.8" class="st0" width="71.2" height="25.5"/>
<rect x="520.8" y="307" class="st0" width="51.1" height="33.8"/>
<rect x="423.5" y="285" class="st0" width="60" height="16"/>
<rect x="426.4" y="261.3" class="st0" width="21.4" height="8.9"/>
<rect x="466.8" y="231" class="st0" width="33.8" height="19.6"/>
<rect x="549.9" y="340.8" class="st0" width="29.1" height="13.7"/>
<rect x="464.4" y="303.4" class="st0" width="12.5" height="10.1"/>
<rect x="437.7" y="317.7" class="st0" width="13.1" height="10.1"/>
<rect x="467.4" y="330.7" class="st0" width="10.7" height="8.9"/>
<rect x="495.9" y="312.3" class="st0" width="36.8" height="16"/>
<rect x="508.4" y="344.4" class="st0" width="11.9" height="11.9"/>
<rect x="437.1" y="346.8" class="st0" width="14.8" height="10.1"/>
<rect x="384.3" y="316.5" class="st0" width="10.7" height="10.7"/>
<rect x="397.9" y="347.4" class="st0" width="8.9" height="9.5"/>
<rect x="240.6" y="289.8" class="st0" width="14.2" height="10.7"/>
<rect x="101.7" y="316.7" class="st0" width="17.2" height="10.7"/>
<rect x="507.2" y="374.1" class="st0" width="16.6" height="9.5"/>
<rect x="454.9" y="360.4" class="st0" width="8.3" height="10.1"/>
<rect x="455.5" y="330.7" class="st0" width="11.9" height="10.7"/>
<rect x="481.7" y="318.9" class="st0" width="10.1" height="8.3"/>
<rect x="495.9" y="331.3" class="st0" width="9.5" height="10.1"/>
<rect x="354.6" y="318.9" class="st0" width="10.1" height="9.5"/>
<rect x="371.2" y="346.8" class="st0" width="10.1" height="9.5"/>
<rect x="325.5" y="359.8" class="st0" width="11.9" height="9.5"/>
<rect x="352.8" y="387.7" class="st0" width="14.2" height="9.5"/>
<rect x="699" y="284.4" class="st0" width="20.2" height="19.6"/>
<rect x="760.7" y="289.2" class="st0" width="11.3" height="8.9"/>
<rect x="845" y="248.8" class="st0" width="10.1" height="8.9"/>
<rect x="732.8" y="319.5" class="st0" width="11.3" height="10.7"/>
<rect x="641.4" y="315.9" class="st0" width="19.6" height="11.9"/>
<rect x="648.5" y="343.8" class="st0" width="12.5" height="13.1"/>
<rect x="620" y="361" class="st0" width="12.5" height="10.1"/>
<rect x="593.3" y="361" class="st0" width="12.5" height="11.9"/>
<rect x="624.2" y="388.9" class="st0" width="8.9" height="8.9"/>
<rect x="888.4" y="205.5" class="st0" width="11.3" height="12.5"/>
<rect x="822.5" y="135.4" class="st0" width="19.6" height="12.5"/>
<rect x="847.4" y="122.4" class="st0" width="7.7" height="8.3"/>
<rect x="816.5" y="109.9" class="st0" width="10.1" height="7.7"/>
<rect x="788" y="92.7" class="st0" width="11.9" height="10.7"/>
<rect x="761.3" y="80.2" class="st0" width="10.1" height="8.3"/>
<rect x="732.2" y="67.1" class="st0" width="12.5" height="7.7"/>
<rect x="705.5" y="79.6" class="st0" width="11.9" height="10.7"/>
<rect x="886.6" y="163.9" class="st0" width="11.9" height="10.7"/>
<rect x="902.6" y="178.2" class="st0" width="9.5" height="9.5"/>
<rect x="855.1" y="149.7" class="st0" width="15.4" height="11.9"/>
<rect x="791" y="107.5" class="st0" width="8.3" height="11.3"/>
<rect x="873.5" y="108.1" class="st0" width="10.7" height="8.9"/>
<rect x="773.8" y="263.1" class="st0" width="10.7" height="8.9"/>
<rect x="818.3" y="276.7" class="st0" width="8.9" height="8.3"/>
<rect x="843.8" y="277.3" class="st0" width="10.7" height="8.3"/>
<rect x="704.9" y="346.2" class="st0" width="10.7" height="8.9"/>
<rect x="676.4" y="331.9" class="st0" width="11.9" height="11.3"/>
<rect x="662.7" y="317.7" class="st0" width="13.7" height="11.9"/>
<rect x="510.1" y="192.8" class="st0" width="12.9" height="29.4"/>
<rect x="525" y="165.4" class="st0" width="14.5" height="25.8"/>
<rect x="496.2" y="165.7" class="st0" width="9.7" height="8.1"/>
<rect x="494.6" y="220.9" class="st0" width="14.9" height="12.9"/>
<rect x="466.9" y="206.1" class="st0" width="10.3" height="8.7"/>
<rect x="497.2" y="204.5" class="st0" width="14.5" height="14.5"/>
<rect x="467.8" y="179.3" class="st0" width="10.7" height="7.8"/>
<rect x="439.7" y="220.3" class="st0" width="9.4" height="9"/>
<rect x="427.4" y="250" class="st0" width="25.2" height="11.9"/>
<rect x="419.4" y="273.6" class="st0" width="25.5" height="15.2"/>
<rect x="483.6" y="219.3" class="st0" width="14.5" height="16.1"/>
<rect x="525" y="143.4" class="st0" width="18.1" height="14.5"/>
<rect x="507.1" y="149.8" class="st0" width="14.8" height="42.6"/>
<rect x="494" y="190.2" class="st0" width="11.4" height="11.4"/>
<rect x="447.9" y="317.6" class="st0" width="31.3" height="8.5"/>
<rect x="425.8" y="301.6" class="st0" width="25" height="11.4"/>
<rect x="469.6" y="344.9" class="st0" width="25" height="10.8"/>
<rect x="467.3" y="192.5" class="st0" width="24.5" height="10.8"/>
<rect x="482.1" y="149.8" class="st0" width="10.2" height="10.8"/>
<rect x="522.4" y="50.3" class="st0" width="18.2" height="15.9"/>
<rect x="560.5" y="91.8" class="st0" width="29.6" height="11.9"/>
<rect x="603.8" y="328.4" class="st0" width="28.4" height="11.4"/>
<rect x="537.2" y="343.7" class="st0" width="19.3" height="11.9"/>
<rect x="301.2" y="401.2" class="st0" width="9.7" height="9.7"/>
<rect x="411.6" y="360.2" class="st0" width="9.1" height="8"/>
<rect x="397.3" y="290.3" class="st0" width="11.4" height="8"/>
<rect x="409.3" y="304.5" class="st0" width="14.2" height="10.2"/>
<rect x="426.3" y="331.2" class="st0" width="11.4" height="10.8"/>
<rect x="453.1" y="233.4" class="st0" width="21" height="20.5"/>
<rect x="454.2" y="222.6" class="st0" width="10.8" height="6.8"/>
<rect x="454.2" y="190.2" class="st0" width="10.8" height="10.2"/>
<rect x="410.4" y="206.7" class="st0" width="10.2" height="9.1"/>
<g>
	<path class="st5" d="M567.7,252.7c3.4-1.1,5.8-5,6-10.6c0.2-8.6-4.7-17.9-11-21c-2.4-1.1-4.6-1.2-6.5-0.4l23.6-7.9
		c1.9-0.8,4.1-0.7,6.5,0.4c6.3,3,11.2,12.4,11,21c-0.2,5.7-2.5,9.5-6,10.6L567.7,252.7z"/>
	<path class="st6" d="M459,293.7l111.3-37.1l10.6-3.5c4.3-1.4,7.4-6.3,7.6-13.5c0.3-10.8-5.9-22.7-13.9-26.6c-3-1.4-5.8-1.5-8.2-0.5
		l-10.7,3.5l-110.2,36.7"/>
	<path class="st7" d="M466,280.4c-0.3,10.8-7.1,16.5-15.1,12.7c-8-3.8-14.2-15.7-13.9-26.6c0.3-10.8,7.1-16.5,15.1-12.7
		C460.1,257.7,466.3,269.6,466,280.4z"/>
	<path class="st6" d="M460.1,281c-0.3,9.1-5.9,13.9-12.7,10.7c-6.7-3.2-12-13.2-11.7-22.4c0.3-9.1,5.9-13.9,12.7-10.7
		C455.2,261.9,460.4,271.9,460.1,281z"/>
</g>
<line class="st8" x1="463.4" y1="316.5" x2="840.7" y2="190.7"/>
<line class="st8" x1="494.8" y1="332.2" x2="872.1" y2="206.4"/>
<line class="st9" x1="414.1" y1="282.1" x2="310.8" y2="316.5"/>
<polygon class="st10" points="556.2,218.9 570.4,267.2 571.9,306.3 640.1,298.3 872.1,206.4 872.1,177.2 804.3,127.5 741.5,96.2 
	546,161.5 "/>
<line class="st9" x1="973.6" y1="170" x2="926.5" y2="185.7"/>
<g>
	<line class="st11" x1="807.2" y1="187.3" x2="826.9" y2="196.4"/>
	<line class="st11" x1="826.9" y1="238.2" x2="807.2" y2="229.1"/>
	<line class="st12" x1="826.9" y1="196.4" x2="647.6" y2="257"/>
	<line class="st11" x1="807.2" y1="229.1" x2="807.2" y2="203.1"/>
	<line class="st11" x1="746.9" y1="232.8" x2="802.7" y2="214"/>
	<line class="st11" x1="746.9" y1="237" x2="802.7" y2="218.2"/>
	<line class="st11" x1="746.9" y1="241.4" x2="802.7" y2="222.6"/>
</g>
<polyline class="st13" points="614.9,309.8 571.9,306.3 509.1,274.9 "/>
<line class="st8" x1="463.4" y1="215.2" x2="840.7" y2="89.4"/>
<line class="st9" x1="638.9" y1="182.7" x2="804.3" y2="127.5"/>
<line class="st14" x1="734.1" y1="124.8" x2="772.9" y2="111.9"/>
<g>
	<g>
		<path class="st15" d="M641.5,242.6L641.5,242.6c0.1,0,0.1-0.1,0.2-0.2c0.1-0.1,0.2-0.1,0.4-0.2c0.3-0.1,0.5-0.1,0.7,0
			c0.2,0.1,0.4,0.3,0.5,0.5c0.1,0.1,0.1,0.3,0.2,0.4c0,0.1,0.1,0.3,0.1,0.5c0,0.2,0,0.5,0,0.9c0,0.4,0,0.8,0,1.4c0,0.5,0,0.9,0,1.2
			c0,0.3,0,0.6,0,0.8c0,0.2-0.1,0.4-0.1,0.6c0,0.2-0.1,0.3-0.2,0.5c-0.2,0.5-0.4,0.9-0.8,1.3c-0.3,0.3-0.7,0.6-1.1,0.7
			s-0.8,0.1-1.1,0c-0.3-0.1-0.6-0.4-0.8-0.8c-0.1-0.1-0.1-0.3-0.2-0.4c0-0.1-0.1-0.3-0.1-0.5c0-0.2,0-0.4,0-0.7c0-0.3,0-0.7,0-1.1
			c0-0.4,0-0.8,0-1.1c0-0.3,0-0.5,0-0.8c0-0.2,0-0.4,0.1-0.6c0-0.2,0.1-0.4,0.1-0.6l1.9-7.8l1.6-0.5L641.5,242.6z M642.3,245
			c0-0.3-0.1-0.5-0.2-0.7c-0.1-0.1-0.3-0.2-0.5-0.1c-0.2,0.1-0.4,0.2-0.5,0.4c-0.1,0.2-0.2,0.5-0.2,0.8v2.6c0,0.3,0.1,0.5,0.2,0.7
			c0.1,0.1,0.3,0.2,0.5,0.1c0.2-0.1,0.4-0.2,0.5-0.4s0.2-0.5,0.2-0.8V245z"/>
		<path class="st15" d="M644.9,235.5l2.1-0.7c0.8-0.3,1.5-0.2,1.9,0.3c0.4,0.5,0.7,1.3,0.7,2.5v6.7c0,1.3-0.2,2.4-0.7,3.2
			c-0.5,0.8-1.1,1.3-2,1.6l-2,0.7V235.5z M646.3,247.4l0.7-0.2c0.4-0.1,0.7-0.4,0.9-0.7c0.2-0.3,0.3-0.8,0.3-1.4v-6.9
			c0-0.6-0.1-1-0.2-1.2s-0.5-0.3-0.9-0.2l-0.7,0.2V247.4z"/>
		<path class="st15" d="M650.9,233.5l2.1-0.7c0.5-0.2,0.9-0.2,1.2-0.1c0.3,0.1,0.6,0.3,0.8,0.5c0.2,0.3,0.4,0.6,0.4,1
			c0.1,0.4,0.1,0.8,0.1,1.3v0.5c0,0.4,0,0.7-0.1,1c0,0.3-0.1,0.5-0.2,0.8c-0.1,0.2-0.2,0.4-0.3,0.6c-0.1,0.2-0.3,0.4-0.4,0.6
			c0.3,0.1,0.6,0.4,0.8,0.8c0.2,0.4,0.2,1,0.2,1.7v0.8c0,1.3-0.2,2.3-0.6,3.1c-0.4,0.8-1.1,1.4-2.1,1.7l-2,0.7V233.5z M652.4,238.9
			l0.7-0.2c0.5-0.2,0.8-0.4,1-0.8c0.2-0.4,0.2-0.9,0.2-1.6c0-0.6-0.1-1.1-0.3-1.3c-0.2-0.3-0.5-0.3-1-0.1l-0.6,0.2V238.9z
			 M652.4,245.2l0.6-0.2c0.3-0.1,0.5-0.2,0.7-0.4c0.2-0.2,0.3-0.4,0.4-0.6c0.1-0.2,0.1-0.5,0.2-0.8c0-0.3,0-0.6,0-1
			c0-0.4,0-0.7,0-0.9c0-0.3-0.1-0.5-0.2-0.6c-0.1-0.1-0.2-0.2-0.4-0.3s-0.4,0-0.6,0.1l-0.6,0.2V245.2z"/>
	</g>
</g>
<line class="st9" x1="525.8" y1="366.2" x2="422.5" y2="400.6"/>
<line class="st9" x1="497.9" y1="128.4" x2="443.7" y2="146.4"/>
<line class="st9" x1="567.9" y1="366.3" x2="513.7" y2="384.4"/>
<line class="st9" x1="945.9" y1="198.3" x2="891.7" y2="216.4"/>
<line class="st9" x1="287.9" y1="310.3" x2="233.7" y2="328.4"/>
<line class="st9" x1="469.9" y1="156.3" x2="352.8" y2="195.3"/>
<line class="st9" x1="889.9" y1="297.3" x2="772.8" y2="336.3"/>
<polyline class="st16" points="646.5,158.5 633.1,184.8 608.7,192.9 617.5,168.2 "/>
<polyline class="st7" points="539.5,105.1 570.4,153.4 546,161.5 510.7,114.6 "/>
<g>
	<path class="st7" d="M582.2,86.5c3.4-1.1,5.8-5,6-10.6c0.2-8.6-4.7-17.9-11-21c-2.4-1.1-4.6-1.2-6.5-0.4l23.6-7.9
		c1.9-0.8,4.1-0.7,6.5,0.4c6.3,3,11.2,12.4,11,21c-0.2,5.7-2.5,9.5-6,10.6L582.2,86.5z"/>
	<path class="st6" d="M496.2,119.5l90.4-30.1l9.2-3.1c4.3-1.4,7.4-6.3,7.6-13.5c0.3-10.8-5.9-22.7-13.9-26.6c-3-1.4-5.8-1.5-8.2-0.5
		l-7,2.3l-91.6,30.5"/>
	<path class="st7" d="M503.7,106.1c-0.3,10.8-7.1,16.5-15.1,12.7c-8-3.8-14.2-15.7-13.9-26.6c0.3-10.8,7.1-16.5,15.1-12.7
		C497.7,83.3,504,95.2,503.7,106.1z"/>
	<path class="st6" d="M497.7,106.2c-0.3,9.1-5.9,13.9-12.7,10.7c-6.7-3.2-12-13.2-11.7-22.4c0.3-9.1,5.9-13.9,12.7-10.7
		C492.7,87.1,497.9,97.1,497.7,106.2z"/>
	<path class="st17" d="M493.8,104.3c-0.2,6.2-4.1,9.5-8.7,7.3c-4.6-2.2-8.2-9.1-8-15.3c0.2-6.2,4.1-9.5,8.7-7.3
		C490.4,91.2,494,98.1,493.8,104.3z"/>
</g>
<line class="st18" x1="570.4" y1="153.4" x2="582.3" y2="159.4"/>
<line class="st18" x1="614.9" y1="175.7" x2="606.9" y2="171.6"/>
<polygon class="st6" points="571.9,260.1 509.1,228.7 545.8,161.5 608.7,192.9 "/>
<polyline class="st6" points="571.9,306.3 509.1,274.9 509.1,229.3 571.9,260.7 "/>
<line class="st8" x1="829.6" y1="55.9" x2="851.8" y2="122.5"/>
<line class="st8" x1="840.7" y1="73.5" x2="840.7" y2="245"/>
<line class="st14" x1="509.1" y1="229.3" x2="546" y2="161.5"/>
<g>
	<path class="st7" d="M689,140c3.4-1.1,5.8-5,6-10.6c0.2-8.6-4.7-17.9-11-21c-2.4-1.1-4.6-1.2-6.5-0.4l23.6-7.9
		c1.9-0.8,4.1-0.7,6.5,0.4c6.3,3,11.2,12.4,11,21c-0.2,5.7-2.5,9.5-6,10.6L689,140z"/>
	<path class="st6" d="M603,173l90.4-30.1l9.2-3.1c4.3-1.4,7.4-6.3,7.6-13.5c0.3-10.8-5.9-22.7-13.9-26.6c-3-1.4-5.8-1.5-8.2-0.5
		l-7,2.3l-91.6,30.5"/>
	<path class="st7" d="M610.4,159.6c-0.3,10.8-7.1,16.5-15.1,12.7c-8-3.8-14.2-15.7-13.9-26.6c0.3-10.8,7.1-16.5,15.1-12.7
		C604.5,136.9,610.7,148.8,610.4,159.6z"/>
	<path class="st6" d="M604.4,159.7c-0.3,9.1-5.9,13.9-12.7,10.7c-6.7-3.2-12-13.2-11.7-22.4c0.3-9.1,5.9-13.9,12.7-10.7
		C599.4,140.6,604.6,150.6,604.4,159.7z"/>
	<path class="st17" d="M600.5,157.9c-0.2,6.2-4.1,9.5-8.7,7.3c-4.6-2.2-8.2-9.1-8-15.3c0.2-6.2,4.1-9.5,8.7-7.3
		C597.1,144.8,600.7,151.6,600.5,157.9z"/>
</g>
<polygon class="st19" points="562.4,285.5 513,260.8 515.8,254.4 565.2,279.1 "/>
<polygon class="st19" points="562.4,275.5 513,250.8 515.8,244.4 565.2,269.1 "/>
<polygon class="st19" points="589,195 542.8,171.9 551.1,169.1 597.3,192.2 "/>
<polygon class="st19" points="562.4,295.4 513,270.7 515.8,264.3 565.2,289 "/>
<line class="st16" x1="614.9" y1="309.8" x2="805.8" y2="232.7"/>
<polyline class="st16" points="813.6,229.6 872.1,206.4 872.1,177.2 804.3,127.6 741.5,96.2 "/>
<line class="st20" x1="647.7" y1="134.8" x2="694.8" y2="119.1"/>
<line class="st13" x1="716.8" y1="104.6" x2="741.9" y2="96.2"/>
<line class="st13" x1="570.7" y1="153.4" x2="577" y2="151.3"/>
<line class="st20" x1="592.2" y1="153.9" x2="599.5" y2="151.4"/>
<line class="st20" x1="542.3" y1="79.8" x2="589.4" y2="64.1"/>
<line class="st20" x1="485.6" y1="100.3" x2="492.8" y2="97.9"/>
<polygon class="st21" points="679.7,224.2 830.8,173.8 830.8,173.7 830.8,168.2 792.1,139.8 792.1,139.8 679.7,203.1 "/>
<polyline class="st22" points="571.7,306.5 508.9,275.1 508.9,227.1 "/>
<line class="st23" x1="538.1" y1="197.3" x2="581.7" y2="219.1"/>
<line class="st18" x1="621.8" y1="199.1" x2="585.1" y2="266.2"/>
<line class="st23" x1="559.9" y1="208.3" x2="550.6" y2="225.3"/>
<line class="st11" x1="614.9" y1="309.8" x2="826.9" y2="238.2"/>
<g>
	<path class="st5" d="M674.4,306.2c3.4-1.1,5.8-5,6-10.6c0.2-8.6-4.7-17.9-11-21c-2.4-1.1-4.6-1.2-6.5-0.4l23.6-7.9
		c1.9-0.8,4.1-0.7,6.5,0.4c6.3,3,11.2,12.4,11,21c-0.2,5.7-2.5,9.5-6,10.6L674.4,306.2z"/>
	<path class="st6" d="M565.8,347.2L677,310.2l10.6-3.5c4.3-1.4,7.4-6.3,7.6-13.5c0.3-10.8-5.9-22.7-13.9-26.6
		c-3-1.4-5.8-1.5-8.2-0.5l-10.7,3.5l-110.2,36.7"/>
	<path class="st7" d="M572.7,333.9c-0.3,10.8-7.1,16.5-15.1,12.7c-8-3.8-14.2-15.7-13.9-26.6c0.3-10.8,7.1-16.5,15.1-12.7
		C566.8,311.2,573,323.1,572.7,333.9z"/>
	<path class="st6" d="M566.9,334.5c-0.3,9.1-5.9,13.9-12.7,10.7c-6.7-3.2-12-13.2-11.7-22.4c0.3-9.1,5.9-13.9,12.7-10.7
		C561.9,315.4,567.1,325.4,566.9,334.5z"/>
	<path class="st17" d="M563.2,332.7c-0.2,6.4-4.1,9.7-8.8,7.4c-4.7-2.2-8.3-9.2-8.2-15.6c0.2-6.4,4.1-9.7,8.8-7.4
		C559.7,319.4,563.3,326.4,563.2,332.7z"/>
</g>
<path class="st17" d="M456.4,279.2c-0.2,6.4-4.1,9.7-8.8,7.4c-4.7-2.2-8.3-9.2-8.2-15.6c0.2-6.4,4.1-9.7,8.8-7.4
	C453,265.9,456.6,272.9,456.4,279.2z"/>
<line class="st20" x1="447.9" y1="275.1" x2="455.1" y2="272.8"/>
<line class="st20" x1="554.7" y1="328.7" x2="561.9" y2="326.3"/>
<polygon class="st24" points="622,265.5 653.7,302.4 668.4,297.6 645.8,257.6 "/>
<line class="st22" x1="695.6" y1="187" x2="695.6" y2="226.2"/>
<line class="st22" x1="723.5" y1="166.2" x2="723.5" y2="218"/>
</svg>
