<!-- Generator: Adobe Illustrator 19.2.1, SVG Export Plug-In  -->
<svg version="1.1"
	 xmlns="http://www.w3.org/2000/svg" xmlns:xlink="http://www.w3.org/1999/xlink" xmlns:a="http://ns.adobe.com/AdobeSVGViewerExtensions/3.0/"
	 x="0px" y="0px" width="711.9px" height="374px" viewBox="0 0 711.9 374" style="enable-background:new 0 0 711.9 374;"
	 xml:space="preserve">
<style type="text/css">
	.st0{fill:#F2F2F2;}
</style>
<defs>
</defs>
<g>
	<polygon class="st0" points="308.7,43.3 358,43.3 358,50.5 375.8,50.5 375.8,43.3 391.3,43.3 391.3,13.7 312.5,13.7 312.5,13.4 
		294.3,13.4 294.3,29.4 308.7,29.4 	"/>
	<rect x="337.2" class="st0" width="54" height="11.3"/>
	<rect x="247" y="27.9" class="st0" width="42.7" height="13.7"/>
	<rect x="239.3" y="42.2" class="st0" width="40.4" height="51.7"/>
	<rect x="254.7" y="98.6" class="st0" width="24.3" height="8.3"/>
	<rect x="227.4" y="99.2" class="st0" width="10.1" height="10.1"/>
	<rect x="199.5" y="127.6" class="st0" width="24.9" height="8.9"/>
	<rect x="155" y="142.5" class="st0" width="12.5" height="7.7"/>
	<rect x="111.6" y="154.4" class="st0" width="26.7" height="12.5"/>
	<rect x="127.1" y="254.1" class="st0" width="26.1" height="7.1"/>
	<rect x="99.7" y="267.8" class="st0" width="22.6" height="7.1"/>
	<rect y="282" class="st0" width="37.4" height="9.5"/>
	<rect x="251.7" y="336.6" class="st0" width="25.5" height="10.1"/>
	<rect x="296.9" y="337.8" class="st0" width="22.6" height="7.7"/>
	<rect x="211.4" y="351.5" class="st0" width="10.7" height="10.7"/>
	<polygon class="st0" points="627,124.7 642.4,124.7 642.4,112.8 627,112.8 627,113.4 600.8,113.4 600.8,111 613.9,111 613.9,98.6 
		594.3,98.6 594.3,99.2 589,99.2 589,86.1 530.8,86.1 530.8,85.5 557.1,84.5 556.7,71.5 530.8,72.4 530.8,55.2 505.8,55.2 
		505.8,56.4 452.4,56.4 452.4,74.8 426.3,74.8 426.3,70.7 393,70.7 393,86.1 396.6,86.1 396.6,99.2 388.9,99.2 388.9,85.5 
		362.8,85.5 362.8,99.2 313.5,99.2 313.5,91.4 299.2,91.4 299.2,79 282,79 282,95 294.5,95 294.5,109.2 296.8,109.2 296.8,121.1 
		310.2,121.1 310.2,128.5 296.8,128.5 296.8,154.4 310.2,154.4 310.2,156 282,156 282,167.6 269.1,167.6 269.1,182.1 282,182.1 
		282,184.1 270,184.1 270,182.5 255.5,182.5 255.5,194.1 238.7,194.1 238.7,196.6 224.9,196.6 224.9,217 246,217 246,213.7 
		246.4,213.7 246.4,248.2 216.7,248.2 216.7,236.7 191.2,236.7 191.2,251.9 195.3,251.9 195.3,264.2 255.3,264.2 255.3,262.4 
		268.4,262.4 268.4,275.5 267.8,275.5 267.8,291.5 292.7,291.5 292.7,304 321.8,304 321.8,306.9 309.1,306.9 309.1,318.8 
		328.4,318.8 328.4,317.6 350.9,317.6 350.9,304 343.8,304 343.8,270.1 339.6,270.1 339.6,262.4 437.6,262.4 437.6,276.1 
		472.6,276.1 472.6,267.2 491,267.2 491,247.6 478.4,247.6 478.4,245.8 517.7,245.8 517.7,235.1 545.6,235.1 556.3,235.1 
		556.3,226.2 545.6,226.2 545.6,223.2 573.5,223.2 573.5,218.5 600.8,218.5 600.8,208.4 613.9,208.4 613.9,195.9 600.8,195.9 
		600.8,191.8 641.8,191.8 641.8,169.2 653.7,169.2 653.7,127.6 627,127.6 	"/>
	<rect x="320" y="84.9" class="st0" width="19" height="13.7"/>
	<rect x="698.2" y="140.1" class="st0" width="13.7" height="10.1"/>
	<rect x="675.1" y="169.2" class="st0" width="11.3" height="8.9"/>
	<rect x="613.9" y="268.4" class="st0" width="13.1" height="8.3"/>
	<rect x="574.1" y="284.4" class="st0" width="14.2" height="7.7"/>
	<rect x="533.2" y="295.1" class="st0" width="24.9" height="9.5"/>
	<polygon class="st0" points="416.8,277.9 397.8,277.9 397.8,290.9 413.2,290.9 413.2,290.9 432.8,290.9 432.8,279 416.8,279 	"/>
	<polygon class="st0" points="219.7,225.1 224.5,225.1 224.5,213.1 199.3,213.1 199.3,224.4 198.3,224.4 198.3,233.3 219.7,233.3 	
		"/>
	<rect x="236.3" y="266.6" class="st0" width="12.5" height="10.1"/>
	<polygon class="st0" points="250,293.9 239.3,293.9 227.4,293.9 227.4,304.6 239.3,304.6 239.3,302.8 250,302.8 	"/>
	<rect x="280.2" y="307.5" class="st0" width="11.9" height="11.9"/>
	<rect x="209" y="309.9" class="st0" width="14.8" height="10.1"/>
	<rect x="156.1" y="279.6" class="st0" width="10.7" height="10.7"/>
	<rect x="169.8" y="310.5" class="st0" width="8.9" height="9.5"/>
	<rect x="12.5" y="252.9" class="st0" width="14.2" height="10.7"/>
	<rect x="279" y="337.2" class="st0" width="16.6" height="9.5"/>
	<rect x="226.8" y="323.6" class="st0" width="8.3" height="10.1"/>
	<rect x="253.5" y="282" class="st0" width="10.1" height="8.3"/>
	<rect x="267.8" y="294.5" class="st0" width="9.5" height="10.1"/>
	<rect x="126.5" y="282" class="st0" width="10.1" height="9.5"/>
	<rect x="143.1" y="309.9" class="st0" width="10.1" height="9.5"/>
	<rect x="97.4" y="323" class="st0" width="11.9" height="9.5"/>
	<rect x="124.7" y="350.9" class="st0" width="14.2" height="9.5"/>
	<rect x="532.6" y="252.3" class="st0" width="11.3" height="8.9"/>
	<rect x="616.9" y="212" class="st0" width="10.1" height="8.9"/>
	<rect x="504.7" y="282.6" class="st0" width="11.3" height="10.7"/>
	<rect x="420.4" y="307" class="st0" width="12.5" height="13.1"/>
	<rect x="391.9" y="324.2" class="st0" width="12.5" height="10.1"/>
	<rect x="365.1" y="324.2" class="st0" width="12.5" height="11.9"/>
	<rect x="396" y="352.1" class="st0" width="8.9" height="8.9"/>
	<rect x="660.2" y="168.6" class="st0" width="11.3" height="12.5"/>
	<rect x="619.2" y="85.5" class="st0" width="7.7" height="8.3"/>
	<rect x="588.4" y="73" class="st0" width="10.1" height="7.7"/>
	<rect x="559.9" y="55.8" class="st0" width="11.9" height="10.7"/>
	<rect x="533.2" y="43.3" class="st0" width="10.1" height="8.3"/>
	<rect x="504.1" y="30.3" class="st0" width="12.5" height="7.7"/>
	<rect x="477.4" y="42.7" class="st0" width="11.9" height="10.7"/>
	<rect x="658.4" y="127.1" class="st0" width="11.9" height="10.7"/>
	<rect x="674.5" y="141.3" class="st0" width="9.5" height="9.5"/>
	<rect x="562.8" y="70.7" class="st0" width="8.3" height="11.3"/>
	<rect x="645.4" y="71.2" class="st0" width="10.7" height="8.9"/>
	<rect x="590.2" y="239.9" class="st0" width="8.9" height="8.3"/>
	<rect x="615.7" y="240.5" class="st0" width="10.7" height="8.3"/>
	<rect x="476.8" y="309.3" class="st0" width="10.7" height="8.9"/>
	<rect x="448.3" y="295.1" class="st0" width="11.9" height="11.3"/>
	<rect x="434.6" y="280.8" class="st0" width="13.7" height="11.9"/>
	<rect x="268.1" y="128.8" class="st0" width="9.7" height="8.1"/>
	<rect x="238.7" y="169.2" class="st0" width="10.3" height="8.7"/>
	<rect x="239.7" y="142.4" class="st0" width="10.7" height="7.8"/>
	<rect x="211.6" y="183.4" class="st0" width="9.4" height="9"/>
	<rect x="278.9" y="113" class="st0" width="14.8" height="42.6"/>
	<rect x="265.9" y="153.3" class="st0" width="11.4" height="11.4"/>
	<polygon class="st0" points="219.8,280.8 209.6,280.8 209.6,290.9 222.6,290.9 222.6,289.2 251.1,289.2 251.1,280.7 219.8,280.7 	
		"/>
	<rect x="197.6" y="264.8" class="st0" width="25" height="11.4"/>
	<rect x="241.4" y="308" class="st0" width="25" height="10.8"/>
	<rect x="239.1" y="155.6" class="st0" width="24.5" height="10.8"/>
	<rect x="253.9" y="113" class="st0" width="10.2" height="10.8"/>
	<rect x="332.4" y="55" class="st0" width="29.6" height="11.9"/>
	<polygon class="st0" points="404.1,302.9 404.1,291.5 375.6,291.5 375.6,292.1 359.8,292.1 359.8,305.8 378.2,305.8 378.2,302.9 	
		"/>
	<rect x="73.1" y="364.3" class="st0" width="9.7" height="9.7"/>
	<rect x="183.4" y="323.4" class="st0" width="9.1" height="8"/>
	<rect x="169.2" y="253.4" class="st0" width="11.4" height="8"/>
	<rect x="181.1" y="267.6" class="st0" width="14.2" height="10.2"/>
	<rect x="198.2" y="294.4" class="st0" width="11.4" height="10.8"/>
	<rect x="226.1" y="185.7" class="st0" width="10.8" height="6.8"/>
	<rect x="226.1" y="153.3" class="st0" width="10.8" height="10.2"/>
	<rect x="182.3" y="169.8" class="st0" width="10.2" height="9.1"/>
</g>
</svg>
