<!-- Generator: Adobe Illustrator 19.2.1, SVG Export Plug-In  -->
<svg version="1.1"
	 xmlns="http://www.w3.org/2000/svg" xmlns:xlink="http://www.w3.org/1999/xlink" xmlns:a="http://ns.adobe.com/AdobeSVGViewerExtensions/3.0/"
	 x="0px" y="0px" width="145.5px" height="97.2px" viewBox="0 0 145.5 97.2" style="enable-background:new 0 0 145.5 97.2;"
	 xml:space="preserve">
<style type="text/css">
	.st0{fill:#222222;}
</style>
<defs>
</defs>
<g>
	<g>
		<path class="st0" d="M0,48.4l7.4-2.5c2.8-0.9,5-0.6,6.5,1.2c1.5,1.7,2.2,4.6,2.2,8.5v22.8c0,4.6-0.8,8.2-2.4,10.9
			c-1.6,2.7-3.8,4.5-6.8,5.5L0,97.2V48.4z M5,89l2.3-0.8c1.4-0.5,2.4-1.3,3-2.5c0.6-1.2,0.9-2.8,0.9-4.9V57.3c0-1.9-0.3-3.3-0.8-4.2
			c-0.6-0.9-1.6-1.1-3-0.6L5,53.3V89z"/>
		<path class="st0" d="M25.7,39.8l4.1-1.4l7.8,46.2l-5,1.7l-1.5-10l-6.8,2.3l-1.5,11l-5,1.7L25.7,39.8z M27.8,53.2L27.8,53.2
			l-2.5,18.5l5-1.7L27.8,53.2z"/>
		<path class="st0" d="M40.7,41.5l-5.8,1.9v-6.6l16.5-5.5v6.6l-5.8,1.9V82l-5,1.7V41.5z"/>
		<path class="st0" d="M56.4,29.6l4.1-1.4l7.8,46.2l-5,1.7l-1.5-10l-6.8,2.3l-1.5,11l-5,1.7L56.4,29.6z M58.5,43L58.5,43L56,61.5
			l5-1.7L58.5,43z"/>
		<path class="st0" d="M70.8,24.9l7.3-2.4c1.6-0.5,3-0.6,4.1-0.3c1.1,0.3,2,0.9,2.8,1.8c0.7,0.9,1.2,2,1.5,3.4
			c0.3,1.4,0.5,2.9,0.5,4.5v1.8c0,1.3-0.1,2.5-0.2,3.4c-0.1,1-0.4,1.8-0.7,2.6c-0.3,0.8-0.7,1.5-1.1,2.2c-0.4,0.7-0.9,1.3-1.5,2
			c1.2,0.4,2,1.3,2.6,2.6c0.6,1.3,0.8,3.3,0.8,5.9V55c0,4.3-0.7,7.8-2.2,10.6c-1.5,2.8-3.8,4.7-7.1,5.8l-6.8,2.3V24.9z M75.7,43.2
			l2.2-0.7c1.7-0.6,2.8-1.5,3.3-2.9c0.6-1.4,0.9-3.2,0.9-5.4c0-2.2-0.3-3.7-1-4.6c-0.6-0.9-1.8-1.1-3.4-0.5l-2,0.7V43.2z M75.7,65
			l2.1-0.7c1-0.3,1.8-0.8,2.4-1.4c0.6-0.6,1-1.3,1.3-2.1c0.3-0.8,0.5-1.8,0.5-2.8c0.1-1,0.1-2.1,0.1-3.3c0-1.2,0-2.3-0.1-3.2
			c-0.1-0.9-0.3-1.6-0.6-2.1c-0.3-0.5-0.7-0.8-1.3-1c-0.6-0.1-1.3-0.1-2.2,0.3l-2.2,0.7V65z"/>
		<path class="st0" d="M96.5,16.3l4.1-1.4l7.8,46.2l-5,1.7l-1.5-10l-6.8,2.3l-1.5,11l-5,1.7L96.5,16.3z M98.6,29.7L98.6,29.7
			L96,48.2l5-1.7L98.6,29.7z"/>
		<path class="st0" d="M126.9,20.2l-5,1.7v-1.6c0-1.6-0.3-2.9-0.8-3.9c-0.5-1-1.4-1.3-2.7-0.8c-0.7,0.2-1.2,0.6-1.7,1.1
			c-0.4,0.5-0.8,1.1-1,1.7c-0.2,0.7-0.4,1.4-0.5,2.2c-0.1,0.8-0.1,1.6-0.1,2.4c0,1,0,1.8,0.1,2.4c0,0.6,0.2,1.2,0.4,1.6
			c0.2,0.4,0.5,0.7,0.9,1c0.4,0.2,0.9,0.4,1.5,0.6l3.8,0.9c1.1,0.2,2,0.6,2.7,1.2c0.7,0.6,1.2,1.3,1.6,2.3c0.4,1,0.6,2.1,0.8,3.5
			c0.1,1.4,0.2,2.9,0.2,4.7c0,2.1-0.1,4-0.4,5.9c-0.3,1.9-0.8,3.5-1.4,5c-0.7,1.5-1.6,2.8-2.7,3.9s-2.5,1.9-4.1,2.4
			c-1.2,0.4-2.3,0.5-3.4,0.2c-1-0.2-1.9-0.8-2.7-1.5c-0.7-0.8-1.3-1.8-1.8-3.1c-0.4-1.3-0.7-2.7-0.7-4.4v-2.6l5-1.7v2.2
			c0,1.3,0.3,2.3,0.8,3.2c0.5,0.9,1.4,1.1,2.7,0.6c0.8-0.3,1.5-0.7,2-1.2c0.5-0.5,0.8-1.1,1.1-1.8c0.2-0.7,0.4-1.5,0.5-2.5
			c0.1-0.9,0.1-2,0.1-3c0-1.3,0-2.3-0.1-3.1c-0.1-0.8-0.2-1.4-0.4-1.9c-0.2-0.4-0.5-0.7-0.9-0.9c-0.4-0.2-0.9-0.4-1.5-0.5l-3.6-0.9
			c-2.1-0.5-3.6-1.7-4.3-3.5c-0.7-1.8-1.1-4.2-1.1-7.3c0-1.8,0.2-3.6,0.5-5.4c0.4-1.8,0.9-3.4,1.6-4.8c0.7-1.4,1.6-2.7,2.7-3.7
			c1.1-1.1,2.3-1.8,3.8-2.3c1.2-0.4,2.4-0.5,3.4-0.2c1,0.3,1.9,0.9,2.6,1.7c0.7,0.8,1.3,1.8,1.7,3c0.4,1.2,0.6,2.4,0.6,3.8V20.2z"/>
		<path class="st0" d="M130.6,4.9L145.5,0v6.6l-9.9,3.3v14.3l8.6-2.9v6.6l-8.6,2.9v14.3l9.9-3.3v7l-14.8,4.9V4.9z"/>
	</g>
</g>
</svg>
