<!-- Generator: Adobe Illustrator 19.2.1, SVG Export Plug-In  -->
<svg version="1.1"
	 xmlns="http://www.w3.org/2000/svg" xmlns:xlink="http://www.w3.org/1999/xlink" xmlns:a="http://ns.adobe.com/AdobeSVGViewerExtensions/3.0/"
	 x="0px" y="0px" width="203.8px" height="103.2px" viewBox="0 0 203.8 103.2" style="enable-background:new 0 0 203.8 103.2;"
	 xml:space="preserve">
<style type="text/css">
	.st0{fill:#752AF3;stroke:#FFFFFF;stroke-width:1.2475;stroke-linecap:round;stroke-linejoin:round;stroke-miterlimit:10;}
	.st1{fill:#752AF3;}
	.st2{fill:#FFFFFF;}
	.st3{fill:none;stroke:#FFFFFF;stroke-linecap:round;stroke-linejoin:round;}
	.st4{fill:none;stroke:#FFFFFF;stroke-linecap:round;stroke-linejoin:round;stroke-dasharray:0.5009,3.0053;}
	.st5{fill:none;stroke:#FFFFFF;stroke-width:1.2475;stroke-linecap:round;stroke-linejoin:round;stroke-miterlimit:10;}
</style>
<defs>
</defs>
<g>
	<g>
		<g>
			<polygon class="st0" points="12.6,39.2 89.1,77.4 89.1,96.6 12.6,58.3 			"/>
			<polyline class="st0" points="89.1,77.4 202.6,39.5 202.6,58.6 89.1,96.6 			"/>
			<g>
				<path class="st1" d="M89.1,78.1c-0.1,0-0.2,0-0.3-0.1L12.4,39.8c-0.2-0.1-0.4-0.4-0.3-0.6c0-0.3,0.2-0.5,0.4-0.5l113.5-38
					c0.1,0,0.1,0,0.2,0c0.1,0,0.2,0,0.3,0.1l76.5,38.2c0.2,0.1,0.4,0.4,0.3,0.6s-0.2,0.5-0.4,0.5L89.3,78
					C89.3,78.1,89.2,78.1,89.1,78.1z"/>
				<g>
					<path class="st2" d="M126.1,1.2l76.5,38.2l-113.5,38L12.6,39.2L126.1,1.2 M126.1,0c-0.1,0-0.3,0-0.4,0.1L12.2,38
						c-0.5,0.2-0.8,0.6-0.8,1.1c0,0.5,0.2,1,0.7,1.2l76.5,38.2c0.2,0.1,0.4,0.1,0.6,0.1c0.1,0,0.3,0,0.4-0.1l113.5-38
						c0.5-0.2,0.8-0.6,0.8-1.1c0-0.5-0.2-1-0.7-1.2L126.7,0.1C126.5,0,126.3,0,126.1,0L126.1,0z"/>
				</g>
			</g>
		</g>
	</g>
	<polygon class="st0" points="89.2,77.4 101.2,83.5 101.2,102.6 89.2,96.6 	"/>
	<polygon class="st0" points="0.6,33 12.6,39 12.6,58.1 0.6,52.1 	"/>
	<g>
		<g>
			<line class="st3" x1="19.2" y1="55.6" x2="19.4" y2="55.8"/>
			<line class="st4" x1="22.1" y1="57.1" x2="80.4" y2="86.2"/>
			<line class="st3" x1="81.7" y1="86.9" x2="81.9" y2="87"/>
		</g>
	</g>
	<g>
		<g>
			<line class="st3" x1="19.2" y1="52.2" x2="19.4" y2="52.3"/>
			<line class="st4" x1="22.1" y1="53.6" x2="80.4" y2="82.8"/>
			<line class="st3" x1="81.7" y1="83.4" x2="81.9" y2="83.5"/>
		</g>
	</g>
	<line class="st5" x1="154" y1="55.6" x2="111.1" y2="34.2"/>
	<line class="st5" x1="133.4" y1="62.4" x2="101.6" y2="46.6"/>
</g>
</svg>
