<!-- Generator: Adobe Illustrator 19.2.1, SVG Export Plug-In  -->
<svg version="1.1"
	 xmlns="http://www.w3.org/2000/svg" xmlns:xlink="http://www.w3.org/1999/xlink" xmlns:a="http://ns.adobe.com/AdobeSVGViewerExtensions/3.0/"
	 x="0px" y="0px" width="203.8px" height="126.3px" viewBox="0 0 203.8 126.3" style="enable-background:new 0 0 203.8 126.3;"
	 xml:space="preserve">
<style type="text/css">
	.st0{fill:#752AF3;stroke:#FFFFFF;stroke-width:1.2475;stroke-linecap:round;stroke-linejoin:round;stroke-miterlimit:10;}
	.st1{fill:#752AF3;}
	.st2{fill:#FFFFFF;}
	.st3{fill:none;stroke:#FFFFFF;stroke-linecap:round;stroke-linejoin:round;}
	.st4{fill:none;stroke:#FFFFFF;stroke-linecap:round;stroke-linejoin:round;stroke-dasharray:0.5009,3.0053;}
	.st5{fill:none;stroke:#FFFFFF;stroke-width:1.2475;stroke-linecap:round;stroke-linejoin:round;stroke-miterlimit:10;}
	.st6{fill:none;stroke:#7629F4;stroke-width:10;stroke-linejoin:round;stroke-miterlimit:10;}
</style>
<defs>
</defs>
<g>
	<g>
		<g>
			<polygon class="st0" points="12.6,62.3 89.1,100.5 89.1,119.6 12.6,81.4 			"/>
			<polyline class="st0" points="89.1,100.5 202.6,62.6 202.6,81.7 89.1,119.6 			"/>
			<g>
				<path class="st1" d="M89.1,101.1c-0.1,0-0.2,0-0.3-0.1L12.4,62.8c-0.2-0.1-0.4-0.4-0.3-0.6c0-0.3,0.2-0.5,0.4-0.5l113.5-38
					c0.1,0,0.1,0,0.2,0c0.1,0,0.2,0,0.3,0.1L202.9,62c0.2,0.1,0.4,0.4,0.3,0.6s-0.2,0.5-0.4,0.5l-113.5,38
					C89.3,101.1,89.2,101.1,89.1,101.1z"/>
				<g>
					<path class="st2" d="M126.1,24.3l76.5,38.2l-113.5,38L12.6,62.3L126.1,24.3 M126.1,23.1c-0.1,0-0.3,0-0.4,0.1l-113.5,38
						c-0.5,0.2-0.8,0.6-0.8,1.1c0,0.5,0.2,1,0.7,1.2l76.5,38.2c0.2,0.1,0.4,0.1,0.6,0.1c0.1,0,0.3,0,0.4-0.1l113.5-38
						c0.5-0.2,0.8-0.6,0.8-1.1c0-0.5-0.2-1-0.7-1.2l-76.5-38.2C126.5,23.1,126.3,23.1,126.1,23.1L126.1,23.1z"/>
				</g>
			</g>
		</g>
	</g>
	<polygon class="st0" points="89.2,100.5 101.2,106.5 101.2,125.7 89.2,119.6 	"/>
	<polygon class="st0" points="0.6,56.1 12.6,62.1 12.6,81.2 0.6,75.2 	"/>
	<g>
		<g>
			<line class="st3" x1="19.2" y1="78.7" x2="19.4" y2="78.8"/>
			<line class="st4" x1="22.1" y1="80.2" x2="80.4" y2="109.3"/>
			<line class="st3" x1="81.7" y1="110" x2="81.9" y2="110.1"/>
		</g>
	</g>
	<g>
		<g>
			<line class="st3" x1="19.2" y1="75.3" x2="19.4" y2="75.4"/>
			<line class="st4" x1="22.1" y1="76.7" x2="80.4" y2="105.8"/>
			<line class="st3" x1="81.7" y1="106.5" x2="81.9" y2="106.6"/>
		</g>
	</g>
	<line class="st5" x1="154" y1="78.7" x2="111.1" y2="57.3"/>
	<line class="st5" x1="133.4" y1="85.5" x2="101.6" y2="69.7"/>
</g>
<polyline class="st6" points="25.4,19.8 41.1,35.5 73.1,3.5 "/>
</svg>
