<!-- Generator: Adobe Illustrator 19.2.1, SVG Export Plug-In  -->
<svg version="1.1"
	 xmlns="http://www.w3.org/2000/svg" xmlns:xlink="http://www.w3.org/1999/xlink" xmlns:a="http://ns.adobe.com/AdobeSVGViewerExtensions/3.0/"
	 x="0px" y="0px" width="1260.5px" height="696.7px" viewBox="0 0 1260.5 696.7" style="enable-background:new 0 0 1260.5 696.7;"
	 xml:space="preserve">
<style type="text/css">
	.st0{fill:#7629F4;}
	.st1{fill:none;stroke:#FFFFFF;stroke-linecap:round;stroke-linejoin:round;stroke-miterlimit:10;}
	.st2{fill:#FFFFFF;}
	.st3{fill:#FFFFFF;stroke:#FFFFFF;stroke-linecap:round;stroke-linejoin:round;stroke-miterlimit:10;}
	.st4{fill:#FFFFFF;stroke:#7629F4;stroke-linecap:round;stroke-linejoin:round;stroke-miterlimit:10;}
	.st5{fill:#7629F4;stroke:#FFFFFF;stroke-linecap:round;stroke-linejoin:round;stroke-miterlimit:10;}
	.st6{fill:none;stroke:#7629F4;stroke-width:2;stroke-miterlimit:10;}
	.st7{fill:none;stroke:#FFFFFF;stroke-miterlimit:10;}
</style>
<defs>
</defs>
<g>
	<g>
		<g>
			<g>
				<g>
					<rect class="st0" width="1260.5" height="696.7"/>
				</g>
			</g>
		</g>
	</g>
	<path class="st1" d="M195.3,541c-39.8,21-78,44.8-114.2,71.1"/>
	<path class="st1" d="M816.5,452.2c-60.1-12.1-122.3-18.5-186-18.5c-110.1,0-215.8,19.1-313.9,54.1"/>
	<path class="st1" d="M1179.9,612.1c-54.5-39.6-113.5-73.5-176-100.8"/>
	<line class="st1" x1="1015" y1="480.6" x2="1003.8" y2="511.2"/>
	<line class="st1" x1="821.9" y1="431.4" x2="816.5" y2="452.2"/>
	<line class="st1" x1="957.5" y1="484.4" x2="952.1" y2="505.2"/>
	<line class="st1" x1="313.9" y1="481" x2="316.6" y2="487.7"/>
	<line class="st1" x1="193.6" y1="506.1" x2="204.9" y2="534.1"/>
	<line class="st1" x1="308.6" y1="485.6" x2="314.5" y2="499.6"/>
	<line class="st1" x1="1031.8" y1="466.3" x2="1017.2" y2="503.2"/>
	
		<ellipse transform="matrix(0.5684 -0.8228 0.8228 0.5684 -195.269 322.214)" class="st2" cx="209.5" cy="347.2" rx="40.6" ry="40.6"/>
	<g>
		<circle class="st2" cx="112.5" cy="533.3" r="1"/>
	</g>
	<g>
		<circle class="st2" cx="156.5" cy="431.1" r="1"/>
	</g>
	<g>
		<circle class="st2" cx="364.5" cy="295.3" r="1"/>
	</g>
	<g>
		<circle class="st2" cx="408.5" cy="316.3" r="1"/>
	</g>
	<g>
		<circle class="st2" cx="1021.1" cy="346.1" r="1"/>
	</g>
	<g>
		<circle class="st2" cx="1079.5" cy="465.3" r="1"/>
	</g>
	<g>
		<circle class="st2" cx="280.5" cy="263.2" r="1"/>
	</g>
	<g>
		<circle class="st2" cx="1155.6" cy="351.3" r="1"/>
	</g>
	<g>
		<circle class="st2" cx="1093.5" cy="523.3" r="1"/>
	</g>
	<g>
		<circle class="st2" cx="350.5" cy="444.3" r="1"/>
	</g>
	<g>
		<circle class="st2" cx="352.5" cy="459.3" r="1"/>
	</g>
	<g>
		<circle class="st2" cx="418.5" cy="444.3" r="1"/>
	</g>
	<g>
		<circle class="st2" cx="316.6" cy="444.3" r="1"/>
	</g>
	<g>
		<circle class="st2" cx="1051.5" cy="517.3" r="1"/>
	</g>
	<g>
		<circle class="st2" cx="84.5" cy="586.3" r="1"/>
	</g>
	<g>
		<circle class="st2" cx="150.9" cy="552.4" r="1"/>
	</g>
	<g>
		<circle class="st2" cx="337.5" cy="463.3" r="1"/>
	</g>
	<g>
		<circle class="st2" cx="387.7" cy="443.3" r="1"/>
	</g>
	<g>
		<circle class="st2" cx="366.5" cy="453.3" r="1"/>
	</g>
	<g>
		<circle class="st2" cx="1091.8" cy="261.2" r="1"/>
	</g>
	<g>
		<circle class="st2" cx="250" cy="267.3" r="1"/>
	</g>
	<g>
		<circle class="st2" cx="99.5" cy="395.3" r="1"/>
	</g>
	<g>
		<circle class="st2" cx="287.5" cy="272.3" r="1"/>
	</g>
	<g>
		<circle class="st2" cx="1136.5" cy="438.3" r="1"/>
	</g>
	<g>
		<circle class="st2" cx="924.5" cy="432.3" r="1"/>
	</g>
	<g>
		<circle class="st2" cx="1066.5" cy="507.3" r="1"/>
	</g>
	<g>
		<circle class="st2" cx="1077.5" cy="526.4" r="1"/>
	</g>
	<g>
		<circle class="st2" cx="1124.5" cy="538.4" r="1"/>
	</g>
	<g>
		<circle class="st2" cx="1157.6" cy="505.3" r="1"/>
	</g>
	<g>
		<circle class="st2" cx="366.5" cy="438.3" r="1"/>
	</g>
	<g>
		<circle class="st2" cx="167.5" cy="541" r="1"/>
	</g>
	<g>
		<circle class="st2" cx="126.5" cy="561.3" r="1"/>
	</g>
	<g>
		<circle class="st2" cx="181.5" cy="525.4" r="1"/>
	</g>
	<g>
		<circle class="st2" cx="216.9" cy="504.3" r="1"/>
	</g>
	<g>
		<circle class="st2" cx="166.5" cy="525.4" r="1"/>
	</g>
	<g>
		<circle class="st2" cx="231.6" cy="485.6" r="1"/>
	</g>
	<g>
		<circle class="st2" cx="142.5" cy="547.3" r="1"/>
	</g>
	<g>
		<circle class="st2" cx="113.5" cy="566.3" r="1"/>
	</g>
	<g>
		<circle class="st2" cx="98.5" cy="552.4" r="1"/>
	</g>
	<g>
		<circle class="st2" cx="349.9" cy="324.3" r="1"/>
	</g>
	<g>
		<circle class="st2" cx="324.5" cy="391.3" r="1"/>
	</g>
	<g>
		<circle class="st2" cx="151.9" cy="450.3" r="1"/>
	</g>
	<g>
		<circle class="st2" cx="242.5" cy="296.3" r="1"/>
	</g>
	<g>
		<circle class="st2" cx="182.5" cy="467.3" r="1"/>
	</g>
	<g>
		<circle class="st2" cx="222.7" cy="468.3" r="1"/>
	</g>
	<g>
		<circle class="st2" cx="242.5" cy="452.2" r="1"/>
	</g>
	<g>
		<circle class="st2" cx="1080.5" cy="359.3" r="1"/>
	</g>
	<g>
		<circle class="st2" cx="254.5" cy="399.3" r="1"/>
	</g>
	<g>
		<circle class="st2" cx="1126.5" cy="484.4" r="1"/>
	</g>
	<g>
		<circle class="st2" cx="1058" cy="484.4" r="1"/>
	</g>
	<g>
		<circle class="st2" cx="1102.2" cy="511.2" r="1"/>
	</g>
	<g>
		<circle class="st2" cx="1067.5" cy="516.3" r="1"/>
	</g>
	<g>
		<circle class="st2" cx="1113" cy="542" r="1"/>
	</g>
	<g>
		<circle class="st2" cx="1148.5" cy="576.5" r="1"/>
	</g>
	<g>
		<circle class="st2" cx="1129.5" cy="543" r="1"/>
	</g>
	<g>
		<circle class="st2" cx="1106.5" cy="522.3" r="1"/>
	</g>
	<g>
		<circle class="st2" cx="1064.5" cy="522.3" r="1"/>
	</g>
	<g>
		<circle class="st2" cx="1103.2" cy="422.3" r="1"/>
	</g>
	<g>
		<circle class="st2" cx="238.5" cy="442.8" r="1"/>
	</g>
	<g>
		<circle class="st2" cx="385.7" cy="272.3" r="1"/>
	</g>
	<g>
		<circle class="st2" cx="73.5" cy="501.6" r="1"/>
	</g>
	<g>
		<circle class="st2" cx="1043" cy="436.3" r="1"/>
	</g>
	<g>
		<circle class="st2" cx="1088.1" cy="431.4" r="1"/>
	</g>
	<g>
		<circle class="st2" cx="1128.5" cy="529.5" r="1"/>
	</g>
	<g>
		<circle class="st2" cx="401.5" cy="445.3" r="1"/>
	</g>
	<g>
		<circle class="st2" cx="325.5" cy="462.3" r="1"/>
	</g>
	<g>
		<circle class="st2" cx="280.5" cy="487.6" r="1"/>
	</g>
	<g>
		<circle class="st2" cx="175.6" cy="506.3" r="1"/>
	</g>
	<g>
		<circle class="st2" cx="154.5" cy="530.3" r="1"/>
	</g>
	<g>
		<circle class="st2" cx="142.5" cy="517.3" r="1"/>
	</g>
	<g>
		<circle class="st2" cx="114.5" cy="574.3" r="1"/>
	</g>
	<g>
		<circle class="st2" cx="285.5" cy="483.4" r="1"/>
	</g>
	<g>
		<circle class="st2" cx="128.5" cy="501.3" r="1"/>
	</g>
	<g>
		<circle class="st2" cx="298.4" cy="464.3" r="1"/>
	</g>
	<g>
		<circle class="st2" cx="294.5" cy="414.3" r="1"/>
	</g>
	<g>
		<circle class="st2" cx="154.5" cy="490.3" r="1"/>
	</g>
	<g>
		<circle class="st2" cx="1085.5" cy="491.3" r="1"/>
	</g>
	<g>
		<circle class="st2" cx="1005.6" cy="310.3" r="1"/>
	</g>
	<polyline class="st3" points="380.7,367.3 398.2,363.4 407.8,364.6 408.7,368.6 383.9,374.2 378.6,370.7 	"/>
	<line class="st1" x1="371.1" y1="392.7" x2="385.1" y2="388.5"/>
	<polygon class="st3" points="358.9,372.5 345.7,361.4 355.6,358.1 368.8,369.2 	"/>
	<polygon class="st3" points="363.1,379.4 349.9,378.7 357.8,376.1 366.3,376.1 367.4,378 	"/>
	<polyline class="st4" points="356.6,370.5 372.9,365.1 376.7,365.2 384.3,369 383.9,370.5 367.5,376 	"/>
	<polygon class="st5" points="371.1,392.7 360.2,387.3 358.9,383.8 355.3,372.1 356.6,370.5 367.5,376 368.8,378.9 372.4,390.6 	"/>
	<polyline class="st1" points="397.2,375.8 408.7,372 408.7,375 385.1,388.5 	"/>
	<polygon class="st3" points="375,385.3 388.1,397.8 396,395.2 384.9,382 	"/>
	<polyline class="st0" points="254.1,494.8 233.7,502.4 203.1,566.2 229.6,557.8 	"/>
	<path class="st1" d="M353.5,392c-27.8,17.9-53.4,39.6-76.1,65.2c-55,61.9-85.6,137.9-93.5,218.4"/>
	<path class="st0" d="M230.8,316.4c-17-11.8-40.4-7.5-52.1,9.5c-11.8,17-7.5,40.4,9.5,52.1"/>
	<ellipse transform="matrix(0.9787 -0.2051 0.2051 0.9787 -56.7715 69.0049)" class="st2" cx="304.5" cy="308.4" rx="18" ry="18"/>
	<path class="st0" d="M313.1,295.2c-7.3-4.7-17-2.7-21.7,4.6c-4.7,7.3-2.7,17,4.5,21.7"/>
	
		<ellipse transform="matrix(0.9035 -0.4286 0.4286 0.9035 -140.2327 132.3681)" class="st0" cx="223.8" cy="377.6" rx="7.6" ry="3.2"/>
	
		<ellipse transform="matrix(0.9898 -0.1428 0.1428 0.9898 -46.1034 37.8447)" class="st0" cx="240.6" cy="340.1" rx="2.8" ry="5.1"/>
	
		<ellipse transform="matrix(0.7319 -0.6814 0.6814 0.7319 -189.5008 252.3015)" class="st0" cx="225.9" cy="367" rx="3.8" ry="2.2"/>
	<path class="st6" d="M163.5,326.6c-22.7-0.5-46.9,4.5-48.3,11.5c-2.1,10.8,44,23.4,88,31.8c45.1,8.6,91.4,5.6,93.5-5.6
		c1.4-7.1-12.3-16.3-34-24.1"/>
	<path class="st7" d="M163.5,327.5c-22.7-0.5-46.9,4.5-48.3,11.5c-2.1,10.8,44,23.4,88,31.8c45.1,8.6,91.4,5.6,93.5-5.6
		c1.4-7.1-12.3-16.3-34-24.1"/>
	<g id="Layer_1_3_">
		<g id="Layer_1_4_">
			<path class="st1" d="M991.2,448.4l-2.8,6.5l0,0c-0.4,1.1,0.6,2.5,2.2,3.1c1.6,0.6,3.3,0.2,3.7-0.9l0,0l2.7-6.3"/>
			<path class="st1" d="M994.9,447.5c-1.6-0.6-3.3-0.2-3.7,0.9c-0.4,1.1,0.6,2.5,2.2,3.1c1.6,0.6,3.3,0.2,3.7-0.9
				C997.6,449.6,996.6,448.2,994.9,447.5z"/>
			<path class="st5" d="M1007.2,432.2l-6.7,15.9l0,0c-0.7,1.8-3.3,2.3-6,1.3c-2.7-1-4.3-3.3-3.6-5.1l0,0l6.8-16.1"/>
			<polygon class="st5" points="1003.1,441.7 1006.6,433.6 1020.1,428.1 1016.6,436.3 			"/>
			<polygon class="st5" points="978,451.7 981.5,443.6 997.9,437 994.4,445.1 			"/>
			<path class="st1" d="M980.1,451"/>
			<path class="st1" d="M1001.6,426.3c-1.9-0.1-3.5,0.6-4,2c-0.7,1.8,0.9,4.2,3.6,5.2c2.7,1,5.4,0.3,6.1-1.5
				c0.5-1.3-0.1-2.7-1.4-3.9"/>
			<path class="st5" d="M1005.3,423.3c-1.5-0.6-3.1-0.2-3.5,0.9c-0.4,1,0.5,2.3,2,2.9c1.5,0.6,3.1,0.2,3.5-0.9
				C1007.7,425.1,1006.8,423.8,1005.3,423.3z"/>
		</g>
	</g>
	<g>
		<path class="st2" d="M387.2,382.7l-13.2-2.2c-0.2,0-0.4-0.2-0.4-0.5c0-0.2,0.1-0.4,0.3-0.5l9.9-3.3c0.1,0,0.1,0,0.2,0
			c0,0,0.1,0,0.1,0l13.2,2.2c0.2,0,0.4,0.2,0.4,0.5c0,0.2-0.1,0.4-0.3,0.5l-9.9,3.3C387.4,382.7,387.4,382.7,387.2,382.7
			C387.3,382.7,387.2,382.7,387.2,382.7z"/>
		<path class="st0" d="M384,376.8l13.2,2.2l-9.9,3.3l-13.2-2.2L384,376.8 M384,375.8c-0.1,0-0.2,0-0.3,0.1l-9.9,3.3
			c-0.4,0.1-0.7,0.6-0.7,1c0,0.5,0.4,0.8,0.8,0.9l13.2,2.2c0.1,0,0.1,0,0.2,0c0.1,0,0.2,0,0.3-0.1l9.9-3.3c0.4-0.1,0.7-0.6,0.7-1
			s-0.4-0.8-0.8-0.9l-13.2-2.2C384.1,375.8,384.1,375.8,384,375.8L384,375.8z"/>
	</g>
</g>
</svg>
