<!-- Generator: Adobe Illustrator 19.2.1, SVG Export Plug-In  -->
<svg version="1.1"
	 xmlns="http://www.w3.org/2000/svg" xmlns:xlink="http://www.w3.org/1999/xlink" xmlns:a="http://ns.adobe.com/AdobeSVGViewerExtensions/3.0/"
	 x="0px" y="0px" width="43.1px" height="36.3px" viewBox="0 0 43.1 36.3" style="enable-background:new 0 0 43.1 36.3;"
	 xml:space="preserve">
<style type="text/css">
	.st0{fill:none;stroke:#FFFFFF;stroke-linecap:round;stroke-linejoin:round;stroke-miterlimit:10;}
	.st1{fill:#7629F4;stroke:#FFFFFF;stroke-linecap:round;stroke-linejoin:round;stroke-miterlimit:10;}
</style>
<defs>
</defs>
<g id="Layer_1_3_">
	<g id="Layer_1_4_">
		<path class="st0" d="M13.8,25.9L11,32.4l0,0c-0.4,1.1,0.6,2.5,2.2,3.1c1.6,0.6,3.3,0.2,3.7-0.9l0,0l2.7-6.3"/>
		<path class="st0" d="M17.5,25c-1.6-0.6-3.3-0.2-3.7,0.9c-0.4,1.1,0.6,2.5,2.2,3.1c1.6,0.6,3.3,0.2,3.7-0.9
			C20.1,27,19.1,25.6,17.5,25z"/>
		<path class="st1" d="M29.7,9.7l-6.7,15.9l0,0c-0.7,1.8-3.3,2.3-6,1.3c-2.7-1-4.3-3.3-3.6-5.1l0,0l6.8-16.1"/>
		<polygon class="st1" points="25.6,19.1 29.1,11 42.6,5.6 39.1,13.7 		"/>
		<polygon class="st1" points="0.5,29.2 4,21.1 20.4,14.5 16.9,22.6 		"/>
		<path class="st0" d="M2.6,28.5"/>
		<path class="st0" d="M24.1,3.8c-1.9-0.1-3.5,0.6-4,2C19.4,7.6,21,9.9,23.7,11c2.7,1,5.4,0.3,6.1-1.5c0.5-1.3-0.1-2.7-1.4-3.9"/>
		<path class="st1" d="M27.8,0.8c-1.5-0.6-3.1-0.2-3.5,0.9c-0.4,1,0.5,2.3,2,2.9c1.5,0.6,3.1,0.2,3.5-0.9
			C30.2,2.6,29.3,1.3,27.8,0.8z"/>
	</g>
</g>
</svg>
