<!-- Generator: Adobe Illustrator 19.2.1, SVG Export Plug-In  -->
<svg version="1.1"
	 xmlns="http://www.w3.org/2000/svg" xmlns:xlink="http://www.w3.org/1999/xlink" xmlns:a="http://ns.adobe.com/AdobeSVGViewerExtensions/3.0/"
	 x="0px" y="0px" width="64px" height="40.6px" viewBox="0 0 64 40.6" style="enable-background:new 0 0 64 40.6;"
	 xml:space="preserve">
<style type="text/css">
	.st0{fill:#FFFFFF;stroke:#FFFFFF;stroke-linecap:round;stroke-linejoin:round;stroke-miterlimit:10;}
	.st1{fill:#FFFFFF;stroke:#7629F4;stroke-linecap:round;stroke-linejoin:round;stroke-miterlimit:10;}
	.st2{fill:#7629F4;stroke:#FFFFFF;stroke-linecap:round;stroke-linejoin:round;stroke-miterlimit:10;}
	.st3{fill:none;stroke:#FFFFFF;stroke-linecap:round;stroke-linejoin:round;stroke-miterlimit:10;}
	.st4{fill:#FFFFFF;}
	.st5{fill:#7629F4;}
</style>
<defs>
</defs>
<polyline class="st0" points="35.5,9.7 53,5.8 62.6,6.9 63.5,11 38.7,16.5 33.4,13.1 "/>
<polygon class="st0" points="13.7,14.8 0.5,3.8 10.4,0.5 23.6,11.5 "/>
<polygon class="st0" points="17.9,21.8 4.7,21 12.6,18.4 21,18.5 22.2,20.3 "/>
<polyline class="st1" points="11.4,12.9 27.7,7.5 31.5,7.6 39,11.4 38.7,12.9 22.3,18.4 "/>
<polygon class="st2" points="25.9,35.1 15,29.6 13.7,26.2 10.1,14.5 11.4,12.9 22.3,18.4 23.6,21.2 27.2,32.9 "/>
<polyline class="st3" points="52,18.2 63.5,14.4 63.5,17.4 39.9,30.9 "/>
<polygon class="st0" points="29.8,27.7 42.9,40.1 50.8,37.5 39.7,24.4 "/>
<g>
	<path class="st4" d="M42,25.1l-13.2-2.2c-0.2,0-0.4-0.2-0.4-0.5c0-0.2,0.1-0.4,0.3-0.5l9.9-3.3c0.1,0,0.1,0,0.2,0c0,0,0.1,0,0.1,0
		l13.2,2.2c0.2,0,0.4,0.2,0.4,0.5c0,0.2-0.1,0.4-0.3,0.5l-9.9,3.3C42.2,25.1,42.1,25.1,42,25.1C42.1,25.1,42,25.1,42,25.1z"/>
	<path class="st5" d="M38.8,19.1L52,21.3l-9.9,3.3l-13.2-2.2L38.8,19.1 M38.8,18.1c-0.1,0-0.2,0-0.3,0.1l-9.9,3.3
		c-0.4,0.1-0.7,0.6-0.7,1c0,0.5,0.4,0.8,0.8,0.9l13.2,2.2c0.1,0,0.1,0,0.2,0c0.1,0,0.2,0,0.3-0.1l9.9-3.3c0.4-0.1,0.7-0.6,0.7-1
		s-0.4-0.8-0.8-0.9L39,18.2C38.9,18.1,38.9,18.1,38.8,18.1L38.8,18.1z"/>
</g>
</svg>
