<!-- Generator: Adobe Illustrator 19.2.1, SVG Export Plug-In  -->
<svg version="1.1"
	 xmlns="http://www.w3.org/2000/svg" xmlns:xlink="http://www.w3.org/1999/xlink" xmlns:a="http://ns.adobe.com/AdobeSVGViewerExtensions/3.0/"
	 x="0px" y="0px" width="1086.1px" height="327.1px" viewBox="0 0 1086.1 327.1" style="enable-background:new 0 0 1086.1 327.1;"
	 xml:space="preserve">
<style type="text/css">
	.st0{fill:#FFFFFF;}
</style>
<defs>
</defs>
<g>
	<circle class="st0" cx="40" cy="273.1" r="1"/>
</g>
<g>
	<circle class="st0" cx="84" cy="170.9" r="1"/>
</g>
<g>
	<circle class="st0" cx="292" cy="35.1" r="1"/>
</g>
<g>
	<circle class="st0" cx="336" cy="56.1" r="1"/>
</g>
<g>
	<circle class="st0" cx="948.6" cy="85.9" r="1"/>
</g>
<g>
	<circle class="st0" cx="1007" cy="205.1" r="1"/>
</g>
<g>
	<circle class="st0" cx="208" cy="3" r="1"/>
</g>
<g>
	<circle class="st0" cx="1083.1" cy="91.1" r="1"/>
</g>
<g>
	<circle class="st0" cx="1021" cy="263.1" r="1"/>
</g>
<g>
	<circle class="st0" cx="278" cy="184.1" r="1"/>
</g>
<g>
	<circle class="st0" cx="280" cy="199.1" r="1"/>
</g>
<g>
	<circle class="st0" cx="346" cy="184.1" r="1"/>
</g>
<g>
	<circle class="st0" cx="244.1" cy="184.1" r="1"/>
</g>
<g>
	<circle class="st0" cx="979" cy="257.1" r="1"/>
</g>
<g>
	<circle class="st0" cx="12" cy="326.1" r="1"/>
</g>
<g>
	<circle class="st0" cx="78.4" cy="292.2" r="1"/>
</g>
<g>
	<circle class="st0" cx="265" cy="203.1" r="1"/>
</g>
<g>
	<circle class="st0" cx="315.2" cy="183.1" r="1"/>
</g>
<g>
	<circle class="st0" cx="294" cy="193.1" r="1"/>
</g>
<g>
	<circle class="st0" cx="1019.3" cy="1" r="1"/>
</g>
<g>
	<circle class="st0" cx="177.5" cy="7.1" r="1"/>
</g>
<g>
	<circle class="st0" cx="27" cy="135.1" r="1"/>
</g>
<g>
	<circle class="st0" cx="215" cy="12.1" r="1"/>
</g>
<g>
	<circle class="st0" cx="1064" cy="178.1" r="1"/>
</g>
<g>
	<circle class="st0" cx="852" cy="172.1" r="1"/>
</g>
<g>
	<circle class="st0" cx="994" cy="247.1" r="1"/>
</g>
<g>
	<circle class="st0" cx="1005" cy="266.2" r="1"/>
</g>
<g>
	<circle class="st0" cx="1052" cy="278.2" r="1"/>
</g>
<g>
	<circle class="st0" cx="1085.1" cy="245.1" r="1"/>
</g>
<g>
	<circle class="st0" cx="294" cy="178.1" r="1"/>
</g>
<g>
	<circle class="st0" cx="95" cy="280.8" r="1"/>
</g>
<g>
	<circle class="st0" cx="54" cy="301.1" r="1"/>
</g>
<g>
	<circle class="st0" cx="109" cy="265.2" r="1"/>
</g>
<g>
	<circle class="st0" cx="144.4" cy="244.1" r="1"/>
</g>
<g>
	<circle class="st0" cx="94" cy="265.2" r="1"/>
</g>
<g>
	<circle class="st0" cx="159.1" cy="225.4" r="1"/>
</g>
<g>
	<circle class="st0" cx="70" cy="287.1" r="1"/>
</g>
<g>
	<circle class="st0" cx="41" cy="306.1" r="1"/>
</g>
<g>
	<circle class="st0" cx="26" cy="292.2" r="1"/>
</g>
<g>
	<circle class="st0" cx="277.4" cy="64.1" r="1"/>
</g>
<g>
	<circle class="st0" cx="252" cy="131.1" r="1"/>
</g>
<g>
	<circle class="st0" cx="79.4" cy="190.1" r="1"/>
</g>
<g>
	<circle class="st0" cx="170" cy="36.1" r="1"/>
</g>
<g>
	<circle class="st0" cx="110" cy="207.1" r="1"/>
</g>
<g>
	<circle class="st0" cx="150.2" cy="208.1" r="1"/>
</g>
<g>
	<circle class="st0" cx="170" cy="191.9" r="1"/>
</g>
<g>
	<circle class="st0" cx="1008" cy="99.1" r="1"/>
</g>
<g>
	<circle class="st0" cx="182" cy="139.1" r="1"/>
</g>
<g>
	<circle class="st0" cx="1054" cy="224.1" r="1"/>
</g>
<g>
	<circle class="st0" cx="985.5" cy="224.1" r="1"/>
</g>
<g>
	<circle class="st0" cx="1029.7" cy="251" r="1"/>
</g>
<g>
	<circle class="st0" cx="995" cy="256.1" r="1"/>
</g>
<g>
	<circle class="st0" cx="1040.5" cy="281.8" r="1"/>
</g>
<g>
	<circle class="st0" cx="1076" cy="316.3" r="1"/>
</g>
<g>
	<circle class="st0" cx="1057" cy="282.8" r="1"/>
</g>
<g>
	<circle class="st0" cx="1034" cy="262.1" r="1"/>
</g>
<g>
	<circle class="st0" cx="992" cy="262.1" r="1"/>
</g>
<g>
	<circle class="st0" cx="1030.7" cy="162.1" r="1"/>
</g>
<g>
	<circle class="st0" cx="166" cy="182.6" r="1"/>
</g>
<g>
	<circle class="st0" cx="313.2" cy="12.1" r="1"/>
</g>
<g>
	<circle class="st0" cx="1" cy="241.4" r="1"/>
</g>
<g>
	<circle class="st0" cx="970.5" cy="176.1" r="1"/>
</g>
<g>
	<circle class="st0" cx="1015.6" cy="171.2" r="1"/>
</g>
<g>
	<circle class="st0" cx="1056" cy="269.2" r="1"/>
</g>
<g>
	<circle class="st0" cx="329" cy="185.1" r="1"/>
</g>
<g>
	<circle class="st0" cx="253" cy="202.1" r="1"/>
</g>
<g>
	<circle class="st0" cx="208" cy="227.4" r="1"/>
</g>
<g>
	<circle class="st0" cx="103.1" cy="246.1" r="1"/>
</g>
<g>
	<circle class="st0" cx="82" cy="270.1" r="1"/>
</g>
<g>
	<circle class="st0" cx="70" cy="257.1" r="1"/>
</g>
<g>
	<circle class="st0" cx="42" cy="314.1" r="1"/>
</g>
<g>
	<circle class="st0" cx="213" cy="223.1" r="1"/>
</g>
<g>
	<circle class="st0" cx="56" cy="241.1" r="1"/>
</g>
<g>
	<circle class="st0" cx="225.9" cy="204.1" r="1"/>
</g>
<g>
	<circle class="st0" cx="222" cy="154.1" r="1"/>
</g>
<g>
	<circle class="st0" cx="82" cy="230.1" r="1"/>
</g>
<g>
	<circle class="st0" cx="1013" cy="231.1" r="1"/>
</g>
<g>
	<circle class="st0" cx="933.1" cy="50.1" r="1"/>
</g>
</svg>
