<!-- Generator: Adobe Illustrator 19.2.1, SVG Export Plug-In  -->
<svg version="1.1"
	 xmlns="http://www.w3.org/2000/svg" xmlns:xlink="http://www.w3.org/1999/xlink" xmlns:a="http://ns.adobe.com/AdobeSVGViewerExtensions/3.0/"
	 x="0px" y="0px" width="134.4px" height="89.2px" viewBox="0 0 134.4 89.2" style="enable-background:new 0 0 134.4 89.2;"
	 xml:space="preserve">
<style type="text/css">
	.st0{fill:#7148EC;}
	.st1{fill:none;stroke:#7148EC;stroke-width:3;stroke-miterlimit:10;}
	.st2{fill:#FFFFFF;stroke:#7148EC;stroke-width:2;stroke-miterlimit:10;}
</style>
<defs>
</defs>
<g>
	<g>
		<g>
			<g>
				<circle class="st0" cx="130.2" cy="85" r="1"/>
			</g>
			<g>
				<circle class="st0" cx="116.2" cy="85" r="1"/>
			</g>
			<g>
				<circle class="st0" cx="102.2" cy="85" r="1"/>
			</g>
			<g>
				<circle class="st0" cx="88.2" cy="85" r="1"/>
			</g>
			<g>
				<circle class="st0" cx="74.2" cy="85" r="1"/>
			</g>
			<g>
				<circle class="st0" cx="60.2" cy="85" r="1"/>
			</g>
			<g>
				<circle class="st0" cx="46.2" cy="85" r="1"/>
			</g>
			<g>
				<circle class="st0" cx="130.2" cy="71" r="1"/>
			</g>
			<g>
				<circle class="st0" cx="116.2" cy="71" r="1"/>
			</g>
			<g>
				<circle class="st0" cx="102.2" cy="71" r="1"/>
			</g>
			<g>
				<circle class="st0" cx="88.2" cy="71" r="1"/>
			</g>
			<g>
				<circle class="st0" cx="74.2" cy="71" r="1"/>
			</g>
			<g>
				<circle class="st0" cx="46.2" cy="71" r="1"/>
			</g>
			<g>
				<circle class="st0" cx="60.2" cy="71" r="1"/>
			</g>
			<g>
				<circle class="st0" cx="130.2" cy="57" r="1"/>
			</g>
			<g>
				<circle class="st0" cx="116.2" cy="57" r="1"/>
			</g>
			<g>
				<circle class="st0" cx="102.2" cy="57" r="1"/>
			</g>
			<g>
				<circle class="st0" cx="88.2" cy="57" r="1"/>
			</g>
			<g>
				<circle class="st0" cx="74.2" cy="57" r="1"/>
			</g>
			<g>
				<circle class="st0" cx="60.2" cy="57" r="1"/>
			</g>
			<g>
				<circle class="st0" cx="46.2" cy="57" r="1"/>
			</g>
			<g>
				<circle class="st0" cx="130.2" cy="43" r="1"/>
			</g>
			<g>
				<circle class="st0" cx="116.2" cy="43" r="1"/>
			</g>
			<g>
				<circle class="st0" cx="102.2" cy="43" r="1"/>
			</g>
			<g>
				<circle class="st0" cx="88.2" cy="43" r="1"/>
			</g>
			<g>
				<circle class="st0" cx="74.2" cy="43" r="1"/>
			</g>
			<g>
				<circle class="st0" cx="60.2" cy="43" r="1"/>
			</g>
			<g>
				<circle class="st0" cx="46.2" cy="43" r="1"/>
			</g>
			<g>
				<circle class="st0" cx="130.2" cy="29" r="1"/>
			</g>
			<g>
				<circle class="st0" cx="116.2" cy="29" r="1"/>
			</g>
			<g>
				<circle class="st0" cx="102.2" cy="29" r="1"/>
			</g>
			<g>
				<circle class="st0" cx="88.2" cy="29" r="1"/>
			</g>
			<g>
				<circle class="st0" cx="74.2" cy="29" r="1"/>
			</g>
			<g>
				<circle class="st0" cx="60.2" cy="29" r="1"/>
			</g>
			<g>
				<circle class="st0" cx="46.2" cy="29" r="1"/>
			</g>
			<g>
				<circle class="st0" cx="130.2" cy="15" r="1"/>
			</g>
			<g>
				<circle class="st0" cx="116.2" cy="15" r="1"/>
			</g>
			<g>
				<circle class="st0" cx="102.2" cy="15" r="1"/>
			</g>
			<g>
				<circle class="st0" cx="88.2" cy="15" r="1"/>
			</g>
			<g>
				<circle class="st0" cx="74.2" cy="15" r="1"/>
			</g>
			<g>
				<circle class="st0" cx="60.2" cy="15" r="1"/>
			</g>
			<g>
				<circle class="st0" cx="46.2" cy="15" r="1"/>
			</g>
			<g>
				<circle class="st0" cx="130.2" cy="1" r="1"/>
			</g>
			<g>
				<circle class="st0" cx="116.2" cy="1" r="1"/>
			</g>
			<g>
				<circle class="st0" cx="102.2" cy="1" r="1"/>
			</g>
			<g>
				<circle class="st0" cx="88.2" cy="1" r="1"/>
			</g>
			<g>
				<circle class="st0" cx="74.2" cy="1" r="1"/>
			</g>
			<g>
				<circle class="st0" cx="60.2" cy="1" r="1"/>
			</g>
			<g>
				<circle class="st0" cx="46.2" cy="1" r="1"/>
			</g>
		</g>
	</g>
	<line class="st1" x1="88.2" y1="43" x2="116.2" y2="29"/>
	<line class="st1" x1="116.2" y1="29" x2="130.2" y2="29"/>
	<line class="st1" x1="74.2" y1="85" x2="88.2" y2="43"/>
	<line class="st1" x1="74.2" y1="85" x2="60.2" y2="29"/>
	<line class="st1" x1="46.2" y1="71" x2="60.2" y2="29"/>
	<g>
		<g>
			<path class="st2" d="M88.2,39.8c-1.8,0-3.2,1.4-3.2,3.2c0,1.8,1.4,3.2,3.2,3.2c1.8,0,3.2-1.4,3.2-3.2
				C91.4,41.2,90,39.8,88.2,39.8z"/>
		</g>
	</g>
	<g>
		<g>
			<path class="st2" d="M74.2,81.8c-1.8,0-3.2,1.4-3.2,3.2c0,1.8,1.4,3.2,3.2,3.2c1.8,0,3.2-1.4,3.2-3.2
				C77.4,83.2,76,81.8,74.2,81.8z"/>
		</g>
	</g>
	<g>
		<g>
			<path class="st2" d="M116.2,25.8c-1.8,0-3.2,1.4-3.2,3.2c0,1.8,1.4,3.2,3.2,3.2c1.8,0,3.2-1.4,3.2-3.2
				C119.4,27.2,118,25.8,116.2,25.8z"/>
		</g>
	</g>
	<g>
		<g>
			<path class="st2" d="M60.2,25.8c-1.8,0-3.2,1.4-3.2,3.2c0,1.8,1.4,3.2,3.2,3.2c1.8,0,3.2-1.4,3.2-3.2
				C63.4,27.2,62,25.8,60.2,25.8z"/>
		</g>
	</g>
	<line class="st1" x1="59.2" y1="71" x2="130.2" y2="71"/>
	<line class="st1" x1="4.2" y1="71" x2="46.2" y2="71"/>
	<g>
		<g>
			<path class="st2" d="M46.2,67.8c-1.8,0-3.2,1.4-3.2,3.2c0,1.8,1.4,3.2,3.2,3.2c1.8,0,3.2-1.4,3.2-3.2
				C49.4,69.2,48,67.8,46.2,67.8z"/>
		</g>
	</g>
	<g>
		<g>
			<path class="st2" d="M4.2,67.8C2.4,67.8,1,69.2,1,71c0,1.8,1.4,3.2,3.2,3.2c1.8,0,3.2-1.4,3.2-3.2C7.4,69.2,6,67.8,4.2,67.8z"/>
		</g>
	</g>
	<g>
		<g>
			<path class="st2" d="M130.2,67.8c-1.8,0-3.2,1.4-3.2,3.2c0,1.8,1.4,3.2,3.2,3.2c1.8,0,3.2-1.4,3.2-3.2
				C133.4,69.2,132,67.8,130.2,67.8z"/>
		</g>
	</g>
</g>
</svg>
