<!-- Generator: Adobe Illustrator 19.2.1, SVG Export Plug-In  -->
<svg version="1.0"
	 xmlns="http://www.w3.org/2000/svg" xmlns:xlink="http://www.w3.org/1999/xlink" xmlns:a="http://ns.adobe.com/AdobeSVGViewerExtensions/3.0/"
	 x="0px" y="0px" width="126.9px" height="116.4px" viewBox="0 0 126.9 116.4" style="enable-background:new 0 0 126.9 116.4;"
	 xml:space="preserve">
<style type="text/css">
	.st0{fill:none;stroke:#7629F4;stroke-width:1.248;stroke-linecap:round;stroke-linejoin:round;stroke-miterlimit:10;}
	.st1{fill:#7629F4;}
</style>
<defs>
</defs>
<line class="st0" x1="26.3" y1="71.6" x2="41.6" y2="79.5"/>
<line class="st0" x1="38.3" y1="66.4" x2="41.6" y2="68.1"/>
<line class="st0" x1="4.8" y1="45.4" x2="18.2" y2="52.1"/>
<line class="st0" x1="10.2" y1="36.6" x2="18.2" y2="40.6"/>
<line class="st0" x1="31.6" y1="21.6" x2="41.6" y2="26.7"/>
<line class="st0" x1="28.2" y1="97.7" x2="41.6" y2="104.4"/>
<line class="st0" x1="90.8" y1="40" x2="117.9" y2="31"/>
<line class="st0" x1="0.6" y1="69.1" x2="14.2" y2="64.6"/>
<polygon class="st0" points="85.4,12.1 85.4,0.6 41.6,15.2 41.6,26.7 "/>
<polygon class="st1" points="85.4,47.3 85.4,35.9 55.2,45.9 55.2,57.3 "/>
<polygon class="st1" points="49.1,58.9 49.1,47.5 24.1,55.7 24.1,67.2 "/>
<polygon class="st1" points="123.5,69.8 123.5,58.4 79.7,73 79.7,84.4 "/>
<g>
	<polygon class="st1" points="113.6,38.7 121.8,30 113.6,25.7 	"/>
</g>
<line class="st0" x1="41.6" y1="91.3" x2="68.7" y2="82.2"/>
<g>
	<polygon class="st1" points="64.4,90 72.6,81.2 64.4,77 	"/>
</g>
<g>
	<polygon class="st1" points="12.3,71.4 20.4,62.7 12.3,58.4 	"/>
</g>
<polygon class="st0" points="18.2,52.1 102.8,23.9 102.8,12.4 18.2,40.6 "/>
<polygon class="st0" points="41.6,79.5 126.3,51.3 126.3,39.8 41.6,68.1 "/>
<polygon class="st0" points="41.6,115.8 106.3,94.4 106.3,83 41.6,104.4 "/>
</svg>
