<?xml version="1.0" encoding="utf-8"?>
<!-- Generator: Adobe Illustrator 19.2.1, SVG Export Plug-In . SVG Version: 6.00 Build 0)  -->
<svg version="1.1" id="Layer_1" xmlns="http://www.w3.org/2000/svg" xmlns:xlink="http://www.w3.org/1999/xlink" x="0px" y="0px"
	 viewBox="0 0 190.4 106.7" style="enable-background:new 0 0 190.4 106.7;" xml:space="preserve">
<style type="text/css">
	.st0{fill:#F1F1F1;stroke:#7629F4;stroke-width:1.248;stroke-linecap:round;stroke-linejoin:round;stroke-miterlimit:10;}
	.st1{fill:none;stroke:#7629F4;stroke-width:1.248;stroke-linecap:round;stroke-linejoin:round;stroke-miterlimit:10;}
	.st2{fill:#7629F4;}
	.st3{fill:#FFFFFF;stroke:#7629F4;stroke-width:1.248;stroke-linecap:round;stroke-linejoin:round;stroke-miterlimit:10;}
	.st4{fill:#FFFFFF;}
	.st5{clip-path:url(#SVGID_2_);}
	.st6{fill:#FFFFFF;stroke:#FFFFFF;stroke-width:4;stroke-linecap:round;stroke-linejoin:round;stroke-miterlimit:10;}
</style>
<path class="st0" d="M21,106.1c0-5.6,4.5-10.1,10.1-10.1c5.6,0,10.1,4.5,10.1,10.1H21z"/>
<path class="st1" d="M34.6,60.1c-16-0.4-33,3.1-33.9,8.1c-1.4,7.6,30.9,16.5,61.8,22.3c31.7,6,64.2,3.9,65.7-3.9
	c1-5-8.6-11.4-23.9-17"/>
<g>
	<path class="st2" d="M40.3,84.3c6.6,1.6,14.1,3.3,22.4,4.9c8.6,1.6,17.7,2.6,26.1,2.9c0.5-0.6,1-1.3,1.5-2
		c8.9-13,5.7-30.7-7.3-39.6c-13-8.9-30.7-5.7-39.6,7.3C37.8,65.8,37,75.8,40.3,84.3z"/>
	<path class="st2" d="M62.5,90.4c-5.5-1.1-13.5-2.7-21.6-4.7c2.1,4.5,5.3,8.6,9.7,11.6c11.8,8.2,27.6,6.2,37.1-4.1
		C79.6,92.9,70.8,91.9,62.5,90.4z"/>
</g>
<path class="st3" d="M142.2,106.1c0-10.9-8.9-19.8-19.8-19.8c-3.6,0-6.9,1-9.8,2.6c-5.4-7.5-14.1-12.4-24-12.4
	c-16.3,0-29.5,13.2-29.5,29.5H142.2z"/>
<g>
	<path class="st4" d="M137.2,65.6c-4.8,0-8.7-3.9-8.7-8.7V13c0-4.8,3.9-8.7,8.7-8.7H181c4.8,0,8.7,3.9,8.7,8.7v43.8
		c0,4.8-3.9,8.7-8.7,8.7H137.2z"/>
	<path class="st2" d="M181,4.9c4.5,0,8.1,3.6,8.1,8.1v43.8c0,4.5-3.6,8.1-8.1,8.1h-43.8c-4.5,0-8.1-3.6-8.1-8.1V13
		c0-4.5,3.6-8.1,8.1-8.1H181 M181,3.6h-43.8c-5.2,0-9.4,4.2-9.4,9.4v43.8c0,5.2,4.2,9.4,9.4,9.4H181c5.2,0,9.4-4.2,9.4-9.4V13
		C190.4,7.8,186.2,3.6,181,3.6L181,3.6z"/>
</g>
<path class="st2" d="M190.4,53.2c0,5.2-4.2,9.4-9.4,9.4h-43.8c-5.2,0-9.4-4.2-9.4-9.4V9.4c0-5.2,4.2-9.4,9.4-9.4H181
	c5.2,0,9.4,4.2,9.4,9.4V53.2z"/>
<path class="st2" d="M86,42l2.8-21.4l5.6,5.6c2-1.7,15.1-10.6,25.9,0.3c0,0-10.2-1.4-18.8,6.8l5.9,5.9L86,42z"/>
<g>
	
		<ellipse transform="matrix(0.3448 -0.9387 0.9387 0.3448 74.9047 169.8706)" class="st4" cx="159.1" cy="31.3" rx="13.7" ry="13.7"/>
	<g>
		<defs>
			
				<ellipse id="SVGID_1_" transform="matrix(0.3448 -0.9387 0.9387 0.3448 74.9048 169.8693)" cx="159.1" cy="31.3" rx="17.3" ry="17.3"/>
		</defs>
		<clipPath id="SVGID_2_">
			<use xlink:href="#SVGID_1_"  style="overflow:visible;"/>
		</clipPath>
		<g class="st5">
			
				<rect x="141.3" y="29.2" transform="matrix(0.3451 -0.9386 0.9386 0.3451 74.8605 169.8439)" class="st6" width="35.7" height="4.1"/>
			
				<rect x="157.1" y="13.4" transform="matrix(0.3448 -0.9387 0.9387 0.3448 74.9054 169.871)" class="st6" width="4.1" height="35.7"/>
			
				<rect x="141.3" y="29.2" transform="matrix(0.9076 -0.4199 0.4199 0.9076 1.5735 69.7072)" class="st6" width="35.7" height="4.1"/>
			
				<rect x="157.1" y="13.4" transform="matrix(0.9076 -0.4199 0.4199 0.9076 1.5733 69.7059)" class="st6" width="4.1" height="35.7"/>
		</g>
	</g>
	<ellipse transform="matrix(0.3448 -0.9387 0.9387 0.3448 74.9046 169.8707)" class="st2" cx="159.1" cy="31.3" rx="6.3" ry="6.3"/>
</g>
</svg>
