<?xml version="1.0" encoding="utf-8"?>
<!-- Generator: Adobe Illustrator 19.2.1, SVG Export Plug-In . SVG Version: 6.00 Build 0)  -->
<svg version="1.1" id="Layer_1" xmlns="http://www.w3.org/2000/svg" xmlns:xlink="http://www.w3.org/1999/xlink" x="0px" y="0px"
	 viewBox="0 0 178.9 114" style="enable-background:new 0 0 178.9 114;" xml:space="preserve">
<style type="text/css">
	.st0{fill:#F1F1F1;stroke:#7629F4;stroke-width:1.248;stroke-linecap:round;stroke-linejoin:round;stroke-miterlimit:10;}
	.st1{fill:none;stroke:#7629F4;stroke-width:1.248;stroke-linecap:round;stroke-linejoin:round;stroke-miterlimit:10;}
	.st2{fill:#7629F4;}
	.st3{fill:#FFFFFF;stroke:#7629F4;stroke-width:1.25;stroke-miterlimit:10;}
	.st4{fill:#FFFFFF;stroke:#7629F4;stroke-width:1.25;stroke-linecap:round;stroke-linejoin:round;stroke-miterlimit:10;}
	.st5{fill:#F4F4F4;stroke:#7629F4;stroke-width:1.25;stroke-miterlimit:10;}
	.st6{fill:#FFFFFF;}
	.st7{fill:none;stroke:#7629F4;stroke-width:1.25;stroke-linecap:round;stroke-linejoin:round;stroke-miterlimit:10;}
	.st8{fill:none;stroke:#FFFFFF;stroke-width:1.248;stroke-linecap:round;stroke-linejoin:round;stroke-miterlimit:10;}
	.st9{fill:#FFFFFF;stroke:#7629F4;stroke-width:1.248;stroke-linecap:round;stroke-linejoin:round;stroke-miterlimit:10;}
</style>
<path class="st0" d="M45,98c0-5.5,4.5-10,10-10c5.5,0,10,4.5,10,10H45z"/>
<path class="st1" d="M51.1,38.6C30.4,38.1,8.5,42.6,7.3,49c-1.9,9.8,39.9,21.3,79.9,28.8c40.9,7.8,82.9,5.1,84.8-5.1
	c1.2-6.5-11.1-14.7-30.9-21.9"/>
<g>
	<path class="st2" d="M58.4,69.6c8.6,2.2,18.4,4.3,29.1,6.3c11.2,2.1,22.9,3.4,33.8,3.8c0.6-0.8,1.2-1.6,1.8-2.4
		c11.6-16.7,7.4-39.7-9.4-51.2C96.9,14.6,74,18.8,62.5,35.5C55.3,45.9,54.2,58.7,58.4,69.6z"/>
	<path class="st2" d="M87.1,77.9c-7.1-1.4-17.3-3.4-27.7-6c2.7,5.8,6.9,10.9,12.5,14.8c15.2,10.5,35.5,8,47.7-5.1
		C109,81.2,97.8,80,87.1,77.9z"/>
</g>
<g>
	<line class="st3" x1="120.1" y1="56.4" x2="132" y2="52.4"/>
	<polygon class="st4" points="105.7,49.4 131.4,40.8 131.4,32.7 105.7,39.9 	"/>
	<polygon class="st4" points="114.1,43.3 122.7,47.6 122.7,54.6 114.1,50.4 	"/>
	<path class="st5" d="M121.4,53.6c0-2.3-1.4-4.8-3-5.6c-1.7-0.8-3,0.3-3,2.6c0,2.3,1.4,4.8,3,5.6C120.1,57,121.4,55.9,121.4,53.6z"
		/>
	<path class="st2" d="M119.2,52.6c0-0.6-0.4-1.3-0.8-1.5c-0.5-0.2-0.8,0.1-0.8,0.7c0,0.6,0.4,1.3,0.8,1.5
		C118.8,53.6,119.2,53.3,119.2,52.6z"/>
	<g>
		<path class="st6" d="M122.7,47.6l8.3-2.8c1.3-0.4,3.6-1,5-1.2l6.5-1c1.4-0.2,1.5-0.9,0.2-1.5l-4-2c-1.3-0.6-3.4-1-4.8-0.8l-6.5,1
			c-1.4,0.2-3.6,0.7-5,1.2l-8.3,2.8"/>
		<path class="st7" d="M122.7,47.6l8.3-2.8c1.3-0.4,3.6-1,5-1.2l6.5-1c1.4-0.2,1.5-0.9,0.2-1.5l-4-2c-1.3-0.6-3.4-1-4.8-0.8l-6.5,1
			c-1.4,0.2-3.6,0.7-5,1.2l-8.3,2.8L122.7,47.6z"/>
	</g>
	<path class="st4" d="M126.4,42.8"/>
	<polygon class="st4" points="145,47.2 122.7,54.6 122.7,47.6 133.4,44 143.3,42.5 	"/>
	<polygon class="st4" points="125.2,59.2 151,50.6 151,42.5 125.2,49.7 	"/>
	<line class="st4" x1="132.8" y1="43.7" x2="124.9" y2="39.8"/>
</g>
<line class="st8" x1="111" y1="53.5" x2="87.8" y2="61.3"/>
<line class="st8" x1="97.3" y1="62.4" x2="81.1" y2="67.8"/>
<path class="st9" d="M171.6,98c0-10.9-8.8-19.7-19.7-19.7c-3.6,0-6.9,1-9.8,2.6c-5.3-7.5-14.1-12.3-23.9-12.3
	c-16.2,0-29.4,13.2-29.4,29.4H171.6z"/>
</svg>
