<?xml version="1.0" encoding="utf-8"?>
<!-- Generator: Adobe Illustrator 19.2.1, SVG Export Plug-In . SVG Version: 6.00 Build 0)  -->
<svg version="1.1" id="Layer_1" xmlns="http://www.w3.org/2000/svg" xmlns:xlink="http://www.w3.org/1999/xlink" x="0px" y="0px"
	 viewBox="0 0 178.9 114" style="enable-background:new 0 0 178.9 114;" xml:space="preserve">
<style type="text/css">
	.st0{fill:#F1F1F1;}
	.st1{fill:#752AF3;stroke:#FFFFFF;stroke-width:1.2475;stroke-linecap:round;stroke-linejoin:round;stroke-miterlimit:10;}
	.st2{fill:#752AF3;}
	.st3{fill:#FFFFFF;}
	.st4{fill:none;stroke:#FFFFFF;stroke-linecap:round;stroke-linejoin:round;}
	.st5{fill:none;stroke:#FFFFFF;stroke-linecap:round;stroke-linejoin:round;stroke-dasharray:0.5143,3.0857;}
	.st6{fill:none;stroke:#FFFFFF;stroke-width:1.2475;stroke-linecap:round;stroke-linejoin:round;stroke-miterlimit:10;}
	.st7{fill:#FFFFFF;stroke:#762AF3;stroke-miterlimit:10;}
	.st8{fill:none;stroke:#762AF3;stroke-miterlimit:10;}
</style>
<g id="Layer_1_1_">
</g>
<g id="Layer_3">
</g>
<rect x="53.5" y="51.3" class="st0" width="125.3" height="44"/>
<rect x="55.7" y="36.1" class="st0" width="95.8" height="29.4"/>
<rect x="26.6" y="53.1" class="st0" width="109.3" height="23.1"/>
<rect x="68" y="77.2" class="st0" width="56" height="29.4"/>
<rect x="154.2" y="11" class="st0" width="9.5" height="8.9"/>
<rect x="-0.1" y="79.3" class="st0" width="12.4" height="9.4"/>
<rect x="68" y="23.4" class="st0" width="42.4" height="11.1"/>
<rect x="31.2" y="94.3" class="st0" width="10" height="9.4"/>
<g>
	<g>
		<g>
			<polygon class="st1" points="47,61.4 98,86.9 98,99.7 47,74.2 			"/>
			<polyline class="st1" points="98,86.9 173.8,61.6 173.8,74.4 98,99.7 			"/>
			<g>
				<path class="st2" d="M98,87.6c-0.1,0-0.2,0-0.3-0.1L46.7,62c-0.2-0.1-0.4-0.3-0.3-0.6c0-0.3,0.2-0.5,0.4-0.5l75.7-25.3
					c0.1,0,0.1,0,0.2,0c0.1,0,0.2,0,0.3,0.1L174,61c0.2,0.1,0.4,0.3,0.3,0.6s-0.2,0.5-0.4,0.5L98.2,87.5
					C98.2,87.5,98.1,87.6,98,87.6z"/>
				<g>
					<path class="st3" d="M122.7,36.1l51,25.5L98,86.9L47,61.4L122.7,36.1 M122.7,34.8c-0.1,0-0.3,0-0.4,0.1L46.6,60.2
						c-0.5,0.2-0.8,0.6-0.8,1.1c0,0.5,0.2,1,0.7,1.2l51,25.5c0.2,0.1,0.4,0.1,0.6,0.1c0.1,0,0.3,0,0.4-0.1l75.7-25.3
						c0.5-0.2,0.8-0.6,0.8-1.1s-0.2-1-0.7-1.2l-51-25.5C123.1,34.9,122.9,34.8,122.7,34.8L122.7,34.8z"/>
				</g>
			</g>
		</g>
	</g>
	<polygon class="st1" points="98.1,86.9 106.1,90.9 106.1,103.7 98.1,99.7 	"/>
	<polygon class="st1" points="39,57.3 47,61.3 47,74 39,70 	"/>
	<g>
		<g>
			<line class="st4" x1="51.4" y1="72.4" x2="51.6" y2="72.5"/>
			<line class="st5" x1="54.4" y1="73.9" x2="91.6" y2="92.5"/>
			<line class="st4" x1="93" y1="93.2" x2="93.2" y2="93.3"/>
		</g>
	</g>
	<g>
		<g>
			<line class="st4" x1="51.4" y1="70.1" x2="51.6" y2="70.2"/>
			<line class="st5" x1="54.4" y1="71.6" x2="91.6" y2="90.2"/>
			<line class="st4" x1="93" y1="90.9" x2="93.2" y2="91"/>
		</g>
	</g>
	<line class="st6" x1="141.3" y1="72.4" x2="112.7" y2="58.1"/>
	<line class="st6" x1="127.6" y1="76.9" x2="106.4" y2="66.4"/>
</g>
<polygon class="st7" points="78.9,48.5 120.8,51.9 122.6,43.9 80.8,40.5 "/>
<path class="st8" d="M107.5,14.1c0,0,19.8,8.7,22.1,34"/>
<path class="st8" d="M79.6,8.7c0,0,17.8,0.6,25.6,11.3"/>
<path class="st8" d="M121.2,15.7c2,2.2,4,4.9,5.6,8.3"/>
<polygon class="st7" points="70.2,36.6 112.2,37.3 113.5,29.2 71.6,28.5 "/>
<polygon class="st7" points="39.4,17.8 73.5,14.8 73.9,8.1 39.8,11.1 "/>
</svg>
