<!-- Generator: Adobe Illustrator 19.2.1, SVG Export Plug-In  -->
<svg version="1.1"
	 xmlns="http://www.w3.org/2000/svg" xmlns:xlink="http://www.w3.org/1999/xlink" xmlns:a="http://ns.adobe.com/AdobeSVGViewerExtensions/3.0/"
	 x="0px" y="0px" width="32.8px" height="24.2px" viewBox="0 0 32.8 24.2" style="enable-background:new 0 0 32.8 24.2;"
	 xml:space="preserve">
<style type="text/css">
	.st0{fill:#7629F4;}
</style>
<defs>
</defs>
<g>
	<g>
		<path class="st0" d="M5.4,0h2.9l5.4,24.2h-3.5l-1-5.2H4.5l-1,5.2H0L5.4,0z M6.9,7L6.9,7l-1.8,8.8h3.5L6.9,7z"/>
		<path class="st0" d="M15.4,0h5.2c1,0,1.8,0.1,2.5,0.4c0.7,0.2,1.4,0.7,2,1.3s1,1.4,1.2,2.2s0.3,2,0.3,3.5c0,1.1-0.1,2-0.2,2.7
			c-0.1,0.8-0.4,1.5-0.8,2.1c-0.5,0.8-1.1,1.4-1.9,1.9c-0.8,0.4-1.8,0.7-3.1,0.7h-1.8v9.5h-3.5V0z M18.9,11.5h1.7
			c0.7,0,1.2-0.1,1.6-0.3c0.4-0.2,0.7-0.5,0.9-0.8c0.2-0.4,0.3-0.8,0.3-1.3c0-0.5,0.1-1.1,0.1-1.7c0-0.6,0-1.1-0.1-1.6
			c0-0.5-0.1-1-0.3-1.3c-0.2-0.4-0.4-0.7-0.8-0.9c-0.4-0.2-0.9-0.3-1.6-0.3h-1.8V11.5z"/>
		<path class="st0" d="M29.3,0h3.5v24.2h-3.5V0z"/>
	</g>
</g>
</svg>
