<!-- Generator: Adobe Illustrator 19.2.1, SVG Export Plug-In  -->
<svg version="1.1"
	 xmlns="http://www.w3.org/2000/svg" xmlns:xlink="http://www.w3.org/1999/xlink" xmlns:a="http://ns.adobe.com/AdobeSVGViewerExtensions/3.0/"
	 x="0px" y="0px" width="30.4px" height="33.2px" viewBox="0 0 30.4 33.2" style="enable-background:new 0 0 30.4 33.2;"
	 xml:space="preserve">
<style type="text/css">
	.st0{fill:#FFFFFF;}
	.st1{fill:#762AF3;}
</style>
<defs>
</defs>
<g>
	<g>
		<polyline class="st0" points="29.7,2.4 29.7,27.4 29.7,27.4 14.4,32.5 0.6,25.7 0.6,0.6 		"/>
		<path class="st1" d="M14.4,33.2c-0.1,0-0.2,0-0.3-0.1L0.3,26.2C0.1,26.1,0,25.9,0,25.7v-25C0,0.3,0.3,0,0.6,0s0.6,0.3,0.6,0.6
			v24.6l13.2,6.6L29.1,27V2.4c0-0.3,0.3-0.6,0.6-0.6s0.6,0.3,0.6,0.6v25c0,0.3-0.2,0.6-0.5,0.6l-15.2,5.1
			C14.5,33.2,14.5,33.2,14.4,33.2z"/>
	</g>
</g>
</svg>
