<!-- Generator: Adobe Illustrator 19.2.1, SVG Export Plug-In  -->
<svg version="1.1"
	 xmlns="http://www.w3.org/2000/svg" xmlns:xlink="http://www.w3.org/1999/xlink" xmlns:a="http://ns.adobe.com/AdobeSVGViewerExtensions/3.0/"
	 x="0px" y="0px" width="30.4px" height="75.2px" viewBox="0 0 30.4 75.2" style="enable-background:new 0 0 30.4 75.2;"
	 xml:space="preserve">
<style type="text/css">
	.st0{fill:#FFFFFF;}
	.st1{fill:#762AF3;}
</style>
<defs>
</defs>
<g>
	<polyline class="st0" points="29.7,2.4 29.7,69.4 29.7,69.4 14.4,74.5 0.6,67.6 0.6,0.6 	"/>
	<path class="st1" d="M14.4,75.2c-0.1,0-0.2,0-0.3-0.1L0.3,68.2C0.1,68.1,0,67.9,0,67.6v-67C0,0.3,0.3,0,0.6,0s0.6,0.3,0.6,0.6v66.6
		l13.2,6.6L29.1,69V2.4c0-0.3,0.3-0.6,0.6-0.6s0.6,0.3,0.6,0.6v67c0,0.3-0.2,0.6-0.5,0.6l-15.2,5.1C14.5,75.1,14.5,75.2,14.4,75.2z"
		/>
</g>
</svg>
