<!-- Generator: Adobe Illustrator 19.2.1, SVG Export Plug-In  -->
<svg version="1.1"
	 xmlns="http://www.w3.org/2000/svg" xmlns:xlink="http://www.w3.org/1999/xlink" xmlns:a="http://ns.adobe.com/AdobeSVGViewerExtensions/3.0/"
	 x="0px" y="0px" width="30.4px" height="50px" viewBox="0 0 30.4 50" style="enable-background:new 0 0 30.4 50;"
	 xml:space="preserve">
<style type="text/css">
	.st0{fill:#FFFFFF;}
	.st1{fill:#762AF3;}
</style>
<defs>
</defs>
<g>
	<g>
		<polyline class="st0" points="29.7,2.4 29.7,44.2 29.7,44.2 14.4,49.3 0.6,42.5 0.6,0.6 		"/>
		<path class="st1" d="M14.4,50c-0.1,0-0.2,0-0.3-0.1L0.3,43C0.1,42.9,0,42.7,0,42.5V0.6C0,0.3,0.3,0,0.6,0s0.6,0.3,0.6,0.6v41.4
			l13.2,6.6l14.7-4.9V2.4c0-0.3,0.3-0.6,0.6-0.6s0.6,0.3,0.6,0.6v41.8c0,0.3-0.2,0.6-0.5,0.6l-15.2,5.1C14.5,50,14.5,50,14.4,50z"/>
	</g>
</g>
</svg>
