<!-- Generator: Adobe Illustrator 19.2.1, SVG Export Plug-In  -->
<svg version="1.1"
	 xmlns="http://www.w3.org/2000/svg" xmlns:xlink="http://www.w3.org/1999/xlink" xmlns:a="http://ns.adobe.com/AdobeSVGViewerExtensions/3.0/"
	 x="0px" y="0px" width="30.4px" height="38.3px" viewBox="0 0 30.4 38.3" style="enable-background:new 0 0 30.4 38.3;"
	 xml:space="preserve">
<style type="text/css">
	.st0{fill:#FFFFFF;}
	.st1{fill:#762AF3;}
	.st2{fill:#762AF3;stroke:#FFFFFF;stroke-width:1.248;stroke-linecap:round;stroke-linejoin:round;stroke-miterlimit:10;}
</style>
<defs>
</defs>
<g>
	<g>
		<polyline class="st0" points="29.7,7.5 29.7,32.6 29.7,32.5 14.4,37.7 0.6,30.8 0.6,5.7 		"/>
		<path class="st1" d="M14.4,38.3c-0.1,0-0.2,0-0.3-0.1L0.3,31.3C0.1,31.2,0,31,0,30.8v-25c0-0.3,0.3-0.6,0.6-0.6s0.6,0.3,0.6,0.6
			v24.6L14.4,37l14.7-4.9V7.5c0-0.3,0.3-0.6,0.6-0.6s0.6,0.3,0.6,0.6v25c0,0.3-0.2,0.6-0.5,0.6l-15.2,5.1
			C14.5,38.3,14.5,38.3,14.4,38.3z"/>
	</g>
	<polygon class="st2" points="14.4,12.6 29.7,7.5 16,0.6 0.6,5.7 	"/>
	<path class="st1" d="M14.4,38.3c-0.3,0-0.6-0.3-0.6-0.6V13.7c0-0.3,0.3-0.6,0.6-0.6s0.6,0.3,0.6,0.6v23.9
		C15,38,14.7,38.3,14.4,38.3z"/>
</g>
</svg>
