<!-- Generator: Adobe Illustrator 19.2.1, SVG Export Plug-In  -->
<svg version="1.1"
	 xmlns="http://www.w3.org/2000/svg" xmlns:xlink="http://www.w3.org/1999/xlink" xmlns:a="http://ns.adobe.com/AdobeSVGViewerExtensions/3.0/"
	 x="0px" y="0px" width="115.9px" height="17px" viewBox="0 0 115.9 17" style="enable-background:new 0 0 115.9 17;"
	 xml:space="preserve">
<style type="text/css">
	.st0{fill:#7629F4;}
</style>
<defs>
</defs>
<g>
	<g>
		<path class="st0" d="M6,12.2c-0.1,0.1-0.3,0.3-0.5,0.4c-0.2,0.1-0.5,0.2-0.7,0.3c-0.3,0.1-0.6,0.1-1,0.1c-0.5,0-1-0.1-1.5-0.3
			c-0.5-0.2-0.9-0.5-1.2-0.9c-0.3-0.4-0.6-0.8-0.8-1.3C0.1,10,0,9.5,0,8.9s0.1-1.1,0.3-1.6S0.8,6.4,1.1,6c0.3-0.4,0.8-0.7,1.2-0.9
			c0.5-0.2,1-0.3,1.5-0.3c0.3,0,0.6,0,0.9,0.1C5,5,5.2,5.1,5.5,5.2c0.2,0.1,0.4,0.3,0.6,0.4C6.2,5.8,6.4,6,6.5,6.1V5h1.3v7.9
			c0,0.7-0.1,1.3-0.3,1.8c-0.2,0.5-0.5,0.9-0.9,1.3c-0.4,0.3-0.8,0.6-1.3,0.8c-0.5,0.2-1,0.3-1.6,0.3c-0.8,0-1.5-0.2-2.1-0.5
			c-0.6-0.3-1.1-0.7-1.4-1l0.9-1.1c0.3,0.3,0.6,0.6,1,0.9c0.4,0.3,1,0.4,1.6,0.4c0.8,0,1.4-0.2,1.9-0.7c0.5-0.5,0.7-1.1,0.7-2v-1.1
			C6.3,12,6.2,12.1,6,12.2z M5.4,6.5C5.1,6.3,4.6,6.1,4,6.1c-0.4,0-0.8,0.1-1.1,0.2C2.6,6.5,2.4,6.7,2.1,6.9
			C1.9,7.2,1.7,7.5,1.6,7.8S1.4,8.5,1.4,8.9S1.5,9.7,1.6,10s0.3,0.6,0.5,0.9s0.5,0.5,0.8,0.6c0.3,0.1,0.7,0.2,1.1,0.2
			c0.3,0,0.6,0,0.8-0.1c0.2-0.1,0.5-0.2,0.7-0.3S5.9,11,6,10.9c0.1-0.2,0.3-0.3,0.3-0.5v-3C6.1,7.1,5.8,6.8,5.4,6.5z"/>
		<path class="st0" d="M15.1,5.1C15.5,5.3,16,5.6,16.3,6c0.4,0.4,0.6,0.8,0.8,1.3s0.3,1,0.3,1.6s-0.1,1.1-0.3,1.6
			c-0.2,0.5-0.5,0.9-0.8,1.3c-0.4,0.4-0.8,0.7-1.3,0.9c-0.5,0.2-1,0.3-1.6,0.3c-0.6,0-1.1-0.1-1.6-0.3c-0.5-0.2-0.9-0.5-1.3-0.9
			c-0.4-0.4-0.6-0.8-0.8-1.3c-0.2-0.5-0.3-1-0.3-1.6s0.1-1.1,0.3-1.6c0.2-0.5,0.5-0.9,0.8-1.3c0.4-0.4,0.8-0.7,1.3-0.9
			c0.5-0.2,1-0.3,1.6-0.3C14,4.8,14.6,4.9,15.1,5.1z M14.5,11.5c0.3-0.1,0.6-0.3,0.8-0.6c0.2-0.3,0.4-0.6,0.5-0.9
			c0.1-0.3,0.2-0.7,0.2-1.1S16,8.2,15.9,7.8c-0.1-0.3-0.3-0.6-0.5-0.9c-0.2-0.3-0.5-0.5-0.8-0.6c-0.3-0.1-0.7-0.2-1.1-0.2
			c-0.4,0-0.8,0.1-1.1,0.2c-0.3,0.1-0.6,0.3-0.8,0.6c-0.2,0.3-0.4,0.6-0.5,0.9s-0.2,0.7-0.2,1.1S10.9,9.7,11,10s0.3,0.6,0.5,0.9
			c0.2,0.3,0.5,0.5,0.8,0.6c0.3,0.1,0.7,0.2,1.1,0.2C13.8,11.7,14.2,11.7,14.5,11.5z"/>
		<path class="st0" d="M20.9,0v12.9h-1.4V0H20.9z"/>
		<path class="st0" d="M29.5,1.4c0.7,0.3,1.3,0.7,1.9,1.2c0.5,0.5,0.9,1.2,1.2,1.9s0.4,1.5,0.4,2.4c0,0.9-0.1,1.7-0.4,2.4
			c-0.3,0.7-0.7,1.4-1.2,1.9c-0.5,0.5-1.1,0.9-1.9,1.2c-0.7,0.3-1.6,0.5-2.5,0.5h-3.4V1h3.4C28,1,28.8,1.1,29.5,1.4z M28.9,11.1
			c0.6-0.2,1-0.6,1.4-1c0.4-0.4,0.7-0.9,0.8-1.5c0.2-0.6,0.3-1.2,0.3-1.8c0-0.6-0.1-1.2-0.3-1.8c-0.2-0.6-0.5-1-0.8-1.5
			c-0.4-0.4-0.8-0.7-1.4-1c-0.6-0.2-1.2-0.4-1.9-0.4h-1.9v9.2H27C27.7,11.5,28.3,11.4,28.9,11.1z"/>
		<path class="st0" d="M38.1,1c0.6,0,1.2,0.1,1.6,0.2c0.5,0.2,0.9,0.4,1.2,0.7c0.3,0.3,0.6,0.6,0.7,1c0.2,0.4,0.3,0.8,0.3,1.3
			c0,0.4-0.1,0.8-0.2,1.1c-0.1,0.3-0.3,0.5-0.4,0.7c-0.2,0.2-0.3,0.3-0.5,0.4s-0.2,0.1-0.3,0.1c0,0,0.2,0.1,0.4,0.1s0.4,0.2,0.7,0.5
			s0.5,0.5,0.6,0.9c0.2,0.4,0.3,0.8,0.3,1.4c0,0.5-0.1,1-0.3,1.4c-0.2,0.4-0.4,0.8-0.8,1.1c-0.3,0.3-0.7,0.5-1.2,0.7
			c-0.5,0.2-1,0.2-1.6,0.2H35V1H38.1z M39.9,5.6c0.4-0.3,0.6-0.8,0.6-1.4c0-0.6-0.2-1-0.6-1.4c-0.4-0.3-0.9-0.5-1.6-0.5h-1.9v3.8
			h1.9C39,6.1,39.6,5.9,39.9,5.6z M39.8,11.3c0.3-0.1,0.6-0.3,0.8-0.4c0.2-0.2,0.3-0.4,0.4-0.6c0.1-0.2,0.1-0.5,0.1-0.8
			s0-0.5-0.1-0.8c-0.1-0.2-0.2-0.5-0.4-0.6c-0.2-0.2-0.5-0.3-0.8-0.4s-0.7-0.2-1.1-0.2h-2.3v4.1h2.3C39.1,11.5,39.5,11.4,39.8,11.3z
			"/>
		<path class="st0" d="M53.9,5.2c0.4,0.3,0.7,0.5,0.9,0.8V0h1.4v12.9h-1.3v-1.1c-0.1,0.2-0.2,0.3-0.4,0.5c-0.2,0.2-0.4,0.3-0.6,0.4
			c-0.2,0.1-0.5,0.2-0.7,0.3c-0.3,0.1-0.6,0.1-0.9,0.1c-0.5,0-1-0.1-1.5-0.3c-0.5-0.2-0.9-0.5-1.2-0.9c-0.3-0.4-0.6-0.8-0.8-1.3
			c-0.2-0.5-0.3-1-0.3-1.6s0.1-1.1,0.3-1.6s0.5-0.9,0.8-1.3c0.3-0.4,0.7-0.7,1.2-0.9c0.5-0.2,1-0.3,1.5-0.3
			C52.9,4.8,53.4,4.9,53.9,5.2z M53.9,6.5c-0.4-0.3-0.9-0.4-1.4-0.4c-0.4,0-0.7,0.1-1.1,0.2c-0.3,0.1-0.6,0.3-0.8,0.6
			c-0.2,0.3-0.4,0.6-0.5,0.9s-0.2,0.7-0.2,1.1S50,9.7,50.1,10s0.3,0.6,0.5,0.9s0.5,0.5,0.8,0.6c0.3,0.1,0.7,0.2,1.1,0.2
			c0.3,0,0.6,0,0.8-0.1c0.2-0.1,0.5-0.2,0.7-0.3s0.4-0.3,0.5-0.4c0.1-0.2,0.3-0.3,0.3-0.5V7.5C54.6,7.1,54.3,6.8,53.9,6.5z"/>
		<path class="st0" d="M63.3,5c0.4,0.2,0.8,0.4,1.1,0.7C64.7,6,64.9,6.3,65,6.6s0.2,0.7,0.2,1.1v5.2h-1.3v-1.1
			c-0.3,0.4-0.7,0.7-1.1,1c-0.5,0.2-1,0.4-1.5,0.4c-0.4,0-0.7-0.1-1.1-0.2c-0.3-0.1-0.7-0.3-0.9-0.5s-0.5-0.5-0.7-0.8
			c-0.2-0.3-0.3-0.7-0.3-1.1c0-0.4,0.1-0.8,0.2-1.1C58.7,9,59,8.7,59.2,8.5c0.3-0.2,0.6-0.4,1-0.5c0.4-0.1,0.8-0.2,1.2-0.2
			c0.5,0,1,0.1,1.4,0.2c0.4,0.1,0.7,0.3,1,0.4V8c0-0.4-0.1-0.7-0.2-1c-0.1-0.2-0.3-0.4-0.5-0.6c-0.2-0.1-0.4-0.2-0.7-0.3
			S62,6.1,61.8,6.1c-0.4,0-0.8,0.1-1.2,0.2c-0.4,0.1-0.8,0.3-1.2,0.5l-0.6-1.2c0.3-0.2,0.7-0.4,1.3-0.5c0.5-0.2,1.1-0.3,1.7-0.3
			C62.4,4.8,62.9,4.9,63.3,5z M62.9,11.4c0.4-0.3,0.7-0.5,0.9-0.8V9.5c-0.2-0.2-0.5-0.3-0.9-0.4c-0.4-0.1-0.7-0.2-1.2-0.2
			c-0.6,0-1.1,0.1-1.5,0.4c-0.4,0.3-0.5,0.6-0.5,1.1c0,0.2,0.1,0.4,0.2,0.6s0.2,0.3,0.4,0.4s0.4,0.2,0.6,0.3
			c0.2,0.1,0.4,0.1,0.7,0.1C62.1,11.8,62.5,11.7,62.9,11.4z"/>
		<path class="st0" d="M68.3,5V2.6h1.4V5h2.4v1.3h-2.4v4.2c0,0.4,0.1,0.7,0.3,0.9c0.2,0.2,0.5,0.3,0.8,0.3c0.2,0,0.4,0,0.5-0.1
			c0.1-0.1,0.3-0.1,0.4-0.2l0.5,1.2c-0.3,0.2-0.6,0.3-0.9,0.4s-0.5,0.1-0.7,0.1c-0.3,0-0.6,0-0.9-0.1s-0.5-0.2-0.8-0.4
			c-0.2-0.2-0.4-0.5-0.6-0.8s-0.2-0.7-0.2-1.1V6.3h-1.5V5H68.3z"/>
		<path class="st0" d="M78.4,5c0.4,0.2,0.8,0.4,1.1,0.7C79.8,6,80,6.3,80.1,6.6s0.2,0.7,0.2,1.1v5.2H79v-1.1c-0.3,0.4-0.7,0.7-1.1,1
			c-0.5,0.2-1,0.4-1.5,0.4c-0.4,0-0.7-0.1-1.1-0.2c-0.3-0.1-0.7-0.3-0.9-0.5s-0.5-0.5-0.7-0.8c-0.2-0.3-0.3-0.7-0.3-1.1
			c0-0.4,0.1-0.8,0.2-1.1c0.2-0.3,0.4-0.6,0.7-0.8c0.3-0.2,0.6-0.4,1-0.5c0.4-0.1,0.8-0.2,1.2-0.2c0.5,0,1,0.1,1.4,0.2
			c0.4,0.1,0.7,0.3,1,0.4V8c0-0.4-0.1-0.7-0.2-1c-0.1-0.2-0.3-0.4-0.5-0.6c-0.2-0.1-0.4-0.2-0.7-0.3s-0.4-0.1-0.6-0.1
			c-0.4,0-0.8,0.1-1.2,0.2c-0.4,0.1-0.8,0.3-1.2,0.5L74,5.6c0.3-0.2,0.7-0.4,1.3-0.5c0.5-0.2,1.1-0.3,1.7-0.3
			C77.5,4.8,78,4.9,78.4,5z M78,11.4c0.4-0.3,0.7-0.5,0.9-0.8V9.5c-0.2-0.2-0.5-0.3-0.9-0.4c-0.4-0.1-0.7-0.2-1.2-0.2
			c-0.6,0-1.1,0.1-1.5,0.4c-0.4,0.3-0.5,0.6-0.5,1.1c0,0.2,0.1,0.4,0.2,0.6s0.2,0.3,0.4,0.4s0.4,0.2,0.6,0.3
			c0.2,0.1,0.4,0.1,0.7,0.1C77.2,11.8,77.6,11.7,78,11.4z"/>
		<path class="st0" d="M88.3,5.1c0.5,0.2,0.9,0.5,1.2,0.9c0.3,0.4,0.6,0.8,0.8,1.3s0.3,1,0.3,1.6s-0.1,1.1-0.3,1.6
			c-0.2,0.5-0.5,0.9-0.8,1.3c-0.3,0.4-0.8,0.7-1.2,0.9c-0.5,0.2-1,0.3-1.5,0.3c-0.3,0-0.6,0-0.9-0.1c-0.3-0.1-0.5-0.2-0.7-0.3
			c-0.2-0.1-0.4-0.3-0.6-0.4c-0.2-0.2-0.3-0.3-0.4-0.5v1.1h-1.3V0h1.4v6c0.2-0.3,0.5-0.5,0.9-0.8s1-0.4,1.6-0.4
			C87.3,4.8,87.8,4.9,88.3,5.1z M84.6,10.8c0.1,0.2,0.3,0.3,0.5,0.4s0.4,0.2,0.7,0.3c0.2,0.1,0.5,0.1,0.8,0.1c0.4,0,0.7-0.1,1.1-0.2
			c0.3-0.1,0.6-0.3,0.8-0.6s0.4-0.6,0.5-0.9c0.1-0.3,0.2-0.7,0.2-1.1S89.1,8.2,89,7.8c-0.1-0.3-0.3-0.6-0.5-0.9
			c-0.2-0.3-0.5-0.5-0.8-0.6c-0.3-0.1-0.7-0.2-1.1-0.2c-0.6,0-1,0.1-1.4,0.4s-0.7,0.6-0.9,1v2.9C84.3,10.5,84.5,10.7,84.6,10.8z"/>
		<path class="st0" d="M96.8,5c0.4,0.2,0.8,0.4,1.1,0.7c0.3,0.3,0.5,0.6,0.6,0.9s0.2,0.7,0.2,1.1v5.2h-1.3v-1.1
			c-0.3,0.4-0.7,0.7-1.1,1c-0.5,0.2-1,0.4-1.5,0.4c-0.4,0-0.7-0.1-1.1-0.2c-0.3-0.1-0.7-0.3-0.9-0.5s-0.5-0.5-0.7-0.8
			c-0.2-0.3-0.3-0.7-0.3-1.1c0-0.4,0.1-0.8,0.2-1.1c0.2-0.3,0.4-0.6,0.7-0.8c0.3-0.2,0.6-0.4,1-0.5c0.4-0.1,0.8-0.2,1.2-0.2
			c0.5,0,1,0.1,1.4,0.2c0.4,0.1,0.7,0.3,1,0.4V8c0-0.4-0.1-0.7-0.2-1c-0.1-0.2-0.3-0.4-0.5-0.6c-0.2-0.1-0.4-0.2-0.7-0.3
			s-0.4-0.1-0.6-0.1c-0.4,0-0.8,0.1-1.2,0.2c-0.4,0.1-0.8,0.3-1.2,0.5l-0.6-1.2c0.3-0.2,0.7-0.4,1.3-0.5c0.5-0.2,1.1-0.3,1.7-0.3
			C95.9,4.8,96.4,4.9,96.8,5z M96.4,11.4c0.4-0.3,0.7-0.5,0.9-0.8V9.5c-0.2-0.2-0.5-0.3-0.9-0.4c-0.4-0.1-0.7-0.2-1.2-0.2
			c-0.6,0-1.1,0.1-1.5,0.4c-0.4,0.3-0.5,0.6-0.5,1.1c0,0.2,0.1,0.4,0.2,0.6s0.2,0.3,0.4,0.4s0.4,0.2,0.6,0.3
			c0.2,0.1,0.4,0.1,0.7,0.1C95.6,11.8,96.1,11.7,96.4,11.4z"/>
		<path class="st0" d="M101.8,10.9c0.2,0.1,0.3,0.3,0.5,0.4c0.2,0.1,0.4,0.2,0.7,0.3s0.5,0.1,0.8,0.1c0.2,0,0.4,0,0.6-0.1
			c0.2,0,0.4-0.1,0.5-0.2c0.2-0.1,0.3-0.2,0.4-0.3c0.1-0.1,0.2-0.3,0.2-0.5c0-0.2-0.1-0.3-0.2-0.5c-0.1-0.1-0.2-0.2-0.4-0.3
			c-0.2-0.1-0.4-0.2-0.6-0.2s-0.4-0.1-0.6-0.2c-0.3-0.1-0.6-0.1-0.9-0.2s-0.6-0.2-0.9-0.4c-0.3-0.2-0.5-0.4-0.7-0.7
			c-0.2-0.3-0.3-0.6-0.3-1c0-0.3,0.1-0.6,0.2-0.9c0.1-0.3,0.3-0.5,0.6-0.8s0.6-0.4,0.9-0.5c0.4-0.1,0.7-0.2,1.2-0.2
			c0.7,0,1.2,0.1,1.7,0.4c0.5,0.2,0.9,0.5,1.2,0.8l-0.9,1c-0.2-0.2-0.5-0.4-0.8-0.6c-0.3-0.2-0.7-0.3-1.2-0.3
			c-0.5,0-0.8,0.1-1.1,0.3c-0.2,0.2-0.4,0.4-0.4,0.7c0,0.2,0.1,0.3,0.2,0.5c0.1,0.1,0.3,0.2,0.4,0.3c0.2,0.1,0.4,0.2,0.6,0.2
			c0.2,0.1,0.5,0.1,0.7,0.2c0.3,0.1,0.6,0.2,0.9,0.3s0.6,0.2,0.9,0.4s0.5,0.4,0.7,0.7c0.2,0.3,0.3,0.6,0.3,1s-0.1,0.8-0.3,1.1
			c-0.2,0.3-0.4,0.5-0.7,0.7c-0.3,0.2-0.6,0.3-1,0.4s-0.7,0.1-1.1,0.1c-0.4,0-0.8,0-1.1-0.1s-0.7-0.2-0.9-0.4s-0.5-0.3-0.8-0.5
			c-0.2-0.2-0.4-0.4-0.6-0.6l1-0.9C101.5,10.6,101.6,10.8,101.8,10.9z"/>
		<path class="st0" d="M113.6,5.1c0.5,0.2,0.9,0.5,1.2,0.8c0.3,0.4,0.6,0.8,0.8,1.3c0.2,0.5,0.3,1.1,0.3,1.7v0.2c0,0.1,0,0.1,0,0.2
			h-6.3c0,0.3,0.1,0.6,0.3,0.9c0.1,0.3,0.3,0.5,0.6,0.7c0.2,0.2,0.5,0.4,0.8,0.5c0.3,0.1,0.7,0.2,1,0.2c0.5,0,1-0.1,1.4-0.4
			c0.4-0.2,0.7-0.5,0.9-0.8l0.9,0.9c-0.2,0.2-0.4,0.4-0.6,0.6c-0.2,0.2-0.5,0.4-0.7,0.5c-0.3,0.1-0.6,0.3-0.9,0.3
			c-0.3,0.1-0.7,0.1-1.1,0.1c-0.6,0-1.1-0.1-1.6-0.3c-0.5-0.2-0.9-0.5-1.3-0.9c-0.4-0.4-0.6-0.8-0.8-1.3c-0.2-0.5-0.3-1.1-0.3-1.6
			c0-0.6,0.1-1.1,0.3-1.6c0.2-0.5,0.5-0.9,0.8-1.3c0.3-0.4,0.8-0.7,1.2-0.9s1-0.3,1.6-0.3C112.6,4.8,113.1,4.9,113.6,5.1z
			 M114.3,7.5c-0.1-0.2-0.3-0.5-0.5-0.7c-0.2-0.2-0.4-0.4-0.7-0.5s-0.7-0.2-1.1-0.2c-0.4,0-0.8,0.1-1.1,0.2
			c-0.3,0.1-0.5,0.3-0.7,0.5c-0.2,0.2-0.4,0.4-0.5,0.7c-0.1,0.2-0.2,0.5-0.2,0.7h4.9C114.5,8,114.4,7.8,114.3,7.5z"/>
	</g>
</g>
</svg>
