<!-- Generator: Adobe Illustrator 19.2.1, SVG Export Plug-In  -->
<svg version="1.1"
	 xmlns="http://www.w3.org/2000/svg" xmlns:xlink="http://www.w3.org/1999/xlink" xmlns:a="http://ns.adobe.com/AdobeSVGViewerExtensions/3.0/"
	 x="0px" y="0px" width="30.4px" height="84.7px" viewBox="0 0 30.4 84.7" style="enable-background:new 0 0 30.4 84.7;"
	 xml:space="preserve">
<style type="text/css">
	.st0{fill:#762AF3;}
	.st1{fill:#FFFFFF;}
</style>
<defs>
</defs>
<g>
	<polyline class="st0" points="29.7,2.4 29.7,79 29.7,79 14.4,84.1 0.6,77.2 0.6,0.6 	"/>
	<path class="st1" d="M14.4,84.7c-0.1,0-0.2,0-0.3-0.1L0.3,77.8C0.1,77.7,0,77.5,0,77.2V0.6C0,0.3,0.3,0,0.6,0s0.6,0.3,0.6,0.6v76.2
		l13.2,6.6l14.7-4.9V2.4c0-0.3,0.3-0.6,0.6-0.6s0.6,0.3,0.6,0.6V79c0,0.3-0.2,0.6-0.5,0.6l-15.2,5.1C14.5,84.7,14.5,84.7,14.4,84.7z
		"/>
</g>
</svg>
