<!-- Generator: Adobe Illustrator 19.2.1, SVG Export Plug-In  -->
<svg version="1.1"
	 xmlns="http://www.w3.org/2000/svg" xmlns:xlink="http://www.w3.org/1999/xlink" xmlns:a="http://ns.adobe.com/AdobeSVGViewerExtensions/3.0/"
	 x="0px" y="0px" width="83.9px" height="43.1px" viewBox="0 0 83.9 43.1" style="enable-background:new 0 0 83.9 43.1;"
	 xml:space="preserve">
<style type="text/css">
	.st0{fill:#752AF3;}
	.st1{fill:#FFFFFF;}
</style>
<defs>
</defs>
<g>
	<g>
		<g>
			<g>
				<polygon class="st0" points="5.5,16.8 36.8,32.4 36.8,40.2 5.5,24.6 				"/>
				<path class="st1" d="M36.8,40.9c-0.1,0-0.2,0-0.3-0.1L5.3,25.1C5,25,4.9,24.8,4.9,24.6v-7.8c0-0.2,0.1-0.4,0.3-0.5
					c0.2-0.1,0.4-0.1,0.6,0l31.3,15.6c0.2,0.1,0.3,0.3,0.3,0.6v7.8c0,0.2-0.1,0.4-0.3,0.5C37,40.8,36.9,40.9,36.8,40.9z M6.2,24.2
					l30,15v-6.4l-30-15V24.2z"/>
			</g>
			<g>
				<polyline class="st0" points="36.8,32.4 83.2,16.9 83.2,24.7 36.8,40.2 				"/>
				<path class="st1" d="M36.8,40.9c-0.3,0-0.5-0.2-0.6-0.4c-0.1-0.3,0.1-0.7,0.4-0.8l46-15.4v-6.5L37,33c-0.3,0.1-0.7-0.1-0.8-0.4
					c-0.1-0.3,0.1-0.7,0.4-0.8L83,16.3c0.2-0.1,0.4,0,0.6,0.1c0.2,0.1,0.3,0.3,0.3,0.5v7.8c0,0.3-0.2,0.5-0.4,0.6L37,40.8
					C36.9,40.8,36.9,40.9,36.8,40.9z"/>
			</g>
			<g>
				<polygon class="st0" points="51.6,1.2 5.5,16.8 36.6,32.4 82.6,16.9 				"/>
				<path class="st1" d="M51.6,1.2l31,15.6L36.6,32.4l-31-15.6L51.6,1.2 M51.6,0c-0.1,0-0.3,0-0.4,0.1L5.1,15.6
					c-0.5,0.2-0.8,0.6-0.8,1.1c0,0.5,0.2,1,0.7,1.2l31,15.6c0.2,0.1,0.4,0.1,0.6,0.1c0.1,0,0.3,0,0.4-0.1L83,18.1
					c0.5-0.2,0.8-0.6,0.8-1.1c0-0.5-0.2-1-0.7-1.2l-31-15.6C52,0,51.8,0,51.6,0L51.6,0z"/>
			</g>
		</g>
	</g>
	<g>
		<polygon class="st0" points="36.8,33 41.8,35.3 41.8,42.5 36.8,40.2 		"/>
		<path class="st1" d="M41.8,43.1c-0.1,0-0.2,0-0.3-0.1l-4.9-2.3c-0.2-0.1-0.4-0.3-0.4-0.6V33c0-0.2,0.1-0.4,0.3-0.5
			c0.2-0.1,0.4-0.1,0.6,0l4.9,2.3c0.2,0.1,0.4,0.3,0.4,0.6v7.2c0,0.2-0.1,0.4-0.3,0.5C42,43.1,41.9,43.1,41.8,43.1z M37.5,39.8
			l3.7,1.7v-5.8L37.5,34V39.8z"/>
	</g>
	<g>
		<polygon class="st0" points="0.6,15.3 5.5,17.5 5.5,24.5 0.6,22.3 		"/>
		<path class="st1" d="M5.5,25.1c-0.1,0-0.2,0-0.3-0.1l-4.9-2.2C0.1,22.8,0,22.6,0,22.3v-7c0-0.2,0.1-0.4,0.3-0.5s0.4-0.1,0.6,0
			L5.8,17c0.2,0.1,0.4,0.3,0.4,0.6v7c0,0.2-0.1,0.4-0.3,0.5C5.8,25.1,5.7,25.1,5.5,25.1z M1.2,21.9l3.7,1.6v-5.6l-3.7-1.6V21.9z"/>
	</g>
	<path class="st1" d="M64.3,24.1c-0.1,0-0.2,0-0.3-0.1l-17.6-8.8c-0.3-0.2-0.4-0.5-0.3-0.8c0.2-0.3,0.5-0.4,0.8-0.3l17.6,8.8
		c0.3,0.2,0.4,0.5,0.3,0.8C64.8,24,64.6,24.1,64.3,24.1z"/>
	<path class="st1" d="M55.9,26.9c-0.1,0-0.2,0-0.3-0.1l-13-6.5c-0.3-0.2-0.4-0.5-0.3-0.8c0.2-0.3,0.5-0.4,0.8-0.3l13,6.5
		c0.3,0.2,0.4,0.5,0.3,0.8C56.4,26.8,56.1,26.9,55.9,26.9z"/>
</g>
</svg>
