<!-- Generator: Adobe Illustrator 19.2.1, SVG Export Plug-In  -->
<svg version="1.1"
	 xmlns="http://www.w3.org/2000/svg" xmlns:xlink="http://www.w3.org/1999/xlink" xmlns:a="http://ns.adobe.com/AdobeSVGViewerExtensions/3.0/"
	 x="0px" y="0px" width="125px" height="125px" viewBox="0 0 125 125" style="enable-background:new 0 0 125 125;"
	 xml:space="preserve">
<style type="text/css">
	.st0{fill:#FFFFFF;}
	.st1{fill:#FFFFFF;stroke:#7629F4;stroke-width:1.248;stroke-linecap:round;stroke-linejoin:round;stroke-miterlimit:10;}
	.st2{fill:#F5F5F5;stroke:#7629F4;stroke-width:1.248;stroke-linecap:round;stroke-linejoin:round;stroke-miterlimit:10;}
	.st3{fill:#FFFFFF;stroke:#762AF3;stroke-miterlimit:10;}
	.st4{fill:none;stroke:#762AF3;stroke-miterlimit:10;}
	.st5{fill:#7629F4;}
	.st6{fill:#752AF3;stroke:#FFFFFF;stroke-width:1.2475;stroke-linecap:round;stroke-linejoin:round;stroke-miterlimit:10;}
	.st7{fill:#752AF3;}
	.st8{fill:none;stroke:#FFFFFF;stroke-width:1.2475;stroke-linecap:round;stroke-linejoin:round;stroke-miterlimit:10;}
</style>
<defs>
</defs>
<g>
	<circle class="st0" cx="62.5" cy="62.5" r="62.5"/>
	<g>
		<g>
			<path class="st1" d="M23,44.8L38.7,71L7.2,81.5L23,44.8z"/>
			<path class="st2" d="M23,65.2L21,56.4l3.9-1.3L23,65.2z"/>
			<path class="st2" d="M24.6,69.2c0-1.3-0.7-2.1-1.6-1.8c-0.9,0.3-1.6,1.6-1.6,2.8s0.7,2.1,1.6,1.8C23.8,71.8,24.6,70.5,24.6,69.2z
				"/>
		</g>
		<polygon class="st3" points="87.8,59 47.6,62.2 45.8,54.5 86,51.3 		"/>
		<path class="st4" d="M60.4,26c0,0-19,8.4-21.2,32.6"/>
		<path class="st4" d="M87.1,20.8c0,0-17.1,0.6-24.6,10.8"/>
		<path class="st4" d="M47.2,27.5c-2,2.1-3.8,4.7-5.4,7.9"/>
		<polygon class="st3" points="96.1,47.6 55.8,48.3 54.6,40.5 94.8,39.8 		"/>
		<polygon class="st5" points="92.6,23.2 83.1,14.5 84.6,28.2 		"/>
		<g>
			<g>
				<g>
					<polygon class="st6" points="27.9,85.1 59.1,100.7 59.1,108.5 27.9,92.9 					"/>
					<polyline class="st6" points="59.1,100.7 105.6,85.2 105.6,93 59.1,108.5 					"/>
					<g>
						<path class="st7" d="M59.1,101.3c-0.1,0-0.2,0-0.3-0.1L27.6,85.6c-0.2-0.1-0.4-0.3-0.3-0.6s0.2-0.5,0.4-0.5l46.4-15.5
							c0.1,0,0.1,0,0.2,0c0.1,0,0.2,0,0.3,0.1l31.3,15.6c0.2,0.1,0.4,0.3,0.3,0.6s-0.2,0.5-0.4,0.5l-46.4,15.5
							C59.3,101.3,59.2,101.3,59.1,101.3z"/>
						<g>
							<path class="st0" d="M74.3,69.5l31.3,15.6l-46.4,15.5L27.9,85.1L74.3,69.5 M74.3,68.3c-0.1,0-0.3,0-0.4,0.1L27.5,83.9
								C27,84,26.7,84.5,26.6,85c0,0.5,0.2,1,0.7,1.2l31.3,15.6c0.2,0.1,0.4,0.1,0.6,0.1c0.1,0,0.3,0,0.4-0.1L106,86.4
								c0.5-0.2,0.8-0.6,0.8-1.1c0-0.5-0.2-1-0.7-1.2L74.8,68.4C74.7,68.3,74.5,68.3,74.3,68.3L74.3,68.3z"/>
						</g>
					</g>
				</g>
			</g>
			<polygon class="st6" points="59.2,100.7 64.1,103.2 64.1,111 59.2,108.5 			"/>
			<polygon class="st6" points="23,82.5 27.9,85 27.9,92.8 23,90.3 			"/>
			<line class="st8" x1="85.7" y1="91.8" x2="68.1" y2="83"/>
			<line class="st8" x1="77.2" y1="94.6" x2="64.3" y2="88.1"/>
		</g>
		<polygon class="st3" points="91.6,77.2 53.8,73.9 53.4,66.5 91.2,69.8 		"/>
	</g>
</g>
</svg>
