<!-- Generator: Adobe Illustrator 19.2.0, SVG Export Plug-In  -->
<svg version="1.0"
	 xmlns="http://www.w3.org/2000/svg" xmlns:xlink="http://www.w3.org/1999/xlink" xmlns:a="http://ns.adobe.com/AdobeSVGViewerExtensions/3.0/"
	 x="0px" y="0px" width="116.1px" height="183px" viewBox="0 0 116.1 183" style="enable-background:new 0 0 116.1 183;"
	 xml:space="preserve">
<style type="text/css">
	.st0{fill:#FFFFFF;stroke:#FFFFFF;stroke-width:1.2475;stroke-linecap:round;stroke-linejoin:round;stroke-miterlimit:10;}
	.st1{fill:#FFFFFF;stroke:#7629F4;stroke-width:1.2475;stroke-linecap:round;stroke-linejoin:round;stroke-miterlimit:10;}
	.st2{fill:none;stroke:#7629F4;stroke-width:1.2475;stroke-miterlimit:10;}
	.st3{fill:#7629F4;}
	.st4{fill:none;stroke:#7629F4;stroke-width:1.2475;stroke-linecap:round;stroke-linejoin:round;stroke-miterlimit:10;}
</style>
<defs>
</defs>
<g>
	<line class="st0" x1="0.6" y1="105.4" x2="26.1" y2="118.2"/>
</g>
<g>
	<line class="st0" x1="0.6" y1="26.4" x2="31" y2="41.6"/>
</g>
<g>
	<line class="st0" x1="6.3" y1="77.2" x2="35.5" y2="91.8"/>
</g>
<g>
	<polyline class="st1" points="101.6,182.4 115.5,177.3 115.5,83.7 86.5,29.9 28,0.6 13.8,5.4 	"/>
	<polyline class="st1" points="13.5,5.4 72.6,35 72.6,74.3 101.6,88.8 101.6,182.4 13.5,138.3 	"/>
	<line class="st2" x1="13.5" y1="138.3" x2="13.5" y2="5.4"/>
	<polygon class="st3" points="72.6,35 101.6,88.8 72.6,74.3 	"/>
	<g>
		<polyline class="st4" points="82.8,108.7 82.8,116.3 56,102.9 		"/>
		<line class="st1" x1="30.3" y1="74.9" x2="82.8" y2="101.2"/>
	</g>
	<polyline class="st4" points="56,119.9 82.8,133.3 82.8,140.8 56,127.4 	"/>
	<line class="st1" x1="42.8" y1="105.7" x2="82.8" y2="125.7"/>
</g>
</svg>
