<!-- Generator: Adobe Illustrator 19.2.0, SVG Export Plug-In  -->
<svg version="1.0"
	 xmlns="http://www.w3.org/2000/svg" xmlns:xlink="http://www.w3.org/1999/xlink" xmlns:a="http://ns.adobe.com/AdobeSVGViewerExtensions/3.0/"
	 x="0px" y="0px" width="1341.4px" height="579.5px" viewBox="0 0 1341.4 579.5" style="enable-background:new 0 0 1341.4 579.5;"
	 xml:space="preserve">
<style type="text/css">
	.st0{fill:#7629F4;}
	.st1{fill:#FFFFFF;stroke:#7629F4;stroke-width:1.2475;stroke-linecap:round;stroke-linejoin:round;stroke-miterlimit:10;}
	.st2{fill:none;stroke:#FFFFFF;stroke-width:1.2475;stroke-linecap:round;stroke-linejoin:round;stroke-miterlimit:10;}
	.st3{fill:#FFFFFF;stroke:#FFFFFF;stroke-width:1.2475;stroke-linecap:round;stroke-linejoin:round;stroke-miterlimit:10;}
	.st4{clip-path:url(#SVGID_2_);}
	.st5{fill:none;stroke:#7629F4;stroke-width:1.2475;stroke-miterlimit:10;}
	.st6{fill:none;stroke:#7629F4;stroke-width:1.2475;stroke-linecap:round;stroke-linejoin:round;stroke-miterlimit:10;}
	.st7{clip-path:url(#SVGID_4_);}
	.st8{clip-path:url(#SVGID_6_);}
	.st9{clip-path:url(#SVGID_8_);}
	.st10{clip-path:url(#SVGID_10_);}
	.st11{clip-path:url(#SVGID_12_);}
</style>
<defs>
</defs>
<g>
	<g>
		<g>
			<g>
				<rect class="st0" width="1260.5" height="567.3"/>
			</g>
		</g>
	</g>
</g>
<g>
	<path class="st1" d="M142.3,542.4"/>
	<polygon class="st2" points="195.5,397.4 239.6,382.8 239.6,515.7 195.5,530.4 	"/>
	<g>
		<line class="st3" x1="213.8" y1="502" x2="239.2" y2="514.7"/>
	</g>
	<g>
		<line class="st3" x1="213.8" y1="422.9" x2="244.1" y2="438.1"/>
	</g>
	<g>
		<line class="st3" x1="219.5" y1="473.8" x2="248.6" y2="488.3"/>
	</g>
	<g>
		<line class="st1" x1="207.9" y1="403.1" x2="224.3" y2="411.3"/>
	</g>
	<g>
		<line class="st3" x1="229.3" y1="467.7" x2="248.6" y2="477.4"/>
	</g>
	<line class="st2" x1="207.9" y1="393.3" x2="207.9" y2="525.5"/>
	<line class="st2" x1="187.3" y1="400.2" x2="116.5" y2="423.8"/>
	<line class="st2" x1="324.4" y1="356.7" x2="253.5" y2="380.3"/>
	<line class="st2" x1="401.7" y1="346.8" x2="287.1" y2="385"/>
	<g>
		<g>
			<line class="st3" x1="1006.2" y1="277" x2="1039.8" y2="293.8"/>
		</g>
		<g>
			<line class="st3" x1="1142.1" y1="304.1" x2="1178.1" y2="322.1"/>
		</g>
		<g>
			<line class="st3" x1="1176.8" y1="153.5" x2="1241.5" y2="185.8"/>
		</g>
		<g>
			<line class="st3" x1="1187" y1="173.9" x2="1208.9" y2="184.9"/>
		</g>
		<line class="st2" x1="1077.3" y1="155.8" x2="1077.3" y2="309.9"/>
		<line class="st2" x1="1043.9" y1="167.2" x2="1043.9" y2="321.3"/>
		<line class="st2" x1="1125.4" y1="140.7" x2="1125.4" y2="294.8"/>
		<line class="st2" x1="931.4" y1="204.5" x2="931.4" y2="277"/>
		<line class="st2" x1="938.2" y1="202.2" x2="938.2" y2="257.4"/>
		<line class="st2" x1="970.4" y1="191.6" x2="970.4" y2="345.7"/>
		<line class="st2" x1="1142.9" y1="134.2" x2="1142.9" y2="288.3"/>
		<line class="st2" x1="835.4" y1="236.5" x2="1269.3" y2="91.8"/>
		<line class="st2" x1="970.4" y1="345.8" x2="1294.9" y2="237.6"/>
		<g>
			<defs>
				<polygon id="SVGID_1_" points="1078.9,157 1157.4,130.8 1275.8,311.5 1126.1,384 1078.9,310.7 				"/>
			</defs>
			<clipPath id="SVGID_2_">
				<use xlink:href="#SVGID_1_"  style="overflow:visible;"/>
			</clipPath>
			<g class="st4">
				<polyline class="st1" points="1119.8,328.6 1135.6,322.8 1135.6,216.4 1102.6,155.2 1036.1,122 1020,127.4 				"/>
				<polyline class="st1" points="1019.6,127.4 1086.8,161 1086.8,205.7 1119.8,222.2 1119.8,328.6 1019.6,278.5 				"/>
				<line class="st5" x1="1019.6" y1="278.5" x2="1019.6" y2="127.4"/>
				<polygon class="st0" points="1086.8,161 1119.8,222.2 1086.8,205.7 				"/>
				<g>
					<polyline class="st6" points="1098.5,244.8 1098.5,253.4 1068,238.2 					"/>
					<line class="st1" x1="1038.7" y1="206.4" x2="1098.5" y2="236.3"/>
				</g>
				<polyline class="st6" points="1068,257.5 1098.5,272.8 1098.5,281.4 1068,266.1 				"/>
				<line class="st1" x1="1053" y1="241.5" x2="1098.5" y2="264.2"/>
			</g>
		</g>
		<g>
			<defs>
				<polygon id="SVGID_3_" points="972.3,192.8 1050.8,166.6 1169.2,361.7 1019.5,434.3 972.3,360.9 				"/>
			</defs>
			<clipPath id="SVGID_4_">
				<use xlink:href="#SVGID_3_"  style="overflow:visible;"/>
			</clipPath>
			<g class="st7">
				<polyline class="st1" points="983.8,349.3 999.9,343.5 999.9,235.3 966.3,173.1 898.8,139.3 882.3,144.8 				"/>
				<polyline class="st1" points="882,144.8 950.3,179 950.3,224.4 983.8,241.2 983.8,349.3 882,298.4 				"/>
				<line class="st5" x1="882" y1="298.4" x2="882" y2="144.8"/>
				<polygon class="st0" points="950.3,179 983.8,241.2 950.3,224.4 				"/>
				<g>
					<polyline class="st6" points="962.1,264.2 962.1,272.9 931.1,257.4 					"/>
					<line class="st1" x1="901.4" y1="225.1" x2="962.1" y2="255.5"/>
				</g>
				<polyline class="st6" points="931.1,277.1 962.1,292.6 962.1,301.3 931.1,285.8 				"/>
				<line class="st1" x1="915.9" y1="260.8" x2="962.1" y2="283.9"/>
			</g>
		</g>
		<g>
			<defs>
				<polygon id="SVGID_5_" points="1144.4,135.3 1223,109.1 1341.4,304.2 1191.7,376.8 1144.4,303.5 				"/>
			</defs>
			<clipPath id="SVGID_6_">
				<use xlink:href="#SVGID_5_"  style="overflow:visible;"/>
			</clipPath>
			<g class="st8">
				<polyline class="st1" points="1165.3,297.2 1181.4,291.3 1181.4,183.2 1147.9,120.9 1080.3,87.1 1063.9,92.7 				"/>
				<polyline class="st1" points="1063.5,92.7 1131.8,126.8 1131.8,172.3 1165.3,189 1165.3,297.2 1063.5,246.3 				"/>
				<line class="st5" x1="1063.5" y1="246.3" x2="1063.5" y2="92.7"/>
				<polygon class="st0" points="1131.8,126.8 1165.3,189 1131.8,172.3 				"/>
				<g>
					<polyline class="st6" points="1143.7,212 1143.7,220.8 1112.7,205.3 					"/>
					<line class="st1" x1="1082.9" y1="172.9" x2="1143.7" y2="203.3"/>
				</g>
				<polyline class="st6" points="1112.7,224.9 1143.7,240.4 1143.7,249.1 1112.7,233.6 				"/>
				<line class="st1" x1="1097.5" y1="208.6" x2="1143.7" y2="231.7"/>
			</g>
		</g>
	</g>
	<g>
		<polyline class="st1" points="314.7,578.9 328.7,573.8 328.7,480.2 299.6,426.4 241.2,397.1 227,401.9 		"/>
		<polyline class="st1" points="226.6,401.9 285.7,431.5 285.7,470.8 314.7,485.3 314.7,578.9 226.6,534.8 		"/>
		<line class="st5" x1="226.6" y1="534.8" x2="226.6" y2="401.9"/>
		<polygon class="st0" points="285.7,431.5 314.7,485.3 285.7,470.8 		"/>
		<g>
			<polyline class="st6" points="296,505.2 296,512.8 269.2,499.4 			"/>
			<line class="st1" x1="243.4" y1="471.4" x2="296" y2="497.7"/>
		</g>
		<polyline class="st6" points="269.2,516.4 296,529.8 296,537.3 269.2,523.9 		"/>
		<line class="st1" x1="256" y1="502.2" x2="296" y2="522.2"/>
	</g>
</g>
</svg>
