<!-- Generator: Adobe Illustrator 19.2.0, SVG Export Plug-In  -->
<svg version="1.0"
	 xmlns="http://www.w3.org/2000/svg" xmlns:xlink="http://www.w3.org/1999/xlink" xmlns:a="http://ns.adobe.com/AdobeSVGViewerExtensions/3.0/"
	 x="0px" y="0px" width="287.9px" height="295.6px" viewBox="0 0 287.9 295.6" style="enable-background:new 0 0 287.9 295.6;"
	 xml:space="preserve">
<style type="text/css">
	.st0{clip-path:url(#SVGID_2_);}
	.st1{fill:#FFFFFF;stroke:#7629F4;stroke-width:1.2475;stroke-linecap:round;stroke-linejoin:round;stroke-miterlimit:10;}
	.st2{fill:none;stroke:#7629F4;stroke-width:1.2475;stroke-miterlimit:10;}
	.st3{fill:#7629F4;}
	.st4{fill:none;stroke:#7629F4;stroke-width:1.2475;stroke-linecap:round;stroke-linejoin:round;stroke-miterlimit:10;}
	.st5{clip-path:url(#SVGID_4_);}
</style>
<defs>
</defs>
<g>
	<defs>
		<polygon id="SVGID_1_" points="90.9,54.1 169.5,27.9 287.9,223 138.2,295.6 90.9,222.2 		"/>
	</defs>
	<clipPath id="SVGID_2_">
		<use xlink:href="#SVGID_1_"  style="overflow:visible;"/>
	</clipPath>
	<g class="st0">
		<polyline class="st1" points="102.4,210.7 118.5,204.8 118.5,96.6 85,34.4 17.4,0.6 1,6.2 		"/>
		<polyline class="st1" points="0.6,6.2 68.9,40.3 68.9,85.8 102.4,102.5 102.4,210.7 0.6,159.7 		"/>
		<line class="st2" x1="0.6" y1="159.7" x2="0.6" y2="6.2"/>
		<polygon class="st3" points="68.9,40.3 102.4,102.5 68.9,85.8 		"/>
		<g>
			<polyline class="st4" points="80.8,125.5 80.8,134.3 49.8,118.8 			"/>
			<line class="st1" x1="20" y1="86.4" x2="80.8" y2="116.8"/>
		</g>
		<polyline class="st4" points="49.8,138.4 80.8,153.9 80.8,162.6 49.8,147.1 		"/>
		<line class="st1" x1="34.6" y1="122.1" x2="80.8" y2="145.2"/>
	</g>
</g>
</svg>
