<!-- Generator: Adobe Illustrator 19.2.0, SVG Export Plug-In  -->
<svg version="1.0"
	 xmlns="http://www.w3.org/2000/svg" xmlns:xlink="http://www.w3.org/1999/xlink" xmlns:a="http://ns.adobe.com/AdobeSVGViewerExtensions/3.0/"
	 x="0px" y="0px" width="119.1px" height="211.3px" viewBox="0 0 119.1 211.3" style="enable-background:new 0 0 119.1 211.3;"
	 xml:space="preserve">
<style type="text/css">
	.st0{fill:#FFFFFF;stroke:#7629F4;stroke-width:1.2475;stroke-linecap:round;stroke-linejoin:round;stroke-miterlimit:10;}
	.st1{fill:none;stroke:#7629F4;stroke-width:1.2475;stroke-miterlimit:10;}
	.st2{fill:#7629F4;}
	.st3{fill:none;stroke:#7629F4;stroke-width:1.2475;stroke-linecap:round;stroke-linejoin:round;stroke-miterlimit:10;}
</style>
<defs>
</defs>
<g>
	<polyline class="st0" points="102.4,210.7 118.5,204.8 118.5,96.6 85,34.4 17.4,0.6 1,6.2 	"/>
	<polyline class="st0" points="0.6,6.2 68.9,40.3 68.9,85.8 102.4,102.5 102.4,210.7 0.6,159.7 	"/>
	<line class="st1" x1="0.6" y1="159.7" x2="0.6" y2="6.2"/>
	<polygon class="st2" points="68.9,40.3 102.4,102.5 68.9,85.8 	"/>
	<g>
		<polyline class="st3" points="80.8,125.5 80.8,134.3 49.8,118.8 		"/>
		<line class="st0" x1="20" y1="86.4" x2="80.8" y2="116.8"/>
	</g>
	<polyline class="st3" points="49.8,138.4 80.8,153.9 80.8,162.6 49.8,147.1 	"/>
	<line class="st0" x1="34.6" y1="122.1" x2="80.8" y2="145.2"/>
</g>
</svg>
