<?xml version="1.0" encoding="utf-8"?>
<!-- Generator: Adobe Illustrator 19.2.0, SVG Export Plug-In . SVG Version: 6.00 Build 0)  -->
<svg version="1.1" id="Layer_1" xmlns="http://www.w3.org/2000/svg" xmlns:xlink="http://www.w3.org/1999/xlink" x="0px" y="0px"
	 viewBox="0 0 122.1 183" style="enable-background:new 0 0 122.1 183;" xml:space="preserve">
<style type="text/css">
	.st0{fill:none;stroke:#FFFFFF;stroke-width:1.2475;stroke-linecap:round;stroke-linejoin:round;stroke-miterlimit:10;}
	.st1{fill:#FFFFFF;stroke:#7629F4;stroke-width:1.2475;stroke-linecap:round;stroke-linejoin:round;stroke-miterlimit:10;}
	.st2{fill:none;stroke:#7629F4;stroke-width:1.2475;stroke-miterlimit:10;}
	.st3{fill:#7629F4;}
	.st4{fill:none;stroke:#7629F4;stroke-width:1.2475;stroke-linecap:round;stroke-linejoin:round;stroke-miterlimit:10;}
</style>
<g>
	<line class="st0" x1="6.5" y1="105.4" x2="32" y2="118.2"/>
</g>
<g>
	<line class="st0" x1="6.5" y1="26.4" x2="36.9" y2="41.6"/>
</g>
<g>
	<line class="st0" x1="12.3" y1="77.2" x2="41.4" y2="91.8"/>
</g>
<g>
	<polyline class="st1" points="107.5,182.4 121.4,177.3 121.4,83.7 92.4,29.9 33.9,0.6 19.7,5.4 	"/>
	<polyline class="st1" points="19.4,5.4 78.5,35 78.5,74.3 107.5,88.8 107.5,182.4 19.4,138.3 	"/>
	<line class="st2" x1="19.4" y1="138.3" x2="19.4" y2="5.4"/>
	<polygon class="st3" points="78.5,35 107.5,88.8 78.5,74.3 	"/>
	<g>
		<polyline class="st4" points="88.8,108.7 88.8,116.3 61.9,102.9 		"/>
		<line class="st4" x1="36.2" y1="74.9" x2="88.8" y2="101.2"/>
	</g>
	<polyline class="st4" points="61.9,119.9 88.8,133.3 88.8,140.8 61.9,127.4 	"/>
	<line class="st4" x1="48.8" y1="105.7" x2="88.8" y2="125.7"/>
</g>
<g>
	<line class="st4" x1="25.8" y1="28.5" x2="42.2" y2="36.7"/>
</g>
</svg>
