<!-- Generator: Adobe Illustrator 19.2.0, SVG Export Plug-In  -->
<svg version="1.0"
	 xmlns="http://www.w3.org/2000/svg" xmlns:xlink="http://www.w3.org/1999/xlink" xmlns:a="http://ns.adobe.com/AdobeSVGViewerExtensions/3.0/"
	 x="0px" y="0px" width="117.2px" height="207.8px" viewBox="0 0 117.2 207.8" style="enable-background:new 0 0 117.2 207.8;"
	 xml:space="preserve">
<style type="text/css">
	.st0{fill:#FFFFFF;stroke:#7629F4;stroke-width:1.2475;stroke-linecap:round;stroke-linejoin:round;stroke-miterlimit:10;}
	.st1{fill:none;stroke:#7629F4;stroke-width:1.2475;stroke-miterlimit:10;}
	.st2{fill:#7629F4;}
	.st3{fill:none;stroke:#7629F4;stroke-width:1.2475;stroke-linecap:round;stroke-linejoin:round;stroke-miterlimit:10;}
</style>
<defs>
</defs>
<g>
	<polyline class="st0" points="100.8,207.2 116.6,201.4 116.6,95.1 83.6,33.9 17.1,0.6 1,6.1 	"/>
	<polyline class="st0" points="0.6,6.1 67.8,39.6 67.8,84.4 100.8,100.9 100.8,207.2 0.6,157.1 	"/>
	<line class="st1" x1="0.6" y1="157.1" x2="0.6" y2="6.1"/>
	<polygon class="st2" points="67.8,39.6 100.8,100.9 67.8,84.4 	"/>
	<g>
		<polyline class="st3" points="79.5,123.5 79.5,132.1 49,116.8 		"/>
		<line class="st0" x1="19.7" y1="85" x2="79.5" y2="114.9"/>
	</g>
	<polyline class="st3" points="49,136.1 79.5,151.4 79.5,160 49,144.7 	"/>
	<line class="st0" x1="34" y1="120.1" x2="79.5" y2="142.8"/>
</g>
</svg>
