<?xml version="1.0" encoding="utf-8"?>
<!-- Generator: Adobe Illustrator 19.2.0, SVG Export Plug-In . SVG Version: 6.00 Build 0)  -->
<svg version="1.1" id="Layer_1" xmlns="http://www.w3.org/2000/svg" xmlns:xlink="http://www.w3.org/1999/xlink" x="0px" y="0px"
	 viewBox="0 0 286.5 184.8" style="enable-background:new 0 0 286.5 184.8;" xml:space="preserve">
<style type="text/css">
	.st0{fill:#FFFFFF;}
	.st1{fill:none;stroke:#FFFFFF;stroke-width:1.2475;stroke-linecap:round;stroke-linejoin:round;stroke-miterlimit:10;}
</style>
<path class="st0" d="M123.1,169L123.1,169l-42.8,14.3V51.8l42.8-14.3v0c0.4-0.2,0.8-0.3,1.2-0.3v-0.5c0-0.2-0.1-0.4-0.3-0.5
	c-0.2-0.1-0.4-0.1-0.6-0.1l-44,14.7c-0.3,0.1-0.4,0.3-0.4,0.6v132.9c0,0.2,0.1,0.4,0.3,0.5c0.1,0.1,0.2,0.1,0.4,0.1
	c0.1,0,0.1,0,0.2,0l44-14.7c0.3-0.1,0.4-0.3,0.4-0.6v-0.9C124,168.8,123.6,169,123.1,169z"/>
<line class="st1" x1="92" y1="47.2" x2="92" y2="179.4"/>
<line class="st1" x1="71.5" y1="54" x2="0.6" y2="77.7"/>
<line class="st1" x1="208.5" y1="10.5" x2="137.7" y2="34.2"/>
<line class="st1" x1="285.9" y1="0.6" x2="171.2" y2="38.8"/>
</svg>
