<!-- Generator: Adobe Illustrator 19.2.0, SVG Export Plug-In  -->
<svg version="1.0"
	 xmlns="http://www.w3.org/2000/svg" xmlns:xlink="http://www.w3.org/1999/xlink" xmlns:a="http://ns.adobe.com/AdobeSVGViewerExtensions/3.0/"
	 x="0px" y="0px" width="129px" height="73.8px" viewBox="0 0 129 73.8" style="enable-background:new 0 0 129 73.8;"
	 xml:space="preserve">
<style type="text/css">
	.st0{fill:#7629F4;}
</style>
<defs>
</defs>
<g>
	<g>
		<path class="st0" d="M6,45.4c0,0.4-0.1,0.9-0.2,1.3c-0.1,0.4-0.3,0.9-0.6,1.2c-0.2,0.4-0.5,0.7-0.9,1c-0.3,0.3-0.7,0.5-1.1,0.6
			c-0.3,0.1-0.7,0.2-1,0.2c-0.3,0-0.6-0.1-0.9-0.3c-0.3-0.2-0.5-0.4-0.7-0.8c-0.2-0.4-0.3-0.9-0.3-1.5v-7.8c0-0.5,0.1-0.9,0.2-1.4
			c0.1-0.4,0.3-0.9,0.6-1.2c0.2-0.4,0.5-0.7,0.9-1c0.3-0.3,0.7-0.5,1.1-0.6C3.7,35,4,34.9,4.4,35c0.3,0.1,0.6,0.2,0.9,0.4
			c0.2,0.2,0.4,0.5,0.6,0.9C6,36.7,6,37.1,6,37.6v0.8L4.3,39v-0.7c0-0.4-0.1-0.7-0.3-0.9c-0.2-0.2-0.5-0.3-0.8-0.2
			c-0.4,0.1-0.7,0.4-0.9,0.7c-0.1,0.4-0.2,0.8-0.2,1.3v7.3c0,0.4,0.1,0.7,0.2,1c0.2,0.2,0.4,0.3,0.8,0.2c0.1,0,0.2-0.1,0.4-0.2
			c0.1-0.1,0.2-0.2,0.4-0.3c0.1-0.1,0.2-0.3,0.3-0.5c0.1-0.2,0.1-0.5,0.1-0.7V45L6,44.5V45.4z"/>
		<path class="st0" d="M7.4,33.9l1.7-0.6v12.2l3.4-1.1v2l-5.2,1.7V33.9z"/>
		<path class="st0" d="M19.3,41c0,0.5-0.1,0.9-0.2,1.4c-0.1,0.4-0.3,0.9-0.6,1.2c-0.3,0.4-0.6,0.7-0.9,1c-0.3,0.3-0.7,0.5-1.1,0.6
			c-0.4,0.1-0.7,0.2-1.1,0.1c-0.3-0.1-0.6-0.2-0.9-0.4c-0.3-0.2-0.5-0.5-0.6-0.9c-0.1-0.4-0.2-0.8-0.2-1.2v-11l1.7-0.6v10.8
			c0,0.5,0.1,0.8,0.3,1c0.2,0.2,0.5,0.2,0.8,0.1c0.3-0.1,0.6-0.3,0.8-0.6c0.2-0.3,0.3-0.7,0.3-1.2V30.6l1.7-0.6V41z"/>
		<path class="st0" d="M26.5,31.7l-1.7,0.6v-0.5c0-0.5-0.1-0.8-0.3-1.1c-0.2-0.3-0.5-0.3-0.9-0.2c-0.2,0.1-0.4,0.2-0.6,0.3
			c-0.2,0.2-0.3,0.3-0.4,0.5c-0.1,0.2-0.1,0.4-0.2,0.6c0,0.2-0.1,0.5-0.1,0.7c0,0.3,0,0.5,0,0.7c0,0.2,0.1,0.3,0.1,0.5
			c0.1,0.1,0.2,0.2,0.3,0.3c0.1,0.1,0.3,0.1,0.5,0.1l1.3,0.2c0.4,0,0.7,0.2,0.9,0.3c0.2,0.2,0.4,0.4,0.6,0.6c0.1,0.3,0.2,0.6,0.3,1
			c0,0.4,0.1,0.8,0.1,1.4c0,0.6-0.1,1.2-0.2,1.7c-0.1,0.5-0.3,1-0.5,1.5c-0.2,0.4-0.5,0.8-0.9,1.2s-0.9,0.6-1.4,0.8
			c-0.4,0.1-0.8,0.2-1.2,0.1c-0.4-0.1-0.7-0.2-0.9-0.4c-0.3-0.2-0.5-0.5-0.6-0.9c-0.2-0.4-0.2-0.8-0.2-1.3v-0.8l1.7-0.6v0.6
			c0,0.4,0.1,0.7,0.3,0.9c0.2,0.2,0.5,0.3,0.9,0.1c0.3-0.1,0.5-0.2,0.7-0.4c0.2-0.2,0.3-0.3,0.4-0.5c0.1-0.2,0.1-0.4,0.2-0.7
			c0-0.3,0-0.6,0-0.9c0-0.4,0-0.7,0-0.9c0-0.2-0.1-0.4-0.1-0.5c-0.1-0.1-0.2-0.2-0.3-0.3c-0.1-0.1-0.3-0.1-0.5-0.1l-1.2-0.2
			c-0.7-0.1-1.2-0.4-1.5-0.9c-0.3-0.5-0.4-1.2-0.4-2.1c0-0.5,0.1-1.1,0.2-1.6c0.1-0.5,0.3-1,0.6-1.4c0.2-0.4,0.6-0.8,0.9-1.1
			c0.4-0.3,0.8-0.6,1.3-0.7c0.4-0.1,0.8-0.2,1.2-0.1c0.4,0.1,0.7,0.2,0.9,0.4c0.3,0.2,0.4,0.5,0.6,0.8c0.1,0.3,0.2,0.7,0.2,1.1V31.7
			z"/>
		<path class="st0" d="M29,28.8l-2,0.7v-1.9l5.7-1.9v1.9l-2,0.7v12.3L29,41.1V28.8z"/>
		<path class="st0" d="M33.5,25.4l5.2-1.7v1.9l-3.4,1.1v4.2l3-1v1.9l-3,1V37l3.4-1.1v2l-5.2,1.7V25.4z"/>
		<path class="st0" d="M39.7,23.4l2.8-0.9c2-0.7,3.1,0.4,3.1,3.2c0,0.8-0.1,1.6-0.3,2.2c-0.2,0.7-0.6,1.3-1.2,1.8l1.9,5.9l-1.8,0.6
			l-1.6-5.5l-1,0.3V37l-1.7,0.6V23.4z M41.5,29.2l1-0.3c0.3-0.1,0.5-0.2,0.7-0.4c0.2-0.2,0.3-0.3,0.4-0.6c0.1-0.2,0.2-0.5,0.2-0.8
			c0-0.3,0.1-0.6,0.1-1c0-0.4,0-0.7-0.1-0.9c0-0.3-0.1-0.5-0.2-0.6c-0.1-0.2-0.3-0.3-0.4-0.3c-0.2,0-0.4,0-0.8,0.1l-0.9,0.3V29.2z"
			/>
		<path class="st0" d="M47,21l2.6-0.8C50,20,50.5,20,50.8,20c0.4,0,0.7,0.2,1,0.5c0.3,0.3,0.5,0.6,0.6,1.1c0.1,0.5,0.2,1.1,0.2,2
			c0,0.6,0,1.2-0.1,1.6c-0.1,0.5-0.2,0.9-0.4,1.4c-0.2,0.5-0.6,1-1,1.4c-0.4,0.4-0.9,0.7-1.6,0.9l-0.9,0.3v5.5L47,35.2V21z
			 M48.7,27.2l0.8-0.3c0.4-0.1,0.6-0.3,0.8-0.4c0.2-0.2,0.3-0.4,0.4-0.6c0.1-0.2,0.1-0.5,0.2-0.8c0-0.3,0-0.6,0-1c0-0.3,0-0.6,0-0.9
			c0-0.3-0.1-0.5-0.2-0.7c-0.1-0.2-0.2-0.3-0.4-0.4c-0.2-0.1-0.4,0-0.8,0.1l-0.9,0.3V27.2z"/>
		<path class="st0" d="M53.8,22.2c0-0.6,0.1-1.1,0.3-1.6c0.2-0.5,0.4-0.9,0.7-1.3c0.3-0.4,0.6-0.7,0.9-1c0.3-0.3,0.7-0.4,1-0.6
			c0.4-0.1,0.7-0.2,1-0.1c0.3,0,0.7,0.1,0.9,0.3c0.3,0.2,0.5,0.5,0.7,0.9c0.2,0.4,0.3,0.9,0.3,1.4v7.5c0,0.6-0.1,1.1-0.3,1.6
			c-0.2,0.5-0.4,0.9-0.7,1.3c-0.3,0.4-0.6,0.7-0.9,1c-0.3,0.3-0.7,0.4-1,0.6c-0.4,0.1-0.7,0.2-1,0.1c-0.3,0-0.7-0.2-0.9-0.3
			c-0.3-0.2-0.5-0.5-0.7-0.9c-0.2-0.4-0.3-0.9-0.3-1.4V22.2z M55.5,29.1c0,0.5,0.1,0.8,0.3,1c0.2,0.2,0.5,0.2,0.8,0.1
			c0.3-0.1,0.6-0.3,0.8-0.6c0.2-0.3,0.3-0.7,0.3-1.2v-7.5c0-0.5-0.1-0.8-0.3-1c-0.2-0.2-0.5-0.2-0.8-0.1c-0.3,0.1-0.6,0.3-0.8,0.6
			c-0.2,0.3-0.3,0.7-0.3,1.2V29.1z"/>
		<path class="st0" d="M61.2,16.4l1.7-0.6v14.2l-1.7,0.6V16.4z"/>
		<path class="st0" d="M64.5,15.3l1.7-0.5l2.6,7.7l0,0v-8.6l1.7-0.6v14.2l-1.6,0.5l-2.6-7.7l0,0V29l-1.7,0.6V15.3z"/>
		<path class="st0" d="M73.2,14.4l-2,0.7v-1.9l5.7-1.9v1.9l-2,0.7v12.3l-1.7,0.6V14.4z"/>
		<path class="st0" d="M86.4,19.2c0,0.4-0.1,0.9-0.2,1.3c-0.1,0.4-0.3,0.9-0.6,1.2c-0.2,0.4-0.5,0.7-0.9,1c-0.3,0.3-0.7,0.5-1.1,0.6
			c-0.3,0.1-0.7,0.2-1,0.2c-0.3,0-0.6-0.1-0.9-0.3c-0.3-0.2-0.5-0.4-0.7-0.8c-0.2-0.4-0.3-0.9-0.3-1.5v-7.8c0-0.5,0.1-0.9,0.2-1.4
			c0.1-0.4,0.3-0.9,0.6-1.2c0.2-0.4,0.5-0.7,0.9-1c0.3-0.3,0.7-0.5,1.1-0.6c0.4-0.1,0.8-0.2,1.1-0.1C85,9,85.3,9.1,85.6,9.3
			c0.2,0.2,0.4,0.5,0.6,0.9c0.1,0.4,0.2,0.8,0.2,1.3v0.8l-1.7,0.6v-0.7c0-0.4-0.1-0.7-0.3-0.9c-0.2-0.2-0.5-0.3-0.8-0.2
			c-0.4,0.1-0.7,0.4-0.9,0.7c-0.1,0.4-0.2,0.8-0.2,1.3v7.3c0,0.4,0.1,0.7,0.2,1c0.2,0.2,0.4,0.3,0.8,0.2c0.1,0,0.2-0.1,0.4-0.2
			c0.1-0.1,0.2-0.2,0.4-0.3c0.1-0.1,0.2-0.3,0.3-0.5c0.1-0.2,0.1-0.5,0.1-0.7v-0.7l1.7-0.6V19.2z"/>
		<path class="st0" d="M87.8,7.8l1.7-0.6v12.2l3.4-1.1v2L87.8,22V7.8z"/>
		<path class="st0" d="M94,9.1C94,8.5,94,8,94.2,7.5c0.2-0.5,0.4-0.9,0.7-1.3c0.3-0.4,0.6-0.7,0.9-1c0.3-0.3,0.7-0.4,1-0.6
			c0.4-0.1,0.7-0.2,1-0.1c0.3,0,0.7,0.1,0.9,0.3c0.3,0.2,0.5,0.5,0.7,0.9c0.2,0.4,0.3,0.9,0.3,1.4v7.5c0,0.6-0.1,1.1-0.3,1.6
			c-0.2,0.5-0.4,0.9-0.7,1.3c-0.3,0.4-0.6,0.7-0.9,1c-0.3,0.3-0.7,0.4-1,0.6c-0.4,0.1-0.7,0.2-1,0.1c-0.3,0-0.7-0.1-0.9-0.3
			c-0.3-0.2-0.5-0.5-0.7-0.9C94,17.7,94,17.2,94,16.6V9.1z M95.7,16c0,0.5,0.1,0.8,0.3,1c0.2,0.2,0.5,0.2,0.8,0.1
			c0.3-0.1,0.6-0.3,0.8-0.6c0.2-0.3,0.3-0.7,0.3-1.2V7.8c0-0.5-0.1-0.8-0.3-1c-0.2-0.2-0.5-0.2-0.8-0.1C96.5,6.8,96.3,7,96,7.3
			c-0.2,0.3-0.3,0.7-0.3,1.2V16z"/>
		<path class="st0" d="M106.9,12.6c0,0.5-0.1,0.9-0.2,1.4c-0.1,0.4-0.3,0.9-0.6,1.2c-0.3,0.4-0.6,0.7-0.9,1
			c-0.3,0.3-0.7,0.5-1.1,0.6c-0.4,0.1-0.7,0.2-1.1,0.1c-0.3-0.1-0.6-0.2-0.9-0.4c-0.3-0.2-0.5-0.5-0.6-0.9c-0.1-0.4-0.2-0.8-0.2-1.2
			v-11l1.7-0.6v10.8c0,0.5,0.1,0.8,0.3,1c0.2,0.2,0.5,0.2,0.8,0.1c0.3-0.1,0.6-0.3,0.8-0.6c0.2-0.3,0.3-0.7,0.3-1.2V2.1l1.7-0.6
			V12.6z"/>
		<path class="st0" d="M108.5,1l2.6-0.8c1-0.3,1.7-0.2,2.3,0.2c0.5,0.5,0.8,1.3,0.8,2.4v6.6c0,1.3-0.3,2.4-0.8,3.2
			c-0.5,0.8-1.3,1.4-2.4,1.7l-2.4,0.8V1z M110.2,12.8l0.8-0.3c0.5-0.2,0.8-0.4,1-0.8c0.2-0.4,0.3-0.8,0.3-1.4V3.4
			c0-0.6-0.1-1-0.3-1.2C111.9,2,111.6,2,111,2.1l-0.8,0.3V12.8z"/>
		<path class="st0" d="M7.7,71.9l-1.6,0.5l-1.3-8.8l0,0l-1.3,9.6l-1.6,0.5L0,60.2l1.8-0.6l0.9,8.7l0,0l1.4-9.5l1.3-0.4l1.4,8.8l0,0
			l0.8-9.5l1.8-0.6L7.7,71.9z"/>
		<path class="st0" d="M10.7,56.8l1.7-0.6v14.2L10.7,71V56.8z"/>
		<path class="st0" d="M15.2,57.2l-2,0.7v-1.9l5.7-1.9V56l-2,0.7v12.3l-1.7,0.6V57.2z"/>
		<path class="st0" d="M19.7,53.8l1.7-0.6v6.1l2.1-0.7v-6.1l1.7-0.6v14.2l-1.7,0.6v-6.3l-2.1,0.7v6.3L19.7,68V53.8z"/>
		<path class="st0" d="M30,53.8c0-0.6,0.1-1.1,0.3-1.6c0.2-0.5,0.4-0.9,0.7-1.3c0.3-0.4,0.6-0.7,0.9-1c0.3-0.3,0.7-0.4,1-0.6
			c0.4-0.1,0.7-0.2,1-0.1c0.3,0,0.7,0.1,0.9,0.3c0.3,0.2,0.5,0.5,0.7,0.9c0.2,0.4,0.3,0.9,0.3,1.4v7.5c0,0.6-0.1,1.1-0.3,1.6
			c-0.2,0.5-0.4,0.9-0.7,1.3c-0.3,0.4-0.6,0.7-0.9,1c-0.3,0.3-0.7,0.4-1,0.6c-0.4,0.1-0.7,0.2-1,0.1c-0.3,0-0.7-0.1-0.9-0.3
			c-0.3-0.2-0.5-0.5-0.7-0.9c-0.2-0.4-0.3-0.9-0.3-1.4V53.8z M31.7,60.8c0,0.5,0.1,0.8,0.3,1c0.2,0.2,0.5,0.2,0.8,0.1
			c0.3-0.1,0.6-0.3,0.8-0.6c0.2-0.3,0.3-0.7,0.3-1.2v-7.5c0-0.5-0.1-0.8-0.3-1c-0.2-0.2-0.5-0.2-0.8-0.1c-0.3,0.1-0.6,0.3-0.8,0.6
			c-0.2,0.3-0.3,0.7-0.3,1.2V60.8z"/>
		<path class="st0" d="M40.4,61.3l-1.5,0.5l-2.5-13.4l1.8-0.6l1.4,9.5l0,0L41,46.9l1.8-0.6L40.4,61.3z"/>
		<path class="st0" d="M43.9,46l5.2-1.7v1.9l-3.4,1.1v4.2l3-1v1.9l-3,1v4.2l3.4-1.1v2l-5.2,1.7V46z"/>
		<path class="st0" d="M50.2,43.9L53,43c2-0.7,3.1,0.4,3.1,3.2c0,0.8-0.1,1.6-0.3,2.2c-0.2,0.7-0.6,1.3-1.2,1.8l1.9,5.9l-1.8,0.6
			l-1.6-5.5l-1,0.3v6.1l-1.7,0.6V43.9z M51.9,49.7l1-0.3c0.3-0.1,0.5-0.2,0.7-0.4c0.2-0.2,0.3-0.3,0.4-0.6c0.1-0.2,0.2-0.5,0.2-0.8
			c0-0.3,0.1-0.6,0.1-1c0-0.4,0-0.7-0.1-0.9c0-0.3-0.1-0.5-0.2-0.6c-0.1-0.2-0.3-0.3-0.5-0.3c-0.2,0-0.4,0-0.8,0.1l-0.9,0.3V49.7z"
			/>
		<path class="st0" d="M62.4,42.1l-1.7,2.1V42l1.7-2.1l1.7-0.6v14.2l-1.7,0.6V42.1z"/>
		<path class="st0" d="M66.6,41.5c0-0.5,0.1-0.9,0.2-1.3c0.1-0.4,0.3-0.8,0.6-1.1c0.2-0.3,0.5-0.6,0.8-0.9c0.3-0.2,0.6-0.4,1-0.5
			c0.3-0.1,0.7-0.1,1-0.1c0.3,0,0.6,0.2,0.8,0.3c0.2,0.2,0.4,0.4,0.6,0.8c0.1,0.3,0.2,0.7,0.2,1.2v8.3c0,0.5-0.1,0.9-0.2,1.3
			c-0.1,0.4-0.3,0.8-0.6,1.1c-0.2,0.3-0.5,0.6-0.8,0.9c-0.3,0.2-0.6,0.4-1,0.5c-0.3,0.1-0.7,0.1-1,0.1c-0.3,0-0.6-0.2-0.8-0.3
			c-0.2-0.2-0.4-0.4-0.6-0.8c-0.1-0.3-0.2-0.7-0.2-1.2V41.5z M68.4,49.3c0,0.3,0.1,0.5,0.2,0.7c0.2,0.1,0.4,0.2,0.6,0.1
			c0.2-0.1,0.5-0.2,0.6-0.5c0.2-0.2,0.2-0.5,0.2-0.8v-8.3c0-0.3-0.1-0.5-0.2-0.7c-0.2-0.1-0.4-0.2-0.6-0.1c-0.2,0.1-0.5,0.2-0.6,0.5
			c-0.2,0.2-0.2,0.5-0.2,0.8V49.3z"/>
		<path class="st0" d="M72.9,39.5c0-0.5,0.1-0.9,0.2-1.3c0.1-0.4,0.3-0.8,0.6-1.1c0.2-0.3,0.5-0.6,0.8-0.9c0.3-0.2,0.6-0.4,1-0.5
			c0.3-0.1,0.7-0.1,1-0.1c0.3,0,0.6,0.2,0.8,0.3c0.2,0.2,0.4,0.4,0.6,0.8c0.1,0.3,0.2,0.7,0.2,1.2v8.3c0,0.5-0.1,0.9-0.2,1.3
			c-0.1,0.4-0.3,0.8-0.6,1.1c-0.2,0.3-0.5,0.6-0.8,0.9c-0.3,0.2-0.6,0.4-1,0.5c-0.3,0.1-0.7,0.1-1,0.1c-0.3,0-0.6-0.2-0.8-0.3
			c-0.2-0.2-0.4-0.4-0.6-0.8c-0.1-0.3-0.2-0.7-0.2-1.2V39.5z M74.7,47.2c0,0.3,0.1,0.5,0.2,0.7c0.2,0.1,0.4,0.2,0.6,0.1
			c0.2-0.1,0.5-0.2,0.6-0.5c0.2-0.2,0.2-0.5,0.2-0.8v-8.3c0-0.3-0.1-0.5-0.2-0.7c-0.2-0.1-0.4-0.2-0.6-0.1c-0.2,0.1-0.5,0.2-0.6,0.5
			c-0.2,0.2-0.2,0.5-0.2,0.8V47.2z"/>
		<path class="st0" d="M88.2,35.6l-1.7,0.6v-0.5c0-0.5-0.1-0.8-0.3-1.1c-0.2-0.3-0.5-0.3-0.9-0.2c-0.2,0.1-0.4,0.2-0.6,0.3
			c-0.2,0.2-0.3,0.3-0.4,0.5c-0.1,0.2-0.1,0.4-0.2,0.6c0,0.2-0.1,0.5-0.1,0.7c0,0.3,0,0.5,0,0.7c0,0.2,0.1,0.3,0.1,0.5
			c0.1,0.1,0.2,0.2,0.3,0.3c0.1,0.1,0.3,0.1,0.5,0.1l1.3,0.2c0.4,0,0.7,0.2,0.9,0.3c0.2,0.2,0.4,0.4,0.6,0.6c0.1,0.3,0.2,0.6,0.3,1
			c0,0.4,0.1,0.8,0.1,1.4c0,0.6-0.1,1.2-0.2,1.7c-0.1,0.5-0.3,1-0.5,1.5c-0.2,0.4-0.5,0.8-0.9,1.2c-0.4,0.3-0.9,0.6-1.4,0.8
			C84.8,47,84.4,47,84.1,47c-0.4-0.1-0.7-0.2-0.9-0.4c-0.3-0.2-0.5-0.5-0.6-0.9c-0.2-0.4-0.2-0.8-0.2-1.3v-0.8l1.7-0.6v0.6
			c0,0.4,0.1,0.7,0.3,0.9c0.2,0.2,0.5,0.3,0.9,0.1c0.3-0.1,0.5-0.2,0.7-0.4c0.2-0.2,0.3-0.3,0.4-0.5c0.1-0.2,0.1-0.4,0.2-0.7
			c0-0.3,0-0.6,0-0.9c0-0.4,0-0.7,0-0.9c0-0.2-0.1-0.4-0.1-0.5c-0.1-0.1-0.2-0.2-0.3-0.3c-0.1-0.1-0.3-0.1-0.5-0.1l-1.2-0.2
			c-0.7-0.1-1.2-0.4-1.5-0.9c-0.3-0.5-0.4-1.2-0.4-2.1c0-0.5,0.1-1.1,0.2-1.6c0.1-0.5,0.3-1,0.6-1.4c0.2-0.4,0.6-0.8,0.9-1.1
			c0.4-0.3,0.8-0.6,1.3-0.7c0.4-0.1,0.8-0.2,1.2-0.1c0.4,0.1,0.7,0.2,0.9,0.4c0.3,0.2,0.5,0.5,0.6,0.8c0.1,0.3,0.2,0.7,0.2,1.1V35.6
			z"/>
		<path class="st0" d="M89.5,31.1l5.2-1.7v1.9l-3.4,1.1v4.2l3-1v1.9l-3,1v4.2l3.4-1.1v2l-5.2,1.7V31.1z"/>
		<path class="st0" d="M95.8,29.1l2.8-0.9c2-0.7,3.1,0.4,3.1,3.2c0,0.8-0.1,1.6-0.3,2.2c-0.2,0.7-0.6,1.3-1.2,1.8l1.9,5.9l-1.8,0.6
			l-1.6-5.5l-1,0.3v6.1l-1.7,0.6V29.1z M97.5,34.9l1-0.3c0.3-0.1,0.5-0.2,0.7-0.4c0.2-0.2,0.3-0.3,0.4-0.6c0.1-0.2,0.2-0.5,0.2-0.8
			c0-0.3,0.1-0.6,0.1-1s0-0.7-0.1-0.9c0-0.3-0.1-0.5-0.2-0.6c-0.1-0.2-0.3-0.3-0.4-0.3c-0.2,0-0.4,0-0.8,0.1l-0.9,0.3V34.9z"/>
		<path class="st0" d="M106.4,39.8l-1.5,0.5l-2.5-13.4l1.8-0.6l1.4,9.5l0,0l1.4-10.4l1.8-0.6L106.4,39.8z"/>
		<path class="st0" d="M109.9,24.5l5.2-1.7v1.9l-3.4,1.1V30l3-1V31l-3,1v4.2l3.4-1.1v2l-5.2,1.7V24.5z"/>
		<path class="st0" d="M116.2,22.5l2.8-0.9c2-0.7,3.1,0.4,3.1,3.2c0,0.8-0.1,1.6-0.3,2.2c-0.2,0.7-0.6,1.3-1.2,1.8l1.9,5.9l-1.8,0.6
			l-1.6-5.5l-1,0.3v6.1l-1.7,0.6V22.5z M117.9,28.2l1-0.3c0.3-0.1,0.5-0.2,0.7-0.4c0.2-0.2,0.3-0.3,0.4-0.6c0.1-0.2,0.2-0.5,0.2-0.8
			c0-0.3,0.1-0.6,0.1-1c0-0.4,0-0.7-0.1-0.9c0-0.3-0.1-0.5-0.2-0.6c-0.1-0.2-0.3-0.3-0.4-0.3c-0.2,0-0.4,0-0.8,0.1l-0.9,0.3V28.2z"
			/>
		<path class="st0" d="M129,22.4l-1.7,0.6v-0.5c0-0.5-0.1-0.8-0.3-1.1c-0.2-0.3-0.5-0.3-0.9-0.2c-0.2,0.1-0.4,0.2-0.6,0.3
			c-0.2,0.2-0.3,0.3-0.4,0.5c-0.1,0.2-0.1,0.4-0.2,0.6c0,0.2-0.1,0.5-0.1,0.7c0,0.3,0,0.5,0,0.7c0,0.2,0.1,0.3,0.1,0.5
			c0.1,0.1,0.2,0.2,0.3,0.3c0.1,0.1,0.3,0.1,0.5,0.1l1.3,0.2c0.4,0,0.7,0.2,0.9,0.3c0.2,0.2,0.4,0.4,0.6,0.6c0.1,0.3,0.2,0.6,0.3,1
			c0,0.4,0.1,0.8,0.1,1.4c0,0.6-0.1,1.2-0.2,1.7c-0.1,0.5-0.3,1-0.5,1.5c-0.2,0.4-0.5,0.8-0.9,1.2c-0.4,0.3-0.9,0.6-1.4,0.8
			c-0.4,0.1-0.8,0.2-1.2,0.1c-0.4-0.1-0.7-0.2-0.9-0.4c-0.3-0.2-0.5-0.5-0.6-0.9c-0.2-0.4-0.2-0.8-0.2-1.3v-0.8l1.7-0.6v0.6
			c0,0.4,0.1,0.7,0.3,0.9c0.2,0.2,0.5,0.3,0.9,0.1c0.3-0.1,0.5-0.2,0.7-0.4c0.2-0.2,0.3-0.3,0.4-0.5c0.1-0.2,0.1-0.4,0.2-0.7
			c0-0.3,0-0.6,0-0.9c0-0.4,0-0.7,0-0.9c0-0.2-0.1-0.4-0.1-0.5c-0.1-0.1-0.2-0.2-0.3-0.3c-0.1-0.1-0.3-0.1-0.5-0.1l-1.2-0.2
			c-0.7-0.1-1.2-0.4-1.5-0.9c-0.3-0.5-0.4-1.2-0.4-2.1c0-0.5,0.1-1.1,0.2-1.6c0.1-0.5,0.3-1,0.6-1.4c0.2-0.4,0.6-0.8,0.9-1.1
			c0.4-0.3,0.8-0.6,1.3-0.7c0.4-0.1,0.8-0.2,1.2-0.1c0.4,0.1,0.7,0.2,0.9,0.4c0.3,0.2,0.4,0.5,0.6,0.8c0.1,0.3,0.2,0.7,0.2,1.1V22.4
			z"/>
	</g>
</g>
</svg>
