<!-- Generator: Adobe Illustrator 19.2.0, SVG Export Plug-In  -->
<svg version="1.0"
	 xmlns="http://www.w3.org/2000/svg" xmlns:xlink="http://www.w3.org/1999/xlink" xmlns:a="http://ns.adobe.com/AdobeSVGViewerExtensions/3.0/"
	 x="0px" y="0px" width="222.1px" height="242.4px" viewBox="0 0 222.1 242.4" style="enable-background:new 0 0 222.1 242.4;"
	 xml:space="preserve">
<style type="text/css">
	.st0{display:none;fill:#F1F1F1;}
	.st1{fill:none;stroke:#7629F4;stroke-linecap:round;stroke-linejoin:round;stroke-miterlimit:10;}
	.st2{fill:#7629F4;stroke:#7629F4;stroke-width:1.2475;stroke-linecap:round;stroke-linejoin:round;stroke-miterlimit:10;}
	.st3{fill:#7629F4;stroke:#FFFFFF;stroke-width:1.2475;stroke-linecap:round;stroke-linejoin:round;stroke-miterlimit:10;}
	.st4{fill:#FFFFFF;}
	.st5{fill:none;stroke:#7629F4;stroke-width:1.2475;stroke-linecap:round;stroke-linejoin:round;stroke-miterlimit:10;}
	.st6{fill:none;stroke:#FFFFFF;stroke-width:1.2475;stroke-linecap:round;stroke-linejoin:round;stroke-miterlimit:10;}
	.st7{fill:none;stroke:#FFFFFF;stroke-linecap:round;stroke-linejoin:round;}
	.st8{fill:none;stroke:#FFFFFF;stroke-linecap:round;stroke-linejoin:round;stroke-dasharray:0.4909,2.9452;}
	.st9{fill:none;stroke:#FFFFFF;stroke-linecap:round;stroke-linejoin:round;stroke-dasharray:0.4909,2.9451;}
	.st10{fill:#7629F4;}
</style>
<defs>
</defs>
<g>
	<g>
		<rect x="61.6" y="183.5" class="st0" width="13.8" height="16.8"/>
		<polyline class="st1" points="13.2,150.7 95.6,191.9 218,151 		"/>
		<line class="st1" x1="218" y1="138" x2="95.6" y2="178.9"/>
		<polyline class="st2" points="96,200.3 218.4,159.4 218.4,180 96,220.9 		"/>
		<path class="st1" d="M13.2,182.8"/>
		<polyline class="st1" points="218,180 95.6,220.9 13.2,179.7 13.2,171.9 		"/>
		<polyline class="st1" points="218,160 95.6,200.9 13.2,159.7 13.2,151.9 		"/>
		<polyline class="st1" points="13.2,198.4 95.6,239.7 218,198.7 		"/>
		<path class="st1" d="M95.5,224.4"/>
		<g>
			<g>
				<g>
					<g>
						<polygon class="st3" points="13.6,123.2 96,164.5 96,185.1 13.6,143.8 						"/>
						<polyline class="st3" points="96,164.5 218.4,123.5 218.4,144.1 96,185.1 						"/>
						<g>
							<polygon class="st4" points="135.9,82.3 13.6,123.2 96,164.5 218.4,123.5 							"/>
						</g>
					</g>
					<line class="st5" x1="73.8" y1="104.6" x2="14.7" y2="124.3"/>
					<line class="st6" x1="96" y1="164.5" x2="96" y2="185.1"/>
					<polyline class="st5" points="164.2,140.1 94.8,163.6 94.8,169.1 					"/>
				</g>
				<polygon class="st3" points="96.1,164.5 109.1,170.9 109.1,191.6 96.1,185.1 				"/>
				<polygon class="st3" points="0.6,116.5 13.6,123 13.6,143.6 0.6,137.1 				"/>
				<g>
					<g>
						<line class="st7" x1="20.7" y1="140.9" x2="20.9" y2="141.1"/>
						<line class="st8" x1="23.5" y1="142.4" x2="86.7" y2="174"/>
						<line class="st7" x1="88" y1="174.6" x2="88.3" y2="174.8"/>
					</g>
				</g>
				<g>
					<g>
						<line class="st7" x1="20.7" y1="137.2" x2="20.9" y2="137.3"/>
						<line class="st9" x1="23.5" y1="138.6" x2="86.7" y2="170.3"/>
						<line class="st7" x1="88" y1="170.9" x2="88.3" y2="171"/>
					</g>
				</g>
				<line class="st5" x1="164.2" y1="140.1" x2="119.7" y2="117.9"/>
				<line class="st5" x1="141.9" y1="147.4" x2="109.5" y2="131.2"/>
			</g>
		</g>
		<g>
			<g>
				<g>
					<g>
						<polygon class="st3" points="13.6,91.2 96,132.4 96,153.1 13.6,111.8 						"/>
						<polyline class="st3" points="96,132.4 218.4,91.5 218.4,112.1 96,153.1 						"/>
						<g>
							<polygon class="st4" points="135.9,50.3 13.6,91.2 96,132.4 218.4,91.5 							"/>
						</g>
					</g>
					<line class="st5" x1="73.8" y1="72.6" x2="14.7" y2="92.3"/>
					<line class="st6" x1="96" y1="132.4" x2="96" y2="153.1"/>
					<polyline class="st5" points="164.2,108.1 94.8,131.6 94.8,137.1 					"/>
				</g>
				<polygon class="st3" points="96.1,132.4 109.1,138.9 109.1,159.6 96.1,153.1 				"/>
				<polygon class="st3" points="0.6,84.5 13.6,91 13.6,111.6 0.6,105.1 				"/>
				<g>
					<g>
						<line class="st7" x1="20.7" y1="108.9" x2="20.9" y2="109.1"/>
						<line class="st9" x1="23.5" y1="110.4" x2="86.7" y2="142"/>
						<line class="st7" x1="88" y1="142.6" x2="88.3" y2="142.8"/>
					</g>
				</g>
				<g>
					<g>
						<line class="st7" x1="20.7" y1="105.2" x2="20.9" y2="105.3"/>
						<line class="st8" x1="23.5" y1="106.6" x2="86.7" y2="138.3"/>
						<line class="st7" x1="88" y1="138.9" x2="88.3" y2="139"/>
					</g>
				</g>
			</g>
		</g>
		<line class="st1" x1="36.3" y1="191.7" x2="36.3" y2="218.5"/>
		<line class="st1" x1="120.3" y1="212.5" x2="120.3" y2="241.9"/>
	</g>
	<g>
		<g>
			<path class="st10" d="M95,30.7l-5,6.8v-7.4l5-6.8l5-1.7v48.8l-5,1.7V30.7z"/>
			<path class="st10" d="M133.1,24.6l-5,1.7v-1.6c0-1.6-0.3-2.9-0.8-3.9s-1.4-1.3-2.7-0.8c-0.7,0.2-1.2,0.6-1.7,1.1
				c-0.4,0.5-0.8,1.1-1,1.7c-0.2,0.7-0.4,1.4-0.5,2.2c-0.1,0.8-0.1,1.6-0.1,2.4c0,1,0,1.8,0.1,2.4c0,0.6,0.2,1.2,0.4,1.6
				s0.5,0.7,0.9,1c0.4,0.2,0.9,0.4,1.5,0.6l3.8,0.9c1.1,0.2,2,0.6,2.7,1.2c0.7,0.6,1.2,1.3,1.6,2.3c0.4,1,0.6,2.1,0.8,3.5
				c0.1,1.4,0.2,2.9,0.2,4.7c0,2.1-0.1,4-0.4,5.9c-0.3,1.9-0.8,3.5-1.4,5c-0.7,1.5-1.6,2.8-2.7,3.9c-1.1,1.1-2.5,1.9-4,2.4
				c-1.2,0.4-2.3,0.5-3.4,0.2c-1-0.2-1.9-0.8-2.7-1.5c-0.7-0.8-1.3-1.8-1.8-3.1c-0.4-1.3-0.7-2.7-0.7-4.4v-2.6l5-1.7v2.2
				c0,1.3,0.3,2.3,0.8,3.2c0.5,0.9,1.4,1.1,2.7,0.6c0.8-0.3,1.5-0.7,2-1.2c0.5-0.5,0.8-1.1,1.1-1.8s0.4-1.5,0.5-2.5
				c0.1-0.9,0.1-2,0.1-3c0-1.3,0-2.3-0.1-3.1c-0.1-0.8-0.2-1.4-0.4-1.9c-0.2-0.4-0.5-0.7-0.9-0.9c-0.4-0.2-0.9-0.4-1.5-0.5l-3.6-0.9
				c-2.1-0.5-3.6-1.7-4.3-3.5c-0.7-1.8-1.1-4.2-1.1-7.3c0-1.8,0.2-3.6,0.5-5.4c0.4-1.8,0.9-3.4,1.6-4.8c0.7-1.4,1.6-2.7,2.7-3.7
				c1.1-1.1,2.3-1.8,3.8-2.3c1.2-0.4,2.4-0.5,3.4-0.2c1,0.3,1.9,0.9,2.6,1.7c0.7,0.8,1.3,1.8,1.7,3s0.6,2.4,0.6,3.8V24.6z"/>
			<path class="st10" d="M136.8,9.4l14.8-4.9V11l-9.9,3.3v14.3l8.6-2.9v6.6l-8.6,2.9v14.3l9.9-3.3v7l-14.8,4.9V9.4z"/>
			<path class="st10" d="M170.7,36c0,1.5-0.2,3-0.6,4.5c-0.4,1.5-1,2.9-1.7,4.2c-0.7,1.3-1.6,2.4-2.5,3.3s-2,1.6-3.1,2
				c-0.9,0.3-1.9,0.4-2.9,0.4c-1,0-1.9-0.4-2.6-1c-0.8-0.6-1.4-1.6-1.9-2.9c-0.5-1.3-0.8-3.1-0.8-5.3V14.3c0-1.6,0.2-3.2,0.6-4.7
				c0.4-1.5,0.9-2.9,1.7-4.1c0.7-1.2,1.6-2.3,2.6-3.2c1-0.9,2.1-1.6,3.3-2c1.1-0.4,2.2-0.4,3.2-0.2c1,0.2,1.8,0.8,2.5,1.6
				c0.7,0.8,1.3,1.8,1.7,3.1c0.4,1.3,0.6,2.8,0.6,4.5v2.7l-5,1.7v-2.3c0-1.4-0.3-2.5-0.8-3.3c-0.6-0.8-1.3-1.1-2.2-0.8
				c-1.2,0.4-2.1,1.2-2.5,2.4c-0.4,1.2-0.6,2.6-0.6,4.3v25c0,1.4,0.2,2.5,0.7,3.3c0.4,0.8,1.2,1,2.4,0.7c0.3-0.1,0.7-0.3,1-0.6
				c0.4-0.3,0.7-0.7,1-1.1c0.3-0.5,0.6-1.1,0.8-1.8c0.2-0.7,0.3-1.5,0.3-2.5v-2.4l5-1.7V36z"/>
		</g>
	</g>
	<g>
		<g>
			<path class="st10" d="M99.1,91.2c0,0.4-0.1,0.9-0.2,1.3c-0.1,0.4-0.3,0.9-0.6,1.2c-0.2,0.4-0.5,0.7-0.9,1
				c-0.3,0.3-0.7,0.5-1.1,0.6c-0.3,0.1-0.7,0.2-1,0.2c-0.3,0-0.6-0.1-0.9-0.3c-0.3-0.2-0.5-0.4-0.7-0.8c-0.2-0.4-0.3-0.9-0.3-1.5
				v-7.8c0-0.5,0.1-0.9,0.2-1.4c0.1-0.4,0.3-0.9,0.6-1.2c0.2-0.4,0.5-0.7,0.9-1c0.3-0.3,0.7-0.5,1.1-0.6c0.4-0.1,0.8-0.2,1.1-0.1
				c0.3,0.1,0.6,0.2,0.9,0.4c0.2,0.2,0.4,0.5,0.6,0.9c0.1,0.4,0.2,0.8,0.2,1.3v0.8l-1.7,0.6v-0.7c0-0.4-0.1-0.7-0.3-0.9
				c-0.2-0.2-0.5-0.3-0.8-0.2c-0.4,0.1-0.7,0.4-0.9,0.7c-0.1,0.4-0.2,0.8-0.2,1.3v7.3c0,0.4,0.1,0.7,0.2,1c0.2,0.2,0.4,0.3,0.8,0.2
				c0.1,0,0.2-0.1,0.4-0.2c0.1-0.1,0.2-0.2,0.4-0.3c0.1-0.1,0.2-0.3,0.3-0.5c0.1-0.2,0.1-0.5,0.1-0.7v-0.7l1.7-0.6V91.2z"/>
			<path class="st10" d="M100.5,79.7l1.7-0.6v12.2l3.4-1.1v2l-5.2,1.7V79.7z"/>
			<path class="st10" d="M112.4,86.8c0,0.5-0.1,0.9-0.2,1.4c-0.1,0.4-0.3,0.9-0.6,1.2c-0.3,0.4-0.6,0.7-0.9,1
				c-0.3,0.3-0.7,0.5-1.1,0.6c-0.4,0.1-0.7,0.2-1.1,0.1c-0.3-0.1-0.6-0.2-0.9-0.4c-0.3-0.2-0.5-0.5-0.6-0.9
				c-0.1-0.4-0.2-0.8-0.2-1.2v-11l1.7-0.6v10.8c0,0.5,0.1,0.8,0.3,1c0.2,0.2,0.5,0.2,0.8,0.1c0.3-0.1,0.6-0.3,0.8-0.6
				c0.2-0.3,0.3-0.7,0.3-1.2V76.4l1.7-0.6V86.8z"/>
			<path class="st10" d="M119.6,77.6l-1.7,0.6v-0.5c0-0.5-0.1-0.8-0.3-1.1c-0.2-0.3-0.5-0.3-0.9-0.2c-0.2,0.1-0.4,0.2-0.6,0.3
				c-0.2,0.2-0.3,0.3-0.4,0.5c-0.1,0.2-0.1,0.4-0.2,0.6c0,0.2-0.1,0.5-0.1,0.7c0,0.3,0,0.5,0,0.7c0,0.2,0.1,0.3,0.1,0.5
				c0.1,0.1,0.2,0.2,0.3,0.3c0.1,0.1,0.3,0.1,0.5,0.1l1.3,0.2c0.4,0,0.7,0.2,0.9,0.3c0.2,0.2,0.4,0.4,0.6,0.6c0.1,0.3,0.2,0.6,0.3,1
				c0,0.4,0.1,0.8,0.1,1.4c0,0.6-0.1,1.2-0.2,1.7c-0.1,0.5-0.3,1-0.5,1.5s-0.5,0.8-0.9,1.2c-0.4,0.3-0.9,0.6-1.4,0.8
				c-0.4,0.1-0.8,0.2-1.2,0.1c-0.4-0.1-0.7-0.2-0.9-0.4c-0.3-0.2-0.5-0.5-0.6-0.9c-0.2-0.4-0.2-0.8-0.2-1.3v-0.8l1.7-0.6v0.6
				c0,0.4,0.1,0.7,0.3,0.9c0.2,0.2,0.5,0.3,0.9,0.1c0.3-0.1,0.5-0.2,0.7-0.4c0.2-0.2,0.3-0.3,0.4-0.5c0.1-0.2,0.1-0.4,0.2-0.7
				c0-0.3,0-0.6,0-0.9c0-0.4,0-0.7,0-0.9c0-0.2-0.1-0.4-0.1-0.5c-0.1-0.1-0.2-0.2-0.3-0.3c-0.1-0.1-0.3-0.1-0.5-0.1l-1.2-0.2
				c-0.7-0.1-1.2-0.4-1.5-0.9c-0.3-0.5-0.4-1.2-0.4-2.1c0-0.5,0.1-1.1,0.2-1.6c0.1-0.5,0.3-1,0.6-1.4c0.2-0.4,0.6-0.8,0.9-1.1
				c0.4-0.3,0.8-0.6,1.3-0.7c0.4-0.1,0.8-0.2,1.2-0.1c0.4,0.1,0.7,0.2,0.9,0.4c0.3,0.2,0.4,0.5,0.6,0.8c0.1,0.3,0.2,0.7,0.2,1.1
				V77.6z"/>
			<path class="st10" d="M122,74.6l-2,0.7v-1.9l5.7-1.9v1.9l-2,0.7v12.3l-1.7,0.6V74.6z"/>
			<path class="st10" d="M126.5,71.2l5.2-1.7v1.9l-3.4,1.1v4.2l3-1v1.9l-3,1v4.2l3.4-1.1v2l-5.2,1.7V71.2z"/>
			<path class="st10" d="M132.8,69.2l2.8-0.9c2-0.7,3.1,0.4,3.1,3.2c0,0.8-0.1,1.6-0.3,2.2c-0.2,0.7-0.6,1.3-1.2,1.8l1.9,5.9
				l-1.8,0.6l-1.6-5.5l-1,0.3v6.1l-1.7,0.6V69.2z M134.5,75l1-0.3c0.3-0.1,0.5-0.2,0.7-0.4c0.2-0.2,0.3-0.3,0.4-0.6
				c0.1-0.2,0.2-0.5,0.2-0.8c0-0.3,0.1-0.6,0.1-1s0-0.7-0.1-0.9c0-0.3-0.1-0.5-0.2-0.6c-0.1-0.2-0.3-0.3-0.4-0.3
				c-0.2,0-0.4,0-0.8,0.1l-0.9,0.3V75z"/>
			<path class="st10" d="M140,66.8l2.6-0.8c0.5-0.2,0.9-0.2,1.3-0.2c0.4,0,0.7,0.2,1,0.5c0.3,0.3,0.5,0.6,0.6,1.1
				c0.1,0.5,0.2,1.1,0.2,2c0,0.6,0,1.2-0.1,1.6c-0.1,0.5-0.2,0.9-0.4,1.4c-0.2,0.5-0.6,1-1,1.4c-0.4,0.4-0.9,0.7-1.6,0.9l-0.9,0.3
				v5.5L140,81V66.8z M141.7,73l0.8-0.3c0.4-0.1,0.6-0.3,0.8-0.4c0.2-0.2,0.3-0.4,0.4-0.6c0.1-0.2,0.1-0.5,0.2-0.8c0-0.3,0-0.6,0-1
				c0-0.3,0-0.6,0-0.9c0-0.3-0.1-0.5-0.2-0.7c-0.1-0.2-0.2-0.3-0.4-0.4c-0.2-0.1-0.4,0-0.8,0.1l-0.9,0.3V73z"/>
			<path class="st10" d="M146.8,68c0-0.6,0.1-1.1,0.3-1.6c0.2-0.5,0.4-0.9,0.7-1.3c0.3-0.4,0.6-0.7,0.9-1c0.3-0.3,0.7-0.4,1-0.6
				c0.4-0.1,0.7-0.2,1-0.1c0.3,0,0.7,0.1,0.9,0.3c0.3,0.2,0.5,0.5,0.7,0.9c0.2,0.4,0.3,0.9,0.3,1.4v7.5c0,0.6-0.1,1.1-0.3,1.6
				c-0.2,0.5-0.4,0.9-0.7,1.3c-0.3,0.4-0.6,0.7-0.9,1c-0.3,0.3-0.7,0.4-1,0.6c-0.4,0.1-0.7,0.2-1,0.1c-0.3,0-0.7-0.2-0.9-0.3
				c-0.3-0.2-0.5-0.5-0.7-0.9c-0.2-0.4-0.3-0.9-0.3-1.4V68z M148.5,74.9c0,0.5,0.1,0.8,0.3,1c0.2,0.2,0.5,0.2,0.8,0.1
				c0.3-0.1,0.6-0.3,0.8-0.6c0.2-0.3,0.3-0.7,0.3-1.2v-7.5c0-0.5-0.1-0.8-0.3-1c-0.2-0.2-0.5-0.2-0.8-0.1c-0.3,0.1-0.6,0.3-0.8,0.6
				c-0.2,0.3-0.3,0.7-0.3,1.2V74.9z"/>
			<path class="st10" d="M154.2,62.2l1.7-0.6v14.2l-1.7,0.6V62.2z"/>
			<path class="st10" d="M157.5,61.1l1.7-0.5l2.6,7.7l0,0v-8.6l1.7-0.6v14.2l-1.6,0.5l-2.6-7.7l0,0v8.5l-1.7,0.6V61.1z"/>
			<path class="st10" d="M166.3,60.2l-2,0.7v-1.9l5.7-1.9V59l-2,0.7v12.3l-1.7,0.6V60.2z"/>
			<path class="st10" d="M179.4,65.1c0,0.4-0.1,0.9-0.2,1.3c-0.1,0.4-0.3,0.9-0.6,1.2c-0.2,0.4-0.5,0.7-0.9,1
				c-0.3,0.3-0.7,0.5-1.1,0.6c-0.3,0.1-0.7,0.2-1,0.2c-0.3,0-0.6-0.1-0.9-0.3c-0.3-0.2-0.5-0.4-0.7-0.8c-0.2-0.4-0.3-0.9-0.3-1.5V59
				c0-0.5,0.1-0.9,0.2-1.4c0.1-0.4,0.3-0.9,0.6-1.2c0.2-0.4,0.5-0.7,0.9-1c0.3-0.3,0.7-0.5,1.1-0.6c0.4-0.1,0.8-0.2,1.1-0.1
				c0.3,0.1,0.6,0.2,0.9,0.4c0.2,0.2,0.4,0.5,0.6,0.9c0.1,0.4,0.2,0.8,0.2,1.3v0.8l-1.7,0.6V58c0-0.4-0.1-0.7-0.3-0.9
				c-0.2-0.2-0.5-0.3-0.8-0.2c-0.4,0.1-0.7,0.4-0.9,0.7c-0.1,0.4-0.2,0.8-0.2,1.3v7.3c0,0.4,0.1,0.7,0.2,1c0.2,0.2,0.4,0.3,0.8,0.2
				c0.1,0,0.2-0.1,0.4-0.2c0.1-0.1,0.2-0.2,0.4-0.3c0.1-0.1,0.2-0.3,0.3-0.5c0.1-0.2,0.1-0.5,0.1-0.7v-0.7l1.7-0.6V65.1z"/>
			<path class="st10" d="M180.8,53.6l1.7-0.6v12.2l3.4-1.1v2l-5.2,1.7V53.6z"/>
			<path class="st10" d="M187,54.9c0-0.6,0.1-1.1,0.3-1.6c0.2-0.5,0.4-0.9,0.7-1.3c0.3-0.4,0.6-0.7,0.9-1c0.3-0.3,0.7-0.4,1-0.6
				c0.4-0.1,0.7-0.2,1-0.1c0.3,0,0.7,0.1,0.9,0.3c0.3,0.2,0.5,0.5,0.7,0.9c0.2,0.4,0.3,0.9,0.3,1.4v7.5c0,0.6-0.1,1.1-0.3,1.6
				c-0.2,0.5-0.4,0.9-0.7,1.3c-0.3,0.4-0.6,0.7-0.9,1c-0.3,0.3-0.7,0.4-1,0.6c-0.4,0.1-0.7,0.2-1,0.1c-0.3,0-0.7-0.1-0.9-0.3
				c-0.3-0.2-0.5-0.5-0.7-0.9c-0.2-0.4-0.3-0.9-0.3-1.4V54.9z M188.7,61.8c0,0.5,0.1,0.8,0.3,1c0.2,0.2,0.5,0.2,0.8,0.1
				c0.3-0.1,0.6-0.3,0.8-0.6c0.2-0.3,0.3-0.7,0.3-1.2v-7.5c0-0.5-0.1-0.8-0.3-1c-0.2-0.2-0.5-0.2-0.8-0.1c-0.3,0.1-0.6,0.3-0.8,0.6
				c-0.2,0.3-0.3,0.7-0.3,1.2V61.8z"/>
			<path class="st10" d="M199.9,58.4c0,0.5-0.1,0.9-0.2,1.4c-0.1,0.4-0.3,0.9-0.6,1.2c-0.3,0.4-0.6,0.7-0.9,1
				c-0.3,0.3-0.7,0.5-1.1,0.6c-0.4,0.1-0.7,0.2-1.1,0.1c-0.3-0.1-0.6-0.2-0.9-0.4c-0.3-0.2-0.5-0.5-0.6-0.9
				c-0.1-0.4-0.2-0.8-0.2-1.2v-11l1.7-0.6v10.8c0,0.5,0.1,0.8,0.3,1c0.2,0.2,0.5,0.2,0.8,0.1c0.3-0.1,0.6-0.3,0.8-0.6
				c0.2-0.3,0.3-0.7,0.3-1.2V47.9l1.7-0.6V58.4z"/>
			<path class="st10" d="M201.5,46.8l2.6-0.8c1-0.3,1.7-0.2,2.3,0.2c0.5,0.5,0.8,1.3,0.8,2.4v6.6c0,1.3-0.3,2.4-0.8,3.2
				c-0.5,0.8-1.3,1.4-2.4,1.7l-2.4,0.8V46.8z M203.3,58.6l0.8-0.3c0.5-0.2,0.8-0.4,1-0.8c0.2-0.4,0.3-0.8,0.3-1.4v-6.8
				c0-0.6-0.1-1-0.3-1.2c-0.2-0.2-0.5-0.3-1.1-0.1l-0.8,0.3V58.6z"/>
			<path class="st10" d="M100.8,117.7l-1.6,0.5l-1.3-8.8l0,0l-1.3,9.6l-1.6,0.5L93,106l1.8-0.6l0.9,8.7l0,0l1.4-9.5l1.3-0.4l1.4,8.8
				l0,0l0.8-9.5l1.8-0.6L100.8,117.7z"/>
			<path class="st10" d="M103.7,102.6l1.7-0.6v14.2l-1.7,0.6V102.6z"/>
			<path class="st10" d="M108.2,103l-2,0.7v-1.9l5.7-1.9v1.9l-2,0.7v12.3l-1.7,0.6V103z"/>
			<path class="st10" d="M112.7,99.6l1.7-0.6v6.1l2.1-0.7v-6.1l1.7-0.6V112l-1.7,0.6v-6.3l-2.1,0.7v6.3l-1.7,0.6V99.6z"/>
			<path class="st10" d="M123,99.6c0-0.6,0.1-1.1,0.3-1.6c0.2-0.5,0.4-0.9,0.7-1.3c0.3-0.4,0.6-0.7,0.9-1c0.3-0.3,0.7-0.4,1-0.6
				c0.4-0.1,0.7-0.2,1-0.1c0.3,0,0.7,0.1,0.9,0.3c0.3,0.2,0.5,0.5,0.7,0.9c0.2,0.4,0.3,0.9,0.3,1.4v7.5c0,0.6-0.1,1.1-0.3,1.6
				c-0.2,0.5-0.4,0.9-0.7,1.3c-0.3,0.4-0.6,0.7-0.9,1c-0.3,0.3-0.7,0.4-1,0.6c-0.4,0.1-0.7,0.2-1,0.1c-0.3,0-0.7-0.1-0.9-0.3
				c-0.3-0.2-0.5-0.5-0.7-0.9c-0.2-0.4-0.3-0.9-0.3-1.4V99.6z M124.7,106.6c0,0.5,0.1,0.8,0.3,1c0.2,0.2,0.5,0.2,0.8,0.1
				c0.3-0.1,0.6-0.3,0.8-0.6c0.2-0.3,0.3-0.7,0.3-1.2v-7.5c0-0.5-0.1-0.8-0.3-1c-0.2-0.2-0.5-0.2-0.8-0.1c-0.3,0.1-0.6,0.3-0.8,0.6
				c-0.2,0.3-0.3,0.7-0.3,1.2V106.6z"/>
			<path class="st10" d="M133.4,107.1l-1.5,0.5l-2.5-13.4l1.8-0.6l1.4,9.5l0,0l1.4-10.4l1.8-0.6L133.4,107.1z"/>
			<path class="st10" d="M136.9,91.8l5.2-1.7V92l-3.4,1.1v4.2l3-1v1.9l-3,1v4.2l3.4-1.1v2l-5.2,1.7V91.8z"/>
			<path class="st10" d="M143.2,89.7l2.8-0.9c2-0.7,3.1,0.4,3.1,3.2c0,0.8-0.1,1.6-0.3,2.2c-0.2,0.7-0.6,1.3-1.2,1.8l1.9,5.9
				l-1.8,0.6L146,97l-1,0.3v6.1l-1.7,0.6V89.7z M144.9,95.5l1-0.3c0.3-0.1,0.5-0.2,0.7-0.4c0.2-0.2,0.3-0.3,0.4-0.6
				c0.1-0.2,0.2-0.5,0.2-0.8c0-0.3,0.1-0.6,0.1-1c0-0.4,0-0.7-0.1-0.9c0-0.3-0.1-0.5-0.2-0.6c-0.1-0.2-0.3-0.3-0.5-0.3
				c-0.2,0-0.4,0-0.8,0.1l-0.9,0.3V95.5z"/>
			<path class="st10" d="M155.4,87.9l-1.7,2.1v-2.2l1.7-2.1l1.7-0.6v14.2l-1.7,0.6V87.9z"/>
			<path class="st10" d="M159.7,87.3c0-0.5,0.1-0.9,0.2-1.3c0.1-0.4,0.3-0.8,0.6-1.1c0.2-0.3,0.5-0.6,0.8-0.9c0.3-0.2,0.6-0.4,1-0.5
				c0.3-0.1,0.7-0.1,1-0.1c0.3,0,0.6,0.2,0.8,0.3c0.2,0.2,0.4,0.4,0.6,0.8c0.1,0.3,0.2,0.7,0.2,1.2V94c0,0.5-0.1,0.9-0.2,1.3
				c-0.1,0.4-0.3,0.8-0.6,1.1c-0.2,0.3-0.5,0.6-0.8,0.9c-0.3,0.2-0.6,0.4-1,0.5c-0.3,0.1-0.7,0.1-1,0.1c-0.3,0-0.6-0.2-0.8-0.3
				c-0.2-0.2-0.4-0.4-0.6-0.8c-0.1-0.3-0.2-0.7-0.2-1.2V87.3z M161.4,95.1c0,0.3,0.1,0.5,0.2,0.7c0.2,0.1,0.4,0.2,0.6,0.1
				c0.2-0.1,0.5-0.2,0.6-0.5c0.2-0.2,0.2-0.5,0.2-0.8v-8.3c0-0.3-0.1-0.5-0.2-0.7c-0.2-0.1-0.4-0.2-0.6-0.1
				c-0.2,0.1-0.5,0.2-0.6,0.5c-0.2,0.2-0.2,0.5-0.2,0.8V95.1z"/>
			<path class="st10" d="M166,85.3c0-0.5,0.1-0.9,0.2-1.3s0.3-0.8,0.6-1.1c0.2-0.3,0.5-0.6,0.8-0.9c0.3-0.2,0.6-0.4,1-0.5
				c0.3-0.1,0.7-0.1,1-0.1c0.3,0,0.6,0.2,0.8,0.3c0.2,0.2,0.4,0.4,0.6,0.8c0.1,0.3,0.2,0.7,0.2,1.2v8.3c0,0.5-0.1,0.9-0.2,1.3
				c-0.1,0.4-0.3,0.8-0.6,1.1c-0.2,0.3-0.5,0.6-0.8,0.9c-0.3,0.2-0.6,0.4-1,0.5c-0.3,0.1-0.7,0.1-1,0.1c-0.3,0-0.6-0.2-0.8-0.3
				c-0.2-0.2-0.4-0.4-0.6-0.8s-0.2-0.7-0.2-1.2V85.3z M167.7,93c0,0.3,0.1,0.5,0.2,0.7c0.2,0.1,0.4,0.2,0.6,0.1
				c0.2-0.1,0.5-0.2,0.6-0.5c0.2-0.2,0.2-0.5,0.2-0.8v-8.3c0-0.3-0.1-0.5-0.2-0.7c-0.2-0.1-0.4-0.2-0.6-0.1
				c-0.2,0.1-0.5,0.2-0.6,0.5c-0.2,0.2-0.2,0.5-0.2,0.8V93z"/>
			<path class="st10" d="M181.3,81.4l-1.7,0.6v-0.5c0-0.5-0.1-0.8-0.3-1.1c-0.2-0.3-0.5-0.3-0.9-0.2c-0.2,0.1-0.4,0.2-0.6,0.3
				c-0.2,0.2-0.3,0.3-0.4,0.5c-0.1,0.2-0.1,0.4-0.2,0.6c0,0.2-0.1,0.5-0.1,0.7c0,0.3,0,0.5,0,0.7c0,0.2,0.1,0.3,0.1,0.5
				c0.1,0.1,0.2,0.2,0.3,0.3c0.1,0.1,0.3,0.1,0.5,0.1l1.3,0.2c0.4,0,0.7,0.2,0.9,0.3c0.2,0.2,0.4,0.4,0.6,0.6c0.1,0.3,0.2,0.6,0.3,1
				c0,0.4,0.1,0.8,0.1,1.4c0,0.6-0.1,1.2-0.2,1.7c-0.1,0.5-0.3,1-0.5,1.5c-0.2,0.4-0.5,0.8-0.9,1.2c-0.4,0.3-0.9,0.6-1.4,0.8
				c-0.4,0.1-0.8,0.2-1.2,0.1c-0.4-0.1-0.7-0.2-0.9-0.4c-0.3-0.2-0.5-0.5-0.6-0.9c-0.2-0.4-0.2-0.8-0.2-1.3v-0.8l1.7-0.6v0.6
				c0,0.4,0.1,0.7,0.3,0.9c0.2,0.2,0.5,0.3,0.9,0.1c0.3-0.1,0.5-0.2,0.7-0.4c0.2-0.2,0.3-0.3,0.4-0.5c0.1-0.2,0.1-0.4,0.2-0.7
				c0-0.3,0-0.6,0-0.9c0-0.4,0-0.7,0-0.9c0-0.2-0.1-0.4-0.1-0.5c-0.1-0.1-0.2-0.2-0.3-0.3c-0.1-0.1-0.3-0.1-0.5-0.1l-1.2-0.2
				c-0.7-0.1-1.2-0.4-1.5-0.9c-0.3-0.5-0.4-1.2-0.4-2.1c0-0.5,0.1-1.1,0.2-1.6c0.1-0.5,0.3-1,0.6-1.4c0.2-0.4,0.6-0.8,0.9-1.1
				c0.4-0.3,0.8-0.6,1.3-0.7c0.4-0.1,0.8-0.2,1.2-0.1c0.4,0.1,0.7,0.2,0.9,0.4c0.3,0.2,0.5,0.5,0.6,0.8c0.1,0.3,0.2,0.7,0.2,1.1
				V81.4z"/>
			<path class="st10" d="M182.6,76.9l5.2-1.7v1.9l-3.4,1.1v4.2l3-1v1.9l-3,1v4.2l3.4-1.1v2l-5.2,1.7V76.9z"/>
			<path class="st10" d="M188.8,74.9l2.8-0.9c2-0.7,3.1,0.4,3.1,3.2c0,0.8-0.1,1.6-0.3,2.2c-0.2,0.7-0.6,1.3-1.2,1.8l1.9,5.9
				l-1.8,0.6l-1.6-5.5l-1,0.3v6.1l-1.7,0.6V74.9z M190.6,80.7l1-0.3c0.3-0.1,0.5-0.2,0.7-0.4c0.2-0.2,0.3-0.3,0.4-0.6
				c0.1-0.2,0.2-0.5,0.2-0.8c0-0.3,0.1-0.6,0.1-1c0-0.4,0-0.7-0.1-0.9c0-0.3-0.1-0.5-0.2-0.6c-0.1-0.2-0.3-0.3-0.4-0.3
				c-0.2,0-0.4,0-0.8,0.1l-0.9,0.3V80.7z"/>
			<path class="st10" d="M199.5,85.6l-1.5,0.5l-2.5-13.4l1.8-0.6l1.4,9.5l0,0l1.4-10.4l1.8-0.6L199.5,85.6z"/>
			<path class="st10" d="M203,70.3l5.2-1.7v1.9l-3.4,1.1v4.2l3-1v1.9l-3,1v4.2l3.4-1.1v2l-5.2,1.7V70.3z"/>
			<path class="st10" d="M209.2,68.3l2.8-0.9c2-0.7,3.1,0.4,3.1,3.2c0,0.8-0.1,1.6-0.3,2.2c-0.2,0.7-0.6,1.3-1.2,1.8l1.9,5.9
				l-1.8,0.6l-1.6-5.5l-1,0.3v6.1l-1.7,0.6V68.3z M211,74l1-0.3c0.3-0.1,0.5-0.2,0.7-0.4c0.2-0.2,0.3-0.3,0.4-0.6
				c0.1-0.2,0.2-0.5,0.2-0.8c0-0.3,0.1-0.6,0.1-1c0-0.4,0-0.7-0.1-0.9c0-0.3-0.1-0.5-0.2-0.6c-0.1-0.2-0.3-0.3-0.4-0.3
				c-0.2,0-0.4,0-0.8,0.1l-0.9,0.3V74z"/>
			<path class="st10" d="M222.1,68.2l-1.7,0.6v-0.5c0-0.5-0.1-0.8-0.3-1.1c-0.2-0.3-0.5-0.3-0.9-0.2c-0.2,0.1-0.4,0.2-0.6,0.3
				c-0.2,0.2-0.3,0.3-0.4,0.5c-0.1,0.2-0.1,0.4-0.2,0.6c0,0.2-0.1,0.5-0.1,0.7c0,0.3,0,0.5,0,0.7c0,0.2,0.1,0.3,0.1,0.5
				c0.1,0.1,0.2,0.2,0.3,0.3c0.1,0.1,0.3,0.1,0.5,0.1l1.3,0.2c0.4,0,0.7,0.2,0.9,0.3c0.2,0.2,0.4,0.4,0.6,0.6c0.1,0.3,0.2,0.6,0.3,1
				c0,0.4,0.1,0.8,0.1,1.4c0,0.6-0.1,1.2-0.2,1.7c-0.1,0.5-0.3,1-0.5,1.5c-0.2,0.4-0.5,0.8-0.9,1.2c-0.4,0.3-0.9,0.6-1.4,0.8
				c-0.4,0.1-0.8,0.2-1.2,0.1c-0.4-0.1-0.7-0.2-0.9-0.4c-0.3-0.2-0.5-0.5-0.6-0.9c-0.2-0.4-0.2-0.8-0.2-1.3v-0.8l1.7-0.6v0.6
				c0,0.4,0.1,0.7,0.3,0.9c0.2,0.2,0.5,0.3,0.9,0.1c0.3-0.1,0.5-0.2,0.7-0.4c0.2-0.2,0.3-0.3,0.4-0.5c0.1-0.2,0.1-0.4,0.2-0.7
				c0-0.3,0-0.6,0-0.9c0-0.4,0-0.7,0-0.9c0-0.2-0.1-0.4-0.1-0.5c-0.1-0.1-0.2-0.2-0.3-0.3c-0.1-0.1-0.3-0.1-0.5-0.1l-1.2-0.2
				c-0.7-0.1-1.2-0.4-1.5-0.9c-0.3-0.5-0.4-1.2-0.4-2.1c0-0.5,0.1-1.1,0.2-1.6c0.1-0.5,0.3-1,0.6-1.4c0.2-0.4,0.6-0.8,0.9-1.1
				c0.4-0.3,0.8-0.6,1.3-0.7c0.4-0.1,0.8-0.2,1.2-0.1c0.4,0.1,0.7,0.2,0.9,0.4c0.3,0.2,0.4,0.5,0.6,0.8c0.1,0.3,0.2,0.7,0.2,1.1
				V68.2z"/>
		</g>
	</g>
</g>
</svg>
