<!-- Generator: Adobe Illustrator 19.2.0, SVG Export Plug-In  -->
<svg version="1.0"
	 xmlns="http://www.w3.org/2000/svg" xmlns:xlink="http://www.w3.org/1999/xlink" xmlns:a="http://ns.adobe.com/AdobeSVGViewerExtensions/3.0/"
	 x="0px" y="0px" width="126.7px" height="104.5px" viewBox="0 0 126.7 104.5" style="enable-background:new 0 0 126.7 104.5;"
	 xml:space="preserve">
<style type="text/css">
	.st0{fill:none;stroke:#FFFFFF;stroke-miterlimit:10;}
	.st1{fill:#7629F4;}
</style>
<defs>
</defs>
<line class="st0" x1="5.1" y1="35.7" x2="5.1" y2="76"/>
<path class="st1" d="M63.3,0C28.4,0,0,11,0,24.6c0,3.4,1.7,6.7,5.1,9.7c0.1,0.1,0.5-0.4,0.7-0.8c-3.2-2.9-4.8-5.9-4.8-9
	C1,11.6,29,1,63.3,1c34.4,0,62.3,10.6,62.3,23.6s-28,23.6-62.3,23.6c-0.2,0-0.3,1,0,1c34.9,0,63.3-11,63.3-24.6S98.3,0,63.3,0z"/>
<path class="st0" d="M74.4,0.5c34.7,0,51.8,10.8,51.8,24.1c0,13.3-28.1,24.1-62.8,24.1"/>
<line class="st0" x1="63.3" y1="48.6" x2="63.3" y2="104.5"/>
</svg>
