<!-- Generator: Adobe Illustrator 19.2.0, SVG Export Plug-In  -->
<svg version="1.0"
	 xmlns="http://www.w3.org/2000/svg" xmlns:xlink="http://www.w3.org/1999/xlink" xmlns:a="http://ns.adobe.com/AdobeSVGViewerExtensions/3.0/"
	 x="0px" y="0px" width="1338px" height="578px" viewBox="0 0 1338 578" style="enable-background:new 0 0 1338 578;"
	 xml:space="preserve">
<style type="text/css">
	.st0{fill:#F1F1F1;}
	.st1{fill:#7629F4;}
	.st2{fill:#7629F4;stroke:#FFFFFF;stroke-width:1.2475;stroke-linecap:round;stroke-linejoin:round;stroke-miterlimit:10;}
	.st3{fill:none;stroke:#FFFFFF;stroke-width:1.2475;stroke-linecap:round;stroke-linejoin:round;stroke-miterlimit:10;}
	.st4{fill:#FFFFFF;}
	.st5{fill:#FFFFFF;stroke:#762AF3;stroke-width:1.2475;stroke-linecap:round;stroke-linejoin:round;stroke-miterlimit:10;}
	.st6{fill:none;stroke:#762AF3;stroke-width:1.2475;stroke-linecap:round;stroke-linejoin:round;stroke-miterlimit:10;}
	.st7{fill:#FFFFFF;stroke:#FFFFFF;stroke-miterlimit:10;}
	.st8{fill:#FFFFFF;stroke:#762AF3;stroke-miterlimit:10;}
	.st9{fill:#FFFFFF;stroke:#FFFFFF;stroke-width:1.2475;stroke-linecap:round;stroke-linejoin:round;stroke-miterlimit:10;}
	.st10{fill:none;stroke:#FFFFFF;stroke-miterlimit:10;}
	.st11{fill:none;stroke:#F1F1F1;stroke-width:1.2475;stroke-linecap:round;stroke-linejoin:round;stroke-miterlimit:10;}
	
		.st12{fill:none;stroke:#F1F1F1;stroke-width:1.2475;stroke-linecap:round;stroke-linejoin:round;stroke-miterlimit:10;stroke-dasharray:3,3;}
	.st13{fill:none;stroke:#752AF3;stroke-width:1.2475;stroke-linecap:round;stroke-linejoin:round;stroke-miterlimit:10;}
	.st14{fill:none;}
	.st15{fill:none;stroke:#7629F4;stroke-miterlimit:10;}
</style>
<defs>
</defs>
<g>
	<rect x="327.2" y="482.1" class="st0" width="278.2" height="32.6"/>
	<g>
		<g>
			<g>
				<g>
					<rect x="76.9" class="st1" width="1260.5" height="567.3"/>
				</g>
			</g>
		</g>
	</g>
	<path class="st2" d="M1090.4,275.2v7.4c0,13.3,28.1,24.1,62.8,24.1s62.8-10.8,62.8-24.1v-14.1"/>
	<path class="st3" d="M228.9,274.7v7.7c0,10.8,17.8,20,42.8,23.6"/>
	<ellipse class="st4" cx="342.8" cy="294" rx="65.7" ry="25.2"/>
	<ellipse class="st5" cx="294.7" cy="268.8" rx="65.7" ry="25.2"/>
	<ellipse class="st5" cx="294.7" cy="268.8" rx="65.7" ry="25.2"/>
	<ellipse class="st6" cx="342.8" cy="294" rx="65.7" ry="25.2"/>
	<path class="st3" d="M277.1,294v26.7c0,13.9,29.4,25.2,65.7,25.2s65.7-11.3,65.7-25.2v-15.6"/>
	<ellipse class="st7" cx="394.8" cy="391.6" rx="65.7" ry="25.2"/>
	<path class="st8" d="M342.1,391.6c0-11.1,23.6-20.1,52.6-20.1"/>
	<path class="st3" d="M329,391.6v29.4c0,13.9,29.4,25.2,65.7,25.2c36.3,0,65.7-11.3,65.7-25.2v-13"/>
	<ellipse class="st3" cx="1153.2" cy="265.1" rx="62.8" ry="24.1"/>
	<ellipse class="st9" cx="1119.8" cy="356.8" rx="62.8" ry="24.1"/>
	<line class="st10" x1="261.4" y1="316.1" x2="261.4" y2="356.4"/>
	<line class="st10" x1="1113.4" y1="383.2" x2="1113.4" y2="423.5"/>
	<line class="st3" x1="420.6" y1="332" x2="470.4" y2="332"/>
	<line class="st3" x1="1191.2" y1="324.4" x2="1337.4" y2="324.4"/>
	<path class="st3" d="M240.7,385.8c-7.3-4.3-15.9-6.8-25-6.8c-27.3,0-49.5,22.2-49.5,49.5c0,27.3,22.2,49.5,49.5,49.5
		c27.3,0,49.5-22.2,49.5-49.5c0-6.9-1.4-13.4-3.9-19.4"/>
	<polyline class="st3" points="217.5,318.7 236.2,328.1 215.7,428.5 	"/>
	<line class="st11" x1="215.7" y1="428.5" x2="134.6" y2="388"/>
	<line class="st12" x1="132.2" y1="386.8" x2="0.6" y2="321"/>
	<line class="st12" x1="291.8" y1="466.6" x2="513.4" y2="577.3"/>
	<line class="st12" x1="1177.3" y1="464.2" x2="1040.3" y2="395.6"/>
	<line class="st3" x1="226.9" y1="424.8" x2="305.5" y2="398.6"/>
	<path class="st3" d="M215.7,428.5"/>
	<line class="st3" x1="215.7" y1="428.5" x2="281.2" y2="363.1"/>
	<path class="st3" d="M215.7,428.5"/>
	<line class="st3" x1="215.7" y1="428.5" x2="286.8" y2="341.1"/>
	<circle class="st2" cx="215.7" cy="428.5" r="7.7"/>
	<circle class="st13" cx="215.7" cy="428.5" r="4.1"/>
	<polygon class="st14" points="208.8,403 194.6,395.9 194.6,403.4 206,409.1 208.8,414.3 	"/>
	<ellipse class="st15" cx="1171.7" cy="372.1" rx="62.8" ry="24.1"/>
	<path class="st3" d="M1057,367v7.4c0,13.3,28.1,24.1,62.8,24.1s62.8-10.8,62.8-24.1v-14.1"/>
	<path class="st10" d="M1171.7,348c34.7,0,62.8,10.8,62.8,24.1c0,13.3-28.1,24.1-62.8,24.1"/>
	<line class="st10" x1="1171.7" y1="396.1" x2="1171.7" y2="452"/>
</g>
</svg>
