<svg xmlns="http://www.w3.org/2000/svg" width="145.45" height="98.07" viewBox="0 0 145.45 98.07">
  <defs>
    <style>
      .a {
        fill: #7629f4;
      }

      .b {
        fill: none;
      }

      .b, .c {
        stroke: #7629f4;
        stroke-width: 1.25px;
      }

      .b, .c, .d {
        stroke-linecap: round;
        stroke-linejoin: round;
      }

      .c, .d {
        fill: #fff;
      }

      .d {
        stroke: #fff;
        stroke-width: 12px;
      }
    </style>
  </defs>
  <title>portability-small-3</title>
  <path class="a" d="M114.34,93l-10.88-1.59,10.11-3.3,0-.21C110.85,75.56,103.29,64,94.16,59.66c-11.72-5.62-21.59,2.69-22,18.55s8.68,33.27,20.39,38.89,21.59-2.69,22-18.55a41.83,41.83,0,0,0-.19-5.27ZM93,101.88c-5.51-2.64-9.8-10.83-9.59-18.28s4.86-11.36,10.36-8.72,9.8,10.82,9.59,18.28S98.47,104.52,93,101.88Z" transform="translate(-45.81 -21.4)"/>
  <line class="b" x1="62.76" y1="0.62" x2="21.34" y2="14.43"/>
  <line class="b" x1="42.05" y1="22.47" x2="0.62" y2="36.28"/>
  <line class="b" x1="143.62" y1="81.24" x2="116.98" y2="90.12"/>
  <path class="b" d="M114.38,93.28a41.83,41.83,0,0,1,.19,5.27c-0.46,15.86-10.33,24.16-22,18.55s-20.85-23-20.39-38.89S82.45,54,94.16,59.66c9.13,4.37,16.69,15.9,19.37,28.28" transform="translate(-45.81 -21.4)"/>
  <path class="c" d="M172.61,74a41.72,41.72,0,0,1,.16,5c-0.3,10.45-4.69,17.63-11,19.69" transform="translate(-45.81 -21.4)"/>
  <path class="c" d="M141.64,38.9a14.8,14.8,0,0,1,10.74,1.24c8,3.84,14.82,13.19,18.17,23.79" transform="translate(-45.81 -21.4)"/>
  <path class="c" d="M103.32,93.16c-0.21,7.46-4.86,11.36-10.37,8.72s-9.8-10.83-9.59-18.28,4.86-11.36,10.36-8.72S103.53,85.7,103.32,93.16Z" transform="translate(-45.81 -21.4)"/>
  <line class="d" x1="47.54" y1="66.97" x2="112.66" y2="45.27"/>
  <line class="c" x1="53.41" y1="58.18" x2="85.62" y2="47.45"/>
  <line class="c" x1="37.55" y1="37.01" x2="96.22" y2="17.47"/>
  <line class="c" x1="58.31" y1="96.52" x2="116.98" y2="76.98"/>
  <line class="c" x1="57.52" y1="70.04" x2="68.57" y2="71.87"/>
  <line class="c" x1="115.67" y1="50.62" x2="126.71" y2="52.45"/>
  <path class="c" d="M150.84,75.61a23.25,23.25,0,0,1-3.94-11.52" transform="translate(-45.81 -21.4)"/>
  <line class="d" x1="139.45" y1="36.35" x2="112.66" y2="45.27"/>
  <line class="c" x1="115.88" y1="50.59" x2="92.19" y2="58.48"/>
  <line class="c" x1="121.85" y1="35.38" x2="97.87" y2="43.37"/>
  <line class="c" x1="57.52" y1="70.04" x2="86.19" y2="60.68"/>
  <line class="c" x1="68.54" y1="71.65" x2="126.77" y2="52.65"/>
</svg>
