<svg xmlns="http://www.w3.org/2000/svg" width="1070.86" height="243.85" viewBox="0 0 1070.86 243.85">
  <defs>
    <style>
      .a {
        fill: #fff;
      }

      .b, .c {
        fill: none;
      }

      .b, .d {
        stroke: #fff;
      }

      .b, .c, .d {
        stroke-linecap: round;
        stroke-linejoin: round;
        stroke-width: 1.25px;
      }

      .c {
        stroke: #7629f4;
      }

      .d {
        fill: #7629f4;
      }
    </style>
  </defs>
  <title>portability-animation</title>
  <g>
    <g>
      <path class="a" d="M168,446.57a0.62,0.62,0,0,1-.28-0.07l-65.43-32.72a0.62,0.62,0,0,1,.08-1.15l97.09-32.48a0.62,0.62,0,0,1,.48,0l65.43,32.72a0.62,0.62,0,0,1-.08,1.15l-97.09,32.48A0.62,0.62,0,0,1,168,446.57Z" transform="translate(-101.27 -211.72)"/>
      <path class="a" d="M199.61,380.76L265,413.47,168,445.95l-65.43-32.72,97.09-32.48m0-1.25a1.25,1.25,0,0,0-.4.06L102.12,412a1.25,1.25,0,0,0-.16,2.3l65.43,32.72a1.25,1.25,0,0,0,1,.07l97.09-32.48a1.25,1.25,0,0,0,.16-2.3l-65.43-32.72a1.25,1.25,0,0,0-.56-0.13h0Z" transform="translate(-101.27 -211.72)"/>
    </g>
    <g>
      <path class="a" d="M1069.64,427.57a0.62,0.62,0,0,1-.28-0.07l-65.43-32.72a0.62,0.62,0,0,1,.08-1.15l97.09-32.48a0.62,0.62,0,0,1,.48,0L1167,393.91a0.62,0.62,0,0,1-.08,1.15l-97.09,32.48A0.63,0.63,0,0,1,1069.64,427.57Z" transform="translate(-101.27 -211.72)"/>
      <path class="a" d="M1101.3,361.75l65.43,32.72-97.09,32.48-65.43-32.72,97.09-32.48m0-1.25a1.25,1.25,0,0,0-.4.06L1003.81,393a1.25,1.25,0,0,0-.16,2.3l65.43,32.72a1.25,1.25,0,0,0,1,.07l97.09-32.48a1.25,1.25,0,0,0,.16-2.3l-65.43-32.72a1.25,1.25,0,0,0-.56-0.13h0Z" transform="translate(-101.27 -211.72)"/>
    </g>
    <g>
      <path class="a" d="M279.31,350.57a0.62,0.62,0,0,1-.28-0.07L213.6,317.78a0.62,0.62,0,0,1,.08-1.15l97.09-32.48a0.62,0.62,0,0,1,.48,0l65.43,32.71a0.62,0.62,0,0,1-.08,1.15l-97.09,32.48A0.62,0.62,0,0,1,279.31,350.57Z" transform="translate(-101.27 -211.72)"/>
      <path class="a" d="M311,284.75l65.43,32.71-97.09,32.48-65.43-32.72L311,284.75m0-1.25a1.25,1.25,0,0,0-.4.06L213.49,316a1.25,1.25,0,0,0-.16,2.3l65.43,32.72a1.25,1.25,0,0,0,1,.07l97.09-32.48a1.25,1.25,0,0,0,.16-2.3l-65.43-32.71a1.25,1.25,0,0,0-.56-0.13h0Z" transform="translate(-101.27 -211.72)"/>
    </g>
    <polyline class="b" points="1.25 210.51 66.68 243.22 163.77 210.75"/>
    <polyline class="b" points="902.93 191.5 968.37 224.22 1065.46 191.74"/>
    <polyline class="b" points="112.61 114.5 178.04 147.22 275.13 114.74"/>
    <path class="b" d="M373.29,218.73a133.69,133.69,0,0,1,34.21-6.38" transform="translate(-101.27 -211.72)"/>
    <path class="c" d="M365.1,222.57c-58.92,25.92-67.8,90.77-67.8,90.77-70.39-240-112.46,94-112.46,94s-3-30.71-21.93-57" transform="translate(-101.27 -211.72)"/>
    <path class="c" d="M1025.26,270.1c23.9,25.94,52,66.84,57,119.25,0,0,21-68,83-79" transform="translate(-101.27 -211.72)"/>
    <path class="b" d="M363.3,222.57c-58.92,25.92-67.8,90.77-67.8,90.77-70.39-240-112.46,94-112.46,94s-3-30.71-21.93-57" transform="translate(-101.27 -211.72)"/>
    <path class="b" d="M1023.46,270.1c23.9,25.94,52,66.84,57,119.25,0,0,21-68,83-79" transform="translate(-101.27 -211.72)"/>
    <path class="b" d="M988.16,238.34a211.57,211.57,0,0,1,24.74,20.93" transform="translate(-101.27 -211.72)"/>
    <circle class="d" cx="1063.23" cy="98.62" r="7.01"/>
    <circle class="d" cx="59.84" cy="139.62" r="7.01"/>
    <path class="c" d="M195.78,400.13c5.64,2.27,9.18,5.55,9.12,9.16-0.1,6.58-12.12,11.73-26.84,11.52a52.78,52.78,0,0,1-14.49-2.13" transform="translate(-101.27 -211.72)"/>
    <path class="c" d="M1097.44,387.06c2.61,1.48,4.16,3.31,4.16,5.28,0,5-9.77,9-21.82,9s-21.82-4-21.82-9c0-3.73,5.5-6.93,13.33-8.29" transform="translate(-101.27 -211.72)"/>
    <path class="c" d="M273.34,314.24c0,5.53,9.52,10,21.26,10s21.26-4.48,21.26-10" transform="translate(-101.27 -211.72)"/>
  </g>
</svg>
