<svg xmlns="http://www.w3.org/2000/svg" width="229.15" height="99.87" viewBox="0 0 229.15 99.87">
  <defs>
    <style>
      .a, .e {
        fill: #fff;
      }

      .a, .b {
        stroke: #7629f4;
        stroke-width: 1.25px;
      }

      .a, .b, .c, .f, .g, .h, .i {
        stroke-linecap: round;
        stroke-linejoin: round;
      }

      .b, .f, .g, .h, .i {
        fill: none;
      }

      .c, .d {
        fill: #752af3;
      }

      .c, .f, .g, .h, .i {
        stroke: #fff;
      }

      .c, .i {
        stroke-width: 1.25px;
      }

      .g {
        stroke-dasharray: 0.51 3.09;
      }

      .h {
        stroke-dasharray: 0.51 3.09;
      }
    </style>
  </defs>
  <title>portability-small-2</title>
  <path class="a" d="M173.84,86.39a14.39,14.39,0,0,0-7.18,1.92,21.58,21.58,0,0,0-39.15,12.55h60.8A14.47,14.47,0,0,0,173.84,86.39Z" transform="translate(-6.94 -19.05)"/>
  <circle class="a" cx="114.55" cy="68.11" r="25.13"/>
  <circle class="b" cx="60.64" cy="63.13" r="18.77"/>
  <circle class="a" cx="138.87" cy="55.54" r="16.63"/>
  <path class="a" d="M7.56,110.07a16.63,16.63,0,0,1,33.25,0H7.56Z" transform="translate(-6.94 -19.05)"/>
  <line class="b" x1="90.08" y1="6.8" x2="48.66" y2="20.6"/>
  <line class="b" x1="209.3" y1="85.01" x2="167.87" y2="98.81"/>
  <line class="b" x1="75.3" y1="90.37" x2="48.66" y2="99.25"/>
  <g>
    <g>
      <polygon class="c" points="35.12 44.44 86.15 69.95 86.15 82.71 35.12 57.2 35.12 44.44"/>
      <polyline class="c" points="86.15 69.95 161.86 44.63 161.86 57.38 86.15 82.71"/>
      <g>
        <path class="d" d="M93.09,89.62a0.63,0.63,0,0,1-.28-0.07L41.78,64a0.62,0.62,0,0,1,.08-1.15l75.71-25.33a0.62,0.62,0,0,1,.2,0,0.63,0.63,0,0,1,.28.07l51,25.51a0.62,0.62,0,0,1-.08,1.15L93.28,89.59A0.61,0.61,0,0,1,93.09,89.62Z" transform="translate(-6.94 -19.05)"/>
        <path class="e" d="M117.78,38.16l51,25.51L93.09,89l-51-25.51,75.71-25.33m0-1.25a1.25,1.25,0,0,0-.4.06L41.67,62.3a1.25,1.25,0,0,0-.16,2.3l51,25.51a1.25,1.25,0,0,0,1,.07L169.2,64.86a1.25,1.25,0,0,0,.16-2.3L118.33,37a1.25,1.25,0,0,0-.56-0.13h0Z" transform="translate(-6.94 -19.05)"/>
      </g>
    </g>
    <polygon class="c" points="86.19 69.95 94.21 73.97 94.21 86.72 86.19 82.71 86.19 69.95"/>
    <polygon class="c" points="27.11 40.3 35.12 44.31 35.12 57.07 27.11 53.05 27.11 40.3"/>
    <g>
      <line class="f" x1="39.5" y1="55.41" x2="39.72" y2="55.52"/>
      <line class="g" x1="42.48" y1="56.9" x2="79.74" y2="75.53"/>
      <line class="f" x1="81.12" y1="76.22" x2="81.35" y2="76.33"/>
    </g>
    <g>
      <line class="f" x1="39.5" y1="53.1" x2="39.72" y2="53.21"/>
      <line class="h" x1="42.48" y1="54.59" x2="79.74" y2="73.22"/>
      <line class="f" x1="81.12" y1="73.91" x2="81.35" y2="74.02"/>
    </g>
    <line class="i" x1="129.43" y1="55.41" x2="100.78" y2="41.13"/>
    <line class="i" x1="115.67" y1="59.93" x2="94.48" y2="49.38"/>
  </g>
  <path class="a" d="M210.59,31.91a24.73,24.73,0,0,0-12.35,3.3,37.1,37.1,0,0,0-67.3,21.57H235.47A24.88,24.88,0,0,0,210.59,31.91Z" transform="translate(-6.94 -19.05)"/>
</svg>
