<svg xmlns="http://www.w3.org/2000/svg" width="243.03" height="137.88" viewBox="0 0 243.03 137.88">
  <defs>
    <style>
      .a, .d, .g, .h {
        fill: #fff;
      }

      .a, .b, .g, .h, .i, .j {
        stroke: #7629f4;
      }

      .a, .b, .f, .h, .j {
        stroke-linecap: round;
        stroke-linejoin: round;
      }

      .a, .b, .f {
        stroke-width: 1.25px;
      }

      .b, .f, .j {
        fill: none;
      }

      .c, .e {
        fill: #7629f4;
      }

      .c {
        stroke: #762af3;
      }

      .c, .g, .i {
        stroke-miterlimit: 10;
      }

      .f {
        stroke: #fff;
      }

      .g, .h, .i, .j {
        stroke-width: 1.25px;
      }

      .i {
        fill: #f4f4f4;
      }
    </style>
  </defs>
  <title>portability-small-1</title>
  <path class="a" d="M242.4,137.25a16.61,16.61,0,0,0-24.88-14.42,24.8,24.8,0,0,0-45,14.42"/>
  <path class="a" d="M21.36,115.92a10,10,0,0,1,20.08,0H21.36Z"/>
  <line class="b" x1="140.45" y1="8.87" x2="99.03" y2="22.68"/>
  <line class="b" x1="155.62" y1="114.06" x2="126.64" y2="123.72"/>
  <g>
    <circle class="c" cx="114.77" cy="74.07" r="40.57" transform="translate(-11.41 126.4) rotate(-55.36)"/>
    <path class="b" d="M68.83,54.38c-22.75-.55-46.93,4.47-48.28,11.54-2.05,10.82,44,23.42,88,31.79,45.12,8.57,91.36,5.62,93.49-5.6C203.42,85,189.78,75.86,168,68"/>
  </g>
  <ellipse class="d" cx="88.02" cy="68.21" rx="4.37" ry="5.04" transform="translate(-7.5 10.97) rotate(-6.84)"/>
  <circle class="e" cx="77.74" cy="25.74" r="0.74"/>
  <circle class="e" cx="164.63" cy="23.16" r="0.74"/>
  <circle class="e" cx="30.21" cy="93.94" r="0.74"/>
  <circle class="e" cx="203.74" cy="61.48" r="0.74"/>
  <circle class="e" cx="0.74" cy="0.74" r="0.74"/>
  <circle class="e" cx="178.92" cy="88.88" r="0.74"/>
  <circle class="e" cx="216.66" cy="96.96" r="0.74"/>
  <path class="f" d="M73.86,58.49c-20-.47-41.21,4-42.4,10.2-1.81,9.53,38.58,20.61,77.27,28,39.61,7.53,80.22,4.9,82.09-5C192,85.36,180,77.35,161,70.42"/>
  <circle class="e" cx="74.95" cy="15.78" r="0.74"/>
  <circle class="e" cx="66.92" cy="109.02" r="0.74"/>
  <circle class="e" cx="76.74" cy="125.74" r="0.74"/>
  <g>
    <line class="g" x1="144.86" y1="73.97" x2="158" y2="69.59"/>
    <polygon class="h" points="128.99 66.31 157.34 56.86 157.34 47.94 128.99 55.85 128.99 66.31"/>
    <polygon class="h" points="138.31 59.6 147.75 64.33 147.75 72.08 138.31 67.36 138.31 59.6"/>
    <path class="i" d="M146.36,70.93c0-2.51-1.49-5.29-3.33-6.21s-3.33.37-3.33,2.88,1.49,5.29,3.33,6.21S146.36,73.44,146.36,70.93Z"/>
    <path class="e" d="M143.93,69.87a2,2,0,0,0-.9-1.68c-0.5-.25-0.9.1-0.9,0.78a2,2,0,0,0,.9,1.68C143.52,70.9,143.93,70.55,143.93,69.87Z"/>
    <g>
      <path class="d" d="M147.75,64.33l9.14-3A39.54,39.54,0,0,1,162.38,60l7.13-1.07c1.54-.23,1.66-1,0.27-1.69L165.4,55a10.54,10.54,0,0,0-5.34-.85l-7.12,1.07a39.47,39.47,0,0,0-5.49,1.32l-9.14,3"/>
      <path class="j" d="M147.75,64.33l9.14-3A39.54,39.54,0,0,1,162.38,60l7.13-1.07c1.54-.23,1.66-1,0.27-1.69L165.4,55a10.54,10.54,0,0,0-5.34-.85l-7.12,1.07a39.47,39.47,0,0,0-5.49,1.32l-9.14,3"/>
    </g>
    <path class="h" d="M151.82,59"/>
    <polygon class="h" points="172.31 63.91 147.75 72.08 147.75 64.33 159.58 60.38 172.31 58.47 172.31 63.91"/>
    <polygon class="h" points="150.58 77.11 178.92 67.66 178.92 58.74 150.58 66.65 150.58 77.11"/>
    <line class="h" x1="158.86" y1="60.03" x2="150.19" y2="55.69"/>
  </g>
  <line class="f" x1="134.91" y1="70.88" x2="109.3" y2="79.42"/>
  <line class="f" x1="119.74" y1="80.61" x2="101.96" y2="86.54"/>
</svg>
