<!-- Generator: Adobe Illustrator 19.2.0, SVG Export Plug-In  -->
<svg version="1.0"
	 xmlns="http://www.w3.org/2000/svg" xmlns:xlink="http://www.w3.org/1999/xlink" xmlns:a="http://ns.adobe.com/AdobeSVGViewerExtensions/3.0/"
	 x="0px" y="0px" width="165px" height="76.1px" viewBox="0 0 165 76.1" style="enable-background:new 0 0 165 76.1;"
	 xml:space="preserve">
<style type="text/css">
	.st0{fill:#FFFFFF;}
	.st1{fill:none;stroke:#FFFFFF;stroke-width:1.2475;stroke-linecap:round;stroke-linejoin:round;stroke-miterlimit:10;}
</style>
<defs>
</defs>
<g>
	<path class="st0" d="M66.7,67.1c-0.1,0-0.2,0-0.3-0.1L1,34.3c-0.2-0.1-0.4-0.4-0.3-0.6c0-0.3,0.2-0.5,0.4-0.5L98.1,0.7
		c0.1,0,0.1,0,0.2,0c0.1,0,0.2,0,0.3,0.1L164,33.4c0.2,0.1,0.4,0.4,0.3,0.6c0,0.3-0.2,0.5-0.4,0.5L66.9,67
		C66.8,67.1,66.7,67.1,66.7,67.1z"/>
	<g>
		<path class="st0" d="M98.3,1.2L163.8,34L66.7,66.4L1.2,33.7L98.3,1.2 M98.3,0c-0.1,0-0.3,0-0.4,0.1L0.9,32.5
			C0.4,32.7,0,33.1,0,33.6c0,0.5,0.2,1,0.7,1.2l65.4,32.7c0.2,0.1,0.4,0.1,0.6,0.1c0.1,0,0.3,0,0.4-0.1l97.1-32.5
			c0.5-0.2,0.8-0.6,0.8-1.1c0-0.5-0.2-1-0.7-1.2L98.9,0.1C98.7,0,98.5,0,98.3,0L98.3,0z"/>
	</g>
</g>
<polyline class="st1" points="1.2,42.7 66.7,75.4 163.8,43 "/>
</svg>
