<!-- Generator: Adobe Illustrator 19.2.1, SVG Export Plug-In  -->
<svg version="1.1"
	 xmlns="http://www.w3.org/2000/svg" xmlns:xlink="http://www.w3.org/1999/xlink" xmlns:a="http://ns.adobe.com/AdobeSVGViewerExtensions/3.0/"
	 x="0px" y="0px" width="63.7px" height="221.3px" viewBox="0 0 63.7 221.3" style="enable-background:new 0 0 63.7 221.3;"
	 xml:space="preserve">
<style type="text/css">
	.st0{fill:none;}
	.st1{fill:#7629F4;}
	.st2{fill:#FFFFFF;}
</style>
<defs>
</defs>
<g>
	<path class="st0" d="M0,216.6v1.7c0-0.3,0.1-0.6,0.1-1C0.1,217.1,0,216.8,0,216.6z"/>
	<path class="st0" d="M63.6,43.4C63.6,43.4,63.6,43.4,63.6,43.4C43.6,45,28,93.8,18.5,134.4C9.4,173,4,211.6,2.7,221.3h61L63.6,43.4
		C63.6,43.4,63.6,43.4,63.6,43.4z"/>
	<path class="st0" d="M16.7,134.5c-8.1,34.5-13.3,69-15.2,82.8c0.1,0.6,0.2,1.2,0.3,1.7C5.1,194,22.3,77.2,51.4,48.5
		C36.4,62.3,24.5,101.1,16.7,134.5z"/>
	<path class="st0" d="M61.7,42.1c0.6-0.1,1.3,0,1.9,0c0,0,0.1,0,0.1,0V0H0v210.7c0.2,1,0.5,2,0.7,2.9C6,175.8,27.2,44.9,61.7,42.1z"
		/>
	<path class="st1" d="M63.7,42.1L63.7,42.1C63.6,42.1,63.6,42.1,63.7,42.1C63.6,42.1,63.6,42.1,63.7,42.1z"/>
	<path class="st1" d="M63.6,43.4C63.6,43.4,63.6,43.4,63.6,43.4c-0.6,0-1.2,0-1.8,0c-3.6,0.3-7,2.1-10.3,5.1
		C22.3,77.2,5.1,194,1.7,219c-0.1-0.5-0.2-1.1-0.3-1.7c-0.2,1.6-0.4,3-0.5,4h1.8c1.3-9.7,6.8-48.3,15.8-86.8
		C28,93.8,43.6,45,63.6,43.4z"/>
	<path class="st1" d="M0.7,213.6c-0.2-0.9-0.4-1.9-0.7-2.9v5.9c0,0.2,0.1,0.5,0.1,0.7C0.3,216.2,0.5,214.9,0.7,213.6z"/>
	<path class="st2" d="M16.7,134.5c7.8-33.4,19.7-72.2,34.8-86c3.3-3,6.7-4.8,10.3-5.1c0.6,0,1.2,0,1.8,0c0,0,0,0,0.1,0v-1.2
		c0,0-0.1,0-0.1,0c-0.6,0-1.3,0-1.9,0C27.2,44.9,6,175.8,0.7,213.6c-0.2,1.4-0.4,2.6-0.5,3.7c0,0.3-0.1,0.7-0.1,1v3h0.9
		c0.1-1,0.3-2.4,0.5-4C3.3,203.5,8.6,168.9,16.7,134.5z"/>
</g>
</svg>
