<!-- Generator: Adobe Illustrator 19.2.1, SVG Export Plug-In  -->
<svg version="1.1"
	 xmlns="http://www.w3.org/2000/svg" xmlns:xlink="http://www.w3.org/1999/xlink" xmlns:a="http://ns.adobe.com/AdobeSVGViewerExtensions/3.0/"
	 x="0px" y="0px" width="70.4px" height="92px" viewBox="0 0 70.4 92" style="enable-background:new 0 0 70.4 92;"
	 xml:space="preserve">
<style type="text/css">
	.st0{fill:#7629F4;}
	.st1{fill:#FFFFFF;}
</style>
<defs>
</defs>
<path class="st0" d="M68.2,1.2C55.6,6.7,45.3,14.1,36.9,22.3c-11.2,11-18.7,23.1-23.7,33.2C5.9,70.2,2.8,83.3,1.8,88.7
	c-0.1-0.3-0.2-0.7-0.3-1c-0.2,1.1-0.4,2-0.5,2.6c0.1,0.4,0.3,0.9,0.4,1.3C1.4,91.9,1.7,92,2,92c0.3,0,0.5-0.2,0.6-0.5
	C2.7,90.8,12.1,26.7,70,1.2c0.3-0.1,0.5-0.5,0.3-0.8c-0.1-0.3-0.5-0.5-0.8-0.3c-0.3,0.1-0.6,0.3-1,0.4C68.6,0.8,68.5,1.1,68.2,1.2z"
	/>
<path class="st1" d="M0.8,91.5c0,0,0.1-0.5,0.2-1.2c0.1-0.6,0.3-1.5,0.5-2.6C3.7,77,12.1,46.3,36.9,22.3
	c8.4-8.1,18.7-15.5,31.3-21.1c0.3-0.1,0.4-0.4,0.3-0.7c0,0,0-0.1,0-0.1c-0.1-0.3-0.5-0.5-0.8-0.3C37.1,13.5,20.2,37.6,11.4,55.5
	c-6,12.2-9.1,23.2-10.7,29.7c-0.2,0.9-0.4,1.8-0.5,2.5c-0.1,0.3-0.1,0.7-0.2,1V92c0.1,0,0.1,0,0.2,0C0.5,92,0.7,91.8,0.8,91.5z"/>
</svg>
