<!-- Generator: Adobe Illustrator 19.2.1, SVG Export Plug-In  -->
<svg version="1.1"
	 xmlns="http://www.w3.org/2000/svg" xmlns:xlink="http://www.w3.org/1999/xlink" xmlns:a="http://ns.adobe.com/AdobeSVGViewerExtensions/3.0/"
	 x="0px" y="0px" width="51.8px" height="221.3px" viewBox="0 0 51.8 221.3" style="enable-background:new 0 0 51.8 221.3;"
	 xml:space="preserve">
<style type="text/css">
	.st0{fill:none;}
	.st1{fill:#7629F4;}
	.st2{fill:#FFFFFF;}
</style>
<defs>
</defs>
<g>
	<path class="st0" d="M1.1,42.1c16.1-1.1,32.7,26.2,49.4,81.2c0.3-1.4,0.7-3.1,1.2-4.9V0H0v42.1C0.4,42.1,0.8,42.1,1.1,42.1z"/>
	<path class="st0" d="M12.8,47.7c12.2,10.8,24.5,37.3,37,79c0.1-0.3,0.1-0.6,0.2-1C37.4,83.6,24.9,57.5,12.8,47.7z"/>
	<path class="st0" d="M51.6,126.8c0.1-0.3,0.1-0.6,0.2-1v-2.3c-0.2,0.8-0.4,1.6-0.5,2.2C51.4,126.1,51.5,126.4,51.6,126.8z"/>
	<path class="st0" d="M51.1,129.7c-0.1-0.4-0.3-0.9-0.4-1.3c-0.1,0.7-0.2,1.2-0.2,1.2c0,0.3-0.3,0.5-0.6,0.5c-0.3,0-0.6-0.2-0.6-0.4
		C32.8,73.3,16.6,44.4,1.1,43.4c0,0,0,0,0,0c-0.4,0-0.7,0.1-1.1,0.1v177.8h51.8v-91.2C51.5,130.1,51.2,130,51.1,129.7z"/>
	<path class="st1" d="M1.1,43.4c-0.4,0-0.8,0-1.1,0v0.2C0.4,43.5,0.7,43.4,1.1,43.4C1.1,43.4,1.1,43.4,1.1,43.4z"/>
	<path class="st1" d="M1.1,42.1c3.9,0.2,7.8,2.1,11.7,5.6c12.1,9.8,24.5,35.9,37.2,78c0.2-0.7,0.3-1.6,0.5-2.5
		C33.8,68.3,17.2,41,1.1,42.1z"/>
	<path class="st1" d="M51.3,125.7c-0.2,1.1-0.4,2-0.5,2.6c0.1,0.4,0.3,0.9,0.4,1.3c0.1,0.3,0.3,0.5,0.6,0.4v-4.3
		c-0.1,0.3-0.1,0.7-0.2,1C51.5,126.4,51.4,126.1,51.3,125.7z"/>
	<path class="st2" d="M1.1,43.4c15.5,1,31.7,30,48.2,86.3c0.1,0.3,0.4,0.5,0.6,0.4c0.3,0,0.5-0.2,0.6-0.5c0,0,0.1-0.5,0.2-1.2
		c0.1-0.6,0.3-1.5,0.5-2.6c0.1-0.7,0.3-1.4,0.5-2.2v-5.1c-0.5,1.8-0.9,3.5-1.2,4.9c-0.2,0.9-0.4,1.8-0.5,2.5c-0.1,0.3-0.1,0.7-0.2,1
		C37.4,85,25,58.6,12.8,47.7C8.9,44.2,5,42.4,1.1,42.1c-0.4,0-0.8,0-1.1,0v1.2C0.4,43.4,0.8,43.4,1.1,43.4z"/>
</g>
</svg>
