<!-- Generator: Adobe Illustrator 19.2.1, SVG Export Plug-In  -->
<svg version="1.1"
	 xmlns="http://www.w3.org/2000/svg" xmlns:xlink="http://www.w3.org/1999/xlink" xmlns:a="http://ns.adobe.com/AdobeSVGViewerExtensions/3.0/"
	 x="0px" y="0px" width="112.6px" height="102.2px" viewBox="0 0 112.6 102.2" style="enable-background:new 0 0 112.6 102.2;"
	 xml:space="preserve">
<style type="text/css">
	.st0{fill:none;stroke:#FFFFFF;stroke-width:1.2475;stroke-linecap:round;stroke-linejoin:round;stroke-miterlimit:10;}
	.st1{fill:none;}
	.st2{fill:#7629F4;}
	.st3{fill:#FFFFFF;}
</style>
<defs>
</defs>
<path class="st0" d="M77.7,7c10.1-3.3,21.4-5.6,34.2-6.4"/>
<g>
	<path class="st1" d="M13,65.7c5-10.1,12.5-22.2,23.7-33.2C11.9,56.5,3.5,87.2,1.3,97.9c0.1,0.3,0.2,0.7,0.3,1
		C2.6,93.5,5.7,80.4,13,65.7z"/>
	<path class="st2" d="M0,93.6v4.2c0.1-0.7,0.3-1.5,0.5-2.4C0.4,94.8,0.2,94.2,0,93.6z"/>
	<path class="st2" d="M68,11.4C55.4,17,45.1,24.3,36.7,32.5C25.5,43.5,18,55.6,13,65.7C5.7,80.4,2.6,93.5,1.6,98.9
		c-0.1-0.3-0.2-0.7-0.3-1c-0.2,1.1-0.4,2-0.5,2.6c0.1,0.4,0.3,0.9,0.4,1.3c0.1,0.3,0.4,0.5,0.6,0.4c0.3,0,0.5-0.2,0.6-0.5
		c0.1-0.6,9.5-64.8,67.4-90.3c0.3-0.1,0.5-0.5,0.3-0.8c-0.1-0.3-0.5-0.5-0.8-0.3c-0.3,0.1-0.6,0.3-1,0.4C68.4,11,68.3,11.3,68,11.4z
		"/>
	<path class="st3" d="M0.6,101.7c0,0,0.1-0.5,0.2-1.2C0.9,99.9,1,99,1.3,97.9c2.3-10.7,10.6-41.4,35.4-65.4
		C45.1,24.3,55.4,17,68,11.4c0.3-0.1,0.4-0.4,0.3-0.7c0,0,0-0.1,0-0.1c-0.1-0.3-0.5-0.5-0.8-0.3C36.9,23.7,20,47.8,11.2,65.7
		C5.2,77.9,2,88.9,0.5,95.4c-0.2,0.9-0.4,1.7-0.5,2.4v4.4C0.3,102.2,0.5,102,0.6,101.7z"/>
</g>
</svg>
