<!-- Generator: Adobe Illustrator 19.2.1, SVG Export Plug-In  -->
<svg version="1.1"
	 xmlns="http://www.w3.org/2000/svg" xmlns:xlink="http://www.w3.org/1999/xlink" xmlns:a="http://ns.adobe.com/AdobeSVGViewerExtensions/3.0/"
	 x="0px" y="0px" width="178.4px" height="152.2px" viewBox="0 0 178.4 152.2" style="enable-background:new 0 0 178.4 152.2;"
	 xml:space="preserve">
<style type="text/css">
	.st0{fill:#7629F4;}
	.st1{fill:#FFFFFF;}
</style>
<defs>
</defs>
<path class="st0" d="M94.8,152.2C94.7,152.2,94.7,152.2,94.8,152.2c-0.4,0-0.6-0.3-0.6-0.6C89.1,99,60.4,57.9,37.3,32.8
	c-0.2-0.3-0.2-0.6,0-0.9c0.3-0.2,0.6-0.2,0.9,0C61.1,56.8,89.3,97,95.1,148.8c2-5.5,7.5-18.9,17.4-32.9
	C124.4,99,145.4,77.7,177.7,72c0.3-0.1,0.7,0.2,0.7,0.5c0.1,0.3-0.2,0.7-0.5,0.7C117,84,95.6,151.1,95.4,151.8
	C95.3,152.1,95,152.2,94.8,152.2z"/>
<path class="st1" d="M93,152.2C92.9,152.2,92.9,152.2,93,152.2c-0.4,0-0.6-0.3-0.6-0.6C87.3,99,58.6,57.9,35.5,32.8
	c-0.2-0.3-0.2-0.6,0-0.9c0.3-0.2,0.6-0.2,0.9,0C59.3,56.8,87.5,97,93.3,148.8c2-5.5,7.5-18.9,17.4-32.9
	C122.6,99,143.6,77.7,175.9,72c0.3-0.1,0.7,0.2,0.7,0.5c0.1,0.3-0.2,0.7-0.5,0.7c-31.8,5.6-52.5,26.7-64.3,43.3
	c-12.8,18.1-18.1,35.1-18.2,35.2C93.5,152.1,93.2,152.2,93,152.2z"/>
<path class="st1" d="M25.4,22.2c-0.2,0-0.3-0.1-0.4-0.2C11,8.5,0.4,1.2,0.3,1.1C0,0.9-0.1,0.6,0.1,0.3C0.3,0,0.7-0.1,1,0.1
	c0.1,0.1,10.8,7.5,24.8,21c0.2,0.2,0.3,0.6,0,0.9C25.7,22.1,25.5,22.2,25.4,22.2z"/>
</svg>
