<!-- Generator: Adobe Illustrator 19.2.0, SVG Export Plug-In  -->
<svg version="1.0"
	 xmlns="http://www.w3.org/2000/svg" xmlns:xlink="http://www.w3.org/1999/xlink" xmlns:a="http://ns.adobe.com/AdobeSVGViewerExtensions/3.0/"
	 x="0px" y="0px" width="1260.5px" height="525.4px" viewBox="0 0 1260.5 525.4" style="enable-background:new 0 0 1260.5 525.4;"
	 xml:space="preserve">
<style type="text/css">
	.st0{fill:#7629F4;}
	.st1{fill:#FFFFFF;}
	.st2{fill:none;stroke:#FFFFFF;stroke-width:1.2475;stroke-linecap:round;stroke-linejoin:round;stroke-miterlimit:10;}
	.st3{fill:none;stroke:#7629F4;stroke-width:1.2475;stroke-linecap:round;stroke-linejoin:round;stroke-miterlimit:10;}
	.st4{fill:#7629F4;stroke:#FFFFFF;stroke-width:1.2475;stroke-linecap:round;stroke-linejoin:round;stroke-miterlimit:10;}
</style>
<defs>
</defs>
<g>
	<g>
		<g>
			<g>
				<g>
					<rect class="st0" width="1260.5" height="525.4"/>
				</g>
			</g>
		</g>
	</g>
	<g>
		<path class="st1" d="M168,446.6c-0.1,0-0.2,0-0.3-0.1l-65.4-32.7c-0.2-0.1-0.4-0.3-0.3-0.6c0-0.3,0.2-0.5,0.4-0.5l97.1-32.5
			c0.1,0,0.1,0,0.2,0c0.1,0,0.2,0,0.3,0.1l65.4,32.7c0.2,0.1,0.4,0.3,0.3,0.6c0,0.3-0.2,0.5-0.4,0.5l-97.1,32.5
			C168.1,446.6,168,446.6,168,446.6z"/>
		<g>
			<path class="st1" d="M199.6,380.8l65.4,32.7L168,445.9l-65.4-32.7L199.6,380.8 M199.6,379.5c-0.1,0-0.3,0-0.4,0.1L102.1,412
				c-0.5,0.2-0.8,0.6-0.8,1.1c0,0.5,0.2,1,0.7,1.2l65.4,32.7c0.2,0.1,0.4,0.1,0.6,0.1c0.1,0,0.3,0,0.4-0.1l97.1-32.5
				c0.5-0.2,0.8-0.6,0.8-1.1c0-0.5-0.2-1-0.7-1.2l-65.4-32.7C200,379.6,199.8,379.5,199.6,379.5L199.6,379.5z"/>
		</g>
	</g>
	<g>
		<path class="st1" d="M1069.6,427.6c-0.1,0-0.2,0-0.3-0.1l-65.4-32.7c-0.2-0.1-0.4-0.3-0.3-0.6s0.2-0.5,0.4-0.5l97.1-32.5
			c0.1,0,0.1,0,0.2,0c0.1,0,0.2,0,0.3,0.1l65.4,32.7c0.2,0.1,0.4,0.3,0.3,0.6s-0.2,0.5-0.4,0.5l-97.1,32.5
			C1069.8,427.6,1069.7,427.6,1069.6,427.6z"/>
		<g>
			<path class="st1" d="M1101.3,361.7l65.4,32.7l-97.1,32.5l-65.4-32.7L1101.3,361.7 M1101.3,360.5c-0.1,0-0.3,0-0.4,0.1l-97.1,32.5
				c-0.5,0.2-0.8,0.6-0.8,1.1c0,0.5,0.2,1,0.7,1.2l65.4,32.7c0.2,0.1,0.4,0.1,0.6,0.1c0.1,0,0.3,0,0.4-0.1l97.1-32.5
				c0.5-0.2,0.8-0.6,0.8-1.1c0-0.5-0.2-1-0.7-1.2l-65.4-32.7C1101.7,360.5,1101.5,360.5,1101.3,360.5L1101.3,360.5z"/>
		</g>
	</g>
	<g>
		<path class="st1" d="M279.3,350.6c-0.1,0-0.2,0-0.3-0.1l-65.4-32.7c-0.2-0.1-0.4-0.3-0.3-0.6c0-0.3,0.2-0.5,0.4-0.5l97.1-32.5
			c0.1,0,0.1,0,0.2,0c0.1,0,0.2,0,0.3,0.1l65.4,32.7c0.2,0.1,0.4,0.3,0.3,0.6c0,0.3-0.2,0.5-0.4,0.5l-97.1,32.5
			C279.4,350.6,279.4,350.6,279.3,350.6z"/>
		<g>
			<path class="st1" d="M311,284.8l65.4,32.7l-97.1,32.5l-65.4-32.7L311,284.8 M311,283.5c-0.1,0-0.3,0-0.4,0.1L213.5,316
				c-0.5,0.2-0.8,0.6-0.8,1.1c0,0.5,0.2,1,0.7,1.2l65.4,32.7c0.2,0.1,0.4,0.1,0.6,0.1c0.1,0,0.3,0,0.4-0.1l97.1-32.5
				c0.5-0.2,0.8-0.6,0.8-1.1c0-0.5-0.2-1-0.7-1.2l-65.4-32.7C311.4,283.5,311.2,283.5,311,283.5L311,283.5z"/>
		</g>
	</g>
	<polyline class="st2" points="102.5,422.2 168,454.9 265,422.5 	"/>
	<polyline class="st2" points="1004.2,403.2 1069.6,435.9 1166.7,403.5 	"/>
	<polyline class="st2" points="213.9,326.2 279.3,358.9 376.4,326.5 	"/>
	<path class="st2" d="M373.3,218.7c10.1-3.3,21.4-5.6,34.2-6.4"/>
	<path class="st3" d="M365.1,222.6c-58.9,25.9-67.8,90.8-67.8,90.8c-70.4-240-112.5,94-112.5,94s-3-30.7-21.9-57"/>
	<path class="st3" d="M1025.3,270.1c23.9,25.9,52,66.8,57,119.2c0,0,21-68,83-79"/>
	<path class="st2" d="M363.3,222.6c-58.9,25.9-67.8,90.8-67.8,90.8c-70.4-240-112.5,94-112.5,94s-3-30.7-21.9-57"/>
	<path class="st2" d="M1023.5,270.1c23.9,25.9,52,66.8,57,119.2c0,0,21-68,83-79"/>
	<path class="st2" d="M988.2,238.3c0,0,10.6,7.3,24.7,20.9"/>
	<circle class="st4" cx="1164.5" cy="310.3" r="7"/>
	<circle class="st4" cx="161.1" cy="351.3" r="7"/>
	<path class="st3" d="M195.8,400.1c5.6,2.3,9.2,5.6,9.1,9.2c-0.1,6.6-12.1,11.7-26.8,11.5c-5.4-0.1-10.3-0.9-14.5-2.1"/>
	<path class="st3" d="M1097.4,387.1c2.6,1.5,4.2,3.3,4.2,5.3c0,5-9.8,9-21.8,9s-21.8-4-21.8-9c0-3.7,5.5-6.9,13.3-8.3"/>
	<path class="st3" d="M273.3,314.2c0,5.5,9.5,10,21.3,10c11.7,0,21.3-4.5,21.3-10"/>
</g>
</svg>
