<!-- Generator: Adobe Illustrator 19.2.1, SVG Export Plug-In  -->
<svg version="1.1"
	 xmlns="http://www.w3.org/2000/svg" xmlns:xlink="http://www.w3.org/1999/xlink" xmlns:a="http://ns.adobe.com/AdobeSVGViewerExtensions/3.0/"
	 x="0px" y="0px" width="134.4px" height="86px" viewBox="0 0 134.4 86" style="enable-background:new 0 0 134.4 86;"
	 xml:space="preserve">
<style type="text/css">
	.st0{fill:#7148EC;}
	.st1{fill:none;stroke:#7148EC;stroke-width:3;stroke-miterlimit:10;}
	.st2{fill:#FFFFFF;stroke:#7148EC;stroke-width:2;stroke-miterlimit:10;}
</style>
<defs>
</defs>
<g>
	<g>
		<g>
			<g>
				<circle class="st0" cx="46.2" cy="85" r="1"/>
			</g>
			<g>
				<circle class="st0" cx="60.2" cy="85" r="1"/>
			</g>
			<g>
				<circle class="st0" cx="74.2" cy="85" r="1"/>
			</g>
			<g>
				<circle class="st0" cx="88.2" cy="85" r="1"/>
			</g>
			<g>
				<circle class="st0" cx="102.2" cy="85" r="1"/>
			</g>
			<g>
				<circle class="st0" cx="116.2" cy="85" r="1"/>
			</g>
			<g>
				<circle class="st0" cx="130.2" cy="85" r="1"/>
			</g>
			<g>
				<circle class="st0" cx="46.2" cy="71" r="1"/>
			</g>
			<g>
				<circle class="st0" cx="60.2" cy="71" r="1"/>
			</g>
			<g>
				<circle class="st0" cx="74.2" cy="71" r="1"/>
			</g>
			<g>
				<circle class="st0" cx="88.2" cy="71" r="1"/>
			</g>
			<g>
				<circle class="st0" cx="102.2" cy="71" r="1"/>
			</g>
			<g>
				<circle class="st0" cx="130.2" cy="71" r="1"/>
			</g>
			<g>
				<circle class="st0" cx="116.2" cy="71" r="1"/>
			</g>
			<g>
				<circle class="st0" cx="46.2" cy="57" r="1"/>
			</g>
			<g>
				<circle class="st0" cx="60.2" cy="57" r="1"/>
			</g>
			<g>
				<circle class="st0" cx="74.2" cy="57" r="1"/>
			</g>
			<g>
				<circle class="st0" cx="88.2" cy="57" r="1"/>
			</g>
			<g>
				<circle class="st0" cx="102.2" cy="57" r="1"/>
			</g>
			<g>
				<circle class="st0" cx="116.2" cy="57" r="1"/>
			</g>
			<g>
				<circle class="st0" cx="130.2" cy="57" r="1"/>
			</g>
			<g>
				<circle class="st0" cx="46.2" cy="43" r="1"/>
			</g>
			<g>
				<circle class="st0" cx="60.2" cy="43" r="1"/>
			</g>
			<g>
				<circle class="st0" cx="74.2" cy="43" r="1"/>
			</g>
			<g>
				<circle class="st0" cx="88.2" cy="43" r="1"/>
			</g>
			<g>
				<circle class="st0" cx="102.2" cy="43" r="1"/>
			</g>
			<g>
				<circle class="st0" cx="116.2" cy="43" r="1"/>
			</g>
			<g>
				<circle class="st0" cx="130.2" cy="43" r="1"/>
			</g>
			<g>
				<circle class="st0" cx="46.2" cy="29" r="1"/>
			</g>
			<g>
				<circle class="st0" cx="60.2" cy="29" r="1"/>
			</g>
			<g>
				<circle class="st0" cx="74.2" cy="29" r="1"/>
			</g>
			<g>
				<circle class="st0" cx="88.2" cy="29" r="1"/>
			</g>
			<g>
				<circle class="st0" cx="102.2" cy="29" r="1"/>
			</g>
			<g>
				<circle class="st0" cx="116.2" cy="29" r="1"/>
			</g>
			<g>
				<circle class="st0" cx="130.2" cy="29" r="1"/>
			</g>
			<g>
				<circle class="st0" cx="46.2" cy="15" r="1"/>
			</g>
			<g>
				<circle class="st0" cx="60.2" cy="15" r="1"/>
			</g>
			<g>
				<circle class="st0" cx="74.2" cy="15" r="1"/>
			</g>
			<g>
				<circle class="st0" cx="88.2" cy="15" r="1"/>
			</g>
			<g>
				<circle class="st0" cx="102.2" cy="15" r="1"/>
			</g>
			<g>
				<circle class="st0" cx="116.2" cy="15" r="1"/>
			</g>
			<g>
				<circle class="st0" cx="130.2" cy="15" r="1"/>
			</g>
			<g>
				<circle class="st0" cx="46.2" cy="1" r="1"/>
			</g>
			<g>
				<circle class="st0" cx="60.2" cy="1" r="1"/>
			</g>
			<g>
				<circle class="st0" cx="74.2" cy="1" r="1"/>
			</g>
			<g>
				<circle class="st0" cx="88.2" cy="1" r="1"/>
			</g>
			<g>
				<circle class="st0" cx="102.2" cy="1" r="1"/>
			</g>
			<g>
				<circle class="st0" cx="116.2" cy="1" r="1"/>
			</g>
			<g>
				<circle class="st0" cx="130.2" cy="1" r="1"/>
			</g>
		</g>
	</g>
	<line class="st1" x1="130.2" y1="71" x2="4.2" y2="71"/>
	<line class="st1" x1="130.2" y1="57" x2="102.2" y2="57"/>
	<g>
		<g>
			<path class="st2" d="M4.2,67.8c1.8,0,3.2,1.4,3.2,3.2c0,1.8-1.4,3.2-3.2,3.2C2.4,74.2,1,72.8,1,71C1,69.2,2.4,67.8,4.2,67.8z"/>
		</g>
	</g>
	<line class="st1" x1="102.2" y1="57" x2="102.2" y2="43"/>
	<g>
		<g>
			<path class="st2" d="M102.2,53.8c1.8,0,3.2,1.4,3.2,3.2c0,1.8-1.4,3.2-3.2,3.2c-1.8,0-3.2-1.4-3.2-3.2
				C99,55.2,100.4,53.8,102.2,53.8z"/>
		</g>
	</g>
	<line class="st1" x1="102.2" y1="43" x2="88.2" y2="43"/>
	<line class="st1" x1="74.2" y1="29" x2="60.2" y2="29"/>
	<g>
		<g>
			<path class="st2" d="M102.2,39.8c1.8,0,3.2,1.4,3.2,3.2c0,1.8-1.4,3.2-3.2,3.2c-1.8,0-3.2-1.4-3.2-3.2
				C99,41.2,100.4,39.8,102.2,39.8z"/>
		</g>
	</g>
	<line class="st1" x1="88.2" y1="43" x2="80.2" y2="51"/>
	<line class="st1" x1="74.2" y1="57" x2="74.2" y2="36"/>
	<g>
		<g>
			<path class="st2" d="M74.2,53.8c1.8,0,3.2,1.4,3.2,3.2c0,1.8-1.4,3.2-3.2,3.2c-1.8,0-3.2-1.4-3.2-3.2
				C71,55.2,72.4,53.8,74.2,53.8z"/>
		</g>
	</g>
	<g>
		<g>
			<path class="st2" d="M74.2,25.8c1.8,0,3.2,1.4,3.2,3.2c0,1.8-1.4,3.2-3.2,3.2c-1.8,0-3.2-1.4-3.2-3.2
				C71,27.2,72.4,25.8,74.2,25.8z"/>
		</g>
	</g>
	<g>
		<g>
			<path class="st2" d="M130.2,67.8c1.8,0,3.2,1.4,3.2,3.2c0,1.8-1.4,3.2-3.2,3.2c-1.8,0-3.2-1.4-3.2-3.2
				C127,69.2,128.4,67.8,130.2,67.8z"/>
		</g>
	</g>
	<g>
		<g>
			<path class="st2" d="M130.2,53.8c1.8,0,3.2,1.4,3.2,3.2c0,1.8-1.4,3.2-3.2,3.2c-1.8,0-3.2-1.4-3.2-3.2
				C127,55.2,128.4,53.8,130.2,53.8z"/>
		</g>
	</g>
	<g>
		<g>
			<path class="st2" d="M88.2,39.8c1.8,0,3.2,1.4,3.2,3.2c0,1.8-1.4,3.2-3.2,3.2c-1.8,0-3.2-1.4-3.2-3.2
				C85,41.2,86.4,39.8,88.2,39.8z"/>
		</g>
	</g>
	<g>
		<g>
			<path class="st2" d="M60.2,25.8c1.8,0,3.2,1.4,3.2,3.2c0,1.8-1.4,3.2-3.2,3.2c-1.8,0-3.2-1.4-3.2-3.2
				C57,27.2,58.4,25.8,60.2,25.8z"/>
		</g>
	</g>
</g>
</svg>
