<!-- Generator: Adobe Illustrator 19.2.1, SVG Export Plug-In  -->
<svg version="1.1"
	 xmlns="http://www.w3.org/2000/svg" xmlns:xlink="http://www.w3.org/1999/xlink" xmlns:a="http://ns.adobe.com/AdobeSVGViewerExtensions/3.0/"
	 x="0px" y="0px" width="86px" height="86px" viewBox="0 0 86 86" style="enable-background:new 0 0 86 86;" xml:space="preserve">
<style type="text/css">
	.st0{fill:#7148EC;}
</style>
<defs>
</defs>
<g>
	<g>
		<g>
			<circle class="st0" cx="85" cy="85" r="1"/>
		</g>
		<g>
			<circle class="st0" cx="71" cy="85" r="1"/>
		</g>
		<g>
			<circle class="st0" cx="57" cy="85" r="1"/>
		</g>
		<g>
			<circle class="st0" cx="43" cy="85" r="1"/>
		</g>
		<g>
			<circle class="st0" cx="29" cy="85" r="1"/>
		</g>
		<g>
			<circle class="st0" cx="15" cy="85" r="1"/>
		</g>
		<g>
			<circle class="st0" cx="1" cy="85" r="1"/>
		</g>
		<g>
			<circle class="st0" cx="85" cy="71" r="1"/>
		</g>
		<g>
			<circle class="st0" cx="71" cy="71" r="1"/>
		</g>
		<g>
			<circle class="st0" cx="57" cy="71" r="1"/>
		</g>
		<g>
			<circle class="st0" cx="43" cy="71" r="1"/>
		</g>
		<g>
			<circle class="st0" cx="29" cy="71" r="1"/>
		</g>
		<g>
			<circle class="st0" cx="1" cy="71" r="1"/>
		</g>
		<g>
			<circle class="st0" cx="15" cy="71" r="1"/>
		</g>
		<g>
			<circle class="st0" cx="85" cy="57" r="1"/>
		</g>
		<g>
			<circle class="st0" cx="71" cy="57" r="1"/>
		</g>
		<g>
			<circle class="st0" cx="57" cy="57" r="1"/>
		</g>
		<g>
			<circle class="st0" cx="43" cy="57" r="1"/>
		</g>
		<g>
			<circle class="st0" cx="29" cy="57" r="1"/>
		</g>
		<g>
			<circle class="st0" cx="15" cy="57" r="1"/>
		</g>
		<g>
			<circle class="st0" cx="1" cy="57" r="1"/>
		</g>
		<g>
			<circle class="st0" cx="85" cy="43" r="1"/>
		</g>
		<g>
			<circle class="st0" cx="71" cy="43" r="1"/>
		</g>
		<g>
			<circle class="st0" cx="57" cy="43" r="1"/>
		</g>
		<g>
			<circle class="st0" cx="43" cy="43" r="1"/>
		</g>
		<g>
			<circle class="st0" cx="29" cy="43" r="1"/>
		</g>
		<g>
			<circle class="st0" cx="15" cy="43" r="1"/>
		</g>
		<g>
			<circle class="st0" cx="1" cy="43" r="1"/>
		</g>
		<g>
			<circle class="st0" cx="85" cy="29" r="1"/>
		</g>
		<g>
			<circle class="st0" cx="71" cy="29" r="1"/>
		</g>
		<g>
			<circle class="st0" cx="57" cy="29" r="1"/>
		</g>
		<g>
			<circle class="st0" cx="43" cy="29" r="1"/>
		</g>
		<g>
			<circle class="st0" cx="29" cy="29" r="1"/>
		</g>
		<g>
			<circle class="st0" cx="15" cy="29" r="1"/>
		</g>
		<g>
			<circle class="st0" cx="1" cy="29" r="1"/>
		</g>
		<g>
			<circle class="st0" cx="85" cy="15" r="1"/>
		</g>
		<g>
			<circle class="st0" cx="71" cy="15" r="1"/>
		</g>
		<g>
			<circle class="st0" cx="57" cy="15" r="1"/>
		</g>
		<g>
			<circle class="st0" cx="43" cy="15" r="1"/>
		</g>
		<g>
			<circle class="st0" cx="29" cy="15" r="1"/>
		</g>
		<g>
			<circle class="st0" cx="15" cy="15" r="1"/>
		</g>
		<g>
			<circle class="st0" cx="1" cy="15" r="1"/>
		</g>
		<g>
			<circle class="st0" cx="85" cy="1" r="1"/>
		</g>
		<g>
			<circle class="st0" cx="71" cy="1" r="1"/>
		</g>
		<g>
			<circle class="st0" cx="57" cy="1" r="1"/>
		</g>
		<g>
			<circle class="st0" cx="43" cy="1" r="1"/>
		</g>
		<g>
			<circle class="st0" cx="29" cy="1" r="1"/>
		</g>
		<g>
			<circle class="st0" cx="15" cy="1" r="1"/>
		</g>
		<g>
			<circle class="st0" cx="1" cy="1" r="1"/>
		</g>
	</g>
</g>
</svg>
