<!-- Generator: Adobe Illustrator 19.2.1, SVG Export Plug-In  -->
<svg version="1.1"
	 xmlns="http://www.w3.org/2000/svg" xmlns:xlink="http://www.w3.org/1999/xlink" xmlns:a="http://ns.adobe.com/AdobeSVGViewerExtensions/3.0/"
	 x="0px" y="0px" width="394.8px" height="412px" viewBox="0 0 394.8 412" style="enable-background:new 0 0 394.8 412;"
	 xml:space="preserve">
<style type="text/css">
	.st0{fill:#7629F4;}
	.st1{fill:none;stroke:#FFFFFF;stroke-width:2;stroke-linecap:round;stroke-linejoin:round;stroke-miterlimit:10;}
	.st2{fill:#7629F4;stroke:#FFFFFF;stroke-width:2;stroke-miterlimit:10;}
	.st3{fill:none;stroke:#7629F4;stroke-miterlimit:10;}
	.st4{fill:none;stroke:#FFFFFF;stroke-width:0.5;stroke-miterlimit:10;}
	.st5{fill:#222222;}
	.st6{font-family:'Europa-Regular';}
	.st7{font-size:14px;}
	.st8{fill:none;stroke:#222222;stroke-width:0.5;stroke-miterlimit:10;}
</style>
<defs>
</defs>
<g>
	<polygon class="st0" points="372.4,361.6 344.4,193.6 316.4,207.6 288.4,361.6 260.4,263.6 232.4,249.6 204.4,375.6 176.4,375.6 
		148.4,347.6 120.4,291.6 92.4,361.6 64.4,361.6 36.4,375.6 8.4,361.6 8.4,402.6 372.4,402.6 	"/>
	<polyline class="st1" points="372.4,361.6 344.4,193.6 316.4,207.6 288.4,361.6 260.4,263.6 232.4,249.6 204.4,375.6 176.4,375.6 
		148.4,347.6 120.4,291.6 92.4,361.6 64.4,361.6 36.4,375.6 8.4,361.6 	"/>
	<circle class="st2" cx="176.4" cy="375.6" r="3.2"/>
	<circle class="st2" cx="204.4" cy="375.6" r="3.2"/>
	<circle class="st2" cx="232.4" cy="249.6" r="3.2"/>
	<circle class="st2" cx="260.4" cy="263.6" r="3.2"/>
	<circle class="st2" cx="288.4" cy="361.6" r="3.2"/>
	<circle class="st2" cx="316.4" cy="207.6" r="3.2"/>
	<circle class="st2" cx="344.4" cy="193.6" r="3.2"/>
	<circle class="st2" cx="148.4" cy="347.6" r="3.2"/>
	<circle class="st2" cx="120.4" cy="291.6" r="3.2"/>
	<circle class="st2" cx="92.4" cy="361.6" r="3.2"/>
	<circle class="st2" cx="64.4" cy="361.6" r="3.2"/>
	<circle class="st2" cx="36.4" cy="375.6" r="3.2"/>
	<polyline class="st3" points="8.9,40.1 8.9,403.1 386.9,403.1 	"/>
	<circle class="st2" cx="8.9" cy="403.1" r="5"/>
	<path class="st2" d="M1.9,45.2l7-10.6l7,10.6L1.9,45.2z"/>
	<path class="st2" d="M382.4,396.1l10.6,7l-10.6,7V396.1z"/>
	<line class="st4" x1="22.4" y1="375.6" x2="22.4" y2="403.1"/>
	<line class="st4" x1="36.4" y1="389.4" x2="36.4" y2="403.1"/>
	<line class="st4" x1="50.4" y1="375.6" x2="50.4" y2="403.1"/>
	<line class="st4" x1="64.4" y1="375.6" x2="64.4" y2="403.6"/>
	<line class="st4" x1="78.4" y1="375.6" x2="78.4" y2="403.1"/>
	<line class="st4" x1="92.4" y1="375.6" x2="92.4" y2="403.1"/>
	<line class="st4" x1="106.4" y1="361.6" x2="106.4" y2="403.1"/>
	<line class="st4" x1="120.4" y1="319.6" x2="120.4" y2="403.6"/>
	<line class="st4" x1="134.4" y1="333.6" x2="134.4" y2="403.1"/>
	<line class="st4" x1="148.4" y1="361.6" x2="148.4" y2="403.1"/>
	<line class="st4" x1="162.4" y1="375.6" x2="162.4" y2="403.1"/>
	<line class="st4" x1="176.4" y1="389.4" x2="176.4" y2="403.1"/>
	<line class="st4" x1="190.4" y1="389.6" x2="190.4" y2="403.1"/>
	<line class="st4" x1="204.4" y1="389.6" x2="204.4" y2="403.6"/>
	<line class="st4" x1="218.4" y1="361.6" x2="218.4" y2="403.1"/>
	<line class="st4" x1="232.4" y1="305.6" x2="232.4" y2="403.1"/>
	<line class="st4" x1="246.4" y1="263.6" x2="246.4" y2="403.1"/>
	<line class="st4" x1="260.4" y1="291.6" x2="260.4" y2="403.1"/>
	<line class="st4" x1="274.4" y1="333.6" x2="274.4" y2="403.1"/>
	<line class="st4" x1="288.4" y1="375.6" x2="288.4" y2="403.1"/>
	<line class="st4" x1="302.4" y1="347.6" x2="302.4" y2="403.1"/>
	<line class="st4" x1="316.4" y1="263.6" x2="316.4" y2="403.1"/>
	<line class="st4" x1="330.4" y1="207.6" x2="330.4" y2="403.1"/>
	<line class="st4" x1="344.4" y1="235.6" x2="344.4" y2="403.1"/>
	<line class="st4" x1="358.4" y1="333.6" x2="358.4" y2="403.1"/>
	<g>
		<g>
			<g>
				<g>
					<text transform="matrix(1 0 0 1 129.1904 11.8999)" class="st5 st6 st7">Conventional costs</text>
				</g>
			</g>
		</g>
	</g>
	<line class="st8" x1="191.7" y1="27.3" x2="152.4" y2="199.6"/>
</g>
</svg>
