<!-- Generator: Adobe Illustrator 19.2.1, SVG Export Plug-In  -->
<svg version="1.1"
	 xmlns="http://www.w3.org/2000/svg" xmlns:xlink="http://www.w3.org/1999/xlink" xmlns:a="http://ns.adobe.com/AdobeSVGViewerExtensions/3.0/"
	 x="0px" y="0px" width="176.4px" height="86px" viewBox="0 0 176.4 86" style="enable-background:new 0 0 176.4 86;"
	 xml:space="preserve">
<style type="text/css">
	.st0{fill:#7148EC;}
	.st1{fill:none;stroke:#7148EC;stroke-width:3;stroke-miterlimit:10;}
	.st2{fill:#FFFFFF;stroke:#7148EC;stroke-width:2;stroke-miterlimit:10;}
	.st3{fill:none;stroke:#7148EC;stroke-width:3;stroke-linecap:round;stroke-linejoin:round;stroke-miterlimit:10;}
	.st4{fill:none;stroke:#7148EC;stroke-width:2;stroke-miterlimit:10;}
</style>
<defs>
</defs>
<g>
	<g>
		<g>
			<g>
				<circle class="st0" cx="130.2" cy="85" r="1"/>
			</g>
			<g>
				<circle class="st0" cx="116.2" cy="85" r="1"/>
			</g>
			<g>
				<circle class="st0" cx="102.2" cy="85" r="1"/>
			</g>
			<g>
				<circle class="st0" cx="88.2" cy="85" r="1"/>
			</g>
			<g>
				<circle class="st0" cx="74.2" cy="85" r="1"/>
			</g>
			<g>
				<circle class="st0" cx="60.2" cy="85" r="1"/>
			</g>
			<g>
				<circle class="st0" cx="46.2" cy="85" r="1"/>
			</g>
			<g>
				<circle class="st0" cx="130.2" cy="71" r="1"/>
			</g>
			<g>
				<circle class="st0" cx="116.2" cy="71" r="1"/>
			</g>
			<g>
				<circle class="st0" cx="102.2" cy="71" r="1"/>
			</g>
			<g>
				<circle class="st0" cx="88.2" cy="71" r="1"/>
			</g>
			<g>
				<circle class="st0" cx="74.2" cy="71" r="1"/>
			</g>
			<g>
				<circle class="st0" cx="46.2" cy="71" r="1"/>
			</g>
			<g>
				<circle class="st0" cx="60.2" cy="71" r="1"/>
			</g>
			<g>
				<circle class="st0" cx="130.2" cy="57" r="1"/>
			</g>
			<g>
				<circle class="st0" cx="116.2" cy="57" r="1"/>
			</g>
			<g>
				<circle class="st0" cx="102.2" cy="57" r="1"/>
			</g>
			<g>
				<circle class="st0" cx="88.2" cy="57" r="1"/>
			</g>
			<g>
				<circle class="st0" cx="74.2" cy="57" r="1"/>
			</g>
			<g>
				<circle class="st0" cx="60.2" cy="57" r="1"/>
			</g>
			<g>
				<circle class="st0" cx="46.2" cy="57" r="1"/>
			</g>
			<g>
				<circle class="st0" cx="130.2" cy="43" r="1"/>
			</g>
			<g>
				<circle class="st0" cx="116.2" cy="43" r="1"/>
			</g>
			<g>
				<circle class="st0" cx="102.2" cy="43" r="1"/>
			</g>
			<g>
				<circle class="st0" cx="88.2" cy="43" r="1"/>
			</g>
			<g>
				<circle class="st0" cx="74.2" cy="43" r="1"/>
			</g>
			<g>
				<circle class="st0" cx="60.2" cy="43" r="1"/>
			</g>
			<g>
				<circle class="st0" cx="46.2" cy="43" r="1"/>
			</g>
			<g>
				<circle class="st0" cx="130.2" cy="29" r="1"/>
			</g>
			<g>
				<circle class="st0" cx="116.2" cy="29" r="1"/>
			</g>
			<g>
				<circle class="st0" cx="102.2" cy="29" r="1"/>
			</g>
			<g>
				<circle class="st0" cx="88.2" cy="29" r="1"/>
			</g>
			<g>
				<circle class="st0" cx="74.2" cy="29" r="1"/>
			</g>
			<g>
				<circle class="st0" cx="60.2" cy="29" r="1"/>
			</g>
			<g>
				<circle class="st0" cx="46.2" cy="29" r="1"/>
			</g>
			<g>
				<circle class="st0" cx="130.2" cy="15" r="1"/>
			</g>
			<g>
				<circle class="st0" cx="116.2" cy="15" r="1"/>
			</g>
			<g>
				<circle class="st0" cx="102.2" cy="15" r="1"/>
			</g>
			<g>
				<circle class="st0" cx="88.2" cy="15" r="1"/>
			</g>
			<g>
				<circle class="st0" cx="74.2" cy="15" r="1"/>
			</g>
			<g>
				<circle class="st0" cx="60.2" cy="15" r="1"/>
			</g>
			<g>
				<circle class="st0" cx="46.2" cy="15" r="1"/>
			</g>
			<g>
				<circle class="st0" cx="130.2" cy="1" r="1"/>
			</g>
			<g>
				<circle class="st0" cx="116.2" cy="1" r="1"/>
			</g>
			<g>
				<circle class="st0" cx="102.2" cy="1" r="1"/>
			</g>
			<g>
				<circle class="st0" cx="88.2" cy="1" r="1"/>
			</g>
			<g>
				<circle class="st0" cx="74.2" cy="1" r="1"/>
			</g>
			<g>
				<circle class="st0" cx="60.2" cy="1" r="1"/>
			</g>
			<g>
				<circle class="st0" cx="46.2" cy="1" r="1"/>
			</g>
		</g>
	</g>
	<line class="st1" x1="88.2" y1="71" x2="172.2" y2="71"/>
	<line class="st1" x1="61.2" y1="71" x2="4.2" y2="71"/>
	<g>
		<g>
			<path class="st2" d="M4.2,67.8C2.4,67.8,1,69.2,1,71c0,1.8,1.4,3.2,3.2,3.2c1.8,0,3.2-1.4,3.2-3.2C7.4,69.2,6,67.8,4.2,67.8z"/>
		</g>
	</g>
	<g>
		<g>
			<path class="st2" d="M172.2,67.8c-1.8,0-3.2,1.4-3.2,3.2c0,1.8,1.4,3.2,3.2,3.2c1.8,0,3.2-1.4,3.2-3.2
				C175.4,69.2,174,67.8,172.2,67.8z"/>
		</g>
	</g>
	<path class="st3" d="M104.9,65.5c6.8-5.1,11.3-13.3,11.3-22.5c0-15.5-12.5-28-28-28s-28,12.5-28,28c0,15.5,12.5,28,28,28"/>
	<line class="st4" x1="88.2" y1="43" x2="74.2" y2="15"/>
	<line class="st4" x1="88.2" y1="43" x2="116.2" y2="15"/>
	<line class="st4" x1="88.2" y1="43" x2="116.2" y2="43"/>
	<g>
		<g>
			<path class="st2" d="M116.2,11.8c-1.8,0-3.2,1.4-3.2,3.2c0,1.8,1.4,3.2,3.2,3.2c1.8,0,3.2-1.4,3.2-3.2
				C119.4,13.2,118,11.8,116.2,11.8z"/>
		</g>
	</g>
	<g>
		<g>
			<path class="st2" d="M74.2,11.8c-1.8,0-3.2,1.4-3.2,3.2c0,1.8,1.4,3.2,3.2,3.2c1.8,0,3.2-1.4,3.2-3.2
				C77.4,13.2,76,11.8,74.2,11.8z"/>
		</g>
	</g>
	<g>
		<g>
			<path class="st2" d="M116.2,39.7c-1.8,0-3.2,1.4-3.2,3.2c0,1.8,1.4,3.2,3.2,3.2c1.8,0,3.2-1.4,3.2-3.2
				C119.4,41.2,118,39.7,116.2,39.7z"/>
		</g>
	</g>
</g>
</svg>
