<?xml version="1.0" encoding="UTF-8" standalone="no"?>
<svg width="100px" height="52px" viewBox="0 0 100 52" version="1.1" xmlns="http://www.w3.org/2000/svg" xmlns:xlink="http://www.w3.org/1999/xlink">
    <!-- Generator: sketchtool 3.7.2 (28276) - http://www.bohemiancoding.com/sketch -->
    <title>3753B21A-BB18-4D91-95C8-85F9277001BE</title>
    <desc>Created with sketchtool.</desc>
    <defs></defs>
    <g id="Page-2" stroke="none" stroke-width="1" fill="none" fill-rule="evenodd">
        <g id="02-About" transform="translate(-523.000000, -1713.000000)">
            <g id="dbaas-ico" transform="translate(524.000000, 1713.500000)">
                <g id="Group">
                    <g transform="translate(5.062179, 0.000000)" id="Shape">
                        <polygon stroke="#FFFFFF" stroke-width="1.2475" fill="#752AF3" points="1.15706948 19.2753623 38.1109759 37.7536232 38.1109759 46.9565217 1.15706948 28.4782609"></polygon>
                        <polyline stroke="#FFFFFF" stroke-width="1.2475" fill="#752AF3" points="38.1109759 37.7536232 92.8548256 19.4202899 92.8548256 28.6231884 38.1109759 46.9565217"></polyline>
                        <g>
                            <path d="M38.1109759,38.1884058 C38.0386591,38.1884058 37.9663423,38.1884058 37.8940254,38.115942 L1.01243579,19.6376812 C0.795485266,19.5652174 0.723168424,19.4202899 0.723168424,19.2028986 C0.723168424,18.9855072 0.867802109,18.8405797 1.01243579,18.8405797 L55.8286023,0.507246377 L55.973236,0.507246377 C56.0455529,0.507246377 56.1178697,0.507246377 56.1901865,0.579710145 L93.0717762,19.057971 C93.2164098,19.1304348 93.3610435,19.3478261 93.2887267,19.4927536 C93.2887267,19.7101449 93.144093,19.8550725 92.9994593,19.8550725 L38.2556096,38.1884058 L38.1109759,38.1884058 L38.1109759,38.1884058 Z" fill="#752AF3"></path>
                            <path d="M55.973236,0.869565217 L92.8548256,19.3478261 L38.1109759,37.7536232 L1.22938632,19.2753623 L55.973236,0.869565217 L55.973236,0.869565217 Z M55.973236,0 C55.9009192,0 55.7562855,0 55.6839686,0.0724637681 L0.867802109,18.4057971 C0.506217897,18.5507246 0.28926737,18.8405797 0.28926737,19.2028986 C0.28926737,19.5652174 0.433901054,19.9275362 0.795485266,20.0724638 L37.6770749,38.5507246 C37.8217086,38.6231884 37.9663423,38.6231884 38.1109759,38.6231884 C38.1832928,38.6231884 38.3279265,38.6231884 38.4002433,38.5507246 L93.144093,20.2173913 C93.5056772,20.0724638 93.7226277,19.7826087 93.7226277,19.4202899 C93.7226277,19.057971 93.5779941,18.6956522 93.2164098,18.5507246 L56.3348202,0.0724637681 C56.1901865,0 56.0455529,0 55.973236,0 L55.973236,0 L55.973236,0 Z" fill="#FFFFFF"></path>
                        </g>
                    </g>
                    <polygon id="Shape" stroke="#FFFFFF" stroke-width="1.2475" fill="#752AF3" points="43.1731549 37.7536232 48.9585023 40.6521739 48.9585023 49.9275362 43.1731549 46.9565217"></polygon>
                    <polygon id="Shape" stroke="#FFFFFF" stroke-width="1.2475" fill="#752AF3" points="0.433901054 16.2318841 6.21924845 19.1304348 6.21924845 28.4057971 0.433901054 25.5072464"></polygon>
                    <g transform="translate(9.401190, 26.811594)" id="Shape" stroke="#FFFFFF">
                        <path d="M0,0.362318841 L0.144633685,0.507246377"></path>
                        <path d="M2.16950527,1.44927536 L29.1436875,15" stroke-dasharray="0.5143,3.0857"></path>
                        <path d="M30.0838064,15.5072464 L30.300757,15.5797101"></path>
                    </g>
                    <g transform="translate(9.401190, 25.362319)" id="Shape" stroke="#FFFFFF">
                        <path d="M0,0.144927536 L0.144633685,0.217391304"></path>
                        <path d="M2.16950527,1.23188406 L29.1436875,14.7826087" stroke-dasharray="0.5143,3.0857"></path>
                        <path d="M30.0838064,15.2173913 L30.300757,15.3623188"></path>
                    </g>
                    <path d="M74.4140308,27.173913 L53.7314139,16.884058" id="Shape" stroke="#FFFFFF" stroke-width="1.2475"></path>
                    <path d="M64.5066234,30.5072464 L49.1754528,22.826087" id="Shape" stroke="#FFFFFF" stroke-width="1.2475"></path>
                </g>
            </g>
        </g>
    </g>
</svg>