<?xml version="1.0" encoding="UTF-8" standalone="no"?>
<svg width="52px" height="60px" viewBox="0 0 52 60" version="1.1" xmlns="http://www.w3.org/2000/svg" xmlns:xlink="http://www.w3.org/1999/xlink">
    <!-- Generator: sketchtool 3.7.2 (28276) - http://www.bohemiancoding.com/sketch -->
    <title>89BEE022-A509-4152-A710-6D240AA4621D</title>
    <desc>Created with sketchtool.</desc>
    <defs></defs>
    <g id="Page-2" stroke="none" stroke-width="1" fill="none" fill-rule="evenodd">
        <g id="02-About" transform="translate(-250.000000, -1708.000000)">
            <g id="dbms-ico" transform="translate(251.000000, 1708.500000)">
                <g id="Group-4" transform="translate(0.000000, 38.247324)">
                    <path d="M0.40525974,0.243913506 L0.40525974,10.957944 C0.40525974,16.1456469 11.4046104,20.3538036 24.9734416,20.3538036 C38.5416234,20.3538036 49.540974,16.1456469 49.540974,10.957944 L49.540974,0.243913506" id="Fill-1" fill="#7629F4"></path>
                    <path d="M0.40525974,0.243913506 L0.40525974,10.957944 C0.40525974,16.1456469 11.4046104,20.3538036 24.9734416,20.3538036 C38.5416234,20.3538036 49.540974,16.1456469 49.540974,10.957944 L49.540974,0.243913506" id="Stroke-3" stroke="#7629F4" stroke-width="1.248" stroke-linecap="round" stroke-linejoin="round"></path>
                </g>
                <path d="M49.5409091,38.4912379 C49.5409091,43.6789408 38.5415584,47.8858001 24.9733766,47.8858001 C11.4045455,47.8858001 0.405194805,43.6789408 0.405194805,38.4912379 C0.405194805,33.3022375 11.4045455,29.0947295 24.9733766,29.0947295 C38.5415584,29.0947295 49.5409091,33.3022375 49.5409091,38.4912379" id="Fill-5" fill="#FFFFFF"></path>
                <path d="M49.5409091,38.4912379 C49.5409091,43.6789408 38.5415584,47.8858001 24.9733766,47.8858001 C11.4045455,47.8858001 0.405194805,43.6789408 0.405194805,38.4912379 C0.405194805,33.3022375 11.4045455,29.0947295 24.9733766,29.0947295 C38.5415584,29.0947295 49.5409091,33.3022375 49.5409091,38.4912379 L49.5409091,38.4912379 Z" id="Stroke-7" stroke="#7629F4" stroke-width="1.248" stroke-linecap="round" stroke-linejoin="round"></path>
                <g id="Group-12" transform="translate(0.000000, 23.975789)">
                    <path d="M0.40525974,0.169766395 L0.40525974,10.8844456 C0.40525974,16.0727972 11.4046104,20.2796565 24.9734416,20.2796565 C38.5416234,20.2796565 49.540974,16.0727972 49.540974,10.8844456 L49.540974,0.169766395" id="Fill-9" fill="#7629F4"></path>
                    <path d="M0.40525974,0.169766395 L0.40525974,10.8844456 C0.40525974,16.0727972 11.4046104,20.2796565 24.9734416,20.2796565 C38.5416234,20.2796565 49.540974,16.0727972 49.540974,10.8844456 L49.540974,0.169766395" id="Stroke-11" stroke="#7629F4" stroke-width="1.248" stroke-linecap="round" stroke-linejoin="round"></path>
                </g>
                <path d="M49.5409091,24.1455558 C49.5409091,29.3345562 38.5415584,33.5407667 24.9733766,33.5407667 C11.4045455,33.5407667 0.405194805,29.3345562 0.405194805,24.1455558 C0.405194805,18.9565555 11.4045455,14.7496962 24.9733766,14.7496962 C38.5415584,14.7496962 49.5409091,18.9565555 49.5409091,24.1455558" id="Fill-13" fill="#FFFFFF"></path>
                <path d="M49.5409091,24.1455558 C49.5409091,29.3345562 38.5415584,33.5407667 24.9733766,33.5407667 C11.4045455,33.5407667 0.405194805,29.3345562 0.405194805,24.1455558 C0.405194805,18.9565555 11.4045455,14.7496962 24.9733766,14.7496962 C38.5415584,14.7496962 49.5409091,18.9565555 49.5409091,24.1455558 L49.5409091,24.1455558 Z" id="Stroke-15" stroke="#7629F4" stroke-width="1.248" stroke-linecap="round" stroke-linejoin="round"></path>
                <g id="Group-20" transform="translate(0.000000, 9.704255)">
                    <path d="M0.40525974,0.0956841546 L0.40525974,10.8110121 C0.40525974,15.998715 11.4046104,20.2068717 24.9734416,20.2068717 C38.5416234,20.2068717 49.540974,15.998715 49.540974,10.8110121 L49.540974,0.0956841546" id="Fill-17" fill="#7629F4"></path>
                    <path d="M0.40525974,0.0956841546 L0.40525974,10.8110121 C0.40525974,15.998715 11.4046104,20.2068717 24.9734416,20.2068717 C38.5416234,20.2068717 49.540974,15.998715 49.540974,10.8110121 L49.540974,0.0956841546" id="Stroke-19" stroke="#7629F4" stroke-width="1.248" stroke-linecap="round" stroke-linejoin="round"></path>
                </g>
                <path d="M49.5409091,9.79993867 C49.5409091,14.9895877 38.5415584,19.1957983 24.9733766,19.1957983 C11.4045455,19.1957983 0.405194805,14.9895877 0.405194805,9.79993867 C0.405194805,4.61093832 11.4045455,0.404727756 24.9733766,0.404727756 C38.5415584,0.404727756 49.5409091,4.61093832 49.5409091,9.79993867" id="Fill-21" fill="#FFFFFF"></path>
                <path d="M49.5409091,9.79993867 C49.5409091,14.9895877 38.5415584,19.1957983 24.9733766,19.1957983 C11.4045455,19.1957983 0.405194805,14.9895877 0.405194805,9.79993867 C0.405194805,4.61093832 11.4045455,0.404727756 24.9733766,0.404727756 C38.5415584,0.404727756 49.5409091,4.61093832 49.5409091,9.79993867 L49.5409091,9.79993867 Z" id="Stroke-23" stroke="#7629F4" stroke-width="1.248" stroke-linecap="round" stroke-linejoin="round"></path>
                <g id="Group-28" transform="translate(22.077922, 9.704255)">
                    <path d="M5.74980519,0.0956841546 C5.74980519,0.698332152 4.47188312,1.18745658 2.89525974,1.18745658 C1.31993506,1.18745658 0.0413636364,0.698332152 0.0413636364,0.0956841546" id="Fill-25" fill="#FFFFFF"></path>
                    <path d="M5.74980519,0.0956841546 C5.74980519,0.698332152 4.47188312,1.18745658 2.89525974,1.18745658 C1.31993506,1.18745658 0.0413636364,0.698332152 0.0413636364,0.0956841546" id="Stroke-27" stroke="#7629F4" stroke-width="1.248" stroke-linecap="round" stroke-linejoin="round"></path>
                </g>
            </g>
        </g>
    </g>
</svg>