<?xml version="1.0" encoding="UTF-8" standalone="no"?>
<svg width="63px" height="63px" viewBox="0 0 63 63" version="1.1" xmlns="http://www.w3.org/2000/svg" xmlns:xlink="http://www.w3.org/1999/xlink">
    <!-- Generator: sketchtool 3.7.2 (28276) - http://www.bohemiancoding.com/sketch -->
    <title>6CADF118-9A98-4FBF-94C5-35AA14DA0B00</title>
    <desc>Created with sketchtool.</desc>
    <defs></defs>
    <g id="Page-2" stroke="none" stroke-width="1" fill="none" fill-rule="evenodd">
        <g id="02-About" transform="translate(-1125.000000, -1707.000000)">
            <g id="log-ico" transform="translate(1126.000000, 1708.000000)">
                <path d="M58.9289048,20.1924524 L58.9192222,20.1924524 L30.7236667,30.717373 L45.3055714,4.37118254 C51.8509683,7.99245238 56.5179524,13.6954683 58.9289048,20.1924524" id="Fill-1" fill="#7629F4"></path>
                <path d="M45.3055714,4.37108571 C30.7527143,-3.67510476 12.4333492,1.59219683 4.37747619,16.1353714 C-3.67839683,30.6882286 1.58890476,49.0075937 16.1417619,57.0634667 C30.6849365,65.1096571 49.0043016,59.8520381 57.0601746,45.299181 C61.4947778,37.2917206 61.8917619,28.1417206 58.9289048,20.1923556 C56.5179524,13.6953714 51.8509683,7.99235556 45.3055714,4.37108571 L45.3055714,4.37108571 Z" id="Stroke-3" stroke="#7629F4" stroke-width="1.248" stroke-linecap="round" stroke-linejoin="round"></path>
                <path d="M58.9192222,20.1924524 L30.7236667,30.717373" id="Stroke-5" stroke="#7629F4" stroke-width="1.248" stroke-linecap="round" stroke-linejoin="round"></path>
                <path d="M30.7236667,30.717373 L45.3055714,4.37118254" id="Stroke-7" stroke="#7629F4" stroke-width="1.248" stroke-linecap="round" stroke-linejoin="round"></path>
                <path d="M4.37747619,16.1354683 L30.7236667,30.717373" id="Stroke-9" stroke="#7629F4" stroke-width="1.248" stroke-linecap="round" stroke-linejoin="round"></path>
            </g>
        </g>
    </g>
</svg>